<?xml version="1.0" standalone="no"?><!DOCTYPE svg PUBLIC "-//W3C//DTD SVG 1.1//EN" "http://www.w3.org/Graphics/SVG/1.1/DTD/svg11.dtd"><svg t="1628735373717" class="icon" viewBox="0 0 1323 1024" version="1.1" xmlns="http://www.w3.org/2000/svg" p-id="10410" xmlns:xlink="http://www.w3.org/1999/xlink" width="258.3984375" height="200"><defs><style type="text/css"></style></defs><path d="M512.29 581.708c-14.422 14.423-48.075 59.293-6.41 68.908 24.038 6.41 32.05-67.305 6.41-68.907z" fill="#D81E06" p-id="10411"></path><path d="M31.54 0v1024h1023.999V0h-1024z m751.573 644.206c-51.28 73.715-149.033 80.125-208.325 160.25-17.628 17.628-8.013 60.895-41.666 62.498-38.46-24.038-30.447-64.1-56.087-89.74-46.472-48.075-126.598-49.678-173.07-104.163-158.648-182.685-6.41-522.415 291.656-472.739 173.07 28.845 306.077 272.425 187.492 443.894z" fill="#D81E06" p-id="10412"></path><path d="M545.943 581.708c1.602 27.243-9.615 68.908 20.832 68.908h14.423c17.627-27.242-6.41-64.1-35.255-68.907zM337.618 394.216c-49.679 17.628-52.883 36.859-56.089 76.92-6.41 131.406 181.084 124.996 181.084 6.41 0-59.292-54.486-108.97-124.995-83.33z m326.91 0c-76.92 27.243-68.907 153.84 0 173.071 158.648 44.87 163.455-229.157 0-173.07z" fill="#D81E06" p-id="10413"></path></svg>