<?xml version="1.0" standalone="no"?><!DOCTYPE svg PUBLIC "-//W3C//DTD SVG 1.1//EN" "http://www.w3.org/Graphics/SVG/1.1/DTD/svg11.dtd"><svg t="1628733317754" class="icon" viewBox="0 0 1549 1024" version="1.1" xmlns="http://www.w3.org/2000/svg" p-id="3624" xmlns:xlink="http://www.w3.org/1999/xlink" width="302.5390625" height="200"><defs><style type="text/css"></style></defs><path d="M372.287007 1023.922771a364.801733 364.801733 0 1 1 0-729.44993 354.821888 354.821888 0 0 1 61.414433 5.220227 415.929249 415.929249 0 0 1 815.276601 116.380351 400.268568 400.268568 0 0 1-2.610114 44.679 281.585176 281.585176 0 1 1 29.786 562.249136 253.488073 253.488073 0 0 1-32.396113 0H372.287007z" fill="#1890FF" p-id="3625"></path><path d="M555.148482 768.745802a30.707217 30.707217 0 0 1-24.719309-30.707217V572.526688a32.242577 32.242577 0 0 1 24.719309-30.707217l153.536083-33.470866 16.274825-65.713444H546.550461a113.463165 113.463165 0 0 0-114.230845 113.156094V752.470977a114.998526 114.998526 0 0 0 114.230845 114.384382h179.023073l-16.274825-65.86698z m448.632434-325.650032H823.683091l16.121289 65.713443 153.536083 33.470866a30.707217 30.707217 0 0 1 24.872845 30.707217v165.511897a32.396113 32.396113 0 0 1-24.872845 30.707217l-153.536083 33.31733-16.121289 65.866979h180.097825a114.384382 114.384382 0 0 0 114.230846-114.384381V556.251863a114.84499 114.84499 0 0 0-114.230846-113.156093z" fill="#FFFFFF" p-id="3626"></path><path d="M709.298709 646.838152h131.580423v16.121288h-131.580423z" fill="#FFFFFF" p-id="3627"></path></svg>