<?xml version="1.0" standalone="no"?><!DOCTYPE svg PUBLIC "-//W3C//DTD SVG 1.1//EN" "http://www.w3.org/Graphics/SVG/1.1/DTD/svg11.dtd"><svg t="1597222058036" class="icon" viewBox="0 0 1024 1024" version="1.1" xmlns="http://www.w3.org/2000/svg" p-id="4555" xmlns:xlink="http://www.w3.org/1999/xlink" width="200" height="200"><defs><style type="text/css"></style></defs><path d="M785.0496 766.976h-180.5312l43.6736-61.7984 131.7376-40.2432c23.9104-7.5264 39.936-29.696 39.936-54.6304V413.0304c0-24.9344-16.0256-47.104-39.5776-54.6304l-131.7376-40.2944-43.7248-61.7472h180.224A136.4992 136.4992 0 0 1 921.6 392.8576v237.9264a136.3968 136.3968 0 0 1-136.5504 136.192z m-409.6-226.304h273.1008v-61.44H375.4496v61.44zM244.0704 358.0416c-23.9104 7.5264-39.936 29.696-39.6288 54.6304v197.632c0 24.9344 16.0768 47.104 39.6288 54.6304l131.7376 40.2432 43.6736 61.7984H238.9504A136.4992 136.4992 0 0 1 102.4 630.4256V392.5504A136.4992 136.4992 0 0 1 238.9504 256h180.5312L375.808 317.7984l-131.7376 40.2432z" fill="#d4237a" p-id="4556"></path></svg>