<?xml version="1.0" standalone="no"?><!DOCTYPE svg PUBLIC "-//W3C//DTD SVG 1.1//EN" "http://www.w3.org/Graphics/SVG/1.1/DTD/svg11.dtd"><svg t="1692845584051" class="icon" viewBox="0 0 1365 1024" version="1.1" xmlns="http://www.w3.org/2000/svg" p-id="84811" xmlns:xlink="http://www.w3.org/1999/xlink" width="266.6015625" height="200"><path d="M1183.864087 814.855758c-21.721212 22.093576-65.163636 55.233939-141.187879 55.233939H575.732208c141.187879-138.146909 260.623515-254.200242 271.484122-265.24703 10.860606-11.046788 38.012121-38.694788 65.163636-60.819394 54.30303-49.710545 97.745455-55.233939 135.726546-55.23394 54.30303 0 97.745455 22.093576 135.757575 55.23394 76.024242 71.866182 76.024242 198.966303 0 270.832485z m92.284121-359.237819a300.931879 300.931879 0 0 0-222.611393-99.483151c-76.024242 0-141.187879 27.61697-200.890182 71.866182-21.721212 22.093576-54.30303 44.187152-81.454546 77.358545-21.721212 22.093576-488.665212 486.337939-488.665212 486.33794 27.151515 5.523394 59.733333 5.523394 86.884849 5.523393h591.809939c43.442424 0 76.024242 0 108.606061-5.523393 70.593939-5.523394 141.187879-33.171394 200.890181-88.436364 124.89697-121.576727 124.89697-326.066424 5.430303-447.643152z" fill="#00A3FF" p-id="84812"></path><path d="M504.486633 423.036121c-60.043636-44.590545-120.087273-66.901333-191.084606-66.901333a302.173091 302.173091 0 0 0-223.852606 100.352 329.603879 329.603879 0 0 0 5.461333 457.107394c54.613333 50.176 109.195636 78.041212 174.700606 83.626666l125.579636-122.631757h-70.966303c-70.997333-5.585455-114.65697-27.896242-141.963636-55.761455-76.427636-78.041212-76.427636-200.67297-5.461333-278.714181 38.229333-39.036121 81.92-55.761455 136.502303-55.761455 32.768 0 81.92 5.585455 131.040969 55.761455 21.845333 22.279758 81.88897 66.901333 103.734303 89.18109h5.461334l81.92-83.626666v-5.585455c-38.260364-39.005091-98.304-89.181091-131.072-117.046303" fill="#00C8DC" p-id="84813"></path><path d="M1082.674269 279.427879C1021.854875 115.060364 861.55233 0 679.125178 0c-215.598545 0-386.947879 158.875152-420.150303 356.134788 16.601212 0 33.202424-5.461333 55.296-5.461333 22.124606 0 49.741576 5.461333 71.866182 5.461333 27.61697-136.967758 149.255758-235.582061 292.988121-235.582061 121.638788 0 226.645333 71.214545 276.386909 175.321212 0 0 5.554424 5.492364 5.554425 0 38.663758-5.461333 82.91297-16.446061 121.607757-16.44606 0 5.492364 0 5.492364 0 0" fill="#006EFF" p-id="84814"></path></svg>