<?xml version="1.0" standalone="no"?><!DOCTYPE svg PUBLIC "-//W3C//DTD SVG 1.1//EN" "http://www.w3.org/Graphics/SVG/1.1/DTD/svg11.dtd"><svg t="1595956533609" class="icon" viewBox="0 0 1054 1024" version="1.1" xmlns="http://www.w3.org/2000/svg" p-id="32513" xmlns:xlink="http://www.w3.org/1999/xlink" width="32.9375" height="32"><defs><style type="text/css"></style></defs><path d="M527.160136 1023.841675a531.65498 531.65498 0 0 1-372.749565-149.93367 501.626025 501.626025 0 0 1 0-724.072496A531.602205 531.602205 0 0 1 527.160136 0.007388a531.65498 531.65498 0 0 1 372.749566 149.933671 501.626025 501.626025 0 0 1 0 724.072496A531.65498 531.65498 0 0 1 527.160136 1023.841675zM199.48039 359.774313v306.728086H854.998208V359.774313h-206.719531A183.815197 183.815197 0 0 1 633.343362 426.640191a108.874749 108.874749 0 0 1-106.183226 66.918654 123.915614 123.915614 0 0 1-113.096746-66.918654 197.800562 197.800562 0 0 1-22.271034-66.865878H199.48039z" fill="#666666" p-id="32514"></path></svg>