<?xml version="1.0" standalone="no"?><!DOCTYPE svg PUBLIC "-//W3C//DTD SVG 1.1//EN" "http://www.w3.org/Graphics/SVG/1.1/DTD/svg11.dtd"><svg t="1595956522536" class="icon" viewBox="0 0 1024 1024" version="1.1" xmlns="http://www.w3.org/2000/svg" p-id="31745" xmlns:xlink="http://www.w3.org/1999/xlink" width="32" height="32"><defs><style type="text/css"></style></defs><path d="M232.105289 539.470655l110.351294 0c10.555403 0 19.102057-8.31027 19.102057-18.570961L361.558639 344.264764c-62.314231-32.250518-115.315352-80.704067-148.549268-126.485763l0 303.118646C213.009372 531.160385 221.562165 539.470655 232.105289 539.470655z" p-id="31746"></path><path d="M657.960303 348.041788l0 171.21857c0 10.260691 8.552793 18.570961 19.095917 18.570961L787.407514 537.831318c10.555403 0 19.102057-8.31027 19.102057-18.570961L806.509571 226.359424c-8.426927 12.245905-18.086937 24.422226-28.817326 36.130895C754.87354 287.395546 715.579605 322.390571 657.960303 348.041788z" p-id="31747"></path><path d="M506.064824 344.444866c209.751165-6.506181 303.09204-168.08623 300.443723-215.130685L657.960303 129.314181c-38.223556 44.856627-64.509223 73.132624-151.895479 73.132624-78.480422-4.247744-99.226932-21.724791-144.506185-70.855768L213.009372 131.591037C213.009372 187.822736 355.526249 346.677721 506.064824 344.444866z" p-id="31748"></path><path d="M722.284307 798.961664c0 6.288217 5.770424 11.20111 12.877285 11.20111l27.76332 0 0-40.878013L722.284307 769.284761 722.284307 798.961664z" p-id="31749"></path><path d="M722.284307 727.428467l0 28.499078 40.641629 0 0-39.892569-27.76332 0C728.054731 716.034976 722.284307 721.140251 722.284307 727.428467z" p-id="31750"></path><path d="M580.164472 726.840066l-18.206664 0c-10.887978 0-19.767206-7.862062-19.767206-17.49035l0-39.105646c0-2.354628-2.00261-4.125971-4.670369-4.125971l-50.857295 0c-2.667759 0-4.663206 1.772366-4.663206 3.927449l-0.224104 39.304168c0 9.628288-9.103332 17.49035-19.99131 17.49035l-18.877953 0c-4.88731 0-8.879228 3.53757-8.879228 7.862062l0 64.458057c0 6.288217 5.770424 11.393491 12.877285 11.393491l129.268132 0c7.106862 0 12.877285-5.105275 12.877285-11.393491l0-64.458057C589.04984 730.377636 585.051783 726.840066 580.164472 726.840066z" p-id="31751"></path><path d="M778.253016 810.162774l27.981285 0c7.106862 0 12.884448-4.912893 12.884448-11.20111l0-29.676903-40.865733 0L778.253016 810.162774z" p-id="31752"></path><path d="M843.647399 202.561415l0 316.699965c0 30.719652-25.224498 55.709813-56.237839 55.709813L677.057243 574.971194c-31.007201 0-56.230676-24.990161-56.230676-55.709813L620.826568 362.250394c-32.988322 10.68434-70.747297 17.984606-113.607454 19.313881l-4.298909 0.041956c-35.688827 0-70.891584-7.677866-104.222713-20.518313l0 159.810752c0 30.719652-25.224498 55.709813-56.237839 55.709813L232.107335 576.608483c-31.007201 0-56.231699-24.990161-56.231699-55.709813L175.875636 202.561415 63.74993 202.561415l0 631.051443c0 32.561603 26.39516 58.956763 58.956763 58.956763l777.623683 0c32.561603 0 58.956763-26.39516 58.956763-58.956763L959.287139 202.561415 843.647399 202.561415zM381.856941 795.424094c0 13.561877-12.660344 24.76401-27.981285 24.76401L224.831628 820.188104c-15.32094 0-27.981285-11.20111-27.981285-24.76401L196.850343 675.745365c0-11.592013 10.881838-21.027919 23.983227-21.027919l25.096585 0c13.107529 0 23.989367 9.435906 23.989367 21.027919l0 53.454446c0 2.354628 2.00261 4.125971 4.663206 4.125971l29.541827 0c2.661619 0 4.663206-1.772366 4.663206-4.125971l0-53.454446c0-11.592013 10.881838-21.027919 23.989367-21.027919l25.096585 0c13.101389 0 23.983227 9.435906 23.983227 21.027919L381.856941 795.424094zM604.15384 799.160185c0 13.555737-12.660344 24.756847-27.981285 24.756847L446.904423 823.917032c-15.32094 0-27.981285-11.20111-27.981285-24.756847l0-64.458057c0-11.592013 10.881838-21.225417 23.983227-21.225417l18.877953 0c2.667759 0 4.88731-1.765203 4.88731-4.125971l0.224104-39.304168c0-9.429767 8.885368-17.291828 19.767206-17.291828l50.857295 0c10.887978 0 19.767206 7.862062 19.767206 17.49035l0 39.105646c0 2.360767 2.00261 4.125971 4.670369 4.125971l18.206664 0c13.107529 0 23.989367 9.634428 23.989367 21.225417L604.15384 799.160185zM690.297802 747.669464c0 26.139334-7.106862 51.683103-23.765263 75.857688l-13.101389-6.876618c13.101389-19.063171 19.767206-39.105646 21.321608-59.545164-10.43977 10.612709-21.986757 19.063171-34.422997 26.13217l-8.220219-11.19497c16.210193-9.046027 30.42494-20.439518 42.643216-35.766598-1.113357-13.561877-4.222161-27.117614-8.885368-40.481993-7.773034 6.67912-16.210193 12.576433-25.096585 18.078751l-8.438183-11.20111c10.216689-6.288217 19.767206-13.363356 28.205389-21.027919-4.222161-10.216689-9.327436-20.042475-14.879895-29.868261l13.549597-6.096858c4.440126 8.060583 8.662287 16.312524 12.43624 24.565489 4.88731-5.501294 9.327436-11.393491 13.325493-17.681708l13.101389 6.480598c-5.994528 9.435906-12.660344 17.886369-20.208251 25.550932C685.634596 705.223746 690.297802 726.647685 690.297802 747.669464zM834.222749 798.961664c0 13.754259-12.660344 24.565489-27.987425 24.565489l-71.072709 0c-15.32094 0-27.981285-10.81123-27.981285-24.565489l0-71.533196c0-13.555737 12.660344-24.756847 27.981285-24.756847l71.072709 0c15.328104 0 27.987425 11.20111 27.987425 24.756847L834.222749 798.961664zM834.887898 674.958442l-17.764596 0 0 16.312524-15.103999 0 0-16.312524-62.85863 0 0 16.312524-15.103999 0 0-16.312524L706.515159 674.958442 706.515159 661.601226l17.541515 0 0-16.709567 15.103999 0L739.160673 661.601226l62.85863 0 0-16.709567 15.103999 0L817.123302 661.601226l17.764596 0L834.887898 674.958442z" p-id="31753"></path><path d="M806.234301 716.034976l-27.981285 0 0 39.892569 40.865733 0 0-28.499078C819.118749 721.140251 813.342186 716.034976 806.234301 716.034976z" p-id="31754"></path><path d="M357.874737 668.081825l-25.096585 0c-4.88731 0-8.885368 3.346211-8.885368 7.66354l0 53.454446c0 9.429767-8.885368 17.49035-19.767206 17.49035l-29.541827 0c-10.881838 0-19.767206-8.060583-19.767206-17.49035l0-53.454446c0-4.318352-3.998057-7.66354-8.885368-7.66354L220.833571 668.081825c-4.88731 0-8.879228 3.346211-8.879228 7.66354l0 119.67873c0 6.486738 5.770424 11.399631 12.877285 11.399631l129.044028 0c7.106862 0 12.884448-4.912893 12.884448-11.399631L366.760105 675.745365C366.760105 671.427012 362.762047 668.081825 357.874737 668.081825z" p-id="31755"></path></svg>