<?xml version="1.0" standalone="no"?><!DOCTYPE svg PUBLIC "-//W3C//DTD SVG 1.1//EN" "http://www.w3.org/Graphics/SVG/1.1/DTD/svg11.dtd"><svg t="1597219650224" class="icon" viewBox="0 0 1024 1024" version="1.1" xmlns="http://www.w3.org/2000/svg" p-id="27262" xmlns:xlink="http://www.w3.org/1999/xlink" width="200" height="200"><defs><style type="text/css"></style></defs><path d="M511.850667 512.533333m-448 0a448 448 0 1 0 896 0 448 448 0 1 0-896 0Z" fill="#009EA4" p-id="27263"></path><path d="M234.666667 490.666667h170.666666v42.666666h-170.666666zM725.333333 426.666667h-42.666666v64h-64v42.666666h64v64h42.666666v-64h64v-42.666666h-64z" fill="#FFFFFF" p-id="27264"></path><path d="M693.013333 341.568c-81.194667 0-151.232 39.914667-183.893333 97.344-32.213333-57.344-101.248-97.173333-181.269333-97.173333-110.698667 0-200.746667 76.032-200.746667 169.493333s90.048 169.493333 200.746667 169.493333c80.021333 0 149.056-39.850667 181.269333-97.173333 32.661333 57.429333 102.698667 97.344 183.893333 97.344 112.256 0 203.584-76.096 203.584-169.642667 0-93.589333-91.328-169.685333-203.584-169.685333zM330.410667 638.016c-87.829333 0-159.274667-56.874667-159.274667-126.805333s71.445333-126.805333 159.274667-126.805334 159.274667 56.896 159.274666 126.805334-71.466667 126.805333-159.274666 126.805333z m362.282666-0.170667c-88.085333 0-159.744-56.810667-159.744-126.634666s71.658667-126.634667 159.744-126.634667c88.085333 0 159.744 56.810667 159.744 126.634667s-71.658667 126.634667-159.744 126.634666z" fill="#FFFFFF" p-id="27265"></path></svg>