<?xml version="1.0" standalone="no"?><!DOCTYPE svg PUBLIC "-//W3C//DTD SVG 1.1//EN" "http://www.w3.org/Graphics/SVG/1.1/DTD/svg11.dtd"><svg t="1595953823927" class="icon" viewBox="0 0 1024 1024" version="1.1" xmlns="http://www.w3.org/2000/svg" p-id="16488" xmlns:xlink="http://www.w3.org/1999/xlink" width="200" height="200"><defs><style type="text/css"></style></defs><path d="M459.45856 152.480427c-37.56032 8.721067-61.262507 18.558293-86.30272 35.328-30.405973 20.34688-62.825813 58.801493-78.0288 92.337493-13.4144 29.73696-22.80448 76.465493-21.68832 107.76576l0.447147 8.942933-24.593067 3.577173c-31.0784 4.471467-46.506667 8.942933-70.427307 20.34688-65.061547 31.300267-108.660053 84.066987-126.54592 152.70912-5.143893 19.89632-5.81632 78.025387-1.119573 98.372267 13.63968 59.47392 46.728533 107.994453 96.361813 140.854613 19.23072 12.526933 48.964267 25.941333 67.075413 30.18752 6.7072 1.56672 15.202987 3.577173 18.78016 4.693333 3.577173 1.119573 21.46304 2.013867 39.799467 2.013867 26.156373 0 36.891307-0.894293 50.527573-4.47488 41.362773-10.953387 72.215893-26.825387 99.269973-50.97472 10.062507-9.168213 74.451627-80.489813 138.171733-153.152853 11.625813-13.4144 27.27936-31.0784 34.65216-39.574187 7.379627-8.27392 22.135467-25.265493 32.866987-37.56032 29.293227-33.539413 48.96768-46.05952 81.834667-51.872427 43.820373-7.826773 94.798507 18.11456 115.367253 58.579627 8.721067 17.43872 14.75584 40.912213 14.75584 57.9072 0 18.333013 10.062507 34.880853 27.723093 46.281387 7.826773 5.14048 11.625813 5.812907 27.05408 5.812907 14.086827 0.221867 19.674453-0.894293 26.832213-4.693333 31.965867-16.994987 38.454613-54.10816 20.565333-115.817813-15.64672-53.661013-55.671467-102.847147-107.543893-131.91168-19.449173-10.9568-57.009493-22.582613-81.831253-25.71264-11.625813-1.34144-22.807893-2.90816-24.593067-3.577173-2.68288-0.672427-3.351893-6.038187-3.580587-29.51168-0.218453-21.466453-1.559893-33.092267-5.14048-46.506667-13.18912-48.29184-30.631253-78.25408-65.286827-111.5648-31.522133-30.184107-67.744427-49.411413-109.779627-58.13248C527.650133 149.3504 473.767253 148.903253 459.45856 152.480427L459.45856 152.480427zM529.885867 261.812907c34.433707 7.826773 66.628267 38.679893 78.701227 75.34592 5.812907 17.885867 5.587627 52.76672-0.672427 70.20544-11.625813 33.088853-31.747413 55.002453-62.375253 67.969707-17.885867 7.82336-20.343467 8.270507-43.820373 8.270507-15.202987 0.22528-27.723093-0.894293-32.41984-2.68288-13.861547-5.36576-35.771733-16.991573-43.15136-23.02976-10.059093-8.270507-26.606933-33.757867-32.41984-50.080427-6.260053-17.885867-6.48192-52.54144-0.447147-70.874453 9.61536-29.515093 30.631253-53.661013 59.026773-67.52256C476.228267 257.788587 501.0432 255.327573 529.885867 261.812907L529.885867 261.812907zM320.392533 521.837227c57.460053 27.50464 79.817387 94.795093 51.647147 154.497707-19.899733 41.58464-71.099733 67.293867-117.38112 58.354347-21.015893-4.027733-29.289813-7.376213-46.503253-19.227307-36.66944-24.593067-55.4496-75.34592-43.823787-118.275413 9.39008-35.997013 38.679893-68.860587 70.427307-79.37024 15.650133-5.14048 19.674453-5.59104 44.939947-4.918613C301.83424 513.56672 304.738987 514.235733 320.392533 521.837227zM873.08288 745.192107c-12.29824 5.812907-24.593067 18.333013-29.289813 29.740373-4.246187 10.284373-4.027733 32.863573 0.447147 41.806507 11.403947 22.360747 27.726507 32.866987 51.872427 32.866987 17.660587 0 31.525547-6.260053 42.257067-19.227307 14.53056-17.220267 17.882453-36.666027 9.39008-56.118613-8.942933-21.015893-25.040213-31.972693-48.96768-33.536C886.94784 740.05504 882.254507 740.724053 873.08288 745.192107L873.08288 745.192107z" p-id="16489" fill="#2c2c2c"></path></svg>