<?xml version="1.0" standalone="no"?><!DOCTYPE svg PUBLIC "-//W3C//DTD SVG 1.1//EN" "http://www.w3.org/Graphics/SVG/1.1/DTD/svg11.dtd"><svg t="1597222359047" class="icon" viewBox="0 0 1179 1024" version="1.1" xmlns="http://www.w3.org/2000/svg" p-id="7614" xmlns:xlink="http://www.w3.org/1999/xlink" width="230.2734375" height="200"><defs><style type="text/css"></style></defs><path d="M717.460432 752.282229a84.492135 84.492135 0 0 0 53.218218-103.019959 78.841806 78.841806 0 0 0-74.2427-64.781684 83.506612 83.506612 0 0 0-59.131354 76.542253 74.045596 74.045596 0 0 0 80.155836 91.25939z m67.672549 128.183636a47.502188 47.502188 0 0 0-1.971045 29.894184 34.361887 34.361887 0 0 0 30.222692 27.06902h33.507768v-78.841805h-36.135828a40.340724 40.340724 0 0 0-25.623587 21.944302z m50.590159-251.702465a91.982107 91.982107 0 1 0-63.73046-87.645807 78.841806 78.841806 0 0 0 63.73046 87.645807z m152.427491 5.781733a85.411956 85.411956 0 0 0 83.440911-79.498821 82.981 82.981 0 0 0-57.817324-86.791688 91.127987 91.127987 0 0 0-78.841806 78.053388 68.13246 68.13246 0 0 0 53.218219 88.237121z m115.634648 216.420756a642.757821 642.757821 0 0 1-115.634648-113.335096 95.727092 95.727092 0 0 0-167.538837-7.292867 370.950696 370.950696 0 0 1-75.55673 79.498821c-6.57015 7.227166-88.040016 49.998845-70.300611 127.986531a87.580106 87.580106 0 0 0 82.126881 76.476552 372.527532 372.527532 0 0 0 101.837333-7.292867 222.662399 222.662399 0 0 1 101.837332 2.956568s128.117934 41.260545 162.939732-38.238276a97.36963 97.36963 0 0 0-19.710452-120.759366z m-218.78601 118.262709h-82.783896a70.432013 70.432013 0 0 1-51.904189-34.49329 83.506612 83.506612 0 0 1-6.570151-55.386369 71.483237 71.483237 0 0 1 59.131355-51.838487h44.677023v-52.561204l37.449858 0.591314v193.622334z m154.398536-0.525612h-95.267182a44.217113 44.217113 0 0 1-38.763888-34.624693v-101.968736l38.763888-0.657015v91.982107a19.119138 19.119138 0 0 0 15.111346 11.563465h39.420903V832.438065h40.734933v136.527727z m135.345099-272.267036a72.271655 72.271655 0 0 0-70.957625-70.694819 69.8407 69.8407 0 0 0-64.387474 85.411956 64.978788 64.978788 0 0 0 72.92867 79.367418c70.30061-1.511135 62.416429-76.476551 62.416429-94.150256z m-652.415941 114.714827a65.701505 65.701505 0 0 0 26.280601 28.842961 76.739358 76.739358 0 0 0 38.763888 10.512241 75.031118 75.031118 0 0 0 38.763888-10.512241 69.052281 69.052281 0 0 0 27.594632-28.842961l4.599105-9.395315a120.562261 120.562261 0 0 1-47.305083-33.442066 147.171371 147.171371 0 0 1-32.193737-115.503245 133.045547 133.045547 0 0 1 112.349573-124.832859c3.285075 0 6.57015-0.394209 9.855225-0.394209a118.262708 118.262708 0 0 1 13.140301 0.722716 130.483188 130.483188 0 0 1 122.204799-131.403009 109.130199 109.130199 0 0 1 17.739406 2.233851l8.541196-16.556779a227.721415 227.721415 0 0 0 19.053436-99.077869 269.376169 269.376169 0 0 0-86.068971-200.455291 301.898414 301.898414 0 0 0-415.890525 0 269.376169 269.376169 0 0 0-86.068971 200.455291 227.721415 227.721415 0 0 0 19.053436 99.077869z m-38.763888-627.90928a145.266027 145.266027 0 0 1 103.808377-41.523351 143.097877 143.097877 0 0 1 103.808378 41.523351 137.513249 137.513249 0 0 1 0 200.455291 143.032176 143.032176 0 0 1-103.808378 41.457649 145.200325 145.200325 0 0 1-103.808377-41.457649 138.958682 138.958682 0 0 1 0-200.455291z m168.852867 837.299976H0l235.211387-340.202392h158.340626l27.594632 56.700399H266.748109L109.721513 963.841074h512.471737a158.93194 158.93194 0 0 0 30.222692 56.700399z m0 0" p-id="7615" fill="#1296db"></path></svg>