<?xml version="1.0" standalone="no"?><!DOCTYPE svg PUBLIC "-//W3C//DTD SVG 1.1//EN" "http://www.w3.org/Graphics/SVG/1.1/DTD/svg11.dtd"><svg t="1628733374242" class="icon" viewBox="0 0 3138 1024" version="1.1" xmlns="http://www.w3.org/2000/svg" p-id="5164" xmlns:xlink="http://www.w3.org/1999/xlink" width="612.890625" height="200"><defs><style type="text/css"></style></defs><path d="M927.017 465.623h109.139v97.082H927.017v-97.082z m0 139.561h109.139V986.31H927.017V605.151z m-177.614 0.363l-233.076-0.594v80.136h204.305s48.821 12.09 48.821 43.107v28.276h-184.98s-72.803 6.804-96.157 94.34c-4.03 41.125 1.321 61.374 4.03 68.674 2.675 7.531 24.113 55.957 87.47 68.046h294.482V714.72s-14.072-93.713-124.895-109.172z m20.05 306.639H620.544c-20.05-8.126-26.657-21.603-28.011-24.94-1.322-3.303-5.98-15.426-0.595-27.648 11.99-23.585 32.041-29.035 32.041-29.035h145.607v81.623h-0.133zM385.057 727.7c69.698-36.798 60.912-129.685 60.912-129.685-7.697-142.27-179.696-135.564-179.696-135.564H0.363v529.837h300.264c176.392-0.66 163.807-139.726 163.807-139.726 3.039-92.821-79.41-124.862-79.41-124.862z m-270.27-162.024h172.99s37.69-1.618 50.176 28.507c0 0 7.465 31.876-5.02 53.843 0 0-12.223 22.462-44.165 27.318h-173.98V565.677z m223.034 303.038s-11.363 20.018-43.173 24.973v0.099h-179.86v-113.96h178.869l6.11 1.09s34.156 6.276 46.51 37.326c0 0 7.102 28.87-8.456 50.473z m1079.824-555.47c60.185 0 108.743-69.896 108.743-156.474 0-86.312-48.558-156.24-108.776-156.24-60.052 0-108.874 69.929-108.874 156.242 0 86.545 48.822 156.474 108.874 156.474z m259.205 10.24c80.532 10.636 132.129-76.073 142.534-141.775 10.537-65.569-41.357-141.774-98.337-154.855-57.014-13.213-128.232 79.046-134.706 139.165-7.96 73.629 10.24 147.093 90.509 157.465zM1215.389 533.57c109.006-23.618 94.076-155.12 90.773-183.89-5.286-44.23-56.882-121.56-126.844-115.481-88.23 7.927-101.079 136.456-101.079 136.456-11.99 59.524 28.408 186.632 137.15 162.915z m658.564-225.775c-96.025 0-109.006 89.187-109.006 152.278 0 60.284 5.153 144.351 124.432 141.643 119.28-2.577 106.298-136.424 106.298-168.069 0-31.248-25.798-125.852-121.724-125.852z m-542.82 454.49c-3.203 9.25-10.272 32.834-4.161 53.447 12.222 46.212 51.86 48.194 51.86 48.194h57.146v-140.85h-61.043c-27.55 8.291-40.861 29.894-43.801 39.176z" fill="#306CFF" p-id="5165"></path><path d="M1873.953 709.665s-124.432-97.18-197.103-202.29c-98.47-154.855-238.427-91.895-285.168-13.212-46.608 78.782-119.147 128.693-129.552 141.906-10.406 12.85-150.363 89.154-119.28 228.451 31.05 139.198 140.057 136.357 140.057 136.357s80.4 8.027 173.75-13.113c93.217-20.844 173.485 5.318 173.485 5.318s217.88 73.596 277.47-68.278c59.558-141.774-33.659-215.139-33.659-215.139z m-372.769 210.944h-141.576c-61.308-12.222-85.653-54.503-88.593-61.77-3.039-7.168-20.414-41.125-11.23-98.668 26.425-86.313 101.904-92.622 101.904-92.622h75.478v-93.481l64.083 0.99v345.518h-0.099z m263.895-0.99h-163.08c-63.125-16.451-66.065-61.64-66.065-61.64V675.973l66.064-1.123v163.609c4.03 17.44 25.435 20.513 25.435 20.513h67.287v-183h70.359v243.646z m674.089-32.108v-64.48h-303.137v86.083h280.279c17.97 3.072 24.576-3.469 22.858-21.603z m-303.137-140.685h304.756v-86.082H2136.03v86.082z m-114.622-272.912h530.928v72.737h-200.01l-11.496 46.311h186.797v319.224c3.304 44.725-21.272 66.196-75.346 64.479h-406.297V594.68h185.212l9.777-46.311h-219.598v-74.455z m819.3 342.445l34.353 19.886 36.104 19.885 65.602-39.639h-136.06v-0.132z m-8.193-170.446v51.266h175.302c18.003 3.336 27.913-1.586 27.913-13.213v-38.02h-203.215z m-75.38 1.651h-27.879v-62.893h24.576v-24.807h75.38v21.47h203.214v-19.852h75.347v19.853h24.609v62.86h-24.477v52.984c-3.303 29.762-21.273 44.726-57.377 44.726h-294.978V647.53h1.586z m-22.858 168.795v-56.287h394.868v51.266l-139.33 84.332 13.08 6.672c9.778 6.673 19.688 8.258 32.802 6.673h96.652v62.86h-122.98c-16.383 0-32.767-3.303-45.848-8.258l-50.77-24.84-44.297 21.47a182.074 182.074 0 0 1-54.074 13.214h-93.48v-64.413h65.568c14.799 0 26.195-1.652 32.801-4.955l24.576-11.627-108.147-76.074h-1.454z m106.43-329.232v-21.471h85.29v21.47h209.787v62.861h-424.398v425.191h-73.761V487.127h203.082z" fill="#306CFF" p-id="5166"></path></svg>