<?xml version="1.0" standalone="no"?><!DOCTYPE svg PUBLIC "-//W3C//DTD SVG 1.1//EN" "http://www.w3.org/Graphics/SVG/1.1/DTD/svg11.dtd"><svg t="1595954327673" class="icon" viewBox="0 0 1024 1024" version="1.1" xmlns="http://www.w3.org/2000/svg" p-id="3792" xmlns:xlink="http://www.w3.org/1999/xlink" width="200" height="200"><defs><style type="text/css"></style></defs><path d="M682.666667 341.333333h256V256h-256v85.333333z m33.024 151.04c-17.493333 15.317333-28.501333 36.096-33.024 62.293334h213.333333c-2.261333-27.989333-13.354667-49.109333-32.938667-63.658667-19.882667-14.506667-44.288-21.674667-73.514666-21.674667-31.658667 0-56.405333 7.68-73.856 23.04zM900.266667 404.736a188.245333 188.245333 0 0 1 81.664 65.450667c19.541333 26.325333 32.085333 56.832 37.802666 91.52 3.370667 20.266667 4.693333 49.621333 4.138667 87.850666h-344.746667c2.133333 44.330667 18.432 75.477333 49.578667 93.269334 18.858667 11.093333 41.557333 16.682667 68.266667 16.682666 28.032 0 50.986667-6.741333 68.565333-20.266666 9.685333-7.338667 18.218667-17.493333 25.514667-30.421334h126.293333c-3.328 26.154667-18.645333 52.906667-45.824 79.957334C929.152 831.829333 869.802667 853.333333 793.514667 853.333333c-62.976 0-118.570667-18.090667-166.570667-54.442666-48.298667-36.266667-72.277333-95.36-72.277333-177.066667 0-76.714667 21.76-135.509333 65.152-176.469333C663.338667 404.565333 719.658667 384 788.906667 384c41.216 0 78.293333 6.954667 111.317333 20.778667zM128 554.666667v170.666666h151.637333c27.093333 0 48.256-3.754667 63.317334-11.264 27.392-13.994667 41.045333-40.533333 41.045333-79.872 0-33.365333-13.226667-56.192-39.765333-68.693333-14.848-6.954667-35.712-10.581333-62.464-10.837333H128z m0-213.333334v128h159.786667c28.458667 0 51.626667-4.821333 69.546666-14.421333C375.04 445.312 384 428.373333 384 404.053333c0-27.136-11.733333-44.928-35.242667-53.674666C328.362667 344.405333 302.464 341.333333 271.018667 341.333333H128z m335.402667-59.818666c19.072 27.221333 28.629333 59.733333 28.629333 97.706666 0 39.04-9.557333 70.485333-28.842667 94.293334-10.837333 13.226667-26.666667 25.429333-47.658666 36.394666 31.872 11.946667 55.850667 30.72 72.192 56.490667 16.128 25.685333 24.277333 57.002667 24.277333 93.781333 0 37.930667-9.258667 71.978667-27.861333 102.058667-11.733333 19.925333-26.453333 36.693333-44.16 50.346667a169.941333 169.941333 0 0 1-70.528 32.170666A422.784 422.784 0 0 1 281.258667 853.333333H0V213.333333h301.653333c76.117333 1.152 130.005333 23.893333 161.749334 68.181334z" fill="#1296db" p-id="3793"></path></svg>