<?xml version="1.0" standalone="no"?><!DOCTYPE svg PUBLIC "-//W3C//DTD SVG 1.1//EN" "http://www.w3.org/Graphics/SVG/1.1/DTD/svg11.dtd"><svg t="1692844894907" class="icon" viewBox="0 0 1024 1024" version="1.1" xmlns="http://www.w3.org/2000/svg" p-id="60939" xmlns:xlink="http://www.w3.org/1999/xlink" width="200" height="200"><path d="M595.05664 415.22688C595.05664 347.53536 496.64 357.632 460.8 357.632v114.80576c35.84 0 134.25664 7.48032 134.25664-57.21088zM460.8 530.02752v126.40256c40.96 0 157.99296 8.22272 157.99296-63.20128 0-74.05056-117.03296-63.20128-157.99296-63.20128z" fill="#FCB20D" p-id="60940"></path><path d="M512 0C229.22752 0 0 229.22752 0 512s229.22752 512 512 512 512-229.22752 512-512S794.77248 0 512 0z m221.66528 604.44672c-8.6016 90.88-73.18528 115.18464-170.46528 120.4224V803.84H506.88v-77.48096c-15.36 0-30.72 0-46.08-0.37376V803.84H404.48v-78.976s-10.71104-0.37376-115.712-0.37376l11.56608-68.43392c41.216 0.73216 58.0608 4.06016 63.1808-19.072V378.94656c-5.12-29.15328-30.72-26.23488-76.8-25.42592V292.18816c71.68 0.32768 97.28 0.64 117.76 0V199.68h56.32v90.63936c15.36-0.37376 30.72-0.74752 46.08-0.74752V199.68h56.32v92.50816c76.8 6.35392 130.82624 29.16864 137.1904 97.2288 4.85376 49.73568-16.08704 79.65696-48.99328 96.48128 54.6048 13.09184 89.00096 45.62944 82.27328 118.54848z" fill="#FCB20D" p-id="60941"></path></svg>