<?xml version="1.0" standalone="no"?><!DOCTYPE svg PUBLIC "-//W3C//DTD SVG 1.1//EN" "http://www.w3.org/Graphics/SVG/1.1/DTD/svg11.dtd"><svg t="1597203283544" class="icon" viewBox="0 0 1024 1024" version="1.1" xmlns="http://www.w3.org/2000/svg" p-id="6253" xmlns:xlink="http://www.w3.org/1999/xlink" width="200" height="200"><defs><style type="text/css"></style></defs><path d="M160 160v704h704V160H160z m64 64h576v576H224V224z m128 96v383.68c189.76 0 227.744 2.56 263.264-8 20.8-6.4 77.76-26.88 77.76-98.88 0-32-9.6-86.08-72.32-99.52v-0.96h-11.84c32-14.4 52.16-41.6 52.16-81.6 0-10.24 2.88-94.72-109.12-94.72H352z m64 64h128c48.288 0 52.992 27.296 52.992 47.68C596.992 481.408 544.96 480 544 480h-128v-96z m0 160h152.32c59.52 0 60.672 37.632 60.672 47.36 0 49.92-51.552 48.64-57.792 48.64H416v-96z" p-id="6254"></path></svg>