<?xml version="1.0" standalone="no"?><!DOCTYPE svg PUBLIC "-//W3C//DTD SVG 1.1//EN" "http://www.w3.org/Graphics/SVG/1.1/DTD/svg11.dtd"><svg t="1623821808058" class="icon" viewBox="0 0 1024 1024" version="1.1" xmlns="http://www.w3.org/2000/svg" p-id="8358" xmlns:xlink="http://www.w3.org/1999/xlink" width="200" height="200"><defs><style type="text/css"></style></defs><path d="M980.864 469.333333c0.298667 8.874667 0.469333 19.2 0.469333 30.976C981.333333 765.952 770.346667 981.333333 510.08 981.333333c-108.8 0-220.074667-33.92-296.746667-83.882666 146.730667-25.6 132.096-13.994667 376.917334-113.706667C814.08 692.608 980.906667 488.192 980.906667 469.333333z" fill="#F0B90B" p-id="8359"></path><path d="M520.746667 42.666667a473.728 473.728 0 0 1 288.938666 98.389333A485.290667 485.290667 0 0 1 981.333333 396.544c0.853333 0.682667-44.928 101.205333-184.192 201.088-6.826667 3.584-0.554667-272.810667-5.589333-315.093333 2.133333-23.637333-16.298667-23.04-30.933333-23.509334a1532.032 1532.032 0 0 0-85.077334 0c-24.021333-0.170667-27.562667 5.504-30.933333 19.626667-1.450667 4.522667-0.810667 399.488 0.938667 405.888-16.341333 7.381333-41.130667 18.517333-58.88 25.472-4.010667 0.725333 0-281.301333 0-313.728 0-24.533333-5.376-35.285333-23.210667-35.285333-26.154667 0-69.546667-1.365333-96.682667 0-23.637333 1.152-30.506667 19.328-30.933333 35.285333-0.682667 25.386667 3.285333 354.56 0.341333 361.472-18.346667 4.736-36.821333 9.216-55.296 13.354667-0.426667 1.28 0.981333-264.106667 0.853334-276.778667-0.256-24.874667-13.397333-29.568-34.816-27.477333-13.781333 1.365333-59.306667-1.024-73.429334 0-28.032 0.597333-34.602667 8.917333-34.816 27.477333-0.213333 21.248 0.256 303.317333 0.981334 303.232-40.405333 6.144-76.714667 10.453333-106.154667 13.098667A485.973333 485.973333 0 0 1 42.666667 526.72C42.666667 259.413333 256.725333 42.666667 520.746667 42.666667z" fill="#12161C" p-id="8360"></path></svg>