<?xml version="1.0" standalone="no"?><!DOCTYPE svg PUBLIC "-//W3C//DTD SVG 1.1//EN" "http://www.w3.org/Graphics/SVG/1.1/DTD/svg11.dtd"><svg t="1692844639494" class="icon" viewBox="0 0 1024 1024" version="1.1" xmlns="http://www.w3.org/2000/svg" p-id="50394" xmlns:xlink="http://www.w3.org/1999/xlink" width="200" height="200"><path d="M316.32 649.12c-1.12 4.64-1.76 7.36-8.16 5.76l-72.96-18.24-18.72 75.2 134.56 33.6-27.2 109.28 71.84 17.92 27.2-109.28 44.64 11.2-27.2 109.12 68.32 17.12 27.36-109.28 51.36 12.96c34.24 8.48 164 10.08 192-103.36a140.16 140.16 0 0 0-65.12-161.6s80-24.48 91.2-97.76-39.84-107.36-69.44-126.08a352 352 0 0 0-73.76-32l28.48-114.24-65.76-16-28.16 113.6-52.8-13.12 28.8-114.08-66.56-16-28.48 114.08-139.2-34.72-16.96 67.2 76.32 19.04c7.68 1.92 6.72 5.76 6.08 8.32zM526.88 321.6L608 341.92c13.92 3.52 78.72 32 64 89.44a68 68 0 0 1-71.2 52.8 96 96 0 0 1-19.68-2.08l-89.44-22.4z m-51.36 210.08l126.72 32a69.6 69.6 0 0 1 48 88.96c-11.36 45.76-56.32 55.84-78.56 55.84a38.24 38.24 0 0 1-9.76-0.96l-122.4-30.4z" fill="#F9934A" p-id="50395"></path></svg>