<?xml version="1.0" standalone="no"?><!DOCTYPE svg PUBLIC "-//W3C//DTD SVG 1.1//EN" "http://www.w3.org/Graphics/SVG/1.1/DTD/svg11.dtd"><svg t="1597221935329" class="icon" viewBox="0 0 1024 1024" version="1.1" xmlns="http://www.w3.org/2000/svg" p-id="3722" xmlns:xlink="http://www.w3.org/1999/xlink" width="200" height="200"><defs><style type="text/css"></style></defs><path d="M511.999 0c-282.769 0-512 229.231-512 512s229.231 512 512 512 512-229.231 512-512-229.231-512-512-512z m-22.758 599.723H388.816l0.845 1.425c17.583 42.33 58.428 75.994 99.2 88.738v31.296c-11.678-1.493-93.18-4.309-137.779-77.333-8.521-13.845-13.585-24.973-18.598-36.847-0.883-2.223-3.008-7.279-3.008-7.279h-2.522l-4.424 0.132v125.478h-70.485V599.855l-4.437-0.132h-2.522s-2.125 5.056-3.055 7.279c-4.954 11.874-10.031 23.002-18.445 36.847-44.698 73.024-126.229 75.84-137.835 77.333v-31.296c40.772-12.745 81.579-46.409 99.2-88.738l0.823-1.425H85.333v-34.001h166.711V547.9h70.485v17.822H489.24v34.001zM287.394 471.77c-54.084-0.87-112.969-0.478-185.301-11.93v-28.471c173.658 12.646 360.474 1.515 370.637 0v28.471c-72.394 11.452-131.222 11.059-185.336 11.93z m157.602 9.881c-2.005 7.625-13.815 43.593-30.404 61.901h-63.403c6.886-5.854 20.651-24.849 34.509-61.901h59.298z m-118.827 58.146h-58.505c-11.827-15.104-26.3-50.714-28.25-58.146h54.81c14.998 33.664 25.426 52.438 31.945 58.146z m-98.547 3.755h-63.458c-11.844-14.408-28.412-54.276-30.532-61.901h59.443c12.859 35.281 27.673 56.047 34.547 61.901z m261.849-144.755h-82.586v26.615h-66.01v-26.615h-101.7v26.615H172.99v-26.615H85.333v-34.069h87.659V341.33h66.185v23.398h101.7V341.33h66.01v23.398h82.586v34.069z m58.697 213.286h293.385v33.997H548.168v-33.997z m388.996 106.33c-9.199 0.589-19.567 0.879-31.023 0.879-53.299 0-164.139-6.511-172.476-7.441V675.38c43.507 6.404 127.305 9.532 133.743 10.065l1.22 0.102V575.748H590.6V398.336c0.555-7.01 4.612-27.426 31.305-30.161h45.722l13.696-26.846h62.02l-12.591 26.846h138.573c10.961 1.259 29.747 7.049 31.189 31.693l0.051 0.892h0.183v120.264c-9.587 0.678-20.587 0.964-32.661 0.964-57.033 0-119.808-7.433-120.448-7.535h-64.546c5.696-7.369 28.757-37.986 35.17-95.416h59.345c-1.045 6.182-6.293 34.125-14.396 60.036l-0.341 1.126 1.237 0.128c30.912 4.224 53.316 6.729 65.293 7.863l1.182 0.132v-86.161H660.667v139.588h243.051c9.771 0.444 32.7 4.386 34.782 31.262l0.051 0.964h0.115v144.149h-1.843l0.341 0.289z" p-id="3723" fill="#1296db"></path></svg>