<?xml version="1.0" standalone="no"?><!DOCTYPE svg PUBLIC "-//W3C//DTD SVG 1.1//EN" "http://www.w3.org/Graphics/SVG/1.1/DTD/svg11.dtd"><svg t="1624432246575" class="icon" viewBox="0 0 1024 1024" version="1.1" xmlns="http://www.w3.org/2000/svg" p-id="1873" xmlns:xlink="http://www.w3.org/1999/xlink" width="200" height="200"><defs><style type="text/css"></style></defs><path d="M167.22 935.39h792.12s-90.95-240.24-282.43-240.24-467.5 175.31-509.69 240.24z" p-id="1874" fill="#0e932e"></path><path d="M607.64 875.87c-21.64-107.13-59.51-275.9 17.31-378.69 15.15-99.57 101.72-235.91 166.65-279.2-21.64 47.62-110.9 152.04-143.91 261.88 108.2-7.03 198.03-47.61 183.93-295.42 0 0-280.28 6.49-228.33 290.01-35.16 64.92-37.6 100.38-37.6 100.38a31.201 31.201 0 0 1-1.35-14.35c3.45-21.48-4.34-62.7-25.7-118.49 25.7 51.14 29.16 75.74 29.97 83.15 5.41-40.18 18.8-41.03 1.58-84.49-15.43-38.98-62.79-46.42-62.79-46.42s6.13 28.13 12.98 68.04c9.06 52.75 45.32 58.59 37.75 103.07-8.02-23.06-26.31-65.99-60.59-104.68-26.24-19.75-49.54-20.61-55.04-27.17-63.7-75.97-74.52-169.03-203.86-291.3 104.42 64.92 157.03 181.07 209.39 281.08 15.69-47.62 51.95-149.34-29.75-239.97-73.84-81.9-154.75-95.33-240.51-90.09 25.16 32.62 33.27 159.1 44.63 210.2 22.99 103.35 135.99 169.81 218.58 162.29 56.56-5.13 81.97 98.73 86.3 139.3 4.33 40.57 8.93 235.64-21.37 270.8 38.96-18.32 101.73 0.07 101.73 0.07z" p-id="1875" fill="#0e932e"></path><path d="M63.33 838h157.45s111.28-90.84 220.75-120.12c-94.96-53.56-124.17-50.31-157.45-50.31-40.53 0-141.21 30.83-220.75 170.43z" p-id="1876" fill="#0e932e"></path></svg>