<?xml version="1.0" standalone="no"?><!DOCTYPE svg PUBLIC "-//W3C//DTD SVG 1.1//EN" "http://www.w3.org/Graphics/SVG/1.1/DTD/svg11.dtd"><svg t="1595955256142" class="icon" viewBox="0 0 1024 1024" version="1.1" xmlns="http://www.w3.org/2000/svg" p-id="12480" xmlns:xlink="http://www.w3.org/1999/xlink" width="32" height="32"><defs><style type="text/css"></style></defs><path d="M1024 384c0-25.6-17.067-42.667-42.667-42.667H908.8l-68.267-166.4c-12.8-29.866-42.666-46.933-76.8-46.933H260.267c-34.134 0-64 17.067-76.8 46.933l-68.267 166.4H42.667C17.067 341.333 0 358.4 0 384c0 21.333 17.067 42.667 42.667 42.667h42.666v8.533C34.133 452.267 0 499.2 0 554.667V896c0 21.333 17.067 42.667 42.667 42.667h42.666C106.667 938.667 128 921.6 128 896v-42.667h768V896c0 21.333 17.067 42.667 42.667 42.667h42.666c21.334 0 42.667-17.067 42.667-42.667V554.667c0-8.534 0-17.067-4.267-25.6-8.533-34.134-25.6-59.734-55.466-81.067-8.534-4.267-17.067-8.533-29.867-12.8v-8.533h42.667c29.866 0 46.933-17.067 46.933-42.667zM256 209.067h507.733l85.334 209.066 4.266 8.534 4.267 4.266c-226.133 46.934-456.533 46.934-686.933 0V422.4L256 209.067z m682.667 345.6V768H89.6V550.4c0-25.6 25.6-46.933 51.2-42.667C384 563.2 640 563.2 887.467 512c12.8-4.267 21.333 0 29.866 4.267s17.067 17.066 17.067 25.6c4.267 4.266 4.267 8.533 4.267 12.8z" p-id="12481"></path><path d="M170.667 618.667a64 64 0 1 0 128 0 64 64 0 1 0-128 0zM725.333 618.667a64 64 0 1 0 128 0 64 64 0 1 0-128 0z" p-id="12482"></path></svg>