<?xml version="1.0" standalone="no"?><!DOCTYPE svg PUBLIC "-//W3C//DTD SVG 1.1//EN" "http://www.w3.org/Graphics/SVG/1.1/DTD/svg11.dtd"><svg t="1692770484771" class="icon" viewBox="0 0 1024 1024" version="1.1" xmlns="http://www.w3.org/2000/svg" p-id="15659" xmlns:xlink="http://www.w3.org/1999/xlink" width="200" height="200"><path d="M485.262222 68.778667a38.627556 38.627556 0 0 1 44.885334 0h0.056888l0.341334 0.284444 1.479111 1.080889 5.973333 4.096a1270.897778 1270.897778 0 0 0 98.247111 60.871111c29.980444 16.611556 62.577778 32.881778 93.809778 44.885333 31.800889 12.231111 59.164444 18.830222 79.644445 18.830223a56.32 56.32 0 0 1 17.351111 2.56 41.301333 41.301333 0 0 1 27.591111 28.728889 41.927111 41.927111 0 0 1-6.257778 34.133333c-3.413333 5.006222-7.395556 8.704-9.898667 10.922667-9.671111 8.362667-24.860444 17.066667-37.148444 23.722666a946.176 946.176 0 0 1-52.622222 26.168889l-3.982223 1.763556-1.024 0.512-0.398222 0.170666-15.985778-35.157333 15.985778 35.157333a38.798222 38.798222 0 0 1-15.985778 3.470223H288.085333a38.627556 38.627556 0 0 1-15.928889-3.413334l15.928889-35.214222-15.928889 35.157333-0.455111-0.170666-1.137777-0.512-3.868445-1.820445a1236.707556 1236.707556 0 0 1-52.679111-26.168889c-12.288-6.599111-27.477333-15.303111-37.091556-23.665777a57.628444 57.628444 0 0 1-9.955555-10.979556 41.927111 41.927111 0 0 1-6.200889-34.133333 41.301333 41.301333 0 0 1 27.534222-28.672 56.32 56.32 0 0 1 17.408-2.56c20.48 0 47.786667-6.599111 79.644445-18.830223a763.448889 763.448889 0 0 0 93.752889-44.942222 1271.751111 1271.751111 0 0 0 104.220444-64.910222l1.479111-1.080889 0.398222-0.227555v-0.056889zM308.565333 253.724444h398.222223a839.68 839.68 0 0 1-108.088889-51.2 1348.437333 1348.437333 0 0 1-91.022223-55.637333 1347.242667 1347.242667 0 0 1-91.022222 55.637333 839.623111 839.623111 0 0 1-108.088889 51.2z m501.134223 22.300445a3.982222 3.982222 0 0 0-0.170667 0z m-21.959112-59.164445v0.056889z m-560.128 0a2.730667 2.730667 0 0 1 0.056889 0.056889h-0.056889z m-21.902222 59.164445h0.113778zM298.894222 396.970667a38.627556 38.627556 0 0 1 20.48-5.916445h384.398222c7.566222 0 14.904889 2.161778 21.219556 6.314667l-21.219556 32.256 21.219556-32.256 0.512 0.341333 1.422222 0.967111 5.404445 3.584a3154.261333 3154.261333 0 0 1 82.830222 57.059556c47.559111 33.735111 105.358222 76.856889 135.850667 108.088889 9.671111 9.898667 19.000889 25.998222 15.246222 46.193778-3.242667 17.578667-14.904889 28.672-22.186667 34.304-14.904889 11.548444-35.84 18.944-51.996444 23.779555a518.826667 518.826667 0 0 1-66.161778 14.734222l-4.892445 0.739556-1.365333 0.227555-0.398222 0.056889H819.2l-5.575111-38.172444 5.518222 38.229333a38.798222 38.798222 0 0 1-5.518222 0.398222H209.578667a38.968889 38.968889 0 0 1-4.949334-0.341333l4.949334-38.286222-4.949334 38.286222h-0.170666l-0.398223-0.056889-1.365333-0.227555-4.835555-0.682667a487.367111 487.367111 0 0 1-65.592889-13.937778c-16.099556-4.721778-36.977778-12.060444-51.996445-23.722666a58.88 58.88 0 0 1-22.300444-33.28 53.134222 53.134222 0 0 1 12.231111-46.08c27.704889-32.995556 87.153778-77.027556 135.168-110.478223A2682.993778 2682.993778 0 0 1 296.789333 398.222222l1.536-0.910222 0.568889-0.341333 20.48 32.654222-20.48-32.654222z m31.744 71.281777a2479.217778 2479.217778 0 0 0-81.123555 54.215112c-36.750222 25.543111-73.671111 53.020444-98.531556 75.150222l2.958222 0.910222a412.842667 412.842667 0 0 0 55.409778 11.719111l2.844445 0.398222h598.471111l2.787555-0.455111a539.875556 539.875556 0 0 0 56.433778-12.515555 1621.162667 1621.162667 0 0 0-99.441778-75.434667 3408.611556 3408.611556 0 0 0-78.336-54.044444H330.638222z m566.101334 118.613334l-0.056889 0.056889a2.787556 2.787556 0 0 1 0.056889 0z m-769.137778 1.080889c-0.284444-0.284444-0.284444-0.227556 0 0z" fill="#707070" p-id="15660"></path><path d="M391.907556 306.062222v128.739556H314.595556V306.062222H391.964444zM494.819556 306.062222v128.739556H417.621333V306.062222h77.198223zM597.788444 306.062222v128.739556H520.533333V306.062222h77.255111zM700.757333 306.062222v128.739556h-77.198222V306.062222h77.198222zM233.130667 610.645333c21.276444 0 38.570667 17.294222 38.570666 38.627556v274.545778a38.627556 38.627556 0 0 1-77.198222 0v-274.545778c0-21.333333 17.294222-38.627556 38.627556-38.627556zM353.223111 627.825778c21.333333 0 38.627556 17.294222 38.627556 38.570666v205.937778a38.627556 38.627556 0 0 1-77.255111 0v-205.937778c0-21.276444 17.294222-38.570667 38.627555-38.570666zM662.129778 627.825778c21.276444 0 38.570667 17.294222 38.570666 38.570666v205.937778a38.627556 38.627556 0 0 1-77.198222 0v-205.937778c0-21.276444 17.294222-38.570667 38.627556-38.570666z" fill="#707070" p-id="15661"></path><path d="M325.688889 786.318222a38.627556 38.627556 0 0 1 17.237333-4.096h329.443556c6.030222 0 11.946667 1.422222 17.294222 4.096l109.795556 54.897778a38.627556 38.627556 0 1 1-34.531556 69.063111l-101.660444-50.858667h-311.182223l-101.717333 50.858667a38.627556 38.627556 0 0 1-34.531556-69.063111l109.795556-54.897778z" fill="#707070" p-id="15662"></path><path d="M782.222222 610.645333c21.333333 0 38.627556 17.294222 38.627556 38.627556v274.545778a38.627556 38.627556 0 0 1-77.255111 0v-274.545778c0-21.333333 17.294222-38.627556 38.627555-38.627556z" fill="#707070" p-id="15663"></path></svg>