<?xml version="1.0" standalone="no"?><!DOCTYPE svg PUBLIC "-//W3C//DTD SVG 1.1//EN" "http://www.w3.org/Graphics/SVG/1.1/DTD/svg11.dtd"><svg t="1637565513878" class="icon" viewBox="0 0 1024 1024" version="1.1" xmlns="http://www.w3.org/2000/svg" p-id="4004" xmlns:xlink="http://www.w3.org/1999/xlink" width="200" height="200"><defs><style type="text/css"></style></defs><path d="M273.49333333 876.90666667s518.72 120.74666667 630.61333334 9.92c48.85333333-48.32-154.88-109.54666667-441.06666667-78.82666667-147.94666667 15.78666667-189.54666667 68.90666667-189.54666667 68.90666667z" fill="#EFEFEF" p-id="4005"></path><path d="M855.89333333 734.72c1.70666667 111.25333333-122.34666667 169.38666667-224 164.8-112.74666667-5.12-167.25333333-109.86666667-153.28-210.66666667S585.6 517.54666667 686.4 531.52s167.89333333 101.44 169.49333333 203.2z" fill="#EE3C2B" p-id="4006"></path><path d="M577.70666667 562.88s-33.06666667 15.89333333-29.01333334 31.78666667 1.06666667-12.48 14.29333334-15.89333334c13.22666667-3.41333333 16-18.66666667 22.93333333-15.89333333s-8.21333333 0-8.21333333 0z" fill="#FFFFFF" p-id="4007"></path><path d="M701.65333333 534.29333333c52.58666667 37.22666667 84.58666667 100.48 85.76 170.34666667 1.70666667 111.25333333-122.34666667 169.38666667-224 164.8-7.46666667-0.32-14.72-1.17333333-21.65333333-2.34666667 23.89333333 18.77333333 53.97333333 30.72 90.13333333 32.42666667 101.65333333 4.58666667 225.70666667-53.54666667 224-164.8-1.49333333-96.53333333-61.97333333-180.16-154.24-200.42666667z" fill="#DA2C00" p-id="4008"></path><path d="M562.31402453 603.22577173a17.17333333 38.50666667 66.596 1 0 70.67720747-30.59061653 17.17333333 38.50666667 66.596 1 0-70.67720747 30.59061653Z" fill="#DE2E13" p-id="4009"></path><path d="M572.6937568 598.75867947a11.94666667 23.25333333 66.596 1 0 42.6804192-18.47300374 11.94666667 23.25333333 66.596 1 0-42.6804192 18.47300374Z" fill="#D92E0E" p-id="4010"></path><path d="M478.61333333 688.74666667c-10.02666667 72.85333333 4.8 135.04 63.14666667 178.34666666 77.44-142.82666667-13.97333333-275.73333333-16-277.54666666-35.94666667 28.48-40.42666667 50.34666667-47.14666667 99.2z" fill="#D93510" p-id="4011"></path><path d="M580.48 595.52s23.89333333 8.21333333 24.10666667-10.34666667c-9.81333333-52.90666667-122.77333333-312.42666667 20.58666666-400.32 15.25333333-10.24-4.48-25.49333333-31.36-5.33333333-27.41333333 20.48-87.04 147.84-13.33333333 416z" fill="#7FDB56" p-id="4012"></path><path d="M553.81333333 361.28l-0.10666666-0.10666667s0.10666667 0.53333333 0.10666666 1.28v-1.17333333zM589.33333333 597.22666667c6.82666667 0.53333333 15.14666667-1.06666667 15.25333334-12.05333334-4.69333333-25.17333333-32.74666667-97.38666667-45.33333334-175.46666666 6.29333333 52.37333333 17.38666667 135.46666667 30.08 187.52z" fill="#4FA41A" p-id="4013"></path><path d="M362.66666667 521.70666667s8 40.21333333 32.10666666 17.6c25.6-64.53333333 61.22666667-414.4 305.49333334-432.42666667 25.17333333-2.34666667 12.69333333-31.04-33.17333334-24.53333333-46.4 6.61333333-202.56 97.92-304.42666666 439.36z" fill="#7FDB56" p-id="4014"></path><path d="M701.44 85.22666667c-7.68-3.30666667-19.09333333-5.01333333-34.24-2.88-20.05333333 2.77333333-60.26666667 21.33333333-107.73333333 68.58666666 35.52-24.85333333 95.78666667-61.97333333 141.97333333-65.70666666z" fill="#99E674" p-id="4015"></path><path d="M384.10666667 526.61333333c-1.70666667 6.82666667-3.2 13.33333333-4.58666667 19.52 4.16 0.64 9.28-1.06666667 15.36-6.72 14.08-35.52 31.25333333-157.22666667 84.37333333-262.61333333-33.49333333 58.13333333-68.48 139.2-95.14666666 249.81333333z" fill="#4FA41A" p-id="4016"></path><path d="M590.08 143.78666667l0.10666667-0.32s-1.49333333 0.96-4.05333334 2.77333333c1.28-0.74666667 2.66666667-1.6 3.94666667-2.45333333z" fill="#50AE1E" p-id="4017"></path><path d="M518.4 782.82666667c-64.53333333 104.64-173.54666667 132.69333333-299.73333333 62.29333333-117.22666667-65.49333333-143.68-191.14666667-79.14666667-295.78666667 44.05333333-71.57333333 118.29333333-107.41333333 167.57333333-71.57333333 60.69333333 44.16 130.02666667 52.05333333 160.21333334 65.70666667 100.37333333 45.33333333 102.08 156.69333333 51.09333333 239.36z" fill="#EE3C2B" p-id="4018"></path><path d="M456.96 672.85333333m-11.94666667 0a11.94666667 11.94666667 0 1 0 23.89333334 0 11.94666667 11.94666667 0 1 0-23.89333334 0Z" fill="#FFFFFF" p-id="4019"></path><path d="M471.25333333 545.49333333c26.98666667 52.69333333 16.74666667 120.85333333-17.38666666 176.21333334C389.33333333 826.34666667 280.32 854.4 154.13333333 784c-4.8-2.66666667-9.28-5.65333333-13.76-8.53333333 18.66666667 26.88 44.69333333 50.77333333 78.4 69.65333333 126.29333333 70.50666667 235.30666667 42.34666667 299.73333334-62.29333333 50.13333333-81.49333333 48.96-190.72-47.25333334-237.33333334z" fill="#DA2C00" p-id="4020"></path><path d="M510.93333333 794.24V788.26666667c-2.56 4.16-105.70666667 107.62666667-261.76 68.90666666-4.58666667-1.17333333-8.96-2.13333333-13.01333333-2.98666666 114.13333333 56.21333333 212.69333333 30.61333333 274.77333333-59.94666667z" fill="#FFFFFF" p-id="4021"></path><path d="M249.28 857.28c-123.94666667-69.22666667-151.89333333-202.13333333-83.73333333-312.74666667 23.04-37.33333333 53.76-65.38666667 85.22666666-79.78666666-39.68 5.54666667-82.02666667 37.12-111.36 84.58666666-64.53333333 104.64-38.08 230.29333333 79.14666667 295.78666667 18.66666667 10.45333333 36.90666667 18.45333333 54.82666667 24.64-7.89333333-3.84-16-8-24.10666667-12.48z" fill="#FFFFFF" p-id="4022"></path><path d="M214.1437504 580.29183893a26.77333333 37.44 56.72 1 0 62.59960213-41.0889792 26.77333333 37.44 56.72 1 0-62.59960213 41.0889792Z" fill="#FFFFFF" p-id="4023"></path><path d="M275.84 559.78666667m-14.93333333 0a14.93333333 14.93333333 0 1 0 29.86666666 0 14.93333333 14.93333333 0 1 0-29.86666666 0Z" fill="#FFFFFF" p-id="4024"></path><path d="M794.13333333 313.81333333S775.14666667 130.56 597.33333333 130.66666667c0 0-45.22666667 181.76 196.8 183.14666666z" fill="#63BF37" p-id="4025"></path><path d="M607.68 145.6s102.61333333 55.25333333 142.18666667 143.25333333" fill="#59B629" p-id="4026"></path><path d="M600.32 656.53333333m-19.62666667 0a19.62666667 19.62666667 0 1 0 39.25333334 0 19.62666667 19.62666667 0 1 0-39.25333334 0Z" fill="#FFFFFF" p-id="4027"></path><path d="M616.29848427 668.1131296a12.05333333 11.84 22.488 1 0 9.05736213-21.87936533 12.05333333 11.84 22.488 1 0-9.05736213 21.87936533Z" fill="#FFFFFF" p-id="4028"></path><path d="M623.46666667 548.16c-3.84-0.85333333 40.96-2.88 44.90666666 22.4 3.94666667 25.28-27.09333333 41.92-45.22666666 43.62666667-21.22666667 2.02666667 19.94666667-9.92 27.84-23.89333334 7.78666667-13.76 3.2-35.09333333-27.52-42.13333333z" fill="#FFFFFF" p-id="4029"></path></svg>