<?xml version="1.0" standalone="no"?><!DOCTYPE svg PUBLIC "-//W3C//DTD SVG 1.1//EN" "http://www.w3.org/Graphics/SVG/1.1/DTD/svg11.dtd"><svg t="1597146885655" class="icon" viewBox="0 0 1024 1024" version="1.1" xmlns="http://www.w3.org/2000/svg" p-id="7668" xmlns:xlink="http://www.w3.org/1999/xlink" width="200" height="200"><defs><style type="text/css"></style></defs><path d="M666.21 959.31H340.29C249.7 959.31 176 885.61 176 795V401.57c0-90.59 73.7-164.29 164.29-164.29h325.92c90.59 0 164.29 73.7 164.29 164.29V795c0 90.61-73.7 164.31-164.29 164.31zM340.29 252.93c-82 0-148.64 66.68-148.64 148.64V795c0 82 66.68 148.64 148.64 148.64h325.92c82 0 148.64-66.68 148.64-148.64V401.57c0-82-66.68-148.64-148.64-148.64z" fill="#515151" p-id="7669"></path><path d="M361.13 63.91l19.56 0 0 185.11-19.56 0 0-185.11Z" fill="#515151" p-id="7670"></path><path d="M625.81 63.87l19.56 0 0 181.24-19.56 0 0-181.24Z" fill="#515151" p-id="7671"></path><path d="M582.34 710.12L383.13 591.65l90.47-38.83-49.43-90.09 199.21 118.46L532.9 620z m-164.8-116.2L541 667.35l-30.1-54.91 78.1-33.51-123.52-73.43 30.12 54.9z" fill="#515151" p-id="7672"></path></svg>