<?xml version="1.0" standalone="no"?><!DOCTYPE svg PUBLIC "-//W3C//DTD SVG 1.1//EN" "http://www.w3.org/Graphics/SVG/1.1/DTD/svg11.dtd"><svg t="1692845247880" class="icon" viewBox="0 0 1024 1024" version="1.1" xmlns="http://www.w3.org/2000/svg" p-id="62983" xmlns:xlink="http://www.w3.org/1999/xlink" width="200" height="200"><path d="M471.766 1023.982c-153.964 0-278.788-124.808-278.788-278.774 0-153.962 124.824-278.802 278.788-278.802 153.98 0 278.786 124.84 278.786 278.802 0 153.966-124.806 278.774-278.786 278.774z" fill="#EAC6BB" p-id="62984"></path><path d="M582.186 712.18h119.09V113.48c0-32.842-26.716-59.53-59.53-59.53s-59.56 26.688-59.56 59.53v598.7zM452.47 658.276h119.06V59.544C571.53 26.734 544.814 0.016 512 0.016c-32.828 0-59.53 26.716-59.53 59.528v598.732zM322.724 712.18h119.074V113.48c0-32.842-26.716-59.53-59.544-59.53s-59.53 26.688-59.53 59.53v598.7zM192.98 745.208h119.074V221.322c0-32.844-26.704-59.53-59.53-59.53S192.98 188.478 192.98 221.322v523.886z" fill="#EAC6BB" p-id="62985"></path><path d="M959.984 214.448H64.014c-35.28 0-63.998 28.716-63.998 63.998v341.332c0 35.28 28.716 63.998 63.998 63.998h895.97c35.31 0 63.998-28.718 63.998-63.998V278.446c0-35.282-28.688-63.998-63.998-63.998z" fill="#ED5564" p-id="62986"></path><path d="M816.926 306.038c-8.342 8.312-8.342 21.844 0 30.156 8.312 8.344 21.812 8.344 30.156 0 8.342-8.312 8.342-21.844 0-30.156-8.344-8.344-21.844-8.344-30.156 0zM816.926 391.348a21.334 21.334 0 0 0 0 30.186c8.312 8.344 21.812 8.344 30.156 0a21.334 21.334 0 0 0 0-30.186c-8.344-8.312-21.844-8.312-30.156 0zM816.926 476.688a21.336 21.336 0 0 0 0 30.188c8.312 8.31 21.812 8.31 30.156 0a21.336 21.336 0 0 0 0-30.188c-8.344-8.312-21.844-8.312-30.156 0z" fill="#DA4453" p-id="62987"></path><path d="M288.742 582.278c-9.952 0-18.858-7-20.89-17.156l-30.17-150.838c-2.312-11.53 5.188-22.78 16.734-25.092 11.562-2.312 22.796 5.188 25.11 16.718l30.17 150.87c2.296 11.53-5.188 22.78-16.734 25.092a21.8 21.8 0 0 1-4.22 0.406z" fill="#E6E9ED" p-id="62988"></path><path d="M258.618 431.44c-1.376 0-2.782-0.124-4.204-0.406l-150.838-30.186c-11.562-2.312-19.046-13.532-16.734-25.094s13.546-19.03 25.094-16.748l150.854 30.186c11.546 2.312 19.046 13.562 16.734 25.092-2.032 10.156-10.938 17.156-20.906 17.156z" fill="#E6E9ED" p-id="62989"></path><path d="M816.926 562.03c-8.342 8.31-8.342 21.842 0 30.154 8.312 8.344 21.812 8.344 30.156 0 8.342-8.312 8.342-21.844 0-30.154-8.344-8.344-21.844-8.344-30.156 0z" fill="#DA4453" p-id="62990"></path><path d="M334.022 334.694c-8.328-8.344-21.842-8.344-30.17 0l-144.588 144.588H107.748c-11.782 0-21.328 9.562-21.328 21.344s9.546 21.31 21.328 21.31h39.014v39.032c0 11.78 9.546 21.31 21.328 21.31s21.342-9.532 21.342-21.31v-51.53l144.588-144.59c8.33-8.31 8.33-21.842 0.002-30.154z" fill="#F5F7FA" p-id="62991"></path><path d="M917.33 579.34c-11.782 0-21.344-9.562-21.344-21.342V342.444c0-11.782 9.562-21.312 21.344-21.312s21.344 9.532 21.344 21.312v215.554c0 11.78-9.562 21.342-21.344 21.342z" fill="#FFCE54" p-id="62992"></path><path d="M426.674 385.128h298.66c11.782 0 21.344-9.562 21.344-21.344 0-11.78-9.562-21.342-21.344-21.342h-298.66c-11.78 0-21.326 9.562-21.326 21.342 0 11.782 9.546 21.344 21.326 21.344zM725.334 427.784h-298.66c-11.78 0-21.326 9.562-21.326 21.342 0 11.782 9.546 21.312 21.326 21.312h298.66c11.782 0 21.344-9.532 21.344-21.312 0-11.78-9.562-21.342-21.344-21.342zM597.34 513.124h-170.666c-11.78 0-21.326 9.532-21.326 21.312s9.546 21.344 21.326 21.344h170.666c11.782 0 21.344-9.562 21.344-21.344s-9.562-21.312-21.344-21.312z" fill="#434A54" p-id="62993"></path><path d="M866.112 579.028l0.032-0.032c9.718-18.904 11.532-40.466 5.062-60.716-6.468-20.248-20.468-36.78-39.374-46.53-11.406-5.876-23.654-8.876-36.404-8.876-29.968 0-57.124 16.562-70.844 43.188l-142.398 275.99 146.274 69.746 137.652-272.708v-0.062z" fill="#EAC6BB" p-id="62994"></path></svg>