<?xml version="1.0" standalone="no"?><!DOCTYPE svg PUBLIC "-//W3C//DTD SVG 1.1//EN" "http://www.w3.org/Graphics/SVG/1.1/DTD/svg11.dtd"><svg t="1692846485521" class="icon" viewBox="0 0 1024 1024" version="1.1" xmlns="http://www.w3.org/2000/svg" p-id="129752" xmlns:xlink="http://www.w3.org/1999/xlink" width="200" height="200"><path d="M921.5 237.7l-62.7-28.3c-40.6-18.3-87.3-18.6-128.1-0.9l-154.5 67.1-297.8-88.3c-16.5-4.9-34.2 0.5-45.2 13.7l-13.4 16.1c-7.4 8.9-11 20.6-9.7 32.2 1.2 11.5 7.2 22.2 16.4 29.4l127.1 99-122.2 61.1-91.2-44.8c-21.2-10.4-46.5-4.9-61.4 13.5l-8 9.8c-14.2 17.5-15 42.6-1.9 61l71 100c10.3 14.4 26.6 22.6 43.7 22.6 5.3 0 10.7-0.8 16-2.4l709.1-219.9c24.8-7.7 44.3-27 52.3-51.7 11.4-35.6-5.6-73.9-39.5-89.2z m-8.2 73.6c-3 9.2-10.3 16.4-19.5 19.3l-709.1 220c-1.5 0.5-3.1-0.1-4.1-1.4l-71-100c-0.1-0.2-0.1-0.4 0-0.5l8-9.8c0.1-0.2 0.3-0.2 0.5-0.1l102.4 50.3c7 3.4 15.2 3.4 22.2-0.1l168.8-84.4c7.7-3.8 12.8-11.3 13.7-19.9s-2.7-16.9-9.5-22.2L262.8 243.6l5.8-7 302 89.6c5.6 1.7 11.7 1.3 17.1-1l162.9-70.7c27.9-12.1 59.9-11.9 87.6 0.6l62.7 28.3c10.7 4.7 16 16.8 12.4 27.9zM806.8 496L377.2 634.1c-13.1 4.2-20.4 18.3-16.2 31.5 3.4 10.6 13.2 17.4 23.8 17.4 2.5 0 5.1-0.4 7.7-1.2l429.6-138.1c13.1-4.2 20.4-18.3 16.2-31.5-4.3-13.2-18.4-20.4-31.5-16.2zM677.8 651.6l-429.9 138c-13.1 4.2-20.4 18.3-16.2 31.4 3.4 10.6 13.2 17.4 23.8 17.4 2.5 0 5.1-0.4 7.6-1.2L636 717.5 614.5 760c-6.3 12.3-1.3 27.4 11 33.6 12.3 6.3 27.4 1.3 33.6-11l48.7-95.9c4.6-9 3.3-19.9-3.3-27.5-6.5-7.7-17.1-10.7-26.7-7.6z" fill="#707070" p-id="129753"></path></svg>