<?xml version="1.0" standalone="no"?><!DOCTYPE svg PUBLIC "-//W3C//DTD SVG 1.1//EN" "http://www.w3.org/Graphics/SVG/1.1/DTD/svg11.dtd"><svg t="1692845256729" class="icon" viewBox="0 0 1024 1024" version="1.1" xmlns="http://www.w3.org/2000/svg" p-id="63148" xmlns:xlink="http://www.w3.org/1999/xlink" width="200" height="200"><path d="M1006.933333 392.533333a17.066667 17.066667 0 0 0 17.066667-17.066666V307.2a17.066667 17.066667 0 0 0-17.066667-17.066667H546.133333V187.733333c0-18.850133-15.2832-34.133333-34.133333-34.133333H51.2C22.9248 153.6 0 176.5248 0 204.8v614.4c0 28.2752 22.9248 51.2 51.2 51.2h460.8c18.850133 0 34.133333-15.2832 34.133333-34.133333v-34.133334h460.8a17.066667 17.066667 0 0 0 17.066667-17.066666v-68.266667a17.066667 17.066667 0 0 0-17.066667-17.066667c-18.850133 0-34.133333-15.2832-34.133333-34.133333s15.2832-34.133333 34.133333-34.133333a17.066667 17.066667 0 0 0 17.066667-17.066667v-136.533333a17.066667 17.066667 0 0 0-17.066667-17.066667c-18.850133 0-34.133333-15.2832-34.133333-34.133333s15.2832-34.133333 34.133333-34.133334zM51.2 836.266667a17.066667 17.066667 0 0 1-17.066667-17.066667V204.8a17.066667 17.066667 0 0 1 17.066667-17.066667h460.8v648.533334z m938.666667-343.483734v106.7008c-30.176 7.758933-51.266133 34.958933-51.266134 66.116267s21.090133 58.357333 51.266134 66.116267V768H546.133333V324.266667h443.733334v36.283733c-30.176 7.758933-51.266133 34.958933-51.266134 66.116267s21.090133 58.357333 51.266134 66.116266z m0 0" p-id="63149"></path><path d="M925.7344 495.441067L802.133333 464.541867V409.6c0-28.2752-22.9248-51.2-51.2-51.2s-51.2 22.9248-51.2 51.2v54.941867l-123.601066 30.8992A17.0688 17.0688 0 0 0 563.2 512v34.133333a17.066667 17.066667 0 0 0 17.066667 17.066667h119.466666v88.407467l-71.684266 14.336A17.0752 17.0752 0 0 0 614.4 682.666667v34.133333a17.066667 17.066667 0 0 0 17.066667 17.066667h238.933333a17.066667 17.066667 0 0 0 17.066667-17.066667v-34.133333c0-8.106667-5.7088-15.099733-13.649067-16.725334L802.133333 651.607467V563.2h119.466667a17.066667 17.066667 0 0 0 17.066667-17.066667v-34.133333c0-7.8336-5.333333-14.658133-12.9344-16.558933zM733.866667 409.6a17.066667 17.066667 0 0 1 34.133333 0v253.233067L755.690667 699.733333h-9.514667L733.866667 662.833067z m-136.533334 119.466667v-3.741867l102.4-25.6V529.066667z m51.2 170.666666v-3.074133l56.832-11.368533 4.810667 14.442666z m204.8 0h-61.642666l4.808533-14.442666L853.333333 696.661333z m51.2-170.666666h-102.4v-29.341867l102.4 25.6z m0 0M273.066667 273.066667a137.1712 137.1712 0 0 0-14.333867 0.782933 134.798933 134.798933 0 0 0-80.981333 38.165333C138.1056 350.801067 125.866667 409.719467 146.781867 461.085867 167.6992 512.448 217.608533 546.0672 273.066667 546.133333a137.117867 137.117867 0 0 0 95.317333-38.9504c39.6416-38.784 51.882667-97.700267 30.965333-149.066666C378.434133 306.752 328.5248 273.1328 273.066667 273.066667z m34.133333 136.533333c0 12.674133-1.000533 25.3248-2.9824 37.832533a132.974933 132.974933 0 0 0-62.301867 0 241.550933 241.550933 0 0 1 0-75.665066 132.974933 132.974933 0 0 0 62.301867 0A241.5872 241.5872 0 0 1 307.2 409.6z m22.1824 85.333333c-0.866133 0.5824-1.824 0.974933-2.709333 1.514667 0.343467-0.881067 0.718933-1.706667 1.060266-2.624 0.576 0.375467 1.224533 0.6336 1.792 1.009067z m-112.631467 0h-0.209066c0.5824-0.375467 1.207467-0.6336 1.706666-1.009066 0.341333 0.9088 0.718933 1.7088 1.060267 2.634666-0.768-0.5504-1.725867-0.942933-2.56-1.508266z m57.732267 16.433067h-2.833067c-6.282667-1.3824-14.609067-12.049067-21.367466-30.4832a106.363733 106.363733 0 0 1 45.568 0c-6.7584 18.56-15.082667 29.226667-21.367467 30.609067zM250.282667 338.190933c6.826667-18.432 15.082667-29.006933 21.367466-30.4832h2.833067c6.282667 1.384533 14.609067 12.0512 21.367467 30.485334a106.363733 106.363733 0 0 1-45.568 0zM216.750933 324.266667c0.866133-0.5824 1.824-0.974933 2.709334-1.514667-0.343467 0.881067-0.718933 1.706667-1.060267 2.624-0.576-0.375467-1.224533-0.6336-1.706667-1.009067z m110.058667-1.514667c0.8576 0.522667 1.806933 0.9152 2.6496 1.480533l0.1984 0.1344c-0.576 0.375467-1.207467 0.6336-1.792 1.009067-0.405333-0.992-0.782933-1.826133-1.124267-2.717867zM191.415467 348.16a137.201067 137.201067 0 0 0 17.749333 11.464533 288.4032 288.4032 0 0 0 0 100.017067 137.3184 137.3184 0 0 0-17.749333 11.483733c-27.669333-36.317867-27.669333-86.6496 0-122.965333z m163.298133 122.88a137.201067 137.201067 0 0 0-17.749333-11.464533 288.4032 288.4032 0 0 0 0-100.017067 135.325867 135.325867 0 0 0 17.749333-11.483733c27.669333 36.317867 27.669333 86.6496 0 122.965333z m0 0M170.666667 614.4h204.8v34.133333H170.666667z m0 0M136.533333 682.666667h273.066667v34.133333H136.533333z m0 0" p-id="63150"></path></svg>