<?xml version="1.0" standalone="no"?><!DOCTYPE svg PUBLIC "-//W3C//DTD SVG 1.1//EN" "http://www.w3.org/Graphics/SVG/1.1/DTD/svg11.dtd"><svg t="1595950892486" class="icon" viewBox="0 0 1635 1024" version="1.1" xmlns="http://www.w3.org/2000/svg" p-id="2664" xmlns:xlink="http://www.w3.org/1999/xlink" width="319.3359375" height="200"><defs><style type="text/css"></style></defs><path d="M849.927793 0h5.653153c2.443536 0.396249 4.887072 1.135914 7.343816 1.135914 45.145975-0.1585 88.984328 7.991022 131.594309 22.137113 136.322881 45.238433 232.6114 134.909593 291.520425 265.143447 24.831607 54.893702 39.294697 112.547938 41.394817 172.949502 0.686832 19.693578 0.052833 39.413572 0.092458 59.133566 0 2.351078 0.383041 4.715364 0.647207 7.62119 3.156784-0.766081 5.573903-1.32083 7.964606-1.954829 32.809421-8.717479 65.830175-10.791182 99.458511-4.728571 75.934526 13.697009 131.937725 54.82766 169.38326 121.740916 29.362055 52.450166 35.46429 108.545823 26.244896 167.20389-11.702555 74.455196-49.22734 131.950933-113.723477 170.62484-63.835722 38.277658-133.232138 49.900964-206.855212 39.189031-51.261419-7.449482-99.141512-23.669277-141.685452-53.203039-21.238949-14.740465-40.404195-32.479214-60.89027-49.174507-80.742348 57.00703-171.206006 92.339237-271.615515 102.588879a555.541166 555.541166 0 0 1-136.877629-2.932243c-60.295897-8.770312-118.174675-26.28452-172.88346-53.50683-4.451198-2.218995-7.396649-1.981245-11.715764 1.083081-69.91154 49.663214-147.549937 68.062378-232.135901 54.735202-84.15009-13.261135-152.965341-54.616327-206.141963-120.354045C9.245811 816.048499-11.015724 719.086357 5.455029 615.018149c15.731087-99.339637 68.102003-177.374283 150.970887-234.196397 61.12802-41.923149 128.979065-64.443304 203.566345-64.628219 23.735318-0.052833 47.470636 0.871748 72.038077 1.360455-0.62079 0.647207-0.277374 0.462291-0.211333 0.198124 35.30579-128.133734 114.383892-219.416307 233.892605-276.145962A407.410064 407.410064 0 0 1 809.787764 2.95866C823.141357 1.928412 836.534575 0.990623 849.927793 0zM585.193803 886.369497c2.337869 1.307622 3.381325 2.034078 4.530448 2.509577a527.235776 527.235776 0 0 0 138.924916 36.705871c45.938473 5.613528 91.53353 4.173823 136.547423-4.715364 111.900731-22.123905 206.313671-75.300528 276.344086-166.252893 76.2119-98.969804 107.211784-210.976202 85.127504-335.121028-18.002915-101.228424-67.19063-184.929431-149.70289-247.048074-83.753841-63.056432-178.668696-88.152205-282.393489-71.338037-82.182053 13.313968-152.186051 51.644459-205.758923 116.325512-61.471436 74.204239-86.276626 159.727992-69.673791 254.907013 12.019554 68.960543 45.661099 127.182736 101.162382 170.849382 54.946535 43.230771 117.963342 62.950766 187.874882 55.303159 45.72714-5.005946 87.41254-22.16353 122.33529-52.674707 59.041108-51.578418 85.642628-116.365137 69.277542-193.963909-12.930927-61.299728-49.900964-104.332375-111.847898-122.49379-47.166845-13.829092-98.560347 1.769912-126.443071 37.630452-21.991822 28.292182-24.646691 63.30739-6.775859 89.037161 9.72131 14.0008 21.648406 17.355708 37.102119 10.42135 22.718279-10.196809 49.84813-1.056664 61.616727 20.750242 11.544056 21.397449 4.451198 48.553717-15.982045 62.224309-47.536678 31.792382-112.468688 17.144376-150.416139-25.861855-32.479214-36.811537-44.657268-80.33289-37.511576-129.005482 6.37961-43.481729 25.650522-80.64989 58.261818-109.800611 49.14809-43.930811 107.119326-61.59031 172.791002-53.66533 50.429296 6.089027 95.03373 25.927896 131.950933 60.216647 70.400248 65.40751 97.107434 147.549937 84.268965 241.751545-8.651438 63.439473-36.758703 118.967173-82.010345 164.48298-63.426264 63.809305-141.209953 95.694145-230.999987 97.345183-52.053917 0.950998-101.756756-10.711933-149.148142-32.241464-3.539825-1.611413-7.106066-3.156784-12.045971-5.336154-0.435874 47.444219-14.449882 89.35416-37.405911 129.058315zM416.735125 408.281811c-32.954713-6.630567-90.13345-4.160615-129.124357 8.625021C167.217099 456.373238 98.111264 544.710359 90.265533 668.458937c-2.562411 40.457028 5.653153 78.985644 22.16353 115.863222 46.625305 104.173875 138.872083 155.963626 251.010564 142.3987 48.368801-5.851278 90.516491-25.927896 123.959911-62.448851 36.428496-39.783404 52.701123-85.827544 43.560979-139.690998-13.670592-80.451765-87.980497-134.552969-167.771847-121.001251-29.08468 4.939905-52.701123 19.667161-68.181253 45.436558-13.987591 23.299444-9.813768 52.80679 8.294813 72.01166 13.168677 13.974383 42.92698 20.538909 66.411341 3.566242 9.681685-7.0004 22.123905-6.894733 33.562294-3.42095 29.78472 9.060895 40.562694 51.908625 18.887872 75.181653-29.00543 31.145175-65.698092 38.898448-105.785288 31.264049-102.932295-19.60112-146.334774-127.737485-107.066493-211.68945 33.12642-70.822913 115.41414-109.325113 191.586415-104.253124 9.470352 0.633998 18.927496 1.492538 26.865685 2.139744l-11.028931-105.53433z m763.387 449.544546c0.898165 1.003831 2.443536 2.971868 4.226657 4.662531 61.484644 58.182569 134.500135 79.078102 217.078437 63.954596 40.694777-7.449482 76.2119-27.261935 103.037961-59.543024 48.276342-58.129735 51.16896-150.667097-7.185316-211.042243-24.224025-25.069356-53.070956-39.413572-88.020122-43.442104-26.746811-3.077534-51.802959 0.052833-75.498652 12.323346-21.965406 11.372348-35.371832 36.441704-32.677339 59.027899 2.747327 22.929612 18.610497 41.883524 40.721194 47.840469 12.812053 3.447367 25.280689 0.435874 37.828576-2.826577 14.925381-3.883241 29.348846-2.496369 41.434442 8.308022 24.858024 22.255988 18.953913 60.626104-12.82526 76.383608-46.42718 23.02207-91.639197 17.514208-134.394469-10.143975-11.161015-7.224941-20.750242-16.893418-30.167761-24.712733l-63.558348 79.210185z" fill="#1296db" p-id="2665"></path></svg>