<?xml version="1.0" standalone="no"?><!DOCTYPE svg PUBLIC "-//W3C//DTD SVG 1.1//EN" "http://www.w3.org/Graphics/SVG/1.1/DTD/svg11.dtd"><svg t="1597218724892" class="icon" viewBox="0 0 1024 1024" version="1.1" xmlns="http://www.w3.org/2000/svg" p-id="5756" xmlns:xlink="http://www.w3.org/1999/xlink" width="200" height="200"><defs><style type="text/css"></style></defs><path d="M960 128H64c-33.6 0-64 30.4-64 64v427.2c0 33.6 30.4 64 64 64h404.8v128h-128c-25.6 0-43.2 17.6-43.2 43.2s17.6 43.2 43.2 43.2h340.8c25.6 0 43.2-17.6 43.2-43.2s-17.6-43.2-43.2-43.2h-128v-128H960c33.6 0 64-30.4 64-64V192c0-33.6-30.4-64-64-64z m-20.8 468.8H84.8v-384h852.8v384z" p-id="5757"></path><path d="M737.6 404.8L681.6 464c-17.6 17.6-17.6 43.2 0 59.2 8 8 20.8 12.8 30.4 12.8 12.8 0 20.8-4.8 30.4-12.8l84.8-84.8c17.6-17.6 17.6-51.2 0-68.8l-84.8-84.8c-17.6-17.6-43.2-17.6-59.2 0-17.6 17.6-17.6 43.2 0 59.2l54.4 60.8zM294.4 532.8c8 8 20.8 12.8 30.4 12.8s20.8-4.8 30.4-12.8c17.6-17.6 17.6-43.2 0-59.2l-59.2-59.2 56-56c17.6-17.6 17.6-43.2 0-59.2-17.6-17.6-43.2-17.6-59.2 0L204.8 384c-17.6 17.6-17.6 51.2 0 68.8l89.6 80zM460.8 550.4c4.8 0 8 4.8 17.6 4.8 17.6 0 33.6-8 38.4-25.6l76.8-192c8-20.8 0-46.4-25.6-56-20.8-8-46.4 0-56 25.6l-76.8 192c-4.8 17.6 4.8 43.2 25.6 51.2z" p-id="5758"></path></svg>