<?xml version="1.0" standalone="no"?><!DOCTYPE svg PUBLIC "-//W3C//DTD SVG 1.1//EN" "http://www.w3.org/Graphics/SVG/1.1/DTD/svg11.dtd"><svg t="1597203296992" class="icon" viewBox="0 0 1024 1024" version="1.1" xmlns="http://www.w3.org/2000/svg" p-id="7236" xmlns:xlink="http://www.w3.org/1999/xlink" width="200" height="200"><defs><style type="text/css"></style></defs><path d="M277.333333 554.666667a64 64 0 1 1 0-128 64 64 0 0 1 0 128z m469.333334 0a64 64 0 1 1 0-128 64 64 0 0 1 0 128z m-128-170.666667a64 64 0 1 1 0-128 64 64 0 0 1 0 128z m-213.333334 0a64 64 0 1 1 0-128 64 64 0 0 1 0 128zM512 943.744C276.352 943.744 85.333333 747.648 85.333333 512S276.352 85.333333 512 85.333333s426.666667 191.018667 426.666667 426.666667c0 124.970667-113.28 289.28-320 226.389333-69.205333-21.034667 92.586667 205.354667-106.666667 205.354667z m0-85.333333a119.466667 119.466667 0 0 0 18.688-1.28c-0.170667-2.005333-0.341333-4.821333-0.682667-8.448-0.853333-8.533333-2.517333-18.133333-5.546666-32.554667l-2.986667-14.037333c-1.237333-5.973333-2.133333-10.538667-2.986667-15.061334a178.688 178.688 0 0 1-3.626666-38.613333c1.877333-67.2 60.928-112.256 128.64-91.690667C765.354667 693.802667 853.333333 614.485333 853.333333 512a341.333333 341.333333 0 1 0-682.666666 0c0 189.781333 154.069333 346.410667 341.333333 346.410667z" fill="#d81e06" p-id="7237"></path></svg>