<?xml version="1.0" standalone="no"?><!DOCTYPE svg PUBLIC "-//W3C//DTD SVG 1.1//EN" "http://www.w3.org/Graphics/SVG/1.1/DTD/svg11.dtd"><svg t="1597219511875" class="icon" viewBox="0 0 1024 1024" version="1.1" xmlns="http://www.w3.org/2000/svg" p-id="22540" xmlns:xlink="http://www.w3.org/1999/xlink" width="200" height="200"><defs><style type="text/css"></style></defs><path d="M511.872502 1023.99908A511.992472 511.992472 0 0 1 312.622131 40.494054a511.992472 511.992472 0 0 1 398.500741 943.265049A508.643306 508.643306 0 0 1 511.872502 1023.99908z m0-951.762933a440.020399 440.020399 0 0 0-171.217353 845.229469 440.020399 440.020399 0 0 0 342.434706-810.678075A437.201101 437.201101 0 0 0 511.872502 72.236147z" p-id="22541" fill="#1296db"></path><path d="M664.994362 800.204823A35.881063 35.881063 0 0 1 629.843117 770.982102l-0.15996-0.849788A35.841073 35.841073 0 0 1 664.834402 727.612905h0.209947q7.74807 0 16.175971 0.049987c17.645605 0 38.690363-8.707831 38.690363-50.187499v-411.897404a34.251469 34.251469 0 1 1 68.502937 0v425.813938c0 70.662399-22.664355 105.973604-69.302738 107.813145-18.295443 0.459885-36.400933 0.799801-53.736615 0.999751zM444.489286 236.575213l3.629096 3.779059c29.992529 31.232221 60.98481 64.983814 92.197035 100.355003a35.501157 35.501157 0 0 1-26.603373 58.935321A35.25122 35.25122 0 0 1 485.029188 385.158204c-22.144484-30.142492-45.428685-59.365213-69.21276-86.87836l-5.238696-6.098481-4.338919 6.738321c-25.833565 40.140002-62.164516 81.909598-107.973106 124.13908L286.928531 433.476169h239.740285c-0.899776 22.504395-2.64934 64.104033-5.198705 123.889141-1.529619 55.986055-29.662612 83.239267-85.978584 83.239267h-0.23994c-7.888035 0.31992-15.646103 0.509873-22.994273 0.579855h-0.269933a29.752589 29.752589 0 0 1-29.582631-26.363433l-0.099975-0.899776a29.722597 29.722597 0 0 1 29.492654-33.101755h0.729818c5.658591 0.129968 11.997012 0.249938 18.685346 0.339916h0.47988c20.39492-1.359661 23.994024-18.775323 24.353934-29.202726 1.209699-12.146974 2.229445-29.512649 2.999253-51.627141l0.219945-6.218451H343.534432v191.232367c0 35.991035 21.124738 43.539155 38.840325 43.539155h65.833602c22.434412 0 35.791085-11.627104 38.630378-33.621625 0.15996-1.119721 0.339915-2.379407 0.529868-3.789056a35.25122 35.25122 0 0 1 42.119509-29.822572l0.859786 0.179955a35.321202 35.321202 0 0 1 27.433167 41.459673c-2.599353 12.996763-5.158715 24.343936-7.638098 33.811578v0.199951c-7.888035 34.761342-36.270966 51.607146-86.808377 51.607145h-91.97709c-63.984063 0-95.086316-25.163732-95.086316-76.980825V443.513669L266.133711 452.14152a10.297435 10.297435 0 0 1-6.748319 2.48938 10.627353 10.627353 0 0 1-9.707582-6.288434c-5.638596-12.676842-12.896788-27.94304-21.574626-45.378697a10.55737 10.55737 0 0 1 2.469385-12.64685c63.984063-56.255988 109.48273-110.442491 135.196325-161.049885a2.999253 2.999253 0 0 1 2.639342-1.609599m258.365646 412.897154a33.991533 33.991533 0 0 1-33.991533-33.991533V320.944199a33.991533 33.991533 0 1 1 67.903086 0v285.708835a33.991533 33.991533 0 0 1-33.911553 33.951543z" p-id="22542" fill="#1296db"></path></svg>