<?xml version="1.0" standalone="no"?><!DOCTYPE svg PUBLIC "-//W3C//DTD SVG 1.1//EN" "http://www.w3.org/Graphics/SVG/1.1/DTD/svg11.dtd"><svg t="1693123238636" class="icon" viewBox="0 0 1024 1024" version="1.1" xmlns="http://www.w3.org/2000/svg" p-id="16629" xmlns:xlink="http://www.w3.org/1999/xlink" width="200" height="200"><path d="M375.876679 958.047707L38.416279 531.246378a177.337904 177.337904 0 0 1-9.855661-206.648896l159.9945-245.23957A172.346076 172.346076 0 0 1 334.022118 0.00064h356.08376a173.498036 173.498036 0 0 1 145.594995 79.357272l159.354522 245.23957a177.081913 177.081913 0 0 1-9.343679 206.648896l-337.332404 426.353345a173.434038 173.434038 0 0 1-272.502633 0.447984z m-95.9967-818.211874L120.653453 385.075403a64.957767 64.957767 0 0 0 3.391883 76.79736l337.4604 426.801329a66.109727 66.109727 0 0 0 101.116524 0l337.4604-426.801329a65.789738 65.789738 0 0 0 3.647874-76.79736l-159.482518-245.23957a63.9978 63.9978 0 0 0-54.142138-29.118999H334.022118a64.57378 64.57378 0 0 0-54.142139 29.182997z m169.978157 581.931996L243.849218 461.296783a55.55009 55.55009 0 0 1 9.023689-77.565334 54.014143 54.014143 0 0 1 76.797361 8.511708l182.521725 230.904062 182.009744-230.904062a54.654121 54.654121 0 0 1 77.245345-8.511708 55.230101 55.230101 0 0 1 8.511707 77.565334l-205.624932 260.471046a79.933252 79.933252 0 0 1-62.141864 30.526951 78.84529 78.84529 0 0 1-62.333857-30.526951z" fill="#515151" p-id="16630"></path></svg>