<?xml version="1.0" standalone="no"?><!DOCTYPE svg PUBLIC "-//W3C//DTD SVG 1.1//EN" "http://www.w3.org/Graphics/SVG/1.1/DTD/svg11.dtd"><svg t="1596073492569" class="icon" viewBox="0 0 1024 1024" version="1.1" xmlns="http://www.w3.org/2000/svg" p-id="1593" xmlns:xlink="http://www.w3.org/1999/xlink" width="200" height="200"><defs><style type="text/css"></style></defs><path d="M928 896 128 896 128 96C128 76.8 115.2 64 96 64S64 76.8 64 96l0 832C64 947.2 76.8 960 96 960l832 0c19.2 0 32-12.8 32-32C960 908.8 947.2 896 928 896z" p-id="1594" fill="#515151"></path><path d="M243.2 832l96 0C364.8 832 384 806.4 384 780.8L384 563.2C384 537.6 364.8 512 339.2 512L243.2 512C211.2 512 192 537.6 192 563.2l0 211.2C192 806.4 211.2 832 243.2 832zM256 595.2C256 582.4 268.8 576 288 576S320 582.4 320 595.2l0 153.6C320 761.6 307.2 768 288 768S256 761.6 256 748.8L256 595.2z" p-id="1595" fill="#515151"></path><path d="M499.2 832l96 0c25.6 0 51.2-25.6 51.2-51.2L646.4 371.2C640 345.6 620.8 320 595.2 320L499.2 320C467.2 320 448 345.6 448 371.2l0 403.2C448 806.4 467.2 832 499.2 832zM512 403.2C512 390.4 524.8 384 544 384S576 390.4 576 403.2l0 345.6C576 761.6 563.2 768 544 768S512 761.6 512 748.8L512 403.2z" p-id="1596" fill="#515151"></path><path d="M755.2 832l96 0c25.6 0 51.2-25.6 51.2-51.2L902.4 243.2C896 217.6 876.8 192 851.2 192l-96 0C723.2 192 704 217.6 704 243.2l0 531.2C704 806.4 723.2 832 755.2 832zM768 275.2C768 262.4 780.8 256 800 256S832 262.4 832 275.2l0 473.6c0 12.8-12.8 19.2-32 19.2S768 761.6 768 748.8L768 275.2z" p-id="1597" fill="#515151"></path></svg>