<?xml version="1.0" standalone="no"?><!DOCTYPE svg PUBLIC "-//W3C//DTD SVG 1.1//EN" "http://www.w3.org/Graphics/SVG/1.1/DTD/svg11.dtd"><svg t="1595955735890" class="icon" viewBox="0 0 1024 1024" version="1.1" xmlns="http://www.w3.org/2000/svg" p-id="17809" xmlns:xlink="http://www.w3.org/1999/xlink" width="32" height="32"><defs><style type="text/css"></style></defs><path d="M24.521359 408.949727c6.141471 0 12.463574-2.34821 17.159993-7.044629L348.935541 101.876169l307.073558 300.028929c9.754101 9.392838 25.107779 9.392838 34.681249-0.361263l283.591463-289.371671v49.673664c0 13.547363 11.018522 24.565885 24.565884 24.565885s24.565885-11.018522 24.565885-24.565885V53.105662c0-0.903158 0-1.806315-0.180632-2.709472-0.903158-12.463574-11.560416-22.398307-24.204621-22.398307h-108.920798c-13.547363 0-24.565885 11.018522-24.565884 24.565885s11.018522 24.565885 24.565884 24.565884h50.034927l-267.153995 272.753573-306.712295-299.848298c-9.57347-9.392838-24.746516-9.392838-34.319986 0L7.361366 366.862586c-9.754101 9.392838-9.754101 25.107779-0.361263 34.681249 4.696419 5.057682 11.199153 7.405892 17.521256 7.405892z m0 0" p-id="17810" fill="#1296db"></path><path d="M139.94489 580.188393H19.644308c-10.115364 0-18.424413 8.309049-18.424413 18.424413v382.396896c0 8.128418 6.683366 14.811783 14.811783 14.811783h124.093844c8.128418 0 14.811783-6.683366 14.811783-14.811783V594.819545c-0.180632-7.947786-6.863997-14.631152-14.992415-14.631152z m579.465867 0h-120.300582c-10.115364 0-18.424413 8.309049-18.424413 18.424413v382.396896c0 8.128418 6.683366 14.811783 14.811783 14.811783h124.093844c8.128418 0 14.811783-6.683366 14.811783-14.811783V594.819545c-0.361263-7.947786-6.863997-14.631152-14.992415-14.631152zM429.316561 351.147645h-120.481214c-10.115364 0-18.424413 8.309049-18.424413 18.424414V980.82907c0 8.128418 6.683366 14.811783 14.811783 14.811784h124.093844c8.128418 0 14.811783-6.683366 14.811783-14.811784V365.959428c0-8.128418-6.683366-14.811783-14.811783-14.811783z m579.646498 0h-120.300582c-10.115364 0-18.424413 8.309049-18.424413 18.424414V980.82907c0 8.128418 6.683366 14.811783 14.811783 14.811784h124.093844c8.128418 0 14.811783-6.683366 14.811783-14.811784V365.959428c-0.361263-8.128418-6.863997-14.811783-14.992415-14.811783z m0 0" p-id="17811" fill="#1296db"></path></svg>