<?xml version="1.0" standalone="no"?><!DOCTYPE svg PUBLIC "-//W3C//DTD SVG 1.1//EN" "http://www.w3.org/Graphics/SVG/1.1/DTD/svg11.dtd"><svg t="1596073388632" class="icon" viewBox="0 0 1024 1024" version="1.1" xmlns="http://www.w3.org/2000/svg" p-id="966" xmlns:xlink="http://www.w3.org/1999/xlink" width="200" height="200"><defs><style type="text/css"></style></defs><path d="M614.4 684.8h-204.8c-72.533333 0-132.266667-59.733333-132.266667-132.266667 0-66.133333 46.933333-121.6 110.933334-130.133333 19.2-49.066667 68.266667-83.2 123.733333-83.2 53.333333 0 102.4 34.133333 123.733333 83.2 64 10.666667 110.933333 66.133333 110.933334 130.133333 0 72.533333-59.733333 132.266667-132.266667 132.266667zM512 360.533333c-46.933333 0-89.6 29.866667-104.533333 74.666667l-2.133334 6.4h-6.4C341.333333 448 298.666667 494.933333 298.666667 552.533333c0 61.866667 49.066667 110.933333 110.933333 110.933334h204.8c61.866667 0 110.933333-49.066667 110.933333-110.933334 0-57.6-42.666667-104.533333-98.133333-110.933333h-6.4l-2.133333-6.4c-17.066667-44.8-59.733333-74.666667-106.666667-74.666667z" fill="#1296db" p-id="967"></path><path d="M925.866667 650.666667l-21.333334-4.266667c8.533333-32 10.666667-64 10.666667-96C917.333333 352 776.533333 183.466667 584.533333 149.333333l4.266667-21.333333C791.466667 164.266667 938.666667 341.333333 938.666667 548.266667c0 34.133333-4.266667 68.266667-12.8 102.4zM93.866667 648.533333c-8.533333-32-12.8-66.133333-12.8-100.266666 0-206.933333 147.2-384 349.866666-420.266667l4.266667 21.333333c-192 36.266667-332.8 202.666667-332.8 398.933334 0 32 4.266667 64 10.666667 96l-19.2 4.266666zM509.866667 977.066667c-140.8 0-273.066667-70.4-352-185.6l17.066666-12.8c76.8 110.933333 200.533333 177.066667 334.933334 177.066666 134.4 0 260.266667-66.133333 337.066666-179.2l17.066667 12.8c-78.933333 117.333333-211.2 187.733333-354.133333 187.733334z" fill="#1296db" p-id="968"></path><path d="M893.866667 804.266667c-46.933333 0-87.466667-38.4-87.466667-87.466667s38.4-87.466667 87.466667-87.466667 87.466667 38.4 87.466666 87.466667-38.4 87.466667-87.466666 87.466667z m0-151.466667c-36.266667 0-66.133333 29.866667-66.133334 66.133333 0 36.266667 29.866667 66.133333 66.133334 66.133334 36.266667 0 66.133333-29.866667 66.133333-66.133334 0-36.266667-29.866667-66.133333-66.133333-66.133333zM130.133333 804.266667c-46.933333 0-87.466667-38.4-87.466666-87.466667s38.4-87.466667 87.466666-87.466667 87.466667 38.4 87.466667 87.466667-40.533333 87.466667-87.466667 87.466667z m0-151.466667c-36.266667 0-66.133333 29.866667-66.133333 64 0 36.266667 29.866667 66.133333 66.133333 66.133333s66.133333-29.866667 66.133334-66.133333c-2.133333-34.133333-32-64-66.133334-64zM509.866667 221.866667c-17.066667 0-36.266667-6.4-51.2-17.066667-38.4-27.733333-46.933333-81.066667-19.2-121.6 12.8-19.2 34.133333-32 55.466666-34.133333 23.466667-4.266667 44.8 2.133333 64 14.933333 25.6 17.066667 38.4 46.933333 36.266667 78.933333-2.133333 14.933333-6.4 29.866667-14.933333 42.666667-12.8 19.2-34.133333 32-55.466667 34.133333-6.4 0-10.666667 2.133333-14.933333 2.133334z m0-153.6h-10.666667c-17.066667 2.133333-32 12.8-42.666667 25.6-21.333333 29.866667-14.933333 70.4 14.933334 91.733333 14.933333 10.666667 32 14.933333 49.066666 10.666667 17.066667-2.133333 32-12.8 42.666667-25.6 6.4-8.533333 10.666667-21.333333 12.8-32 2.133333-23.466667-8.533333-44.8-27.733333-59.733334-10.666667-6.4-25.6-10.666667-38.4-10.666666z" fill="#1296db" p-id="969"></path></svg>