<?xml version="1.0" standalone="no"?><!DOCTYPE svg PUBLIC "-//W3C//DTD SVG 1.1//EN" "http://www.w3.org/Graphics/SVG/1.1/DTD/svg11.dtd"><svg t="1623728393672" class="icon" viewBox="0 0 1024 1024" version="1.1" xmlns="http://www.w3.org/2000/svg" p-id="15310" xmlns:xlink="http://www.w3.org/1999/xlink" width="200" height="200"><defs><style type="text/css"></style></defs><path d="M286.5 524.9h450.8V589H286.5zM286.5 661h450.8v64.1H286.5z" fill="#231815" p-id="15311"></path><path d="M832.3 183.9H685.2c-5.7-20.3-24.1-35.3-46.2-35.3h-48.8c-12.7-30.8-43-52.6-78.3-52.6s-65.6 21.8-78.3 52.6h-48.8c-22.1 0-40.5 15-46.2 35.3H192c-8.9 0-16.2 7.3-16.2 16.2v664.8c0 8.9 7.3 16.2 16.2 16.2h640.3c8.9 0 16.2-7.3 16.2-16.2V200c0-8.9-7.3-16.1-16.2-16.1z m-431.6 28.8h90.7v-32c0-11.3 9.2-20.5 20.5-20.5s20.5 9.2 20.5 20.5v32h90.7v43.1H400.7v-43.1z m383.7 604.2H239.9v-569h96.8v23.8c0 26.5 21.6 48.1 48.1 48.1H639c26.6 0 48.1-21.6 48.1-48.1v-23.8h97.2v569z" fill="#231815" p-id="15312"></path></svg>