<?xml version="1.0" standalone="no"?><!DOCTYPE svg PUBLIC "-//W3C//DTD SVG 1.1//EN" "http://www.w3.org/Graphics/SVG/1.1/DTD/svg11.dtd"><svg t="1595954731373" class="icon" viewBox="0 0 1024 1024" version="1.1" xmlns="http://www.w3.org/2000/svg" p-id="6355" xmlns:xlink="http://www.w3.org/1999/xlink" width="200" height="200"><defs><style type="text/css"></style></defs><path d="M658.358857 857.161143q-23.990857-137.728-80.018286-284.598857l-1.170286 0-1.170286 0.585143q-9.142857 3.437714-24.576 9.435429t-57.709714 28.013714-78.262857 46.884571-74.825143 65.462857-58.88 84.553143l-8.557714-6.290286q105.179429 85.723429 238.884571 85.723429 75.410286 0 146.285714-29.696zM552.667429 510.317714q-11.995429-28.013714-30.281143-63.414857-177.737143 53.174857-384.585143 53.174857-0.585143 4.022857-0.585143 11.995429 0 70.875429 25.161143 135.168t70.875429 115.126857q28.598857-50.834286 70.582857-95.158857t81.408-71.168 74.605714-46.299429 56.832-27.428571l21.138286-7.460571q2.267429-0.585143 7.460571-1.974857t7.460571-2.56zM491.52 389.12q-68.534857-121.709714-139.410286-215.990857-78.848 37.156571-133.705143 106.276571t-73.142857 155.428571q172.544 0 346.258286-45.714286zM882.395429 571.465143q-120.027429-34.304-233.691429-16.603429 49.737143 136.557714 73.142857 267.995429 63.414857-42.861714 105.691429-108.251429t54.857143-143.140571zM422.326857 147.968q-0.585143 0-1.170286 0.585143 0.585143-0.585143 1.170286-0.585143zM759.515429 230.838857q-105.691429-93.696-247.442286-93.696-43.446857 0-88.576 10.825143 74.825143 97.133714 140.580571 218.258286 39.424-14.848 74.313143-34.596571t55.149714-35.108571 37.449143-32.548571 21.430857-23.113143zM886.930286 507.977143q-1.682286-132.534857-85.138286-234.276571l-0.585143 0.585143q-5.12 6.875429-10.825143 13.970286t-24.868571 25.453714-40.594286 34.596571-57.124571 37.156571-75.117714 36.864q14.262857 30.281143 25.161143 54.272 1.170286 3.437714 3.730286 10.020571t4.315429 9.435429q20.553143-2.852571 42.569143-4.022857t41.984-1.170286 39.424 0.877714 36.571429 2.267429 32.256 3.145143 27.428571 3.730286 20.845714 3.437714 14.262857 2.56zM950.930286 512q0 119.442286-58.88 220.306286t-159.744 159.744-220.306286 58.88-220.306286-58.88-159.744-159.744-58.88-220.306286 58.88-220.306286 159.744-159.744 220.306286-58.88 220.306286 58.88 159.744 159.744 58.88 220.306286z" p-id="6356" fill="#d81e06"></path></svg>