<?xml version="1.0" standalone="no"?><!DOCTYPE svg PUBLIC "-//W3C//DTD SVG 1.1//EN" "http://www.w3.org/Graphics/SVG/1.1/DTD/svg11.dtd"><svg t="1595956394470" class="icon" viewBox="0 0 1024 1024" version="1.1" xmlns="http://www.w3.org/2000/svg" p-id="26878" xmlns:xlink="http://www.w3.org/1999/xlink" width="32" height="32"><defs><style type="text/css"></style></defs><path d="M882.304 621.888v-264.416a114.432 114.432 0 0 0-55.264-97.632l-254.944-152.96a113.6 113.6 0 0 0-117.184 0L199.968 259.84a114.432 114.432 0 0 0-55.264 97.632v312.192c0 39.744 21.184 77.152 55.264 97.632l254.944 152.96a113.856 113.856 0 0 0 117.12 0.032l257.664-153.312-0.192-0.32a20.8 20.8 0 0 0 10.528-17.856 21.12 21.12 0 0 0-21.152-21.152 20.672 20.672 0 0 0-10.656 3.264l-0.16-0.288-257.728 153.376a71.392 71.392 0 0 1-73.632 0l-254.944-152.96a71.936 71.936 0 0 1-34.752-61.376v-312.192A72 72 0 0 1 221.76 296.096l254.944-152.96a71.392 71.392 0 0 1 73.632 0l254.944 152.96a71.936 71.936 0 0 1 34.752 61.376V621.952a21.152 21.152 0 0 0 42.304 0v-0.064z m-168.192-255.904c0-34.016-24-61.696-53.472-61.696H366.4c-29.472 0-53.44 27.68-53.44 61.696v66.464h401.152v-66.464z m-42.304 24.16h-316.576v-24.16c0-11.648 6.72-19.392 11.168-19.392h294.24c4.448 0 11.2 7.744 11.2 19.392v24.16zM312.928 653.216c0 34.016 23.968 61.696 53.44 61.696h294.24c29.504 0 53.472-27.68 53.472-61.696v-190.016H312.928v190.016z m42.304-147.68h316.576v147.712c0 11.68-6.72 19.392-11.2 19.392h-294.24c-4.448 0-11.168-7.744-11.168-19.392v-147.712z m48.672 99.904v0.512H445.536v-0.288a20.992 20.992 0 0 0 19.616-20.864 20.992 20.992 0 0 0-19.616-20.832v-0.32h-41.632v0.544a20.864 20.864 0 0 0-18.496 20.576c0 10.752 8.128 19.264 18.496 20.64z m88.224 0v0.512H533.76v-0.288a20.992 20.992 0 0 0 19.616-20.864 20.992 20.992 0 0 0-19.616-20.832v-0.32h-41.632v0.544a20.864 20.864 0 0 0-18.496 20.576c0 10.752 8.128 19.264 18.496 20.64z m88.224 0v0.512h41.632v-0.288a20.992 20.992 0 0 0 19.616-20.864 20.992 20.992 0 0 0-19.616-20.832v-0.32h-41.632v0.544a20.864 20.864 0 0 0-18.496 20.576c0 10.752 8.128 19.264 18.496 20.64z" p-id="26879"></path></svg>