<?xml version="1.0" standalone="no"?><!DOCTYPE svg PUBLIC "-//W3C//DTD SVG 1.1//EN" "http://www.w3.org/Graphics/SVG/1.1/DTD/svg11.dtd"><svg t="1597218770069" class="icon" viewBox="0 0 1024 1024" version="1.1" xmlns="http://www.w3.org/2000/svg" p-id="7475" xmlns:xlink="http://www.w3.org/1999/xlink" width="200" height="200"><defs><style type="text/css"></style></defs><path d="M770.204 720.114c0 79.544-64.535 144.079-144.079 144.079L209.896 864.193c-79.543 0-144.079-64.535-144.079-144.079L65.817 303.886c0-79.544 64.536-144.079 144.079-144.079l416.229 0c20.011 0 40.022 4.002 58.532 12.507 4.502 2.001 8.004 6.503 9.005 11.506 1.001 5.503-0.5 10.506-4.503 14.508l-24.513 24.514c-4.503 4.502-10.506 6.003-16.009 4.002-7.505-2.001-15.009-3.001-22.513-3.001L209.896 223.843c-44.024 0-80.044 36.02-80.044 80.044l0 416.229c0 44.024 36.02 80.044 80.044 80.044l416.229 0c44.024 0 80.044-36.02 80.044-80.044L706.169 657.08c0-4.003 1.501-8.005 4.502-11.007l32.018-32.018c5.003-5.002 11.507-6.003 17.51-3.502 6.004 2.502 10.006 8.005 10.006 14.509L770.205 720.114zM866.257 399.938 530.072 736.123 385.993 736.123 385.993 592.044l336.185-336.185L866.257 399.938zM568.093 630.064l-76.041-76.041-58.032 58.031 0 28.016 48.026 0 0 48.026 28.016 0L568.093 630.064zM713.673 328.399 538.577 503.495c-4.503 4.503-5.003 12.007-0.5 16.509 4.502 4.503 12.006 4.003 16.509-0.5l175.096-175.096c4.503-4.503 5.003-12.007 0.501-16.509C725.68 323.396 718.176 323.896 713.673 328.399zM898.274 367.921 754.195 223.842l46.025-46.025c18.51-18.51 49.527-18.51 68.037 0l76.042 76.042c18.51 18.51 18.51 49.527 0 68.037L898.274 367.921z" p-id="7476" fill="#1296db"></path></svg>