<?xml version="1.0" standalone="no"?><!DOCTYPE svg PUBLIC "-//W3C//DTD SVG 1.1//EN" "http://www.w3.org/Graphics/SVG/1.1/DTD/svg11.dtd"><svg t="1595956402022" class="icon" viewBox="0 0 1024 1024" version="1.1" xmlns="http://www.w3.org/2000/svg" p-id="27019" xmlns:xlink="http://www.w3.org/1999/xlink" width="32" height="32"><defs><style type="text/css"></style></defs><path d="M512 1000.877419c-269.212903 0-488.877419-219.664516-488.877419-488.877419S242.787097 23.122581 512 23.122581c75.974194 0 146.993548 16.516129 213.058065 49.548387 6.606452 3.303226 9.909677 13.212903 6.606451 19.819355-3.303226 6.606452-13.212903 9.909677-19.819355 6.606451-61.109677-31.380645-128.825806-46.245161-199.845161-46.245161C259.303226 52.851613 52.851613 259.303226 52.851613 512S259.303226 971.148387 512 971.148387 971.148387 764.696774 971.148387 512c0-56.154839-9.909677-110.658065-29.729032-165.16129-3.303226-8.258065 1.651613-16.516129 8.258064-19.819355 8.258065-3.303226 16.516129 1.651613 19.819355 8.258064 21.470968 57.806452 33.032258 115.612903 33.032258 175.070968-1.651613 270.864516-221.316129 490.529032-490.529032 490.529032z" fill="#00A1FC" p-id="27020"></path><path d="M371.612903 809.290323c-6.606452 0-11.56129-1.651613-16.516129-3.303226-8.258065-4.954839-14.864516-11.56129-18.167742-19.819355-3.303226-8.258065-1.651613-16.516129 1.651613-24.774194l79.27742-175.070967h-42.941936c-13.212903 0-23.122581-8.258065-28.077419-13.212904-8.258065-8.258065-11.56129-21.470968-6.606452-34.683871l1.651613-1.651612 122.219355-254.348388c4.954839-13.212903 18.167742-21.470968 34.683871-21.470967H660.645161c18.167742 0 28.077419 8.258065 33.032258 16.516129 8.258065 11.56129 8.258065 26.425806 0 37.987097L611.096774 429.419355h66.064516c13.212903 0 24.774194 6.606452 33.032258 18.167742l1.651613 4.954838c4.954839 14.864516 0 29.729032-11.56129 37.987097L399.690323 797.729032c-6.606452 6.606452-18.167742 11.56129-28.07742 11.561291z m9.909678-265.909678h99.096774l-92.490323 204.8L660.645161 472.36129h-133.780645l120.567742-168.464516h-148.645161l-117.264516 239.483871z" fill="#00A1FC" p-id="27021"></path></svg>