<?xml version="1.0" standalone="no"?><!DOCTYPE svg PUBLIC "-//W3C//DTD SVG 1.1//EN" "http://www.w3.org/Graphics/SVG/1.1/DTD/svg11.dtd"><svg t="1595956411032" class="icon" viewBox="0 0 1024 1024" version="1.1" xmlns="http://www.w3.org/2000/svg" p-id="27308" xmlns:xlink="http://www.w3.org/1999/xlink" width="32" height="32"><defs><style type="text/css"></style></defs><path d="M982.146616 585.179426c-30.462096 206.995063-190.772077 369.000937-394.311356 401.734892l-2.71983 0.351978v36.701706h-146.358852v-36.701706C232.465471 954.180364 72.15549 792.142491 42.045372 587.707268l-0.31998-2.591838H0v-146.23086h43.453284C78.587088 237.457159 236.529217 81.242922 436.036748 49.180926l2.71983-0.351978V0.031998h146.326854v48.95694c202.131367 32.413974 360.073495 188.500219 394.919318 386.951816l0.415974 2.847822H1023.936004v146.326854h-41.789388zM475.426286 978.594838h73.11543v-73.147428h-73.11543v73.211424zM45.373164 475.490282v73.11543h73.211424v-73.11543H45.373164z m503.136554-430.053122h-73.11543v73.211424h73.11543V45.43716z m33.27792 77.403162v40.125493h-139.67127V122.936316c-164.245735 29.75814-292.269733 156.054247-324.267734 316.908194l-0.415974 2.55984h45.213175v139.703268H115.544778c28.126242 168.885445 158.390101 300.717205 324.139742 330.827324l2.463846 0.383976v-51.772765h139.67127v51.708769c168.117493-30.526092 298.349353-162.325855 326.219612-328.779452l0.31998-2.335854h-47.037061v-139.67127h45.213175c-32.413974-163.445785-160.437973-289.741891-322.219862-319.148054l-2.463846-0.383976v-0.063996z m396.775202 352.64996v73.11543h-73.211424v-73.11543h73.211424zM284.398225 512.031998a227.505781 227.505781 0 1 1 455.011562 0 227.505781 227.505781 0 1 1-455.011562 0z" p-id="27309"></path></svg>