<?xml version="1.0" standalone="no"?><!DOCTYPE svg PUBLIC "-//W3C//DTD SVG 1.1//EN" "http://www.w3.org/Graphics/SVG/1.1/DTD/svg11.dtd"><svg t="1595955349792" class="icon" viewBox="0 0 1024 1024" version="1.1" xmlns="http://www.w3.org/2000/svg" p-id="14744" xmlns:xlink="http://www.w3.org/1999/xlink" width="32" height="32"><defs><style type="text/css"></style></defs><path d="M0 1.041974h1021.93609v1021.93609H0z" fill="#DFADAD" fill-opacity="0" p-id="14745"></path><path d="M529.262705 0.020038l16.431129 0.220418C766.351878 4.849187 943.387277 71.174843 947.755553 175.612704l0.100189 4.007592v664.779446c0 110.669667-192.023795 179.600258-426.848678 179.600258l-8.275678-0.020038c-231.037708-1.603037-418.593038-70.213021-418.593038-179.58022V179.58022c0-109.3672 187.555329-177.977183 418.593038-179.58022h16.531319zM176.374146 733.609847v110.789895c0 5.20987 4.348238 12.824296 15.829991 22.562746 15.168738 12.88441 39.074027 25.588478 69.932489 36.669471 67.107137 24.085631 159.642448 38.132243 258.870438 38.132243 99.207953 0 191.763302-14.026574 258.8504-38.132243 30.858462-11.080993 54.78379-23.785062 69.93249-36.669471 11.481753-9.73845 15.82999-17.352876 15.82999-22.562746v-110.789895C787.792498 777.513023 662.134434 802.42021 520.987026 802.42021l-8.275678-0.040076c-137.78103-0.941784-260.092754-25.728744-336.35724-68.770287z m0-221.599828v110.789895c0 5.20987 4.348238 12.824296 15.829991 22.562746 15.168738 12.88441 39.074027 25.588478 69.932489 36.669471 67.107137 24.085631 159.642448 38.152281 258.870438 38.152281 99.207953 0 191.763302-14.06665 258.8504-38.152281 30.858462-11.080993 54.78379-23.785062 69.93249-36.669471 11.481753-9.73845 15.82999-17.352876 15.82999-22.562746V512.010019C787.792498 555.893157 662.134434 580.820382 520.987026 580.820382l-8.275678-0.040076c-137.78103-0.941784-260.092754-25.728744-336.35724-68.770287z m352.888559-152.809502h-16.531319c-137.78103-0.961822-260.092754-25.748782-336.35724-68.790326v110.789895c0 5.20987 4.348238 12.824296 15.829991 22.562746 15.168738 12.88441 39.074027 25.588478 69.932489 36.669471 67.107137 24.105669 159.642448 38.152281 258.870438 38.152281 99.207953 0 191.763302-14.046612 258.8504-38.152281 30.858462-11.080993 54.78379-23.785062 69.93249-36.669471 11.481753-9.718412 15.82999-17.332838 15.82999-22.562746v-110.769857c-76.304561 43.021506-198.576209 67.808465-336.357239 68.770288zM521.007064 82.195722c-99.227991 0-191.763302 14.06665-258.870438 38.152281-30.858462 11.080993-54.763752 23.785062-69.932489 36.669472-11.481753 9.73845-15.82999 17.352876-15.829991 22.562745 0 5.20987 4.348238 12.824296 15.829991 22.582784 15.168738 12.864372 39.074027 25.56844 69.932489 36.669472 67.107137 24.085631 159.642448 38.132243 258.870438 38.132242 99.207953 0 191.763302-14.046612 258.8504-38.132242 30.858462-11.101031 54.78379-23.8051 69.93249-36.669472 11.481753-9.73845 15.82999-17.352876 15.82999-22.582784 0-5.20987-4.348238-12.824296-15.82999-22.562745-15.1487-12.88441-39.074027-25.588478-69.93249-36.669472-67.087099-24.085631-159.642448-38.152281-258.8504-38.152281z" fill="#00A19A" p-id="14746"></path></svg>