<?xml version="1.0" standalone="no"?><!DOCTYPE svg PUBLIC "-//W3C//DTD SVG 1.1//EN" "http://www.w3.org/Graphics/SVG/1.1/DTD/svg11.dtd"><svg t="1595955358878" class="icon" viewBox="0 0 1024 1024" version="1.1" xmlns="http://www.w3.org/2000/svg" p-id="14886" xmlns:xlink="http://www.w3.org/1999/xlink" width="32" height="32"><defs><style type="text/css"></style></defs><path d="M492 423.8h-26.8V495H491c12.3 0 22.3-3.6 29.8-10.8 7.5-7.2 11.2-16.1 11.2-26.9 0-22.3-13.3-33.5-40-33.5zM716.6 424.6h-23.3v79.8h22.8c30.9 0 46.4-13.5 46.4-40.4 0-26.2-15.3-39.4-45.9-39.4z" p-id="14887"></path><path d="M899.6 288.2c-19.5-33.8-46.8-60.1-78.3-78.3L619 93.1c-31.5-18.2-68-28.7-107-28.7s-75.5 10.5-107 28.7L202.7 209.9c-31.5 18.2-58.8 44.6-78.3 78.3-19.5 33.8-28.7 70.6-28.7 107v233.6c0 36.4 9.2 73.2 28.7 107s46.8 60.1 78.3 78.3L405 930.9c31.5 18.2 68 28.7 107 28.7s75.5-10.5 107-28.7l202.3-116.8c31.5-18.2 58.8-44.6 78.3-78.3 19.5-33.8 28.7-70.6 28.7-107V395.2c0-36.3-9.2-73.2-28.7-107zM372 630.9H225.7V383.8h140.5v43.1h-87.9v58.2H360V528h-81.7v59.8H372v43.1z m183.8 0L517 566.6c-8-13.3-14.5-21.9-19.6-25.7-5.1-3.8-10.5-5.7-16.3-5.7h-16v95.7h-52.6V383.8h86.6c58.8 0 88.2 22.3 88.2 67 0 16.8-4.9 31.2-14.8 43.2-9.8 12-23.4 20.5-40.6 25.4v0.6c11.4 3.8 24 16.4 37.8 37.6l46.6 73.2h-60.5z m234.3-108.1c-18.6 15.3-41.8 22.6-69.6 21.9h-27.1v86.1h-52.6v-247h85c61.5 0 92.2 26.1 92.2 78.2-0.1 25.3-9.4 45.6-27.9 60.8z" p-id="14888"></path></svg>