<?xml version="1.0" standalone="no"?><!DOCTYPE svg PUBLIC "-//W3C//DTD SVG 1.1//EN" "http://www.w3.org/Graphics/SVG/1.1/DTD/svg11.dtd"><svg t="1595955362336" class="icon" viewBox="0 0 1024 1024" version="1.1" xmlns="http://www.w3.org/2000/svg" p-id="15028" xmlns:xlink="http://www.w3.org/1999/xlink" width="32" height="32"><defs><style type="text/css"></style></defs><path d="M764.586667 397.255111l0 106.183111c3.100444 0.170667 5.745778 0.256 7.992889 0.256 9.984 0 16.896-2.446222 20.736-7.338667 3.868444-4.892444 5.802667-15.075556 5.802667-30.549333l0-34.275556c0-14.250667-2.247111-23.552-6.712889-27.847111C787.939556 399.388444 778.666667 397.255111 764.586667 397.255111z" p-id="15029"></path><path d="M512 0C229.233778 0 0 229.233778 0 512c0 282.766222 229.233778 512 512 512s512-229.233778 512-512C1024 229.233778 794.766222 0 512 0zM340.622222 743.111111 152.490667 743.111111 152.490667 325.859556l180.906667 0 0 83.512889L261.006222 409.372444l0 79.132444 67.783111 0 0 79.388444L261.006222 567.893333l0 91.761778 79.616 0L340.622222 743.111111zM597.589333 546.730667c7.367111 8.931556 11.975111 17.152 13.767111 24.604444 1.792 7.480889 2.702222 28.046222 2.702222 61.724444l0 110.051556-100.750222 0L513.308444 604.444444c0-22.328889-1.763556-36.152889-5.290667-41.500444-3.527111-5.319111-12.743111-7.992889-27.704889-7.992889l0 188.131556-108.487111 0L371.825778 325.859556l76.8 0c51.2 0 85.873778 1.962667 103.992889 5.916444 18.119111 3.953778 32.881778 14.051556 44.316444 30.293333s17.152 42.126222 17.152 77.710222c0 32.483556-4.039111 54.300444-12.117333 65.450667s-23.950222 17.863111-47.672889 20.110222C575.772444 530.659556 590.193778 537.799111 597.589333 546.730667zM881.578667 537.201778c-5.489778 12.202667-15.587556 21.560889-30.264889 28.074667-14.705778 6.542222-33.877333 9.784889-57.6 9.784889L764.586667 575.061333l0 168.049778-108.487111 0L656.099556 325.859556l109.283556 0c29.553778 0 52.252444 2.332444 68.152889 6.968889 15.900444 4.636444 27.847111 11.320889 35.811556 20.110222s13.397333 19.370667 16.241778 31.829333 4.238222 31.744 4.238222 57.856l0 36.352C889.827556 505.571556 887.096889 524.999111 881.578667 537.201778z" p-id="15030"></path><path d="M480.312889 397.255111l0 92.785778c12.202667 0 20.736-1.678222 25.628444-5.034667 4.892444-3.356444 7.338667-14.222222 7.338667-32.597333l0-22.954667c0-13.226667-2.360889-21.902222-7.082667-26.026667C501.475556 399.303111 492.856889 397.255111 480.312889 397.255111z" p-id="15031"></path></svg>