<?xml version="1.0" standalone="no"?><!DOCTYPE svg PUBLIC "-//W3C//DTD SVG 1.1//EN" "http://www.w3.org/Graphics/SVG/1.1/DTD/svg11.dtd"><svg t="1595955656341" class="icon" viewBox="0 0 1315 1024" version="1.1" xmlns="http://www.w3.org/2000/svg" p-id="16675" xmlns:xlink="http://www.w3.org/1999/xlink" width="41.09375" height="32"><defs><style type="text/css"></style></defs><path d="M133.719149 871.489362A133.719149 133.719149 0 0 1 0 738.042553V133.719149A133.719149 133.719149 0 0 1 133.719149 0H1181.957447a133.719149 133.719149 0 0 1 133.446808 133.719149V738.042553a133.719149 133.719149 0 0 1-133.446808 133.446809z m0-828.187234A90.144681 90.144681 0 0 0 43.574468 133.719149V738.042553a90.144681 90.144681 0 0 0 90.144681 90.144681H1181.957447a90.144681 90.144681 0 0 0 89.87234-90.144681V133.719149a90.144681 90.144681 0 0 0-89.87234-90.144681zM395.438298 1024a19.880851 19.880851 0 0 1 0-39.761702h524.527659a19.880851 19.880851 0 0 1 0 39.761702z" p-id="16676"></path><path d="M866.314894 304.748936a16.885106 16.885106 0 0 1 16.885106-16.885106h73.259574c71.080851 0 118.468085 23.693617 118.468086 92.595744s-47.387234 97.770213-116.289362 97.770213h-52.289362v105.395745a20.153191 20.153191 0 0 1-20.153191 20.153191 20.153191 20.153191 0 0 1-20.153192-20.153191zM953.191489 446.093617c54.468085 0 81.702128-20.153191 81.702128-65.634043s-27.234043-60.459574-83.608511-60.459574h-44.93617v125.821277zM344.238298 287.86383h129.361702a16.612766 16.612766 0 0 1 16.612766 16.612766 16.612766 16.612766 0 0 1-16.612766 16.612766h-129.361702v-33.225532zM344.238298 569.73617h129.361702a16.612766 16.612766 0 0 1 16.612766 16.612766 16.612766 16.612766 0 0 1-16.612766 16.612766h-129.361702v-33.225532zM344.238298 420.493617h103.217021a16.612766 16.612766 0 0 1 16.612766 16.612766 16.612766 16.612766 0 0 1-16.612766 16.612766h-103.217021v-33.225532z" p-id="16677"></path><path d="M344.782979 287.86383h-23.148936a16.612766 16.612766 0 0 0-16.612766 16.612766v282.689361a16.612766 16.612766 0 0 0 16.612766 16.612766h23.148936zM716.8 471.421277a5.446809 5.446809 0 0 1 3.268085-7.897873 84.697872 84.697872 0 0 0 64.817021-86.876595c0-65.906383-46.025532-88.782979-110.297872-88.782979h-76.8a22.331915 22.331915 0 0 0-22.331915 22.331915v272.340425a20.153191 20.153191 0 0 0 40.034043 0v-108.93617a5.446809 5.446809 0 0 1 5.446808-5.446809h48.204256a5.446809 5.446809 0 0 1 4.629787 2.723405l20.425532 35.676595 1.361702 2.451064 11.165957 19.608511 37.582979 65.089362a19.06383 19.06383 0 1 0 32.953191-19.06383z m-48.476596-34.042554H620.93617a5.446809 5.446809 0 0 1-5.446808-5.446808V326.808511a5.446809 5.446809 0 0 1 5.446808-5.446809h47.659575c49.565957 0 76.8 14.706383 76.8 56.374468s-27.234043 59.642553-76.8 59.642553z" p-id="16678"></path></svg>