<?xml version="1.0" standalone="no"?><!DOCTYPE svg PUBLIC "-//W3C//DTD SVG 1.1//EN" "http://www.w3.org/Graphics/SVG/1.1/DTD/svg11.dtd"><svg t="1692777454749" class="icon" viewBox="0 0 1024 1024" version="1.1" xmlns="http://www.w3.org/2000/svg" p-id="50518" xmlns:xlink="http://www.w3.org/1999/xlink" width="200" height="200"><path d="M502.6816 944.5888c-238.8992 0-433.3056-194.3552-433.3056-433.3056s194.3552-433.3056 433.3056-433.3056 433.3056 194.3552 433.3056 433.3056-194.4064 433.3056-433.3056 433.3056z m0-805.12c-205.056 0-371.8656 166.8096-371.8656 371.8656s166.8096 371.8656 371.8656 371.8656 371.8656-166.8096 371.8656-371.8656-166.8096-371.8656-371.8656-371.8656z" fill="#FF6C39" p-id="50519"></path><path d="M675.2768 460.3392H330.0864c-11.8784 0-22.7328-6.8608-27.8016-17.6128-5.0688-10.752-3.4816-23.4496 4.0448-32.6656l90.88-110.3872a30.7712 30.7712 0 0 1 43.264-4.1984 30.7712 30.7712 0 0 1 4.1984 43.264L395.1616 398.848h280.1152c16.9472 0 30.72 13.7728 30.72 30.72s-13.7728 30.7712-30.72 30.7712zM584.3456 749.312c-6.8608 0-13.7728-2.304-19.5072-7.0144a30.7712 30.7712 0 0 1-4.1984-43.264l49.5104-60.16h-280.064c-16.9472 0-30.72-13.7728-30.72-30.72s13.7728-30.72 30.72-30.72h345.1904c11.8784 0 22.7328 6.8608 27.8016 17.6128 5.0688 10.752 3.4816 23.4496-4.0448 32.6656l-90.88 110.3872a30.78656 30.78656 0 0 1-23.808 11.2128z" fill="#FF6C39" p-id="50520"></path></svg>