<?xml version="1.0" standalone="no"?><!DOCTYPE svg PUBLIC "-//W3C//DTD SVG 1.1//EN" "http://www.w3.org/Graphics/SVG/1.1/DTD/svg11.dtd"><svg t="1597219414032" class="icon" viewBox="0 0 6894 1024" version="1.1" xmlns="http://www.w3.org/2000/svg" p-id="17584" xmlns:xlink="http://www.w3.org/1999/xlink" width="1346.484375" height="200"><defs><style type="text/css"></style></defs><path d="M29.252267 682.461867c0-78.779733 35.157333-148.821333 99.157333-197.358934 64.477867-48.913067 154.3168-73.693867 267.025067-73.693866h721.7152v173.431466H395.434667c-45.2608 0-192.750933 7.031467-192.750934 97.621334v162.577066h914.432v173.3632H29.2864v-335.940266zM26.4192 209.6128v-173.397333H1117.184v173.397333H26.4192zM2883.584 682.461867c0-78.779733 35.259733-148.821333 99.157333-197.358934 64.477867-48.913067 154.282667-73.693867 267.025067-73.693866h721.681067v173.431466H3249.834667c-45.2608 0-192.750933 7.031467-192.750934 97.621334v162.577066h914.432v173.3632H2883.618133v-335.940266z m-2.8672-472.849067v-173.397333h1090.7648v173.397333H2880.750933zM2094.3872 800.9728l363.4176-764.245333h192.068267L2251.025067 875.4176a251.733333 251.733333 0 0 1-226.304 142.9504H1973.248a251.972267 251.972267 0 0 1-226.372267-142.9504L1347.9936 36.693333h192.068267l363.52 764.279467a77.346133 77.346133 0 0 0 69.632 44.032h51.541333c29.559467 0 56.968533-17.237333 69.632-44.032zM6653.610667 36.113067h218.2144l-355.805867 465.92a239.2064 239.2064 0 0 1-148.821333 89.941333v426.427733h-173.431467V591.9744a239.479467 239.479467 0 0 1-148.753067-89.9072l-355.805866-465.92h218.2144l275.456 360.686933c12.049067 15.7696 31.061333 25.1904 50.858666 25.1904h93.5936c19.797333 0 38.8096-9.4208 50.926934-25.1904l275.387733-360.721066z m-1358.097067 804.522666h161.8944v173.397334h-161.8944c-86.596267 0-169.506133-32.085333-233.506133-90.385067l-370.005334-336.9984h-263.7824v431.8208h-173.431466V413.218133h808.482133c45.1584 0 192.750933-6.997333 192.750933-97.518933v-17.408c0-90.487467-147.592533-97.518933-192.750933-97.518933H4249.258667V27.374933h813.943466c112.708267 0 202.5472 24.746667 267.025067 73.659734 63.8976 48.469333 99.157333 118.4768 99.157333 197.290666v17.373867c0 78.779733-35.259733 148.821333-99.157333 197.358933-64.512 48.913067-154.3168 73.591467-267.025067 73.591467h-113.664l229.137067 208.7936a173.192533 173.192533 0 0 0 116.736 45.192533z" p-id="17585" fill="#1296db"></path></svg>