<?xml version="1.0" standalone="no"?><!DOCTYPE svg PUBLIC "-//W3C//DTD SVG 1.1//EN" "http://www.w3.org/Graphics/SVG/1.1/DTD/svg11.dtd"><svg t="1595955944061" class="icon" viewBox="0 0 1024 1024" version="1.1" xmlns="http://www.w3.org/2000/svg" p-id="22022" xmlns:xlink="http://www.w3.org/1999/xlink" width="32" height="32"><defs><style type="text/css"></style></defs><path d="M516.101274 553.33093h146.14474v73.480596H516.101274zM516.101274 413.717798h146.14474v73.480596H516.101274z" fill="#006837" p-id="22023"></path><path d="M936.029271 147.282601v729.635101h-364.681475V147.282601h364.681475m0-54.430071h-364.681475a54.430071 54.430071 0 0 0-54.430071 54.430071v729.635101a54.430071 54.430071 0 0 0 54.430071 54.430071h364.681475a54.430071 54.430071 0 0 0 54.430071-54.430071V147.282601a54.430071 54.430071 0 0 0-54.430071-54.430071z" fill="#006837" p-id="22024"></path><path d="M790.428831 288.256485v457.484746h-283.036369V288.256485h283.036369m0-54.430071h-283.036369a54.430071 54.430071 0 0 0-54.430071 54.430071v457.484746a54.430071 54.430071 0 0 0 54.430071 54.430071h283.036369a54.430071 54.430071 0 0 0 54.430071-54.430071V288.256485a54.430071 54.430071 0 0 0-54.430071-54.430071z" fill="#006837" p-id="22025"></path><path d="M516.645574 1.137861L62.426633 107.004349A45.72126 45.72126 0 0 0 31.673643 152.725608V872.018995a45.449109 45.449109 0 0 0 30.75299 45.72126l454.218941 105.050037A40.822553 40.822553 0 0 0 567.26554 980.879137V43.593316A41.094704 41.094704 0 0 0 516.645574 1.137861z m-190.505248 726.369296a47.898462 47.898462 0 0 1-34.563095 13.607518A57.968026 57.968026 0 0 1 249.393926 728.051458a44.904809 44.904809 0 0 1-15.24042-33.474494 42.727606 42.727606 0 0 1 15.512571-33.746644 54.430071 54.430071 0 0 1 37.556749-13.335367 52.797169 52.797169 0 0 1 36.468147 13.335367 42.455455 42.455455 0 0 1 15.24042 33.746644 44.632658 44.632658 0 0 1-13.063217 33.746644zM406.15253 463.793463a197.309007 197.309007 0 0 1-49.531364 54.430071 150.771296 150.771296 0 0 0-35.923847 37.556749 66.948987 66.948987 0 0 0-6.803759 28.847938 61.50598 61.50598 0 0 0 7.34806 28.847937H246.672423a107.22724 107.22724 0 0 1-6.531609-37.012448A108.860142 108.860142 0 0 1 284.229172 491.008499a180.979986 180.979986 0 0 0 36.740298-38.3732 61.50598 61.50598 0 0 0 10.069563-32.930193 41.366854 41.366854 0 0 0-13.879668-32.113742 50.347816 50.347816 0 0 0-35.379547-12.518916 139.885282 139.885282 0 0 0-94.980473 39.189651V327.718286a198.941909 198.941909 0 0 1 104.777886-27.215035A146.416891 146.416891 0 0 1 385.469104 327.718286a94.436173 94.436173 0 0 1 34.290944 78.379302 111.853796 111.853796 0 0 1-13.607518 57.695875z" fill="#006837" p-id="22026"></path></svg>