<?xml version="1.0" standalone="no"?><!DOCTYPE svg PUBLIC "-//W3C//DTD SVG 1.1//EN" "http://www.w3.org/Graphics/SVG/1.1/DTD/svg11.dtd"><svg t="1597222409618" class="icon" viewBox="0 0 1024 1024" version="1.1" xmlns="http://www.w3.org/2000/svg" p-id="8673" xmlns:xlink="http://www.w3.org/1999/xlink" width="200" height="200"><defs><style type="text/css"></style></defs><path d="M837.845333 820.608c-15.018667 0-26.368 0.192-37.717333-0.042667-13.290667-0.277333-26.56-1.109333-39.850667-1.386666-5.568-0.106667-10.645333-1.770667-15.936-3.114667-26.368-6.656-49.365333-20.437333-72.597333-33.728-3.029333-1.728-5.994667-3.626667-9.045333-5.312-13.546667-7.530667-25.301333-17.216-35.392-29.013333-2.261333-2.645333-5.034667-5.013333-6.698667-7.978667-1.856-3.306667-5.546667-5.248-6.336-9.216-0.128-0.618667-0.661333-1.216-1.152-1.664-5.738667-5.013333-8.042667-12.288-11.925333-18.496a105.877333 105.877333 0 0 1-8.917334-17.877333c-2.005333-5.184-4.437333-10.218667-6.314666-15.488-6.656-18.581333-8.512-38.165333-12.8-57.216-4.309333-19.136-7.552-38.506667-11.050667-57.813334-3.776-20.906667-6.826667-41.92-9.322667-63.04-3.178667-27.008-0.981333-53.653333 4.437334-80.149333 3.242667-15.872 6.784-31.701333 10.56-47.466667 3.434667-14.250667 4.309333-28.842667 6.101333-43.306666 1.898667-15.317333 3.498667-30.698667 7.872-45.589334 0.618667-2.133333 1.386667-4.202667 2.048-6.314666 0.341333-1.045333 0.896-2.154667 0.810667-3.2-0.405333-4.757333 0.981333-9.28 1.642666-13.888 0.597333-4.074667-0.789333-5.76-4.864-5.994667-4.224-0.256-7.936 0.576-11.882666 2.794667-5.781333 3.242667-11.669333 6.506667-18.069334 8.597333-13.056 4.266667-24.768 11.434667-36.885333 17.642667-8.042667 4.117333-16.064 8.277333-24.128 12.373333-4.330667 2.197333-8.490667 4.757333-12.906667 6.762667-9.024 4.074667-18.432 7.146667-27.989333 9.728-8.554667 2.304-17.216 4.309333-25.792 6.592-12.309333 3.306667-24 0.704-35.52-3.605334-2.304-0.874667-4.608-1.834667-5.717333-4.373333-0.213333-0.490667-0.853333-0.810667-1.344-1.152-2.986667-1.941333-4.053333-4.352-3.370667-7.786667 0.128-0.64 0.362667-1.536 0.832-1.792 2.730667-1.429333 4.629333-4.096 7.957333-4.693333 12.181333-2.197333 24.192-5.141333 36.266667-7.850667 14.208-3.2 27.136-9.685333 40.064-16.042666 19.754667-9.728 39.381333-19.669333 58.005333-31.488 13.930667-8.832 29.290667-14.592 44.608-20.394667 5.973333-2.261333 12.010667-4.437333 18.005334-6.677333 5.632-2.090667 11.328-2.154667 17.109333-0.725334 10.176 2.538667 19.562667 7.082667 29.034667 11.370667 5.12 2.325333 10.197333 4.8 15.466666 6.784 4.416 1.664 7.872 4.736 11.477334 7.573333 1.365333 1.066667 1.216 2.474667-0.234667 3.072-3.818667 1.557333-5.909333 4.842667-8.170667 7.893334-5.632 7.616-11.264 15.232-16.128 23.36-5.034667 8.448-11.136 16.149333-16.746666 24.192-10.432 14.997333-16.576 31.573333-19.861334 49.472-6.186667 33.664-9.877333 67.690667-15.061333 101.504-1.429333 9.301333-1.365333 18.709333-1.088 28.096 0.576 19.626667 0.405333 39.253333 1.237333 58.858666 1.28 30.442667 6.72 59.989333 18.474667 88.234667 0.426667 1.002667 0.746667 2.112 0.832 3.2 1.173333 16.234667 5.845333 31.573333 13.013333 46.037333 8.597333 17.365333 18.368 34.112 29.909334 49.728 13.674667 18.496 31.424 32.170667 51.84 42.389334 12.885333 6.442667 26.944 9.066667 41.109333 11.072 19.285333 2.730667 38.72 3.690667 58.133333 4.928 12.266667 0.789333 24.512 1.130667 36.8 1.045333 5.141333-0.042667 10.261333-0.277333 15.061334-2.88 3.861333-2.090667 8.341333-1.514667 12.565333-1.6 6.656-0.128 13.290667-0.426667 19.882667-1.28 3.754667-0.490667 5.312-2.112 5.312-5.824 0-7.424 0.597333-14.826667-0.256-22.250667-0.298667-2.645333-0.746667-5.162667-2.517334-7.338666-1.429333-1.770667-1.984-3.968-1.898666-6.250667 0.085333-2.304-0.277333-4.608-0.298667-6.890667-0.021333-3.861333-0.597333-7.36-3.242667-10.453333-1.301333-1.536-1.408-3.818667-1.258666-5.888 0.298667-4.352 0.085333-8.682667-0.512-13.013333-0.149333-1.045333-0.341333-2.069333-1.024-2.837334-3.114667-3.392-3.477333-7.509333-2.986667-11.754666 0.426667-3.584-0.533333-6.933333-1.173333-10.346667-0.085333-0.405333-0.170667-0.917333-0.469334-1.173333-3.2-2.816-3.072-6.485333-3.136-10.346667-0.085333-6.272-0.554667-12.458667-3.264-18.410667-1.6-3.541333-2.133333-7.701333-1.514666-11.776 0.341333-2.176-0.064-4.309333-1.578667-5.994666-1.962667-2.176-2.517333-4.8-2.56-7.573334-0.042667-2.986667 0.085333-5.973333-0.341333-8.938666-0.192-1.386667-0.149333-2.837333 1.365333-3.541334 1.514667-0.704 2.965333 0.106667 3.477333 1.344 1.813333 4.394667 6.570667 6.997333 7.146667 12.117334 0.170667 1.429333 2.048 1.962667 2.389333 3.221333 1.152 4.309333 3.818667 7.829333 5.696 11.733333 1.173333 2.432 1.685333 5.098667 3.669334 7.210667 1.237333 1.322667 1.856 3.264 1.813333 5.226667-0.042667 1.728 0.533333 3.157333 1.834667 4.309333 1.642667 1.493333 2.389333 3.2 1.557333 5.482667-0.618667 1.685333 0.021333 3.584 1.365333 4.352 3.434667 1.941333 3.690667 5.376 4.458667 8.512 0.405333 1.642667 0.938667 3.008 2.112 4.245333 1.621333 1.728 2.624 3.754667 2.474667 6.229333-0.106667 1.6 0.384 3.157333 1.344 4.330667 1.536 1.856 2.176 3.968 2.688 6.229333 0.533333 2.410667 1.301333 4.714667 2.624 6.869334 1.258667 2.026667 2.090667 4.266667 2.581333 6.634666 0.512 2.496 0.96 5.034667 2.837333 6.997334 0.170667 0.170667 0.298667 0.448 0.341334 0.682666 0.853333 6.954667 5.482667 12.693333 6.314666 19.669334 0.234667 2.005333 1.002667 3.904 2.474667 5.504 1.770667 1.92 2.026667 4.437333 2.368 6.890666 0.149333 1.173333 0.042667 2.517333 0.874667 3.413334 2.581333 2.816 2.837333 6.421333 3.861333 9.834666 1.322667 4.522667 3.242667 8.896 6.592 12.373334 1.536 1.6 2.282667 3.605333 2.410667 5.504 0.298667 4.501333 0.256 9.045333-0.042667 13.546666-0.298667 4.458667-3.818667 7.317333-6.378667 10.453334-3.776 4.586667-8.106667 8.874667-13.12 12.032-3.413333 2.176-7.146667 4.053333-10.773333 5.973333-0.490667 0.256-1.173333 0.149333-1.770667 0.234667-2.688 0.405333-5.333333 0.768-7.488 2.816-1.28 1.216-3.050667 1.749333-4.928 1.834666-17.834667 0.832-35.626667 1.685333-49.792 1.130667z" p-id="8674" fill="#1296db"></path><path d="M363.669333 447.637333c-0.021333-6.229333-1.152-14.208-0.832-22.250666 0.021333-0.746667 0.042667-1.6-0.533333-2.197334-2.346667-2.474667-2.432-5.973333-3.861333-8.661333-2.517333-4.757333-3.733333-9.92-6.016-14.698667-0.469333-1.002667-0.917333-2.005333-1.301334-3.050666-3.2-9.173333-5.546667-18.602667-8.149333-27.946667-2.837333-10.197333-5.845333-20.330667-9.792-30.165333-3.413333-8.490667-8.192-16.106667-14.208-22.954667-3.221333-3.669333-2.304-6.805333 1.536-9.706667 2.581333-1.941333 6.165333-2.88 7.530667-6.314666 0.064-0.149333 0.192-0.341333 0.32-0.384 2.858667-0.853333 4.309333-3.285333 6.144-5.354667 0.810667-0.917333 1.962667-1.450667 2.773333 0.341333 4.224 9.557333 9.792 18.346667 15.552 27.029334 6.549333 9.877333 13.269333 19.648 18.88 30.122666 6.656 12.416 11.008 25.685333 15.104 39.082667 5.141333 16.789333 11.136 33.365333 14.954667 50.538667 3.413333 15.338667 5.717333 30.869333 8.362666 46.336 0.704 4.202667 1.408 8.405333 2.154667 12.608 0.533333 3.093333 1.728 3.968 4.714667 3.306666 3.306667-0.725333 6.997333-0.064 9.92-2.090666 2.56-1.792 4.864-2.090667 7.765333-0.917334 1.493333 0.618667 3.370667 0.384 5.056 0.362667 20.864-0.384 41.109333 3.029333 60.842667 9.770667 9.728 3.328 18.432 8.064 24.576 16.64 2.56 3.562667 4.736 7.317333 5.888 11.562666 1.984 7.338667-1.6 15.168-8.405334 18.538667-0.618667 0.298667-1.322667 0.682667-1.962666 0.405333-4.096-1.728-8.576-1.28-12.8-2.346666-9.365333-2.389333-18.389333-5.802667-27.477334-8.96-10.325333-3.605333-20.714667-6.933333-31.296-9.642667-9.685333-2.474667-18.901333-6.378667-28.437333-9.301333-1.450667-0.448-2.986667-0.661333-4.48-0.981334-1.493333-0.32-3.136-0.448-4.352-1.386666-2.474667-1.92-5.44-1.792-8.256-2.197334-2.901333-0.405333-3.776 0.853333-5.162667 3.456-4.266667 7.978667-6.016 16.981333-10.432 24.896-1.962667 3.498667-2.773333 7.509333-3.989333 11.328-1.792 5.717333-4.288 11.136-6.72 16.597334-10.986667 24.533333-20.522667 49.685333-32.042667 73.984-5.333333 11.264-10.688 22.506667-16.96 33.28-6.698667 11.52-12.16 23.68-18.88 35.178666-4.757333 8.106667-10.624 15.381333-17.088 22.208-2.261333 2.389333-4.352 4.992-5.546666 8.149334-0.170667 0.469333-0.384 1.024-0.768 1.301333-4.864 3.882667-7.829333 9.472-12.650667 13.525333-4.906667 4.117333-8.768 9.472-13.632 13.781334-3.861333 3.434667-7.36 7.424-11.626667 10.218666-4.138667 2.709333-7.850667 5.888-11.797333 8.810667-3.52 2.602667-5.952 1.706667-8.128-2.154667-1.408-2.517333-2.986667-5.098667-5.290667-7.018666-0.981333-0.832-1.898667-1.685333-2.56-2.816-1.6-2.709333-1.514667-4.693333 0.981334-6.485334 4.352-3.136 7.317333-7.509333 10.773333-11.456 1.749333-1.984 3.498667-3.946667 5.504-5.696 4.501333-3.946667 7.744-8.789333 11.050667-13.781333 2.922667-4.394667 6.186667-8.853333 10.24-12.501333 1.024-0.938667 1.962667-1.941333 2.453333-3.221334 0.832-2.133333 1.749333-4.074667 4.437333-4.352 0.64-0.064 1.066667-0.768 1.301334-1.450666 1.749333-4.885333 4.181333-9.344 7.146666-13.632 1.728-2.496 4.117333-4.842667 5.098667-7.509334 1.642667-4.458667 4.842667-7.872 6.997333-11.925333 1.941333-3.648 3.946667-7.36 6.08-10.965333 0.789333-1.365333 1.045333-2.922667 1.813334-4.16 2.410667-3.861333 4.224-7.978667 6.250666-12.010667 1.152-2.304 2.794667-4.224 3.114667-7.018667 0.405333-3.648 3.349333-6.208 4.778667-9.514666 3.221333-7.509333 7.125333-14.741333 10.432-22.208 10.090667-22.826667 17.941333-46.464 24.362666-70.570667 3.904-14.677333 9.365333-28.906667 12.864-43.690667 5.077333-21.674667 8.213333-43.605333 7.68-67.712z" p-id="8675" fill="#1296db"></path></svg>