<?xml version="1.0" standalone="no"?><!DOCTYPE svg PUBLIC "-//W3C//DTD SVG 1.1//EN" "http://www.w3.org/Graphics/SVG/1.1/DTD/svg11.dtd"><svg t="1597224003164" class="icon" viewBox="0 0 1024 1024" version="1.1" xmlns="http://www.w3.org/2000/svg" p-id="29278" xmlns:xlink="http://www.w3.org/1999/xlink" width="200" height="200"><defs><style type="text/css"></style></defs><path d="M933.308465 633.006981c0 73.950246-17.140379 127.720893-51.421136 161.330362-26.89351 27.565822-62.869886 41.34771-107.895359 41.34771-17.492396 0-32.777521-1.518586-45.889143-4.541433-13.110599-3.038196-22.353101-4.541433-27.725458-4.541433-28.9084 0-54.618968-11.272741-77.131705-33.769105-22.529109-22.512736-33.785477-54.283324-33.785477-95.29539 0-20.833491 7.898901-62.006216 23.695678-123.516128 15.797801-61.494563 32.089859-124.187417 48.910966-188.048887 16.804734-63.860447 25.215288-107.207697 25.215288-130.071428 0-12.087293-18.658965-21.170159-55.962569-27.213805-37.318954-6.043646-95.29539-9.081843-173.945681-9.081843L327.303464 219.605603c-5.372358 7.387247-16.46909 51.597145-33.273824 132.597971s-29.244045 145.372925-37.302581 193.084577c-4.716418 26.89351-11.112082 56.969503-19.170618 90.243327-8.058536 33.289174-14.102183 56.985876-18.131963 71.088058-11.44875 32.93818-21.185508 57.481156-29.244045 73.614601-21.521153 40.995693-43.3626 61.494563-65.539692 61.494563-6.060019-2.686179-10.42442-5.036713-13.110599-7.051603-9.417487-8.074909-14.118556-17.828041-14.118556-29.244045 9.402137-24.191982 19.986193-52.763714 31.754215-85.701894s23.024389-71.583338 33.785477-115.952872l41.34771-200.664206c8.058536-43.010583 14.934131-79.993892 20.658506-110.917182 5.708002-30.92329 10.409071-60.823274 14.118556-89.731674 3.693112-28.9084 20.338211-47.728024 49.9179-56.474222 17.45965-5.372358 45.025473-8.058536 82.680071-8.058536l14.118556 0c14.774495 0 24.191982-1.006933 28.237111-3.021823l236.94348 8.058536c46.384423 12.103666 76.636425 22.864754 90.75498 32.265868 22.848381 15.461133 34.280758 41.683355 34.280758 78.650291 0 23.536043-7.066953 59.496046-21.170159 107.895359-2.01489 8.058536-4.204765 22.848381-6.5553 44.354184-2.365884 21.521153-11.94403 61.84658-28.732391 121.005958-10.761088 30.250978-17.492396 51.100842-20.178575 62.517869-12.774955 43.698245-19.155269 76.972069-19.155269 99.82045 0 22.864754 6.379291 39.157835 19.155269 48.910966 12.759605 9.753131 39.317471 14.613836 79.658248 14.613836 40.995693 0 62.853513-33.273824 65.539692-99.82045s15.797801-99.835799 39.333844-99.835799c20.162202 0 33.945113 8.746198 41.332361 26.222221C930.605913 591.003332 933.308465 608.814999 933.308465 633.006981z" p-id="29279" fill="#1afa29"></path><path d="M338.90264 471.709365c36.760229 30.181393 70.298066 64.09683 100.066043 101.19168 7.371898 9.187243 23.508413 14.386662 34.732036 14.386662 12.047384 0 26.438139-5.350868 34.732036-14.386662 8.592702-9.361205 14.971993-21.650089 14.386662-34.732036-0.585331-4.352121-1.169639-8.705266-1.75497-13.057387-2.334161-8.320503-6.544043-15.546068-12.631692-21.674649-29.767977-37.09485-63.306838-71.010287-100.067067-101.19168-10.356882-8.503675-20.844747-14.386662-34.732036-14.386662-12.047384 0-26.438139 5.350868-34.732036 14.386662-8.592702 9.361205-14.971993 21.650089-14.386662 34.732036C325.066517 449.248817 328.999083 463.578174 338.90264 471.709365L338.90264 471.709365z" p-id="29280" fill="#1afa29"></path></svg>