<?xml version="1.0" standalone="no"?><!DOCTYPE svg PUBLIC "-//W3C//DTD SVG 1.1//EN" "http://www.w3.org/Graphics/SVG/1.1/DTD/svg11.dtd"><svg t="1595953220695" class="icon" viewBox="0 0 1024 1024" version="1.1" xmlns="http://www.w3.org/2000/svg" p-id="5844" xmlns:xlink="http://www.w3.org/1999/xlink" width="200" height="200"><defs><style type="text/css"></style></defs><path d="M512 42.666667a469.333333 469.333333 0 1 0 469.333333 469.333333A469.333333 469.333333 0 0 0 512 42.666667z m251.306667 242.56L640 658.56a25.6 25.6 0 0 1-48.64-16l101.973333-310.186667-385.066666 219.093334 154.666666 42.666666a25.6 25.6 0 0 1 14.08 10.24l116.48 170.666667a25.6 25.6 0 1 1-42.666666 29.013333l-111.146667-161.92L234.666667 584.106667a25.6 25.6 0 0 1-5.76-46.933334L725.333333 256a25.6 25.6 0 0 1 36.906667 30.293333z" p-id="5845" fill="#2c2c2c"></path></svg>