<?xml version="1.0" standalone="no"?><!DOCTYPE svg PUBLIC "-//W3C//DTD SVG 1.1//EN" "http://www.w3.org/Graphics/SVG/1.1/DTD/svg11.dtd"><svg t="1597219760172" class="icon" viewBox="0 0 1024 1024" version="1.1" xmlns="http://www.w3.org/2000/svg" p-id="5867" xmlns:xlink="http://www.w3.org/1999/xlink" width="200" height="200"><defs><style type="text/css"></style></defs><path d="M937.472 417.28c-22.528-2.56-42.496 13.312-45.056 35.84-21.504 192-91.136 331.776-206.848 415.232-75.776 54.784-147.968 66.56-164.864 68.608-23.04-2.56-140.288-21.504-238.592-137.216C174.08 672.256 128 476.672 145.92 217.6 337.92 200.192 459.776 131.584 510.464 96.768c46.592 31.744 153.6 92.16 316.416 115.2 0 0 40.448 7.168 71.168 7.68 33.792 1.024 45.056-12.288 45.056-12.288 3.072-3.072 4.608-6.656 6.144-9.728l1.536-3.072v-0.512c0.512-1.024 0.512-2.048 1.024-3.584v-0.512c1.024-4.096 1.536-8.192 1.024-12.288v-1.536c0-1.024 0-1.536-0.512-2.56 0-0.512 0-1.024-0.512-1.536 0-0.512-0.512-1.536-0.512-2.048 0-0.512-0.512-1.024-0.512-1.536 0-0.512-0.512-1.536-0.512-2.048 0-0.512-0.512-1.024-0.512-1.536-0.512-0.512-0.512-1.536-1.024-2.048 0-0.512-0.512-1.024-0.512-1.024-0.512-1.024-1.024-1.536-1.024-2.56 0-0.512-0.512-0.512-0.512-1.024-0.512-1.024-1.024-1.536-1.536-2.048l-1.024-1.024c-0.512-0.512-1.024-1.536-1.536-2.048l-1.536-1.536-1.536-1.536c-1.024-1.024-2.048-1.536-3.072-2.56-0.512-0.512-1.024-0.512-1.536-1.024-0.512-0.512-1.024-1.024-2.048-1.024-0.512-0.512-1.024-0.512-2.048-1.024-0.512-0.512-1.024-0.512-1.536-1.024-0.512-0.512-1.536-0.512-2.048-1.024-0.512 0-1.024-0.512-1.536-0.512-0.512-0.512-1.536-0.512-2.048-0.512-0.512 0-1.024-0.512-1.536-0.512-1.024 0-2.048-0.512-3.072-0.512h-1.024c-1.536 0-2.56-0.512-4.096-0.512-243.712-13.312-376.32-122.88-377.856-123.904-15.36-13.312-38.4-12.8-53.248 0.512-1.024 1.024-128 110.592-377.344 123.392h-3.584c-0.512 0-1.536 0-2.048 0.512-0.512 0-1.024 0-1.536 0.512-1.024 0-1.536 0.512-2.56 0.512-0.512 0-1.024 0.512-1.536 0.512-1.024 0.512-1.536 0.512-2.56 1.024-0.512 0-1.024 0.512-1.024 0.512-1.024 0.512-1.536 1.024-2.56 1.024-0.512 0-0.512 0.512-1.024 0.512-1.024 0.512-1.536 1.024-2.56 1.536-0.512 0-0.512 0.512-1.024 0.512-0.512 0.512-1.536 1.024-2.048 1.536l-1.024 1.024-1.536 1.536-1.024 1.024-1.536 1.536c-0.512 0.512-0.512 1.024-1.024 1.536-0.512 0.512-1.024 1.024-1.024 1.536-0.512 0.512-0.512 1.024-1.024 1.536-0.512 0.512-0.512 1.024-1.024 1.536-0.512 0.512-0.512 1.024-1.024 1.536-0.512 0.512-0.512 1.024-1.024 1.536-0.512 0.512-0.512 1.024-0.512 2.048 0 0.512-0.512 1.536-0.512 2.048 0 0.512-0.512 1.024-0.512 1.536 0 0.512-0.512 1.536-0.512 2.048 0 0.512 0 1.024-0.512 1.536 0 1.024 0 1.536-0.512 2.56v1.024C40.96 476.16 93.184 704.512 221.696 854.528c116.224 135.68 257.024 159.744 290.304 163.84 2.56 0.512 5.12 1.024 8.192 1.024h2.048c2.56 0 5.632-0.512 8.192-1.024 24.576-3.072 109.568-17.408 199.168-80.384 94.72-67.072 214.016-203.264 244.736-475.136 1.536-22.528-14.336-43.008-36.864-45.568z" p-id="5868" fill="#d81e06"></path><path d="M517.12 661.504c-25.088 0-45.568 20.48-45.568 45.568s20.48 45.568 45.568 45.568 45.568-20.48 45.568-45.568c0-25.6-20.48-45.568-45.568-45.568zM562.688 317.44c0-25.088-20.48-45.568-45.568-45.568s-45.568 20.48-45.568 45.568v245.248c0 25.088 20.48 45.568 45.568 45.568s45.568-20.48 45.568-45.568V317.44z" p-id="5869" fill="#d81e06"></path></svg>