<?xml version="1.0" standalone="no"?><!DOCTYPE svg PUBLIC "-//W3C//DTD SVG 1.1//EN" "http://www.w3.org/Graphics/SVG/1.1/DTD/svg11.dtd"><svg t="1595956480611" class="icon" viewBox="0 0 1024 1024" version="1.1" xmlns="http://www.w3.org/2000/svg" p-id="30762" xmlns:xlink="http://www.w3.org/1999/xlink" width="32" height="32"><defs><style type="text/css"></style></defs><path d="M405.148355 517.29089s-0.851408-54.854971 41.47571-91.830384c9.243853-8.027557 16.055113-14.595558 32.110226-16.541632 33.934672 0 230.9747-0.243259 244.475591 0-1.459556 5.351704-0.729778 89.032902-89.276161 108.615275l-228.785366-0.243259z" p-id="30763"></path><path d="M225.136477 863.083977s-0.486519-396.63428-0.608148-403.56717c-0.12163-7.297779 5.108445-122.237795 111.291127-186.336619 0 0 54.490082-28.826226 103.3852-37.705191 51.935859-9.487112 460.976363-6.081482 460.976363-6.081482s-6.081482 93.776458-72.977788 102.168903-307.601378 7.905927-334.116641 12.406224C455.867918 350.415014 336.549234 380.700796 332.170567 486.883478c-1.946074 111.534387 0 287.775745 0 287.775745s-27.001782 97.546977-107.03409 88.424754z" p-id="30764"></path><path d="M511.574296 1010.25585c-274.761373 0-498.195035-223.433662-498.195035-498.195035 0-274.761373 223.433662-498.195035 498.195035-498.195035 274.761373 0 498.195035 223.433662 498.195035 498.195035 0 274.761373-223.555292 498.195035-498.195035 498.195035z m0-935.210358C270.625965 75.045492 74.558974 271.112484 74.558974 512.060815c0 240.948331 196.066991 437.015322 437.015322 437.015322S948.589619 753.009146 948.589619 512.060815c0-240.948331-196.066991-437.015322-437.015323-437.015323z m0 0" p-id="30765"></path><path d="M402.715762 585.160233v100.344459l68.96401-0.12163s62.396009-1.094667 74.558974-100.222829H402.715762z" p-id="30766"></path></svg>