<?xml version="1.0" standalone="no"?><!DOCTYPE svg PUBLIC "-//W3C//DTD SVG 1.1//EN" "http://www.w3.org/Graphics/SVG/1.1/DTD/svg11.dtd"><svg t="1595956561192" class="icon" viewBox="0 0 1024 1024" version="1.1" xmlns="http://www.w3.org/2000/svg" p-id="33363" xmlns:xlink="http://www.w3.org/1999/xlink" width="32" height="32"><defs><style type="text/css"></style></defs><path d="M503.792911 202.34658a103.338985 103.338985 0 0 1-73.300844-29.792388 103.303146 103.303146 0 0 1-30.71908-72.921976A104.009685 104.009685 0 0 1 503.705874 0.00512a103.989206 103.989206 0 0 1 103.897048 99.627096 103.267307 103.267307 0 0 1-30.626922 72.860538A103.328745 103.328745 0 0 1 503.792911 202.34658z m0-36.688821a66.486329 66.486329 0 0 0 47.353462-19.05095 66.558007 66.558007 0 0 0 19.967402-46.979713A67.331103 67.331103 0 0 0 503.879949 35.823567a67.315744 67.315744 0 0 0-67.218467 63.803529 66.583606 66.583606 0 0 0 19.890604 46.918275 66.496568 66.496568 0 0 0 47.240825 19.107268zM402.737378 267.639984l35.204066 160.486714a18.34953 18.34953 0 0 1-10.823356 20.914573 701.035004 701.035004 0 0 0-172.95354 101.239848 273.763321 273.763321 0 0 0-61.806789 64.551027c-2.0121 4.228993-2.559923 5.867344-0.916453 7.34698h613.70066a108.243798 108.243798 0 0 0 21.641592-2.385849c-22.389089-70.79212-99.232868-128.385275-232.748229-169.28773a18.323931 18.323931 0 0 1-12.471947-21.098888l32.255034-161.5926z m-40.71814-14.489166a18.318811 18.318811 0 0 1 3.793806-15.533615 18.282972 18.282972 0 0 1 14.540364-6.6558h256.78591a18.262493 18.262493 0 0 1 14.453327 6.589242 18.344411 18.344411 0 0 1 3.896203 15.410739l-33.38652 167.465064c140.125083 46.385811 222.293502 112.227039 243.935094 198.808766v3.307421c1.648591 26.024181-21.088648 35.204066-59.605255 36.683701H186.121786a18.431448 18.431448 0 0 1-8.795897-2.206654 40.928054 40.928054 0 0 1-21.790067-24.68278 40.958773 40.958773 0 0 1 3.440537-32.7363c21.088648-45.116089 115.913328-123.623817 239.910894-178.093866z m79.234746 460.356132c30.626923 149.499522 49.703471 238.441499 56.830298 264.486159 8.079118 12.850815 10.823356 12.850815 21.278083-2.206654l53.379521-262.284624z m171.30495-14.847555l-58.683683 287.950416a18.38025 18.38025 0 0 1-2.759597 6.609722c-27.135187 39.996242-61.996223 41.470758-86.397412 1.648591a18.170336 18.170336 0 0 1-2.0121-4.582263c-7.167785-25.491717-28.06188-122.154421-62.728361-291.631586a18.334171 18.334171 0 0 1 3.880843-15.410738 18.390489 18.390489 0 0 1 14.468687-6.609722h176.63471a18.431448 18.431448 0 0 1 13.972061 6.891313 18.34953 18.34953 0 0 1 3.645331 15.129147z m0 0" p-id="33364"></path></svg>