<?xml version="1.0" standalone="no"?><!DOCTYPE svg PUBLIC "-//W3C//DTD SVG 1.1//EN" "http://www.w3.org/Graphics/SVG/1.1/DTD/svg11.dtd"><svg t="1597211072054" class="icon" viewBox="0 0 1024 1024" version="1.1" xmlns="http://www.w3.org/2000/svg" p-id="17828" xmlns:xlink="http://www.w3.org/1999/xlink" width="200" height="200"><defs><style type="text/css"></style></defs><path d="M326.528 457.142857v109.714286h185.197714c-7.460571 47.085714-55.990857 138.057143-185.197714 138.057143-111.488 0-202.441143-90.514286-202.441143-202.057143 0-111.542857 90.953143-202.057143 202.441143-202.057143 63.451429 0 105.892571 26.514286 130.139429 49.371429l88.630857-83.657143C488.411429 214.4 414.72 182.857143 326.528 182.857143 146.011429 182.857143 0 325.942857 0 502.857143S146.011429 822.857143 326.528 822.857143C514.980571 822.857143 640 693.028571 640 510.171429c0-21.028571-2.340571-37.028571-5.12-53.028572H326.509714zM1024 470.857143h-96V374.857143H832v96h-96V566.857143h96v96h96V566.857143H1024z" p-id="17829" fill="#d81e06"></path></svg>