<?xml version="1.0" standalone="no"?><!DOCTYPE svg PUBLIC "-//W3C//DTD SVG 1.1//EN" "http://www.w3.org/Graphics/SVG/1.1/DTD/svg11.dtd"><svg t="1692845602377" class="icon" viewBox="0 0 1024 1024" version="1.1" xmlns="http://www.w3.org/2000/svg" p-id="86005" xmlns:xlink="http://www.w3.org/1999/xlink" width="200" height="200"><path d="M48 134.4h928c17.6 0 32 14.4 32 32v660.8c0 17.6-14.4 32-32 32H48c-17.6 0-32-14.4-32-32V166.4c0-17.6 14.4-32 32-32z" fill="#96ADFA" p-id="86006"></path><path d="M464 624c-3.2 0-8 1.6-11.2 1.6-32 0-59.2-25.6-59.2-59.2s27.2-59.2 59.2-59.2h8c4.8-40 40-70.4 81.6-70.4 41.6 0 76.8 30.4 81.6 70.4 30.4 3.2 52.8 27.2 52.8 57.6 0 28.8-20.8 51.2-48 57.6v1.6H464z" p-id="86007"></path><path d="M464 624c-3.2 0-8 1.6-11.2 1.6-32 0-59.2-25.6-59.2-59.2s27.2-59.2 59.2-59.2h8c4.8-40 40-70.4 81.6-70.4 41.6 0 76.8 30.4 81.6 70.4 30.4 3.2 52.8 27.2 52.8 57.6 0 28.8-20.8 51.2-48 57.6v1.6H464z" fill="#FFFFFF" p-id="86008"></path><path d="M204.8 976H832c12.8 0 24-11.2 24-24S844.8 928 832 928H204.8c-12.8 0-24 11.2-24 24S192 976 204.8 976z" fill="#99AFFA" p-id="86009"></path><path d="M508.8 835.2v107.2c0 12.8 11.2 24 24 24s24-11.2 24-24v-107.2c0-12.8-11.2-24-24-24-14.4 0-24 11.2-24 24z" fill="#99AFFA" p-id="86010"></path><path d="M244.8 56h558.4c27.2 0 48 20.8 48 48v60.8c0 27.2-20.8 48-48 48H244.8c-27.2 0-48-20.8-48-48V104c0-27.2 22.4-48 48-48z" fill="#2A3C85" p-id="86011"></path><path d="M803.2 220.8H244.8c-30.4 0-56-25.6-56-56V104c0-30.4 25.6-56 56-56h558.4c30.4 0 56 25.6 56 56v60.8c0 30.4-25.6 56-56 56zM244.8 64c-22.4 0-40 17.6-40 40v60.8c0 22.4 17.6 40 40 40h558.4c22.4 0 40-17.6 40-40V104c0-22.4-17.6-40-40-40H244.8z" fill="#FAFAFA" p-id="86012"></path><path d="M204.8 134.4h638.4v6.4c0 35.2-28.8 64-64 64H268.8c-35.2 0-64-28.8-64-64v-6.4z" fill="#6581E1" p-id="86013"></path></svg>