<?xml version="1.0" standalone="no"?><!DOCTYPE svg PUBLIC "-//W3C//DTD SVG 1.1//EN" "http://www.w3.org/Graphics/SVG/1.1/DTD/svg11.dtd"><svg t="1692845396617" class="icon" viewBox="0 0 1024 1024" version="1.1" xmlns="http://www.w3.org/2000/svg" p-id="73266" xmlns:xlink="http://www.w3.org/1999/xlink" width="200" height="200"><path d="M475.428571 438.857143c38.107429 0 74.898286 5.741714 109.714286 16.457143v449.828571c0 3.108571 0.146286 6.180571 0.438857 9.142857H111.469714C90.294857 914.285714 73.142857 897.901714 73.142857 877.714286c0-241.298286 178.761143-438.857143 402.285714-438.857143z m146.285715 29.842286c150.381714 63.926857 256 223.561143 256 409.014857 0 20.187429-17.152 36.571429-38.326857 36.571428h-217.380572l-0.219428-2.56-0.036572-443.026285zM475.428571 36.571429a201.142857 201.142857 0 1 1 0 402.285714 201.142857 201.142857 0 0 1 0-402.285714z" fill="#437ACF" p-id="73267"></path><path d="M450.706286 493.714286a18.285714 18.285714 0 0 1-17.334857-12.507429l-6.107429-18.285714a18.285714 18.285714 0 0 1 17.371429-24.064h58.989714a18.285714 18.285714 0 0 1 17.334857 24.064l-6.070857 18.285714a18.285714 18.285714 0 0 1-17.334857 12.507429h-1.828572a18.285714 18.285714 0 0 1 17.92 14.701714l31.926857 159.817143a18.285714 18.285714 0 0 1-3.657142 14.994286l-53.540572 66.925714a18.285714 18.285714 0 0 1-28.525714 0l-53.540572-66.925714a18.285714 18.285714 0 0 1-3.657142-14.994286l31.963428-159.817143a18.285714 18.285714 0 0 1 17.92-14.701714h-1.828571z" fill="#85B5FF" p-id="73268"></path><path d="M658.285714 438.857143h256a36.571429 36.571429 0 0 1 36.571429 36.571428v402.285715a36.571429 36.571429 0 0 1-36.571429 36.571428h-256a36.571429 36.571429 0 0 1-36.571428-36.571428V475.428571a36.571429 36.571429 0 0 1 36.571428-36.571428z" fill="#437ACF" p-id="73269"></path><path d="M672.914286 475.428571h226.742857c8.045714 0 14.628571 6.582857 14.628571 14.628572v373.028571a14.628571 14.628571 0 0 1-14.628571 14.628572h-226.742857a14.628571 14.628571 0 0 1-14.628572-14.628572V490.057143c0-8.045714 6.582857-14.628571 14.628572-14.628572z" fill="#85B5FF" p-id="73270"></path><path d="M731.428571 475.428571h109.714286v18.285715a18.285714 18.285714 0 0 1-18.285714 18.285714h-73.142857a18.285714 18.285714 0 0 1-18.285715-18.285714V475.428571z" fill="#437ACF" p-id="73271"></path><path d="M694.857143 731.428571m18.285714 0l146.285714 0q18.285714 0 18.285715 18.285715l0 0q0 18.285714-18.285715 18.285714l-146.285714 0q-18.285714 0-18.285714-18.285714l0 0q0-18.285714 18.285714-18.285715Z" fill="#FFFFFF" p-id="73272"></path><path d="M694.857143 621.714286m18.285714 0l73.142857 0q18.285714 0 18.285715 18.285714l0 0q0 18.285714-18.285715 18.285714l-73.142857 0q-18.285714 0-18.285714-18.285714l0 0q0-18.285714 18.285714-18.285714Z" fill="#FFFFFF" p-id="73273"></path></svg>