<?xml version="1.0" standalone="no"?><!DOCTYPE svg PUBLIC "-//W3C//DTD SVG 1.1//EN" "http://www.w3.org/Graphics/SVG/1.1/DTD/svg11.dtd"><svg t="1623824602701" class="icon" viewBox="0 0 1024 1024" version="1.1" xmlns="http://www.w3.org/2000/svg" p-id="28486" xmlns:xlink="http://www.w3.org/1999/xlink" width="200" height="200"><defs><style type="text/css"></style></defs><path d="M157.4 719.23m-81 0a81 81 0 1 0 162 0 81 81 0 1 0-162 0Z" fill="#FFAFAF" p-id="28487"></path><path d="M814.4 440.23m-81 0a81 81 0 1 0 162 0 81 81 0 1 0-162 0Z" fill="#FFAFAF" p-id="28488"></path><path d="M696.05 711.58m-196.65 0a196.65 196.65 0 1 0 393.3 0 196.65 196.65 0 1 0-393.3 0Z" fill="#FFAFAF" p-id="28489"></path><path d="M354.5 349.33m-269.1 0a269.1 269.1 0 1 0 538.2 0 269.1 269.1 0 1 0-538.2 0Z" fill="#FFAFAF" p-id="28490"></path><path d="M641.48 485.79H372c-2.07 0-4.12-0.22-6.19-0.38-4.28-0.33 3.91 0.71 1.11 0.14-1-0.2-2-0.35-3-0.56-2-0.41-3.91-0.91-5.83-1.49-1.14-0.34-2.28-0.71-3.4-1.12-1.87-0.66-3.68-2.33 0.38 0.28-3.44-2.2-7.41-3.61-10.87-5.89-0.82-0.54-1.61-1.12-2.42-1.66-3.53-2.38 3.56 3.08 0.36 0.28-1.77-1.54-3.54-3.06-5.2-4.72a81.668 81.668 0 0 1-4-4.3 14.75 14.75 0 0 0-1.49-1.81c3.55 2.85 1.59 2.1 0.35 0.31a83.81 83.81 0 0 1-6.4-11.25c-1.89-3.87 1.57 4.51 0.21 0.42-0.26-0.75-0.55-1.49-0.81-2.24-0.7-2.09-1.31-4.2-1.81-6.34-0.24-1-0.45-2-0.64-3-0.41-2.09 0.31-4.48 0 0.53 0.17-2.38-0.47-5-0.52-7.41V285.9c0-2 0-4 0.1-6 0.06-1 0.13-2.06 0.23-3.09 0.24-2.44 1.43-2.42-0.18 1.1 0.76-1.65 0.75-4.13 1.19-5.94 0.53-2.14 1.16-4.24 1.88-6.32a13.9 13.9 0 0 0 1-2.79q-1.94 4.45-0.64 1.53c0.24-0.54 0.49-1.07 0.75-1.6a86.61 86.61 0 0 1 6.33-10.61c1.83-2.72-0.74 1.05-1 1.27a19.62 19.62 0 0 0 2.26-2.69c1.54-1.76 3.17-3.45 4.88-5.05 1.34-1.25 3.27-2.43 4.43-3.83-3 3.6-2 1.55-0.31 0.35 0.64-0.45 1.29-0.89 2-1.31q2.47-1.6 5.07-3c1-0.56 2.09-1.1 3.16-1.6 0.71-0.34 1.43-0.67 2.15-1l-2.61 1.12c1.79 0 4.43-1.61 6.21-2.13q3.18-0.93 6.44-1.56c0.79-0.15 1.63-0.23 2.4-0.42-5.59 1.42-2.15 0.27-0.48 0.12 2.07-0.17 4.14-0.25 6.22-0.27H642.73c2.07 0 4.12 0.23 6.19 0.38 4.44 0.33-4.84-1-0.51 0 1 0.21 2 0.37 3 0.59q3.23 0.71 6.38 1.71c0.76 0.24 1.51 0.5 2.26 0.77s1.49 0.54 2.23 0.84q-4.46-1.93-1.53-0.64a84 84 0 0 1 10.25 5.69c0.81 0.54 1.57 1.18 2.4 1.68 2.32 1.39-3.89-3.3-0.83-0.63 1.77 1.54 3.54 3.06 5.2 4.72 1.38 1.38 2.71 2.81 4 4.3 1.57 1.85 1.28 3.46-0.23-0.41a13.23 13.23 0 0 0 1.37 1.91c2.69 3.87 4.24 8.54 6.88 12.33-0.22-0.32-1.74-4.64-0.69-1.5 0.38 1.13 0.82 2.24 1.18 3.38q0.91 2.86 1.58 5.79c0.23 1 0.43 2 0.61 3 0.36 2-0.34 3.57-0.07-1.13-0.14 2.38 0.47 5 0.52 7.41 0.07 4.11 0 8.23 0 12.34v129.8c0 4.53 0.14 9.1-0.1 13.62-0.07 1.24-0.2 2.47-0.29 3.7-0.33 4.28 0.71-3.91 0.14-1.11-0.44 2.18-0.82 4.36-1.39 6.51-0.51 1.93-1.11 3.84-1.78 5.72-0.2 0.58-1.84 4.07-0.28 0.92 1.64-3.31-0.64 1.32-0.93 1.91a88.78 88.78 0 0 1-6.07 10.07c-2.37 3.53 3.09-3.56 0.29-0.36-0.51 0.59-1 1.2-1.52 1.79q-2.31 2.64-4.88 5c-0.85 0.8-1.73 1.58-2.62 2.34-0.41 0.35-3.47 2.85-0.7 0.63s-0.34 0.2-0.8 0.51c-1 0.67-1.94 1.32-2.94 1.94-1.67 1-3.37 2-5.12 2.92-0.7 0.36-1.41 0.71-2.12 1l-1.07 0.5q-2.93 1.29 1.53-0.63c-1.67 0.12-4 1.46-5.63 1.95-1.92 0.58-3.87 1.08-5.83 1.49a19.13 19.13 0 0 0-3.59 0.66c3-1.37 3.81-0.4 1.71-0.24-2.49 0.19-4.95 0.37-7.44 0.39-10.53 0.09-20.62 9.19-20.13 20.13s8.85 20.22 20.13 20.12c42.37-0.37 82-31.07 89.79-73.45 3.1-16.86 1.89-34.56 1.89-51.63 0-39.12 0.31-78.25 0-117.37-0.33-42.2-30.78-81.57-72.85-89.68-13-2.5-26-2-39.2-2H374.98c-33.09 0-64.28 17-81 45.82a93.56 93.56 0 0 0-12.35 46.69V431.14c0 11.36 1.23 22.9 5.26 33.6 7.63 20.27 21.28 37.55 40.05 48.65A93.2 93.2 0 0 0 373.76 526h267.72c10.53 0 20.61-9.25 20.12-20.12s-8.84-20.09-20.12-20.09z" fill="#4A484A" p-id="28491"></path><path d="M146.58 349.04m12 0l697.82 0q12 0 12 12l0 463.19q0 12-12 12l-697.82 0q-12 0-12-12l0-463.19q0-12 12-12Z" fill="#72C1E8" p-id="28492"></path><path d="M146.58 426.16H868.4v59.07H146.58z" fill="#AFADAD" p-id="28493"></path><path d="M331.82 548.05m12 0l327.35 0q12 0 12 12l0 138.17q0 12-12 12l-327.35 0q-12 0-12-12l0-138.17q0-12 12-12Z" fill="#F1DDD5" p-id="28494"></path><path d="M800 170.7h-0.05c-24.78-5.7-35.37-28.7-38.31-36.56a1 1 0 0 0-1.8 0c-2.94 7.86-13.53 30.86-38.28 36.55h-0.08a1 1 0 0 0-0.23 1.81c10.48 4.92 36.92 19.95 39.32 47.18h0.34c2.38-27.4 28.77-42.3 39.28-47.18a1 1 0 0 0-0.19-1.8zM128.11 492.41h-0.05c-24.75-5.71-35.34-28.72-38.28-36.55a1 1 0 0 0-1.79 0c-2.94 7.83-13.54 30.84-38.28 36.55h-0.09a1 1 0 0 0-0.23 1.81c10.48 4.92 36.92 19.94 39.32 47.18h0.35c2.37-27.41 28.76-42.31 39.27-47.19a1 1 0 0 0-0.22-1.8z" fill="#FFCD2C" p-id="28495"></path></svg>