<?xml version="1.0" standalone="no"?><!DOCTYPE svg PUBLIC "-//W3C//DTD SVG 1.1//EN" "http://www.w3.org/Graphics/SVG/1.1/DTD/svg11.dtd"><svg t="1623824595748" class="icon" viewBox="0 0 1024 1024" version="1.1" xmlns="http://www.w3.org/2000/svg" p-id="28343" xmlns:xlink="http://www.w3.org/1999/xlink" width="200" height="200"><defs><style type="text/css"></style></defs><path d="M725.95640563 169.84496532l0-122.34800648c0.95661614-29.12240382-33.63418523-61.17400323-61.17400323-61.17400323L328.32750211-13.67704577c-28.19687316 0-61.17400323 30.84063929-61.17400325 61.17400323l0 122.34800648L83.63290038 169.84496532c-45.70140149 0-91.76029855 48.76201034-91.76029857 91.75888595l0 152.93430181 1039.95382141 0L1031.8264246 261.60385127c0-45.53749156-46.34291391-91.75888595-91.75888597-91.75888595L725.95640563 169.84496532zM634.19469447 169.84496532L358.91379743 169.84496532l0-61.17400324c0-18.56429605 12.09830315-30.58629532 30.58629532-30.58629533l214.10689243 0c18.475276 0 30.58629532 12.02341187 30.58629532 30.58629533L634.1932805 169.84496532zM510.65409584 596.95376685c60.24847396 0 62.36800801-74.04664325 62.36800801-121.24161054L420.08780067 475.7121577c1.03009345 37.97923147 1.19541739 122.34659389 61.17400323 122.34659386C481.26180528 598.05875156 498.04851732 596.95376685 510.65409584 596.95376685zM634.19469447 475.7121577c0 0 48.47940469 183.52059712-137.65528565 183.52059712-192.18384193 0-137.6256114-183.52059712-137.62561139-183.52059712L-8.12881078 475.7121577l0 428.21519884c0 46.9858403 41.25037985 91.76029855 91.76029856 91.76029855l856.43322427 0c45.94020274 0 91.75888595-39.57877401 91.75888596-91.76029855L1031.82359801 475.7121577 634.19469447 475.7121577z" fill="#e36959" p-id="28344"></path></svg>