<?xml version="1.0" standalone="no"?><!DOCTYPE svg PUBLIC "-//W3C//DTD SVG 1.1//EN" "http://www.w3.org/Graphics/SVG/1.1/DTD/svg11.dtd"><svg t="1596073552381" class="icon" viewBox="0 0 1024 1024" version="1.1" xmlns="http://www.w3.org/2000/svg" p-id="1843" xmlns:xlink="http://www.w3.org/1999/xlink" width="200" height="200"><defs><style type="text/css"></style></defs><path d="M775.445877 360.856372c-7.983208 0-14.507946 6.064168-14.507946 13.586806l-0.076762 219.154423-243.564617 128.882759v-1.919041c0-0.307046 0-130.187706-0.076762-287.011694 0-0.997901-0.153523-2.072564-0.383808-2.993703l248.630885-132.106747c4.605697-2.302849 7.522639-7.062069 7.369115-12.205097-0.153523-5.143028-3.30075-9.748726-7.983208-11.744528l-255.616192-119.824887c-4.068366-1.91904-8.827586-1.91904-12.972714 0l-255.616192 119.824887c-4.989505 2.149325-8.136732 7.138831-7.983208 12.512144v314.492354c0.076762 4.835982 2.763418 9.288156 6.985307 11.591004l254.925337 143.928036c2.37961 1.458471 5.066267 2.302849 7.906447 2.302849 2.84018 0 5.68036-0.767616 8.136732-2.149325L782.507946 613.325337c4.452174-2.302849 7.292354-6.831784 7.369115-11.821289V374.443178c0-7.522639-6.447976-13.586807-14.431184-13.586806z m-286.781409 69.69955c-0.230285 0.997901-0.383808 1.995802-0.383808 2.993703v286.013793l-0.076762 0.997901v1.151425L261.603598 593.827886V314.185307c0.076762-0.614093 0.153523-1.151424 0.153523-1.765517v-2.533133l226.907347 120.515742v0.153523z m14.200899-23.71934L277.8003 287.318741 502.788606 181.925037l224.758021 105.393704L502.865367 406.836582z m-106.69865 90.732234l-86.587107-59.029686c-6.985307-4.75922-9.288156-15.045277-5.066267-22.951724 4.145127-7.906447 13.202999-10.43958 20.188306-5.757121l86.587107 59.029685c6.985307 4.75922 9.288156 15.045277 5.066266 22.951724-4.145127 7.983208-13.202999 10.516342-20.188305 5.757122z m0 0" p-id="1844"></path><path d="M688.551724 821.042279H333.375712c-8.904348 0-16.11994-7.215592-16.11994-16.11994s7.215592-16.11994 16.11994-16.11994H688.551724c8.904348 0 16.11994 7.215592 16.11994 16.11994-0.076762 8.981109-7.292354 16.11994-16.11994 16.11994z" p-id="1845"></path></svg>