<?xml version="1.0" standalone="no"?><!DOCTYPE svg PUBLIC "-//W3C//DTD SVG 1.1//EN" "http://www.w3.org/Graphics/SVG/1.1/DTD/svg11.dtd"><svg t="1597218665949" class="icon" viewBox="0 0 1024 1024" version="1.1" xmlns="http://www.w3.org/2000/svg" p-id="3174" xmlns:xlink="http://www.w3.org/1999/xlink" width="200" height="200"><defs><style type="text/css"></style></defs><path d="M512 512m-501.76 0a501.76 501.76 0 1 0 1003.52 0 501.76 501.76 0 1 0-1003.52 0Z" fill="#0ABFB2" p-id="3175"></path><path d="M512 1024c-136.8064 0-265.4208-53.248-362.0864-149.9136C53.248 777.4208 0 648.8064 0 512S53.248 246.5792 149.9136 149.9136C246.5792 53.248 375.1936 0 512 0s265.4208 53.248 362.0864 149.9136C970.752 246.5792 1024 375.1936 1024 512s-53.248 265.4208-149.9136 362.0864C777.4208 970.752 648.8064 1024 512 1024z m0-1003.52C241.0496 20.48 20.48 241.0496 20.48 512s220.5696 491.52 491.52 491.52 491.52-220.5696 491.52-491.52S782.9504 20.48 512 20.48z" fill="#1C1D21" p-id="3176"></path><path d="M544.5632 894.3616l271.9744-318.464c42.1888-49.3568 65.536-112.2304 65.536-177.3568 0-101.7856-82.5344-184.32-184.32-184.32-59.8016 0-115.9168 29.0816-150.528 77.824L512 341.8112l-35.2256-49.7664c-34.6112-48.7424-90.7264-77.824-150.528-77.824-101.7856 0-184.32 82.5344-184.32 184.32 0 65.1264 23.1424 128 65.536 177.3568l271.9744 318.464c17.2032 19.8656 47.9232 19.8656 65.1264 0z" fill="#FF3E63" p-id="3177"></path><path d="M512 919.552c-15.5648 0-30.3104-6.7584-40.3456-18.6368L199.68 582.656c-43.8272-51.2-67.9936-116.5312-67.9936-184.1152 0-107.3152 87.2448-194.56 194.56-194.56 63.0784 0 122.4704 30.72 158.9248 82.1248l26.8288 37.888 26.8288-37.888c36.4544-51.4048 95.8464-82.1248 158.9248-82.1248 107.3152 0 194.56 87.2448 194.56 194.56 0 67.3792-24.1664 132.7104-67.9936 184.1152L552.3456 900.9152c-10.0352 11.8784-24.7808 18.6368-40.3456 18.6368z m-185.7536-695.0912c-96.0512 0-174.08 78.0288-174.08 174.08 0 62.464 22.3232 123.0848 63.0784 170.8032l271.9744 318.464c6.144 7.168 15.1552 11.4688 24.7808 11.4688s18.6368-4.096 24.7808-11.4688L808.7552 569.344c40.5504-47.5136 63.0784-108.1344 63.0784-170.8032 0-96.0512-78.0288-174.08-174.08-174.08-56.32 0-109.568 27.4432-142.1312 73.5232l-35.2256 49.7664c-1.8432 2.6624-5.12 4.3008-8.3968 4.3008s-6.3488-1.6384-8.3968-4.3008l-35.2256-49.7664c-32.5632-46.08-85.6064-73.5232-142.1312-73.5232z" fill="#1C1D21" p-id="3178"></path><path d="M315.5968 292.4544c-5.3248 0-9.6256-4.096-10.24-9.216-0.6144-5.7344 3.6864-10.6496 9.216-11.0592 3.8912-0.4096 7.7824-0.6144 11.6736-0.6144 5.7344 0 10.24 4.5056 10.24 10.24s-4.5056 10.24-10.24 10.24c-3.2768 0-6.5536 0.2048-9.8304 0.4096h-0.8192zM258.8672 542.3104c-2.8672 0-5.7344-1.2288-7.7824-3.6864-33.3824-39.1168-51.8144-88.8832-51.8144-140.0832 0-46.2848 25.3952-89.088 65.9456-111.4112 4.9152-2.6624 11.264-0.8192 13.9264 4.096 2.6624 4.9152 0.8192 11.264-4.096 13.9264-34.2016 18.8416-55.5008 54.6816-55.5008 93.3888 0 46.4896 16.5888 91.5456 46.8992 126.7712 3.6864 4.3008 3.072 10.8544-1.2288 14.336-1.6384 1.8432-4.096 2.6624-6.3488 2.6624z" fill="#FFAEC3" p-id="3179"></path><path d="M512 512.2048m-63.0784 0a63.0784 63.0784 0 1 0 126.1568 0 63.0784 63.0784 0 1 0-126.1568 0Z" fill="#FFC5B3" p-id="3180"></path><path d="M586.9568 786.6368c0-41.984 10.8544-83.5584 32.768-119.6032 24.1664-39.7312 40.7552-92.5696 45.8752-151.7568h-3.2768c-17.408 66.7648-78.0288 116.1216-150.3232 116.1216s-132.9152-49.3568-150.3232-116.1216H358.4c5.12 59.1872 21.7088 112.0256 45.8752 151.7568 21.9136 35.84 32.768 77.4144 32.768 119.6032v57.9584l42.5984 49.7664c16.9984 20.0704 47.9232 20.0704 65.1264 0l42.5984-49.7664v-57.9584z" fill="#FFC5B3" p-id="3181"></path><path d="M512 585.5232c-40.3456 0-73.3184-32.9728-73.3184-73.3184s32.9728-73.3184 73.3184-73.3184 73.3184 32.9728 73.3184 73.3184-32.9728 73.3184-73.3184 73.3184z m0-126.1568c-29.0816 0-52.8384 23.7568-52.8384 52.8384s23.7568 52.8384 52.8384 52.8384 52.8384-23.7568 52.8384-52.8384-23.7568-52.8384-52.8384-52.8384z" fill="#1C1D21" p-id="3182"></path><path d="M512 919.552c-15.5648 0-30.3104-6.7584-40.3456-18.6368l-42.5984-49.7664c-1.6384-1.8432-2.4576-4.3008-2.4576-6.5536v-57.9584c0-41.1648-10.8544-80.4864-31.3344-114.2784-25.3952-41.5744-42.1888-97.0752-47.3088-156.0576-0.2048-2.8672 0.6144-5.7344 2.6624-7.7824 1.8432-2.048 4.7104-3.2768 7.5776-3.2768h3.2768c4.7104 0 8.8064 3.072 9.8304 7.5776 16.5888 63.8976 74.3424 108.544 140.4928 108.544s123.6992-44.6464 140.4928-108.544c1.2288-4.5056 5.3248-7.5776 9.8304-7.5776h3.2768c2.8672 0 5.5296 1.2288 7.5776 3.2768 1.8432 2.048 2.8672 4.9152 2.6624 7.7824-5.12 58.9824-21.9136 114.4832-47.3088 156.0576-20.48 33.5872-31.3344 73.1136-31.3344 114.2784v57.9584c0 2.4576-0.8192 4.7104-2.4576 6.5536l-42.5984 49.7664c-9.6256 11.8784-24.3712 18.6368-39.936 18.6368z m-64.7168-78.848l40.1408 46.8992c6.144 7.168 15.1552 11.4688 24.7808 11.4688s18.6368-4.096 24.7808-11.4688l40.1408-46.8992V786.432c0-44.8512 11.8784-88.064 34.2016-124.928 15.1552-24.7808 27.0336-55.0912 34.816-88.064-30.5152 41.984-79.6672 68.1984-133.9392 68.1984s-103.424-26.4192-133.9392-68.1984c7.9872 33.1776 19.6608 63.2832 34.816 88.064 22.3232 36.864 34.2016 80.0768 34.2016 124.928v54.272z m139.6736 3.8912zM551.5264 411.8528c-3.2768 0-6.5536-1.6384-8.6016-4.5056l-2.2528-3.4816c-3.072-4.7104-1.8432-11.0592 2.8672-14.1312s11.0592-1.8432 14.1312 2.8672l2.2528 3.4816c3.072 4.7104 1.8432 11.0592-2.8672 14.1312-1.6384 1.2288-3.4816 1.6384-5.5296 1.6384zM530.2272 379.904c-3.2768 0-6.5536-1.6384-8.6016-4.5056l-21.2992-32.1536c-3.072-4.7104-1.8432-11.0592 2.8672-14.1312s11.0592-1.8432 14.1312 2.8672l21.2992 32.1536c3.072 4.7104 1.8432 11.0592-2.8672 14.1312-1.6384 1.024-3.4816 1.6384-5.5296 1.6384z" fill="#1C1D21" p-id="3183"></path></svg>