<?xml version="1.0" encoding="utf-8"?>
<!-- Generator: Adobe Illustrator 21.0.0, SVG Export Plug-In . SVG Version: 6.00 Build 0)  -->
<svg version="1.1" id="图层_1" xmlns="http://www.w3.org/2000/svg" xmlns:xlink="http://www.w3.org/1999/xlink" x="0px" y="0px"
	 viewBox="0 0 1000 1000" style="enable-background:new 0 0 1000 1000;" xml:space="preserve">
<style type="text/css">
	.st0{fill:#F5B619;}
	.st1{fill:#F4ED4F;}
	.st2{fill:#A7CF5B;}
	.st3{fill:#8AD0E3;}
	.st4{fill:#77C6B0;}
	.st5{fill:#B37CB4;}
	.st6{fill:#FFFFFF;}
	.st7{fill:#EB5C29;}
	.st8{fill:#74AEBE;}
	.st9{fill:#D3D1D2;}
	.st10{fill:#64A694;}
	.st11{fill:#946796;}
	.st12{fill:#EF8CA4;}
	.st13{fill:#565656;}
	.st14{fill:#EFEFEF;}
	.st15{fill:#FF6464;}
	.st16{fill:#82CFF0;}
	.st17{fill:#F7D426;}
	.st18{fill:#DB8D0F;}
	.st19{fill:#EB6043;}
	.st20{fill:none;stroke:#565656;stroke-width:15;stroke-linecap:round;stroke-miterlimit:10;}
	.st21{fill:none;stroke:#FFFFFF;stroke-width:15;stroke-linecap:round;stroke-miterlimit:10;}
	.st22{fill:#8CD3B6;stroke:#565656;stroke-width:15;stroke-linecap:round;stroke-miterlimit:10;}
	.st23{fill:#8CD3B6;}
	.st24{fill:#77B199;}
	.st25{fill:#FFDDE1;}
	.st26{fill:#EE9CA7;}
	.st27{fill:#8EC557;}
	.st28{fill:#A5DBF5;}
	.st29{fill:#F64F59;}
	.st30{fill:#C8434B;}
	.st31{fill:#CEEAF6;}
	.st32{fill:#F7F6C3;}
	.st33{fill:#EE859E;}
	.st34{clip-path:url(#SVGID_2_);fill:#2193B0;}
	.st35{clip-path:url(#SVGID_2_);fill:#6DD5ED;}
	.st36{clip-path:url(#SVGID_2_);}
	.st37{clip-path:url(#SVGID_4_);fill:url(#SVGID_5_);}
	.st38{clip-path:url(#SVGID_2_);fill:#EE9CA7;}
	.st39{clip-path:url(#SVGID_2_);fill:#FFDDE1;}
	.st40{clip-path:url(#SVGID_7_);fill:url(#SVGID_8_);}
	.st41{clip-path:url(#SVGID_2_);fill:#BDC3C7;}
	.st42{clip-path:url(#SVGID_2_);fill:#2C3E50;}
	.st43{clip-path:url(#SVGID_10_);fill:url(#SVGID_11_);}
	.st44{clip-path:url(#SVGID_2_);fill:#373B44;}
	.st45{clip-path:url(#SVGID_2_);fill:#4286F4;}
	.st46{clip-path:url(#SVGID_13_);fill:url(#SVGID_14_);}
	.st47{clip-path:url(#SVGID_2_);fill:#FF0099;}
	.st48{clip-path:url(#SVGID_2_);fill:#493240;}
	.st49{clip-path:url(#SVGID_16_);fill:url(#SVGID_17_);}
	.st50{clip-path:url(#SVGID_2_);fill:#8E2DE2;}
	.st51{clip-path:url(#SVGID_2_);fill:#4A00E0;}
	.st52{clip-path:url(#SVGID_19_);fill:url(#SVGID_20_);}
	.st53{clip-path:url(#SVGID_2_);fill:#1F4037;}
	.st54{clip-path:url(#SVGID_2_);fill:#99F2C8;}
	.st55{clip-path:url(#SVGID_22_);fill:url(#SVGID_23_);}
	.st56{clip-path:url(#SVGID_2_);fill:#F953C6;}
	.st57{clip-path:url(#SVGID_2_);fill:#B91D73;}
	.st58{clip-path:url(#SVGID_25_);fill:url(#SVGID_26_);}
	.st59{clip-path:url(#SVGID_2_);fill:#F12711;}
	.st60{clip-path:url(#SVGID_2_);fill:#F5AF19;}
	.st61{clip-path:url(#SVGID_28_);fill:url(#SVGID_29_);}
	.st62{clip-path:url(#SVGID_2_);fill:#8360C3;}
	.st63{clip-path:url(#SVGID_2_);fill:#2EBF91;}
	.st64{clip-path:url(#SVGID_31_);fill:url(#SVGID_32_);}
	.st65{clip-path:url(#SVGID_2_);fill:#009FFF;}
	.st66{clip-path:url(#SVGID_34_);fill:url(#SVGID_35_);}
	.st67{clip-path:url(#SVGID_2_);fill:#EC2F4B;}
	.st68{clip-path:url(#SVGID_37_);fill:url(#SVGID_38_);}
	.st69{clip-path:url(#SVGID_2_);fill:#654EA3;}
	.st70{clip-path:url(#SVGID_2_);fill:#EAAFC8;}
	.st71{clip-path:url(#SVGID_40_);fill:url(#SVGID_41_);}
	.st72{clip-path:url(#SVGID_2_);fill:#FF416C;}
	.st73{clip-path:url(#SVGID_2_);fill:#FF4B2B;}
	.st74{clip-path:url(#SVGID_43_);fill:url(#SVGID_44_);}
	.st75{clip-path:url(#SVGID_2_);fill:#C6FFDD;}
	.st76{clip-path:url(#SVGID_2_);fill:#FBD786;}
	.st77{clip-path:url(#SVGID_2_);fill:#F7797D;}
	.st78{clip-path:url(#SVGID_46_);fill:url(#SVGID_47_);}
	.st79{clip-path:url(#SVGID_2_);fill:#0F2027;}
	.st80{clip-path:url(#SVGID_2_);fill:#203A43;}
	.st81{clip-path:url(#SVGID_2_);fill:#2C5364;}
	.st82{clip-path:url(#SVGID_49_);fill:url(#SVGID_50_);}
	.st83{clip-path:url(#SVGID_2_);fill:#12C2E9;}
	.st84{clip-path:url(#SVGID_2_);fill:#C471ED;}
	.st85{clip-path:url(#SVGID_2_);fill:#F64F59;}
	.st86{clip-path:url(#SVGID_52_);fill:url(#SVGID_53_);}
	.st87{clip-path:url(#SVGID_2_);fill:#2980B9;}
	.st88{clip-path:url(#SVGID_2_);fill:#6DD5FA;}
	.st89{clip-path:url(#SVGID_2_);fill:#FFFFFF;}
	.st90{clip-path:url(#SVGID_55_);fill:url(#SVGID_56_);}
	.st91{clip-path:url(#SVGID_2_);fill:#AA4B6B;}
	.st92{clip-path:url(#SVGID_2_);fill:#6B6B83;}
	.st93{clip-path:url(#SVGID_2_);fill:#3B8D99;}
	.st94{clip-path:url(#SVGID_58_);fill:url(#SVGID_59_);}
	.st95{clip-path:url(#SVGID_2_);fill:#7F7FD5;}
	.st96{clip-path:url(#SVGID_2_);fill:#86A8E7;}
	.st97{clip-path:url(#SVGID_2_);fill:#91EAE4;}
	.st98{clip-path:url(#SVGID_61_);fill:url(#SVGID_62_);}
	.st99{fill:#ED6E2D;}
	.st100{fill:#F5CE29;}
	.st101{fill:#F12711;}
</style>
<g>
	<path class="st23" d="M822.9,843.7c-15,31.7-42.2,67.8-75.8,77.6c-97.9,28.7-103.4-0.4-243.4-0.4c-79.2,0-130.4,6.7-161.5,13.2
		C280.8,947,219.5,910.5,202.9,850c-20.8-75.8,4-171.7,13.7-204.2c2.2-7.3,1.2-15.3-2.8-21.8c-35.8-59.3-52.3-82.4-59.2-112.3
		c-10.6-46.5,34.8-86.2,79.4-69.4c0.2,0.1,0.3,0.1,0.5,0.2c0.4,0.2,0.8,0.3,1.2,0.4c13.6,4.5,28.2-22.9,32.8-36.5l29.8-89.6
		c6.8-24.8,13.6-50.2,25.1-73.3c15.3-30.8,44.5-43.7,71.6-62.7c28.3-19.8,55.6-41.1,81.7-63.8c10.7-9.3,20.2-15.1,28.8-18.2
		c49.3-17.7,69.8,53.4,122.9,69c65.8,19.4,111.3,92.3,142.6,179.1c8.5,23.7,34,36.5,58.2,29.3c0.2-0.1,0.4-0.1,0.6-0.2
		c26.2-7.6,50.3,5.1,63.8,27.8c12.9,21.6,7.5,48.5,1.1,71.3c-13.4,47.3-51.7,99.9-64,115.9c-2.4,3.2-3.5,7.2-3,11.2
		c5.3,42.3,11,84.6,12.4,127.3C841.3,768.2,839.7,808.2,822.9,843.7z"/>
</g>
<g>
	<g>
		<path class="st24" d="M866.6,475.3c6.4-22.8,11.8-49.7-1.1-71.3c-13.5-22.7-37.7-35.5-63.8-27.8c-1.8,0.5-3.5,1.1-5.3,1.7
			c11.8,4.9,22,14.1,29.1,26.2c12.9,21.6,7.5,48.5,1.1,71.3c-13.4,47.3-51.7,99.9-64,115.9c-2.5,3.2-3.5,7.2-3,11.2
			c5.3,42.3,11,84.6,12.4,127.3c1.3,38.5-0.2,78.5-17,113.9c-15,31.7-42.2,67.8-75.8,77.6c-22.4,6.6-40,10.1-55.4,11.7
			c26.8,2.4,52.1,1.1,95.4-11.7c33.6-9.9,60.8-45.9,75.8-77.6c16.8-35.4,18.3-75.4,17-113.9c-1.5-42.6-7.1-85-12.4-127.3
			c-0.5-4,0.6-8,3-11.2C814.8,575.2,853.2,522.6,866.6,475.3z"/>
	</g>
</g>
<g>
	<path class="st19" d="M520.1,448.7c0,9.1-4.9,16.5-11,16.5c-4.4,0-8.2-3.8-9.9-9.4c-0.2-0.6-0.3-1.2-0.5-1.8
		c6.4-3.1,16.3-6.1,21.3-7.5c0,0.1,0,0.3,0,0.5C520,447.5,520.1,448.1,520.1,448.7z"/>
</g>
<g>
	<path class="st13" d="M520,446.4c-5,1.4-14.9,4.5-21.3,7.5c-0.4-1.7-0.6-3.4-0.6-5.3c0-9.1,4.9-16.5,11-16.5
		C514.6,432.2,519.2,438.4,520,446.4z"/>
</g>
<g>
	<circle class="st18" cx="374" cy="502.9" r="16.7"/>
</g>
<g>
	<circle class="st18" cx="645.2" cy="502.9" r="16.7"/>
</g>
<g>
	<path class="st13" d="M289.4,944.2c-55.8,0-106.6-36.9-121.8-92.2c-21.1-76.7,2.6-171.3,13.8-208.3c1.6-5.4,0.9-11-2-15.9
		c-23.9-39.7-41.4-75.4-52-106.3c-3.2-9.2-5.9-18.3-8.1-27.8c-5.7-24.6,2.3-49.1,21.3-65.7c19-16.6,44.4-21.2,68-12.3l0.4,0.1
		c0.3,0.1,0.5,0.2,0.7,0.3l0.3,0.1c4.2,1.4,8.7,1.1,12.8-0.7c4.9-2.1,8.8-6.3,10.5-11.5c1.3-3.9,5.6-6,9.5-4.7
		c3.9,1.3,6,5.6,4.7,9.5c-3.1,9.2-10,16.6-18.8,20.5c-7.5,3.2-15.5,3.6-23.2,1.2c-0.5-0.1-0.9-0.3-1.1-0.4l-0.6-0.1l-0.4-0.2
		c-0.1,0-0.2-0.1-0.3-0.1c-18.3-6.8-37.9-3.2-52.6,9.7c-14.7,12.9-20.9,32-16.5,51c2.1,9,4.6,17.6,7.7,26.3
		c10.3,29.9,27.3,64.7,50.6,103.4c5.1,8.3,6.4,18.5,3.6,27.9c-8.4,28-34.2,125.1-13.7,200.1c15.4,56.3,72.8,90.9,130.5,78.7
		c29.2-6.1,81.1-13.4,163-13.4c56.9,0,91.6,4.7,119.5,8.5c40.4,5.5,64.8,8.8,121.8-7.8c31.1-9.1,57.1-44,71.1-73.6
		c1.8-3.7,6.2-5.3,10-3.6c3.7,1.8,5.3,6.2,3.6,10c-7.5,15.8-35.4,68.4-80.5,81.6c-60,17.6-87.1,13.9-128,8.3
		c-27.5-3.7-61.6-8.4-117.5-8.4c-80.6,0-131.5,7.1-160,13C306.9,943.3,298.1,944.2,289.4,944.2z"/>
</g>
<g>
	<path class="st13" d="M811.9,737.2c-4,0-7.3-3.2-7.5-7.2c-1.4-40.4-6.7-81.4-11.7-121.1l-0.7-5.5c-0.7-5.9,0.8-11.8,4.4-16.6
		c8.2-10.7,36.1-48.3,53.2-87.2c4-9.1,7.3-18,9.7-26.3c6.4-22.9,10.8-46.7-0.3-65.4c-12.7-21.4-33.9-30.7-55.2-24.5
		c-10,2.9-20.6,7.5-30.4,13.3c-4.6,2.7-10,3.1-15,1.2c-5-1.9-8.8-6-10.4-11.1c-0.4-1.2-0.7-2.3-1.1-3.4c-0.4-1.1-0.7-2.3-1.1-3.4
		c-17-54.2-37.1-98.7-59.7-132.2c-26-38.6-55.7-63-88.2-72.6c-24.6-7.2-42.5-25.3-58.3-41.2c-22.5-22.6-37.4-36.1-60-28
		c-8,2.9-16.9,8.5-26.4,16.8c-26.1,22.6-53.8,44.2-82.3,64.3c-6,4.2-12.1,8.1-18,11.9c-20.6,13.2-40.1,25.7-51.1,48
		c-1.8,3.7-6.3,5.2-10,3.4c-3.7-1.8-5.2-6.3-3.4-10c12.8-26,35-40.2,56.4-53.9c5.8-3.7,11.8-7.5,17.5-11.6
		c28.1-19.8,55.4-41.1,81.1-63.3c11-9.6,21.2-16,31.2-19.6c32.7-11.7,54.6,10.3,75.7,31.5c15.2,15.3,31,31.2,51.9,37.3
		c66.2,19.6,119.4,91.8,157.9,214.8c0.4,1.2,0.7,2.3,1.1,3.4c0.4,1.1,0.7,2.3,1.1,3.4c0.3,1,1,1.4,1.5,1.6c0.5,0.2,1.2,0.3,2-0.2
		c10.9-6.4,22.6-11.5,33.8-14.7c27.8-8.2,56.2,4,72.3,31.2c14.1,23.6,8.9,52.3,1.9,77.2c-2.6,9-6.1,18.5-10.4,28.2
		c-17.8,40.5-46.6,79.3-55,90.3c-1.2,1.6-1.8,3.7-1.5,5.7l0.7,5.5c5.1,40,10.4,81.4,11.9,122.5c0.1,4.1-3.1,7.6-7.2,7.8
		C812,737.2,811.9,737.2,811.9,737.2z"/>
</g>
<g>
	
		<ellipse transform="matrix(0.8634 -0.5046 0.5046 0.8634 -29.9935 352.8896)" class="st6" cx="636.6" cy="231.8" rx="7.8" ry="7.8"/>
</g>
<g>
	<path class="st6" d="M620.1,222c-2,0-4.1-0.8-5.6-2.5c-28.1-31.1-72.7-31.8-73.2-31.8c-4.1,0-7.5-3.4-7.4-7.6
		c0-4.1,3.4-7.4,7.5-7.4c0,0,0,0,0.1,0c2.1,0,51.8,0.8,84.2,36.8c2.8,3.1,2.5,7.8-0.5,10.6C623.7,221.4,621.9,222,620.1,222z"/>
</g>
<g>
	<path class="st13" d="M252.3,386.6c-1.8,0-3.6-0.7-5.1-2c-3-2.8-3.2-7.4-0.5-10.5c4.7-6.5,20.1-60.4,32.3-108.9
		c1-4,5.1-6.5,9.1-5.4c4,1,6.5,5.1,5.4,9.1c-0.1,0.3-6.6,26.2-14,52.9c-15.5,55.6-19.7,60.1-21.7,62.3
		C256.3,385.8,254.3,386.6,252.3,386.6z M246.7,374C246.7,374.1,246.7,374.1,246.7,374C246.7,374.1,246.7,374.1,246.7,374z"/>
</g>
<g>
	<path class="st13" d="M802.7,831.3c-0.9,0-1.9-0.2-2.8-0.5c-3.8-1.5-5.7-5.9-4.2-9.8c8.8-22,9.1-72.1,9.1-72.6
		c0-4.1,3.4-7.5,7.5-7.5c0,0,0,0,0,0c4.1,0,7.5,3.4,7.5,7.5c0,2.2-0.2,53.5-10.1,78.2C808.4,829.5,805.6,831.3,802.7,831.3z"/>
</g>
<g>
	<path class="st6" d="M251.5,859.6c-1.8,0-3.7-0.7-5.1-2.1c-4.5-4.3-10.5-15-17.5-60.9c-3.8-24.5-6-47.9-6.1-48.1
		c-0.4-4.1,2.6-7.8,6.7-8.2c4.1-0.4,7.8,2.6,8.2,6.7c0,0.2,2.2,23.2,5.9,47.2c6.9,45.3,12.5,51.8,13.1,52.4
		c2.9,2.9,3.1,7.6,0.2,10.6C255.4,858.8,253.5,859.6,251.5,859.6z"/>
</g>
<g>
	
		<ellipse transform="matrix(0.9797 -0.2003 0.2003 0.9797 -141.106 60.7572)" class="st6" cx="229.7" cy="727.7" rx="7.8" ry="7.8"/>
</g>
<g>
	<circle class="st23" cx="357.1" cy="180.2" r="71.2"/>
	<path class="st13" d="M357.1,258.9c-43.4,0-78.7-35.3-78.7-78.7s35.3-78.7,78.7-78.7s78.7,35.3,78.7,78.7S400.5,258.9,357.1,258.9z
		 M357.1,116.5c-35.1,0-63.7,28.6-63.7,63.7s28.6,63.7,63.7,63.7s63.7-28.6,63.7-63.7S392.2,116.5,357.1,116.5z"/>
</g>
<g>
	<circle class="st23" cx="652.1" cy="186.2" r="71.2"/>
	<path class="st13" d="M652.1,264.9c-43.4,0-78.7-35.3-78.7-78.7c0-43.4,35.3-78.7,78.7-78.7s78.7,35.3,78.7,78.7
		C730.8,229.6,695.5,264.9,652.1,264.9z M652.1,122.5c-35.1,0-63.7,28.6-63.7,63.7c0,35.1,28.6,63.7,63.7,63.7s63.7-28.6,63.7-63.7
		C715.8,151.1,687.2,122.5,652.1,122.5z"/>
</g>
<g>
	<circle class="st13" cx="445.5" cy="418.7" r="19"/>
</g>
<g>
	<circle class="st13" cx="573.2" cy="418.7" r="19"/>
</g>
<g>
	<g>
		<path class="st99" d="M910.2,301.5c-2.2,23.6-23.1,41-46.8,38.8c-23.6-2.2-41-23.1-38.8-46.8c2.2-23.6,48.6-94.1,49.7-70.4
			C876,258.8,912.4,277.8,910.2,301.5z"/>
	</g>
</g>
<g>
	<g>
		<path class="st100" d="M898.6,307.3c-1.6,17.6-17.2,30.5-34.8,28.9c-17.6-1.6-30.5-17.2-28.9-34.8c1.6-17.6,36.2-70,37-52.4
			C873.1,275.5,900.2,289.7,898.6,307.3z"/>
	</g>
</g>
<g>
	<circle class="st23" cx="500" cy="143.3" r="80"/>
	<path class="st13" d="M500,230.9c-48.3,0-87.5-39.3-87.5-87.5s39.3-87.5,87.5-87.5s87.5,39.3,87.5,87.5S548.3,230.9,500,230.9z
		 M500,70.8c-40,0-72.5,32.5-72.5,72.5s32.5,72.5,72.5,72.5c40,0,72.5-32.5,72.5-72.5S540,70.8,500,70.8z"/>
</g>
<g>
	<path class="st23" d="M808,309.9l-6.6,39.2c-0.6,3.4,0.9,6.8,3.7,8.7l18,12.2c2,1.4,3,3.9,2.3,6.3l-18.6,69.2
		c-0.7,2.5,0.4,5.2,2.6,6.6l15.9,9.9c3.2,2,7.5,0.5,8.8-3.1l23.2-69.2c1-3,4.2-4.6,7.2-3.7l14.5,4.5c3.7,1.1,7.6-0.3,9.8-3.4
		l30-43.7c2.7-3.9,1.7-9.3-2.2-12.1l-6.5-4.6c-4-2.8-9.6-1.8-12.3,2.3l-6.8,10.2c-2.3,3.4-6.6,4.8-10.4,3.3l-3.3-1.3
		c-4.7-1.8-6.9-7.2-4.8-11.7l4.1-9c2.2-4.9-0.5-10.5-5.6-12l-10.5-3c-4.6-1.3-9.5,1.4-10.8,6l-4.2,14.5c-1.2,4.1-5.2,6.8-9.4,6.3
		l-2.3-0.3c-4.7-0.5-8.1-4.7-7.7-9.4l1-11.3c0.6-6.8-6.5-11.6-12.6-8.6l-1.5,0.8C810.2,304.8,808.5,307.2,808,309.9z"/>
	<path class="st13" d="M828.4,470.6c-2.5,0-4.9-0.7-7.1-2.1l-15.9-9.9c-5-3.2-7.4-9.1-5.8-14.9l18.3-68.1l-17-11.5
		c-5.2-3.6-7.9-9.9-6.9-16.1l6.6-39.2c0.9-5.1,4.2-9.5,8.8-11.8l1.5-0.8c5.3-2.7,11.5-2.2,16.4,1.1c4.9,3.4,7.6,8.9,7,14.8l-1,11.3
		c-0.1,0.7,0.4,1.3,1.1,1.4l2.3,0.3c0.6,0.1,1.2-0.3,1.3-0.9l4.2-14.5c2.5-8.6,11.4-13.6,20-11.2l10.5,3c4.5,1.3,8.3,4.5,10.3,8.8
		c2,4.3,2,9.2,0.1,13.5l-4.1,9c-0.2,0.4-0.1,0.8,0,1c0.1,0.2,0.3,0.5,0.7,0.7l3.3,1.3c0.6,0.2,1.2,0,1.5-0.5l6.8-10.2
		c2.5-3.7,6.2-6.1,10.5-6.9c4.3-0.8,8.7,0.2,12.3,2.7l6.5,4.6c7.2,5.1,9,15.2,4,22.5l-30,43.7c-4,5.9-11.4,8.4-18.2,6.3l-12.9-4
		l-22.7,67.6c-1.3,3.9-4.3,7-8.2,8.4C831.4,470.3,829.9,470.6,828.4,470.6z M814.4,446.5l13.2,8.3l22.6-67.3
		c2.3-6.9,9.6-10.6,16.5-8.5l14.5,4.5c0.5,0.2,1.1,0,1.4-0.5l30-43.7c0.4-0.6,0.2-1.3-0.3-1.7l-6.5-4.6c-0.4-0.3-0.7-0.3-0.9-0.2
		c-0.2,0-0.6,0.2-0.8,0.5l-6.8,10.2c-4.3,6.3-12.2,8.9-19.3,6.1l-3.3-1.3c-4.1-1.6-7.5-4.9-9.2-9c-1.7-4.1-1.6-8.8,0.2-12.8l4.1-9
		c0.2-0.4,0.1-0.8,0-1c-0.1-0.2-0.3-0.5-0.8-0.7l-10.5-3c-0.7-0.2-1.4,0.2-1.5,0.9l-4.2,14.5c-2.2,7.7-9.6,12.6-17.5,11.7l-2.3-0.3
		c-8.8-1-15.1-8.7-14.3-17.5l1-11.3c0-0.5-0.1-0.9-0.5-1.1s-0.8-0.3-1.3-0.1l-1.5,0.8c-0.4,0.2-0.6,0.5-0.7,0.9l-6.6,39.2
		c-0.1,0.5,0.1,1,0.5,1.2l18,12.2c4.7,3.2,6.8,9,5.4,14.5L814.4,446.5z M818.8,376.3L818.8,376.3L818.8,376.3z"/>
</g>
</svg>
