<?xml version="1.0" encoding="utf-8"?>
<!-- Generator: Adobe Illustrator 21.0.0, SVG Export Plug-In . SVG Version: 6.00 Build 0)  -->
<svg version="1.1" id="图层_1" xmlns="http://www.w3.org/2000/svg" xmlns:xlink="http://www.w3.org/1999/xlink" x="0px" y="0px"
	 viewBox="0 0 1000 1000" style="enable-background:new 0 0 1000 1000;" xml:space="preserve">
<style type="text/css">
	.st0{fill:#F5B619;}
	.st1{fill:#F4ED4F;}
	.st2{fill:#A7CF5B;}
	.st3{fill:#8AD0E3;}
	.st4{fill:#77C6B0;}
	.st5{fill:#B37CB4;}
	.st6{fill:#FFFFFF;}
	.st7{fill:#EB5C29;}
	.st8{fill:#74AEBE;}
	.st9{fill:#D3D1D2;}
	.st10{fill:#64A694;}
	.st11{fill:#946796;}
	.st12{fill:#EF8CA4;}
	.st13{fill:#565656;}
	.st14{fill:#EFEFEF;}
	.st15{fill:#FF6464;}
	.st16{fill:#82CFF0;}
	.st17{fill:#F7D426;}
	.st18{fill:#DB8D0F;}
	.st19{fill:#EB6043;}
	.st20{fill:none;stroke:#565656;stroke-width:15;stroke-linecap:round;stroke-miterlimit:10;}
	.st21{fill:none;stroke:#FFFFFF;stroke-width:15;stroke-linecap:round;stroke-miterlimit:10;}
	.st22{fill:#8CD3B6;stroke:#565656;stroke-width:15;stroke-linecap:round;stroke-miterlimit:10;}
	.st23{fill:#FFDDE1;}
	.st24{fill:#EE9CA7;}
	.st25{fill:#8CD3B6;}
	.st26{fill:#8EC557;}
	.st27{fill:#A5DBF5;}
	.st28{fill:#F64F59;}
	.st29{fill:#C8434B;}
	.st30{fill:#CEEAF6;}
	.st31{fill:#F7F6C3;}
	.st32{fill:#EE859E;}
	.st33{clip-path:url(#SVGID_2_);fill:#2193B0;}
	.st34{clip-path:url(#SVGID_2_);fill:#6DD5ED;}
	.st35{clip-path:url(#SVGID_2_);}
	.st36{clip-path:url(#SVGID_4_);fill:url(#SVGID_5_);}
	.st37{clip-path:url(#SVGID_2_);fill:#EE9CA7;}
	.st38{clip-path:url(#SVGID_2_);fill:#FFDDE1;}
	.st39{clip-path:url(#SVGID_7_);fill:url(#SVGID_8_);}
	.st40{clip-path:url(#SVGID_2_);fill:#BDC3C7;}
	.st41{clip-path:url(#SVGID_2_);fill:#2C3E50;}
	.st42{clip-path:url(#SVGID_10_);fill:url(#SVGID_11_);}
	.st43{clip-path:url(#SVGID_2_);fill:#373B44;}
	.st44{clip-path:url(#SVGID_2_);fill:#4286F4;}
	.st45{clip-path:url(#SVGID_13_);fill:url(#SVGID_14_);}
	.st46{clip-path:url(#SVGID_2_);fill:#FF0099;}
	.st47{clip-path:url(#SVGID_2_);fill:#493240;}
	.st48{clip-path:url(#SVGID_16_);fill:url(#SVGID_17_);}
	.st49{clip-path:url(#SVGID_2_);fill:#8E2DE2;}
	.st50{clip-path:url(#SVGID_2_);fill:#4A00E0;}
	.st51{clip-path:url(#SVGID_19_);fill:url(#SVGID_20_);}
	.st52{clip-path:url(#SVGID_2_);fill:#1F4037;}
	.st53{clip-path:url(#SVGID_2_);fill:#99F2C8;}
	.st54{clip-path:url(#SVGID_22_);fill:url(#SVGID_23_);}
	.st55{clip-path:url(#SVGID_2_);fill:#F953C6;}
	.st56{clip-path:url(#SVGID_2_);fill:#B91D73;}
	.st57{clip-path:url(#SVGID_25_);fill:url(#SVGID_26_);}
	.st58{clip-path:url(#SVGID_2_);fill:#F12711;}
	.st59{clip-path:url(#SVGID_2_);fill:#F5AF19;}
	.st60{clip-path:url(#SVGID_28_);fill:url(#SVGID_29_);}
	.st61{clip-path:url(#SVGID_2_);fill:#8360C3;}
	.st62{clip-path:url(#SVGID_2_);fill:#2EBF91;}
	.st63{clip-path:url(#SVGID_31_);fill:url(#SVGID_32_);}
	.st64{clip-path:url(#SVGID_2_);fill:#009FFF;}
	.st65{clip-path:url(#SVGID_34_);fill:url(#SVGID_35_);}
	.st66{clip-path:url(#SVGID_2_);fill:#EC2F4B;}
	.st67{clip-path:url(#SVGID_37_);fill:url(#SVGID_38_);}
	.st68{clip-path:url(#SVGID_2_);fill:#654EA3;}
	.st69{clip-path:url(#SVGID_2_);fill:#EAAFC8;}
	.st70{clip-path:url(#SVGID_40_);fill:url(#SVGID_41_);}
	.st71{clip-path:url(#SVGID_2_);fill:#FF416C;}
	.st72{clip-path:url(#SVGID_2_);fill:#FF4B2B;}
	.st73{clip-path:url(#SVGID_43_);fill:url(#SVGID_44_);}
	.st74{clip-path:url(#SVGID_2_);fill:#C6FFDD;}
	.st75{clip-path:url(#SVGID_2_);fill:#FBD786;}
	.st76{clip-path:url(#SVGID_2_);fill:#F7797D;}
	.st77{clip-path:url(#SVGID_46_);fill:url(#SVGID_47_);}
	.st78{clip-path:url(#SVGID_2_);fill:#0F2027;}
	.st79{clip-path:url(#SVGID_2_);fill:#203A43;}
	.st80{clip-path:url(#SVGID_2_);fill:#2C5364;}
	.st81{clip-path:url(#SVGID_49_);fill:url(#SVGID_50_);}
	.st82{clip-path:url(#SVGID_2_);fill:#12C2E9;}
	.st83{clip-path:url(#SVGID_2_);fill:#C471ED;}
	.st84{clip-path:url(#SVGID_2_);fill:#F64F59;}
	.st85{clip-path:url(#SVGID_52_);fill:url(#SVGID_53_);}
	.st86{clip-path:url(#SVGID_2_);fill:#2980B9;}
	.st87{clip-path:url(#SVGID_2_);fill:#6DD5FA;}
	.st88{clip-path:url(#SVGID_2_);fill:#FFFFFF;}
	.st89{clip-path:url(#SVGID_55_);fill:url(#SVGID_56_);}
	.st90{clip-path:url(#SVGID_2_);fill:#AA4B6B;}
	.st91{clip-path:url(#SVGID_2_);fill:#6B6B83;}
	.st92{clip-path:url(#SVGID_2_);fill:#3B8D99;}
	.st93{clip-path:url(#SVGID_58_);fill:url(#SVGID_59_);}
	.st94{clip-path:url(#SVGID_2_);fill:#7F7FD5;}
	.st95{clip-path:url(#SVGID_2_);fill:#86A8E7;}
	.st96{clip-path:url(#SVGID_2_);fill:#91EAE4;}
	.st97{clip-path:url(#SVGID_61_);fill:url(#SVGID_62_);}
	.st98{fill:#ED6E2D;}
	.st99{fill:#F5CE29;}
	.st100{fill:#F12711;}
</style>
<g>
	<path class="st23" d="M822.9,827.4c-15,31.7-42.2,67.8-75.8,77.6c-97.9,28.7-103.4-0.4-243.4-0.4c-79.2,0-130.4,6.7-161.5,13.2
		c-61.4,12.9-122.7-23.6-139.3-84.1c-20.8-75.8,4-171.7,13.7-204.2c2.2-7.3,1.2-15.3-2.8-21.8c-35.8-59.3-52.3-82.4-59.2-112.3
		C144,448.9,189.4,409.2,234,426c0.2,0.1,0.3,0.1,0.5,0.2c0.4,0.2,0.8,0.3,1.2,0.4c13.6,4.5,28.2-22.9,32.8-36.5l29.8-89.6
		c6.8-24.8,13.6-50.2,25.1-73.3c15.3-30.8,44.5-43.7,71.6-62.7c28.3-19.8,55.6-41.1,81.7-63.8c10.7-9.3,20.2-15.1,28.8-18.2
		c49.3-17.7,69.8,53.4,122.9,69c65.8,19.4,111.3,92.3,142.6,179.1c8.5,23.7,34,36.5,58.2,29.3c0.2-0.1,0.4-0.1,0.6-0.2
		c26.2-7.6,50.3,5.1,63.8,27.8c12.9,21.6,7.5,48.5,1.1,71.3c-13.4,47.3-51.7,99.9-64,115.9c-2.4,3.2-3.5,7.2-3,11.2
		c5.3,42.3,11,84.6,12.4,127.3C841.3,751.9,839.7,791.9,822.9,827.4z"/>
</g>
<g>
	<g>
		<path class="st24" d="M866.6,459c6.4-22.8,11.8-49.7-1.1-71.3c-13.5-22.7-37.7-35.5-63.8-27.8c-1.8,0.5-3.5,1.1-5.3,1.7
			c11.8,4.9,22,14.1,29.1,26.2c12.9,21.6,7.5,48.5,1.1,71.3c-13.4,47.3-51.7,99.9-64,115.9c-2.5,3.2-3.5,7.2-3,11.2
			c5.3,42.3,11,84.6,12.4,127.3c1.3,38.5-0.2,78.5-17,113.9c-15,31.7-42.2,67.8-75.8,77.6c-22.4,6.6-40,10.1-55.4,11.7
			c26.8,2.4,52.1,1.1,95.4-11.7c33.6-9.9,60.8-45.9,75.8-77.6c16.8-35.4,18.3-75.4,17-113.9c-1.5-42.6-7.1-85-12.4-127.3
			c-0.5-4,0.6-8,3-11.2C814.8,558.9,853.2,506.3,866.6,459z"/>
	</g>
</g>
<g>
	<circle class="st24" cx="374" cy="486.6" r="16.7"/>
</g>
<g>
	<circle class="st24" cx="645.2" cy="486.6" r="16.7"/>
</g>
<g>
	<path class="st13" d="M289.4,927.8c-55.8,0-106.6-36.9-121.8-92.2c-21.1-76.7,2.6-171.3,13.8-208.3c1.6-5.4,0.9-11-2-15.9
		c-23.9-39.7-41.4-75.4-52-106.3c-3.2-9.2-5.9-18.3-8.1-27.8c-5.7-24.6,2.3-49.1,21.3-65.7c19-16.6,44.4-21.2,68-12.3l0.4,0.1
		c0.3,0.1,0.5,0.2,0.7,0.2l0.3,0.1c4.2,1.4,8.7,1.1,12.8-0.7c4.9-2.1,8.8-6.3,10.5-11.5c1.3-3.9,5.6-6,9.5-4.7
		c3.9,1.3,6,5.6,4.7,9.5c-3.1,9.2-10,16.6-18.8,20.5c-7.5,3.2-15.5,3.6-23.2,1.2c-0.5-0.1-0.9-0.3-1.1-0.4l0,0l-0.6-0.1l-0.4-0.2
		c-0.1,0-0.2-0.1-0.3-0.1c-18.3-6.8-37.9-3.2-52.6,9.7c-14.7,12.9-20.9,32-16.5,51c2.1,9,4.6,17.6,7.7,26.3
		c10.3,29.9,27.3,64.7,50.6,103.4c5.1,8.3,6.4,18.5,3.6,27.9c-8.4,28-34.2,125.1-13.7,200.1c15.4,56.3,72.8,90.9,130.5,78.7
		c29.2-6.1,81.1-13.4,163-13.4c56.9,0,91.6,4.7,119.5,8.5c40.4,5.5,64.8,8.8,121.8-7.8c31.1-9.1,57.1-44,71.1-73.6
		c1.8-3.7,6.2-5.3,10-3.6c3.7,1.8,5.3,6.2,3.6,10c-7.5,15.8-35.4,68.4-80.5,81.6c-60,17.6-87.1,13.9-128,8.3
		c-27.5-3.7-61.6-8.4-117.5-8.4c-80.6,0-131.5,7.1-160,13C306.9,927,298.1,927.8,289.4,927.8z"/>
</g>
<g>
	<path class="st13" d="M811.9,720.9c-4,0-7.3-3.2-7.5-7.2c-1.4-40.4-6.7-81.4-11.7-121.1l-0.7-5.5c-0.7-5.9,0.8-11.8,4.4-16.6
		c8.2-10.7,36.1-48.3,53.2-87.2c4-9.1,7.3-18,9.7-26.3c6.4-22.9,10.8-46.7-0.3-65.4c-12.7-21.4-33.9-30.8-55.2-24.5
		c-10,2.9-20.6,7.5-30.4,13.3c-4.6,2.7-10,3.1-15,1.2c-5-1.9-8.8-6-10.4-11.1c-0.4-1.2-0.7-2.3-1.1-3.4c-0.4-1.1-0.7-2.3-1.1-3.4
		c-17-54.2-37.1-98.7-59.7-132.2c-26-38.6-55.7-63-88.2-72.6c-24.6-7.2-42.5-25.3-58.3-41.2c-22.5-22.6-37.4-36.1-60-28
		c-8,2.9-16.9,8.5-26.4,16.8c-26.1,22.6-53.8,44.2-82.3,64.3c-6,4.2-12.1,8.1-18,11.9c-20.6,13.2-40.1,25.7-51.1,48
		c-1.8,3.7-6.3,5.2-10,3.4c-3.7-1.8-5.2-6.3-3.4-10c12.8-26,35-40.2,56.4-53.9c5.8-3.7,11.8-7.5,17.5-11.6
		c28.1-19.8,55.4-41.1,81.1-63.3c11-9.6,21.2-16,31.2-19.6c32.7-11.7,54.6,10.3,75.7,31.5c15.2,15.3,31,31.2,51.9,37.3
		c66.2,19.6,119.4,91.8,157.9,214.8c0.4,1.2,0.7,2.3,1.1,3.4c0.4,1.1,0.7,2.3,1.1,3.4c0.3,1,1,1.4,1.5,1.6c0.5,0.2,1.2,0.3,2-0.2
		c10.9-6.4,22.6-11.5,33.8-14.7c27.8-8.2,56.2,4,72.3,31.2c14.1,23.6,8.9,52.3,1.9,77.2c-2.6,9-6.1,18.5-10.4,28.2
		c-17.8,40.5-46.6,79.3-55,90.3c-1.2,1.6-1.8,3.7-1.5,5.7l0.7,5.5c5.1,40,10.4,81.4,11.9,122.5c0.1,4.1-3.1,7.6-7.2,7.8
		C812,720.9,811.9,720.9,811.9,720.9z"/>
</g>
<g>
	
		<ellipse transform="matrix(0.8634 -0.5046 0.5046 0.8634 -21.7375 350.654)" class="st6" cx="636.6" cy="215.5" rx="7.8" ry="7.8"/>
</g>
<g>
	<path class="st6" d="M620.1,205.7c-2,0-4.1-0.8-5.6-2.5c-27.9-30.9-72.8-31.8-73.2-31.8c-4.1,0-7.5-3.4-7.4-7.6s3.4-7.5,7.6-7.4
		c2.1,0,51.8,0.8,84.2,36.8c2.8,3.1,2.5,7.8-0.5,10.6C623.7,205,621.9,205.7,620.1,205.7z"/>
</g>
<g>
	<path class="st13" d="M252.3,370.3c-1.8,0-3.6-0.7-5.1-2c-3-2.8-3.2-7.4-0.5-10.5c4.7-6.5,20.1-60.4,32.3-108.9
		c1-4,5.1-6.5,9.1-5.4c4,1,6.5,5.1,5.4,9.1c-0.1,0.3-6.6,26.2-14,52.9c-15.5,55.6-19.7,60.1-21.7,62.3
		C256.3,369.4,254.3,370.3,252.3,370.3z M246.7,357.7C246.7,357.7,246.7,357.7,246.7,357.7C246.7,357.7,246.7,357.7,246.7,357.7z"/>
</g>
<g>
	<path class="st13" d="M802.7,815c-0.9,0-1.9-0.2-2.8-0.5c-3.8-1.5-5.7-5.9-4.2-9.8c8.8-22,9.1-72.1,9.1-72.6c0-4.1,3.4-7.5,7.5-7.5
		c0,0,0,0,0,0c4.1,0,7.5,3.4,7.5,7.5c0,2.2-0.2,53.5-10.1,78.2C808.4,813.2,805.6,815,802.7,815z"/>
</g>
<g>
	<path class="st6" d="M251.5,843.2c-1.8,0-3.7-0.7-5.1-2.1c-4.5-4.3-10.5-15-17.5-60.9c-3.8-24.5-6-47.9-6.1-48.1
		c-0.4-4.1,2.6-7.8,6.7-8.2c4.1-0.4,7.8,2.6,8.2,6.7c0,0.2,2.2,23.2,5.9,47.2c6.9,45.3,12.5,51.8,13.1,52.4
		c2.9,2.9,3.1,7.6,0.2,10.6C255.4,842.5,253.5,843.2,251.5,843.2z"/>
</g>
<g>
	
		<ellipse transform="matrix(0.9797 -0.2003 0.2003 0.9797 -137.8286 60.4256)" class="st6" cx="229.7" cy="711.3" rx="7.8" ry="7.8"/>
</g>
<g>
	<circle class="st25" cx="340.5" cy="170.9" r="71.2"/>
	<path class="st13" d="M340.5,249.6c-43.4,0-78.7-35.3-78.7-78.7c0-43.4,35.3-78.7,78.7-78.7c43.4,0,78.7,35.3,78.7,78.7
		C419.2,214.3,383.9,249.6,340.5,249.6z M340.5,107.2c-35.1,0-63.7,28.6-63.7,63.7c0,35.1,28.6,63.7,63.7,63.7
		c35.1,0,63.7-28.6,63.7-63.7C404.2,135.7,375.6,107.2,340.5,107.2z"/>
</g>
<g>
	<circle class="st26" cx="697.5" cy="258.4" r="71.2"/>
	<path class="st13" d="M697.5,337.1c-43.4,0-78.7-35.3-78.7-78.7c0-43.4,35.3-78.7,78.7-78.7s78.7,35.3,78.7,78.7
		C776.2,301.8,740.9,337.1,697.5,337.1z M697.5,194.7c-35.1,0-63.7,28.6-63.7,63.7c0,35.1,28.6,63.7,63.7,63.7s63.7-28.6,63.7-63.7
		C761.2,223.2,732.6,194.7,697.5,194.7z"/>
</g>
<g>
	<circle class="st13" cx="445.5" cy="402.4" r="19"/>
</g>
<g>
	<circle class="st13" cx="573.2" cy="402.4" r="19"/>
</g>
<g>
	<g>
		<path class="st100" d="M117.7,360.3c-4.2,0.3-8.7-0.9-12.1-3.5c-6.4-4.9-9.3-13.2-10.2-21.2c-1.6-14.7,2.9-29.3,11.2-41.6
			L117.7,360.3z"/>
	</g>
	<g>
		<path class="st6" d="M127.4,355.5c-2.4,3-5.9,4.6-9.7,4.8L106.6,294c5.4-7.9,12.4-14.9,20.4-20.1c0.6-0.4,1.2-0.8,1.8-1.1
			l6.5,38.7c-3,3.4-5.1,7.2-6,11.3C127.1,333.8,134.3,346.7,127.4,355.5z"/>
	</g>
	<g>
		<path class="st100" d="M147.4,302.3c-4.6,2.3-8.8,5.5-12.1,9.2l-6.5-38.7c6.7-4.1,14.2-7,21.9-8.6L147.4,302.3z"/>
	</g>
	<g>
		<path class="st6" d="M164.3,298c-5.5,0-11.5,1.6-16.9,4.4l3.4-38.2c5.5-1.2,11.1-1.7,16.6-1.6L164.3,298z"/>
	</g>
	<g>
		<path class="st100" d="M186.3,308.4c-4.4-4.3-9.3-7.7-14.8-9.5c-2.3-0.7-4.7-1-7.3-1l3.1-35.4c7.8,0.2,15.5,1.6,22.6,4.5
			L186.3,308.4z"/>
	</g>
	<g>
		<path class="st6" d="M203.4,331.4c-4.9-8-10.5-16.5-17.1-22.9l0,0l3.6-41.4c6.7,2.7,12.9,6.7,18,11.9L203.4,331.4z"/>
	</g>
	<g>
		<path class="st100" d="M222.7,363.8c-5.3-9.6-9.2-16.3-11.3-19.5c-2.5-3.8-5.1-8.2-8-12.8l0,0L208,279l0,0
			c7.6,7.7,12.6,17.6,17.6,27.2c0.6,1.2,1.2,2.4,1.8,3.6L222.7,363.8z"/>
	</g>
	<g>
		<path class="st6" d="M241.7,398.8c-7.5-13.9-13.9-25.8-19-35l4.7-53.9c6.3,12.3,12.6,24.6,18.9,36.9L241.7,398.8z"/>
	</g>
	<g>
		<path class="st100" d="M260.7,434.4c-6.8-12.9-13.2-24.8-19-35.6l4.6-52.1c6.3,12.3,12.6,24.5,18.9,36.8l0,0L260.7,434.4z"/>
	</g>
	<g>
		<path class="st6" d="M279.6,470.3c-6.6-12.6-13-24.6-19-35.9l4.5-50.9c6.3,12.3,12.6,24.5,18.9,36.8L279.6,470.3z"/>
	</g>
	<g>
		<path class="st100" d="M298.6,506.3c-6.5-12.4-12.8-24.4-18.9-36l4.4-50c3.6,6.9,7.1,13.9,10.7,20.8c2.7,5.3,5.5,10.6,8.2,15.9
			L298.6,506.3z"/>
	</g>
	<g>
		<path class="st6" d="M317.5,542.5c-6.4-12.2-12.7-24.3-18.9-36.2l4.3-49.3c6.3,12.2,12.6,24.5,18.9,36.7l0,0L317.5,542.5z"/>
	</g>
	<g>
		<path class="st100" d="M336.4,578.7c-6.3-12.1-12.7-24.3-18.9-36.2l4.3-48.7c6.3,12.2,12.6,24.5,18.9,36.7L336.4,578.7z"/>
	</g>
	<g>
		<path class="st6" d="M355.3,615c-6.3-12-12.6-24.2-18.9-36.3l4.2-48.3c6.3,12.2,12.6,24.5,18.9,36.7L355.3,615z"/>
	</g>
	<g>
		<path class="st100" d="M374.2,651.4c-6.2-11.9-12.5-24.1-18.9-36.4l0,0l4.2-47.9c6.3,12.2,12.6,24.5,18.9,36.7L374.2,651.4z"/>
	</g>
	<g>
		<path class="st6" d="M393.1,687.8c-6.1-11.8-12.4-24-18.9-36.4l4.2-47.5c6.3,12.2,12.6,24.5,18.9,36.7L393.1,687.8z"/>
	</g>
	<g>
		<path class="st100" d="M412,724.3c-6-11.5-12.3-23.7-18.9-36.5l4.2-47.2c6.3,12.2,12.6,24.5,18.9,36.7L412,724.3z"/>
	</g>
	<g>
		<path class="st6" d="M477.7,810.1l-9.7,6.3c-3.3,2.2-7.8,1-9.7-2.5c-2-3.9-4.9-9.5-8.5-16.5l0,0l4.1-46.6
			c8.7,16.9,17.4,33.8,26,50.7C481.5,804.4,480.5,808.2,477.7,810.1z"/>
	</g>
	<g>
		<path class="st100" d="M449.8,797.3c-5-9.7-11.4-22.1-18.9-36.6L435,714c6.3,12.2,12.6,24.5,18.9,36.7l0,0L449.8,797.3z"/>
	</g>
	<g>
		<path class="st6" d="M430.9,760.8c-5.7-11.1-12.1-23.3-18.9-36.5l4.1-47c6.3,12.2,12.6,24.5,18.9,36.7L430.9,760.8z"/>
	</g>
	<g>
		<path class="st13" d="M464.3,825c-1.2,0-2.4-0.2-3.6-0.5c-3.9-1-7.2-3.7-9-7.2c-23-44.6-225.6-437-246.5-469
			c-1.8-2.7-3.6-5.7-5.5-8.8c-8-13.2-18-29.5-30.3-33.4c-5.5-1.7-13.6-0.1-20.6,4c-6.5,3.8-11,9.1-12,14.2
			c-0.7,3.2-0.1,7.1,0.4,11.3c1,7.4,2.2,16.7-3.8,24.4c-8,10.3-23.2,9.6-32.3,2.6c-9.2-7.1-12.2-18.3-13.1-26.4
			c-2.8-25.7,11.3-53.3,35-68.8c13.5-8.8,30-13.2,46.4-12.5c17.4,0.8,33,7.4,44,18.6c8.5,8.6,14,19.5,18.9,29.1
			c23.6,46.3,46.9,91.6,69.1,134.8L486.6,798c3.3,6.5,1.2,14.4-4.9,18.4l-9.7,6.3C469.8,824.2,467,825,464.3,825z M164.4,290.5
			c3.3,0,6.5,0.4,9.4,1.4c17.8,5.5,29.4,24.6,38.7,39.9c1.8,3,3.6,5.9,5.2,8.4c20.9,31.8,208.4,394.9,246.9,469.6l8.4-5.5L288,444.5
			c-22.2-43.2-45.5-88.6-69.1-134.8c-4.6-9-9.4-18.4-16.2-25.4c-17-17.3-48.4-19.1-71.5-4.1c-19.1,12.4-30.5,34.4-28.3,54.6
			c0.5,4.3,2,12,7.3,16.1c3.5,2.7,9.2,2.7,11.3,0c2-2.6,1.6-6.7,0.8-13.2c-0.7-5-1.4-10.7-0.2-16.3c1.9-9.3,8.9-18.1,19.1-24.1
			C148.6,292.8,156.8,290.5,164.4,290.5z"/>
	</g>
	<g>
		<path class="st13" d="M246.3,347.2C246.3,347.2,246.3,347.2,246.3,347.2c-0.3,0-0.5-0.3-0.5-0.5l1.1-12.4c0-0.3,0.3-0.5,0.5-0.5
			c0.3,0,0.5,0.3,0.5,0.5l-1.1,12.4C246.8,347,246.5,347.2,246.3,347.2z"/>
	</g>
</g>
<g>
	<path class="st13" d="M510,476.9c-4.1,0-7.5-3.4-7.5-7.5c0-3-0.5-4.3-0.7-4.8c-0.3,0-0.6,0.1-0.8,0.1l0.2-0.1l-5.6-13.9
		c0.8-0.3,8.2-3.1,14.7,1.3c4.8,3.3,7.3,9.1,7.3,17.3C517.5,473.6,514.1,476.9,510,476.9z"/>
</g>
</svg>
