<?xml version="1.0" encoding="utf-8"?>
<!-- Generator: Adobe Illustrator 21.0.0, SVG Export Plug-In . SVG Version: 6.00 Build 0)  -->
<svg version="1.1" id="图层_1" xmlns="http://www.w3.org/2000/svg" xmlns:xlink="http://www.w3.org/1999/xlink" x="0px" y="0px"
	 viewBox="0 0 1000 1000" style="enable-background:new 0 0 1000 1000;" xml:space="preserve">
<style type="text/css">
	.st0{fill:#F5B619;}
	.st1{fill:#F4ED4F;}
	.st2{fill:#A7CF5B;}
	.st3{fill:#8AD0E3;}
	.st4{fill:#77C6B0;}
	.st5{fill:#B37CB4;}
	.st6{fill:#FFFFFF;}
	.st7{fill:#EB5C29;}
	.st8{fill:#74AEBE;}
	.st9{fill:#D3D1D2;}
	.st10{fill:#64A694;}
	.st11{fill:#946796;}
	.st12{fill:#EF8CA4;}
	.st13{fill:#565656;}
	.st14{fill:#EFEFEF;}
	.st15{fill:#FF6464;}
	.st16{fill:#82CFF0;}
	.st17{fill:#F7D426;}
	.st18{fill:#DB8D0F;}
	.st19{fill:#EB6043;}
	.st20{fill:none;stroke:#565656;stroke-width:15;stroke-linecap:round;stroke-miterlimit:10;}
	.st21{fill:none;stroke:#FFFFFF;stroke-width:15;stroke-linecap:round;stroke-miterlimit:10;}
	.st22{fill:#8CD3B6;stroke:#565656;stroke-width:15;stroke-linecap:round;stroke-miterlimit:10;}
	.st23{fill:#CEEAF6;}
	.st24{fill:#F7F6C3;}
	.st25{fill:#EE859E;}
</style>
<g>
	<path class="st14" d="M822.9,827.3c-15,31.7-42.2,67.8-75.8,77.6c-97.9,28.7-103.4-0.4-243.4-0.4c-79.2,0-130.4,6.7-161.5,13.2
		c-61.4,12.9-122.7-23.6-139.3-84.1c-20.8-75.8,4-171.7,13.7-204.2c2.2-7.3,1.2-15.3-2.8-21.8c-35.8-59.3-52.3-82.4-59.2-112.3
		c-10.6-46.5,34.8-86.2,79.4-69.4c0.2,0.1,0.3,0.1,0.5,0.2c0.4,0.2,0.8,0.3,1.2,0.4c13.6,4.5,28.2-22.9,32.8-36.5l29.8-89.6
		c6.8-24.8,13.6-50.2,25.1-73.3c15.3-30.8,44.5-43.7,71.6-62.7c28.3-19.8,55.6-41.1,81.7-63.8c10.7-9.3,20.2-15.1,28.8-18.2
		c49.3-17.7,69.8,53.4,122.9,69c65.8,19.4,111.3,92.3,142.6,179.1c8.5,23.7,34,36.5,58.2,29.3c0.2-0.1,0.4-0.1,0.6-0.2
		c26.2-7.6,50.3,5.1,63.8,27.8c12.9,21.6,7.5,48.5,1.1,71.3c-13.4,47.3-51.7,99.9-64,115.9c-2.4,3.2-3.5,7.2-3,11.2
		c5.3,42.3,11,84.6,12.4,127.3C841.3,751.8,839.7,791.8,822.9,827.3z"/>
</g>
<g>
	<g>
		<path class="st9" d="M866.6,458.9c6.4-22.8,11.8-49.7-1.1-71.3c-13.5-22.7-37.7-35.5-63.8-27.8c-1.8,0.5-3.5,1.1-5.3,1.7
			c11.8,4.9,22,14.1,29.1,26.2c12.9,21.6,7.5,48.5,1.1,71.3c-13.4,47.3-51.7,99.9-64,115.9c-2.5,3.2-3.5,7.2-3,11.2
			c5.3,42.3,11,84.6,12.4,127.3c1.3,38.5-0.2,78.5-17,113.9c-15,31.7-42.2,67.8-75.8,77.6c-22.4,6.6-40,10.1-55.4,11.7
			c26.8,2.4,52.1,1.1,95.4-11.7C752.8,895,780,859,795,827.3c16.8-35.4,18.3-75.4,17-113.9c-1.5-42.6-7.1-85-12.4-127.3
			c-0.5-4,0.6-8,3-11.2C814.8,558.8,853.2,506.2,866.6,458.9z"/>
	</g>
</g>
<g>
	<circle class="st15" cx="374" cy="486.5" r="16.7"/>
</g>
<g>
	<circle class="st15" cx="645.2" cy="486.5" r="16.7"/>
</g>
<g>
	<path class="st13" d="M289.4,927.8c-55.8,0-106.6-36.9-121.8-92.2c-21.1-76.7,2.6-171.3,13.8-208.3c1.6-5.4,0.9-11-2-15.9
		c-23.9-39.7-41.4-75.4-52-106.3c-3.2-9.2-5.9-18.3-8.1-27.8c-5.7-24.6,2.3-49.1,21.3-65.7c19-16.6,44.4-21.2,68-12.3l0.4,0.1
		c0.3,0.1,0.5,0.2,0.7,0.3l0.3,0.1c4.2,1.4,8.7,1.1,12.8-0.7c4.9-2.1,8.8-6.3,10.5-11.5c1.3-3.9,5.6-6,9.5-4.7
		c3.9,1.3,6,5.6,4.7,9.5c-3.1,9.2-10,16.6-18.8,20.5c-7.5,3.2-15.5,3.6-23.2,1.2c-0.5-0.1-0.9-0.3-1.1-0.4l-0.6-0.1l-0.4-0.2
		c-0.1,0-0.2-0.1-0.3-0.1c-18.3-6.8-37.9-3.2-52.6,9.7c-14.7,12.9-20.9,32-16.5,51c2.1,9,4.6,17.6,7.7,26.3
		c10.3,29.9,27.3,64.7,50.6,103.4c5.1,8.3,6.4,18.5,3.6,27.9c-8.4,28-34.2,125.1-13.7,200.1c15.4,56.3,72.8,90.9,130.5,78.7
		c29.2-6.1,81.1-13.4,163-13.4c56.9,0,91.6,4.7,119.5,8.5c40.4,5.5,64.8,8.8,121.8-7.8c31.1-9.1,57.1-44,71.1-73.6
		c1.8-3.7,6.2-5.3,10-3.6s5.3,6.2,3.6,10c-7.5,15.8-35.4,68.4-80.5,81.6c-60,17.6-87.1,13.9-128,8.3c-27.5-3.7-61.6-8.4-117.5-8.4
		c-80.6,0-131.5,7.1-160,13C306.9,926.9,298.1,927.8,289.4,927.8z"/>
</g>
<g>
	<path class="st13" d="M811.9,720.8c-4,0-7.3-3.2-7.5-7.2c-1.4-40.4-6.7-81.4-11.7-121.1l-0.7-5.5c-0.7-5.9,0.8-11.8,4.4-16.6
		c8.2-10.7,36.1-48.3,53.2-87.2c4-9.1,7.3-18,9.7-26.3c6.4-22.9,10.8-46.7-0.3-65.4c-12.7-21.4-33.9-30.8-55.2-24.5
		c-10,2.9-20.6,7.5-30.4,13.3c-4.6,2.7-10,3.1-15,1.2c-5-1.9-8.8-6-10.4-11.1c-0.4-1.2-0.7-2.3-1.1-3.4c-0.4-1.1-0.7-2.3-1.1-3.4
		c-17-54.2-37.1-98.7-59.7-132.2c-26-38.6-55.7-63-88.2-72.6c-24.6-7.2-42.5-25.3-58.3-41.2c-22.5-22.6-37.4-36.1-60-28
		c-8,2.9-16.9,8.5-26.4,16.8c-26.1,22.6-53.8,44.2-82.3,64.3c-6,4.2-12.1,8.1-18,11.9c-20.6,13.2-40.1,25.7-51.1,48
		c-1.8,3.7-6.3,5.2-10,3.4c-3.7-1.8-5.2-6.3-3.4-10c12.8-26,35-40.2,56.4-53.9c5.8-3.7,11.8-7.5,17.5-11.6
		c28.1-19.8,55.4-41.1,81.1-63.3c11-9.6,21.2-16,31.2-19.6c32.7-11.7,54.6,10.3,75.7,31.5c15.2,15.3,31,31.2,51.9,37.3
		c66.2,19.6,119.4,91.8,157.9,214.8c0.4,1.2,0.7,2.3,1.1,3.4c0.4,1.1,0.7,2.3,1.1,3.4c0.3,1,1,1.4,1.5,1.6c0.5,0.2,1.2,0.3,2-0.2
		c10.9-6.4,22.6-11.5,33.8-14.7c27.8-8.2,56.2,4,72.3,31.2c14.1,23.6,8.9,52.3,1.9,77.2c-2.6,9-6.1,18.5-10.4,28.2
		c-17.8,40.5-46.6,79.3-55,90.3c-1.2,1.6-1.8,3.7-1.5,5.7l0.7,5.5c5.1,40,10.4,81.4,11.9,122.5c0.1,4.1-3.1,7.6-7.2,7.8
		C812,720.8,811.9,720.8,811.9,720.8z"/>
</g>
<g>
	
		<ellipse transform="matrix(0.8634 -0.5046 0.5046 0.8634 -21.7177 350.6486)" class="st6" cx="636.6" cy="215.4" rx="7.8" ry="7.8"/>
</g>
<g>
	<path class="st6" d="M620.1,205.6c-2,0-4.1-0.8-5.6-2.5c-28.1-31.1-72.7-31.8-73.2-31.8c-4.1,0-7.5-3.4-7.4-7.6
		c0-4.1,3.4-7.5,7.6-7.4c2.1,0,51.8,0.8,84.2,36.8c2.8,3.1,2.5,7.8-0.5,10.6C623.7,205,621.9,205.6,620.1,205.6z"/>
</g>
<g>
	<path class="st13" d="M252.3,370.2c-1.8,0-3.6-0.7-5.1-2c-3-2.8-3.2-7.4-0.5-10.5c4.7-6.5,20.1-60.4,32.3-108.9
		c1-4,5.1-6.5,9.1-5.4c4,1,6.5,5.1,5.4,9.1c-0.1,0.3-6.6,26.2-14,52.9c-15.5,55.6-19.7,60.1-21.7,62.3
		C256.3,369.4,254.3,370.2,252.3,370.2z M246.7,357.6C246.7,357.7,246.7,357.7,246.7,357.6C246.7,357.7,246.7,357.7,246.7,357.6z"/>
</g>
<g>
	<path class="st13" d="M802.7,814.9c-0.9,0-1.9-0.2-2.8-0.5c-3.8-1.5-5.7-5.9-4.2-9.8c8.9-22,9.1-72.1,9.1-72.6
		c0-4.1,3.4-7.5,7.5-7.5c0,0,0,0,0,0c4.1,0,7.5,3.4,7.5,7.5c0,2.2-0.2,53.5-10.1,78.2C808.4,813.1,805.6,814.9,802.7,814.9z"/>
</g>
<g>
	<path class="st6" d="M251.5,843.2c-1.8,0-3.7-0.7-5.1-2.1c-4.5-4.3-10.5-15-17.5-60.9c-3.8-24.5-6-47.9-6.1-48.1
		c-0.4-4.1,2.6-7.8,6.7-8.2c4.1-0.4,7.8,2.6,8.2,6.7c0,0.2,2.2,23.2,5.9,47.2c6.9,45.3,12.5,51.8,13.1,52.4c3,2.9,3.1,7.6,0.2,10.6
		C255.4,842.4,253.5,843.2,251.5,843.2z"/>
</g>
<g>
	
		<ellipse transform="matrix(0.9797 -0.2003 0.2003 0.9797 -137.8207 60.4248)" class="st6" cx="229.7" cy="711.3" rx="7.8" ry="7.8"/>
	<path class="st6" d="M229.7,719.6c-1.6,0-3.2-0.5-4.6-1.4c-1.8-1.2-3.1-3.1-3.6-5.3c-0.4-2.2,0-4.4,1.2-6.2
		c1.2-1.9,3.1-3.1,5.3-3.6l0,0c2.2-0.4,4.4,0,6.2,1.2c1.9,1.2,3.1,3.1,3.6,5.3c0.9,4.5-2,8.9-6.5,9.8
		C230.8,719.5,230.2,719.6,229.7,719.6z M229.7,704c-0.5,0-1,0-1.5,0.2l0,0c-1.9,0.4-3.6,1.5-4.6,3.1s-1.5,3.6-1.1,5.5
		s1.5,3.6,3.1,4.6c1.6,1.1,3.6,1.5,5.5,1.1c3.9-0.8,6.5-4.7,5.7-8.6c-0.4-1.9-1.5-3.6-3.1-4.6C232.5,704.4,231.1,704,229.7,704z"/>
</g>
<g>
	<circle class="st16" cx="445.5" cy="402.3" r="19"/>
</g>
<g>
	<circle class="st16" cx="573.2" cy="402.3" r="19"/>
</g>
<g>
	<path class="st13" d="M240.2,496.4c0,0-15.3,7.2-9.4,26c6,18.8,14,14.7,4,33.2c-10,18.5,21,36,43.6,16.3s23.2-31.3,37.6-26.9
		c14.4,4.4,14.4-38.5-3.8-38.5C294.1,506.4,257.5,482.9,240.2,496.4z"/>
</g>
<g>
	<path class="st13" d="M405.7,767.7c-3.6-1.5-6.9-2.8-9.9-3.8c-16.2-5.7-27.9-19.9-30.4-36.9c-2.1-14.7-5.6-28.8-15.8-33.8
		c0,0-13.2-10.7-27.5,2.8c-14.3,13.5-7.2,19-28.2,18s-23.3,34.6,4.2,46.3c3.6,1.5,6.9,2.8,9.9,3.8c16.2,5.7,27.9,19.9,30.4,36.9
		c2.1,14.7,5.6,28.8,15.8,33.8c0,0,13.2,10.7,27.5-2.8c14.3-13.5,7.2-19,28.2-18C430.9,815,433.3,779.5,405.7,767.7z"/>
</g>
<g>
	<path class="st13" d="M338.5,354.2c11.4-4.7,40.5,0.6,47.8-12.3c0,0,7.8-8.5-0.8-18.7c-8.6-10.3-12.6-5.6-11.1-19.8
		c0-0.3,0-0.6,0-0.9c1.3-5.9,1.7-8.6,6.6-9.7c7.2-1.5-2.9-19.8-10.7-15.5c-7.7,4.3-28.9,2.9-33,12.7c0,0-4.8,6.7,2.1,13.3
		c1,1,1.9,1.7,2.8,2.3c-8.4,17.4-6.1,24.5-16.1,25.5C316.1,331.9,327.1,358.9,338.5,354.2z"/>
</g>
<g>
	<path class="st13" d="M612,330.7c0,0,11.8,4.3,18.6-8.7s0.4-15.1,15.3-19.5c14.9-4.5,7.9-29.9-14.3-31.4
		c-22.2-1.5-28.6,4.3-33.8-5.6c-5.3-9.9-27.8,12.7-18.2,22.2C589,297.2,595.9,328.8,612,330.7z"/>
</g>
<g>
	<path class="st13" d="M692,682.7c-24.5-12.7-28.4-0.7-36.9-28.9c-8.4-28.2-56.6-14.8-59.4,27.1c-2.1,31.6,3.5,46.2-1.5,55.8
		c-14.7-3.4-28.3-4-37.8,3.4c0,0-21.5,10.1-13.2,36.4c8.3,26.3,19.6,20.6,5.6,46.5c-14,25.9,29.5,50.5,61.1,22.8
		c31.6-27.7,32.5-43.9,52.7-37.8c17.6,5.4,19.9-39.6,3.3-51.3c20.3-10.1,40.3-21.8,42.4-39C708.5,717.8,716.5,695.5,692,682.7z"/>
</g>
<g>
	<path class="st23" d="M205.9,420.4H137c-6.6,0-12-5.4-12-12V275.1c0-6.6,5.4-12,12-12h68.9c6.6,0,12,5.4,12,12v133.3
		C217.9,415,212.5,420.4,205.9,420.4z"/>
</g>
<g>
	<path class="st13" d="M193.9,429.8H125c-10.8,0-19.5-8.7-19.5-19.5v-45.7c0-4.1,3.4-7.5,7.5-7.5s7.5,3.4,7.5,7.5v45.7
		c0,2.4,2.1,4.5,4.5,4.5h68.9c2.4,0,4.5-2.1,4.5-4.5V277c0-2.4-2.1-4.5-4.5-4.5H125c-2.4,0-4.5,2.1-4.5,4.5v48.7
		c0,4.1-3.4,7.5-7.5,7.5s-7.5-3.4-7.5-7.5V277c0-10.8,8.7-19.5,19.5-19.5h68.9c10.8,0,19.5,8.7,19.5,19.5v133.3
		C213.4,421.1,204.6,429.8,193.9,429.8z"/>
</g>
<g>
	<path class="st13" d="M205.9,296.7H175c-4.1,0-7.5-3.4-7.5-7.5s3.4-7.5,7.5-7.5h30.9c4.1,0,7.5,3.4,7.5,7.5S210,296.7,205.9,296.7z
		"/>
</g>
<g>
	<path class="st13" d="M205.9,324.5H175c-4.1,0-7.5-3.4-7.5-7.5s3.4-7.5,7.5-7.5h30.9c4.1,0,7.5,3.4,7.5,7.5S210,324.5,205.9,324.5z
		"/>
</g>
<g>
	<path class="st13" d="M205.9,352.2H175c-4.1,0-7.5-3.4-7.5-7.5s3.4-7.5,7.5-7.5h30.9c4.1,0,7.5,3.4,7.5,7.5S210,352.2,205.9,352.2z
		"/>
</g>
<g>
	<path class="st13" d="M205.9,380H175c-4.1,0-7.5-3.4-7.5-7.5s3.4-7.5,7.5-7.5h30.9c4.1,0,7.5,3.4,7.5,7.5S210,380,205.9,380z"/>
</g>
<g>
	<path class="st24" d="M155.7,212.8c-11,0,1,25.7-12.3,25.7C130,238.5,133,265,133,265h45.3c0,0,3-26.5-10.3-26.5
		S166.7,212.8,155.7,212.8z"/>
	<path class="st13" d="M185,272.5h-58.7l-0.8-6.7c-0.4-3.4-1.9-20.8,6-29.6c2.9-3.2,6.7-5,11-5.2c0.3-1.6,0.3-4.5,0.3-6.3
		c0-3.5,0-7.1,1-10.4c1.7-5.6,6.1-9,11.8-9s10.1,3.4,11.8,9c1,3.3,1,6.9,1,10.4c0,1.9,0,4.7,0.3,6.3c4.3,0.2,8.1,2,11,5.2
		c7.9,8.8,6.4,26.2,6,29.6L185,272.5z M140.2,257.5h30.9c-0.2-4.9-1-9.6-2.5-11.3c-0.2-0.2-0.2-0.2-0.6-0.2c-5.6,0-10-2.6-12.3-7.3
		c-2.4,4.7-6.8,7.3-12.3,7.3c-0.4,0-0.4,0-0.6,0.3C141.1,248.1,140.4,252.8,140.2,257.5z"/>
</g>
<g>
	<path class="st13" d="M113,355.6c-4.1,0-7.5-3.4-7.5-7.5V343c0-4.1,3.4-7.5,7.5-7.5s7.5,3.4,7.5,7.5v5.1
		C120.5,352.2,117.1,355.6,113,355.6z"/>
</g>
<g>
	<path class="st25" d="M498.7,447.4c0,0-6.3,26.3,14.9,26.3c0,0,14.6,1,14.6-24L498.7,447.4z"/>
</g>
<g>
	<path class="st13" d="M528.5,458.1c-3.6,0-7.2-0.5-10.7-1.4l-15.4-4.1c-4.2-1.1-8.6-1.2-12.8-0.2l-9.7,2.3c-4,1-8.1-1.5-9-5.5
		c-1-4,1.5-8.1,5.5-9l9.7-2.3c6.6-1.6,13.6-1.5,20.2,0.2l15.4,4.1c3.9,1,8,1.2,11.9,0.4l13.1-2.5c4.1-0.8,8,1.9,8.8,5.9
		c0.8,4.1-1.9,8-5.9,8.8l-13.1,2.5C533.7,457.9,531.1,458.1,528.5,458.1z"/>
</g>
</svg>
