<?xml version="1.0" encoding="utf-8"?>
<!-- Generator: Adobe Illustrator 21.0.0, SVG Export Plug-In . SVG Version: 6.00 Build 0)  -->
<svg version="1.1" id="图层_1" xmlns="http://www.w3.org/2000/svg" xmlns:xlink="http://www.w3.org/1999/xlink" x="0px" y="0px"
	 viewBox="0 0 1000 1000" style="enable-background:new 0 0 1000 1000;" xml:space="preserve">
<style type="text/css">
	.st0{fill:#2193B0;}
	.st1{fill:#6DD5ED;}
	.st2{fill:url(#SVGID_1_);}
	.st3{fill:#EE9CA7;}
	.st4{fill:#FFDDE1;}
	.st5{fill:url(#SVGID_2_);}
	.st6{fill:#BDC3C7;}
	.st7{fill:#2C3E50;}
	.st8{fill:url(#SVGID_3_);}
	.st9{fill:#373B44;}
	.st10{fill:#4286F4;}
	.st11{fill:url(#SVGID_4_);}
	.st12{fill:#FF0099;}
	.st13{fill:#493240;}
	.st14{fill:url(#SVGID_5_);}
	.st15{fill:#99F2C8;}
	.st16{fill:#8E2DE2;}
	.st17{fill:#4A00E0;}
	.st18{fill:url(#SVGID_6_);}
	.st19{fill:#1F4037;}
	.st20{fill:url(#SVGID_7_);}
	.st21{fill:#F953C6;}
	.st22{fill:#B91D73;}
	.st23{fill:url(#SVGID_8_);}
	.st24{fill:#F12711;}
	.st25{fill:#F5AF19;}
	.st26{fill:url(#SVGID_9_);}
	.st27{fill:#8360C3;}
	.st28{fill:#2EBF91;}
	.st29{fill:url(#SVGID_10_);}
	.st30{fill:#009FFF;}
	.st31{fill:url(#SVGID_11_);}
	.st32{fill:#EC2F4B;}
	.st33{fill:url(#SVGID_12_);}
	.st34{fill:#654EA3;}
	.st35{fill:#EAAFC8;}
	.st36{fill:url(#SVGID_13_);}
	.st37{fill:#FF416C;}
	.st38{fill:#FF4B2B;}
	.st39{fill:url(#SVGID_14_);}
	.st40{fill:#C6FFDD;}
	.st41{fill:#FBD786;}
	.st42{fill:#F7797D;}
	.st43{fill:url(#SVGID_15_);}
	.st44{fill:#0F2027;}
	.st45{fill:#203A43;}
	.st46{fill:#2C5364;}
	.st47{fill:url(#SVGID_16_);}
	.st48{fill:#12C2E9;}
	.st49{fill:#C471ED;}
	.st50{fill:#F64F59;}
	.st51{fill:url(#SVGID_17_);}
	.st52{fill:#2980B9;}
	.st53{fill:#6DD5FA;}
	.st54{fill:#FFFFFF;}
	.st55{fill:url(#SVGID_18_);}
	.st56{fill:#AA4B6B;}
	.st57{fill:#6B6B83;}
	.st58{fill:#3B8D99;}
	.st59{fill:url(#SVGID_19_);}
	.st60{fill:#7F7FD5;}
	.st61{fill:#86A8E7;}
	.st62{fill:#91EAE4;}
	.st63{fill:url(#SVGID_20_);}
	.st64{fill:#F7D426;}
	.st65{fill:#DB8D0F;}
	.st66{fill:none;stroke:#565656;stroke-width:15;stroke-linecap:round;stroke-miterlimit:10;}
	.st67{fill:none;stroke:#565656;stroke-width:15;stroke-miterlimit:10;}
	.st68{fill:#565656;}
	.st69{fill:#EB6043;}
	.st70{fill:none;}
	.st71{fill:none;stroke:#FFFFFF;stroke-width:15;stroke-linecap:round;stroke-miterlimit:10;}
	.st72{fill:#EA5977;}
	.st73{fill:#90D2E6;}
	.st74{fill:#4AA7BC;}
	.st75{fill:#F4E830;}
</style>
<g>
	<g>
		<path class="st72" d="M253.8,211.1L218,189.8c-6.6-5.7-7.3-15.8-1.6-22.4l19.9-23c5.7-6.6,15.8-7.3,22.4-1.6l26.6,36.1
			c6.6,5.7,7.3,15.8,1.6,22.4l-10.7,8.3C270.5,216,260.4,216.8,253.8,211.1z"/>
		<path class="st68" d="M264.2,222.4c-5.2,0-10.4-1.7-14.7-5.2l-35.9-21.3l-0.5-0.4c-9.8-8.4-10.8-23.2-2.4-33l19.9-23
			c4.1-4.7,9.8-7.6,16-8c6.2-0.5,12.3,1.5,17,5.6l0.6,0.5l26.6,36.1c4.3,4,6.9,9.4,7.3,15.4c0.5,6.2-1.5,12.3-5.6,17l-0.5,0.6
			l-10.7,8.3C276.7,219.9,270.5,222.4,264.2,222.4z M222.5,183.7l35.7,21.3l0.5,0.4c3.5,3,8.8,2.6,11.8-0.9l0.5-0.6l10.6-8.2
			c1.2-1.6,1.8-3.6,1.6-5.6c-0.2-2.2-1.2-4.3-2.9-5.7l-0.6-0.6l-26.5-36c-1.6-1.2-3.5-1.7-5.5-1.6c-2.2,0.2-4.3,1.2-5.7,2.9
			l-19.9,23C219.1,175.6,219.3,180.6,222.5,183.7z"/>
	</g>
	<g>
		<path class="st72" d="M731.6,149.6l34.9-35c8.5-6,20.3-3.9,26.2,4.6l20.8,29.5c6,8.5,3.9,20.3-4.6,26.2l-49.2,20.1
			c-8.5,6-20.3,3.9-26.2-4.6l-6.5-14.7C721.1,167.4,723.2,155.6,731.6,149.6z"/>
		<path class="st68" d="M749,206c-8.3,0-16.5-3.9-21.6-11.2l-0.4-0.6l-6.5-14.7c-3.7-5.6-5.1-12.3-3.9-19
			c1.2-6.7,4.8-12.6,10.2-16.6l34.9-35.1l0.5-0.4c5.7-4,12.7-5.6,19.7-4.4c6.9,1.2,13,5,17,10.8l20.8,29.5
			c8.3,11.9,5.5,28.3-6.4,36.7l-0.7,0.5l-49.2,20.2C758.9,204.6,753.9,206,749,206z M740,186.7c3.7,4.7,10.5,5.7,15.4,2.2l0.7-0.5
			l49.1-20.1c4.6-3.7,5.6-10.4,2.2-15.4l-20.8-29.5c-1.7-2.5-4.3-4.1-7.3-4.6c-2.8-0.5-5.6,0.1-8,1.5l-34.8,35l-0.5,0.4
			c-2.5,1.7-4.1,4.3-4.6,7.3s0.1,6,1.9,8.5l0.4,0.6L740,186.7z M731.6,149.6L731.6,149.6L731.6,149.6z"/>
	</g>
	<g>
		<g>
			<path class="st73" d="M839.9,829.4c-15,31.7-42.2,67.8-75.8,77.6c-97.9,28.7-103.4-0.4-243.4-0.4c-79.2,0-130.4,6.7-161.5,13.2
				c-61.4,12.9-122.7-23.6-139.3-84.1c-20.8-75.8,4-171.7,13.7-204.2c2.2-7.3,1.2-15.3-2.8-21.8c-35.8-59.3-52.3-82.4-59.2-112.3
				C161,450.9,206.4,411.2,251,428c0.2,0.1,0.3,0.1,0.5,0.2c0.4,0.2,0.8,0.3,1.2,0.4c13.6,4.5,28.2-22.9,32.8-36.5l29.8-89.6
				c6.8-24.8,13.6-50.2,25.1-73.3c15.3-30.8,44.5-43.7,71.6-62.7c28.3-19.8,55.6-41.1,81.7-63.8c10.7-9.3,20.2-15.1,28.8-18.2
				c49.3-17.7,69.8,53.4,122.9,69c65.8,19.4,111.3,92.3,142.6,179.1c8.5,23.7,34,36.5,58.2,29.3c0.2-0.1,0.4-0.1,0.6-0.2
				c26.2-7.6,50.3,5.1,63.8,27.8c12.9,21.6,7.5,48.5,1.1,71.3c-13.4,47.3-51.7,99.9-64,115.9c-2.4,3.2-3.5,7.2-3,11.2
				c5.3,42.3,11,84.6,12.4,127.3C858.3,753.9,856.7,793.9,839.9,829.4z"/>
		</g>
	</g>
	<g>
		<g>
			<g>
				<path class="st74" d="M883.6,461c6.4-22.8,11.8-49.7-1.1-71.3c-13.5-22.7-37.7-35.5-63.8-27.8c-1.8,0.5-3.5,1.1-5.3,1.7
					c11.8,4.9,22,14.1,29.1,26.2c12.9,21.6,7.5,48.5,1.1,71.3c-13.4,47.3-51.7,99.9-64,115.9c-2.5,3.2-3.5,7.2-3,11.2
					c5.3,42.3,11,84.6,12.4,127.3c1.3,38.5-0.2,78.5-17,113.9c-15,31.7-42.2,67.8-75.8,77.6c-22.4,6.6-40,10.1-55.4,11.7
					c26.8,2.4,52.1,1.1,95.4-11.7c33.6-9.9,60.8-45.9,75.8-77.6c16.8-35.4,18.3-75.4,17-113.9c-1.5-42.6-7.1-85-12.4-127.3
					c-0.5-4,0.6-8,3-11.2C831.8,560.9,870.2,508.3,883.6,461z"/>
			</g>
		</g>
	</g>
	<g>
		<g>
			<circle class="st72" cx="391" cy="488.6" r="16.7"/>
		</g>
	</g>
	<g>
		<g>
			<circle class="st72" cx="662.2" cy="488.6" r="16.7"/>
		</g>
	</g>
	<g>
		<g>
			<path class="st68" d="M306.5,929.9c-55.9,0-106.6-36.9-121.8-92.2c-21-76.6,2.6-171.2,13.8-208.3c1.6-5.3,0.8-11.1-2-15.8
				c-23.8-39.5-41.3-75.2-52-106.2c-3.4-9.7-6.1-19.1-8.1-27.9c-5.6-24.6,2.3-49.1,21.3-65.7c19-16.6,44.4-21.2,67.9-12.3l0.2,0.1
				c0.1,0.1,0.3,0.1,0.4,0.2l0,0c0.2,0.1,0.5,0.2,0.7,0.3c4.2,1.4,8.8,1.2,12.8-0.6c5-2.2,8.8-6.4,10.6-11.5
				c1.3-3.9,5.6-6.1,9.5-4.8c3.9,1.3,6.1,5.6,4.8,9.5c-3.1,9.2-9.9,16.7-18.8,20.6c-7.4,3.3-15.8,3.7-23.4,1.1
				c-0.4-0.1-0.8-0.3-1.3-0.4l-0.8-0.3c-18.2-6.9-37.9-3.3-52.7,9.6c-14.8,12.9-21,32-16.6,51.1c1.9,8.3,4.5,17.1,7.6,26.3
				c10.3,30,27.4,64.7,50.7,103.4c5,8.4,6.3,18.5,3.5,27.9c-8.4,28-34.2,125.2-13.7,200.1c15.4,56.3,72.8,90.9,130.5,78.7
				c29.1-6.1,81-13.4,163-13.4c56.9,0,91.6,4.7,119.5,8.6c40.4,5.5,64.8,8.9,121.8-7.8c31-9.1,57.1-44,71.1-73.6
				c1.8-3.7,6.2-5.3,10-3.6s5.3,6.2,3.6,10c-7.5,15.8-35.4,68.4-80.5,81.6c-60,17.6-87.1,13.9-128,8.3c-27.5-3.8-61.6-8.4-117.5-8.4
				c-80.8,0-131.6,7.1-159.9,13.1C324,929,315.2,929.9,306.5,929.9z"/>
		</g>
	</g>
	<g>
		<g>
			<path class="st68" d="M828.9,722.9c-4,0-7.3-3.2-7.5-7.2c-1.4-39.4-6.4-79.4-11.3-118.1l-1.1-8.5c-0.7-6,0.9-11.9,4.5-16.7
				c10.5-13.7,36.7-49.6,53.2-87.2c4.1-9.2,7.3-18.1,9.6-26.2c6.2-21.8,10.9-46.6-0.3-65.5c-12.7-21.3-33.9-30.7-55.3-24.5
				c-10.1,2.9-20.3,7.4-30.4,13.3c-4.6,2.7-10.1,3.1-15,1.2c-5-1.9-8.8-6-10.3-11.1c-0.7-2.3-1.4-4.5-2.1-6.8
				c-17-54.3-37.1-98.8-59.7-132.2c-26-38.6-55.7-63-88.1-72.5c-24.6-7.2-42.5-25.3-58.3-41.2c-22.5-22.6-37.4-36-59.9-28
				c-8,2.9-16.9,8.5-26.5,16.8c-26.1,22.6-53.8,44.2-82.3,64.2c-6,4.2-12.1,8.1-18,11.9c-20.6,13.2-40,25.7-51.1,47.9
				c-1.8,3.7-6.3,5.2-10.1,3.4c-3.7-1.8-5.2-6.3-3.4-10.1c12.9-26,35-40.2,56.4-53.9c5.8-3.7,11.8-7.6,17.5-11.6
				c28.1-19.7,55.4-41,81.1-63.3c11.1-9.6,21.3-16,31.2-19.5c32.7-11.7,54.5,10.3,75.6,31.5c15.2,15.3,31,31.2,51.9,37.4
				c66.2,19.5,119.3,91.7,157.9,214.7c0.7,2.3,1.4,4.6,2.1,6.9c0.3,1,1,1.4,1.4,1.5c0.5,0.2,1.2,0.3,2-0.2
				c11.1-6.5,22.5-11.5,33.8-14.8c27.8-8.1,56.2,4.1,72.4,31.2c14.1,23.7,8.9,52.3,1.8,77.2c-2.5,8.8-6,18.3-10.3,28.2
				c-17.2,39.1-44.2,76.2-55,90.3c-1.3,1.6-1.8,3.7-1.6,5.8l1.1,8.5c4.9,39,10,79.3,11.4,119.5c0.1,4.1-3.1,7.6-7.2,7.8
				C829.1,722.9,829,722.9,828.9,722.9z"/>
		</g>
	</g>
	<g>
		<g>
			
				<ellipse transform="matrix(0.9923 -0.124 0.124 0.9923 -32.5553 90.6866)" class="st54" cx="712.3" cy="306.9" rx="7.8" ry="7.8"/>
		</g>
	</g>
	<g>
		<g>
			<path class="st54" d="M701,291.4c-1.9-0.8-3.4-2.4-4.1-4.5c-13.6-39.6-54.4-57.9-54.8-58.1c-3.8-1.7-5.5-6.1-3.9-9.9
				c1.7-3.8,6.1-5.5,9.9-3.9c1.9,0.8,47.3,21.2,63,67c1.3,3.9-0.7,8.2-4.7,9.5C704.6,292.2,702.7,292.1,701,291.4z"/>
		</g>
	</g>
	<g>
		<path class="st72" d="M741.2,227.6l-461.8,17.7c-6.6,0.3-12.2-4.9-12.5-11.5l-1-24.9c-0.3-6.6,4.9-12.2,11.5-12.5l461.8-17.7
			c6.6-0.3,12.2,4.9,12.5,11.5l1,24.9C753,221.7,747.8,227.3,741.2,227.6z"/>
		<path class="st68" d="M278.9,252.8c-4.9,0-9.6-1.8-13.2-5.2c-3.8-3.5-6-8.4-6.2-13.5l-1-24.9c-0.4-10.7,8-19.8,18.7-20.2
			L739,171.2c5.2-0.2,10.2,1.6,14,5.2c3.8,3.5,6,8.4,6.2,13.5l1,24.9c0.2,5.2-1.6,10.2-5.2,14c-3.5,3.8-8.4,6-13.5,6.2l-461.8,17.7
			C279.4,252.8,279.2,252.8,278.9,252.8z M739.8,186.1c-0.1,0-0.1,0-0.2,0l-461.8,17.7c-2.4,0.1-4.4,2.2-4.3,4.7l1,24.9
			c0,1.2,0.6,2.3,1.4,3.1c0.9,0.8,2,1.3,3.2,1.2l461.8-17.7c1.2,0,2.3-0.6,3.1-1.4c0.8-0.9,1.3-2,1.2-3.2l-1-24.9
			c0-1.2-0.6-2.3-1.4-3.1C742,186.6,740.9,186.1,739.8,186.1z"/>
	</g>
	<g>
		<g>
			<path class="st68" d="M269.3,372.3c-1.8,0-3.6-0.7-5.1-2c-3-2.8-3.2-7.4-0.5-10.5c4.7-6.5,20.1-60.4,32.3-108.9
				c1-4,5.1-6.5,9.1-5.4c4,1,6.5,5.1,5.4,9.1c-0.1,0.3-6.6,26.2-14,52.9c-15.5,55.6-19.7,60.1-21.7,62.3
				C273.4,371.5,271.4,372.3,269.3,372.3z M263.8,359.7C263.8,359.7,263.8,359.7,263.8,359.7C263.8,359.7,263.8,359.7,263.8,359.7z"
				/>
		</g>
	</g>
	<g>
		<g>
			<path class="st68" d="M819.7,817.1c-0.9,0-1.9-0.2-2.8-0.6c-3.8-1.6-5.7-5.9-4.1-9.8c8.9-22,9.1-72.1,9.1-72.6
				c0-4.1,3.4-7.5,7.5-7.5c0,0,0,0,0,0c4.1,0,7.5,3.4,7.5,7.5c0,2.2-0.2,53.6-10.2,78.3C825.4,815.3,822.6,817.1,819.7,817.1z"/>
		</g>
	</g>
	<g>
		<g>
			<path class="st54" d="M268.7,845.2c-1.9,0-3.7-0.7-5.2-2.1c-4.5-4.2-10.5-15-17.6-60.8c-3.8-24.5-6-47.9-6.1-48.1
				c-0.4-4.1,2.6-7.8,6.7-8.2c4.1-0.4,7.8,2.6,8.2,6.7c0,0.2,2.2,23.2,5.9,47.2c6.9,45.2,12.5,51.7,13.1,52.3
				c3,2.9,3.1,7.6,0.3,10.6C272.6,844.5,270.6,845.2,268.7,845.2z"/>
		</g>
	</g>
	<g>
		<g>
			
				<ellipse transform="matrix(0.9797 -0.2003 0.2003 0.9797 -137.8547 63.8617)" class="st54" cx="246.7" cy="713.4" rx="7.8" ry="7.8"/>
		</g>
	</g>
	<g>
		<g>
			<path class="st68" d="M461.3,447c-2.2,0-4.4-1-5.8-2.8c-2.6-3.2-2.1-7.9,1.1-10.5c14.8-12,13.9-17.3,13.7-17.9
				c-0.8-3.1-8.2-6-13-6.7c-4.1-0.6-6.9-4.4-6.3-8.5c0.6-4.1,4.4-6.9,8.5-6.3c2.2,0.3,21.5,3.6,25.3,17.6c2.7,10.1-3.4,21-18.8,33.5
				C464.7,446.4,463,447,461.3,447z"/>
		</g>
	</g>
	<g>
		<g>
			<path class="st68" d="M581.6,443.3c-1.5,0-3.1-0.5-4.4-1.4c-13-9.5-18.7-19.1-17-28.6c2.8-15.2,23.5-21.2,25.9-21.9
				c4-1.1,8.1,1.3,9.2,5.3c1.1,4-1.3,8.1-5.2,9.2l0,0c-5.9,1.6-14.3,6.1-15.1,10.1c-0.4,2.4,2.2,7.4,11.1,13.8
				c3.3,2.4,4.1,7.1,1.6,10.5C586.1,442.3,583.9,443.3,581.6,443.3z"/>
		</g>
	</g>
	<g>
		<g>
			<path class="st68" d="M553,507.5c-2.5,0-5-1.3-6.4-3.6l0,0c-4.2-6.9-12.9-16.4-18.1-16c-2.7,0.2-5.7,3.8-8.4,9.8
				c-1.7,3.8-6.1,5.5-9.9,3.9c-3.8-1.7-5.5-6.1-3.9-9.9c5.2-11.9,12.3-18.2,21.1-18.8c16.4-1.1,29.5,19.1,32,23.2
				c2.1,3.5,1,8.2-2.5,10.3C555.6,507.2,554.3,507.5,553,507.5z"/>
		</g>
	</g>
	<g>
		<path class="st75" d="M103.4,367.9c14.4-7.5,30.3-12,44.6-12c11.3,0,22.1,2.7,31.5,7.6c2.7,1.4,5.3,3,7.8,4.7
			c8.1,5.6,15,13,20.1,21.5c2,3.4,3.8,7.1,5.2,10.9c2.9,7.6,4.4,15.8,4.4,24.4c0,38.1-30.9,87.5-69,87.5s-88-48.9-88-87
			c0-12.4,5.3-24.2,13.8-34.3"/>
		<path class="st68" d="M148,519.9c-19.9,0-43.6-11.7-63.6-31.3c-20-19.7-31.9-43.3-31.9-63.1c0-13.4,5.4-27,15.6-39.2
			c2.7-3.2,7.4-3.6,10.6-0.9c3.2,2.7,3.6,7.4,0.9,10.6c-7.9,9.4-12.1,19.7-12.1,29.5c0,15.6,10.5,35.7,27.5,52.4
			c16.9,16.7,37.2,27,53,27c32.5,0,61.5-44.7,61.5-80c0-7.5-1.3-14.8-3.9-21.7c-1.3-3.3-2.8-6.6-4.7-9.7
			c-4.5-7.5-10.7-14.2-17.9-19.2c-2.2-1.5-4.6-2.9-6.9-4.2c-8.7-4.5-18.2-6.8-28.1-6.8c-12.9,0-27.5,3.9-41.1,11.1
			c-3.7,1.9-8.2,0.5-10.1-3.2s-0.5-8.2,3.2-10.1c15.7-8.3,32.8-12.8,48.1-12.8c12.1,0,24.2,2.9,34.9,8.4c3,1.5,5.9,3.3,8.6,5.2
			c9,6.2,16.7,14.5,22.2,23.9c2.3,3.8,4.2,7.9,5.8,12c3.3,8.6,4.9,17.7,4.9,27c0,20.5-8.1,43.9-21.7,62.5
			C187.5,508.4,168.1,519.9,148,519.9z"/>
	</g>
	<g>
		<path class="st75" d="M853.9,361.5c8.4-3.6,17.6-5.6,27.2-5.6c38.1,0,85.9,30.9,85.9,69s-47.8,87.5-85.9,87.5s-69-49.4-69-87.5
			c0-12.3,3.2-23.8,8.8-33.8"/>
		<path class="st68" d="M881.2,519.9c-20.1,0-39.5-11.6-54.8-32.5c-13.6-18.6-21.7-41.9-21.7-62.5c0-13.1,3.4-26.1,9.8-37.5
			c2-3.6,6.6-4.9,10.2-2.9c3.6,2,4.9,6.6,2.9,10.2c-5.1,9.1-7.9,19.6-7.9,30.1c0,35.3,29,80,61.5,80c33.7,0,78.4-45.6,78.4-80
			c0-20.5-16.1-35.6-25.7-42.8c-15.7-11.7-35.4-18.7-52.8-18.7c-8.4,0-16.6,1.7-24.3,5c-3.8,1.6-8.2-0.1-9.9-3.9s0.1-8.2,3.9-9.9
			c9.6-4.1,19.7-6.2,30.2-6.2c42.3,0,93.4,34.1,93.4,76.5C974.6,467.5,923.1,519.9,881.2,519.9z"/>
	</g>
	<g>
		<path class="st68" d="M110.7,463.6c-1.5,0-3-0.4-4.3-1.4c-17-11.9-14.6-28.6-14.4-29.3l14.8,2.3l0-0.1c-0.1,0.9-0.7,8.5,8.2,14.8
			c3.4,2.4,4.2,7.1,1.8,10.4C115.4,462.5,113,463.6,110.7,463.6z"/>
	</g>
	<g>
		<path class="st68" d="M860,469.6c-1.4,0-2.8-0.4-4.1-1.2c-20.4-13.2-19.5-38.6-19.4-39.6c0.2-4.1,3.7-7.3,7.8-7.2
			c4.1,0.2,7.3,3.7,7.2,7.8c0,0.4-0.4,18,12.6,26.4c3.5,2.3,4.5,6.9,2.2,10.4C864.9,468.4,862.5,469.6,860,469.6z"/>
	</g>
	<g>
		<line class="st75" x1="89.8" y1="378" x2="87.9" y2="379.7"/>
		<path class="st68" d="M87.9,387.2c-2,0-4-0.8-5.5-2.4c-2.8-3-2.7-7.8,0.4-10.6l1.9-1.8c3-2.8,7.8-2.7,10.6,0.4
			c2.8,3,2.7,7.8-0.4,10.6l-1.9,1.8C91.6,386.6,89.8,387.2,87.9,387.2z"/>
	</g>
	<g>
		<line class="st75" x1="836.8" y1="377.1" x2="834.9" y2="378.9"/>
		<path class="st68" d="M834.9,386.4c-2,0-4-0.8-5.5-2.4c-2.8-3-2.7-7.8,0.4-10.6l1.9-1.8c3-2.8,7.8-2.7,10.6,0.4
			c2.8,3,2.7,7.8-0.4,10.6l-1.9,1.8C838.6,385.7,836.8,386.4,834.9,386.4z"/>
	</g>
</g>
</svg>
