<?xml version="1.0" encoding="utf-8"?>
<!-- Generator: Adobe Illustrator 21.0.0, SVG Export Plug-In . SVG Version: 6.00 Build 0)  -->
<svg version="1.1" id="图层_1" xmlns="http://www.w3.org/2000/svg" xmlns:xlink="http://www.w3.org/1999/xlink" x="0px" y="0px"
	 viewBox="0 0 1000 1000" style="enable-background:new 0 0 1000 1000;" xml:space="preserve">
<style type="text/css">
	.st0{fill:none;}
	.st1{fill:#F7D426;}
	.st2{fill:#DB8D0F;}
	.st3{fill:#565656;}
	.st4{fill:#FFFFFF;}
</style>
<g>
	<path class="st0" d="M719,204.7c-76.3-2.3-170.7-0.1-281.1,7.7c-34,2.4-63.5,3.4-89.2,3.3c16.2-21.6,40.4-33.2,63.2-49.2
		c6.1-4.3,12.2-8.7,18.2-13.1c2.6-0.2,5.2-0.3,7.8-0.5c68.9-4.8,131.7-7.5,187.6-8.3c6.1,3.8,12.7,6.9,19.9,9
		C673.4,161.9,697.8,179.9,719,204.7z"/>
</g>
<g>
	<path class="st1" d="M437.8,152.9c-2.6,0.2-5.2,0.4-7.8,0.5c21.8-16,43.1-33,63.5-50.7c10.7-9.3,20.2-15.1,28.8-18.2
		c42.7-15.3,63.7,35.8,103,60C569.5,145.4,506.8,148.1,437.8,152.9z"/>
</g>
<g>
	<path class="st0" d="M797.5,348.6c-85.8-7.6-207.6-7.4-359.6,3.3c-58.7,4.1-104.3,4.2-139.5,1.6l16.9-50.9c0.7-2.5,1.4-4.9,2-7.4
		c32.2,1.4,71.9,0.8,120.6-2.7c136.2-9.6,248.1-10.7,331.6-5.4c6.6,14.6,12.8,29.9,18.5,45.6C790,338.8,793.3,344.1,797.5,348.6z"/>
</g>
<g>
	<path class="st1" d="M317.2,295.1c6.2-22.4,12.7-45.1,23-65.9c2.5-4.9,5.3-9.4,8.4-13.5c25.7,0.1,55.2-1,89.2-3.3
		c110.4-7.8,204.8-10,281.1-7.7c19.4,22.7,36.1,50.9,50.4,82.4c-83.5-5.3-195.4-4.2-331.6,5.4C389.1,295.9,349.5,296.5,317.2,295.1z
		"/>
</g>
<g>
	<path class="st0" d="M914.2,451.2c-0.8,3.3-1.7,6.6-2.6,9.8c-4,14.2-10.3,28.9-17.4,42.9c-74.4-21.1-232.6-28.2-456.4-12.4
		c-200.8,14-247.3-19.7-256.8-41.9l0,0c12.3-17.3,33.5-27.9,56-25.1l0,0c3.6,0.9,7.4,1.8,11.5,2.6l0,0c0.8,0.3,1.7,0.6,2.5,0.9
		c0.2,0.1,0.3,0.1,0.5,0.2c0.4,0.2,0.8,0.3,1.2,0.4c1.8,0.6,3.5,0.6,5.3,0.2c38.6,6.5,95.7,9,179.9,3.1
		C684.2,414.7,851,424.9,914.2,451.2z"/>
</g>
<g>
	<path class="st1" d="M248.5,427.1c-4-0.8-7.9-1.7-11.5-2.6C240.8,425,244.6,425.8,248.5,427.1z"/>
</g>
<g>
	<path class="st0" d="M850.2,634c-84.9-13.5-225.8-16.2-412.3-3.1c-103,7.2-165.5,1.9-203.1-8l0,0c-0.1-4.6-1.5-9.2-3.9-13.3
		C213,580,200,559.4,190.5,542.5c21.9,20,82.8,40.5,247.4,29c186-13.1,326.6-10.4,411.6,3c-0.7,0.9-1.3,1.7-1.9,2.5
		c-2.5,3.2-3.5,7.2-3,11.2C846.4,603.4,848.4,618.7,850.2,634z"/>
</g>
<g>
	<path class="st0" d="M855.1,774.3c-84.3-14.2-227.1-17.3-417.3-3.9c-127.2,8.9-192.5-1.3-225.7-15.7c0.8-19.9,3.1-39.4,6.1-57
		c34.9,13,99.8,21.6,219.6,13.2c191.6-13.5,335.1-10.2,419.1,4.2c0,0.1,0,0.1,0,0.2C857.6,734.9,857.5,754.8,855.1,774.3z"/>
</g>
<g>
	<path class="st0" d="M828.3,850.6c-14.3,23-34.2,44.7-57.6,54.1l0,0c-74.6-4.8-172-4.5-289.3,2.5l0,0c-25.6,0.8-47.6,2.3-66.4,4.3
		h-0.1c-56.9,3.1-100.2,2.2-133.1-1.3c-28.6-14-51.3-39.4-61-71.9c35.4,12.5,100.1,20.5,217.2,12.3
		C609.2,838.5,742.1,839.8,828.3,850.6z"/>
</g>
<g>
	<path class="st1" d="M414.8,911.4c-23.2,2.4-41.4,5.4-55.6,8.4c-27.2,5.7-54.3,1.7-77.6-9.7C314.6,913.6,357.9,914.6,414.8,911.4z"
		/>
</g>
<g>
	<path class="st1" d="M770.7,904.7c-2.2,0.9-4.3,1.7-6.5,2.3c-98,28.7-103.4-0.4-243.4-0.4c-14,0-27.1,0.2-39.4,0.6
		C598.7,900.2,696.1,899.8,770.7,904.7z"/>
</g>
<g>
	<path class="st1" d="M855.1,774.3c-2.3,19-6.9,37.5-15.2,55c-3.3,7-7.2,14.2-11.6,21.2c-86.3-10.8-219.2-12-390.5,0
		c-117.1,8.2-181.8,0.2-217.2-12.3c-0.3-0.8-0.5-1.7-0.7-2.5c-7.1-25.7-8.9-53.8-7.8-80.9c33.2,14.4,98.5,24.6,225.7,15.7
		C628,757.1,770.9,760.2,855.1,774.3z"/>
</g>
<g>
	<path class="st1" d="M218.2,697.8c4.9-28.9,11.4-53,15.4-66.3c0.8-2.8,1.2-5.7,1.1-8.6c37.6,9.9,100,15.3,203.1,8
		c186.5-13.1,327.5-10.4,412.3,3.1c3.2,27,5.8,54,6.8,81.2c-84-14.5-227.5-17.7-419.1-4.2C318,719.4,253.1,710.8,218.2,697.8z"/>
</g>
<g>
	<path class="st1" d="M190.4,542.5L190.4,542.5c-4.8-8.5-8.6-16.1-11.7-23.5c-3.1-7.3-5.4-14.3-7.1-21.7
		c-4.1-17.8,0.1-34.7,9.3-47.7c9.5,22.2,56.1,55.9,256.9,41.8c223.8-15.7,381.9-8.7,456.4,12.4c-15.5,30.6-35.2,58-44.8,70.6
		c-84.9-13.4-225.6-16-411.6-3C273.3,583,212.3,562.5,190.4,542.5z"/>
</g>
<g>
	<path class="st1" d="M914.2,451.2c-63.1-26.3-230-36.6-476.3-19.3c-84.2,5.9-141.3,3.4-179.9-3.1c11.9-2.6,23.5-24.9,27.5-36.8
		l12.8-38.6c35.3,2.6,80.8,2.5,139.5-1.6c152.1-10.7,273.8-10.9,359.6-3.3l0,0c11.9,13,30.6,18.7,48.6,13.4c0.2-0.1,0.4-0.1,0.6-0.2
		c26.2-7.6,50.3,5.1,63.8,27.8C921.6,408.3,919.2,430.8,914.2,451.2z"/>
</g>
<g>
	<g>
		<path class="st2" d="M883.6,461c6.4-22.8,11.8-49.7-1.1-71.3c-13.5-22.7-37.7-35.5-63.8-27.8c-1.8,0.5-3.5,1.1-5.3,1.7
			c11.8,4.9,22,14.1,29.1,26.2c12.9,21.6,7.5,48.5,1.1,71.3c-13.4,47.3-51.7,99.9-64,115.9c-2.5,3.2-3.5,7.2-3,11.2
			c5.3,42.3,11,84.6,12.4,127.3c1.3,38.5-0.2,78.5-17,113.9c-15,31.7-42.2,67.8-75.8,77.6c-22.4,6.6-40,10.1-55.4,11.7
			c26.8,2.4,52.1,1.1,95.4-11.7c33.6-9.9,60.8-45.9,75.8-77.6c16.8-35.4,18.3-75.4,17-113.9c-1.5-42.6-7.1-85-12.4-127.3
			c-0.5-4,0.6-8,3-11.2C831.8,560.9,870.2,508.3,883.6,461z"/>
	</g>
</g>
<g>
	<circle class="st2" cx="391" cy="488.6" r="16.7"/>
</g>
<g>
	<circle class="st2" cx="662.2" cy="488.6" r="16.7"/>
</g>
<g>
	<path class="st3" d="M306.4,929.9c-55.8,0-106.6-36.9-121.8-92.2c-21.1-76.7,2.6-171.3,13.8-208.3c1.6-5.4,0.9-11-2-15.9
		c-23.9-39.7-41.4-75.4-52-106.3c-3.2-9.2-5.9-18.3-8.1-27.8c-5.7-24.6,2.3-49.1,21.3-65.7c19-16.6,44.4-21.2,68-12.3l0.4,0.1
		c0.3,0.1,0.5,0.2,0.7,0.3l0.3,0.1c4.2,1.4,8.7,1.1,12.8-0.7c4.9-2.1,8.8-6.3,10.5-11.5c1.3-3.9,5.6-6,9.5-4.7
		c3.9,1.3,6,5.6,4.7,9.5c-3.1,9.2-10,16.6-18.8,20.5c-7.5,3.2-15.5,3.6-23.2,1.2c-0.5-0.1-0.9-0.3-1.1-0.4l-0.6-0.1l-0.4-0.2
		c-0.1,0-0.2-0.1-0.3-0.1c-18.3-6.8-37.9-3.2-52.6,9.7c-14.7,12.9-20.9,32-16.5,51c2.1,9,4.6,17.6,7.7,26.3
		c10.3,29.9,27.3,64.7,50.6,103.4c5.1,8.3,6.4,18.5,3.6,27.9c-8.4,28-34.2,125.1-13.7,200.1c15.4,56.3,72.8,90.9,130.5,78.7
		c29.2-6.1,81.1-13.4,163-13.4c56.9,0,91.6,4.7,119.5,8.5c40.4,5.5,64.8,8.8,121.8-7.8c31.1-9.1,57.1-44,71.1-73.6
		c1.8-3.7,6.2-5.3,10-3.6c3.7,1.8,5.3,6.2,3.6,10c-7.5,15.8-35.4,68.4-80.5,81.6c-60,17.6-87.1,13.9-128,8.3
		c-27.5-3.7-61.6-8.4-117.5-8.4c-80.6,0-131.5,7.1-160,13C323.9,929,315.1,929.9,306.4,929.9z"/>
</g>
<g>
	<path class="st3" d="M828.9,722.9c-4,0-7.3-3.2-7.5-7.2c-1.4-40.4-6.7-81.4-11.7-121.1L809,589c-0.7-5.9,0.8-11.8,4.4-16.6
		c8.2-10.7,36.1-48.3,53.2-87.2c4-9.1,7.3-18,9.7-26.3c6.4-22.9,10.8-46.7-0.3-65.4c-12.7-21.4-33.9-30.8-55.2-24.5
		c-10,2.9-20.6,7.5-30.4,13.3c-4.6,2.7-10,3.1-15,1.2c-5-1.9-8.8-6-10.4-11.1c-0.4-1.2-0.7-2.3-1.1-3.5c-0.3-1.1-0.7-2.2-1-3.4
		c-17-54.2-37.1-98.7-59.7-132.2c-26-38.6-55.7-63-88.2-72.6c-24.6-7.2-42.5-25.3-58.3-41.2c-22.5-22.6-37.4-36.1-60-28
		c-8,2.9-16.9,8.5-26.4,16.8c-26.1,22.6-53.8,44.2-82.3,64.3c-6,4.2-12.1,8.1-18,11.9c-20.6,13.2-40.1,25.7-51.1,48
		c-1.8,3.7-6.3,5.2-10,3.4c-3.7-1.8-5.2-6.3-3.4-10c12.8-26,35-40.2,56.4-53.9c5.8-3.7,11.8-7.5,17.5-11.6
		c28.1-19.8,55.4-41.1,81.1-63.3c11-9.6,21.2-16,31.2-19.6c32.7-11.7,54.6,10.3,75.7,31.5c15.2,15.3,31,31.2,51.9,37.3
		c66.2,19.6,119.4,91.8,157.9,214.8c0.4,1.2,0.7,2.3,1,3.4c0.4,1.2,0.7,2.3,1.1,3.5c0.3,1,1,1.4,1.5,1.6c0.5,0.2,1.2,0.3,2-0.2
		c10.9-6.4,22.6-11.5,33.8-14.7c27.8-8.2,56.2,4,72.3,31.2c14.1,23.6,8.9,52.3,1.9,77.2c-2.6,9-6.1,18.5-10.4,28.2
		c-17.8,40.5-46.6,79.3-55,90.3c-1.2,1.6-1.8,3.7-1.5,5.7l0.7,5.5c5.1,40,10.4,81.4,11.8,122.4c0.1,4.1-3.1,7.6-7.2,7.8
		C829.1,722.9,829,722.9,828.9,722.9z"/>
</g>
<g>
	<ellipse transform="matrix(0.8634 -0.5046 0.5046 0.8634 -40.1755 386.2073)" class="st4" cx="693" cy="267.3" rx="7.8" ry="7.8"/>
</g>
<g>
	
		<ellipse transform="matrix(0.8634 -0.5046 0.5046 0.8634 -361.9933 226.3962)" class="st4" cx="237" cy="781.6" rx="7.8" ry="7.8"/>
</g>
<g>
	<path class="st4" d="M676.5,257.5c-2,0-4.1-0.8-5.6-2.5c-28.1-31.1-72.7-31.8-73.2-31.8c-4.1,0-7.5-3.4-7.4-7.6
		c0-4.1,3.4-7.5,7.6-7.4c2.1,0,51.8,0.8,84.2,36.8c2.8,3.1,2.5,7.8-0.5,10.6C680.1,256.9,678.3,257.5,676.5,257.5z"/>
</g>
<g>
	<path class="st3" d="M269.3,372.3c-1.8,0-3.6-0.7-5.1-2c-3-2.8-3.2-7.4-0.5-10.5c4.7-6.5,20.1-60.4,32.3-108.9c1-4,5.1-6.5,9.1-5.4
		c4,1,6.5,5.1,5.4,9.1c-0.1,0.3-6.6,26.2-14,52.9c-15.5,55.6-19.7,60.1-21.7,62.3C273.3,371.5,271.3,372.3,269.3,372.3z
		 M263.8,359.7C263.8,359.7,263.7,359.8,263.8,359.7C263.7,359.8,263.8,359.7,263.8,359.7z"/>
</g>
<g>
	<path class="st3" d="M819.7,817c-0.9,0-1.9-0.2-2.8-0.5c-3.8-1.5-5.7-5.9-4.2-9.8c8.9-22,9.1-72.1,9.1-72.6c0-4.1,3.4-7.5,7.5-7.5
		c0,0,0,0,0,0c4.1,0,7.5,3.4,7.5,7.5c0,2.2-0.2,53.5-10.1,78.2C825.5,815.2,822.7,817,819.7,817z"/>
</g>
<g>
	<path class="st4" d="M247.3,852.7c-0.9,0-1.7-0.1-2.6-0.5c-7.7-2.8-11.9-12.1-13.4-30c-0.9-10.9-0.5-21.2-0.5-21.6
		c0.2-4.1,3.7-7.4,7.8-7.2c4.1,0.2,7.4,3.7,7.2,7.8l0,0c-0.7,16.3,1.4,33.8,4.5,37c3.6,1.6,5.4,5.7,4.1,9.5
		C253.2,850.8,250.4,852.7,247.3,852.7z"/>
</g>
<g>
	<path class="st1" d="M797.5,348.6"/>
</g>
<g>
	<path class="st1" d="M257.8,429.4c-3.1-0.5-6.3-1.1-9.5-1.8l0.2-1c3.2,0.7,6.3,1.3,9.5,1.8L257.8,429.4z"/>
</g>
<g>
	<path class="st1" d="M190.4,542.5"/>
</g>
<circle class="st3" cx="468" cy="407.1" r="17.4"/>
<circle class="st3" cx="572.9" cy="407.1" r="17.4"/>
</svg>
