<?xml version="1.0" standalone="no"?><!DOCTYPE svg PUBLIC "-//W3C//DTD SVG 1.1//EN" "http://www.w3.org/Graphics/SVG/1.1/DTD/svg11.dtd"><svg t="1623813384607" class="icon" viewBox="0 0 1024 1024" version="1.1" xmlns="http://www.w3.org/2000/svg" p-id="30410" xmlns:xlink="http://www.w3.org/1999/xlink" width="200" height="200"><defs><style type="text/css"></style></defs><path d="M624.64 529.92c-7.68 0-14.08 2.56-19.2 7.68-8.96 6.4-16.64 12.8-24.32 21.76-7.68 8.96-15.36 19.2-20.48 29.44-6.4 12.8-10.24 25.6-12.8 39.68l-60.16 257.28h81.92l67.84-281.6c2.56-8.96 3.84-16.64 5.12-21.76 1.28-5.12 1.28-10.24 2.56-14.08 0-3.84 1.28-7.68 1.28-11.52 0-6.4-1.28-14.08-5.12-19.2-3.84-6.4-10.24-8.96-16.64-7.68zM460.8 529.92c-12.8 1.28-23.04 7.68-32 16.64-11.52 10.24-20.48 21.76-29.44 34.56-7.68 14.08-12.8 29.44-15.36 46.08l-46.08 197.12h81.92l55.04-227.84c1.28-7.68 3.84-14.08 3.84-17.92s1.28-8.96 1.28-11.52v-8.96c0-7.68-1.28-15.36-5.12-21.76-1.28-5.12-7.68-7.68-14.08-6.4z" fill="#1296db" p-id="30411"></path><path d="M876.8 385.28v-2.56c0-25.6-5.12-49.92-17.92-71.68-30.72-56.32-85.76-84.48-140.8-84.48-38.4 0-75.52 14.08-106.24 40.96-3.84 3.84-8.96 2.56-11.52-1.28-43.52-75.52-122.88-124.16-211.2-124.16h-2.56c-126.72 0-231.68 96-244.48 220.16 0 5.12-1.28 16.64-1.28 23.04 0 2.56-1.28 3.84-3.84 5.12C57.6 405.76 0 477.44 0 559.36c0 98.56 79.36 177.92 176.64 177.92h80.64c12.8-1.28 23.04-11.52 24.32-24.32l34.56-154.88c1.28-3.84 2.56-10.24 3.84-19.2 1.28-6.4 2.56-14.08 2.56-20.48 1.28-6.4-1.28-12.8-6.4-16.64-6.4-3.84-14.08-5.12-20.48-5.12l3.84-17.92 78.08-2.56h29.44l-12.8 48.64c-1.28 3.84 3.84 6.4 6.4 3.84 8.96-8.96 21.76-21.76 29.44-28.16 10.24-7.68 20.48-15.36 33.28-19.2 11.52-6.4 23.04-7.68 35.84-7.68h5.12c15.36 0 29.44 5.12 40.96 15.36 5.12 5.12 8.96 10.24 11.52 16.64 3.84 10.24 16.64 12.8 24.32 5.12 8.96-8.96 19.2-16.64 29.44-23.04 16.64-8.96 34.56-14.08 52.48-14.08h5.12c15.36 0 30.72 6.4 42.24 16.64 11.52 11.52 16.64 28.16 16.64 44.8 0 14.08-2.56 29.44-5.12 43.52l-23.04 103.68c-2.56 8.96-2.56 15.36-3.84 20.48 0 3.84-1.28 7.68-1.28 11.52-1.28 6.4 1.28 12.8 6.4 17.92 6.4 3.84 14.08 6.4 21.76 6.4h126.72c85.76 0 160-61.44 174.08-147.2 15.36-97.28-48.64-189.44-145.92-206.08z" fill="#1296db" p-id="30412"></path></svg>