<?xml version="1.0" standalone="no"?><!DOCTYPE svg PUBLIC "-//W3C//DTD SVG 1.1//EN" "http://www.w3.org/Graphics/SVG/1.1/DTD/svg11.dtd"><svg t="1623816031684" class="icon" viewBox="0 0 1024 1024" version="1.1" xmlns="http://www.w3.org/2000/svg" p-id="7506" xmlns:xlink="http://www.w3.org/1999/xlink" width="200" height="200"><defs><style type="text/css"></style></defs><path d="M512 512m-512 0a512 512 0 1 0 1024 0 512 512 0 1 0-1024 0Z" fill="#149343" p-id="7507"></path><path d="M382.748444 257.706667v81.351111a302.648889 302.648889 0 0 0-154.965333 131.072V227.555556h124.814222c16.611556 0 30.151111 13.539556 30.151111 30.151111z" fill="#FFFFFF" p-id="7508"></path><path d="M598.129778 360.675556v77.824a77.710222 77.710222 0 0 1-77.710222 77.824H494.933333a112.184889 112.184889 0 0 0-112.184889 111.957333v217.656889H257.934222a30.151111 30.151111 0 0 1-30.151111-30.151111V631.466667a261.233778 261.233778 0 0 1 270.791111-270.791111h99.555556z" fill="#FFFFFF" p-id="7509"></path><path d="M638.407111 815.786667v-81.351111a302.648889 302.648889 0 0 0 155.079111-131.072v242.574222H668.558222a30.151111 30.151111 0 0 1-30.151111-30.264889z" fill="#FFFFFF" p-id="7510"></path><path d="M423.025778 712.817778V634.88c0-42.894222 34.816-77.710222 77.824-77.710222h25.258666c61.895111 0 112.071111-50.062222 112.184889-111.957334V227.555556H763.448889c16.611556 0 30.151111 13.539556 30.151111 30.151111v184.32l0.227556 9.784889a261.233778 261.233778 0 0 1-271.018667 261.006222h-99.669333z" fill="#FFFFFF" p-id="7511"></path></svg>