<?xml version="1.0" standalone="no"?><!DOCTYPE svg PUBLIC "-//W3C//DTD SVG 1.1//EN" "http://www.w3.org/Graphics/SVG/1.1/DTD/svg11.dtd"><svg t="1597219293497" class="icon" viewBox="0 0 1024 1024" version="1.1" xmlns="http://www.w3.org/2000/svg" p-id="13559" xmlns:xlink="http://www.w3.org/1999/xlink" width="200" height="200"><defs><style type="text/css"></style></defs><path d="M44 921.3a371.4 99.6 0 1 0 742.8 0 371.4 99.6 0 1 0-742.8 0Z" fill="#DBD5C0" p-id="13560"></path><path d="M195.1 529.1s103.6-43.6 148.5-135.6c68-139.7 161.4-185.4 236.8-161.9 0 0 24.2 6.3 44.4 0.5 28.4-8.1 38.7 2.8 39.7 27.5 0.6 13.9 16.2 38.4 20.2 64.6 8.6 57.1 42 138.5-112.2 235.8 0 0-73.3 43.5-82.2 125.5-7.9 72.7-101.8 242.9-267.2 235.3-238-10.9-263.6-306.3-28-391.7z" fill="#FFE0AA" p-id="13561"></path><path d="M684.6 324.3c-3.6-24.4-17.4-47.1-19.8-61.4-3.2 220.6-112 203-217.6 338-53.3 68.1-42.4 151.4-139.1 214.3-101 65.6-180.7 36.7-271.7-32.4 32.2 37.5 46.1 122.1 186.7 138.1 164.5 18.8 259.3-162.5 267.2-235.3 8.9-82.1 82.2-125.5 82.2-125.5 154.1-97.3 120.7-178.7 112.1-235.8z" fill="#FFC261" p-id="13562"></path><path d="M112.6 905.2c-5.2 0-10.4-2.6-13.4-7.3-0.5-0.8-5.5-8.6-11-22-3.3-8.2 0.6-17.5 8.8-20.8s17.5 0.6 20.8 8.8c4.3 10.6 8.1 16.5 8.1 16.6 4.8 7.4 2.7 17.3-4.7 22.1-2.6 1.8-5.6 2.6-8.6 2.6zM582.9 253.6c-7.5 0-14.2-5.3-15.7-12.9-1.7-8.7 3.9-17.1 12.6-18.8 7.5-1.5 15.2-2.6 22.9-3.4 8.8-0.8 16.6 5.6 17.4 14.4 0.8 8.8-5.6 16.6-14.4 17.4-6.7 0.6-13.3 1.6-19.7 2.9-1 0.3-2 0.4-3.1 0.4zM167.5 920.8c-8.3 0-15.4-6.5-15.9-14.9-0.6-8.8 6.1-16.4 14.9-17 0.2 0 7.4-0.6 19-3.1 8.6-1.9 17.1 3.6 19 12.3 1.9 8.6-3.6 17.1-12.3 19-14 3-22.6 3.6-23.6 3.7h-1.1zM667.1 307.4h-0.7c-8.8-0.4-15.7-7.8-15.3-16.7 0.3-6.4 0.1-12.9-0.5-19.3-0.8-8.8 5.6-16.6 14.4-17.4 8.8-0.8 16.6 5.6 17.4 14.4 0.7 7.9 1 15.9 0.6 23.7-0.3 8.6-7.3 15.3-15.9 15.3z" fill="#802637" p-id="13563"></path><path d="M703.4 338.6c-1.1-5.9-2.1-11.4-2.9-16.7-2.4-15.9-8.5-30.9-13.3-42.9-3.1-7.7-6.6-16.4-6.8-20.1-0.8-18.5-6.3-31.2-16.7-38.7-10.6-7.7-24.8-8.9-43.4-3.6-12.8 3.7-29.8 0.9-35.7-0.5-43.7-13.4-90.1-5.9-134 21.7-46.3 29.1-88.3 80.6-121.5 148.7-40.4 82.9-133.9 125-140 127.7C127.9 536.5 79.4 574 48.9 622.6c-28 44.6-39.2 96.5-31.7 146.1 6.9 45.4 28.6 85.2 62.6 115 36.6 32.1 85.9 50.5 142.5 53.1 3.9 0.2 7.8 0.3 11.6 0.3 91.2 0 155.4-50.1 193.7-93.1 48.4-54.3 74.3-117.8 78.5-156.7 7.9-72.8 73.9-113.1 74.5-113.5 0.1 0 0.3-0.1 0.4-0.2 65-41 104.3-83.4 120.3-129.6 14-40.7 7.4-76.6 2.1-105.4z m-32.4 95c-13.5 39.1-48.4 76-106.9 112.9-5.6 3.3-80.3 49.9-89.7 137.4-3.6 32.6-27.2 90-70.6 138.8-33.9 38.1-90.5 82.4-170 82.4h-2.6c1.4-0.2 2.7-0.5 4.2-1 14.5-5.6 28.7-12.4 42.3-20.1 7.7-4.4 10.4-14.1 6-21.8-4.4-7.7-14.1-10.4-21.8-6-12.2 6.9-25 13-38 18-8.3 3.2-12.4 12.5-9.2 20.7 2.1 5.7 7.1 9.4 12.7 10.1-1.2 0-2.4-0.1-3.6-0.1C174.5 902.6 132 887 100.9 859.7c-7.4-6.5-14.1-13.6-20.1-21.2 2.9 2.6 6.7 4.2 10.8 4.2 0.7 0 1.4-0.1 2.2-0.1 8.8-1.2 14.9-9.2 13.7-18-1-7.3-1.5-14.7-1.5-22 0-6.8 0.4-13.7 1.3-20.5 1.2-8.8-5-16.8-13.8-17.9-8.8-1.2-16.8 5-17.9 13.8-1.1 8.2-1.6 16.4-1.6 24.6 0 8.7 0.6 17.6 1.8 26.3 0.2 1.8 0.8 3.5 1.6 5-14.8-20.3-24.5-44.1-28.5-70-6.4-42 3.3-86.2 27.2-124.3 26.8-42.6 69.8-75.7 124.5-95.5 0.2-0.1 0.5-0.2 0.7-0.3 4.4-1.9 109.7-47 156.6-143.3 30.6-62.8 68.5-109.6 109.8-135.6 17.4-10.9 35.1-18 52.6-21.2-7.3 4.3-10 13.9-5.8 21.4 2.9 5.3 8.4 8.3 14 8.3 2.6 0 5.3-0.6 7.7-2 9.5-5.2 19.6-9.6 29.9-12.9 5.4-1.7 9.2-6.1 10.6-11.2 4 0.9 29.4 6.9 52.5 0.3 12.5-3.6 15.8-1.4 15.9-1.3 0.1 0.1 2.9 2.2 3.4 14.1 0.3 9.3 4.4 19.2 9 30.7 0.8 2.1 1.7 4.2 2.5 6.3-5.5 1.7-10 6.4-11 12.5-1.7 9.8-4.5 19.9-8.3 29.8-3.1 8.2 1 17.5 9.3 20.6 1.9 0.7 3.8 1 5.7 1 6.4 0 12.5-3.9 14.9-10.3 0.6-1.5 1.1-3 1.7-4.5 4.8 25.9 9.7 55.2-1.3 87.1z" fill="#802637" p-id="13564"></path><path d="M154.3 673c4.2 0 8.5-1.7 11.7-5.1 9.7-10.3 20.8-20.5 32.8-30.4 6.8-5.6 7.8-15.7 2.2-22.5-5.6-6.8-15.7-7.8-22.5-2.2-13.1 10.7-25.1 21.9-35.8 33.2-6.1 6.4-5.8 16.5 0.6 22.6 3.1 3 7.1 4.4 11 4.4zM365.4 499.1c2.6 1.6 5.5 2.4 8.3 2.4 5.3 0 10.6-2.7 13.7-7.7 3.8-6.2 7.1-12.5 9.8-18.8 3-6.8 5.9-13.9 9.1-21.5l1.8-4.4c3.4-8.1-0.4-17.5-8.6-20.9-8.1-3.4-17.5 0.4-20.9 8.6l-1.9 4.4c-3.1 7.5-6.1 14.5-8.9 21.1-2.1 4.9-4.7 9.9-7.7 14.8-4.6 7.5-2.2 17.4 5.3 22zM226.3 613.5c3.1 0 6.1-0.9 8.9-2.7 12.1-8 25.2-16 38.9-23.7 7.7-4.3 10.4-14.1 6.1-21.8s-14.1-10.4-21.8-6.1c-14.4 8.1-28.2 16.5-41 25-7.3 4.9-9.3 14.8-4.4 22.2 3.1 4.6 8.1 7.1 13.3 7.1zM449.3 331.9c2.9 2.2 6.3 3.3 9.7 3.3 4.8 0 9.6-2.2 12.7-6.2 9.3-12.2 19.2-23.1 29.5-32.4 6.6-5.9 7.1-16 1.2-22.6-5.9-6.6-16-7.1-22.6-1.2-11.7 10.6-23 22.9-33.5 36.7-5.4 7-4 17 3 22.4zM405.2 414.5c2.2 1 4.4 1.5 6.7 1.5 6.1 0 11.8-3.4 14.5-9.2 7-15.1 13.8-28.4 20.7-40.5 4.4-7.6 1.8-17.4-5.9-21.8-7.6-4.4-17.4-1.8-21.8 5.9-7.4 12.9-14.6 26.9-22 42.9-3.7 8-0.2 17.5 7.8 21.2zM133.9 680.2c-7.3-4.9-17.3-2.9-22.2 4.4C102 699 94.2 713.9 88.2 728.9c-3.2 8.2 0.8 17.5 9 20.8 1.9 0.7 3.9 1.1 5.9 1.1 6.4 0 12.4-3.9 14.9-10.1 5.1-12.9 12-25.8 20.3-38.3 4.9-7.3 2.9-17.3-4.4-22.2zM307.6 567.1c3 0 6.1-0.9 8.7-2.5 7.7-5.1 23-15.9 38.9-31.3 6.3-6.1 6.5-16.3 0.3-22.6-6.1-6.3-16.3-6.5-22.6-0.3-13.9 13.5-27.3 23-34.1 27.4-7.4 4.8-9.4 14.7-4.6 22.1 3.1 4.6 8.2 7.2 13.4 7.2zM429.7 646c-8.5-2.5-17.4 2.3-19.9 10.8-4.2 14-9 27.6-14.2 40.5-3.3 8.2 0.6 17.6 8.8 20.9 1.9 0.8 4 1.2 6 1.2 6.4 0 12.3-3.8 14.9-10.1 5.6-13.8 10.7-28.4 15.2-43.4 2.5-8.5-2.3-17.4-10.8-19.9zM460.4 562.9c-7.9-4-17.5-0.9-21.5 7-8.1 16-12.5 30.2-16.7 44.4-2.5 8.4 2.4 17.3 10.9 19.8 1.5 0.4 3 0.6 4.5 0.6 7 0 13.4-4.5 15.3-11.5 3-10.2 7.1-24.2 14.5-38.8 4-7.9 0.9-17.5-7-21.5zM399.1 729.5c-7.8-4.2-17.5-1.4-21.7 6.4-6.8 12.7-14.4 24.8-22.5 36-5.2 7.1-3.6 17.1 3.6 22.3 2.8 2 6.1 3 9.3 3 5 0 9.9-2.3 13-6.6 8.9-12.4 17.2-25.6 24.7-39.4 4.2-7.8 1.4-17.5-6.4-21.7zM567.8 441.6c-9.9 9.4-20.9 19-32.5 28.5-6.8 5.6-7.9 15.6-2.3 22.5 3.1 3.9 7.7 5.9 12.4 5.9 3.5 0 7.1-1.2 10.1-3.6 12.3-10 23.9-20.1 34.4-30.2 6.4-6.1 6.6-16.2 0.5-22.6-6.1-6.4-16.2-6.6-22.6-0.5zM644.2 371.4c-7.4-4.7-17.3-2.4-22 5.1-7 11.3-15.4 22.7-25 34-5.7 6.7-4.8 16.8 1.9 22.5 3 2.6 6.6 3.8 10.3 3.8 4.5 0 9-1.9 12.2-5.7 10.5-12.5 19.9-25.2 27.7-37.7 4.7-7.4 2.4-17.3-5.1-22zM327.9 804.3c-9.8 10.3-20.2 19.8-31.2 28.4-6.9 5.5-8.2 15.5-2.7 22.5 3.2 4 7.9 6.1 12.6 6.1 3.5 0 7-1.1 9.9-3.5 12.2-9.6 23.8-20.2 34.6-31.5 6-6.4 5.8-16.5-0.6-22.6-6.4-6-16.5-5.8-22.6 0.6zM500.1 497.2c-13 10.6-24.4 21.5-34.1 32.7-5.8 6.7-5.1 16.8 1.6 22.6 3.1 2.6 6.8 3.9 10.5 3.9 4.5 0 9-1.8 12-5.6 8.5-9.7 18.6-19.4 30.1-28.7 6.9-5.6 8-15.6 2.4-22.5s-15.6-8-22.5-2.4zM352.5 607.2c-7.2-5.2-17.2-3.6-22.4 3.5-8.2 11.3-17.3 23.3-26.8 35.7-5.4 7-4.1 17 2.9 22.4 3 2.2 6.4 3.3 9.8 3.3 4.8 0 9.5-2.1 12.7-6.2 9.7-12.6 18.9-24.8 27.3-36.3 5.2-7.2 3.6-17.2-3.5-22.4zM489.4 391.1c-10.2 11.9-20 23.6-29.2 34.8-5.6 6.8-4.5 16.9 2.3 22.5 3 2.4 6.5 3.6 10.1 3.6 4.6 0 9.2-2 12.4-5.8 9-11 18.7-22.5 28.7-34.2 5.8-6.7 5-16.8-1.7-22.6-6.7-5.8-16.8-5-22.6 1.7zM401.3 531.6c-7.6-4.5-17.4-2-21.9 5.6-6.7 11.3-14.7 23.8-23.7 37.1-4.9 7.3-3 17.2 4.3 22.2 2.8 1.9 5.9 2.8 9 2.8 5.2 0 10.2-2.4 13-7.1 9.4-13.8 17.7-26.8 24.8-38.7l-13.7-8.2 13.8 8.2c4.5-7.6 2-17.4-5.6-21.9zM431 516.6c7.9-11.2 16.7-23.2 26.3-35.7 5.3-7 4-17-3-22.4-7-5.3-17-4-22.4 3-9.9 12.9-19 25.3-27.1 36.9-5.1 7.3-3.3 17.2 3.9 22.3 2.8 2 6 2.9 9.2 2.9 5 0 10-2.4 13.1-7zM592.3 317.3c4.2 0 8.4-1.7 11.5-4.9 18.8-19.8 31.1-32.1 31.2-32.2 6.3-6.2 6.3-16.4 0-22.6-6.2-6.3-16.4-6.3-22.6 0-0.1 0.1-12.6 12.6-31.7 32.7-6.1 6.4-5.8 16.5 0.6 22.6 3.1 2.9 7 4.4 11 4.4zM543.1 378.2c9.7-10.9 19.8-22.1 30.1-33.2 6-6.5 5.6-16.6-0.9-22.6s-16.6-5.6-22.6 0.9c-10.3 11.3-20.6 22.6-30.4 33.6-5.9 6.6-5.3 16.7 1.3 22.6 3 2.8 6.8 4.1 10.6 4.1 4.4 0 8.8-1.8 11.9-5.4zM183.1 817.7c-6.8-5.7-16.9-4.8-22.6 1.9-10.5 12.5-16 19.1-18.7 22.9-5.2 7.1-3.6 17.1 3.6 22.3 2.8 2 6.1 3 9.3 3 5 0 9.9-2.3 13.1-6.6 2.8-3.8 10.7-13.2 17.2-20.9 5.7-6.8 4.8-16.9-1.9-22.6zM298.1 679.1c-6.9-5.5-17-4.4-22.5 2.5-8.8 11.1-18.3 22.8-28.2 34.8-5.6 6.8-4.6 16.9 2.2 22.5 3 2.4 6.6 3.6 10.2 3.6 4.6 0 9.2-2 12.3-5.7 9.9-12.1 19.5-24 28.5-35.2 5.5-6.9 4.4-17-2.5-22.5zM241.2 748.9c-6.7-5.6-16.8-4.8-22.5 2-8.7 10.4-18 21.3-29 34.3-5.7 6.8-4.9 16.9 1.8 22.6 3 2.5 6.7 3.8 10.4 3.8 4.5 0 9-1.9 12.1-5.7 11.1-13 20.4-24 29.2-34.5 5.6-6.7 4.8-16.8-2-22.5z" fill="#802637" p-id="13565"></path><path d="M708.7 856.2c55.7-55.7 77.7-117.2 81.4-181.8 0 0 2.1-43 1.4-60-2.2-47.4 12.3-61.9-110.4-49.1-57.2-3-126.1 25.7-181.8 81.4-85.1 85.1-107.2 201-49.4 258.9s173.6 35.7 258.8-49.4z" fill="#FF797E" p-id="13566"></path><path d="M538.9 881.1c-54.4 2.5-89.5-29.9-125.6-76.1 1.3 30.8 8.6 76.6 28.9 96.9 57.8 57.9 173.7 35.7 258.9-49.4 25-25 115.4-94.6 74.6-288-11.6 248.9-171.1 313.6-236.8 316.6z" fill="#E63F5B" p-id="13567"></path><path d="M534.9 953.9c-38.6 0-72-12.6-96.4-37-31.8-31.8-43.7-79.3-33.3-133.5 9.9-52 39.3-104.6 82.7-148 56.9-56.9 128.8-89 192.7-86.1 72.1-7.4 98.7-5.6 113.8 7.8 12.5 11.2 12.6 26.7 12.8 43.2 0 4.3 0.1 8.7 0.3 13.4 0.8 17.6-1.3 59.7-1.4 61.5v0.1c-4.3 75.8-32.5 138.6-86 192.2-43.4 43.4-96 72.8-148 82.7-12.9 2.5-25.3 3.7-37.2 3.7z m137.8-372.8c-24.1 0-50.5 6-76.7 17.5-30.4 13.4-60 33.9-85.5 59.4-38.9 38.9-65.2 85.6-73.9 131.3-8.3 43.5 0.4 80.8 24.5 104.9s61.4 32.8 104.9 24.5c45.8-8.7 92.4-35 131.3-73.9 25.4-25.4 44-52.4 56.8-82.5 11.5-27.2 18.1-56.2 19.9-88.8 0.1-1.8 2.1-42.6 1.4-58.4-0.2-5.3-0.3-10.3-0.3-14.6-0.1-8-0.2-17.8-2.1-19.6-0.9-0.8-5-3.4-20.7-4-14.8-0.5-36.9 0.8-69.7 4.2-0.8 0.1-1.7 0.1-2.5 0.1-2.4 0-4.9-0.1-7.4-0.1z" fill="#802637" p-id="13568"></path><path d="M706.9 598.6c-25.2 0.4-80.3 21.3-98.2 30.1-7.9 3.9-11.2 13.5-7.3 21.4 2.8 5.6 8.5 8.9 14.4 8.9 2.3 0 4.7-0.6 7-1.6 7.5-3.7 23.9-10.5 42.3-16.6 18.9-6.3 34.7-10.1 42.2-10.2 8.9-0.1 15.9-7.4 15.8-16.2-0.1-8.9-7.3-15.9-16.2-15.8zM582.7 650.6c-7.7-2.7-16.2 1.2-19.6 8.6l-0.1 0.2c-3.5 7.8-0.3 17.7 7.4 21.4 2.3 1.1 4.7 1.6 7 1.6 7-0.4 11-3.9 13.2-6.9 1.5-2 2.3-4.4 2.6-6.9 1.5-11.1-4.6-15.9-10.5-18z" fill="#FFFFFF" p-id="13569"></path></svg>