<?xml version="1.0" standalone="no"?><!DOCTYPE svg PUBLIC "-//W3C//DTD SVG 1.1//EN" "http://www.w3.org/Graphics/SVG/1.1/DTD/svg11.dtd"><svg t="1623822390685" class="icon" viewBox="0 0 1024 1024" version="1.1" xmlns="http://www.w3.org/2000/svg" p-id="18479" xmlns:xlink="http://www.w3.org/1999/xlink" width="200" height="200"><defs><style type="text/css"></style></defs><path d="M513.765517 510.234483m-450.206896 0a450.206897 450.206897 0 1 0 900.413793 0 450.206897 450.206897 0 1 0-900.413793 0Z" fill="#FFFFFF" p-id="18480"></path><path d="M513.765517 510.234483m-379.586207 0a379.586207 379.586207 0 1 0 759.172414 0 379.586207 379.586207 0 1 0-759.172414 0Z" fill="#90DDFF" p-id="18481"></path><path d="M513.765517 510.234483m-247.172414 0a247.172414 247.172414 0 1 0 494.344828 0 247.172414 247.172414 0 1 0-494.344828 0Z" fill="#57CAFF" p-id="18482"></path><path d="M513.765517 510.234483m-176.551724 0a176.551724 176.551724 0 1 0 353.103448 0 176.551724 176.551724 0 1 0-353.103448 0Z" fill="#2EACF9" p-id="18483"></path><path d="M513.765517 510.234483m-105.931034 0a105.931034 105.931034 0 1 0 211.862069 0 105.931034 105.931034 0 1 0-211.862069 0Z" fill="#1876F8" p-id="18484"></path><path d="M226.868966 492.57931v44.137931h176.551724l17.655172-35.310344 79.448276 141.241379 70.62069-176.551724 52.965517 70.620689h176.551724v-44.137931h-150.068966l-88.275862-114.75862-70.620689 158.896551-70.62069-132.413793-43.255172 88.275862H226.868966z" fill="#FFFFFF" p-id="18485"></path></svg>