<?xml version="1.0" standalone="no"?><!DOCTYPE svg PUBLIC "-//W3C//DTD SVG 1.1//EN" "http://www.w3.org/Graphics/SVG/1.1/DTD/svg11.dtd"><svg t="1623815934029" class="icon" viewBox="0 0 1024 1024" version="1.1" xmlns="http://www.w3.org/2000/svg" p-id="2363" xmlns:xlink="http://www.w3.org/1999/xlink" width="200" height="200"><defs><style type="text/css"></style></defs><path d="M470.192725 1022.293333s-99.618133-147.387733-75.537066-266.581333c24.064-119.176533 212.394667-275.234133 233.181866-442.094933C648.624725 146.7392 508.626859 1.536 508.626859 1.536s-6.690133 179.882667-67.9936 269.806933C379.346859 361.284267 187.739392 489.147733 187.756459 687.428267c-1.024 109.4656 62.395733 289.3312 282.453333 334.848z" fill="#1C2142" p-id="2364"></path><path d="M707.760725 415.470933c2.184533 56.354133-50.346667 153.873067-135.748266 266.5472-21.282133 27.733333-89.770667 186.385067 45.994666 340.258134 54.7328-52.0192 199.236267-130.048 216.746667-312.081067 17.5104-182.033067-133.563733-322.901333-126.993067-294.741333z" fill="#27ABE0" p-id="2365"></path></svg>