<?xml version="1.0" standalone="no"?><!DOCTYPE svg PUBLIC "-//W3C//DTD SVG 1.1//EN" "http://www.w3.org/Graphics/SVG/1.1/DTD/svg11.dtd"><svg t="1692845839992" class="icon" viewBox="0 0 1024 1024" version="1.1" xmlns="http://www.w3.org/2000/svg" p-id="103750" xmlns:xlink="http://www.w3.org/1999/xlink" width="200" height="200"><path d="M805.6 595.1c-99.9-217.9-35.5-287.7-34.8-288.5 1.1-1.2 1.3-2.9 0.4-4.3-0.9-1.3-2.7-1.9-4.2-1.2-1.5 0.6-140.6 58.9-123 188.2-38.2-34.5-216.4-211.6-107.4-419.9 0.7-1.3 0.5-2.9-0.5-3.9-0.9-1.1-2.5-1.4-3.8-0.9-2.3 1-58 24.9-102.3 85.4-40.9 55.7-78.9 154.1-27.7 306.5 18.6 71.7-16.5 129.8-35.3 154.5 6.9-25.7 10.1-52.3 9.5-78.9-1.5-48.4-18.9-115.3-93-158.5-1.2-0.7-2.7-0.5-3.8 0.3-1.1 0.8-1.6 2.2-1.3 3.5 0.2 1.3 28 128.6-20.7 187.5-42 50.9-83.1 139.3-60.8 221.2 18.7 68.5 77 120.8 173.3 155.4 24.4 7.6 49.3 13.7 74.5 18.4 1.7 0.4 3.4-0.6 3.9-2.3 0.5-1.7-0.3-3.5-1.9-4.3-49.5-21.6-100.5-66.5-62.6-157.9 36.1-78.7 29.7-119.3 22.4-136.7 18.7 10.5 55.7 38.1 46.5 86.3-0.3 1.4 0.4 2.9 1.6 3.6 1.2 0.8 2.8 0.7 3.9-0.2 1.2-0.9 112.6-93.2 62-206.3 25 14.5 91.2 65.2 52.1 181.5-13 50 22.3 86 23.9 87.5 1.2 1.2 3 1.3 4.3 0.4 1.4-0.9 1.9-2.6 1.3-4.1-1.2-3.1-27.5-74.7 29.7-114.2-3.1 18.4-7.8 63.8 12.7 88.6 18.4 22.3 36.3 58.9 30.8 94.6-3.8 25.1-18.6 46.3-44 62.9-1.4 1-1.9 2.9-1.2 4.4 0.7 1.6 2.5 2.3 4.2 1.8 62.9-21 145.4-62.5 181.3-141.9 26.6-58.6 23.2-128.7-10-208.5z m0 0" fill="#F94744" p-id="103751"></path></svg>