<?xml version="1.0" standalone="no"?><!DOCTYPE svg PUBLIC "-//W3C//DTD SVG 1.1//EN" "http://www.w3.org/Graphics/SVG/1.1/DTD/svg11.dtd"><svg t="1623813540812" class="icon" viewBox="0 0 1024 1024" version="1.1" xmlns="http://www.w3.org/2000/svg" p-id="34095" xmlns:xlink="http://www.w3.org/1999/xlink" width="200" height="200"><defs><style type="text/css"></style></defs><path d="M512 85.333333C276.266667 85.333333 85.333333 276.266667 85.333333 512s190.933333 426.666667 426.666667 426.666667 426.666667-190.933333 426.666667-426.666667S747.733333 85.333333 512 85.333333z m192 597.333334H341.333333c-70.613333 0-128-57.386667-128-128s57.386667-128 128-128l5.76 0.64c18.986667-73.813333 85.333333-128.64 164.906667-128.64 94.293333 0 170.666667 76.373333 170.666667 170.666666h21.333333c58.88 0 106.666667 47.786667 106.666667 106.666667s-47.786667 106.666667-106.666667 106.666667z" p-id="34096" fill="#1296db"></path></svg>