<?xml version="1.0" standalone="no"?><!DOCTYPE svg PUBLIC "-//W3C//DTD SVG 1.1//EN" "http://www.w3.org/Graphics/SVG/1.1/DTD/svg11.dtd"><svg t="1595956461482" class="icon" viewBox="0 0 1025 1024" version="1.1" xmlns="http://www.w3.org/2000/svg" p-id="29988" xmlns:xlink="http://www.w3.org/1999/xlink" width="32.03125" height="32"><defs><style type="text/css"></style></defs><path d="M515.84 657.92c-8.32 0-16.64-3.2-22.4-9.6L17.92 172.8c-12.8-12.8-12.8-32.64 0-45.44s32.64-12.8 45.44 0l453.12 453.12 453.12-453.12c12.8-12.8 32.64-12.8 45.44 0s12.8 32.64 0 45.44l-476.16 476.16C532.48 654.72 524.16 657.92 515.84 657.92z" p-id="29989"></path><path d="M515.84 1024c-8.32 0-16.64-3.2-22.4-9.6L17.92 538.88c-12.8-12.8-12.8-32.64 0-45.44s32.64-12.8 45.44 0l453.12 453.12 453.12-453.12c12.8-12.8 32.64-12.8 45.44 0s12.8 32.64 0 45.44l-476.16 475.52C532.48 1020.8 524.16 1024 515.84 1024z" p-id="29990"></path></svg>