<?xml version="1.0" standalone="no"?><!DOCTYPE svg PUBLIC "-//W3C//DTD SVG 1.1//EN" "http://www.w3.org/Graphics/SVG/1.1/DTD/svg11.dtd"><svg t="1597219518933" class="icon" viewBox="0 0 1025 1024" version="1.1" xmlns="http://www.w3.org/2000/svg" p-id="22730" xmlns:xlink="http://www.w3.org/1999/xlink" width="200.1953125" height="200"><defs><style type="text/css"></style></defs><path d="M754.100055 68.266667c-229.410133 4.846933-315.5968 185.9584-315.5968 185.9584-26.112-31.744-90.077867-80.008533-198.997333-73.966933-100.693333 5.597867-149.162667 50.414933-186.436267 100.795733-110.728533 149.640533-60.586667 306.8928 268.9024 576.477867 19.2512 15.7696 58.641067 22.1184 77.892267 5.870933 17.7152-14.916267 42.0864-65.399467-18.602667-115.985067-157.5936-131.3792-237.704533-219.4432-171.7248-265.557333 51.5072-36.010667 86.801067 132.778667 248.081067 132.778667 170.564267 0 253.5424-218.112 305.322667-227.601067 85.4016-15.701333 59.528533 124.996267-76.322133 284.535467-40.6528 47.752533-104.994133 97.962667-161.792 145.2032-43.178667 35.908267-81.1008 48.674133-89.019733 79.325867-11.264 43.554133 20.138667 56.149333 52.497067 59.6992 8.977067 0.3072 18.500267-0.853333 28.535467-3.208533 24.234667-5.7344 50.653867-21.333333 90.077867-43.963733 171.1104-98.338133 409.975467-299.008 417.553067-519.2704C1030.033922 226.850133 931.217922 64.546133 754.100055 68.266667zM467.106988 538.760533c-47.445333 0-85.879467-38.229333-85.879467-85.367467 0-47.138133 38.434133-85.367467 85.879467-85.367467 47.4112 0 85.879467 38.229333 85.879467 85.367467C552.986455 500.5312 514.518188 538.760533 467.106988 538.760533z" p-id="22731" fill="#d4237a"></path></svg>