<?xml version="1.0" standalone="no"?><!DOCTYPE svg PUBLIC "-//W3C//DTD SVG 1.1//EN" "http://www.w3.org/Graphics/SVG/1.1/DTD/svg11.dtd"><svg t="1598079800364" class="icon" viewBox="0 0 1024 1024" version="1.1" xmlns="http://www.w3.org/2000/svg" p-id="10731" xmlns:xlink="http://www.w3.org/1999/xlink" width="200" height="200"><defs><style type="text/css"></style></defs><path d="M927.4368 135.8848h-72.8576l-30.3616-72.8576-30.3616 72.8576h-72.8576l60.7232 48.5888-24.2688 84.992 72.8576-54.6304 66.7648 54.6304-30.3616-84.992 60.7232-48.5888m-182.1184 242.8416H690.688L672.4608 324.096l-18.2272 54.6304h-60.7232l42.496 36.4032-18.2272 60.7232 48.5888-36.4032 48.5888 36.4032-18.2272-60.7232 48.5888-36.4032m182.1184 273.2032h-42.496l-12.1344-42.496-18.2272 42.496h-42.496l30.3616 24.2688-18.2272 48.5888 48.5888-30.3616 36.4032 30.3616-18.2272-48.5888 36.4544-24.2688M508.5696 26.624c-248.9344 24.2688-437.0944 230.7072-437.0944 485.6832 0 267.1104 218.5728 485.6832 485.6832 485.6832 151.7568 0 309.6064-72.8576 394.5984-182.1184h-66.7648c-267.1104 0-485.6832-218.5728-485.6832-485.6832C399.2576 214.8352 441.7536 111.616 508.5696 26.624" p-id="10732" fill="#515151"></path></svg>