<?xml version="1.0" standalone="no"?><!DOCTYPE svg PUBLIC "-//W3C//DTD SVG 1.1//EN" "http://www.w3.org/Graphics/SVG/1.1/DTD/svg11.dtd"><svg t="1692842412680" class="icon" viewBox="0 0 1024 1024" version="1.1" xmlns="http://www.w3.org/2000/svg" p-id="29210" xmlns:xlink="http://www.w3.org/1999/xlink" width="200" height="200"><path d="M512 512m-448.1 0a448.1 448.1 0 1 0 896.2 0 448.1 448.1 0 1 0-896.2 0Z" fill="#63D9FF" p-id="29211"></path><path d="M512 769.1c-23.9 0-47.9-5.3-70.2-16-11.5-5.5-22.1-12.8-43.1-27.4l-4.9-3.4c-15.3-10.6-23-15.9-30.4-22-39.8-33-66.6-79.1-75.5-129.8-1.6-9.4-2.4-18.7-4-37.2l-0.8-9.3c-2.7-30.9-2.4-62.3 0.8-93.1l0.9-9.2c3-28.9 13.4-56.7 30-80.5 16.7-23.8 39.3-43.1 65.4-55.8C421.1 265.5 466.6 255 512 255s90.9 10.5 131.6 30.4c26.1 12.8 48.8 32.1 65.4 55.8 16.7 23.8 27 51.6 30 80.5l1 9.2c3.2 30.9 3.5 62.2 0.8 93.1l-0.8 9.5c-1.6 18.4-2.4 27.7-4 37-8.9 50.7-35.7 96.8-75.5 129.8-7.3 6.1-15 11.4-30.4 22l-4.8 3.3c-21.1 14.6-31.7 21.9-43.2 27.4-22.2 10.7-46.2 16.1-70.1 16.1z m0-474.4c-39.3 0-78.5 8.7-114.3 26.2-41.3 20.1-68.8 59.3-73.5 104.8l-0.9 9.2c-2.9 28.4-3.2 57.2-0.7 85.7l0.8 9.3c1.5 17.4 2.2 26.1 3.6 33.7 7.3 41.5 29.2 79.2 61.7 106.2 6 5 13.2 10 27.6 19.9l4.8 3.4c19.3 13.4 29 20.1 37.7 24.2 33.7 16.2 72.4 16.2 106.2 0 8.7-4.2 18.5-10.9 37.8-24.3l4.8-3.3c14.4-10 21.6-15 27.6-19.9 32.5-27 54.5-64.7 61.7-106.2 1.3-7.6 2.1-16.3 3.6-33.6l0.8-9.5c2.4-28.4 2.2-57.3-0.7-85.7l-1-9.2c-4.7-45.5-32.2-84.7-73.5-104.8-35.6-17.3-74.9-26.1-114.1-26.1z" fill="#FFFFFF" p-id="29212"></path><path d="M492.2 581.2c-5.2 0-10.3-2.1-14-5.8l-52.7-52.7c-7.7-7.7-7.7-20.2 0-28 7.7-7.7 20.2-7.7 28 0l38.2 38.2L570 449c7.4-8 20-8.4 27.9-1 8 7.4 8.4 20 1 27.9l-92.3 98.8c-3.7 3.9-8.8 6.2-14.1 6.3 0 0.2-0.2 0.2-0.3 0.2z" fill="#FFFFFF" p-id="29213"></path></svg>