<?xml version="1.0" standalone="no"?><!DOCTYPE svg PUBLIC "-//W3C//DTD SVG 1.1//EN" "http://www.w3.org/Graphics/SVG/1.1/DTD/svg11.dtd"><svg t="1595955670335" class="icon" viewBox="0 0 1024 1024" version="1.1" xmlns="http://www.w3.org/2000/svg" p-id="16818" xmlns:xlink="http://www.w3.org/1999/xlink" width="32" height="32"><defs><style type="text/css"></style></defs><path d="M567 513.95l385-416.4v-3.93c0-3.94-3.94-3.94-3.94-3.94H720.21c-7.83 0-15.7 3.94-23.57 11.77-55 58.94-290.72 314.29-294.61 318.22l58.9-322.12v-3.93H260.58c-15.7 0-27.5 11.76-31.44 27.5L72 926.48v3.89l3.94 3.94h196.45c15.7 0 27.5-11.77 31.4-27.51l58.94-318.18 223.91 329.99c7.87 7.87 15.74 15.7 27.5 15.7h216.09c3.93 0 3.93 0 3.93-3.94v-3.89L567 513.95z" p-id="16819" fill="#2c2c2c"></path></svg>