<?xml version="1.0" standalone="no"?><!DOCTYPE svg PUBLIC "-//W3C//DTD SVG 1.1//EN" "http://www.w3.org/Graphics/SVG/1.1/DTD/svg11.dtd"><svg t="1597219551315" class="icon" viewBox="0 0 2525 1024" version="1.1" xmlns="http://www.w3.org/2000/svg" p-id="24044" xmlns:xlink="http://www.w3.org/1999/xlink" width="493.1640625" height="200"><defs><style type="text/css"></style></defs><path d="M2517.341253 300.39824c5.419968 5.419968 8.113952 11.93993 8.113952 19.559885s-2.693984 14.137917-8.113952 19.629885c-5.419968 5.455968-11.97593 8.185952-19.699885 8.185952s-14.243917-2.691984-19.629885-8.113952c-5.349969-5.419968-8.043953-11.93993-8.043953-19.559886s2.693984-14.137917 8.113953-19.629885c5.419968-5.455968 11.93993-8.185952 19.629885-8.185952 7.651955 0 14.207917 2.691984 19.629885 8.113953z m-2.337987 36.883784c4.713972-4.819972 7.085958-10.559938 7.085959-17.255899s-2.337986-12.401927-7.015959-17.185899c-4.677973-4.747972-10.415939-7.121958-17.219899-7.121959s-12.543927 2.373986-17.255899 7.155958c-4.713972 4.783972-7.049959 10.523938-7.049959 17.255899s2.337986 12.471927 6.979959 17.219899c4.641973 4.747972 10.381939 7.121958 17.1839 7.121959s12.543927-2.407986 17.291898-7.191958z m-3.897977-22.605868c0 4.961971-2.161987 8.079953-6.519962 9.353945l7.971954 10.807937h-6.449963l-7.193957-10.025941h-6.589962v10.025941h-5.207969v-29.975824h11.267934c4.533973 0 7.795954 0.779995 9.777942 2.337986s2.939983 4.037976 2.939983 7.475956z m-6.695961 4.215975c1.063994-0.849995 1.559991-2.301987 1.559991-4.251975s-0.529997-3.33198-1.59399-4.109976c-1.063994-0.779995-2.975983-1.133993-5.667967-1.133993h-6.377963v10.807937h6.201964c2.869983-0.036 4.853972-0.461997 5.881965-1.309993zM639.044258 177.092962v55.061678h-7.085958V177.092962H611.832418v-6.80196h47.443722v6.80196h-20.231882zM737.75768 232.15464v-27.247841h-37.273782v27.247841h-7.085958v-61.899638h7.085958v27.955837h37.273782V170.255002h7.085958v61.899638h-7.085958zM794.165349 177.092962v20.337881h31.215817v6.80196h-31.215817v21.187876h36.069789v6.731961h-43.157747v-61.899638h42.023754v6.801961h-34.935796z" p-id="24045"></path><path d="M557.868734 656.348154l147.859134-353.471929h28.379833l147.859134 353.471929h-37.345781l-45.813732-110.513352h-158.807069l-45.317735 110.513352h-36.813784z m162.315049-312.652168l-72.671574 174.752976h143.393159l-70.721585-174.750976zM920.128611 656.348154V302.876225h146.369143c60.729644 0 104.559387 56.26567 104.559387 111.00935 0 57.753662-40.817761 112.001344-101.547405 112.001344h-115.013326v130.427235h-34.369799z m34.367799-161.323055h112.993338c41.809755 0 68.701597-38.337775 68.701597-81.139524 0-44.32574-32.845808-80.14753-71.67958-80.14753h-110.017355v161.287054zM1151.711254 656.348154l147.859134-353.471929h28.381834l147.859133 353.471929h-37.345781l-45.813731-110.513352h-158.80707l-45.317734 110.513352h-36.813785z m162.315049-312.652168l-72.671574 174.752976h143.39316l-70.721586-174.750976zM1643.086375 300.858237c62.713633 0 108.529364 31.853813 130.425236 77.171548l-27.883837 16.937901c-22.393869-46.805726-66.221612-62.715633-104.559387-62.715633-84.647504 0-130.923233 75.683557-130.923233 146.86514 0 78.163542 57.259664 148.851128 132.411224 148.851127 39.825767 0 86.631492-19.913883 109.025361-65.725614l28.875831 14.917912c-22.887866 52.759691-85.639498 82.131519-139.88518 82.131519-97.085431 0-165.291031-92.585458-165.291032-182.192933 0.036-85.107501 61.261641-176.238967 167.807017-176.238967zM2107.887652 302.878225v353.471929h-34.865796v-165.291031H1863.439084v165.291031H1829.105285V302.878225h34.333799v157.319079h209.582772v-157.319079h34.865796zM2425.181793 625.452335v30.861819h-237.466609V302.878225h233.002635v30.861819h-198.632836v127.449254h173.262984v29.371828h-173.262984v134.925209h203.09881z" p-id="24046"></path><path d="M590.856541 731.181716c4.181975 1.239993 7.865954 2.941983 10.983935 5.02997l-3.649978 8.007953a36.895784 36.895784 0 0 0-10.23994-4.747972c-3.613979-1.027994-7.085958-1.557991-10.34594-1.557991-4.817972 0-8.681949 0.849995-11.551932 2.585985s-4.321975 4.181975-4.321975 7.335957c0 2.691984 0.815995 4.961971 2.407986 6.731961s3.613979 3.153982 6.023965 4.145975c2.407986 0.991994 5.705967 2.125988 9.921942 3.40198 5.10197 1.62999 9.211946 3.153982 12.293928 4.571974 3.117982 1.417992 5.773966 3.507979 7.971953 6.307963 2.197987 2.763984 3.293981 6.447962 3.293981 10.983935 0 4.145976-1.133993 7.723955-3.365981 10.841937-2.231987 3.081982-5.421968 5.491968-9.495944 7.191958-4.109976 1.70199-8.821948 2.551985-14.173917 2.551985s-10.523938-1.027994-15.553909-3.081982c-5.029971-2.053988-9.353945-4.817972-12.967924-8.291952l3.791978-7.653955c3.40198 3.33198 7.335957 5.917965 11.797931 7.759955s8.787949 2.763984 13.037923 2.763984c5.421968 0 9.673943-1.061994 12.791926-3.153982s4.677973-4.923971 4.677972-8.46795c0-2.763984-0.815995-5.06797-2.445986-6.87396s-3.649979-3.187981-6.057964-4.215975c-2.407986-0.991994-5.705967-2.125988-9.921942-3.40198-5.029971-1.487991-9.105947-2.941983-12.259928-4.321975s-5.811966-3.43798-7.971953-6.201964c-2.159987-2.727984-3.259981-6.341963-3.259981-10.841936 0-3.861977 1.061994-7.227958 3.187981-10.133941s5.17397-5.17397 9.071947-6.76796c3.931977-1.593991 8.431951-2.407986 13.533921-2.407986 4.357974 0.034 8.57595 0.673996 12.791925 1.913989zM701.581892 734.441697c5.951965 3.33198 10.701937 7.899954 14.173917 13.60592 3.47198 5.739966 5.243969 12.01193 5.243969 18.883889 0 6.90796-1.73599 13.251922-5.243969 18.991889-3.47198 5.773966-8.219952 10.31194-14.173917 13.67792s-12.507927 5.06797-19.557886 5.06797c-7.191958 0-13.747919-1.66399-19.735884-5.06797-5.951965-3.36598-10.701937-7.937953-14.173917-13.67792-3.47198-5.773966-5.243969-12.081929-5.243969-18.991889s1.73599-13.215923 5.243969-18.955889c3.47198-5.739966 8.219952-10.27394 14.173917-13.57192 5.951965-3.33198 12.543927-4.961971 19.735884-4.961971 7.051959-0.034 13.57192 1.62999 19.557886 4.995971z m-34.793796 7.049958c-4.641973 2.621985-8.361951 6.201964-11.125935 10.663938s-4.181975 9.389945-4.181976 14.773913c0 5.421968 1.381992 10.381939 4.181976 14.881913 2.763984 4.499974 6.483962 8.077953 11.125935 10.701937s9.707943 3.931977 15.201911 3.931977c5.491968 0 10.523938-1.311992 15.129911-3.931977s8.255952-6.163964 11.019935-10.701937c2.727984-4.499974 4.109976-9.459945 4.109976-14.881913s-1.381992-10.345939-4.109976-14.811913c-2.727984-4.463974-6.413962-8.007953-11.019935-10.629938s-9.637944-3.967977-15.093912-3.967976c-5.491968 0-10.557938 1.311992-15.23591 3.967976zM774.713463 737.843677v26.219846h34.865796v8.219952h-34.865796v31.959813h-8.53795v-74.619563h47.407723v8.219952h-38.869773zM882.81683 737.843677v66.399611h-8.53795v-66.399611h-24.235858v-8.219952h57.187665v8.219952h-24.413857zM1017.530041 804.243288l-20.125882-62.855632-20.407881 62.855632h-8.681949l-24.979854-74.619563h9.177947l20.513879 64.735621 20.231882-64.629622 8.53795-0.105999 20.44588 64.735621 20.231881-64.735621h8.857949l-25.015854 74.619563h-8.787948zM1093.885593 785.393398l-8.325951 18.84989h-9.069947l33.447804-74.619563h8.857948l33.341805 74.619563h-9.247946l-8.325951-18.84989h-40.675762z m20.267881-46.06173l-16.617902 37.841778h33.447804l-16.829902-37.841778zM1226.332817 780.467427a79.485534 79.485534 0 0 1-4.995971 0.211999h-19.841883v23.561862h-8.503951v-74.619563h28.345834c9.281946 0 16.511903 2.197987 21.683873 6.553961 5.13797 4.357974 7.723955 10.557938 7.723955 18.529892 0 6.093964-1.451991 11.231934-4.323975 15.34191s-7.015959 7.085958-12.401927 8.857948l17.431898 25.333852h-9.673943l-15.44991-23.773861z m10.699937-12.435927c3.649979-2.975983 5.491968-7.369957 5.491968-13.109923 0-5.633967-1.841989-9.885942-5.491968-12.755926s-8.893948-4.321975-15.695908-4.321974h-19.841883v34.653797h19.841883c6.80396 0 12.047929-1.487991 15.695908-4.463974zM1306.834345 737.843677v24.519856h37.62778v8.219952h-37.62778v25.54785h43.509745v8.113953h-52.049695v-74.619563h50.633704v8.219952h-42.093754zM1469.361393 737.843677v26.219846h34.865796v8.219952h-34.865796v31.959813h-8.53795v-74.619563h47.409722v8.219952h-38.867772zM1602.694612 734.441697c5.951965 3.33198 10.701937 7.899954 14.173917 13.60592 3.47198 5.739966 5.243969 12.01193 5.243969 18.883889 0 6.90796-1.73599 13.251922-5.243969 18.991889-3.47198 5.773966-8.219952 10.31194-14.173917 13.67792s-12.507927 5.06797-19.557886 5.06797c-7.191958 0-13.747919-1.66399-19.735884-5.06797-5.951965-3.36598-10.701937-7.937953-14.173917-13.67792-3.47198-5.773966-5.243969-12.081929-5.243969-18.991889s1.73599-13.215923 5.243969-18.955889c3.47198-5.739966 8.219952-10.27394 14.173917-13.57192 5.951965-3.33198 12.541927-4.961971 19.735884-4.961971 7.085958-0.034 13.60592 1.62999 19.557886 4.995971z m-34.759796 7.049958c-4.641973 2.621985-8.361951 6.201964-11.125935 10.663938s-4.181975 9.389945-4.181976 14.773913c0 5.421968 1.381992 10.381939 4.181976 14.881913 2.763984 4.499974 6.483962 8.077953 11.125935 10.701937s9.707943 3.931977 15.20191 3.931977c5.491968 0 10.521938-1.311992 15.129912-3.931977s8.255952-6.163964 11.019935-10.701937c2.727984-4.499974 4.109976-9.459945 4.109976-14.881913s-1.381992-10.345939-4.109976-14.811913c-2.727984-4.463974-6.413962-8.007953-11.019935-10.629938s-9.637944-3.967977-15.093912-3.967976c-5.527968 0-10.593938 1.311992-15.23591 3.967976zM1720.115924 796.413334c-5.563967 5.491968-13.215923 8.255952-22.959866 8.255951-9.815942 0-17.503897-2.763984-23.067864-8.255951s-8.361951-13.109923-8.361951-22.889866v-43.935743h8.53795v43.935743c0 7.191958 2.055988 12.791925 6.129964 16.829901 4.109976 4.037976 9.673943 6.057965 16.759901 6.057965 7.121958 0 12.683926-2.019988 16.689903-6.023965 4.037976-4.003977 6.023965-9.637944 6.023964-16.899901v-43.935743h8.53795v43.935743c0.036 9.815942-2.727984 17.431898-8.289951 22.923866zM1831.65727 804.243288l-44.749737-59.915649v59.915649h-8.53795v-74.619563h8.857948l44.749737 59.985648v-59.985648h8.431951v74.619563h-8.751949zM1941.106629 734.547696c5.809966 3.293981 10.415939 7.759955 13.781919 13.427921 3.40198 5.667967 5.06797 12.01193 5.067971 18.955889s-1.70199 13.321922-5.067971 18.991889c-3.36598 5.705967-8.007953 10.16794-13.923918 13.427921-5.881966 3.259981-12.471927 4.889971-19.663885 4.889972h-29.869825v-74.619563h30.187823c7.191958 0 13.67592 1.62999 19.487886 4.923971z m-41.135759 61.581639h21.755873c5.491968 0 10.487939-1.239993 14.987912-3.755978s8.077953-5.987965 10.701937-10.451939c2.621985-4.427974 3.931977-9.389945 3.931977-14.881912s-1.345992-10.417939-4.003977-14.845913c-2.655984-4.427974-6.271963-7.899954-10.841936-10.487939-4.535973-2.551985-9.567944-3.861977-15.093912-3.861977h-21.435874v58.285658zM2008.500234 785.393398l-8.325951 18.84989h-9.069947l33.447804-74.619563h8.857948l33.341805 74.619563h-9.211946l-8.327951-18.84989h-40.711762z m20.265881-46.06173l-16.617902 37.841778h33.447804l-16.829902-37.841778zM2122.733565 737.843677v66.399611h-8.50395v-66.399611h-24.235858v-8.219952h57.187665v8.219952h-24.447857zM2188.245181 804.243288v-74.619563h8.53995v74.619563h-8.53995zM2300.850521 734.441697c5.951965 3.33198 10.701937 7.899954 14.171917 13.60592 3.47198 5.739966 5.243969 12.01193 5.243969 18.883889 0 6.90796-1.73599 13.251922-5.243969 18.991889-3.47198 5.773966-8.219952 10.31194-14.171917 13.67792s-12.507927 5.06797-19.559885 5.06797c-7.193958 0-13.747919-1.66399-19.735885-5.06797-5.951965-3.36598-10.701937-7.937953-14.171917-13.67792-3.47198-5.773966-5.243969-12.081929-5.243969-18.991889s1.73599-13.215923 5.243969-18.955889c3.47198-5.739966 8.219952-10.27394 14.171917-13.57192 5.951965-3.33198 12.543927-4.961971 19.735885-4.961971 7.085958-0.034 13.60592 1.62999 19.559885 4.995971z m-34.759796 7.049958c-4.641973 2.621985-8.361951 6.201964-11.125935 10.663938s-4.181975 9.389945-4.181976 14.773913c0 5.421968 1.381992 10.381939 4.181976 14.881913 2.763984 4.499974 6.483962 8.077953 11.125935 10.701937s9.707943 3.931977 15.201911 3.931977c5.491968 0 10.523938-1.311992 15.129911-3.931977s8.255952-6.163964 11.017936-10.701937c2.727984-4.499974 4.109976-9.459945 4.109975-14.881913s-1.381992-10.345939-4.109975-14.811913c-2.727984-4.463974-6.413962-8.007953-11.017936-10.629938s-9.637944-3.967977-15.093911-3.967976c-5.527968 0-10.559938 1.311992-15.235911 3.967976zM2418.76983 804.243288l-44.751738-59.915649v59.915649h-8.53995v-74.619563h8.857949l44.751737 59.985648v-59.985648h8.431951v74.619563h-8.751949z" p-id="24047"></path><path d="M435.839449 4.857972c-16.049906 9.495944-42.73175 36.317787-74.583563 75.221559l29.265828 55.237676c20.54988-29.373828 41.419757-55.805673 62.465634-78.375541a77.383547 77.383547 0 0 1 2.479986-2.655984c-0.813995 0.885995-1.62999 1.77199-2.479986 2.655984-6.80196 7.511956-27.459839 31.605815-58.641656 79.509534 30.011824-1.487991 76.143554-7.651955 113.773333-14.067917 11.197934-62.715633-10.983936-91.415464-10.983935-91.415464s-28.239835-45.637733-61.297641-26.113847z" p-id="24048"></path><path d="M337.514025 468.771253c-3.755978 0.673996-7.583956 1.345992-11.515932 2.019988-0.036 0-0.036 0.036-0.072 0.036 1.983988-0.283998 3.967977-0.601996 5.881965-0.919994 1.949989-0.353998 3.825978-0.743996 5.703967-1.133994z" p-id="24049"></path><path d="M337.514025 468.771253c-3.755978 0.673996-7.583956 1.345992-11.515932 2.019988-0.036 0-0.036 0.036-0.072 0.036 1.983988-0.283998 3.967977-0.601996 5.881965-0.919994 1.949989-0.353998 3.825978-0.743996 5.703967-1.133994z" p-id="24050"></path><path d="M347.329968 420.475536c-0.036 0-0.036 0 0 0-0.036 0.036-0.072 0.036-0.072 0.036 0.637996-0.072 1.239993-0.177999 1.841989-0.283998 2.479985-0.353998 4.925971-0.779995 7.333957-1.309993-3.011982 0.531997-6.023965 1.027994-9.105946 1.559991z" p-id="24051"></path><path d="M347.329968 420.475536c-0.036 0-0.036 0 0 0-0.036 0.036-0.072 0.036-0.072 0.036 0.637996-0.072 1.239993-0.177999 1.841989-0.283998 2.479985-0.353998 4.925971-0.779995 7.333957-1.309993-3.011982 0.531997-6.023965 1.027994-9.105946 1.559991z" p-id="24052"></path><path d="M304.20822 278.038371a1777.537585 1777.537585 0 0 1 26.999842-48.683715 1471.491378 1471.491378 0 0 1 28.665832-47.72772c0.567997-0.919995 1.133993-1.841989 1.70199-2.727984a1130.865374 1130.865374 0 0 1 28.913831-43.545745l-29.265829-55.275676c-2.197987 2.691984-4.427974 5.421968-6.661961 8.219952a1245.668701 1245.668701 0 0 0-26.185846 33.837801 1545.950942 1545.950942 0 0 0-31.109818 43.121748 1735.849829 1735.849829 0 0 0-29.585827 43.829743 1820.403334 1820.403334 0 0 0-25.299852 39.859766c-0.317998 0.495997-0.637996 1.027994-0.919994 1.523991l38.089777 75.22356a1997.912293 1997.912293 0 0 1 24.661855-47.655721zM130.733237 701.913887a5395.196388 5395.196388 0 0 0-15.199911 42.375752l-0.211999 0.637996c-0.709996 2.019988-1.453991 4.075976-2.161987 6.093964-3.43598 9.707943-6.377963 18.459892-13.215923 38.337776 11.231934 5.13797 20.231881 18.601891 28.735832 33.873801-0.921995-15.837907-7.441956-30.68382-19.911884-42.199752 55.309676 2.479985 102.965397-11.479933 127.591253-51.943696a105.361383 105.361383 0 0 0 6.023964-11.407933c-11.197934 14.207917-25.085853 20.231881-51.1997 18.77789-0.07 0.034-0.105999 0.034-0.175999 0.071999 0.07-0.034 0.105999-0.034 0.175999-0.071999 38.479775-17.219899 57.789661-33.767802 74.831562-61.155642 4.037976-6.483962 7.971953-13.60592 11.97593-21.471874-33.625803 34.547798-72.635574 44.39774-113.703334 36.921784l-30.78982 3.36598c-0.849995 2.585985-1.805989 5.17397-2.763983 7.793954zM145.119152 632.928291c6.661961-17.183899 13.499921-34.615797 20.54988-52.157694 6.731961-16.793902 13.63992-33.731802 20.727879-50.739703s14.313916-34.0498 21.685872-51.0937a3541.239251 3541.239251 0 0 1 22.995866-51.907696c7.723955-17.0439 15.589909-33.979801 23.597861-50.773703a1408.661746 1408.661746 0 0 1 8.715949-18.071894 2276.77666 2276.77666 0 0 1 15.271911-30.895819c0.283998-0.567997 0.567997-1.097994 0.849995-1.62999l-38.089777-75.223559c-0.637996 1.027994-1.239993 2.055988-1.877989 3.045982a1654.366306 1654.366306 0 0 0-26.361845 44.431739 1670.388213 1670.388213 0 0 0-25.75985 46.665727 1600.044625 1600.044625 0 0 0-20.763878 40.357764c-1.345992 2.763984-2.693984 5.491968-4.003976 8.219951a1131.46337 1131.46337 0 0 0-22.569868 49.427711 1034.20394 1034.20394 0 0 0-20.373881 51.411698 927.906563 927.906563 0 0 0-10.663937 30.967819 1034.465939 1034.465939 0 0 0-7.617956 25.439851c-5.667967 19.947883-10.593938 39.825767-14.597914 59.633651l38.231776 75.611557a5062.550337 5062.550337 0 0 1 15.589909-41.10176c1.453991-3.861977 2.975983-7.723955 4.463973-11.621932z" p-id="24053"></path><path d="M86.265497 612.76641c-4.819972 24.163858-8.219952 48.259717-9.919942 72.211576-0.07 0.849995-0.141999 1.66399-0.177999 2.515986-11.94193-19.133888-43.935743-37.841778-43.865743-37.62978 22.889866 33.199805 40.285764 66.151612 42.837749 98.501423-12.259928 2.515985-29.05383-1.133993-48.471716-8.255952 20.231881 18.601891 35.431792 23.739861 41.349758 25.121853-18.601891 1.167993-37.947778 13.923918-57.435663 28.629832 28.523833-11.621932 51.553698-16.227905 68.065601-12.507926-26.185847 74.053566-52.405693 155.831087-78.659539 242.638578 8.041953-2.373986 12.825925-7.759955 15.553909-15.093912 4.675973-15.731908 35.715791-118.911303 84.327505-254.474508 1.381992-3.861977 2.763984-7.723955 4.179976-11.657932 0.389998-1.061994 0.779995-2.159987 1.167993-3.259981a4571.769212 4571.769212 0 0 1 15.979907-43.545745c1.239993-3.36598 2.515985-6.731961 3.789977-10.133941 0.034-0.072 0.034-0.141999 0.07-0.211998l-38.231776-75.541558c-0.177999 0.921995-0.389998 1.807989-0.565997 2.691985zM285.43033 332.002055a1198.412978 1198.412978 0 0 0-3.29598 6.76796c-3.295981 6.80196-6.661961 13.747919-10.025942 20.833878-3.649979 7.689955-7.333957 15.555909-11.089935 23.561862-1.877989 4.037976-3.755978 8.113952-5.669967 12.259928a3067.802025 3067.802025 0 0 0-17.325898 38.371775 3612.446833 3612.446833 0 0 0-21.967871 50.597704 4181.181501 4181.181501 0 0 0-21.577874 51.837696 4370.078394 4370.078394 0 0 0-21.009877 52.545692 4099.095982 4099.095982 0 0 0-19.133888 49.639709c-0.317998 0.815995-0.637996 1.66399-0.919994 2.479986a5470.571946 5470.571946 0 0 0-19.345887 52.013695c-0.141999 0.389998-0.281998 0.815995-0.461997 1.205993l30.789819-3.36598c-0.601996-0.105999-1.239993-0.177999-1.841989-0.317999 36.813784-4.605973 85.781497-32.101812 117.423312-66.081612 14.561915-15.659908 27.813837-34.1198 40.037766-55.735674 9.105947-16.085906 17.643897-33.943801 25.795848-53.679685 7.121958-17.255899 13.959918-35.927789 20.54988-56.195671-8.46795 4.463974-18.141894 7.723955-28.841831 9.991942-1.877989 0.389998-3.789978 0.779995-5.703967 1.097993a154.679094 154.679094 0 0 1-5.881965 0.919995c0.036 0 0.036-0.036 0.071999-0.036 34.333799-13.215923 55.983672-38.691773 71.71558-69.94359-9.035947 6.165964-23.703861 14.207917-41.313758 18.105894a95.463441 95.463441 0 0 1-7.333957 1.309992c-0.601996 0.105999-1.239993 0.213999-1.841989 0.283998 0.036 0 0.036 0 0.036-0.035999h0.036c11.90393-4.995971 21.967871-10.559938 30.68382-17.1499a110.191354 110.191354 0 0 0 5.419968-4.357974 105.399382 105.399382 0 0 0 7.617956-7.263958 100.517411 100.517411 0 0 0 4.499973-5.03197 120.193296 120.193296 0 0 0 9.601944-13.215923c0.919995-1.451991 1.807989-2.939983 2.691984-4.463974a592.24253 592.24253 0 0 0 3.295981-6.483962c4.783972-9.637944 8.645949-18.247893 11.691931-25.795849a224.312686 224.312686 0 0 0 4.003977-10.523938c0.461997-1.309992 0.885995-2.549985 1.309992-3.755978a190.634883 190.634883 0 0 0 2.975983-9.673943c1.167993-4.251975 1.877989-7.617955 2.267986-10.061941-1.167993 0.919995-2.515985 1.841989-4.003976 2.727984-10.381939 6.201964-28.167835 11.833931-42.483751 14.455915l-0.637996 0.105999c-1.415992 0.247999-2.869983 0.461997-4.321975 0.709996 0.247999-0.105999 0.495997-0.247999 0.743996-0.353998l-96.729434 10.593938c-0.141999 0.389998-0.319998 0.743996-0.495997 1.097994z" p-id="24054"></path><path d="M394.311692 136.4532c-8.60995 13.215923-17.999895 28.203835-28.131835 45.175736-0.531997 0.885995-1.061994 1.805989-1.593991 2.693984-8.715949 14.703914-17.999895 30.861819-27.743837 48.541716a2177.917239 2177.917239 0 0 0-26.325846 49.249711 2478.14948 2478.14948 0 0 0-24.589856 48.825714l96.729434-10.593938c28.167835-12.967924 40.783761-24.695855 53.007689-41.667756 3.259981-4.677973 6.519962-9.567944 9.743943-14.633914 9.919942-15.519909 19.699885-32.597809 28.379834-49.56971 8.395951-16.405904 15.837907-32.667809 21.507874-47.301723 3.613979-9.317945 6.519962-17.999895 8.53795-25.617849a230.672648 230.672648 0 0 0 4.215975-19.167888c-37.55778 6.411962-83.727509 12.577926-113.737334 14.065917z" p-id="24055"></path><path d="M331.812058 469.869247a154.679094 154.679094 0 0 1-5.881965 0.919994 109.409359 109.409359 0 0 0 5.881965-0.919994z" p-id="24056"></path><path d="M331.812058 469.869247a154.679094 154.679094 0 0 1-5.881965 0.919994 109.409359 109.409359 0 0 0 5.881965-0.919994z" p-id="24057"></path><path d="M331.812058 469.869247a154.679094 154.679094 0 0 1-5.881965 0.919994 109.409359 109.409359 0 0 0 5.881965-0.919994z" p-id="24058"></path><path d="M347.223968 420.511536c0.637996-0.072 1.239993-0.177999 1.841989-0.283998-0.601996 0.105999-1.203993 0.213999-1.841989 0.283998z" p-id="24059"></path><path d="M347.223968 420.511536c0.637996-0.072 1.239993-0.177999 1.841989-0.283998-0.601996 0.105999-1.203993 0.213999-1.841989 0.283998z" p-id="24060"></path><path d="M347.223968 420.511536c0.637996-0.072 1.239993-0.177999 1.841989-0.283998-0.601996 0.105999-1.203993 0.213999-1.841989 0.283998z" p-id="24061"></path><path d="M347.295968 420.475536z" p-id="24062"></path><path d="M347.295968 420.475536z" p-id="24063"></path><path d="M347.295968 420.475536z" p-id="24064"></path></svg>