<?xml version="1.0" standalone="no"?><!DOCTYPE svg PUBLIC "-//W3C//DTD SVG 1.1//EN" "http://www.w3.org/Graphics/SVG/1.1/DTD/svg11.dtd"><svg t="1692844680664" class="icon" viewBox="0 0 1024 1024" version="1.1" xmlns="http://www.w3.org/2000/svg" p-id="52449" xmlns:xlink="http://www.w3.org/1999/xlink" width="200" height="200"><path d="M0 0h1024v1024H0z" fill="#FFFFFF" p-id="52450"></path><path d="M0 0h1024v1024H0z" fill="#FFFFFF" p-id="52451"></path><path d="M200 320m32 0l64 0q32 0 32 32l0 256q0 32-32 32l-64 0q-32 0-32-32l0-256q0-32 32-32Z" fill="#FFD345" p-id="52452"></path><path d="M376 432v224a32 32 0 0 1-32 32h-32a16 16 0 1 1 0-32H320a24 24 0 0 0 24-24V432a16 16 0 1 1 32 0z" fill="#FFF3B2" p-id="52453"></path><path d="M248 224m16 0l0 0q16 0 16 16l0 480q0 16-16 16l0 0q-16 0-16-16l0-480q0-16 16-16Z" fill="#FFD345" p-id="52454"></path><path d="M648 544m32 0l64 0q32 0 32 32l0 256q0 32-32 32l-64 0q-32 0-32-32l0-256q0-32 32-32Z" fill="#FFD345" p-id="52455"></path><path d="M696 416m16 0l0 0q16 0 16 16l0 416q0 16-16 16l0 0q-16 0-16-16l0-416q0-16 16-16Z" fill="#FFD345" p-id="52456"></path><path d="M824 592v288a32 32 0 0 1-32 32h-96a16 16 0 1 1 0-32h64a32 32 0 0 0 32-32v-256a16 16 0 1 1 32 0z" fill="#FFF3B2" p-id="52457"></path><path d="M888 96m16 0l0 0q16 0 16 16l0 672q0 16-16 16l0 0q-16 0-16-16l0-672q0-16 16-16Z" fill="#FFD345" p-id="52458"></path><path d="M1000 256v448a32 32 0 0 1-32 32h-16a16 16 0 1 1 0-32 16 16 0 0 0 16-16V256a16 16 0 1 1 32 0z" fill="#FFF3B2" p-id="52459"></path><path d="M920 208h-32a32 32 0 0 0-32 32v416a32 32 0 0 0 32 32h32a32 32 0 0 0 32-32v-416a32 32 0 0 0-32-32z" fill="#FFD345" p-id="52460"></path><path d="M168 528v224a32 32 0 0 1-32 32h-96a16 16 0 1 1 0-32h64a32 32 0 0 0 32-32v-192a16 16 0 1 1 32 0z" fill="#FFF3B2" p-id="52461"></path><path d="M56 224m16 0l0 0q16 0 16 16l0 480q0 16-16 16l0 0q-16 0-16-16l0-480q0-16 16-16Z" fill="#FFD345" p-id="52462"></path><path d="M120 448v256a32 32 0 0 1-32 32h-32a32 32 0 0 1-32-32v-256a32 32 0 0 1 32-32h32a32 32 0 0 1 32 32z" fill="#FFD345" p-id="52463"></path><path d="M72 448a16 16 0 0 0-16 16v224a16 16 0 1 0 32 0v-224a16 16 0 0 0-16-16z" fill="#FFFFFF" p-id="52464"></path><path d="M472 192m16 0l0 0q16 0 16 16l0 544q0 16-16 16l0 0q-16 0-16-16l0-544q0-16 16-16Z" fill="#FFD345" p-id="52465"></path><path d="M568 288v320a32 32 0 0 1-32 32h-96a32 32 0 0 1-32-32V288a32 32 0 0 1 32-32h96a32 32 0 0 1 32 32z" fill="#FFD345" p-id="52466"></path><path d="M520 288h-64a16 16 0 0 0-16 16v288a16 16 0 0 0 16 16h64a16 16 0 0 0 16-16v-288a16 16 0 0 0-16-16z" fill="#FFFFFF" p-id="52467"></path><path d="M616 304v352a32 32 0 0 1-32 32h-48a16 16 0 1 1 0-32h16a32 32 0 0 0 32-32v-320a16 16 0 1 1 32 0z" fill="#FFF3B2" p-id="52468"></path></svg>