<?xml version="1.0" standalone="no"?><!DOCTYPE svg PUBLIC "-//W3C//DTD SVG 1.1//EN" "http://www.w3.org/Graphics/SVG/1.1/DTD/svg11.dtd"><svg t="1692770665723" class="icon" viewBox="0 0 1025 1024" version="1.1" xmlns="http://www.w3.org/2000/svg" p-id="21012" xmlns:xlink="http://www.w3.org/1999/xlink" width="200.1953125" height="200"><path d="M546.52416 608.00512h15.9808a15.95136 15.95136 0 0 1 15.98208 15.98208v255.70816a15.9488 15.9488 0 0 1-15.98208 15.9808h-15.9808a15.9488 15.9488 0 0 1-15.98208-15.9808V623.9872a15.9488 15.9488 0 0 1 15.98208-15.98208z m-79.9104 0h15.98208a15.9488 15.9488 0 0 1 15.98208 15.98208v255.70816a15.9488 15.9488 0 0 1-15.98208 15.9808h-15.98208a15.9488 15.9488 0 0 1-15.98208-15.9808V623.9872a15.95136 15.95136 0 0 1 15.98208-15.98208zM99.0336 144.53248a31.90016 31.90016 0 0 0-31.96416 31.96416c0 17.57952 14.38336 31.96416 31.96416 31.96416 17.70368 0 31.96416-14.38336 31.96416-31.96416S116.736 144.53248 99.0336 144.53248z m0 111.99616c-44.1344 0-79.90912-35.77472-79.90912-79.90912S54.8992 96.7104 99.0336 96.7104s79.90912 35.77472 79.90912 79.90912c-0.00128 44.01152-35.77472 79.90912-79.90912 79.90912z m223.744 479.33184l-175.79904-95.8912V368.27776s-4.54912-31.96416-47.94624-31.96416c-39.21664 0-47.94624 31.96416-47.94624 31.96416v239.72736s-2.70464 24.83328 15.98208 31.96416l239.72736 111.872v191.78112h15.98208V735.86048z m47.94624 15.9808v191.78112s-3.56608 51.26528-63.92704 47.94624c-46.22336-2.58176-47.94496-47.94624-47.94496-47.94624V783.80544L51.08736 687.91424S3.7568 670.08768 3.1424 623.98848V352.29696s22.00448-63.06688 95.8912-63.92704c76.5888-0.86016 95.8912 63.92704 95.8912 63.92704v255.70816l143.83616 79.90912c-0.00128 0 30.85568 10.94016 31.96288 63.92704zM514.56 96.46464c-17.70368 0-31.96416 14.26048-31.96416 31.84s14.38336 31.84128 31.96416 31.84128 31.96416-14.26176 31.96416-31.84128S532.2624 96.46464 514.56 96.46464z m0 111.50464c-44.1344 0-79.90912-35.65312-79.90912-79.66336 0-43.88864 35.77472-79.54048 79.90912-79.54048 44.13312 0 79.90912 35.65184 79.90912 79.54048 0 44.01024-35.776 79.66336-79.90912 79.66336z m63.92704 111.3792s-2.82752-32.82432-63.92704-31.84c-65.8944 0.98432-63.92704 31.84-63.92704 31.84v192.76544h127.85536V319.34848z m175.80032 240.83456H274.83264s-15.98208-2.70336-15.98208-22.00448c0-24.096 15.98208-26.06336 15.98208-26.06336H402.688V303.3664s-0.6144-63.06688 111.872-63.68c103.14368-0.6144 111.872 63.68 111.872 63.68v208.74752h127.85536s15.9808 6.14656 15.9808 23.48032c0 16.22784-15.9808 24.5888-15.9808 24.5888zM930.08768 144.4096c-17.70368 0-31.96416 14.26176-31.96416 31.84128 0 17.57824 14.26048 31.84 31.96416 31.84 17.57952 0 31.96288-14.26176 31.96288-31.84 0-17.57952-14.38336-31.84128-31.96288-31.84128z m0 111.38048c-44.1344 0-79.9104-35.65184-79.9104-79.5392 0-43.88992 35.77472-79.54048 79.9104-79.54048 44.13312 0 79.90912 35.65184 79.90912 79.54048s-35.776 79.5392-79.90912 79.5392z m47.94496 350.37056V367.29472s-8.72704-31.84-47.82208-31.84c-43.52 0-47.94496 31.84-47.94496 31.84v270.7072l-175.80032 95.52384v207.02464h15.9808V749.50656l239.72736-111.38176c18.43968-7.25376 15.8592-31.96416 15.8592-31.96416z m47.94496 15.8592c-0.6144 45.97888-47.94496 63.68128-47.94496 63.68128l-207.7632 95.52256v159.20256s-1.7216 45.2416-47.94496 47.70048c-60.36224 3.31904-63.92704-47.70048-63.92704-47.70048V749.50656c1.10592-52.86272 31.96416-63.68256 31.96416-63.68256l143.83616-79.54048v-254.848s19.30112-64.54144 95.8912-63.68128c73.88544 0.86016 95.88992 63.68128 95.88992 63.68128l-0.00128 270.58432z" fill="#707070" p-id="21013"></path></svg>