<?xml version="1.0" standalone="no"?><!DOCTYPE svg PUBLIC "-//W3C//DTD SVG 1.1//EN" "http://www.w3.org/Graphics/SVG/1.1/DTD/svg11.dtd"><svg t="1598079494669" class="icon" viewBox="0 0 1024 1024" version="1.1" xmlns="http://www.w3.org/2000/svg" p-id="4457" xmlns:xlink="http://www.w3.org/1999/xlink" width="200" height="200"><defs><style type="text/css"></style></defs><path d="M512 148c-201.024 0-364 163.04-364 364.16 0 35.408 5.056 69.616 14.464 101.952a16 16 0 1 1-30.72 8.944c-10.256-35.2-15.744-72.432-15.744-110.912C116 293.36 293.28 116 512 116s396 177.36 396 396.16a16 16 0 1 1-32 0C876 311.04 713.024 148 512 148z m0 76.032c-159.04 0-288 128.992-288 288.112 0 90.96 11.584 179.2 33.328 263.328a16 16 0 0 1-30.976 8A1082.688 1082.688 0 0 1 192 512.16c0-176.8 143.264-320.112 320-320.112 27.6 0 54.4 3.488 80 10.08a16 16 0 1 1-8 30.992 288.464 288.464 0 0 0-72-9.072z m143.44 19.424a16 16 0 0 1 21.968-5.392C770.032 294.112 832 395.888 832 512.144c0 59.328 11.728 115.872 32.96 167.488a16 16 0 0 1-29.6 12.16A470.992 470.992 0 0 1 800 512.16c0-104.608-55.728-196.208-139.168-246.72a16 16 0 0 1-5.392-21.968zM512 300.064c-117.072 0-212 94.944-212 212.08 0 37.312 2.096 74.144 6.192 110.352a16 16 0 0 1-31.808 3.584 1015.392 1015.392 0 0 1-6.384-113.92c0-134.816 109.232-244.096 244-244.096s244 109.28 244 244.08a514.08 514.08 0 0 0 58.88 239.728 16 16 0 1 1-28.32 14.88 546.08 546.08 0 0 1-62.56-254.608c0-117.136-94.928-212.08-212-212.08z m0 76.032a135.296 135.296 0 0 0-81.6 27.184 16 16 0 1 1-19.2-25.584 167.296 167.296 0 0 1 100.8-33.6c92.8 0 168 75.248 168 168.048a589.632 589.632 0 0 0 77.616 293.376 16 16 0 1 1-27.776 15.872A621.632 621.632 0 0 1 648 512.144a136.032 136.032 0 0 0-136-136.048z m0 76.016a60 60 0 0 0-60 60.032c0 134.176 32.192 260.8 89.264 372.576a16 16 0 0 1-28.512 14.56c-59.312-116.192-92.752-247.776-92.752-387.136a92 92 0 1 1 184 0c0 35.376 2.752 70.096 8.032 103.968a16 16 0 1 1-31.616 4.944 705.68 705.68 0 0 1-8.416-108.912A60 60 0 0 0 512 452.112z m-128.736-22.4a16 16 0 0 1 7.12 21.472 135.472 135.472 0 0 0-14.384 60.96 893.392 893.392 0 0 0 78.16 366.704 16 16 0 0 1-29.2 13.088A925.392 925.392 0 0 1 344 512.16c0-27.04 6.4-52.64 17.776-75.328a16 16 0 0 1 21.488-7.12zM512 496.128a16 16 0 0 1 16 16 741.088 741.088 0 0 0 92.896 360.432 16 16 0 0 1-27.984 15.52A773.088 773.088 0 0 1 496 512.144a16 16 0 0 1 16-16z m95.616 180.176a16 16 0 0 1 19.632 11.248 664.32 664.32 0 0 0 65.76 158.08 16 16 0 0 1-27.728 16 696.288 696.288 0 0 1-68.912-165.696 16 16 0 0 1 11.248-19.632zM301.12 697.008A16 16 0 0 1 320 709.44a965.056 965.056 0 0 0 39.488 138.496 16 16 0 0 1-30.032 11.04 997.184 997.184 0 0 1-40.8-143.072 16 16 0 0 1 12.448-18.896z" p-id="4458" fill="#d4237a"></path></svg>