<?xml version="1.0" standalone="no"?><!DOCTYPE svg PUBLIC "-//W3C//DTD SVG 1.1//EN" "http://www.w3.org/Graphics/SVG/1.1/DTD/svg11.dtd"><svg t="1692845491064" class="icon" viewBox="0 0 1024 1024" version="1.1" xmlns="http://www.w3.org/2000/svg" p-id="79194" xmlns:xlink="http://www.w3.org/1999/xlink" width="200" height="200"><path d="M371.712 315.136c6.4 44.544 21.504 69.632 31.744 81.92h207.616c10.24-12.544 25.856-37.12 31.744-81.92 19.2 5.376 26.112-21.504 27.392-38.144 1.024-16.128 11.776-67.072-12.544-62.72 4.864-34.304 8.704-64.768 6.912-80.896-5.888-57.344-48.64-116.992-156.416-121.088-91.648 4.096-151.04 64.512-157.184 121.088-1.536 16.128 1.536 47.104 6.4 80.896-24.064-4.864-13.312 46.592-12.288 62.72 0.256 16.64 6.656 43.008 26.624 38.144zM422.4 908.8s-25.6-25.6-46.08-51.2c-25.6-5.12-46.08-10.24-71.68-20.48l51.2-87.04c25.6 35.84 71.68 61.44 112.64 71.68l-46.08 87.04z m225.28-56.32l-51.2 51.2-46.08-76.8c40.96-10.24 87.04-40.96 112.64-71.68l51.2 87.04s-35.84 5.12-66.56 10.24z m-138.24-368.64c-87.04 0-158.72 76.8-158.72 163.84s71.68 153.6 158.72 153.6 158.72-71.68 158.72-158.72-71.68-158.72-158.72-158.72z m92.16 153.6l-30.72 25.6c0 5.12-5.12 10.24 0 15.36l5.12 40.96v10.24c-5.12 10.24-15.36 10.24-25.6 5.12l-30.72-15.36c-5.12-5.12-10.24-5.12-15.36 0l-35.84 20.48h-10.24c-10.24 0-15.36-10.24-15.36-20.48l5.12-40.96c0-5.12 0-10.24-5.12-15.36l-25.6-25.6c0-5.12-5.12-5.12-5.12-10.24 0-10.24 5.12-20.48 15.36-20.48l35.84-5.12c5.12 0 10.24-5.12 15.36-10.24l15.36-35.84c5.12-5.12 10.24-10.24 15.36-10.24s15.36 5.12 15.36 10.24l15.36 35.84c0 5.12 5.12 10.24 15.36 10.24l35.84 5.12c5.12 0 5.12 0 10.24 5.12s5.12 15.36 0 25.6z" fill="#1296db" p-id="79195"></path><path d="M1001.472 755.712c0-43.264-23.552-78.848-53.76-82.432v-225.024c0-27.904-23.04-50.944-50.944-50.944H124.672c-27.904 0-50.944 23.04-50.944 50.944V673.28c-29.952 3.84-53.76 39.168-53.76 82.432 0 43.264 23.552 78.848 53.76 82.432v105.216c0 27.904 23.04 50.944 50.944 50.944h772.096c27.904 0 50.944-23.04 50.944-50.944v-105.216c30.208-3.328 53.76-39.424 53.76-82.432z m-104.448 228.096H124.928c-22.016 0-40.192-18.176-40.192-40.192v-105.216c29.952-3.84 53.76-39.168 53.76-82.432 0-43.264-23.552-78.848-53.76-82.432v-225.28c0-22.016 18.176-40.192 40.192-40.192h772.096c22.016 0 40.192 18.176 40.192 40.192V673.28c-29.952 3.84-53.76 39.168-53.76 82.432 0 43.264 23.552 78.848 53.76 82.432v105.216c0 22.528-18.176 40.448-40.192 40.448z" fill="#1296db" p-id="79196"></path></svg>