<?xml version="1.0" standalone="no"?><!DOCTYPE svg PUBLIC "-//W3C//DTD SVG 1.1//EN" "http://www.w3.org/Graphics/SVG/1.1/DTD/svg11.dtd"><svg t="1692845370311" class="icon" viewBox="0 0 1024 1024" version="1.1" xmlns="http://www.w3.org/2000/svg" p-id="71920" xmlns:xlink="http://www.w3.org/1999/xlink" width="200" height="200"><path d="M784.384 1013.76H221.184c-90.112 0-161.792-71.68-161.792-161.792V172.032C59.392 81.92 131.072 10.24 221.184 10.24h565.248c90.112 0 161.792 71.68 161.792 161.792v681.984c-2.048 88.064-73.728 159.744-163.84 159.744zM221.184 75.776C167.936 75.776 122.88 118.784 122.88 172.032v681.984c0 53.248 45.056 98.304 98.304 98.304h565.248c53.248 0 98.304-45.056 98.304-98.304V172.032c0-53.248-45.056-98.304-98.304-98.304H221.184z m0 0" fill="#1296db" p-id="71921"></path><path d="M333.824 178.176c6.144 0 16.384 8.192 30.72 22.528 2.048 2.048 2.048 4.096 2.048 6.144-6.144 20.48-18.432 49.152-36.864 81.92-2.048 4.096-6.144 16.384-16.384 38.912l-18.432 49.152c-8.192 20.48-18.432 32.768-30.72 32.768-12.288-8.192-16.384-20.48-16.384-36.864 0-20.48 10.24-55.296 34.816-102.4 14.336-32.768 22.528-49.152 28.672-55.296 0-2.048 6.144-12.288 20.48-30.72-4.096 0-2.048-4.096 2.048-6.144z m135.168 6.144h4.096c4.096 0 12.288 4.096 22.528 14.336 18.432 0 40.96 14.336 61.44 43.008 4.096 6.144 8.192 14.336 8.192 28.672-4.096 20.48-12.288 43.008-28.672 63.488-34.816 43.008-65.536 63.488-94.208 63.488-18.432 0-38.912-14.336-59.392-45.056-2.048-8.192-4.096-14.336-4.096-20.48v-12.288c6.144-32.768 14.336-55.296 20.48-67.584 0-2.048 4.096-8.192 12.288-20.48 0-2.048 8.192-10.24 22.528-26.624 20.48-12.288 30.72-20.48 34.816-20.48z m49.152 51.2h-2.048c-36.864 4.096-55.296 10.24-55.296 18.432-4.096 4.096-6.144 12.288-10.24 20.48-10.24 18.432-18.432 43.008-28.672 69.632v14.336h4.096c10.24-2.048 30.72-12.288 53.248-36.864 30.72-36.864 45.056-63.488 45.056-86.016v-2.048l-6.144 2.048c2.048 2.048 0 0 0 0zM663.552 184.32h4.096c4.096 0 12.288 4.096 22.528 14.336 18.432 0 40.96 14.336 61.44 43.008 4.096 6.144 8.192 14.336 8.192 28.672-4.096 20.48-12.288 43.008-28.672 63.488-34.816 43.008-65.536 63.488-94.208 63.488-18.432 0-38.912-14.336-59.392-45.056-2.048-8.192-4.096-14.336-4.096-20.48v-12.288c6.144-32.768 14.336-55.296 20.48-67.584 0-2.048 4.096-8.192 12.288-20.48 0-2.048 8.192-10.24 22.528-26.624 16.384-12.288 28.672-20.48 34.816-20.48z m49.152 51.2h-2.048c-36.864 4.096-55.296 10.24-55.296 18.432-4.096 4.096-6.144 12.288-10.24 20.48-10.24 18.432-18.432 43.008-28.672 69.632v14.336h4.096c10.24-2.048 30.72-12.288 53.248-36.864 30.72-36.864 45.056-63.488 45.056-86.016v-2.048l-6.144 2.048c0 2.048 0 0 0 0z m0 0M735.232 587.776H270.336c-16.384 0-32.768-14.336-32.768-32.768 0-16.384 14.336-32.768 32.768-32.768h464.896c16.384 0 32.768 14.336 32.768 32.768 0 16.384-14.336 32.768-32.768 32.768z m0 0M735.232 786.432H270.336c-16.384 0-32.768-14.336-32.768-32.768 0-16.384 14.336-32.768 32.768-32.768h464.896c16.384 0 32.768 14.336 32.768 32.768 0 16.384-14.336 32.768-32.768 32.768z m0 0" fill="#1296db" p-id="71922"></path></svg>