<?xml version="1.0" standalone="no"?><!DOCTYPE svg PUBLIC "-//W3C//DTD SVG 1.1//EN" "http://www.w3.org/Graphics/SVG/1.1/DTD/svg11.dtd"><svg t="1692844320101" class="icon" viewBox="0 0 1450 1024" version="1.1" xmlns="http://www.w3.org/2000/svg" p-id="46144" xmlns:xlink="http://www.w3.org/1999/xlink" width="283.203125" height="200"><path d="M1186.42133333 352.81066667a253.44 253.44 0 0 0-83.424-13.152C946.13333333 339.65866667 813.65333333 453.70666667 813.65333333 598.47466667c0 13.152-14.784 26.4-29.472 26.4s-29.376-13.248-29.376-26.4c0-171.072 156.96-311.424 348.192-311.424 19.68 0 39.36 0 58.848 4.416C1102.99733333 129.13066667 936.24533333 10.66666667 740.02133333 10.66666667 534.00533333 10.66666667 362.45333333 133.54666667 313.30133333 300.20266667 161.23733333 330.92266667 53.33333333 453.80266667 53.33333333 594.15466667 53.33333333 760.81066667 200.50133333 892.42666667 381.94133333 896.74666667h696.576C1255.15733333 896.74666667 1397.33333333 769.64266667 1397.33333333 611.62666667c-4.896-114.144-93.12-219.36-210.912-258.912z" fill="#04ABF0" p-id="46145"></path></svg>