<?xml version="1.0" standalone="no"?><!DOCTYPE svg PUBLIC "-//W3C//DTD SVG 1.1//EN" "http://www.w3.org/Graphics/SVG/1.1/DTD/svg11.dtd"><svg t="1598079545931" class="icon" viewBox="0 0 1024 1024" version="1.1" xmlns="http://www.w3.org/2000/svg" p-id="4668" xmlns:xlink="http://www.w3.org/1999/xlink" width="200" height="200"><defs><style type="text/css"></style></defs><path d="M638.532267 665.6l60.347733 60.347733-24.132267 24.132267L614.4 689.732267l-60.347733 60.347733-24.132267-24.132267L590.267733 665.6l-60.347733-60.347733 24.132267-24.132267L614.4 641.467733l60.347733-60.347733 24.132267 24.132267L638.532267 665.6zM648.533333 463.633067c-11.093333-1.877333-22.510933-2.833067-34.133333-2.833067V238.933333a17.066667 17.066667 0 0 0-17.066667-17.066666H290.133333a17.066667 17.066667 0 0 0-17.066666 17.066666v477.866667a17.066667 17.066667 0 0 0 17.066666 17.066667h131.1232c4.215467 11.9296 9.506133 23.3472 15.735467 34.133333H273.066667a34.133333 34.133333 0 0 1-34.133334-34.133333V221.866667a34.133333 34.133333 0 0 1 34.133334-34.133334h341.333333a34.133333 34.133333 0 0 1 34.133333 34.133334v241.7664zM614.4 836.266667c-94.2592 0-170.666667-76.407467-170.666667-170.666667s76.407467-170.666667 170.666667-170.666667 170.666667 76.407467 170.666667 170.666667-76.407467 170.666667-170.666667 170.666667z m0-34.133334a136.533333 136.533333 0 1 0 0-273.066666 136.533333 136.533333 0 0 0 0 273.066666zM341.333333 307.2h204.8a17.066667 17.066667 0 0 1 0 34.133333H341.333333a17.066667 17.066667 0 1 1 0-34.133333z m0 102.4h204.8a17.066667 17.066667 0 0 1 0 34.133333H341.333333a17.066667 17.066667 0 0 1 0-34.133333z m0 102.4h85.333334a17.066667 17.066667 0 0 1 0 34.133333h-85.333334a17.066667 17.066667 0 0 1 0-34.133333z" p-id="4669" fill="#f2112e"></path></svg>