<?xml version="1.0" standalone="no"?><!DOCTYPE svg PUBLIC "-//W3C//DTD SVG 1.1//EN" "http://www.w3.org/Graphics/SVG/1.1/DTD/svg11.dtd"><svg t="1597219234751" class="icon" viewBox="0 0 1024 1024" version="1.1" xmlns="http://www.w3.org/2000/svg" p-id="11649" xmlns:xlink="http://www.w3.org/1999/xlink" width="200" height="200"><defs><style type="text/css"></style></defs><path d="M448 181.12a85.76 85.76 0 0 0 32 116.48 85.12 85.12 0 0 0 85.12-147.84A85.12 85.12 0 0 0 448 181.12zM896 790.4a85.12 85.12 0 1 0-155.52-22.4 84.48 84.48 0 0 0 39.68 51.84 85.12 85.12 0 0 0 115.84-29.44zM791.04 602.24a145.28 145.28 0 0 1 64 0V378.88l-192-110.08a142.72 142.72 0 0 1-32 55.68l160 91.52zM147.84 704a85.12 85.12 0 0 0 31.36 116.48 85.12 85.12 0 0 0 116.48-31.36 85.12 85.12 0 0 0-73.6-128 85.76 85.76 0 0 0-74.24 42.88zM256 602.88V416l156.8-92.16a148.48 148.48 0 0 1-32-55.04L192 378.88v224a145.92 145.92 0 0 1 64 0zM679.68 789.76l-157.44 90.88-157.44-90.88a149.12 149.12 0 0 1-13.44 32.64 151.04 151.04 0 0 1-16.64 23.68l188.16 108.8 188.8-108.8a149.12 149.12 0 0 1-32-56.32z" fill="#2c2c2c" p-id="11650"></path></svg>