<?xml version="1.0" standalone="no"?><!DOCTYPE svg PUBLIC "-//W3C//DTD SVG 1.1//EN" "http://www.w3.org/Graphics/SVG/1.1/DTD/svg11.dtd"><svg t="1597148718323" class="icon" viewBox="0 0 1024 1024" version="1.1" xmlns="http://www.w3.org/2000/svg" p-id="20280" xmlns:xlink="http://www.w3.org/1999/xlink" width="200" height="200"><defs><style type="text/css"></style></defs><path d="M668.16 309.76l-120.32-7.68 79.36-84.48c10.24-12.8 30.72-15.36 46.08-7.68l107.52 61.44c7.68 5.12 12.8 10.24 15.36 17.92l69.12 143.36-192-120.32c-2.56-2.56-2.56-2.56-5.12-2.56zM404.48 217.6l79.36 84.48-125.44 10.24c-2.56 0-5.12 0-5.12 2.56l-186.88 117.76 69.12-143.36c2.56-7.68 7.68-12.8 12.8-17.92l107.52-61.44c15.36-7.68 35.84-5.12 48.64 7.68z" fill="#BE0043" p-id="20281"></path><path d="M668.16 309.76c2.56 0 5.12 0 5.12 2.56l192 122.88-69.12-143.36c-2.56-7.68-7.68-12.8-15.36-17.92l-107.52-64c-15.36-7.68-35.84-5.12-46.08 7.68l-79.36 84.48 120.32 7.68z m-5.12 25.6l-143.36-10.24c-10.24 0-15.36-12.8-7.68-20.48l97.28-104.96c20.48-20.48 53.76-25.6 79.36-12.8l107.52 61.44c10.24 7.68 20.48 15.36 25.6 28.16l87.04 184.32c5.12 12.8-7.68 23.04-17.92 15.36l-227.84-140.8zM404.48 217.6c-12.8-12.8-33.28-15.36-48.64-7.68l-107.52 61.44c-5.12 5.12-10.24 10.24-15.36 17.92l-66.56 143.36 186.88-120.32c2.56 0 5.12-2.56 5.12-2.56l125.44-10.24-79.36-81.92z m-40.96 117.76l-222.72 143.36c-10.24 7.68-23.04-5.12-17.92-15.36l87.04-184.32c5.12-12.8 15.36-20.48 25.6-28.16l107.52-61.44c25.6-15.36 58.88-10.24 79.36 12.8l97.28 102.4c7.68 7.68 2.56 20.48-7.68 20.48l-148.48 10.24z" fill="#222222" p-id="20282"></path><path d="M855.04 814.08c-7.68-2.56-12.8-5.12-20.48-10.24l-79.36-76.8c-17.92-15.36-40.96-23.04-64-15.36l-145.92 43.52c-5.12 2.56-12.8-2.56-12.8-7.68V742.4c0-15.36 7.68-28.16 20.48-33.28l135.68-71.68c15.36-7.68 25.6-20.48 30.72-35.84l38.4-112.64c5.12-17.92 5.12-35.84-5.12-51.2l-33.28-61.44c-7.68-12.8-17.92-23.04-30.72-28.16l-40.96-17.92c-17.92-7.68-35.84-7.68-51.2 0L547.84 358.4c-5.12 2.56-10.24 0-12.8-5.12v-12.8c0-12.8 7.68-25.6 17.92-33.28l74.24-48.64c12.8-7.68 28.16-7.68 40.96 0l69.12 43.52c2.56 2.56 7.68 5.12 10.24 7.68l138.24 163.84c0 2.56 2.56 2.56 2.56 5.12l51.2 81.92c5.12 7.68 7.68 17.92 5.12 28.16l-40.96 197.12c-7.68 20.48-25.6 33.28-48.64 28.16z m-663.04-10.24c-5.12 5.12-12.8 7.68-20.48 10.24-20.48 5.12-40.96-10.24-46.08-30.72L87.04 588.8c-2.56-10.24 0-20.48 5.12-28.16l51.2-81.92c0-2.56 2.56-2.56 2.56-5.12l138.24-163.84c2.56-2.56 5.12-5.12 10.24-7.68l69.12-43.52c12.8-7.68 28.16-7.68 40.96 0l76.8 48.64c10.24 7.68 17.92 17.92 17.92 33.28V355.84c-5.12 2.56-12.8 5.12-17.92 2.56l-46.08-23.04c-15.36-7.68-35.84-7.68-51.2 0l-43.52 17.92c-12.8 5.12-23.04 15.36-30.72 28.16l-33.28 61.44c-7.68 15.36-10.24 35.84-5.12 51.2l38.4 112.64c5.12 15.36 15.36 28.16 30.72 35.84l135.68 71.68c12.8 7.68 20.48 20.48 20.48 35.84v2.56c-2.56 5.12-7.68 7.68-12.8 7.68l-148.48-46.08c-23.04-7.68-46.08 0-64 15.36l-79.36 74.24z" fill="#FFEB20" p-id="20283"></path><path d="M855.04 814.08c20.48 5.12 40.96-10.24 46.08-30.72l40.96-197.12c2.56-10.24 0-20.48-5.12-28.16l-51.2-81.92c0-2.56-2.56-2.56-2.56-5.12L744.96 307.2c-2.56-2.56-5.12-5.12-10.24-7.68L665.6 256c-12.8-7.68-28.16-7.68-40.96 0l-74.24 51.2c-10.24 7.68-17.92 17.92-17.92 33.28V355.84c2.56 2.56 10.24 5.12 15.36 2.56l46.08-23.04c15.36-7.68 35.84-7.68 51.2 0l40.96 17.92c12.8 5.12 23.04 15.36 30.72 28.16l33.28 61.44c7.68 15.36 10.24 35.84 5.12 51.2L716.8 606.72c-5.12 15.36-15.36 28.16-30.72 35.84l-135.68 71.68c-12.8 7.68-20.48 20.48-20.48 33.28v5.12c2.56 5.12 7.68 7.68 12.8 7.68l148.48-46.08c23.04-7.68 46.08 0 64 15.36l79.36 76.8c7.68 2.56 15.36 7.68 20.48 7.68z m-115.2-69.12c-10.24-10.24-25.6-12.8-38.4-10.24l-148.48 46.08c-17.92 5.12-38.4-5.12-46.08-23.04 0-2.56-2.56-7.68-2.56-10.24 0-25.6 12.8-46.08 33.28-56.32l135.68-71.68c7.68-5.12 15.36-12.8 17.92-20.48l38.4-112.64c2.56-10.24 2.56-20.48-2.56-30.72l-33.28-61.44c-5.12-7.68-10.24-12.8-17.92-17.92l-38.4-17.92c-10.24-5.12-20.48-5.12-30.72 0l-46.08 23.04c-17.92 7.68-38.4 0-48.64-17.92-2.56-5.12-2.56-10.24-2.56-15.36v-7.68c0-20.48 10.24-40.96 28.16-53.76l74.24-48.64c20.48-12.8 48.64-15.36 69.12 0l69.12 40.96c5.12 2.56 10.24 7.68 15.36 12.8l138.24 163.84c2.56 2.56 5.12 5.12 5.12 7.68l51.2 81.92c7.68 12.8 10.24 30.72 7.68 46.08l-40.96 197.12c-7.68 35.84-40.96 56.32-76.8 48.64-12.8-2.56-23.04-7.68-33.28-17.92l-76.8-74.24zM192 803.84l79.36-76.8c17.92-15.36 40.96-23.04 64-15.36l148.48 46.08c5.12 2.56 12.8-2.56 12.8-7.68v-2.56c0-15.36-7.68-28.16-20.48-35.84L343.04 640c-15.36-7.68-25.6-20.48-30.72-35.84l-38.4-112.64c-5.12-17.92-5.12-35.84 5.12-51.2l33.28-61.44c5.12-10.24 15.36-20.48 28.16-25.6l40.96-17.92c17.92-7.68 35.84-7.68 51.2 0l48.64 23.04c5.12 2.56 10.24 0 12.8-5.12v-12.8c0-12.8-7.68-25.6-17.92-33.28l-74.24-48.64c-12.8-7.68-28.16-7.68-40.96 0l-66.56 43.52c-2.56 0-7.68 2.56-10.24 7.68l-138.24 163.84c0 2.56-2.56 2.56-2.56 5.12l-51.2 81.92c-5.12 7.68-7.68 17.92-5.12 28.16L128 785.92c5.12 20.48 25.6 33.28 46.08 30.72 7.68-2.56 12.8-7.68 17.92-12.8z m17.92 17.92c-7.68 7.68-20.48 15.36-33.28 17.92-35.84 7.68-69.12-15.36-76.8-48.64l-40.96-197.12c-2.56-15.36 0-33.28 7.68-46.08l51.2-81.92c2.56-2.56 2.56-5.12 5.12-7.68l138.24-163.84c7.68-7.68 12.8-12.8 20.48-15.36l69.12-43.52c20.48-12.8 48.64-12.8 69.12 0l74.24 51.2c17.92 12.8 28.16 30.72 28.16 53.76v10.24c0 5.12 0 10.24-2.56 15.36-7.68 17.92-30.72 25.6-48.64 17.92l-46.08-23.04c-10.24-5.12-20.48-5.12-30.72 0l-40.96 17.92c-7.68 2.56-15.36 10.24-17.92 17.92l-33.28 61.44c-5.12 10.24-5.12 20.48-2.56 30.72l38.4 112.64c2.56 10.24 10.24 17.92 17.92 20.48l135.68 71.68c20.48 10.24 33.28 33.28 33.28 56.32 0 5.12 0 7.68-2.56 10.24-5.12 17.92-25.6 30.72-46.08 23.04l-148.48-46.08c-12.8-5.12-28.16 0-38.4 10.24l-79.36 74.24z" fill="#222222" p-id="20284"></path></svg>