<?xml version="1.0" standalone="no"?><!DOCTYPE svg PUBLIC "-//W3C//DTD SVG 1.1//EN" "http://www.w3.org/Graphics/SVG/1.1/DTD/svg11.dtd"><svg t="1597148196974" class="icon" viewBox="0 0 1024 1024" version="1.1" xmlns="http://www.w3.org/2000/svg" p-id="18474" xmlns:xlink="http://www.w3.org/1999/xlink" width="200" height="200"><defs><style type="text/css"></style></defs><path d="M635.605 282.635c-79.925 11.217-161.298 0.903-241.832 6.176-4.485 0.294-9.221 0.725-12.834 3.403-3.613 2.668-5.325 8.402-2.3 11.721l3.497-1.638a597.761 597.761 0 0 0 44.625 114.31c3.476 6.753 7.11 13.496 12.057 19.251 4.852 5.65 10.839 10.208 16.773 14.714 17.203 13.076 34.606 26.256 54.298 35.152s42.189 13.244 63.11 7.835c6.806-1.754 13.317-4.506 19.577-7.688 37.19-18.905 65.063-52.922 83.233-90.48s27.454-78.717 34.942-119.75c-25.122-2.111-50.171 3.497-75.146 6.995z" fill="#958368" p-id="18475"></path><path d="M767.905 519.52c-16.72-4.411-6.564-37.127-5.976-49.625 0.599-12.677-0.158-25.731-4.401-37.799-3.896-11.059-10.849-20.039-18.306-28.903-3.098-3.686-5.892-7.341-8.423-11.038 1.628-1.743 1.701-4.947-1.218-5.85a36.62 36.62 0 0 0-2.899-0.746c-4.432-7.751-7.667-16.006-9.526-25.763-3.508-18.369-4.558-37.956-9.725-56.126 0.021-0.053 0.042-0.095 0.063-0.147 0.641-1.554-0.074-3.371-1.418-4.285-1.491-4.548-3.308-8.99-5.514-13.286 3.067 0.462 6.186-1.197 7.026-4.338 1.26-4.705 0.641-9.295-1.439-13.643-1.386-2.888-5.745-3.875-8.36-2.195-2.972 1.911-3.676 5.272-2.195 8.36-0.42-0.882 0.242 0.735 0.263 0.819 0.053 0.189 0.179 1.565 0.189 0.977 0.011 0.431 0.021 0.872 0 1.302-0.021 0.032-0.105 0.431-0.168 0.746a74.351 74.351 0 0 0-2.825-3.928c1.334-1.323 2.048-3.266 1.418-5.64-1.355-5.115-3.256-10.03-5.556-14.798-1.439-2.972-5.671-3.76-8.36-2.195-1.838 1.071-2.762 2.815-2.909 4.684a5.195 5.195 0 0 0-0.777-0.893 56.283 56.283 0 0 1-3.707-3.718c-0.525-0.578-1.019-1.176-1.523-1.775a14.355 14.355 0 0 1-0.231-0.273c-0.021-0.021-0.032-0.053-0.074-0.095a47.903 47.903 0 0 1-0.861-1.176c-1.859-2.594-11.668 1.554-11.416 3.896-0.137-0.021-0.273-0.063-0.41-0.084a7.577 7.577 0 0 0 0.147-3.34c-0.609-3.434-15.355-10.019-14.315-6.869 0.305 0.935 0.042 1.46-0.452 1.827a6.07 6.07 0 0 0-1.869-1.775c-1.554-0.956-20.848 5.409-21.478 6.753-1.239-0.672-21.688-9.001-23.505-10.902-2.216-2.321-6.449-2.395-8.644 0-2.279 2.489-2.363 6.176 0 8.644 0.378 0.399 0.767 0.798 1.145 1.197-5.776 6.816-8.728 14.966-10.923 23.442h-2.804c-2.016 0-3.97 1.124-5.115 2.773-0.084-0.998-0.399-1.964-1.019-2.773a5.554 5.554 0 0 0-0.693-2.069c-0.693-1.187-2.027-2.3-3.392-2.71 0.326-1.386 0.662-2.773 0.998-4.159 1.071 1.092 2.51 1.785 4.17 1.712 3.161-0.137 6.291-2.689 6.112-6.112-0.158-3.035-0.105-6.27-1.575-8.791 0.305 0.126 0.62 0.231 0.924 0.378 2.993 1.386 6.585 0.851 8.36-2.195 1.544-2.636 0.819-6.974-2.195-8.36-4.464-2.059-9.001-3.571-13.874-4.233a8.934 8.934 0 0 0-2.185-0.021c-0.494-1.428-1.428-2.71-2.678-3.371-3.161-1.67-6.354-0.588-8.36 2.195-1.953 2.71-5.661 9.715-5.787 10.324-1.953 0.389 4.085-6.407 3.896-9.83l-0.536-9.568c-0.179-3.182-2.678-6.26-6.112-6.112-3.161 0.137-6.302 2.689-6.112 6.112 0.084 1.596-23.536 19.094-27.863 27.611-2.468-3.203-4.779-6.039-5.65-4.989-0.63-1.785-10.009-5.797-10.923-3.602a25.17 25.17 0 0 0-8.266 5.482 0.36 0.36 0 0 1 0.042-0.063c1.743-2.689 0.63-6.869-2.195-8.36-3.046-1.607-6.501-0.672-8.36 2.195-2.5 3.854-3.025 8.266-2.29 12.708 0.42 2.542 3.14 4.338 5.703 4.464a57.566 57.566 0 0 0-1.554 4.096 6.09 6.09 0 0 0-5.409 0.294c-1.995 1.103-3.434 3.151-3.949 5.367-0.347 1.512-0.515 3.214-0.221 4.789-1.124 0.273-2.185 0.809-2.93 1.565-2.573 2.573-2.037 6.028 0 8.644 1.764 2.258 3.949 3.802 6.354 4.915-1.901 10.566-3.266 21.268-4.663 31.728-2.542 19.083-4.779 38.597-2.405 57.817 1.355 10.954 4.558 21.341 8.255 31.602-3.634 1.029-3.886 7.079 0.399 7.079 0.788 0 1.449-0.221 2.006-0.567 1.575 4.17 3.182 8.339 4.726 12.53 7.278 19.65 11.889 39.542 6.764 60.369-2.468 10.04-6.585 19.125-11.689 27.653-0.945 0.158-1.838 0.683-2.479 1.481-1.512 1.89-3.025 3.791-4.527 5.682-0.851 1.071-0.819 2.573-0.21 3.749-4.222 5.85-8.801 11.5-13.538 17.088-19.44 22.959-33.367 47.608-33.587 77.624-2.195-2.584-4.401-5.146-6.522-7.782-12.74-15.743-24.166-36.58-16.458-57.281 6.239-16.752 25.836-21.268 35.866-35.236 7.992-11.133 11.574-24.986 12.078-38.544 3.455-1.029 3.781-6.596 0.011-7.026-0.536-15.344-4.453-30.426-8.423-45.193 0.273 0.063 0.578 0.116 0.903 0.116 4.653 0 5.367-7.247 0.683-7.247-1.386 0-2.416 0.651-3.067 1.554-4.779-17.917-9.295-35.887-12.687-54.13-2.783-14.956-6.575-32.316-6.449-48.69 0.62-1.176 0.683-2.615 0.095-3.697 0.242-5.104 0.882-10.093 2.132-14.84 1.155-4.39 2.909-8.633 5.041-12.761 1.617-0.998 2.888-2.426 3.434-4.39a7.726 7.726 0 0 0 0.252-2.016c0.305-0.483 0.62-0.966 0.935-1.439-0.641 0.987 6.407 5.493 7.215 5.881 2.92 1.407 6.27 1.995 9.431 1.082 1.607-0.462 3.14-1.323 4.149-2.647 1.439-1.88 1.617-4.621 0.441-6.669s-3.634-3.277-5.986-2.983c-0.641 0.084-1.281 0.263-1.932 0.252-2.216-0.042-3.686-2.227-4.758-4.17a9.322 9.322 0 0 0 3.896-5.104c0.221-0.725 0.357-1.481 0.651-2.174 0.452-1.071 1.25-1.943 2.027-2.794 3.613-3.949 7.236-7.898 10.849-11.847a8.808 8.808 0 0 0 1.134 4.012c-2.836 1.229-4.443 4.453-4.506 7.541-0.053 2.227 0.62 4.516 2.132 6.144s3.938 2.468 6.06 1.796c2.29-0.725 3.812-3.004 4.306-5.356s0.158-4.789-0.189-7.163a14.228 14.228 0 0 0 6.974-4.779c1.134-1.439 2.006-3.203 1.901-5.031-0.147-2.615-2.342-4.821-4.873-5.482s-5.272 0.011-7.551 1.292-4.18 3.14-6.007 5.01a218.326 218.326 0 0 0-12.698 14.105c-0.273-1.911-1.701-3.497-3.371-4.464s-3.581-1.428-5.451-1.911c-0.683-0.179-1.512-0.525-1.523-1.239-0.021-0.641 0.693-1.218 0.483-1.817-0.189-0.536-0.977-0.567-1.439-0.242s-0.704 0.872-1.029 1.334c-1.376 1.901-4.085 2.132-5.115 4.306-0.452 0.966-0.641 2.027-0.966 3.035-0.609 1.89-1.712 3.581-2.794 5.251-1.124 1.733-2.248 3.455-3.371 5.188-0.473 0.725-0.956 1.46-1.649 1.974-1.995 1.46-4.422 0.326-6.617 0.956-2.08 0.599-4.296 12.235-0.798 14.283-13.359 29.145-18.747 61.734-14.725 93.935 0.21 1.67 0.462 3.329 0.735 4.978-0.515-0.693-1.355-1.155-2.531-1.155-4.653 0-5.367 7.247-0.683 7.247 2.143 0 3.434-1.533 3.76-3.193 3.686 19.178 11.406 37.494 15.47 56.525-0.021 0-0.032-0.011-0.053-0.011-4.653 0-5.367 7.247-0.683 7.247 0.788 0 1.449-0.221 2.006-0.567 0.525 3.287 0.935 6.596 1.155 9.935 2.101 31.518-14.935 59.938-30.688 85.858-0.609 1.008 0.966 1.932 1.586 0.924 13.107-21.562 26.813-44.247 30.279-69.716 1.334-9.746 0.683-19.188-0.987-28.483 0.872-1.649 0.609-3.833-0.945-4.758-2.92-13.485-7.698-26.698-11.458-40.12-11.028-39.364-7.268-81.269 9.41-117.86 1.869 0.788 3.917 1.218 5.808 1.355 1.985 0.137 4.275-0.084 6.354-0.746-0.809 1.649-1.575 3.308-2.248 4.989-2.563 6.438-3.676 13.233-3.938 20.144a3.678 3.678 0 0 0-1.187-0.2c-4.653 0-5.367 7.247-0.683 7.247a3.82 3.82 0 0 0 1.848-0.473c0.263 8.917 1.607 17.896 2.762 26.424 2.962 21.929 7.782 43.565 13.338 64.979 5.167 19.934 11.952 40.12 12.614 60.852-3.151 1.176-3.445 6.302-0.021 6.921-0.935 23.998-11.238 40.613-30.899 53.805-11.616 7.803-18.653 17.35-19.346 31.833-0.777 16.31 7.037 30.815 16.71 43.376 3.34 4.338 6.827 8.581 10.408 12.771 0.042 1.754 0.105 3.508 0.242 5.304 1.481 19.461 10.597 35.961 15.806 54.414 6.585 23.337-0.294 47.083-18.306 63.288-0.882 0.788 0.42 2.08 1.292 1.292 22.213-19.997 25.469-47.808 15.512-74.873-5.829-15.848-11.616-30.51-12.624-47.209 9.652 11.154 19.85 21.898 29.607 32.873 0.788 0.882 2.08-0.42 1.292-1.292-10.282-11.574-20.921-22.938-31.035-34.7a77.756 77.756 0 0 1-0.011-3.518c0.368-19.493 6.365-38.67 17.245-54.855 8.938-13.296 19.524-25.101 28.756-37.557 0.137 0.137 0.284 0.273 0.441 0.389 1.701 1.187 3.833 0.651 5.073-0.893 1.512-1.89 3.025-3.791 4.527-5.682 1.229-1.533 0.651-3.991-0.893-5.062a3.7 3.7 0 0 0-1.103-0.504c5.01-8.087 9.127-16.689 11.679-26.319a291.325 291.325 0 0 0-4.81 59.445 128.752 128.752 0 0 1-3.203 7.467c-13.59 29.071-33.083 57.785-21.992 91.089 5.955 17.896 17.676 33.073 26.74 49.415 13.254 23.893 16.962 49.667 8.034 75.829-0.378 1.124 1.386 1.596 1.764 0.483 11.553-33.85 0.914-62.805-16.93-91.866-9.851-16.037-20.354-32.715-21.278-52.061-0.935-19.556 7.95-37.62 16.563-54.603 3.56-7.026 7.215-14.052 10.44-21.257 1.04 27.758 6.049 55.443 15.218 82.288 0.378 1.113 2.153 0.63 1.764-0.483-9.641-28.231-14.599-57.102-15.187-85.974 2.395-5.713 4.485-11.563 5.976-17.613 0.966-3.928 1.701-7.908 2.3-11.92 0.42 0.651 0.872 1.292 1.418 1.859 1.355 1.418 3.571 1.743 5.125 0.42 1.439-1.218 1.785-3.697 0.42-5.125-1.25-1.313-1.838-2.762-1.764-4.296 0.095-1.964-1.26-3.781-3.277-3.97a3.28 3.28 0 0 0-0.651 0.011c0.882-10.45 1.029-20.995 1.239-31.371 0.095-4.527 0.137-9.053 0.158-13.569a318.048 318.048 0 0 1 9.935-29.974c3.917-10.135 8.181-20.123 12.519-30.079 1.239-0.861 1.806-2.416 1.659-3.812 7.793-17.781 15.775-35.478 22.539-53.679 2.027-5.461 3.833-10.965 5.493-16.51 4.096 7.782 8.497 15.428 12.267 23.431-3.707 30.121-4.054 60.894 3.476 90.438 1.596 6.27 3.686 12.309 5.986 18.253a39.5 39.5 0 0 0-3.214-2.993c-1.512-1.25-4.001-0.63-5.062 0.893-1.208 1.722-0.63 3.812 0.893 5.062 2.416 1.995 4.59 4.401 6.281 7.058 1.05 1.659 2.92 2.636 4.852 1.722 0.294-0.137 0.567-0.357 0.83-0.588 3.497 8.16 7.173 16.268 10.419 24.608 1.575 4.043 2.941 8.15 4.191 12.299-0.756 26.372-4.264 52.555-6.155 79.095-0.893 12.614-1.334 25.952 0.42 38.702-5.178 16.941-11.185 33.671-16.521 50.402-12.456 39.08-21.331 80.607-9.568 120.969 0.326 1.134 2.101 0.651 1.764-0.483-16.941-58.1 7.719-112.703 24.723-168.23 2.384 14.588 7.835 28.283 19.115 39.07 0.851 0.819 2.153-0.483 1.292-1.292-11.847-11.311-17.235-25.868-19.304-41.422 10.124-33.797 17.014-67.962 9.599-103.503-0.977-4.674-2.237-9.221-3.686-13.695 0.347-15.481-0.189-31.004-2.258-46.726-2.258-17.161-4.684-34.732-8.192-52.04 4.422-0.263 5.031-7.226 0.441-7.226-0.725 0-1.334 0.189-1.869 0.483-3.413-15.439-7.803-30.594-13.842-44.972a126.547 126.547 0 0 0-2.762-6.081c1.67-13.401 4.012-26.729 6.69-39.952 2.132-10.513 4.485-20.974 6.911-31.413h1.659c3.193 0 6.26-2.815 6.112-6.112-0.126-2.909-2.111-5.419-4.905-5.986 1.208-4.663 2.657-9.2 4.716-13.475 0.126 2.951 2.069 5.808 5.881 5.808 1.376 0 2.342-0.515 3.55-1.029-0.609 0.263-1.323 1.449-1.628 1.985-0.483 0.861-0.494 2.489-1.134 3.014-0.819 0.672-1.859 0.924-2.636 1.733-1.46 1.523-2.153 3.676-1.491 5.724 0.966 2.972 4.285 5.409 7.52 4.264 1.281-0.452 2.563-0.935 3.739-1.575a75.754 75.754 0 0 0 2.951 5.713c0.263 0.662 0.62 1.281 1.082 1.827 0.357 0.578 0.704 1.166 1.071 1.743a480.951 480.951 0 0 0-4.464 11.931 546.153 546.153 0 0 0-9.788 30.006c-2.174 7.362-5.587 16.121-4.705 24.019 1.544 13.842 16.657 19.619 26.508 26.981 6.963 5.209 13.653 10.839 19.955 16.867-1.376 2.143-0.704 5.524 2.5 5.524 0.935 0 1.701-0.305 2.311-0.767 6.049 6.207 11.689 12.813 16.72 19.881 0.462 0.651 0.861 1.313 1.313 1.964-1.922 26.193-13.128 47.986-24.261 71.417a240.676 240.676 0 0 0-11.143 27.737c-1.586 0.966-2.846 2.437-3.403 4.296-0.42 1.386-0.084 2.867 0.882 3.844-4.873 16.909-7.677 34.385-7.772 51.893-0.861 0.357-1.722 0.704-2.584 1.061-1.817 0.746-2.531 3.14-1.722 4.852 0.819 1.722 2.72 2.321 4.443 1.817 0.347 8.234 1.281 16.468 2.951 24.629 9.085 44.426 41.244 79.704 67.731 114.909 0.704 0.935 2.29 0.021 1.586-0.924-26.34-35.016-58.51-70.294-67.552-114.467-1.712-8.36-2.636-16.626-2.92-24.797 0.599-0.242 1.187-0.483 1.785-0.735 1.817-0.746 2.531-3.14 1.722-4.852-0.683-1.439-2.122-2.111-3.581-2.006 0.242-17.161 3.287-33.944 8.16-50.36 1.554 0.095 3.224-0.788 3.686-2.332 0.011-0.042 0.084-0.252 0.137-0.42 0 0.021 0.032-0.063 0.074-0.168 0.252-0.105 0.294-0.137 0.179-0.116 0.053-0.011 0.053-0.011 0.137-0.032 1.922-0.41 3.298-2.227 2.951-4.212-0.315-1.775-2.069-3.172-3.886-2.983 4.852-14.126 10.923-27.989 17.571-41.622 8.77-17.97 14.084-36.286 15.838-54.897 19.178 28.966 23.568 61.598 23.662 95.426a1.508 1.508 0 0 0-0.2-0.242 6.474 6.474 0 0 0-0.189-0.473c-0.021-0.179-0.032-0.42-0.053-0.494 0.021-0.305 0.063-0.599 0.126-0.893 0.42-1.922-1.491-3.802-3.277-3.97-2.153-0.2-3.539 1.355-3.959 3.277-0.599 2.72 0.347 5.745 2.227 7.782 1.334 1.439 3.581 1.733 5.125 0.42 0.063-0.053 0.116-0.126 0.179-0.189a619.433 619.433 0 0 1-0.147 8.707c-0.284 11.332-0.704 22.707-0.683 34.028-2.657 1.407-2.857 5.797 0.063 6.648 0.41 22.381 2.951 44.499 11.983 65.589 0.462 1.082 2.037 0.147 1.586-0.924-8.885-20.743-11.469-42.493-11.973-64.57 4.138-0.557 4.621-7.194 0.137-7.194-0.084 0-0.147 0.021-0.231 0.021-0.053-12.13 0.378-24.334 0.609-36.496a3.42 3.42 0 0 0 2.122 0.998c1.817 0.168 3.97-1.302 3.97-3.277v-7.016c0-1.964-1.197-3.77-3.277-3.97-0.903-0.084-1.901 0.242-2.668 0.84 0.042-29.586-2.5-58.699-17.739-85.69-2.227-3.938-4.621-7.646-7.142-11.206 1.397-18.873-0.893-38.051-7.11-57.491-0.42-1.302-0.882-2.584-1.323-3.865 3.665-1.008 3.917-7.089-0.378-7.089-0.788 0-1.449 0.221-2.006 0.567-5.682-14.777-13.076-28.903-21.551-42.262-4.905-7.73-11.647-15.953-17.172-24.629 0.987 0.273 2.048 0.315 3.119-0.021 2.846-0.893 5.556-2.468 7.457-4.8 1.061-1.292 1.785-2.584 1.785-4.317 0-1.502-0.662-3.287-1.785-4.317-1.187-1.092-2.951-1.754-4.663-1.743 0.336-0.798 0.693-1.596 1.04-2.395a6.492 6.492 0 0 0 1.575-1.407c0.378 3.172 2.647 5.86 6.07 5.86 3.077 0 7.803 0.063 8.77 1.701 0.746 1.271 2.195 2.479 3.655 2.804 0.788 0.179 1.659 0.189 2.51 0.053 0.116 1.985 1.239 3.844 2.993 5.073 5.472 3.812 11.773 6.323 18.369 7.247 0.021 0 0.053 0 0.074 0.011 3.623 4.621 7.289 9.284 10.86 14.021-0.62 1.743 0.273 4.096 2.153 4.642 0.305 0.084 0.609 0.189 0.903 0.326 0.063 0.053 0.294 0.21 0.389 0.284 0.042 0.032 0.063 0.053 0.084 0.063 0.032 0.053 0.084 0.105 0.147 0.189 0.084 0.116 0.137 0.168 0.158 0.189 0.021 0.042 0.042 0.105 0.116 0.242a3.865 3.865 0 0 0 1.554 1.596c6.26 8.854 11.92 18.085 16.142 28.021-0.567 0.273-1.082 0.662-1.428 1.155-1.208 1.722-0.62 3.802 0.893 5.062 1.271 1.061 2.552 2.122 3.823 3.193 0.063 0.053 0.126 0.074 0.189 0.126 9.032 28.084 8.318 58.657 5.062 88.327-3.403 1.575-6.112 4.317-7.163 8.076-0.525 1.89 0.2 3.949 2.153 4.674 1.134 0.42 2.552 0.168 3.56-0.578-0.935 7.194-1.943 14.315-2.951 21.299-1.607 11.227-2.626 22.402-1.596 33.451-1.68 0.147-3.287 1.512-3.361 3.266-0.095 2.342 0.83 4.548 2.846 5.85 0.609 0.389 1.302 0.536 1.985 0.557a70.77 70.77 0 0 0 2.206 8.066c5.913 17.508 16.626 32.936 22.423 50.507 6.753 20.459 8.707 43.974 7.404 65.441-1.449 23.935-14.578 41.328-27.139 60.778-0.641 0.998 0.945 1.911 1.586 0.924 10.891-16.867 23.83-33.031 26.656-53.458 2.72-19.661 0.809-41.695-3.287-61.104-4.705-22.328-17.623-40.498-25.227-61.671-1.187-3.287-2.08-6.585-2.762-9.883 0.473-0.252 0.903-0.578 1.229-1.05 1.04-1.491 0.756-3.728-0.704-4.863-0.137-1.239-0.819-2.353-1.88-2.941-1.785-18.579 2.353-37.274 4.789-56.084 0.147-1.155 0.284-2.342 0.431-3.508 0.21-0.179 0.725-0.609 0.861-0.735 0.053-0.021 0.557-0.315 0.62-0.347 0.116-0.053 1.082-0.441 0.473-0.252 1.869-0.588 3.329-2.101 2.951-4.212-0.294-1.659-2.132-3.35-3.938-2.993 2.993-28.556 3.371-59.466-5.209-87.003 1.113-0.084 2.216-0.651 2.836-1.533 1.208-1.722 0.62-3.802-0.893-5.062-1.271-1.061-2.552-2.122-3.823-3.193-0.557-0.462-1.239-0.662-1.943-0.662-1.397-3.382-2.899-6.722-4.632-9.956-3.182-5.955-6.806-11.689-10.671-17.277 0.252-0.053 0.504-0.137 0.746-0.252 1.743-0.819 2.626-3.098 1.722-4.852-1.208-2.363-3.256-4.254-5.839-4.999a3.947 3.947 0 0 0-3.476 0.62c-3.161-4.212-6.417-8.36-9.683-12.467 2.332-0.336 4.338-1.68 5.052-4.275 0.788-2.857-0.977-7.058-4.264-7.52-5.209-0.725-9.778-2.426-14.126-5.199a307.277 307.277 0 0 0-4.989-6.386c-0.011-0.21 0-0.42-0.021-0.63-0.074-0.987-0.378-1.953-0.83-2.825 1.113 0.063 2.237-0.168 3.245-0.819 2.678-1.733 4.043-5.482 2.195-8.36-0.326-0.504-0.651-1.008-0.966-1.502 0.84 0.011 1.512 0 1.796-0.021 0.263-0.021 0.515-0.021 0.777-0.042 1.019 1.848 3.203 2.972 5.325 3.035-1.764 1.523-2.93 3.917-1.985 6.176 0.273 0.662 0.473 1.323 0.662 2.016 0 0.347 0.084 0.893 0.084 1.082 0.032 3.193 2.783 6.26 6.112 6.112a6.594 6.594 0 0 0 3.424-1.134c0.063 2.08 1.113 4.159 2.983 5.146 2.972 1.565 6.585 0.725 8.36-2.195 1.575-2.594 2.3-5.419 2.363-8.318a5.31 5.31 0 0 0 2.006-1.365 6.61 6.61 0 0 0 1.176-1.838c0.525 0.378 1.05 0.767 1.565 1.176-2.227 0.924-3.949 3.004-3.844 5.598l0.284 6.701c0.137 3.193 2.71 6.26 6.112 6.112 3.035-0.137 5.913-2.458 6.07-5.619a7.18 7.18 0 0 0 3.025-0.672c5.22 7.005 9.326 15.092 12.351 23.368a3.759 3.759 0 0 0-2.951 2.321c-0.609 1.502-1.229 2.993-1.838 4.495-0.746 1.817 0.357 4.012 2.153 4.674 1.901 0.704 3.928-0.326 4.674-2.153 0.179-0.441 0.368-0.893 0.546-1.334 0.42 1.502 0.819 3.014 1.166 4.506 5.619 24.072 4.306 51.641 16.205 73.823a37.993 37.993 0 0 0-7.971-0.221c-4.663 0.368-3.371 7.53 1.26 7.163 3.445-0.273 6.89 0.147 10.198 1.166 0.63 0.189 1.208 0.21 1.743 0.126 7.142 9.746 16.142 18.106 22.129 28.693 7.887 13.947 9.809 30.121 9.263 45.907-0.452 12.939-4.999 26.592-3.76 39.448 0.683 7.037 4.117 12.183 10.986 13.989 1.187 0.242 1.67-1.523 0.525-1.827zM464.896 264.57c0.011 0.063 0.032 0.116 0.042 0.179-0.032-0.105-0.084-0.21-0.126-0.315 0.063 0.126 0.084 0.168 0.084 0.137z m-27.968 2.71c-0.032-0.011-0.042-0.189-0.053-0.441 0.011 0.147 0.053 0.284 0.053 0.441z m-16.825 9.652c-0.273-0.116-0.557-0.158-0.83-0.221a167.046 167.046 0 0 1 5.556-8.791c0.011 0.189 0 0.389 0.032 0.578a9.33 9.33 0 0 0 2.248 4.968c-0.662 1.218-1.638 3.487-1.932 5.461-1.575-0.903-3.35-1.271-5.073-1.995z m149.787-4.874a3.9 3.9 0 0 1-0.137 1.575 11.92 11.92 0 0 0 0.137-1.575z m-49.666-13.18c-0.137 0.137-0.315 0.179-0.504 0.168 0.042-0.011 0.095-0.021 0.137-0.032 0.126-0.042 0.252-0.095 0.368-0.137z m-5.987 10.103a6.462 6.462 0 0 0 0.147-1.722c2.773-3.613 5.881-6.911 9.4-9.82 0.336-0.158 0.662-0.315 0.998-0.483-0.746 5.262 3.739 10.03 9.158 9.095-0.032 4.695 0.147 9.379 0.567 14.031-0.998-0.074-1.995-0.294-2.888-0.693 3.329-3.298 1.985-10.597-4.117-10.629-2.552-0.011-10.639 2.069-17.424 4.821 0.095-0.158 0.179-0.315 0.284-0.473 1.859-0.683 3.445-2.237 3.875-4.128z m-31.56-9.536c0.042-0.011 0.084-0.011 0.126-0.021 3.245-1.05 4.663-3.833 4.317-7.016 0.011-0.011 0.021-0.032 0.032-0.042 0.032 0.168 0.032 0.126 0.021-0.032 2.384-2.93 5.209-5.314 8.612-6.942a0.512 0.512 0 0 0-0.021 0.137c-0.399 3.749 0 7.572 1.019 11.196 0.095 0.336 0.231 0.651 0.378 0.956-4.443 1.575-16.016 7.037-16.594 6.638a58.297 58.297 0 0 1 2.111-4.873z m-4.38 155.9c0.914-1.901 0.399-4.432-1.827-4.968-3.728-10.345-7.005-20.816-8.36-31.676-0.945-7.635-1.208-15.334-1.008-23.043 0.504 0.399 1.176 0.641 2.037 0.641 4.653 0 5.367-7.247 0.683-7.247-1.04 0-1.859 0.368-2.489 0.924 0.767-14.347 2.93-28.704 5.115-42.714 0.767-4.894 1.397-10.954 2.29-17.371 4.327 1.617 9.253 1.932 13.874 1.922 6.669-0.021 7.667-8.77 3.035-11.437 1.071-0.756 1.901-1.827 2.206-3.203 0.273-1.218 2.416-3.602 4.726-6.091 0.83 0.567 1.733 1.04 2.668 1.344 1.197 0.399 2.51 0.515 3.77 0.599 0.347 0.021 0.704 0.042 1.05 0.042 0.221 0.053 0.441 0.105 0.651 0.189 0.462 0.158 0.945 0.221 1.428 0.231-0.273 0.42-0.525 0.851-0.788 1.281a38.611 38.611 0 0 0-2.951 1.512c-2.269-1.218-5.503-0.62-7.257 1.134-2.542 2.542-2.08 6.07 0 8.644 0.935 1.155 2.006 2.122 3.172 2.962a97.734 97.734 0 0 0-4.506 14.935c-4.085 18.947-3.508 38.481-2.594 57.733 1.061 22.612 2.174 45.224 2.657 67.857 0.231 10.87 0.63 22.003 0.788 33.209a300.302 300.302 0 0 0-5.041 19.913c0.137-0.893 0.326-1.764 0.431-2.678 2.773-22.917-5.944-43.649-13.758-64.643z m16.353 95.773c-0.798 0.599-1.365 1.491-1.418 2.521-0.063 1.397 0.126 2.762 0.462 4.085-1.481 9.442-3.665 18.695-6.764 27.674-0.021-25.332 3.308-50.622 9.799-75.45 0.053 13.79-0.389 27.622-2.08 41.17z m47.419-161.719c-6.396 16.941-13.79 33.482-21.058 50.055-0.515-0.42-1.197-0.683-2.09-0.683-4.621 0-5.356 7.131-0.777 7.236-5.314 12.214-10.492 24.492-15.071 37.011-1.869 5.104-3.539 10.251-5.125 15.418-0.084-35.257-2.027-70.42-3.277-105.677-0.704-19.587 0.725-42.651 7.646-62.501 2.794 1.565 5.934 2.584 8.98 3.434 2.825 0.788 5.052-0.347 6.333-2.206 5.871 1.533 14.389 1.04 18.506 0.798a128.233 128.233 0 0 0 4.947 19.073c2.111 6.123 4.821 11.92 7.751 17.613-2.006 6.858-4.212 13.685-6.764 20.427z m7.446-22.822c-1.271-2.573-2.489-5.157-3.602-7.814-3.613-8.665-6.176-17.592-7.845-26.677a22.086 22.086 0 0 0 6.533-2.09c7.026-3.539 0.851-14.084-6.165-10.555-0.567 0.284-1.26 0.483-2.006 0.578a143.93 143.93 0 0 1-0.609-14.62c2.101-1.176 3.455-3.697 3.14-6.081 2.374-1.323 3.865-4.306 2.993-6.984a6.963 6.963 0 0 0-0.882-1.743c1.271-0.777 2.258-1.943 2.531-3.445 0.021-0.084 0.021-0.158 0.042-0.242a69.948 69.948 0 0 1 5.892-1.47c0.137 1.911 1.071 3.728 2.909 4.705 0.924 0.494 1.995 0.725 3.056 0.735 0.525 2.09 1.943 3.991 4.18 4.359 1.701 0.284 3.382 0.651 5.041 1.082 0.032 0.441 0.074 0.882 0.095 1.323 0.042 0.798 0.231 1.586 0.546 2.321-0.494 2.006-0.977 4.001-1.46 6.007-2.636 0.074-5.503 1.596-5.934 4.39-0.473 3.088-0.011 6.333 2.521 8.486 0.126 0.105 0.263 0.189 0.399 0.284-3.55 15.901-6.932 31.791-11.374 47.451z m48.396 234.575c-0.462 22.003-5.251 43.302-11.479 64.276-1.901-17.812 0.242-36.748 1.88-53.521 1.806-18.495 3.56-36.727 4.212-54.981 3.812 14.399 5.692 29.271 5.388 44.226zM579.5 406.859c-1.155 1.796-0.861 4.453 1.145 5.272 4.306 20.585 6.942 41.622 9.106 61.745 1.166 10.912 1.502 21.751 1.344 32.558-4.022-11.301-9.085-22.15-13.706-33.251 0.389-0.924 0.441-1.974-0.105-2.825a46.729 46.729 0 0 0-2.416-3.403 204.534 204.534 0 0 1-3.56-9.683c-7.404-21.929-10.04-45.14-9.652-68.225 0.179-10.387 0.966-20.743 2.164-31.056 6.869 15.418 11.889 31.949 15.68 48.868z m-3.697-123.153c-4.338 18.81-8.465 37.694-11.458 56.787a477.083 477.083 0 0 0-1.596 11.143c-3.823-7.593-8.118-14.945-11.983-22.517 4.716-16.163 8.171-32.589 11.815-49.005 2.216 0.872 4.8 0.662 6.554-1.25 0.305-0.336 0.567-0.725 0.809-1.124 0.42 3.004 2.794 5.451 5.976 5.472-0.042 0.168-0.074 0.326-0.116 0.494z m15.46-32.474c-0.935 0-1.754 0.179-2.458 0.483 0.662-0.956 1.418-1.89 2.185-2.804l2.647 2.773a6.16 6.16 0 0 0-2.374-0.452z m1.428 18.232c0.116 0.357 0.242 0.714 0.41 1.071-0.2-0.326-0.315-0.693-0.41-1.071z m47.02 76.28a203.673 203.673 0 0 1 4.001 9.82c-0.987 1.922-0.483 4.569 1.838 5.083 6.638 19.199 10.219 39.448 9.263 59.812-5.283-7.247-11.133-13.79-17.403-19.913 1.439-2.143 0.788-5.598-2.447-5.598-1.029 0-1.859 0.368-2.489 0.924-10.093-9.253-21.068-17.707-32.285-26.456-6.743-5.262-13.38-11.196-13.055-20.375 0.179-5.209 1.985-10.45 3.403-15.439 2.867-10.124 6.081-20.154 9.547-30.079a549.162 549.162 0 0 1 5.409-14.777c0.011 0.021 0.021 0.032 0.032 0.053 12.341 18.653 25.133 36.328 34.186 56.945z m-31.423-72.016a8.771 8.771 0 0 1-0.777 0.872c-0.084 0.084-0.179 0.158-0.263 0.242-0.252 0.147-0.515 0.294-0.756 0.452a1.84 1.84 0 0 1-0.263 0.084c-1.995 0.62-3.623 2.279-4.243 4.233a74.04 74.04 0 0 1-1.418-2.93c0.641-0.462 1.239-0.966 1.754-1.596a10.658 10.658 0 0 0 1.638-2.668c0.966 0.599 2.059 0.956 3.151 0.903a6.792 6.792 0 0 0 2.059-0.431c-0.315 0.242-0.62 0.515-0.882 0.84z m-4.58-12.802c-0.567 0.567-0.998 1.187-1.376 1.827-1.565-1.271-3.896-1.701-5.808-1.113a25.836 25.836 0 0 1-0.063-1.302c0.798-1.596 0.914-3.55 0.336-5.251 0.063-0.389 0.126-0.788 0.2-1.176 2.09 0.557 4.474 0.095 5.955-1.523 0.431-0.462 0.756-0.987 1.029-1.523 1.071 1.092 2.521 1.796 4.18 1.712a11.024 11.024 0 0 0 1.764-0.252c-1.029 1.869-1.187 4.18 0.021 6.039-2.311 0.053-4.6 0.924-6.239 2.563z m15.975-10.135c-0.473-0.347-0.924-0.704-1.46-1.008a6.133 6.133 0 0 0-2.668-0.809c0.147-0.168 0.284-0.347 0.41-0.536 1.344 0.546 2.647 1.187 3.938 1.88l-0.221 0.473z m1.46 1.208c0.126-0.263 0.242-0.536 0.368-0.798 0.536 0.326 1.061 0.683 1.586 1.029 0 0.693-1.208 0.483-1.953-0.231z m1.953-3.582v1.628c-0.273-0.168-0.536-0.336-0.809-0.504 0.305-0.641 0.588-1.281 0.893-1.922a4.773 4.773 0 0 0-0.084 0.798z m72.835 259.939c-0.168-0.126-0.105-0.116 0 0z m-54.56-238.461c0.672 0.84 1.344 1.68 1.995 2.521a5.572 5.572 0 0 0-2.206-0.053c0.095-0.83 0.168-1.649 0.21-2.468z m10.198-5.325c0.011 0.021 0.011 0.042 0.021 0.063 0.179 0.662 0 0.284-0.021-0.063z m11.531-4.085c-0.126-0.41-0.252-0.809-0.42-1.197-0.641-1.533-1.313-2.773-2.804-3.655-0.809-0.473-1.859-0.746-2.888-0.798 0.368-0.347 0.683-0.735 0.945-1.155 0.599 0.095 1.197 0.189 1.796 0.305 0.074 0.126 0.116 0.263 0.21 0.389a71.878 71.878 0 0 0 3.823 4.873 6.094 6.094 0 0 0-0.662 1.239z m15.46-0.2c0-0.021 0-0.042 0.011-0.053 0.011 0.032 0.021 0.063 0.042 0.084-0.021-0.011-0.042-0.021-0.053-0.032z" fill="#3E682A" p-id="18476"></path><path d="M438.304 258.857c3.098 1.638 6.197 1.365 9.305-0.011 2.93-1.302 3.844-5.797 2.195-8.36a6.298 6.298 0 0 0-2.269-2.153c1.691-1.911 2.143-5.031 0.756-7.184-1.869-2.899-5.325-3.77-8.36-2.195-4.915 2.563-8.076 8.15-6.554 13.685 0.714 2.636 2.51 4.947 4.926 6.218zM557.854 264.476a6.862 6.862 0 0 0-1.176-2.132c0.137-0.2 0.263-0.399 0.41-0.588 0.893-1.166 0.987-3.371 0.62-4.705-0.389-1.418-1.491-2.951-2.804-3.655-3.235-1.712-16.121-5.104-18.211-2.384-1.88 2.437-6.438 4.254-6.302 7.352 0.221 4.905 18.19 15.334 23.2 13.632 3.014-1.029 5.314-4.243 4.264-7.52z m-2.174 0.241c-0.021-0.032 0.042-0.305 0.116-0.609-0.011 0.2-0.032 0.41-0.116 0.609zM360.784 391.767c-0.158 0-0.294 0.032-0.441 0.042 0.074-1.229 0.126-2.447 0.221-3.676 2.951-34.48 12.719-67.941 28.357-98.588 0.179 0.011 0.368 0.032 0.546 0.042 3.739 0.231 27.59-21.835 28.451-24.996 0.945-3.455-0.599-7.215-3.623-9.095-2.08-1.292-4.569-1.701-6.984-1.628-3.119 0.095-6.112 2.636-6.091 5.902-2.059 0.998-19.902 14.683-20.816 21.53-0.378 2.794 0.893 5.503 3.34 6.942 0.977 0.567 2.101 0.882 3.245 1.071-13.076 25.752-22.045 53.469-26.309 82.214a263.253 263.253 0 0 0-2.269 21.058c-1.796 1.46-2.016 4.485-0.315 5.787a263.3 263.3 0 0 0 0.368 30.888c0.158 2.143 0.347 4.317 0.536 6.501-0.042 0-0.084-0.011-0.126-0.011-4.653 0-5.367 7.247-0.683 7.247 0.536 0 1.008-0.105 1.439-0.273 1.775 20.249 2.647 41.097-12.256 57.029-0.809 0.861 0.483 2.164 1.292 1.292 12.151-13.002 14.546-29.901 13.737-47.093-0.21-4.411-0.483-8.78-0.777-13.139 0.63-1.313 0.567-2.92-0.263-3.97-0.851-12.624-1.67-25.154-1.344-37.851 0.032 0 0.053 0.011 0.084 0.011 4.653 0 5.367-7.236 0.683-7.236z" fill="#3E682A" p-id="18477"></path><path d="M407.258 260.548c-4.999 1.953 8.455 7.688 7.52 4.264-0.809-2.93-4.432-5.472-7.52-4.264zM390.821 285.838c0.21 5.062 4.506 7.667 9.158 7.751 3.193 0.063 6.26-2.857 6.112-6.112-0.158-3.35-15.449-5.85-15.271-1.638zM434.271 254.225c-1.859 3.529-2.878 7.362-2.794 11.364 0.074 3.193 2.762 6.26 6.112 6.112 3.256-0.147 6.186-2.689 6.112-6.112-0.011-0.578 0.011-1.145 0.021-1.722 0.074-0.735 0.063-0.767-0.011-0.084 0.053-0.284 0.105-0.567 0.179-0.84 0.137-0.557 0.347-1.092 0.483-1.649 0.147-0.41 0.126-0.357-0.084 0.126 0.158-0.347 0.336-0.693 0.515-1.029 1.491-2.825 0.809-6.774-2.195-8.36-2.804-1.481-6.743-0.819-8.339 2.195zM434.102 296.267c3.382 0.168 6.995-0.819 9.767-2.773 2.605-1.838 4.085-5.419 2.195-8.36-1.67-2.584-5.566-4.159-8.36-2.195-0.252 0.179-1.197 0.998-1.512 0.924 0.221-0.084 0.431-0.168 0.651-0.263-0.273 0.105-0.557 0.2-0.84 0.284-0.21 0.063-0.431 0.116-0.651 0.158-0.462 0.095-0.284 0.084 0.525-0.032-0.42 0.21-1.323 0.053-1.775 0.032-3.193-0.158-6.249 2.93-6.112 6.112 0.158 3.445 2.689 5.934 6.112 6.112zM448.239 277.877c2.059 0.914 3.98 1.523 6.27 1.481 3.193-0.053 6.26-2.773 6.112-6.112-0.147-3.266-2.689-6.165-6.112-6.112-0.21 0.011-0.41 0.011-0.62 0-0.473-0.032-0.273 0 0.609 0.095l-0.399-0.095c-0.63-0.21-0.525-0.147 0.305 0.189-1.554-0.693-3.004-1.082-4.705-0.62-1.418 0.389-2.951 1.491-3.655 2.804-1.397 2.668-0.914 6.974 2.195 8.371zM479.61 245.497c-0.756 2.521-0.735 5.157-0.105 7.709 0.767 3.109 4.432 5.262 7.52 4.264 3.224-1.04 5.083-4.191 4.264-7.52-0.063-0.242-0.074-0.588-0.179-0.798 0.242 0.504 0.095 1.208 0.126 0.189 0-0.189 0.053-1.166-0.011-0.21-0.063 0.977 0.116-0.2 0.168-0.389 0.914-3.067-1.092-6.795-4.264-7.52-3.287-0.746-6.543 0.998-7.52 4.275zM466.923 272.289c0.399 5.997 4.842 10.461 10.86 10.839 3.193 0.2 6.249-2.951 6.112-6.112-0.158-3.487-2.689-5.892-6.112-6.112 1.061 0.189 1.281 0.21 0.63 0.084-0.609-0.189-0.431-0.105 0.525 0.263-0.2-0.095-0.389-0.21-0.578-0.336 0.777 0.641 0.935 0.746 0.462 0.315-0.431-0.473-0.326-0.315 0.315 0.462a4.495 4.495 0 0 1-0.336-0.578c0.368 0.956 0.462 1.134 0.263 0.525-0.137-0.641-0.116-0.431 0.074 0.641-0.21-3.182-2.657-6.27-6.112-6.112-3.119 0.147-6.323 2.699-6.102 6.123zM508.24 279.274c-0.063 0.284-0.137 0.557-0.221 0.83-0.189 0.515-0.179 0.546 0.011 0.084 0.21-0.462 0.2-0.441-0.032 0.063a8.522 8.522 0 0 1-0.41 0.756c-1.586 2.773-0.746 6.806 2.195 8.36 2.909 1.533 6.669 0.767 8.36-2.195 0.83-1.449 1.491-3.025 1.89-4.653 0.767-3.098-0.987-6.774-4.264-7.52-3.172-0.714-6.711 0.945-7.53 4.275z" fill="#6DA450" p-id="18478"></path><path d="M516.149 293.221c0.431 0.42 0.851 0.851 1.281 1.271 2.269 2.258 6.407 2.437 8.644 0 2.227-2.426 2.426-6.239 0-8.644-0.431-0.42-0.851-0.851-1.281-1.271-2.269-2.258-6.407-2.437-8.644 0-2.227 2.437-2.426 6.239 0 8.644zM534.265 257.743c-1.281 4.579 0.872 8.948 4.611 11.605 1.491 1.061 3.203 1.722 4.957 2.206 0.641 0.179 1.302 0.315 1.943 0.473 0.431 0.105 0.861 0.221 1.292 0.347 0.704 0.252 0.84 0.284 0.389 0.105 2.993 1.386 6.585 0.851 8.36-2.195 1.544-2.636 0.819-6.963-2.195-8.36-2.164-0.998-4.275-1.533-6.543-2.164-0.42-0.116-0.872-0.21-1.271-0.389 0.693 0.305-0.263-0.147-0.252-0.221 0.011-0.116 0.714 1.019 0.252 0.189-0.347-0.63 0.347 1.25 0.231 1.638 0.882-3.182-1.092-6.648-4.264-7.52-3.193-0.861-6.617 1.092-7.509 4.285zM585.077 268.981c0.315 0.536 0.641 1.061 0.956 1.596 1.649 2.741 5.566 4.001 8.36 2.195 2.752-1.775 3.959-5.43 2.195-8.36-0.315-0.536-0.641-1.061-0.956-1.596-1.649-2.741-5.566-4.001-8.36-2.195-2.762 1.775-3.959 5.43-2.195 8.36zM564.345 266.576c1.061 3.571 2.636 7.005 4.789 10.051 1.838 2.605 5.419 4.085 8.36 2.195 2.584-1.67 4.17-5.566 2.195-8.36a29.367 29.367 0 0 1-2.332-3.844c-0.137-0.263-0.263-0.536-0.389-0.809 0.21 0.546 0.189 0.483-0.084-0.2a33.776 33.776 0 0 1-0.756-2.279c-0.914-3.056-4.327-5.304-7.52-4.264-3.098 0.998-5.241 4.233-4.264 7.509zM604.475 270.094c0.452 1.512 1.082 2.993 1.953 4.306 1.775 2.657 5.472 4.054 8.36 2.195 2.647-1.701 4.096-5.514 2.195-8.36-0.263-0.389-0.462-0.788-0.704-1.187-0.2-0.42-0.126-0.231 0.221 0.557a9.117 9.117 0 0 1-0.242-0.756c-0.914-3.056-4.338-5.293-7.52-4.264-3.098 0.998-5.241 4.233-4.264 7.509zM575.94 245.676c4.138 1.302 8.276 2.605 12.404 3.917 7.52 2.374 10.734-9.421 3.245-11.784a4495.115 4495.115 0 0 1-12.404-3.917c-7.509-2.374-10.723 9.421-3.245 11.784zM617.288 263.068c0.746 1.806 1.481 3.613 2.227 5.419 0.63 1.533 1.313 2.783 2.804 3.655 1.313 0.767 3.245 1.092 4.705 0.62 2.846-0.924-11.038-12.866-9.736-9.694zM643.387 280.755c-0.168-0.231-0.347-0.462-0.515-0.693 0.242 0.441 0.231 0.41-0.011-0.095-0.063-0.231-0.294-1.869-0.294-0.987-0.011 3.193 2.815 6.26 6.112 6.112 3.319-0.147 6.102-2.689 6.112-6.112 0-2.668-1.019-4.915-2.752-6.869-2.132-2.395-6.501-2.332-8.644 0-2.353 2.563-2.279 6.081-0.011 8.644zM422.067 319.793c0.651-0.189 0.347-0.221-0.935-0.084a2.755 2.755 0 0 1-2.143-0.378 4.49 4.49 0 0 1-2.069-3.634c0.105 3.193 2.741 6.26 6.112 6.112 3.224-0.147 6.218-2.689 6.112-6.112-0.158-5.083-5.188-9.431-10.324-7.688-3.025 1.029-5.325 4.243-4.264 7.52 0.956 2.993 4.264 5.367 7.509 4.264zM393.048 328.898c-3.77 5.545-2.678 12.792 1.544 17.686 2.153 2.5 6.428 2.206 8.644 0 2.479-2.479 2.164-6.133 0-8.644 0.882 1.029-0.504-1.523-0.095-0.158a7.685 7.685 0 0 1-0.273-1.082c0.074 0.609 0.105 0.693 0.074 0.242a7.132 7.132 0 0 1 0.011-0.84c-0.105 0.704-0.084 0.693 0.063-0.021 0.231-0.672 0.221-0.704-0.011-0.084 0.168-0.326 0.368-0.641 0.588-0.945 1.859-2.731 0.515-6.774-2.195-8.36-3.004-1.754-6.491-0.536-8.35 2.206zM393.867 387.093v2.552c0 3.193 2.815 6.26 6.112 6.112 3.308-0.147 6.112-2.689 6.112-6.112v-2.552c0-3.193-2.815-6.26-6.112-6.112-3.308 0.158-6.112 2.689-6.112 6.112zM488.852 339.915c-0.137 3.13 0.357 6.365 1.565 9.253 0.641 1.533 1.313 2.773 2.804 3.655 1.313 0.767 3.245 1.092 4.705 0.62 2.825-0.914 5.587-4.359 4.264-7.52-0.473-1.145-0.714-2.29-1.071-3.466-0.084-0.441-0.074-0.368 0.011 0.242a10.43 10.43 0 0 1-0.063-0.84 17.195 17.195 0 0 1 0-1.953c0.147-3.193-2.909-6.249-6.112-6.112-3.424 0.158-5.944 2.689-6.102 6.123zM519.992 412.457l0.641 0.641c2.269 2.269 6.407 2.437 8.644 0s2.416-6.228 0-8.644l-0.641-0.641c-2.269-2.269-6.407-2.437-8.644 0-2.237 2.447-2.416 6.228 0 8.644zM577.378 416.931c0.105 0.095 0.42 0.473 0.546 0.494-0.147-0.021-0.966-1.145-0.2-0.2 0.368 0.462-0.252-1.029-0.189-0.441 0.053 0.431 0.105 1.355-0.011-0.357 0.221 3.182 2.657 6.27 6.112 6.112 3.119-0.137 6.344-2.699 6.112-6.112-0.21-3.077-1.302-6.102-3.728-8.139-2.447-2.059-6.281-2.573-8.644 0-2.08 2.269-2.615 6.449 0 8.644zM557.245 462.071c1.029 3.424 2.678 6.249 4.842 9.043 0.893 1.145 2.951 1.785 4.317 1.785 1.502 0 3.287-0.662 4.317-1.785 1.071-1.166 1.859-2.689 1.785-4.317-0.074-1.733-0.735-2.962-1.785-4.317 1.061 1.365-0.074-0.2-0.263-0.494-0.263-0.42-0.504-0.851-0.725-1.292l-0.284-0.567c-0.273-0.609-0.242-0.515 0.116 0.294-0.294-0.242-0.431-1.239-0.546-1.596-0.924-3.056-4.327-5.304-7.52-4.264-3.077 0.987-5.241 4.233-4.254 7.509zM479.684 512.977h-2.552c-3.193 0-6.26 2.815-6.112 6.112 0.147 3.308 2.689 6.112 6.112 6.112h2.552c3.193 0 6.26-2.815 6.112-6.112-0.147-3.319-2.689-6.112-6.112-6.112zM616.448 529.844c1.229 0.168 2.437 0.389 3.634 0.725 0.515 0.137 1.019 0.294 1.512 0.473 0.336 0.116 0.662 0.242 0.998 0.368-0.641-0.284-0.641-0.273 0 0.011 2.899 1.323 6.711 0.924 8.36-2.195 1.418-2.678 0.914-6.942-2.195-8.36-2.93-1.334-5.86-2.374-9.064-2.804-1.712-0.231-3.151-0.294-4.705 0.62-1.271 0.746-2.479 2.195-2.804 3.655-0.651 2.867 0.882 7.058 4.264 7.509zM628.515 400.484v5.734c0 3.193 2.815 6.26 6.112 6.112 3.308-0.147 6.112-2.689 6.112-6.112v-5.734c0-3.193-2.815-6.26-6.112-6.112-3.308 0.158-6.112 2.689-6.112 6.112zM647.378 367.684c0.252-0.021 0.504-0.021 0.756 0-0.998-0.168-1.166-0.168-0.515-0.011-0.861-0.41-1.008-0.462-0.42-0.168 0.546 0.347 0.431 0.252-0.326-0.284 2.416 2.09 6.302 2.552 8.644 0 2.111-2.3 2.584-6.407 0-8.644-2.29-1.985-5.02-3.256-8.118-3.109-3.193 0.147-6.26 2.71-6.112 6.112 0.126 3.182 2.668 6.26 6.091 6.102zM678.886 345.009v4.464c0 3.193 2.815 6.26 6.112 6.112 3.308-0.147 6.112-2.689 6.112-6.112v-4.464c0-3.193-2.815-6.26-6.112-6.112-3.308 0.158-6.112 2.689-6.112 6.112zM715.802 374.973c-0.231 2.762-0.462 5.524-0.704 8.287-0.273 3.193 3.004 6.249 6.112 6.112 3.539-0.158 5.818-2.689 6.112-6.112 0.231-2.762 0.462-5.524 0.704-8.287 0.273-3.193-3.004-6.249-6.112-6.112-3.55 0.168-5.829 2.699-6.112 6.112zM688.863 516.17c3.634 2.51 7.278 5.031 10.912 7.541 2.72 1.88 6.785 0.504 8.36-2.195 1.775-3.035 0.536-6.48-2.195-8.36-3.634-2.51-7.278-5.031-10.912-7.541-2.72-1.88-6.785-0.504-8.36 2.195-1.775 3.035-0.536 6.48 2.195 8.36zM410.545 452.829c-4.432 1.617-8.266 3.854-11.857 6.921-2.437 2.08-2.3 6.533 0 8.644 2.594 2.384 6.039 2.227 8.644 0 0.315-0.273 0.641-0.546 0.966-0.809-0.41 0.326-0.315 0.263 0.273-0.168 0.62-0.399 1.218-0.809 1.848-1.176s1.292-0.693 1.932-1.04c0.672-0.305 0.756-0.347 0.263-0.147 0.389-0.158 0.777-0.305 1.176-0.441 2.993-1.092 5.346-4.201 4.264-7.52-0.945-2.941-4.296-5.44-7.509-4.264zM679.894 569.617c4.716 0 4.726-7.331 0-7.331-4.716 0-4.726 7.331 0 7.331zM613.906 586.831c4.716 0 4.726-7.331 0-7.331s-4.726 7.331 0 7.331zM454.835 268.624c4.716 0 4.726-7.331 0-7.331-4.726-0.011-4.726 7.331 0 7.331zM414.662 288.705c4.716 0 4.726-7.331 0-7.331-4.716 0-4.726 7.331 0 7.331z" fill="#6DA450" p-id="18479"></path><path d="M451.852 260.422c1.554 0 1.785-2.416 0.231-2.416s-1.796 2.416-0.231 2.416zM415.187 270.945c1.554 0 1.785-2.416 0.231-2.416s-1.796 2.416-0.231 2.416zM413.097 273.76l-0.158 2.867c-0.084 1.554 2.332 1.785 2.416 0.231l0.158-2.867c0.084-1.554-2.321-1.785-2.416-0.231zM404.895 273.791h-0.315c-1.554 0-1.785 2.416-0.231 2.416h0.315c1.544 0 1.785-2.416 0.231-2.416zM396.871 269.139v1.596c0 1.554 2.416 1.785 2.416 0.231v-1.596c0-1.544-2.416-1.785-2.416-0.231zM388.143 276.785c0.368 0.21 0.746 0.42 1.113 0.641 1.344 0.767 2.752-1.208 1.386-1.985-0.368-0.21-0.746-0.42-1.113-0.641-1.344-0.767-2.741 1.208-1.386 1.985zM397.963 282.424h0.641c1.554 0 1.785-2.416 0.231-2.416h-0.641c-1.544 0-1.785 2.416-0.231 2.416z" fill="#FFFFFF" p-id="18480"></path><path d="M393.037 287.256c18.6 0 21.467-28.977 2.741-28.977-18.59 0-21.457 28.977-2.741 28.977zM443.093 263.656c18.6 0 21.467-28.977 2.741-28.977-18.59 0-21.467 28.977-2.741 28.977zM531.409 251.704c18.6 0 21.467-28.977 2.741-28.977-18.59 0-21.467 28.977-2.741 28.977zM589.278 288.054c18.6 0 21.467-28.977 2.741-28.977-18.6-0.011-21.467 28.977-2.741 28.977zM628.463 264.57c12.404 0 14.315-19.325 1.827-19.325-12.393 0.011-14.304 19.325-1.827 19.325z" fill="#FFFFFF" p-id="18481"></path><path d="M445.876 254.225c4.653 0 5.367-7.247 0.683-7.247-4.642 0.011-5.356 7.247-0.683 7.247zM531.482 240.834c4.653 0 5.367-7.247 0.683-7.247-4.642 0.011-5.367 7.247-0.683 7.247zM631.257 257.638c4.653 0 5.367-7.247 0.683-7.247-4.642 0.011-5.367 7.247-0.683 7.247zM591.263 279.578c4.653 0 5.367-7.247 0.683-7.247-4.653 0-5.367 7.247-0.683 7.247zM397.575 277.667c4.653 0 5.367-7.247 0.683-7.247-4.642 0-5.356 7.247-0.683 7.247zM469.318 273.361c4.653 0 5.367-7.247 0.683-7.247-4.653 0-5.367 7.247-0.683 7.247zM496.393 342.898c4.653 0 5.367-7.247 0.683-7.247-4.642 0-5.367 7.247-0.683 7.247z" fill="#F8E506" p-id="18482"></path></svg>