<?xml version="1.0" standalone="no"?><!DOCTYPE svg PUBLIC "-//W3C//DTD SVG 1.1//EN" "http://www.w3.org/Graphics/SVG/1.1/DTD/svg11.dtd"><svg t="1618985716527" class="icon" viewBox="0 0 1024 1024" version="1.1" xmlns="http://www.w3.org/2000/svg" p-id="2750" xmlns:xlink="http://www.w3.org/1999/xlink" width="200" height="200"><defs><style type="text/css"></style></defs><path d="M512 938.666667c-3.413333 0-10.24-3.413333-13.653333-6.826667l-146.773334-153.6c-20.48-20.48-30.72-44.373333-30.72-71.68 0-54.613333 37.546667-98.986667 85.333334-109.226667 27.306667-3.413333 51.2 3.413333 75.093333 23.893334 10.24 6.826667 17.066667 17.066667 23.893333 27.306666 6.826667-10.24 13.653333-20.48 23.893334-27.306666 23.893333-20.48 54.613333-27.306667 81.92-23.893334 47.786667 6.826667 85.333333 54.613333 85.333333 105.813334 0 30.72-10.24 54.613333-30.72 75.093333l-146.773333 153.6c3.413333 3.413333-3.413333 6.826667-6.826667 6.826667z m-88.746667-307.2h-6.826666c-30.72 6.826667-58.026667 37.546667-58.026667 71.68 0 20.48 6.826667 37.546667 20.48 51.2l133.12 139.946666 133.12-139.946666c13.653333-13.653333 20.48-30.72 20.48-47.786667 0-37.546667-23.893333-68.266667-58.026667-75.093333-20.48-3.413333-40.96 3.413333-54.613333 13.653333-13.653333 13.653333-23.893333 30.72-23.893333 51.2v17.066667c0 10.24-6.826667 17.066667-17.066667 17.066666s-17.066667-6.826667-17.066667-17.066666c0-23.893333-13.653333-51.2-34.133333-68.266667-6.826667-6.826667-20.48-13.653333-37.546667-13.653333z" fill="#f51184" p-id="2751"></path><path d="M904.533333 768H750.933333c-10.24 0-17.066667-6.826667-17.066666-17.066667s6.826667-17.066667 17.066666-17.066666h153.6c37.546667 0 68.266667-30.72 68.266667-68.266667v-477.866667c0-37.546667-30.72-68.266667-68.266667-68.266666h-785.066666c-37.546667 0-68.266667 30.72-68.266667 68.266666v477.866667c0 37.546667 30.72 68.266667 68.266667 68.266667H273.066667c10.24 0 17.066667 6.826667 17.066666 17.066666s-6.826667 17.066667-17.066666 17.066667H119.466667c-58.026667 0-102.4-44.373333-102.4-102.4v-477.866667c0-58.026667 44.373333-102.4 102.4-102.4h785.066666c58.026667 0 102.4 44.373333 102.4 102.4v477.866667c0 58.026667-44.373333 102.4-102.4 102.4z" fill="#f51184" p-id="2752"></path><path d="M501.76 460.8c-23.893333 0-51.2-6.826667-68.266667-20.48l-324.266666-238.933333c-6.826667-6.826667-10.24-17.066667-3.413334-23.893334 6.826667-6.826667 17.066667-10.24 23.893334-3.413333l324.266666 238.933333c23.893333 17.066667 75.093333 17.066667 98.986667 0l324.266667-238.933333c6.826667-6.826667 17.066667-3.413333 23.893333 3.413333 6.826667 6.826667 3.413333 17.066667-3.413333 23.893334l-324.266667 238.933333c-20.48 13.653333-44.373333 20.48-71.68 20.48zM136.533333 665.6c-3.413333 0-10.24 0-13.653333-3.413333-6.826667-6.826667-6.826667-17.066667 0-23.893334l204.8-204.8c6.826667-6.826667 17.066667-6.826667 23.893333 0s6.826667 17.066667 0 23.893334l-204.8 204.8c0 3.413333-6.826667 3.413333-10.24 3.413333zM887.466667 665.6c-3.413333 0-10.24 0-13.653334-3.413333l-204.8-204.8c-6.826667-6.826667-6.826667-17.066667 0-23.893334s17.066667-6.826667 23.893334 0l204.8 204.8c6.826667 6.826667 6.826667 17.066667 0 23.893334 0 3.413333-6.826667 3.413333-10.24 3.413333z" fill="#f51184" p-id="2753"></path></svg>