<?xml version="1.0" standalone="no"?><!DOCTYPE svg PUBLIC "-//W3C//DTD SVG 1.1//EN" "http://www.w3.org/Graphics/SVG/1.1/DTD/svg11.dtd"><svg t="1597148192052" class="icon" viewBox="0 0 1024 1024" version="1.1" xmlns="http://www.w3.org/2000/svg" p-id="18143" xmlns:xlink="http://www.w3.org/1999/xlink" width="200" height="200"><defs><style type="text/css"></style></defs><path d="M663.95 643.58c-23.19-17.36-46.39-34.72-69.58-52.08a3.08 3.08 0 0 0-1.4-0.97c-0.93-0.51-1.83-0.51-2.6-0.17l-86.63 2.97c-9.48 0.32-20.95-1.06-30.25 1.04-6.03 1.36-12.62 6.89-17.86 10.02-7.79 4.64-15.64 9.2-23.38 13.93-12.07 7.38-27.66 20.53-35.24 32.72-1.34 2.16 5.29 4.26 7.52 5.01 40.88 13.74 86.91 6.52 129.49 6.92 22.93 0.22 45.89 0.36 68.81 0.02 21.51-0.32 40.8-5.91 61.12-12.53 3.29-1.08 2.56-4.96 0-6.88z" fill="#AFB1B0" p-id="18144"></path><path d="M596.35 581.48c-0.15-7.75-1.46-15.43-9.75-17.97-8.59-2.62-19.79-0.88-28.73-1.02-8.15-0.12-16.3-0.21-24.45-0.26-19.09-0.13-38.19-0.07-57.28 0.12-1.63-1.03-3.82-0.94-4.84 1.32-2.18 4.86-2.13 8.26-1.93 13.61 0.18 4.81 1.02 9.47 0.53 14.4-0.23 2.31-1.32 4.54-0.9 6.92 1.55 8.84 15.85 7.17 22.51 7.6 16.92 1.08 34.08 1.95 51.04 1.83 14.73-0.1 32.68-0.47 46.65-5.71 9.18-3.43 7.31-12.39 7.15-20.84zM663.95 648.88c6.55-5.36 6.32 30.52 7.22 46.26 0.91 15.73 0.52 31.58 0.59 47.33 0.07 15.97 1.23 32.38-0.25 48.3-0.94 10.18-4.42 19.26-9.03 28.05 0.12 0.75-0.04 1.58-0.63 2.42-0.71 0.99-1.46 1.9-2.23 2.77-0.4 0.69-0.78 1.38-1.19 2.07-0.73 1.22-1.8 1.75-2.89 1.79-7.27 5.68-16.48 7.68-26.23 8.4-20 1.48-40.35 1.14-60.4 1.24-43.1 0.22-86.06-3.12-129.12-4.48-13.21-0.42-32.99-0.81-41.65-12.91-3.45-4.83-3.4-10.45-3.46-16.18-0.11-10.6-0.01-21.2-0.02-31.8-0.01-21.2-0.03-42.4-0.04-63.61-0.01-18.62-4.12-39.54 2.39-57.37 1.65-4.51 34.91 4.8 48.54 6.03 7.75 0.7 15.56 0.57 23.34 0.76 0 0.01 180.87 2.55 195.06-9.07z" fill="#21231A" p-id="18145"></path><path d="M675.17 750.37c-4.56 0.05-9.13 0.11-13.7 0.17-1.21-1.75-2.79-3.37-3.88-4.68-12.22-14.65-27.77-26.11-45.17-33.82 10.39-2.05 20.18-3.31 30.79-3.18 9.47 0.11 18.88 0.07 27.79-3.56 1.76-0.72 0.99-3.62-0.8-2.89-15.7 6.4-33.31 1.84-49.69 4.92-9.48 1.78-18.57 3.51-28.25 3.79-8.9 0.26-17.8 0.45-26.7 0.64l-3.22 0.06c-0.25-0.06-0.49-0.05-0.71 0.01-35.28 0.69-70.65 0.67-105.8-2.71-21.02-2.02-41.89-5.32-62.43-10.25-1.88-0.45-2.68 2.44-0.8 2.89 13.11 3.15 26.35 5.61 39.67 7.51 3.82 12.52 14.59 20.28 21.94 30.58 1.24 1.74 5.22 6.7 4.64 9.16-1.2-0.07-2.39-0.12-3.59-0.19-3.71-0.22-7.49-0.38-11.32-0.55-6.54-8.05-13.08-16.1-19.62-24.16-5.69-7.01-11.05-15.2-19.29-19.41-1.72-0.88-3.24 1.71-1.51 2.59 8.46 4.32 14.05 13.23 19.89 20.42 5.52 6.79 11.03 13.58 16.55 20.37-14.88-0.71-30.15-1.86-43.72-7.18-1.8-0.7-2.58 2.2-0.8 2.89 13.12 5.14 27.65 6.05 41.74 6.88-11.46 3.5-22.27 8.7-32.19 15.54-0.99 0.68-0.92 1.89 0 2.59 10.26 7.73 20.52 15.45 30.78 23.18-2.3-0.08-4.61-0.19-6.9-0.25l-32.54-0.93c-1.93-0.05-1.93 2.95 0 3l28.6 0.81c3.81 0.11 7.79 0.45 11.77 0.61a200.248 200.248 0 0 0-34.51 24.99c-1.44 1.29 0.69 3.41 2.12 2.12 11.53-10.39 24.18-19.31 37.81-26.72 0.17-0.09 0.3-0.21 0.41-0.33 2.5-0.07 4.96-0.3 7.34-0.78 2.42-0.49 4.71-1.52 7.07-2.25-0.38 0.41-0.75 0.83-1.14 1.24-11.92 12.67-25.71 23.36-39.42 33.98-1.52 1.18 0.61 3.29 2.12 2.12 14.62-11.33 29.53-22.73 41.85-36.62 0.49-0.56 0.86-1.07 1.15-1.54 4.73-0.09 9.03 2.31 13.35 3.98a88.043 88.043 0 0 0 19.69 5.04 1774.655 1774.655 0 0 1-47.66 29.81c-1.65 1-0.14 3.59 1.51 2.59 16.95-10.23 33.73-20.74 50.33-31.53 0.16-0.1 0.29-0.23 0.4-0.37 3.53 0.3 7.05 0.37 10.57 0.23-15.58 8.71-29.7 20.11-44.12 30.54-1.55 1.12-0.05 3.72 1.51 2.59 16.27-11.77 32.15-24.76 50.19-33.75 1.74-0.21 3.48-0.46 5.22-0.77 5.39-0.95 9.87-1.45 15.24-0.01 3.86 1.03 7.6 2.21 11.57 2.77 0.58 0.08 1.16 0.14 1.74 0.21a290.525 290.525 0 0 0-49.67 32.71c-1.5 1.22 0.64 3.33 2.12 2.12 16.41-13.39 34.22-24.87 53.15-34.35 5.8 0.32 11.65 0.21 17.44 0.18-1.06 1.48-3.32 2.72-4.84 3.89-10.93 8.37-21.56 17.1-30.73 27.41-1.28 1.44 0.84 3.57 2.12 2.12 6.04-6.8 12.69-12.95 19.71-18.72 3.65-3 7.38-5.9 11.13-8.77 1.86-1.42 5.9-3.43 7.03-5.57 0.07-0.13 0.1-0.25 0.15-0.38 8.13-0.03 16.27-0.12 24.4-0.28a764.16 764.16 0 0 0-46.48 32c-1.53 1.14-0.04 3.75 1.51 2.59a756.905 756.905 0 0 1 50.34-34.45c0.13-0.08 0.23-0.18 0.33-0.29 7.36-0.18 14.72-0.41 22.08-0.69 0.42 0.38 0.84 0.76 1.26 1.15-7.56 2.49-14.14 6.63-19.99 12.15-7.64 7.22-14.39 15.73-24.82 18.92-1.84 0.56-1.06 3.46 0.8 2.89 8.7-2.66 15.15-8.7 21.42-15.02 7.62-7.68 15.26-13.92 25.89-16.83 1.07-0.29 1.48-1.72 0.66-2.51-0.32-0.31-0.65-0.61-0.98-0.92 8.23-0.34 16.46-0.77 24.69-1.24-8.36 6.56-16.66 13.63-25.87 18.84-8.31 4.71-17.26 8.17-24.03 15.15-1.35 1.39 0.77 3.51 2.12 2.12 6.96-7.17 16.35-10.46 24.79-15.46 9.64-5.72 18.32-13.36 27.21-20.16 0.26-0.2 0.47-0.47 0.6-0.77 1.02-0.06 2.05-0.11 3.07-0.18 1.92-0.12 1.93-3.12 0-3-1.64 0.1-3.29 0.19-4.93 0.29-11.49-9.44-25.95-15.74-39.7-21.38 11-5 22-9.99 33-14.99 2.74-1.24 6.9-2.27 7.18-5.89a5.41 5.41 0 0 0-0.23-1.95c4.06-0.05 8.12-0.09 12.18-0.14 1.95 0 1.95-3 0.02-2.98z m-23.94-7.2c1.27 1.37 2.52 2.77 3.72 4.2 0.75 0.89 1.98 2.03 2.99 3.22l-29.06 0.39a133.546 133.546 0 0 1-30.5-36.98c3.01-0.26 6-0.61 8.97-1.07 0.16 0.19 0.36 0.35 0.63 0.46 16.39 6.67 31.21 16.81 43.25 29.78z m-56.11-28.93c0.03 0.08 0.06 0.16 0.1 0.24a135.483 135.483 0 0 0 29.16 36.54c-6.76 0.09-13.52 0.17-20.28 0.24-1.05-1.67-2.43-3.09-4.43-4.5-4.91-3.44-7.66-8.82-11.45-13.42-5.97-7.23-13.03-13.41-20.86-18.52 9.21-0.01 18.55 0.05 27.76-0.58z m-33.4 0.62c8.8 5.16 16.7 11.62 23.33 19.38 3.14 3.67 5.54 7.9 8.64 11.58 1.34 1.58 2.71 2.45 4.46 3.55 0.92 0.58 1.66 1.24 2.3 1.94-6.72 0.07-13.44 0.12-20.16 0.16v-0.05c-0.21-2.32-3.44-4.58-4.9-6.18-3.44-3.75-6.87-7.5-10.31-11.25-5.78-6.31-11.57-12.62-17.35-18.93 3.4-0.04 6.8-0.09 10.19-0.15 1.26-0.03 2.53-0.04 3.8-0.05z m41.49 41.74c-9.16 4.15-18.32 8.31-27.47 12.46-3.35 1.52-14.42 4.08-9.89 9.35 4.64 5.41 13.43 8.53 19.7 11.5 6.24 2.95 12.41 5.96 17.78 10.24-8.23 0.23-16.5 0.46-24.76 0.51-1.25-2.9-5.55-5.54-7.61-6.96-6.56-4.54-13.86-8.24-21-11.83 5.25-6.24 10.85-12.17 16.88-17.67 3.72-3.4 8.24-6.27 11.76-9.83 7.9-0.04 15.8-0.1 23.7-0.18 0.35 0.75 0.64 1.55 0.91 2.41z m-59.38-41.49c0.07 0.16 0.16 0.31 0.29 0.46 5.42 5.91 10.83 11.82 16.25 17.72 2.58 2.81 5.16 5.62 7.73 8.43 1.29 1.41 2.58 2.81 3.87 4.22 1.08 1.17 4.09 3.41 4.51 4.92 0.33 0.21 0.52 0.42 0.6 0.62-4.87 0.02-9.74 0.03-14.61 0.04-0.27-0.41-0.61-0.83-1.01-1.27-3.12-3.36-7.63-6.05-11.28-8.81-4.29-3.24-8.61-6.42-12.98-9.55a654.72 654.72 0 0 0-24.69-16.84c10.44 0.16 20.88 0.17 31.32 0.06z m-36.78-0.17c0.11 0.14 0.24 0.27 0.41 0.39 14.88 9.57 29.4 19.69 43.48 30.41 1.91 1.45 3.83 2.89 5.7 4.39 0.59 0.44 1.16 0.9 1.72 1.37-8.8-0.01-17.6-0.06-26.4-0.16a1.12 1.12 0 0 0-0.24-0.33c-12.49-12.2-25.04-24.35-37.65-36.43 2.8 0.1 5.59 0.2 8.39 0.27 1.53 0.05 3.06 0.06 4.59 0.09z m-15.63-0.46c-0.39 0.53-0.46 1.27 0.15 1.87 12.1 11.59 24.14 23.24 36.13 34.95-9.49-0.13-18.97-0.32-28.46-0.59a2196.048 2196.048 0 0 1-43.7-38.64c11.93 1.15 23.9 1.92 35.88 2.41z m-31.76 28.4c-6.53-12.12-19.4-19.98-24.06-33.14 5.1 0.69 10.22 1.31 15.34 1.85 0.05 0.26 0.19 0.51 0.44 0.75 14.2 12.94 28.59 25.67 43.13 38.23-10.79-0.34-21.57-0.8-32.35-1.37 0.05-2.04-1.66-4.77-2.5-6.32z m-15.49 49.22c-1.09 0.03-2.19 0.02-3.29 0.02l-32.55-24.51c10.99-7.28 22.98-12.59 35.81-15.76 0.43-0.11 0.72-0.36 0.89-0.68 3.39 0.23 6.79 0.43 10.19 0.63-0.32 0.21-0.58 0.39-0.74 0.53-1.64 1.44-3.07 3.1-4.69 4.57-3.46 3.14-7.15 5.02-11.34 6.95-1.54 0.71-3.29 1.32-3.69 3.23-0.92 4.43 6.52 9.71 9.42 11.98 2.69 2.1 5.56 3.96 8.42 5.83 1.35 0.88 3.37 1.74 4.45 2.93 0.64 0.21 1.06 0.53 1.29 0.95-0.09 0.02-0.18 0.03-0.28 0.05-4.81 1.1-8.78 3.16-13.89 3.28z m17.8-3.65c-0.67-1.79-3.18-3.1-5.92-4.9-3.28-2.16-20.97-12.67-16.79-16.8 0.88-0.87 3.59-1.49 4.67-2.06 1.86-0.98 3.62-2.12 5.29-3.4 2.69-2.06 4.84-4.64 7.39-6.83 0.88-0.76 2.43-1.46 3.67-2.36 12.31 0.67 24.64 1.16 36.97 1.52-12.72 3.4-24.71 8.8-35.67 16.16-0.92 0.62-1.02 1.99 0 2.59a152.396 152.396 0 0 1 31.68 24.87c-4.83-0.76-9.6-1.91-14.24-3.48-5.63-1.92-11.12-5.17-17.05-5.31z m43.11 9.82c-2.38-0.04-4.76-0.19-7.12-0.43a154.817 154.817 0 0 0-32.8-26.8c11.17-7.16 23.3-12.34 36.24-15.41 0.8-0.19 1.26-1.12 1.05-1.88 6.9 0.18 13.8 0.31 20.7 0.41-5 2.51-10 5.03-15 7.54l-10.44 5.25c-2.93 1.47-6.12 2.6-8.18 5.24-0.57 0.73-0.63 1.85 0.3 2.36a178.742 178.742 0 0 1 30.69 21.17c-1.42 0.64-2.83 1.3-4.23 1.98-3.71 0.44-7.46 0.63-11.21 0.57z m37.7-0.15c-3.85-1.05-7.58-2.35-11.61-2.41-2.15-0.03-4.27 0.26-6.39 0.63 0.06-0.48-0.08-0.99-0.42-1.29a182.642 182.642 0 0 0-31.31-22.14c2.48-2.1 5.99-3.28 8.79-4.68 3.19-1.6 6.38-3.21 9.57-4.81 6.07-3.05 12.15-6.11 18.22-9.16 9.92 0.11 19.84 0.16 29.76 0.16-0.22 1.53-1.13 2.51-2.76 2.92-3.63 2.46-8.19 4.09-12.1 6.04-8.07 4.03-16.14 8.05-24.21 12.08-1.03 0.51-0.92 2.05 0 2.59 6.22 3.68 12.43 7.36 18.65 11.05 4.72 2.79 12.51 5.8 15.43 10.97-3.93-0.31-7.8-0.9-11.62-1.95z m15.04 2.16c-2.07-5.45-7.65-8.03-12.46-10.88-7.05-4.17-14.1-8.35-21.14-12.52 9.3-4.64 18.59-9.28 27.89-13.91 3.8-1.89 11.13-4.34 11.32-8.54 3.44 0 6.88-0.01 10.32-0.03-1.24 1-2.49 2-3.71 3.02-2.7 2.28-5.33 4.63-7.89 7.06-5.55 5.27-10.74 10.9-15.61 16.81-0.57 0.69-0.63 1.89 0.3 2.36 6.33 3.18 12.6 6.5 18.67 10.15 2.77 1.66 5.5 3.4 7.87 5.62 0.46 0.43 0.79 0.85 1 1.25-5.54-0.02-11.06-0.13-16.56-0.39z m53.75-0.35c-1.26 0.03-2.52 0.07-3.78 0.1-9.46-8.71-21.89-12.38-32.8-18.85a61.73 61.73 0 0 1-3.77-2.41c-1.12-0.77-2.21-1.6-3.25-2.48 0.2-0.58 0.62-0.92 1.26-1 1.32-1.3 4.54-2.06 6.24-2.83 1.78-0.81 3.57-1.62 5.35-2.43 8.32-3.77 16.64-7.55 24.96-11.32 0.59-0.27 0.86-1.1 0.69-1.69-0.3-1.04-0.61-1.98-0.95-2.86 2.17-0.02 4.34-0.04 6.51-0.07 4.06-0.04 8.12-0.09 12.18-0.14-11.04 6.34-19.37 17.07-31.78 20.89-1.1 0.34-1.62 2.21-0.36 2.74a138.464 138.464 0 0 1 35.51 21.84c-5.34 0.2-10.67 0.37-16.01 0.51z m35.76-37.9l-28.8 13.08c-1.32 0.6-0.69 2.31 0.36 2.74 13.28 5.41 27.73 11.33 39.38 20.12-8.77 0.5-17.54 0.92-26.31 1.27a140.57 140.57 0 0 0-35.18-22.85c12.15-5.27 20.46-16.66 32.76-21.82 0.33-0.14 0.62-0.39 0.83-0.7l29.24-0.33c0.7 4.81-8.85 6.93-12.28 8.49z" fill="#E4E4E4" p-id="18146"></path><path d="M547.42 550.29c-1.83-6.23-4.06-12.34-6.66-18.29-3.23-7.38-7.66-14.59-9.01-22.62-1.58-9.38 1.86-18.41 5.12-27.03 1.19-3.15-3.31-4.39-5.02-2.11-0.88 1.17-1.76 2.35-2.63 3.52-0.55-5.09-1.1-10.18-1.67-15.27-0.35-3.13-0.31-6.02-3.07-7.74-2.51-1.56-9.42-1.24-12.11 0.08-3.33 1.64-3.77 3.61-4.12 7.11-0.78 7.7 1.98 16.24 2.52 23.91 0.58 8.31-0.71 16.27-1.85 24.48-2.07 14.97-2.23 29.94-0.67 44.96 0.06 0.55 0.26 1.01 0.53 1.39-0.03 0.11-0.08 0.2-0.1 0.32-2.15 10.67 10.59 9.38 17.51 9.15 5.83-0.19 22.39 2.95 24.4-5.44 1.18-5-1.81-11.79-3.17-16.42z" fill="#442A15" p-id="18147"></path><path d="M538.98 462.64c1.53-1.6 5.3-2.61 7.19-4.09 6.14-4.81 9.02-12.2 14.66-17.51 11.44-10.76 21.57-20.98 29.61-34.64 0.9-1.53-1.47-2.91-2.37-1.38-4.85 8.25-10.44 15.96-17.04 22.9-5.45 5.74-12.55 10.27-17.26 16.63-3.1 4.19-5.28 8.6-9.48 11.85-2.43 1.88-6.34 2.69-8.41 4.7-3.95 3.82-2.68 12.69-2.66 17.67 0.01 1.77 3.67 3.6 3.66 1.83 0 0-1.47-14.21 2.1-17.96zM465.82 399.89c-1.31-1.18-3.26 0.76-1.94 1.94 22.56 20.21 32.75 40.36 45.56 62.31 0.89 1.53 4.89-2.39 3.66-3.66 0 0-24.72-40.39-47.28-60.59zM525.9 462.31c-3.16-8.5-0.13-9.07-1.11-18.11-0.73-6.78-0.24-13.68-1.38-20.41-2.21-13.12-7.39-25.84-10.02-38.96-5.84-29.23-8.35-59.03-16.05-87.9-0.45-1.7-3.1-0.98-2.65 0.73 7.69 28.86 10.21 58.67 16.05 87.9 2.86 14.32 9.28 28.8 10.46 43.3 1.21 14.85-2.42 19.28 2.86 33.45 0.63 1.64 1.84 0 1.84 0z" fill="#31442E" p-id="18148"></path><path d="M535.79 470.45c-1.34-20.23 1.41-42.94 11.43-60.69 0.87-1.53-1.43-3.03-2.3-1.49-10.35 18.33-13.24 41.16-11.86 62.02 0.11 1.74 2.85 1.91 2.73 0.16z" fill="#31442E" p-id="18149"></path><path d="M568.85 135.41c-9.13 11.83-18.37 22.44-30.62 31.15-9.73 6.91-19.13 14.21-28.07 22.14-8.27 7.34-12.2 15.53-16.07 25.74-3.64 9.61-7.28 22.62-8.95 32.43-0.91 5.36-0.58 10.85 0.85 16.1 2.06 7.57 4.19 15.99 8.03 21.94 2.63 4.08 7.15 3.09 11.6 2.11 17.04-3.73 27.76-18.84 36.88-32.46 10.46-15.62 14.4-35.13 17.52-53.46 1.67-9.82 1.76-19.54 2.19-29.45 0.54-12.3 3.59-23.82 9.01-34.85 0.8-1.63-1.31-2.77-2.37-1.39z" fill="#58812B" p-id="18150"></path><path d="M624.1 302.58c-2.11-2.9-4.29-3.07-7.76-3.92-7.51-1.83-14.97-3.9-22.14-6.83-12.13-4.97-23.63-10.65-36.08-14.93-9.78-3.36-19.15-7.62-29.63-5.04-12.38 3.06-24.57 8.19-36.62 12.58-8.57-1.83-4.24 10.26-0.95 13.78 8.02 8.56 21.18 10.98 32.05 13.72 16.19 4.08 32.83 7.16 49.59 5.79 17.57-1.43 34.39-7.31 50.92-13.07 0.83-0.29 1.13-1.38 0.62-2.08z" fill="#58812B" p-id="18151"></path><path d="M496.42 297.17c-1.64 0.16-6.95-5.28-8.59-5.29-0.11-0.39-0.39-0.72-0.91-0.83-2.12-0.45-4.22-0.92-6.33-1.4 2.38 0.12 4.75 4.11 6.9 2.52 0.28-0.21 1.89-3.89 1.83-5.49-0.37-9.82 1.32-19.29 2.49-29.04 0.63-5.22 0.85-10.22-0.08-15.44-2.22-12.55-7.77-25.69-13.81-36.86-5.69-10.52-13.31-19.64-23.75-25.68-13.08-7.57-28.19-12.22-42.15-17.84-0.87-0.35-1.71 0.52-1.74 1.32-1.08 29.99 5.27 61.58 21.65 87.1 7.15 11.14 16.43 20.05 27.22 27.61 4.24 2.98 10.14 8.13 16.12 10.52-27.76-6.81-54.9-16.35-83.17-20.68-27.87-4.27-55.34-8.52-81.26 5.19-1.13 0.6-0.7 2.12 0.33 2.51 28.45 10.77 57.84 13.22 88.05 13.21 15.85-0.01 31.79-0.91 47.63-0.08 9.53 0.5 18.98 3.22 28.45 4.86-13 3.68-25.85 7.96-38.69 12.14-3.74 1.22-12.49 3.59-9.08 9.48 3.54 6.12 12.53-0.9 16.14-2.85 5.7-3.09 11.52-5.96 17.44-8.59 5.87-2.61 13.73-5.93 19.07-9.58 0.55-0.38 12.06 6.32 16.25 5.91 1.73-0.15 1.75-2.89-0.01-2.72zM739.81 330.35c-6.44-4.38-23.35 1.17-30.44 2.83-14.52 3.4-29.3 7.19-43.22 12.58-22.53 8.73-42.39 23.74-60.2 39.95 1.03-2.81 1.87-5.67 2.54-8.46 1.33-5.52 5.36-20.59-2.88-22.61-7.4-1.81-16.2 9.38-18.48 15.21-3.76 9.62-2.15 21.55-0.39 31.94-3.75-5.6-6.54-11.9-10.52-17.36-4.61-6.33-10.05-11.89-16.08-16.88-0.7-0.58-1.64-0.51-2.15 0.28-6.14 9.35-0.14 24.14 5.8 32.2 3.15 4.27 7.28 8.63 12.59 10.02 4.05 1.06 8.03 0.08 11.95-1.16 0.17 0.04 0.33 0.04 0.5 0.01 0.02 0.02 0.03 0.04 0.05 0.06 0.93 1 2.27 0.08 2.3-0.99 0.26-0.08 0.52-0.17 0.78-0.25 13.94 0.62 28 1.11 41.83-1.2 10.93-1.83 24.1-5.06 31-14.47 0.71-0.97-0.47-2.36-1.55-2.02-8.13 2.62-18.78-0.73-27.25-0.8-7.3-0.05-14.6 0.54-21.8 1.76-4.13 0.7-8.27 1.68-12.11 3.2 0.48-0.85 0.95-1.7 1.38-2.58 0.16-0.06 0.31-0.15 0.46-0.28 0.63-0.59 1.27-1.18 1.91-1.77 0.29 0.29 0.71 0.45 1.23 0.27 22.4-7.36 46.11-6.09 67.57-16.88 22.74-11.44 44.35-25.71 65.2-40.24 0.85-0.6 0.87-1.76-0.02-2.36z" fill="#58812B" p-id="18152"></path><path d="M573.53 383.35c-2.67-2.99-11.95 0.76-14.46 2.62-4.41 3.26-7.25 9.03-9.88 14.25-0.43-10.42-4.1-20.32-7.15-30.22-0.25-0.8-1.25-1.33-2.02-0.82-6.29 4.23-5.87 11.07-4.85 18 0.5 3.39 1.14 6.75 2.6 9.87 1.51 3.22 3.95 5.4 6.26 7.9-5.41-2.25-10.53-5.43-16.38-6.25-3.74-0.53-10.74-0.26-12.77 3.86-4 8.14 25.92 5.84 29.71 5.81 0.16 0 0.3-0.05 0.43-0.09 0.4 0.15 0.81 0.29 1.21 0.42 0 0.03-0.01 0.06 0 0.1 0.74 4.34 2.32 7.96 6.93 9.03 2.21 0.51 4.61 0.36 6.85 0.25 1.62-0.07 4.6 0.27 5.91-1.04 2.63-2.63-2.31-6.1-4.1-7.37-2.9-2.05-6.17-3.35-9.59-3.99 5.84-3.03 11.94-6.18 16.62-10.73 2.19-2.13 7.5-8.43 4.68-11.6zM489.44 316.36c-9.53-10.12-18.52 15.53-20.97 21.21-4.39 10.17-7.41 20.77-9.15 31.59a41.123 41.123 0 0 0-5.33-9.43c-7.16-9.47-17.44-15.8-27.93-20.96-13.92-6.85-28.09-12.89-41.6-20.57-14.69-8.35-28.86-17.58-43.03-26.8-0.98-0.64-2.4 0.43-2.02 1.55 3.59 10.46 8.11 19.77 16.29 27.42 9.89 9.24 21.6 16.54 33.22 23.35 19.62 11.51 40.31 22.07 56.78 37.71-2.35-0.81-4.86-1.52-7.41-2.35-15.05-4.85-29.76-10.71-44.33-16.84-25.26-10.63-51.56-25.49-79.7-25.53-1.45 0-1.75 1.8-0.69 2.56 10.31 7.38 23.06 10.64 33.93 17.22 10.67 6.45 20.8 13.75 32.32 18.69 19.66 8.43 40.68 15.6 61.84 20.48-22.11-2.06-43.7 6.47-63.38 17.08-1.21 0.65-0.65 2.57 0.69 2.56 15.18-0.16 31.09 0.91 46.14-1.37 10.15-1.54 19.44-5.56 28.42-10.25-2.5 11.16-1.53 22.43 1.58 33.55 2.37 8.49 5.2 22.39 14.55 25.77 0.89 0.32 1.69-0.5 1.74-1.32 0.53-9.75-3.84-19.22-6.12-28.58-2.33-9.56-4.08-19.22-5.4-28.95 5.62-0.14 9.05-4.74 12.22-9.35 5.71-8.29 10.31-17.38 13.86-26.79 4.63-12.27 14.37-40.09 3.48-51.65z" fill="#58812B" p-id="18153"></path></svg>