<?xml version="1.0" standalone="no"?><!DOCTYPE svg PUBLIC "-//W3C//DTD SVG 1.1//EN" "http://www.w3.org/Graphics/SVG/1.1/DTD/svg11.dtd"><svg t="1597148148543" class="icon" viewBox="0 0 1024 1024" version="1.1" xmlns="http://www.w3.org/2000/svg" p-id="15941" xmlns:xlink="http://www.w3.org/1999/xlink" width="200" height="200"><defs><style type="text/css"></style></defs><path d="M652.91 495.93c-0.02-0.02-0.02-0.04-0.02-0.07-0.39-0.89-0.76-1.74-1.15-2.57-4.42-5.86-95.69-3.35-127.23-3.35-68.56 0-123.38-6.29-126.14 5.62-0.09 0.3-0.13 0.61-0.13 0.91 0 12.02 57.02 15.24 127.36 15.24s127.36-3.22 127.36-15.24c0-0.17-0.02-0.36-0.05-0.54z" fill="#868280" p-id="15942"></path><path d="M652.89 495.87c-0.39-0.89-0.76-1.74-1.15-2.57 0.63 0.87 1.04 1.74 1.15 2.57z" fill="#868280" p-id="15943"></path><path d="M659.25 568.04c-0.04 0.85-0.11 1.7-0.17 2.57v0.02c-0.39 5.88-0.91 12.08-1.59 18.68-1.5 15.04-3.72 31.92-6.71 50.86-2.68 16.98-7.16 33.38-13.19 48.59-7.27 18.46-16.81 35.25-28.08 49.38-22.38 28.02-51.62 45.72-83.91 45.72-39.95 0-69.73-21.42-91.35-54.1-8.93-13.48-16.44-28.87-22.71-45.48-5.31-14-9.71-28.85-13.3-44.11-4.44-18.85-7.71-35.55-9.93-50.31-0.44-2.83-0.83-5.57-1.18-8.25v-0.02c-0.63-4.88-1.15-9.54-1.55-13.98-3.44-38.25 1.94-60.18 12.78-72.04-0.09 0.3-0.13 0.61-0.13 0.91 0 12.02 57.02 15.24 127.36 15.24s127.36-3.22 127.36-15.24c0-0.17-0.02-0.37-0.04-0.54 0.33 0.81 0.68 1.7 1 2.68 0.13 0.39 0.28 0.78 0.41 1.2 0.81 2.26 1.5 4.72 2.11 7.36 0.11 0.48 0.24 0.96 0.35 1.44 0.02 0.13 0.07 0.26 0.09 0.39 3.01 13.98 3.97 33.17 2.38 59.03z" fill="#F3F3F3" p-id="15944"></path><path d="M411.29 555.26l-13.06 23.95 10.89 23.95L420 574.85zM465.72 559.61l-10.88 21.78 13.06 28.3 8.71-30.48zM535.39 555.26l-10.88 26.13 10.88 30.48 13.06-30.48zM594.17 548.73l-8.7 32.66 10.88 21.77 15.24-21.77zM644.25 561.79l-4.36 15.24 6.54 13.06 6.53-15.24z" fill="#0C090C" p-id="15945"></path><path d="M656.88 509c-0.02-0.13-0.07-0.26-0.09-0.39-0.11-0.48-0.24-0.96-0.35-1.44-0.7-2.76-1.42-5.23-2.11-7.36-0.13-0.41-0.28-0.81-0.41-1.2-0.33-0.98-0.67-1.87-1-2.68 0.02 0.17 0.04 0.37 0.04 0.54 0 12.02-57.02 15.24-127.36 15.24s-127.36-3.22-127.36-15.24c0-0.3 0.04-0.61 0.13-0.91-10.84 11.87-16.22 33.79-12.78 72.04 0.39 4.44 0.91 9.1 1.55 13.98l19.81-50.27 28.02 46.7-23.67 51.27-22.99-39.43c2.22 14.76 5.49 31.46 9.93 50.31 3.59 15.26 7.99 30.11 13.3 44.11 6.27 16.61 13.78 32 22.71 45.48 48.92 3.81 118.57 8.38 118.57 8.38h56.69c11.28-14.13 20.81-30.92 28.08-49.38 6.03-15.22 10.52-31.61 13.19-48.59 2.98-18.94 5.2-35.81 6.71-50.86l-8.88 39.97-22.21-50.44 20.03-54.06 12.65 45.83c0.07-0.87 0.13-1.72 0.17-2.57 1.59-25.85 0.63-45.04-2.37-59.03zM463.55 644.52l-22.51-61.9 24.69-53.49 24.75 56.13-26.93 59.26z m69.66 0l-28.37-55.06 30.55-64.68 27.85 53.69-30.03 66.05z m65.32-4.35l-30.02-62.07 25.67-53.32 28.52 54.99-24.17 60.4z" fill="#0C090C" p-id="15946"></path><path d="M637.59 688.76c-7.27 18.46-16.81 35.25-28.08 49.38-22.38 28.02-51.62 45.72-83.91 45.72-39.95 0-69.73-21.42-91.35-54.1-8.93-13.48-16.44-28.87-22.71-45.48l19.35-41.93 26.13 71.85 32.66-71.85 37.01 71.85 32.66-71.85L592 709.84l26.13-65.31 19.46 44.23z" fill="#F3F3F3" p-id="15947"></path><path d="M700.64 383.12c-4.7 2.59-9.29 5.56-14.47 7.2-12.39 3.93-25.71 3.25-37.31 9.6-10.06 5.51-21.35 15.17-33.65 13.01 8.91-10.52 24.39-14.56 35.77-21.82 13.28-8.47 24.78-19.23 37.59-28.24 9.34-6.57 14.6-13.73 16.57-25.17 1.25-7.26-13.08 3.66-15.46 5.11-9.2 5.58-18.02 11.97-26.73 18.27a597.331 597.331 0 0 0-25.69 19.66c-4.19 3.39-8.34 6.84-12.44 10.34-3.63 3.09-7.69 8.06-11.93 9.97 0.64-8.04 7.65-17.19 12.27-23.6 5.45-7.55 11.53-14.63 16.91-22.23 17.11-23.97 34.48-51.84 49.04-77.59 4.14-7.33-14.21 3.57-20.74 10.1-24.62 24.62-46.35 55.58-61.55 86.88-2.13-13.32 2.04-26.91 8.01-39.01 4.22-8.55 9.35-16.59 14.05-24.88 2.13-3.75 4.39-7.55 6.4-11.31 0.67-1.25 4.25-7.62 0.06-5.73-11.15 5.01-21.24 10.56-29.22 20.04-8.13 10.89-16.25 27.5-16.47 41.34-0.11 7.08 2.12 13.96 3.54 20.9 2.84 13.86 2.43 28.36-1.17 42.04-15.31-24.62-23.77-54.44-18.61-82.97 3.55-19.62 15.13-40.69 5.72-60.2-5.11-10.59-5.47-1.92-7.03 4.67-1.28 5.39-3.53 10.72-5.21 16-4.49 14.12-9.75 28.14-10.59 43.03-0.83 14.74 1.74 28.81 5.38 43.01 5.75 19.56 15.29 37.8 26.08 55.1 2.98 4.79 6.19 9.97 5.72 15.59-0.36 4.28-2.81 6.22-5.12 9.84-6.35 9.96-14.35 24.84-13.43 37.23 0.62 8.31 12.34 8.77 13.05 0.32 1.61-19.19 20.45-32.21 18.26-52.31 7.61 0.57 15.76 0.21 23.45-0.73 8.15-1 16.19-3.1 23.6-6.68 16.43-7.93 28.05-23.02 37.41-38.21 0.14-0.06 0.29-0.1 0.43-0.16 9.85-4.38 17.86-11.54 24.46-19.96 3.9-4.97-7.31-2.64-9.27-1.98-2.65 0.89-5.19 2.16-7.68 3.53z m-51.5 45.5c-12.44 6.34-26.5 6.48-40.19 5.29 8.38-3.09 16.6-6.61 24.56-10.7 10.21-5.25 20.01-12.96 31.22-15.94 3.26-0.87 6.5-1.32 9.73-1.72-6.81 9.35-14.92 17.77-25.32 23.07z" fill="#95B2BA" p-id="15948"></path><path d="M618.49 219.73c-1.4-3.61-5.39 9.77-5.66 11.4-1.32 7.89-1.57 15.89-3.2 23.79a175.9 175.9 0 0 1-16 45.11c-7.99 15.45-18.21 29.65-29.18 43.14-13.84 17.02-27.18 36.36-45.12 49.31-3.76-8.39-1.2-18.16 1.95-26.79 18.19-49.75 61.49-95.7 49.31-152.22-0.56-2.6-1.17-5.2-1.76-7.79-0.71 24.98-9.14 49.14-19.72 71.78-5.15 11.01-10.82 21.76-16.47 32.51-5.56 10.59-10.19 23.92-16.99 33.33 3.68-29.97 9.16-59.84 13.75-89.69 5-32.51 7.36-67.02-7.08-98.34-2.32-5.03-2.18-8.71-4.46 2.59-12.25 60.71-12.83 123.94-16.44 185.72-9.27-20.61-13.7-41.03-14.71-63.61-0.55-12.37-0.36-24.75-0.29-37.13 0.02-4 1.47-34.55-3.17-33.6-1.54 0.32-2.53 1.79-3.28 3.17-6.76 12.37-8.2 26.91-8.39 41-0.35 25.38 1.94 53.18 10.25 77.34 7.75 22.54 18.97 43.72 24.77 66.9 4.06 16.27 7.22 32.8 8.56 49.53 1.35 16.77-0.75 33.57 4.36 49.89 2.5 8 15.12 4.58 12.6-3.47-4.82-15.41-3.22-31.1-3.69-46.99-0.39-12.9-2.33-25.63-5.55-38.09 16.37-6.13 28.85-17.82 39.81-31.38 12.63-15.63 27.59-31.19 36.45-49.35 16.98-34.82 34.42-69.17 19.35-108.06z" fill="#86AEB7" p-id="15949"></path><path d="M569.16 220.23c0.01-0.63-0.03-0.6 0 0z" fill="#86AEB7" p-id="15950"></path><path d="M480.96 309.85c-3.3 22.88-6.18 28.63-9.97 51.43-2.22 13.35-7.46 21.59-17.93 30.17-6.5 5.33-15.27 13.01-23.86 16.01a61.78 61.78 0 0 0-3.48-9.31c5.91-4.91 10.51-10.74 15.19-16.99 7.05-9.4 15.46-17.89 21.84-27.77 11.45-17.74 13.36-39.28 12.56-59.87-0.22-5.59-8.49 10.82-9.59 16.32-2.18 10.89-4.35 17.42-13.06 37.01-3.76 8.45-9.01 16.53-14.69 23.8-5.27 6.75-9.87 13.91-16.25 19.56-0.05-0.81-0.11-1.63-0.16-2.44 1.84-6.57 6.4-12.98 8.98-18.73 2.27-5.04 4.32-10.18 6.14-15.4 1.4-4.03 2.64-8.11 3.74-12.22 0.46-0.47 0.84-1.07 1.06-1.84 1.47-5 2.34-10.42 2.8-15.98 0.58-3.52 1.07-7.05 1.46-10.6 1.45-13.17 2.45-27.69-1.82-40.45-3.79-11.33-5.54-10.25-13.05-19.33-1.78-2.16-11.44-11.78-12.7-9.5-5.49 9.97 9 26.95 12.55 35.89 4.64 11.68 6.37 27.54 5.15 41.83-0.54 3.18-1.15 6.34-1.84 9.45-2.87 13-7.16 25.68-12.89 37.69 0.19-23.9 2.07-47.92-2.94-71.4-3.24-15.19-9.37-17.56-11.29-33.07-0.87-7.05-13.06-34.83-15.24-37.01-6.73-6.73-3.3 20.79-2.18 26.13 3.54 16.78 3.18 23.26 3.29 40.24 0.1 15.33 4.19 28.13 9.33 42.42 3.43 9.55 6.05 19.28 7.99 29.17-27.32-36.72-39.16-83.36-32.81-128.64 0.64-3.54 1.26-7.06 1.81-10.56 0.85-5.42-5.89 8.73-7.03 14.3-0.81 3.96-14.02 51.16-3.15 78.64 9.26 23.41 21.49 51.18 43.47 65.19 0.08 0.05 0.16 0.08 0.24 0.12 0.01 0.19 0.02 0.37 0.02 0.56-5.55-2.38-11.33-3.75-17.14-5.75-12.07-4.16-15.55-12.7-21.28-23.38-5.86-10.92-4.51-22.89-10.25-33.83-2.81-5.36-12.56-24.31-11.83-19.84 3.46 21.3 0.8 43.93 9.46 64.19 3.29 7.71 8.42 12.16 15.61 16.19 10.51 5.89 25.51 9.14 34.89 16.77 0.05 0.9 0.31 1.85 0.83 2.81 6.5 12 6.72 25.29 7.66 38.5-9.72-1.26-18.95-3.05-25.4-11.46-6.74-8.78-4.1-12.09-10.08-21.06-4.35-6.53-9.62-12.86-8.67-7.37 2.29 13.28 5.07 27.17 14.78 37.21 8.23 8.51 19.09 10.13 30.2 11.5 0.57 4.66 1.42 9.28 2.89 13.77 2.6 7.97 7.78 13.56 13.67 19.28 8.63 8.38 16.77 17.11 24.41 26.4 5.35 6.5 14.54-2.79 9.24-9.24-6.78-8.24-13.91-16.15-21.53-23.62-8.93-8.76-14.04-15.54-15.63-28.27-1.34-10.68-1.57-21.26-3.39-31.53 8.3-2.84 16.38-9.46 23.02-14.36 8.52-6.3 17.58-14.11 21.86-24.09 4.81-11.19 5.03-25.01 6.74-36.91 2.27-15.74 4.54-31.49 6.8-47.23 0.86-5.53-7.75 10.96-8.55 16.5z" fill="#95B2BA" p-id="15951"></path></svg>