<?xml version="1.0" standalone="no"?><!DOCTYPE svg PUBLIC "-//W3C//DTD SVG 1.1//EN" "http://www.w3.org/Graphics/SVG/1.1/DTD/svg11.dtd"><svg t="1597148163687" class="icon" viewBox="0 0 1024 1024" version="1.1" xmlns="http://www.w3.org/2000/svg" p-id="16627" xmlns:xlink="http://www.w3.org/1999/xlink" width="200" height="200"><defs><style type="text/css"></style></defs><path d="M701.96 497.47c0 44.11-3.26 81.44-9.06 113.06-1.45 7.9-3.06 15.44-4.81 22.65-3.16 12.95-6.81 24.79-10.87 35.6l-1.01 2.69C641.2 761.91 576.75 779.2 522.67 779.2c0 0-89.09 15.6-141.67-86.57-0.24-0.46-0.48-0.91-0.7-1.37-0.93-1.85-1.87-3.71-2.76-5.65v-0.02l-0.35-0.71c-4.99-10.63-9.6-22.45-13.72-35.58v-0.02c-0.31-0.99-0.62-1.99-0.93-3.02-0.35-1.13-0.68-2.27-1.02-3.44a363.98 363.98 0 0 1-5.98-23.56c-7.39-33.29-11.85-73.43-12.15-121.78 0 15.15 80.27 36.59 179.28 36.59s179.29-21.46 179.29-36.6z" fill="#DCD9CD" p-id="16628"></path><path d="M652.53 651.63c-8.31-4.52-19.04 6.6-24.57 11.62-6.8 6.16-11.09 16.04-21.48 8.07-5.2-4.01-7.17-10.9-11.96-15.07-7.76-6.77-16.43 2.84-22.06 7.77-2.73 2.41-5.47 4.81-8.2 7.21-5.47 4.79-7.37 9.49-15.37 4.88-6.33-3.64-11.84-10.57-17.51-15.17-7.15-5.82-15.22-10.46-24.53-7.12-4.79 1.74-8.76 5.23-12.22 8.87-4.28 4.54-8.85 14.16-15.59 14.89-6.62 0.73-15.26-4.21-20.43-7.74-7.04-4.83-12.28-11.23-16.1-18.81-0.35-0.71-1.23-0.77-1.87-0.49-6.75 2.98-13.28 6.37-19.46 10.37-5.27 3.42-10.01 8.56-15.33 11.67-2.51 3.33-5.93 3.73-10.3 1.24-0.88-0.75-1.74-1.52-2.62-2.29-3.71-2.45-7.06-6.22-10.41-9.17-6.09-5.36-12.17-10.7-18.24-16.06-0.57-0.49-1.24-0.42-1.74-0.07 0.31 1.02 0.62 2.03 0.93 3.02v0.02c5.69 4.99 11.4 10.01 17.1 15.04 4.92 4.34 11.3 12.86 17.87 14.53 2.4 0.62 3.7 0.04 5.67-1.06 3-1.65 5.8-5.18 8.49-7.32 4.01-3.2 8.23-6.16 12.6-8.85 3.15-1.94 6.37-3.71 9.66-5.38 4.52-2.25 5.03-2.56 7.85 0.95 3.62 4.54 6.6 8.89 11.21 12.6 6.44 5.2 19.5 13.03 28.25 10.1 4.92-1.65 7.87-7.57 10.94-11.31 5.95-7.19 13.72-15.02 24.06-12.81 8.56 1.83 15.79 10.13 22.15 15.68 3.38 2.93 9.29 10.78 14.29 10.9 2.89 0.07 5.12-2.71 7.1-4.41 3.68-3.16 7.3-6.4 10.94-9.59 3.15-2.76 8.69-9.88 12.68-10.48 3.93-0.59 10.19 4.12 12.6 6.46 0.64 0.62 1.26 1.72 1.81 2.41 1.77 2.29 3.71 4.46 5.78 6.49 2.4 2.32 6.37 6.75 10.24 6.11 5.4-0.9 10.26-9.66 14.03-13.17 3.51-3.27 7.23-6.33 11.18-9.04 3.75-2.56 3.26-2.21 8.62-1.17 6.66 1.3 4.5 0.82 7.7 5.07 4.88 6.49 12.22 9.99 19.9 10.41l1.01-2.69c-6.4-0.09-12.59-2.52-17.14-7.46-2.63-2.83-3.96-7.69-7.53-9.65z" fill="#1D1D1D" p-id="16629"></path><path d="M412.27 683.19v3.02c0 0.88 1.37 0.88 1.37 0v-4.65c0-0.14-0.04-0.26-0.11-0.35 0.05-0.6 0.06-1.19 0.01-1.8-0.07-0.87-1.44-0.88-1.37 0a9.47 9.47 0 0 1-0.22 3.05c-0.07 0.33 0.09 0.59 0.32 0.73zM417.18 684.95c0.4-4.29 0.59-8.58 0.59-12.88 0-0.88-1.37-0.88-1.37 0 0 4.3-0.19 8.59-0.59 12.88-0.09 0.88 1.28 0.88 1.37 0zM423.06 685.36c0.74-6.23-0.65-12.3-1.28-18.48-0.09-0.87-1.46-0.88-1.37 0 0.62 6.18 2.01 12.25 1.28 18.48-0.11 0.87 1.27 0.86 1.37 0zM427.33 663.49c-0.58 7.69-0.76 15.38-0.53 23.08 0.03 0.88 1.4 0.88 1.37 0-0.23-7.71-0.05-15.39 0.53-23.08 0.07-0.89-1.3-0.88-1.37 0zM462 691.25h-56.91c-0.88 0-0.88 1.37 0 1.37H462c0.88 0 0.88-1.37 0-1.37zM456.27 698.79c-14.32-0.09-28.63-0.07-42.95 0.06-0.88 0.01-0.88 1.38 0 1.37 14.32-0.13 28.64-0.15 42.95-0.06 0.88 0.01 0.88-1.36 0-1.37zM447.32 705.57c-6.21 0-12.43-0.01-18.64-0.01-4.04 0-8.75-0.87-12.54 0.77-0.81 0.35-0.11 1.53 0.69 1.18 4.1-1.77 10.99-0.58 15.34-0.58 5.05 0 10.1 0 15.15 0.01 0.88 0.01 0.88-1.37 0-1.37zM439.09 712.15l-19.69 0.33c-0.88 0.01-0.88 1.39 0 1.37l19.69-0.33c0.88-0.01 0.88-1.38 0-1.37zM438.01 719.5c0.88 0.03 0.88-1.35 0-1.37-4.42-0.13-8.84-0.09-13.25 0.11-0.88 0.04-0.88 1.41 0 1.37 4.42-0.2 8.83-0.24 13.25-0.11zM551.12 690.18h-67.29c-0.88 0-0.88 1.37 0 1.37h67.29c0.88 0 0.88-1.37 0-1.37zM544.01 694.88c-18.4-2.08-36.42 3.71-54.83 2.66-0.88-0.05-0.88 1.32 0 1.37 18.41 1.05 36.42-4.74 54.83-2.66 0.88 0.1 0.87-1.27 0-1.37zM538.46 706.23c-14.82-2.63-29.69-2.36-44.67-1.84-0.88 0.03-0.89 1.4 0 1.37 14.86-0.51 29.6-0.82 44.31 1.79 0.86 0.15 1.23-1.17 0.36-1.32zM530.72 712.01h-32.21c-0.88 0-0.88 1.37 0 1.37h32.21c0.88 0 0.88-1.37 0-1.37zM524.63 725.89c0.88-0.04 0.88-1.41 0-1.37-4.07 0.16-8.12 0.07-12.17-0.27-0.88-0.07-0.88 1.3 0 1.37 4.05 0.34 8.1 0.43 12.17 0.27zM609.81 688.19c0.88 0.07 0.88-1.3 0-1.37-15.5-1.19-30.4 3.97-45.86 3.76-0.88-0.01-0.88 1.36 0 1.37 15.45 0.21 30.38-4.95 45.86-3.76zM603.37 696.62h-27.92c-0.88 0-0.88 1.37 0 1.37h27.92c0.88 0 0.89-1.37 0-1.37zM599.79 701.99h-21.12c-0.88 0-0.88 1.37 0 1.37h21.12c0.89 0 0.89-1.37 0-1.37zM596.93 708.07H584.4c-0.88 0-0.88 1.37 0 1.37h12.53c0.88 0.01 0.88-1.37 0-1.37zM594.07 713.8c-2.03-0.13-4.05-0.27-6.08-0.4-0.88-0.06-0.88 1.31 0 1.37 2.03 0.13 4.05 0.27 6.08 0.4 0.88 0.06 0.88-1.31 0-1.37zM594.79 720.89c-2.98-0.34-5.96-0.43-8.95-0.26-0.88 0.05-0.88 1.42 0 1.37 3-0.17 5.97-0.08 8.95 0.26 0.88 0.1 0.87-1.27 0-1.37zM592.45 727.41c-0.39 0.08-0.62-0.04-0.91-0.26-0.7-0.54-1.39 0.65-0.69 1.18 0.59 0.45 1.25 0.55 1.96 0.4 0.87-0.17 0.5-1.49-0.36-1.32zM663.66 677.53a242.723 242.723 0 0 1-34.15 3.12c-0.88 0.02-0.88 1.39 0 1.37 11.59-0.25 23.08-1.31 34.52-3.17 0.86-0.13 0.49-1.46-0.37-1.32zM659.56 686.63c-8.8-0.45-17.4 0.39-25.94 2.53-0.86 0.21-0.49 1.54 0.37 1.32 8.42-2.1 16.92-2.92 25.58-2.48 0.88 0.04 0.87-1.33-0.01-1.37zM656.7 695.58c-5.97-0.15-11.94-0.1-17.9 0.15-0.88 0.04-0.88 1.41 0 1.37 5.97-0.25 11.93-0.3 17.9-0.15 0.89 0.03 0.89-1.35 0-1.37zM652.05 703.78h-12.17c-0.88 0-0.88 1.37 0 1.37h12.17c0.88 0 0.88-1.37 0-1.37zM649.9 708.43c-2.15 0.14-4.29 0.28-6.44 0.43-0.88 0.06-0.88 1.43 0 1.37 2.15-0.14 4.29-0.28 6.44-0.43 0.88-0.05 0.89-1.43 0-1.37zM644.34 714.84c1.36 0.38 2.73 0.49 4.13 0.31 0.86-0.11 0.87-1.49 0-1.37-1.29 0.17-2.52 0.09-3.77-0.26-0.85-0.24-1.21 1.08-0.36 1.32zM648.47 719.17h-3.94c-0.88 0-0.88 1.37 0 1.37h3.94c0.88 0 0.88-1.37 0-1.37zM645.97 722.39c-0.88 0-0.88 1.37 0 1.37s0.88-1.37 0-1.37zM430.86 724.18h-3.94c-0.88 0-0.88 1.37 0 1.37h3.94c0.88 0 0.88-1.37 0-1.37zM429.23 727.88c-0.86-0.16-1.23 1.16-0.37 1.32 1.2 0.22 2.39 0.44 3.59 0.67 0.86 0.16 1.23-1.16 0.36-1.32-1.19-0.22-2.38-0.45-3.58-0.67zM383.96 685.49c0.88 0.09 0.88-1.28 0-1.37-2.1-0.16-4.19-0.07-6.27 0.26-0.31 0.05-0.46 0.26-0.48 0.49l0.35 0.71v0.02c0.13 0.07 0.29 0.13 0.49 0.09 1.96-0.31 3.93-0.36 5.91-0.2zM384.69 691.25h-4.37c0.22 0.46 0.46 0.91 0.7 1.37h3.68c0.87 0.01 0.87-1.37-0.01-1.37zM389.35 696.88l-4.68-0.51c-0.88-0.1-0.87 1.28 0 1.37l4.68 0.51c0.87 0.1 0.87-1.28 0-1.37zM391.09 702.13c-0.85-0.46-1.69-0.92-2.53-1.38-0.78-0.42-1.47 0.76-0.69 1.18 0.85 0.46 1.69 0.92 2.53 1.38 0.77 0.43 1.47-0.76 0.69-1.18zM394.69 708.17c-1.17-0.7-2.41-1.2-3.74-1.5-0.86-0.19-1.23 1.13-0.37 1.32 1.22 0.27 2.34 0.72 3.42 1.36 0.76 0.46 1.45-0.73 0.69-1.18zM431.99 687.5c0.23 0.85 1.55 0.49 1.32-0.36-2.23-8.25 0.71-16.57-0.14-24.93-0.09-0.87-1.46-0.88-1.37 0 0.86 8.48-2.07 16.92 0.19 25.29zM437.72 659.01c-0.46 9.81 2.28 19.78 0.56 29.49-0.15 0.86 1.17 1.23 1.32 0.36 1.74-9.85-0.98-19.91-0.51-29.85 0.05-0.88-1.33-0.88-1.37 0zM445.99 664.02c0.01-0.88-1.36-0.88-1.37 0-0.1 7.88-2.06 18.04 1.42 25.39 0.38 0.8 1.56 0.1 1.18-0.69-1.89-3.98-1.44-8.42-1.38-12.7l0.15-12zM452.36 689.79c-0.32-5.6-0.63-11.21-0.95-16.81-0.05-0.88-1.42-0.88-1.37 0 0.32 5.6 0.63 11.21 0.95 16.81 0.05 0.87 1.42 0.88 1.37 0zM458.15 688.15c-0.64-3.49-0.92-6.98-0.87-10.53 0.01-0.88-1.36-0.88-1.37 0-0.05 3.67 0.26 7.29 0.92 10.89 0.16 0.87 1.48 0.5 1.32-0.36zM459.91 681.2c-0.17 2.11-0.09 4.19 0.2 6.29 0.12 0.87 1.44 0.5 1.32-0.36-0.27-1.97-0.3-3.94-0.15-5.92 0.07-0.89-1.3-0.88-1.37-0.01zM463.21 684.58c0.3 1.06 0.39 2.14 0.24 3.24-0.12 0.86 1.2 1.24 1.32 0.36 0.19-1.35 0.13-2.65-0.24-3.97-0.23-0.85-1.56-0.49-1.32 0.37zM407.64 678.7c-0.22 3.09 0.05 6.11 0.79 9.11 0.21 0.86 1.53 0.49 1.32-0.36-0.71-2.88-0.95-5.78-0.74-8.75 0.07-0.88-1.31-0.88-1.37 0zM405.42 687.1l-0.84-4.99c-0.15-0.87-1.47-0.5-1.32 0.36l0.84 4.99c0.14 0.87 1.46 0.5 1.32-0.36zM483.8 687.28v-3.58c0-0.88-1.37-0.88-1.37 0v3.58c0 0.89 1.37 0.89 1.37 0zM489.2 688.36c-0.16-3.22-0.31-6.44-0.47-9.66-0.04-0.88-1.42-0.88-1.37 0 0.16 3.22 0.31 6.44 0.47 9.66 0.04 0.88 1.41 0.88 1.37 0zM493.36 687.64l0.45-13.96c0.03-0.88-1.34-0.88-1.37 0l-0.45 13.96c-0.04 0.88 1.34 0.88 1.37 0zM498.83 688v-18.97c0-0.88-1.37-0.88-1.37 0V688c0 0.88 1.37 0.89 1.37 0zM503.31 688.37c0.33-8.24 0.25-16.47-0.26-24.7-0.05-0.88-1.43-0.88-1.37 0 0.5 8.23 0.59 16.46 0.26 24.7-0.04 0.88 1.33 0.88 1.37 0zM508.01 658.98c-1.16 9.39-0.64 18.6 1.56 27.79 0.2 0.86 1.53 0.5 1.32-0.36-2.17-9.08-2.65-18.17-1.51-27.42 0.11-0.88-1.26-0.87-1.37-0.01zM513.69 659.02c-0.59 9.41-0.23 18.74 1.03 28.08 0.12 0.87 1.44 0.5 1.32-0.36-1.25-9.22-1.56-18.43-0.98-27.72 0.05-0.88-1.32-0.88-1.37 0zM523.61 687.79a94.44 94.44 0 0 1-3.74-25.55c-0.01-0.88-1.38-0.88-1.37 0 0.08 8.84 1.33 17.43 3.79 25.92 0.24 0.84 1.57 0.48 1.32-0.37zM527.54 688.25c-1.05-7.82-0.74-16-1.02-23.88-0.03-0.88-1.4-0.88-1.37 0 0.29 8 0 16.3 1.07 24.25 0.12 0.87 1.44 0.5 1.32-0.37zM534.45 686.7a90.39 90.39 0 0 1-2.08-16.95c-0.03-0.88-1.4-0.88-1.37 0 0.17 5.85 0.87 11.6 2.13 17.31 0.18 0.86 1.51 0.5 1.32-0.36zM538.78 674.78c0.08-0.88-1.29-0.87-1.37 0-0.25 2.72-0.56 5.45-0.74 8.18-0.1 1.59-0.03 2.94 1.11 4.13 0.61 0.64 1.58-0.33 0.97-0.97-1.37-1.42-0.61-4.18-0.46-5.88 0.16-1.82 0.32-3.64 0.49-5.46zM542.23 679.06c-0.16 2.52-0.1 5.02 0.17 7.53 0.1 0.87 1.47 0.88 1.37 0-0.28-2.51-0.33-5.01-0.17-7.53 0.06-0.89-1.31-0.88-1.37 0zM547.26 683.89c-0.2 1.23-0.13 2.41 0.25 3.61 0.27 0.84 1.6 0.48 1.32-0.36-0.31-0.95-0.41-1.89-0.25-2.88 0.14-0.87-1.18-1.24-1.32-0.37zM385.37 678.58v-2.15c0-0.88-1.37-0.88-1.37 0v2.15c0 0.88 1.37 0.88 1.37 0zM382.98 681.92v-12.65c0-0.88-1.37-0.88-1.37 0v12.65c0 0.88 1.37 0.88 1.37 0zM375.17 664.97v10.98c0 0.88 1.37 0.88 1.37 0v-10.98c0-0.88-1.37-0.88-1.37 0zM372.5 659.73c0.03-0.88-1.34-0.88-1.37 0-0.1 2.71-0.03 5.41 0.21 8.11 0.08 0.87 1.45 0.88 1.37 0-0.24-2.7-0.31-5.4-0.21-8.11zM369.42 656.87c0.1-0.88-1.27-0.87-1.37 0a15.6 15.6 0 0 0 0.4 5.69c0.22 0.86 1.54 0.49 1.32-0.36-0.45-1.77-0.56-3.53-0.35-5.33zM381.23 678.84l-1.68-10.22c-0.14-0.87-1.47-0.5-1.32 0.36l1.68 10.22c0.14 0.88 1.47 0.51 1.32-0.36zM388.67 682.45c-0.25-1.83-0.51-3.65-0.76-5.48-0.12-0.87-1.44-0.5-1.32 0.36 0.25 1.83 0.51 3.65 0.76 5.48 0.12 0.88 1.44 0.51 1.32-0.36zM393.96 684.54v-3.58c0-0.88-1.37-0.88-1.37 0v3.58c0 0.88 1.37 0.89 1.37 0zM467.5 686.17c0.22-0.85-1.1-1.22-1.32-0.36a8.1 8.1 0 0 0 0.2 4.87c0.3 0.82 1.62 0.47 1.32-0.36a6.77 6.77 0 0 1-0.2-4.15zM471.1 687.17c-0.03 0.48-0.03 0.95 0 1.43 0.04 0.88 1.42 0.88 1.37 0-0.03-0.48-0.03-0.95 0-1.43 0.05-0.89-1.32-0.88-1.37 0zM481.54 686.69c-0.01-0.32-0.01-0.63 0-0.95 0.04-0.88-1.33-0.88-1.37 0-0.01 0.32-0.01 0.63 0 0.95 0.04 0.88 1.41 0.88 1.37 0zM561.04 683.35c0.06 1.43 0.21 2.84 0.44 4.25 0.14 0.87 1.46 0.5 1.32-0.36-0.21-1.29-0.34-2.58-0.39-3.88-0.03-0.89-1.4-0.9-1.37-0.01zM566 685.5v-7.64c0-0.88-1.37-0.88-1.37 0v7.64c0 0.88 1.37 0.88 1.37 0zM571.04 684.06c-0.24-3.02-0.33-6.04-0.27-9.06 0.02-0.88-1.36-0.88-1.37 0a91.2 91.2 0 0 0 0.27 9.06c0.07 0.88 1.44 0.88 1.37 0zM573.28 682.38c0.36-3.81 0.71-7.63 1.07-11.44 0.08-0.88-1.29-0.87-1.37 0-0.36 3.81-0.71 7.63-1.07 11.44-0.08 0.88 1.29 0.88 1.37 0zM576.38 665.22c-0.28 5.59-0.09 11.15 0.55 16.71 0.1 0.87 1.47 0.88 1.37 0-0.64-5.56-0.83-11.12-0.55-16.71 0.04-0.89-1.33-0.88-1.37 0zM582.46 687.17c-0.03-8.43 0.07-16.86 0.29-25.29 0.02-0.88-1.35-0.88-1.37 0-0.23 8.43-0.33 16.86-0.29 25.29 0 0.88 1.37 0.88 1.37 0zM585.5 660.45c-0.43 8.06-0.25 16.07 0.55 24.1 0.09 0.87 1.46 0.88 1.37 0-0.8-8.03-0.98-16.04-0.55-24.1 0.05-0.88-1.33-0.88-1.37 0zM590.53 681.68l-0.27-18.85c-0.01-0.88-1.38-0.88-1.37 0l0.27 18.85c0.01 0.88 1.38 0.88 1.37 0zM593.27 665.21a74.09 74.09 0 0 0 1.69 18.55c0.19 0.86 1.51 0.5 1.32-0.36a73.128 73.128 0 0 1-1.64-18.19c0.03-0.88-1.34-0.88-1.37 0zM600.6 684.3v-12.17c0-0.88-1.37-0.88-1.37 0v12.17c0 0.88 1.37 0.89 1.37 0zM604.29 676.2c-0.27 2-0.11 3.96 0.46 5.9 0.25 0.85 1.57 0.49 1.32-0.36-0.53-1.82-0.66-3.65-0.41-5.53 0.12-0.88-1.25-0.88-1.37-0.01zM608.71 683.82v-3.34c0-0.88-1.37-0.88-1.37 0v3.34c0 0.89 1.37 0.89 1.37 0zM612.53 684.54v-3.1c0-0.88-1.37-0.88-1.37 0v3.1c0 0.88 1.37 0.89 1.37 0zM617.78 683.59v-2.15c0-0.88-1.37-0.88-1.37 0v2.15c0 0.88 1.37 0.88 1.37 0zM622.13 675.95c0.07 1.4-0.07 2.76-0.45 4.11-0.24 0.85 1.09 1.22 1.32 0.36 0.41-1.47 0.58-2.96 0.5-4.48-0.04-0.87-1.41-0.87-1.37 0.01zM626.01 671.41c0.2 2.39 0.39 4.78 0.59 7.17 0.07 0.87 1.45 0.88 1.37 0-0.2-2.39-0.39-4.78-0.59-7.17-0.07-0.87-1.44-0.88-1.37 0zM630.01 668.79c-0.11 2.72 0.12 5.4 0.67 8.07 0.18 0.86 1.5 0.5 1.32-0.36-0.52-2.55-0.72-5.11-0.62-7.71 0.04-0.88-1.33-0.88-1.37 0zM636.6 678.34c-0.14-4.71-0.45-9.4-0.94-14.08-0.09-0.87-1.46-0.88-1.37 0 0.49 4.68 0.8 9.37 0.94 14.08 0.02 0.88 1.39 0.88 1.37 0zM640.03 675.47c-0.1-4.69-0.19-9.39-0.29-14.08-0.02-0.88-1.39-0.88-1.37 0 0.09 4.69 0.19 9.39 0.29 14.08 0.01 0.88 1.38 0.89 1.37 0zM647.06 673.33l-1.29-15.26c-0.07-0.87-1.45-0.88-1.37 0l1.29 15.26c0.08 0.88 1.45 0.88 1.37 0zM650.8 660.92c-0.15 3.59-0.07 7.16 0.23 10.74 0.07 0.87 1.45 0.88 1.37 0-0.3-3.58-0.37-7.15-0.23-10.74 0.04-0.88-1.33-0.88-1.37 0zM657.68 673.6l-1.89-8.36c-0.2-0.86-1.52-0.5-1.32 0.36l1.89 8.36c0.19 0.87 1.51 0.51 1.32-0.36zM664.21 674.59c-0.28-1.54-0.61-3.06-1-4.58-0.22-0.86-1.54-0.49-1.32 0.36 0.38 1.52 0.71 3.04 1 4.58 0.16 0.87 1.48 0.5 1.32-0.36zM667.96 673.09c-0.02 0.4-0.02 0.79 0 1.19 0.04 0.88 1.42 0.88 1.37 0-0.02-0.4-0.02-0.79 0-1.19 0.04-0.88-1.33-0.88-1.37 0zM673.64 673.61c-0.23-0.85-1.56-0.49-1.32 0.36 0.07 0.25 0.14 0.48 0.23 0.72 0.31 0.82 1.63 0.46 1.32-0.36-0.09-0.24-0.17-0.48-0.23-0.72zM644.03 674.04c0.08-4.92-0.45-9.74-1.58-14.53-0.2-0.86-1.53-0.5-1.32 0.36a57.18 57.18 0 0 1 1.53 14.16c-0.02 0.9 1.35 0.9 1.37 0.01zM649.49 659.08c-0.35-0.81-1.53-0.11-1.18 0.69 0.95 2.19 0.67 5.44 0.83 7.78l0.51 7.44c0.06 0.88 1.43 0.88 1.37 0-0.21-3.05-0.42-6.1-0.62-9.15-0.17-2.26 0-4.66-0.91-6.76zM660.9 674.69c0.28-2.09 0.12-4.12-0.55-6.13-0.28-0.83-1.61-0.48-1.32 0.36 0.59 1.75 0.79 3.56 0.55 5.4-0.12 0.87 1.2 1.25 1.32 0.37zM660.1 681.71c-3.91-0.2-7.45 0.82-11.28 1.47-5.07 0.86-10.15 1.02-15.28 0.72-0.88-0.05-0.88 1.32 0 1.37 4.54 0.27 9.04 0.18 13.55-0.45 4.36-0.61 8.57-1.97 13.01-1.74 0.88 0.04 0.88-1.33 0-1.37zM657.87 691.52c-7.25-0.49-14.42-0.14-21.59 1.03-0.87 0.14-0.5 1.46 0.37 1.32 7.05-1.15 14.1-1.46 21.23-0.98 0.87 0.06 0.86-1.31-0.01-1.37zM652.77 700.38h-13.24c-0.88 0-0.88 1.37 0 1.37h13.24c0.88 0 0.88-1.37 0-1.37zM604.45 691.15c-10.02-0.1-20.86 0.48-30.64 2.86-0.86 0.21-0.49 1.53 0.37 1.32 9.66-2.35 20.36-2.91 30.28-2.81 0.87 0.01 0.87-1.36-0.01-1.37zM596.21 706.49c0.88 0 0.88-1.37 0-1.37h-12.35c-0.88 0-0.88 1.37 0 1.37h12.35zM594.07 710.92c-2.15 0.13-4.29 0.25-6.44 0.38-0.88 0.05-0.88 1.42 0 1.37 2.15-0.13 4.29-0.25 6.44-0.38 0.87-0.05 0.88-1.42 0-1.37zM591.74 717.79c-0.86-0.16-1.23 1.16-0.36 1.32 0.93 0.18 1.84 0.24 2.78 0.16 0.87-0.07 0.88-1.44 0-1.37-0.83 0.07-1.61 0.04-2.42-0.11z" fill="#1D1D1D" p-id="16630"></path><path d="M538.99 700.61c-15.26-3.18-32.55-2.16-47.78 0.9-0.86 0.17-0.5 1.5 0.36 1.32 14.73-2.96 32.24-3.99 47.05-0.9 0.86 0.18 1.23-1.14 0.37-1.32zM537.24 711.26c0.86 0.13 1.24-1.2 0.36-1.32-13.15-1.91-27.35-2.33-40.61-1.79-0.88 0.04-0.88 1.41 0 1.37 13.15-0.53 27.21-0.15 40.25 1.74zM529.47 717.66c0.88 0.09 0.87-1.28 0-1.37-8.15-0.88-16.28-1-24.45-0.37-0.87 0.07-0.88 1.44 0 1.37 8.18-0.63 16.3-0.51 24.45 0.37zM526.69 719.65c0.88 0 0.88-1.37 0-1.37h-4.84a0.696 0.696 0 0 0-0.64-0.24c-0.7 0.1-1.41 0.16-2.11 0.24h-0.11c-0.06 0-0.1 0.02-0.14 0.03-4.26 0.47-8.53 0.64-12.83 0.5-0.88-0.03-0.88 1.34 0 1.37 4.38 0.14 8.71-0.05 13.05-0.53h7.62zM522.93 721.36c-3.97-0.06-7.93-0.07-11.9-0.03-0.88 0.01-0.88 1.38 0 1.37 3.97-0.04 7.93-0.02 11.9 0.03 0.88 0.01 0.88-1.36 0-1.37zM523.56 727.91c-2.47-0.32-4.94-0.43-7.43-0.31-0.88 0.04-0.88 1.41 0 1.37 2.49-0.11 4.96-0.01 7.43 0.31 0.87 0.12 0.87-1.26 0-1.37zM460.58 695.49c-16.42-1.11-32.96-0.56-49.41-0.49-0.88 0-0.88 1.38 0 1.37 16.45-0.07 32.99-0.62 49.41 0.49 0.88 0.06 0.87-1.31 0-1.37zM448.16 704.06c-10.52-1.2-21.04-1.58-31.62-1.14-0.88 0.04-0.88 1.41 0 1.37 10.58-0.44 21.1-0.06 31.62 1.14 0.88 0.1 0.87-1.27 0-1.37zM419.52 710.83c6.28-0.11 12.56-0.12 18.85-0.02 1.91-0.07 3.82-0.08 5.73-0.04 0.88 0.02 0.88-1.35 0-1.37-1.91-0.04-3.82-0.03-5.72 0.04-6.28-0.1-12.57-0.09-18.85 0.02-0.89 0.02-0.89 1.39-0.01 1.37zM438.49 715.71h-12.77c-0.88 0-0.88 1.37 0 1.37h12.77c0.88 0 0.89-1.37 0-1.37zM446.4 751.48c-1.91-1.05-3.14-2.68-4.02-4.54 0.49 0.03 0.98 0.1 1.48 0.11 1.77 0.04 1.77-2.7 0-2.74-0.85-0.02-1.69-0.11-2.53-0.18-0.44-1.53-0.74-3.1-1.01-4.6-0.32-1.73-2.96-1-2.65 0.73 0.21 1.15 0.45 2.33 0.75 3.5-3.13-0.51-6.17-1.37-9.13-2.67-1.6-0.7-3 1.66-1.38 2.37 3.7 1.63 7.49 2.69 11.42 3.22 1.1 2.94 2.78 5.57 5.69 7.18 1.54 0.84 2.93-1.53 1.38-2.38zM493.02 747.07c-1.18-0.05-2.37-0.09-3.55-0.14-0.1-0.9-0.14-1.82-0.1-2.75 0.06-1.77-2.68-1.76-2.74 0-0.03 0.89 0.01 1.77 0.09 2.65-2.51-0.1-5.02-0.19-7.53-0.29-1.77-0.07-1.76 2.68 0 2.74 2.66 0.1 5.32 0.2 7.98 0.31a20.23 20.23 0 0 0 2.68 6.33c0.95 1.48 3.33 0.11 2.37-1.38-0.99-1.54-1.71-3.15-2.19-4.83l3 0.12c1.75 0.05 1.75-2.69-0.01-2.76zM544.55 753.31c-1.85 0.06-3.7 0.09-5.54 0.08-0.29-1.78-0.55-3.57-0.75-5.37-0.2-1.73-2.94-1.75-2.74 0 0.2 1.78 0.45 3.54 0.73 5.31-4.71-0.11-9.41-0.44-14.11-1.02-1.75-0.22-1.73 2.53 0 2.74 4.85 0.6 9.7 0.93 14.56 1.03 0.45 2.55 0.98 5.09 1.59 7.61 0.42 1.72 3.06 0.99 2.65-0.73-0.55-2.27-1.03-4.55-1.45-6.84 1.69 0 3.38-0.02 5.07-0.07 1.76-0.06 1.76-2.8-0.01-2.74zM577.25 751.83c0.16-3.68 0.45-7.34 0.87-11 0.2-1.75-2.54-1.74-2.74 0-0.46 3.93-0.76 7.86-0.91 11.8-1.96 0.54-3.97 0.79-6.05 0.71-1.77-0.06-1.76 2.68 0 2.74 2.03 0.07 4.03-0.15 5.97-0.62-0.01 0.54-0.03 1.08-0.04 1.62-0.02 1.77 2.72 1.77 2.74 0 0.01-0.82 0.04-1.64 0.06-2.45 0.07-0.03 0.14-0.04 0.21-0.07 1.4-0.55 1.06-2.59-0.11-2.73zM617.72 742.99c-0.87 0.26-1.75 0.51-2.62 0.73-0.44-1.69-0.82-3.39-1.11-5.12-0.29-1.74-2.94-1-2.65 0.73 0.29 1.7 0.66 3.36 1.09 5.02-1.92 0.41-3.86 0.72-5.82 0.93-1.74 0.19-1.76 2.93 0 2.74 2.21-0.24 4.4-0.59 6.56-1.05 0.43 1.4 0.89 2.79 1.42 4.16 0.63 1.63 3.28 0.92 2.65-0.73a58.86 58.86 0 0 1-1.39-4.06c0.87-0.22 1.74-0.46 2.6-0.72 1.69-0.49 0.97-3.14-0.73-2.63zM358.2 545.1c2.91 0.19 5.81 0.49 8.7 0.84-0.15 4.26 0.04 8.54 0.61 12.86 0.34 2.59 4.46 2.62 4.12 0-0.55-4.13-0.74-8.22-0.63-12.29 2.71 0.41 5.42 0.87 8.12 1.43 2.59 0.53 3.69-3.43 1.09-3.97-2.98-0.62-5.98-1.12-8.98-1.57 0.33-3.9 0.96-7.79 1.92-11.67 0.64-2.57-3.33-3.67-3.97-1.09a79.311 79.311 0 0 0-2.04 12.22c-2.97-0.36-5.95-0.66-8.95-0.86-2.64-0.19-2.63 3.93 0.01 4.1zM446.27 550.52c2.54 0.24 5.07 0.48 7.61 0.73-0.43 3.94-0.86 7.88-1.28 11.82-0.29 2.63 3.83 2.61 4.12 0 0.41-3.81 0.83-7.62 1.24-11.43l6.9 0.66c2.64 0.25 2.62-3.87 0-4.12-2.15-0.21-4.3-0.41-6.46-0.62l0.57-5.25c0.29-2.63-3.83-2.61-4.12 0-0.18 1.62-0.35 3.24-0.53 4.86-2.68-0.26-5.37-0.51-8.05-0.77-2.63-0.25-2.61 3.87 0 4.12zM525.74 556.92c4.35-0.38 8.71-0.76 13.06-1.15 0.8 2.81 1.91 5.53 3.38 8.14 1.3 2.31 4.85 0.24 3.55-2.08a33.196 33.196 0 0 1-2.77-6.43c1.41-0.12 2.81-0.25 4.21-0.37 2.62-0.23 2.64-4.35 0-4.12l-5.18 0.45c-0.38-2.24-0.54-4.54-0.46-6.9 0.09-2.65-4.03-2.65-4.12 0-0.08 2.46 0.08 4.88 0.47 7.26-4.05 0.36-8.1 0.71-12.15 1.07-2.61 0.25-2.64 4.36 0.01 4.13zM609.25 552c1.29-0.26 2.58-0.49 3.87-0.7a53.88 53.88 0 0 0 2.74 10.97c0.9 2.47 4.88 1.4 3.97-1.09-1.25-3.43-2.11-6.9-2.61-10.42 2.17-0.24 4.36-0.41 6.56-0.48 2.64-0.09 2.65-4.21 0-4.12-2.33 0.08-4.65 0.27-6.95 0.52-0.14-2.39-0.13-4.81 0.06-7.26 0.21-2.64-3.91-2.63-4.12 0s-0.22 5.22-0.05 7.8c-1.52 0.24-3.05 0.5-4.56 0.81-2.6 0.54-1.5 4.5 1.09 3.97zM670.02 541.89c3.56-1.46 7.2-2.61 10.92-3.5-0.25 5.37-0.71 10.73-1.42 16.08-0.35 2.62 3.77 2.59 4.12 0 0.75-5.64 1.22-11.28 1.46-16.94 0.51-0.09 1.01-0.2 1.52-0.29 2.61-0.41 1.5-4.38-1.09-3.97-0.09 0.01-0.18 0.04-0.28 0.05 0.04-2.01 0.06-4.02 0.04-6.03-0.03-2.65-4.15-2.65-4.12 0 0.03 2.27 0.01 4.55-0.04 6.81-4.16 0.92-8.22 2.18-12.2 3.81-2.42 1-1.36 4.99 1.09 3.98zM352.91 579.25c-1.47-4.21-1.86-8.5-1.07-12.9 0.31-1.73-2.33-2.47-2.65-0.73-0.88 4.88-0.56 9.67 1.07 14.36 0.58 1.66 3.23 0.94 2.65-0.73zM355.38 597.06l-1.68-9.98c-0.29-1.74-2.94-1-2.65 0.73l1.68 9.98c0.3 1.73 2.94 1 2.65-0.73zM357.42 608.9v-2.15c0-1.77-2.74-1.77-2.74 0v2.15c0 1.77 2.74 1.77 2.74 0zM357.16 576.4c0.94 6.65 1.88 13.3 2.81 19.95 0.24 1.74 2.89 1 2.65-0.73-0.94-6.65-1.88-13.3-2.81-19.95-0.25-1.75-2.89-1-2.65 0.73zM398.38 589.55c-0.69-5.69-0.46-11.3 0.76-16.9 0.38-1.72-2.27-2.46-2.65-0.73-1.28 5.84-1.58 11.69-0.86 17.63 0.22 1.73 2.96 1.75 2.75 0zM404.22 594.54c-1.31-9.86-0.59-19.5 2.21-29.05 0.5-1.7-2.15-2.42-2.65-0.73-2.87 9.79-3.65 19.66-2.31 29.78 0.23 1.73 2.98 1.75 2.75 0zM412.59 578.12c-0.07 1.77 2.68 1.76 2.74 0 0.29-7.65 0.2-15.29-0.28-22.93-0.11-1.75-2.85-1.77-2.74 0 0.48 7.64 0.57 15.28 0.28 22.93zM415.16 609.29l-3.48-19.35c-0.31-1.74-2.96-1-2.65 0.73l3.48 19.35c0.31 1.73 2.96 1 2.65-0.73zM424.27 573.86c0.33-2.64 0.66-5.29 0.98-7.93 0.22-1.75-2.53-1.73-2.74 0-0.33 2.64-0.65 5.29-0.98 7.93-0.22 1.75 2.53 1.73 2.74 0zM423.21 589.57c0.05-3.53 0.59-6.94 1.61-10.32 0.51-1.69-2.13-2.42-2.65-0.73-1.09 3.6-1.65 7.29-1.71 11.05-0.02 1.77 2.73 1.77 2.75 0zM424.13 599.59c-0.02 0.48-0.02 0.95 0 1.43 0.09 1.76 2.83 1.77 2.74 0-0.02-0.48-0.02-0.95 0-1.43 0.09-1.76-2.66-1.76-2.74 0zM435.35 588.13l0.87-12.16c0.13-1.76-2.62-1.75-2.74 0l-0.87 12.16c-0.13 1.77 2.62 1.76 2.74 0zM484.4 587.06c0.55-2.11 0.83-4.26 0.83-6.44 0-1.77-2.74-1.77-2.74 0 0 1.94-0.24 3.83-0.73 5.71-0.46 1.71 2.19 2.44 2.64 0.73zM492.17 589.95c1.17-8.95 2.35-17.9 3.52-26.85 0.23-1.75-2.52-1.73-2.74 0-1.17 8.95-2.35 17.9-3.52 26.85-0.24 1.75 2.51 1.73 2.74 0zM489.61 596.37v10.38c0 1.77 2.74 1.77 2.74 0v-10.38c0.01-1.76-2.74-1.77-2.74 0zM487.2 598.23a92.532 92.532 0 0 0 2.55-23.33c-0.03-1.76-2.78-1.77-2.74 0 0.14 7.65-0.67 15.16-2.45 22.6-0.42 1.72 2.23 2.45 2.64 0.73zM501.08 583.11c0.74-9.78 1.56-19.56 2.46-29.32 0.16-1.76-2.58-1.75-2.74 0-0.9 9.77-1.72 19.54-2.46 29.32-0.14 1.76 2.61 1.76 2.74 0zM498.64 595.3c-0.34 7.3-0.19 14.57 0.45 21.85 0.15 1.75 2.9 1.76 2.74 0-0.64-7.28-0.79-14.55-0.45-21.85 0.09-1.76-2.66-1.76-2.74 0zM509.78 579.2l-0.39-10.75c-0.06-1.76-2.81-1.77-2.74 0l0.39 10.75c0.06 1.76 2.8 1.77 2.74 0zM507.15 591v18.97c0 1.77 2.74 1.77 2.74 0V591c0.01-1.76-2.74-1.76-2.74 0zM516.34 587.43v-11.45c0-1.77-2.74-1.77-2.74 0v11.45c-0.01 1.76 2.74 1.76 2.74 0zM514.97 592.85c-0.8 0-1.3 0.63-1.37 1.37a8.75 8.75 0 0 0 0.4 3.59c0.55 1.67 3.2 0.96 2.65-0.73-0.31-0.95-0.4-1.86-0.3-2.86 0.07-0.73-0.69-1.37-1.38-1.37zM516.04 607.05c1.77 0 1.77-2.74 0-2.74s-1.77 2.74 0 2.74zM578.68 584.56c-0.36-9.56-0.13-19.09 0.7-28.63 0.15-1.76-2.59-1.75-2.74 0-0.83 9.53-1.06 19.06-0.7 28.63 0.06 1.76 2.8 1.77 2.74 0zM577.3 592.44v27.92c0 1.77 2.74 1.77 2.74 0v-27.92c0.01-1.77-2.74-1.77-2.74 0zM567.09 588.14c0.3-7.16 0.61-14.31 0.91-21.47 0.08-1.77-2.67-1.76-2.74 0-0.3 7.16-0.61 14.31-0.91 21.47-0.08 1.76 2.67 1.76 2.74 0zM565.79 600.37c-1.77 0-1.77 2.74 0 2.74s1.77-2.74 0-2.74zM559.42 592.44c-0.03 1.77 2.71 1.77 2.74 0 0.09-4.92-0.22-9.79-0.9-14.67-0.24-1.74-2.89-1-2.65 0.73 0.65 4.63 0.9 9.27 0.81 13.94zM574.02 610.02c-1.95-10.11-2.51-20.2-1.73-30.46 0.13-1.76-2.61-1.75-2.74 0-0.8 10.5-0.17 20.85 1.83 31.19 0.33 1.73 2.98 1 2.64-0.73zM586.49 589.57v-17.9c0-1.77-2.74-1.77-2.74 0v17.9c0 1.77 2.74 1.77 2.74 0zM586.49 602.46v-3.58c0-1.77-2.74-1.77-2.74 0v3.58c0 1.76 2.74 1.77 2.74 0zM597.23 581.7v-15.03c0-1.77-2.74-1.77-2.74 0v15.03c-0.01 1.76 2.74 1.77 2.74 0zM596.25 607.87c-1.27-5.34-1.61-10.69-1.1-16.14 0.17-1.76-2.58-1.75-2.74 0-0.54 5.7-0.13 11.3 1.2 16.87 0.41 1.72 3.05 0.99 2.64-0.73zM607.97 593.15V581.7c0-1.77-2.74-1.77-2.74 0v11.45c-0.01 1.77 2.74 1.77 2.74 0zM645.19 592.44v-19.33c0-1.77-2.74-1.77-2.74 0v19.33c0 1.76 2.74 1.76 2.74 0zM647.39 596.73c-0.05 1.77 2.7 1.77 2.74 0 0.36-14.09 0.18-28.16-0.54-42.24-0.09-1.76-2.83-1.77-2.74 0 0.72 14.08 0.9 28.15 0.54 42.24zM660.22 580.27v-28.63c0-1.77-2.74-1.77-2.74 0v28.63c0 1.76 2.74 1.76 2.74 0zM658.86 608.9c-0.29-4.77-0.58-9.54-0.88-14.31-0.11-1.75-2.85-1.77-2.74 0 0.29 4.77 0.58 9.54 0.88 14.31 0.1 1.75 2.84 1.76 2.74 0zM668.1 586.71v-12.89c0-1.77-2.74-1.77-2.74 0v12.89c-0.01 1.76 2.74 1.77 2.74 0zM675.37 575.26v7.16c0 1.77 2.74 1.77 2.74 0v-7.16c0.01-1.77-2.74-1.77-2.74 0zM668.93 556.64v52.26c0 1.77 2.74 1.77 2.74 0v-52.26c0.01-1.76-2.74-1.77-2.74 0zM640.27 594.57l-1.68-15.72c-0.18-1.74-2.93-1.76-2.74 0l1.68 15.72c0.18 1.74 2.93 1.76 2.74 0zM678.41 593.86c1.38 2.46 2.03 5.07 2 7.89-0.02 1.77 2.72 1.77 2.74 0 0.03-3.28-0.78-6.41-2.38-9.27-0.86-1.55-3.23-0.17-2.36 1.38zM648.91 607.12c0.2 1.3-0.21 2.67-1.05 3.67-1.13 1.34 0.8 3.29 1.94 1.94 1.54-1.83 2.12-3.99 1.76-6.34-0.11-0.74-1.03-1.13-1.69-0.96-0.78 0.21-1.07 0.96-0.96 1.69zM434.14 596.73v7.16c0 1.77 2.74 1.77 2.74 0v-7.16c0-1.77-2.74-1.77-2.74 0zM402.72 609.26c-0.48 1.7 2.16 2.43 2.65 0.73 0.43-1.5 1.23-2.75 2.39-3.8 1.31-1.19-0.63-3.12-1.94-1.94-1.5 1.35-2.55 3.08-3.1 5.01z" fill="#1D1D1D" p-id="16631"></path><path d="M680.68 611.82c-7.06 0.57-14.1 1.24-21.15 1.98-14.1 1.46-28.17 3.16-42.26 4.72-26.87 2.98-53.88 5.56-80.95 5.21-29.91-0.38-59.36-5.56-89.35-5.41-30.48 0.15-60.96 0.6-91.43 0.93 1.81 8.27 3.82 16.12 5.98 23.56 0.11-0.02 0.22-0.04 0.33-0.04 27.29-2.29 54.7-2.95 82.08-2.93 56.03 0.05 112.09 2.98 168.1 0.68 13.06-0.53 26.12-1.34 39.15-2.54 12.06-1.12 24.99-1.74 36.77-4.77 0.04-0.02 0.09-0.02 0.13-0.04a389.78 389.78 0 0 0 4.81-22.65c-4.12 0.26-8.36 0.99-12.21 1.3z" fill="#1D1D1D" p-id="16632"></path><path d="M522.68 479.17c-99.01 0-179.28 3.15-179.28 18.29 0 15.15 80.27 36.59 179.28 36.59s179.28-21.44 179.28-36.59c0-15.14-80.27-18.29-179.28-18.29z" fill="#1B1B1B" p-id="16633"></path><path d="M562.05 349.18c-1.98-6.1-5.1-14-12.09-15.38-6.5-1.28-14.57 1.81-20.15 4.93-7.61 4.25-13.72 10.74-18.23 18.14-2.26 3.71-3.62 7.76-5.58 11.59-2.38 4.65-5.9 6.66-9.93 7.25-2.53 0-5.04-0.07-7.52-0.21-1.86-0.29-3.74-0.69-5.6-1.14-0.12-0.03-0.22-0.03-0.33-0.05 3.68-6.41 8.49-12.24 13.51-18.32 12.2-15.18 25.41-41.92 5.4-57.45-6.33-4.91-14.83-4.67-19.87 1.79-3.21 4.11-3.28 12.72-11.35 9.18-4.13-1.81-7.39-7.69-11.67-10.03-5.17-2.83-16.2-6.19-21.3-1.36-6.15 5.83-1.94 19.72 0.79 26.03 4.88 11.27 13.37 20.57 19.24 31.32 6.69 12.26 10.01 24.76 13.27 38.13-0.16 2.29-0.24 4.57-0.27 6.85-1.16-0.7-2.34-1.37-3.5-2.06-6.91-10.56-13.33-21.55-21.49-31.02-6.67-7.75-21.63-19.17-32.56-12.86-9.19 5.3-3.69 16.91 2.83 21.51 7.5 5.29 16.53 8.95 24.58 13.38 7.53 4.15 14.97 8.46 22.37 12.85 2.55 3.67 5.15 7.3 7.87 10.86 0.17 0.22 0.35 0.39 0.55 0.54 0.57 5.27 1.51 12.53 2.79 20.46-9.3-4.76-18.52-9.69-27.63-14.82-11.4-6.43-24.02-12.62-33.83-21.32-5.01-4.44-9.89-8.75-17.04-6.06-6.47 2.44-9.17 8.99-7.96 15.53 1.83 9.86 10.86 16.63 14.11 26.05 2.55 7.39 2.34 13.69 10.81 16.18 10.66 3.13 24.43 1.01 35.18-0.47 9.44-1.3 18.75-3.33 28.01-5.57 2.67 14.25 6.34 28.95 10.88 37.38 2.24 9.88 2.27 19.81 3.49 29.9 0.67 5.53 0.78 12.68 6.63 14.96 1.76 0.69 3.39-1.04 3.47-2.65 0.78-15.64 0.04-31.15-2.13-46.61-0.03-4.33 0.11-8.73-0.43-12.79-0.99-7.44-2.68-14.75-5.7-21.64-2.03-4.62-5.29-8.52-6.88-13.2-1.38-4.06-2.05-8.53-3.06-12.7-2.74-11.38-1.58-23.5-1.26-36.21 0.3 0.16 0.65 0.28 1.04 0.33 2.37 0.29 4.77 0.5 7.21 0.66 2.88 0.39 5.84 0.55 8.64 0.27 14.24 0.08 29.01-1.69 42.33-4.37 6.77-1.36 16.58-2.46 21.56-7.94 4.82-5.31 2.78-13.74 0.8-19.84z" fill="#79A35D" p-id="16634"></path><path d="M677.99 369.81c-27.78 5.14-54.87 15.03-75.17 35.38-4.99 5.29-9.59 11.09-16.36 14.17-5.85 2.66-12.24 3.04-18.58 3.1-1.2-14.52 2.4-28.3 6.36-42.25 3.81-13.39 6.28-26.18 8.06-39.93 0.57-4.42 0.77-11.44 5.64-12.81 2.85-0.8 9.14 1.43 12.37 2.21 7.43 1.78 14.28 4.91 21.54 7.16 12.43 3.84 23.29 0.16 34.57-5.5 9.78-4.91 19.78-11.97 24.44-22.25 4.08-8.98-1.13-11.7-9.59-11.4-29.25 1.01-56.5 13.88-85.6 15.85 12.73-25.18 53.18-18.16 73.59-34.11 9.69-7.57 17.67-18.85 23.42-29.64 3.92-7.35 10.37-22.16 4.01-29.84-6.12-7.39-23.28-0.93-30.25 1.61-11.98 4.37-24.64 9.54-34.72 17.46-20.79 16.36-19.34 49.46-40.68 64.22-0.34-15.83-1.88-31.58-4.84-47.15-1.65-8.69-3.67-22.01-15.23-21.96-11.54 0.06-15.89 12.71-15.68 22.3 0.28 12.87 6.7 24.48 12.37 35.66 8.1 15.96 11.77 30.9 10.19 48.81-1.5 17.01-4.15 34.6-8.59 51.11-2 7.44-4.54 14.74-8.01 21.62-3.22 6.4-8.42 11.84-11.26 18.37-2.81 6.47-0.67 11.43 0.53 17.97 1.74 9.45 1.61 21.82-3.53 30.29-0.37 0.61-0.46 1.21-0.38 1.75-4.02 9.79-7.39 20.58-8.87 30.97-1.6 11.17 1.96 14.64 12.67 9.72 12.92-5.93 12.77-15.96 15.08-28.38 2.43-13.08 14.9-22.98 10.78-37.65-0.74-2.63-2.19-4.95-3.41-7.35a42.282 42.282 0 0 1-2.91-5.88c2.05-6.96 5.74-10.01 11.09-9.15 8.24-0.14 16.64 1.97 24.97 1.99 15.52 0.04 31.13-2.28 45.96-6.86 12.55-3.88 27.64-8.63 34.18-21.05 5.84-11.1 10.38-25.37 4.94-37.29-0.53-1.16-1.99-1.47-3.1-1.27z" fill="#79A35D" p-id="16635"></path></svg>