<?xml version="1.0" standalone="no"?><!DOCTYPE svg PUBLIC "-//W3C//DTD SVG 1.1//EN" "http://www.w3.org/Graphics/SVG/1.1/DTD/svg11.dtd"><svg t="1597148194587" class="icon" viewBox="0 0 1024 1024" version="1.1" xmlns="http://www.w3.org/2000/svg" p-id="18309" xmlns:xlink="http://www.w3.org/1999/xlink" width="200" height="200"><defs><style type="text/css"></style></defs><path d="M486.28 471.56c-0.32 0-0.58-0.13-0.67-0.26-0.05-0.08-0.01-0.22 0.03-0.33 8.64-21.33 14.91-43.73 18.64-66.58l0.02-0.15-0.01-0.15c-0.02-0.4 0.08-0.85 0.35-1.88 0.12-0.46 0.33-0.46 0.45-0.46 0.29 0 0.67 0.21 0.8 0.55l0.64 1.69 29.25-20.91c0.83-0.6 1.8-1.19 2.82-1.83 2.23-1.39 4.54-2.82 6.16-4.63 2.33-2.61 2.85-6.57 3.31-10.05 0.12-0.92 0.24-1.8 0.38-2.62 0.7-3.9 1.39-7.79 2.07-11.69 1.3-7.44 2.59-15.1 3.96-23.41 0.01-0.06 0.03-0.12 0.07-0.2l0.12-0.26 0.01-0.28c0-0.12 0.03-0.22 0.09-0.33 4.65-8.48 7.56-17.74 10.38-26.69 1.47-4.66 2.99-9.48 4.73-14.11l0.04-0.12 0.02-0.12c3.78-20.99-6.65-42.68-15.86-61.81-2.07-4.3-4.03-8.37-5.8-12.36-0.12-0.28-0.1-0.53 0.05-0.77 0.2-0.3 0.52-0.46 0.73-0.46 0.06 0 0.16 0 0.27 0.26 1.8 4.05 3.76 8.15 5.84 12.49 6.51 13.62 13.24 27.69 15.86 42.07l2.74-0.1c1.08-9.81 0.33-20.68-0.22-28.62-0.5-7.25-1.57-13.63-3.26-19.5-0.17-0.59-0.35-1.17-0.52-1.73-1.02-3.32-1.83-5.94-0.67-9.12 0.05-0.13 0.18-0.51 0.74-0.51 0.32 0 0.58 0.14 0.68 0.28 0.02 0.03 0.09 0.12-0.01 0.39-1.48 4.06 0.2 9.4 1.68 14.11 0.68 2.15 1.32 4.18 1.59 5.86 0.75 4.62 1.22 9.66 1.42 15.41l0.07 1.86c0.28 7.47 0.57 15.19-0.27 22.62l2.59 0.83c2.62-4.66 6.16-8.7 9.92-12.97 3.31-3.76 6.72-7.65 9.46-12.02 0.14-0.23 0.3-0.33 0.52-0.33 0.3 0 0.65 0.19 0.78 0.44 0.06 0.11 0.1 0.25-0.06 0.51-1.96 3.13-4.84 6.49-7.88 10.05-7.2 8.42-16.16 18.9-18.99 33.28-0.46 2.55-1.1 4.99-1.9 7.29-0.08 0.22-0.19 0.36-0.37 0.43l-0.58 0.25-0.2 0.6c-0.75 2.28-1.47 4.56-2.19 6.85-2.78 8.83-5.65 17.96-10.17 26.21l-0.19 0.35 0.02 0.4c0 0.09 0 0.16-0.01 0.22-1.59 9.66-3.11 18.59-4.64 27.28-0.69 3.89-1.38 7.79-2.09 11.68-0.13 0.7-0.22 1.52-0.32 2.4-0.22 2.01-0.5 4.52-1.39 5.73-1.16 1.57-3.65 3.06-5.86 4.37-1.1 0.66-2.14 1.28-3.01 1.9l-33.17 23.7-0.1 0.56c-3.73 21.94-9.83 43.45-18.12 63.92-0.14 0.43-0.5 0.52-0.77 0.52z" fill="#182805" p-id="18310"></path><path d="M602.41 164.86c-2.89-2.92-9.13-4.54-12.97-5.9-6.07-2.16-12.35-3.69-18.68-4.86-11.65-2.15-23.88-3.76-35.74-3.44-9.47 0.26-20.68 2.11-27.76 9.02-5.51 5.37-6.77 13.86-0.79 19.33 0.88 0.8 1.94 0.67 2.69 0.11 10.61 7.68 21.7 14.63 33.33 20.67 8.46 4.39 18.53 10.29 28.33 6.84 9.29-3.27 16.76-13.31 22.58-20.75 3.42-4.37 14.66-15.3 9.01-21.02z" fill="#DDC222" p-id="18311"></path><path d="M578.09 876.04c-1.28-9.12-2.55-18.25-3.83-27.37-4.75-34.01-53.37-351.48-54.38-359.56-0.57-4.6-0.46-8.82 1.64-13.06 1-2.01 2.58-3.6 2.09-6.04-0.79-3.89-4.48-3.8-7.71-4.03-8.12-0.57-40.67 0.12-48.82 0.04-3.44-0.03-10.81-1.89-12.17 2.73-1.44 4.87 4.92 10.42 5.25 15.25 0.29 4.29-63.15 360.37-67.56 377.02-3.11 11.73-7.99 29.87 0.91 40.3 8 9.38 21.95 12.8 33.3 16.65 13.45 4.56 28.9 7.05 43.02 8.33 15.38 1.39 30.36 0.32 45.79 0 14.55-0.3 28.79-2.18 42.71-7.05 10.43-3.65 20.3-10.65 21.65-22.38 0.77-6.81-0.95-14.1-1.89-20.83z" fill="#E5D8E2" p-id="18312"></path><path d="M598.68 296.91c-0.07 0-0.14-0.01-0.22-0.03-5.96-1.48-12.33-2.13-20.65-2.13-3.25 0-6.52 0.1-9.34 0.19h-0.01c-0.18 0-0.55-0.02-0.56-0.61 0-0.23 0.05-0.76 0.67-0.78 2.71-0.09 5.91-0.18 9.07-0.18 8.59 0 15.15 0.68 21.27 2.19 0.16 0.04 0.49 0.12 0.42 0.63-0.03 0.2-0.19 0.72-0.65 0.72z" fill="#182805" p-id="18313"></path><path d="M630.11 296.72c1.36-2.76-1.02-3.83-1.33-6.3-0.2-1.64 0.81-1.8 1.17-3.46 0.41-1.9-0.5-2.37-1.17-3.94-1.13-2.62-3.2-7.62-3.26-10.62-0.05-2.35 1.36-3.75-1.29-5.62-3.43-2.44-7.75 0.95-10.47 2.9-8.15 5.84-14.1 13.8-17.97 22.94-1.07 0.44-1.81 1.63-1 2.88 7.08 10.9 7.57 24.78 15.35 35.29 1.56 2.1 4.88 6.89 8.05 6.49 3.4-0.43 5.01-7.09 5.95-9.45 1.46-3.67 0.08-6.82 1.16-10.01 0.47-1.41 1.15-2.39 1.21-3.95s-1.78-5.02-1.27-5.99c0.72-1.37 4.49 0.32 4.48-3.32 0-2.59-2.78-4.24-5.42-5.47 2.12-0.24 4.65-0.01 5.81-2.37z" fill="#E8CF1F" p-id="18314"></path><path d="M566.4 297.89c-0.02-0.01-0.08-0.08-0.14-0.27-3.13-9.55-13.63-11.97-21.3-13.74-0.17-0.04-0.46-0.11-0.41-0.58 0.03-0.29 0.25-0.75 0.68-0.75 0.06 0 0.13 0.01 0.21 0.03 10.39 2.39 18.58 4.95 21.58 14.11 0.11 0.34 0.07 0.64-0.11 0.89-0.17 0.23-0.39 0.32-0.49 0.32l-0.02-0.01z" fill="#182805" p-id="18315"></path><path d="M547.64 280.16c-0.21-0.99-9.37-19.03-13.22-27.8-1.93-4.4-4.44-11.05-10.53-8.48-5.56 2.35-11.18 9.27-14.56 14.1-4.04 5.78-6.02 12.16-5.52 19.01l-0.7 0.03c-1.88 0.08-3.07 2.98-1.05 3.88 1.23 0.55 2.25 1.2 3.19 1.98-8.14 4.73-10.28 10.26-8.59 20.38 1.14 6.86 1.62 21.18 11.84 20.34 3.92-0.32 6.87-2.98 9.15-5.99 4.82-6.38 9.1-10.36 15.96-14.55 8.26-5.05 16.29-12.31 14.03-22.9zM614.32 238.61c-2.99-1.39-6.96-1.05-9.33-3.49-1.99-2.05-1.99-3.95-5.03-5.39-8.22-3.89-18.41 0.88-26.72-2.01-3.68-1.28-7.93-2.86-9.38 2.46-0.75 2.77 0.61 5.03 1.8 7.48 2.11 4.37 3.24 8.9 5.06 13.37 2.49 6.14 6.56 9.62 12.5 11.99 0.24 0.25 0.55 0.46 0.98 0.57 2.33 0.61 4.29 0.48 6.43-0.69 1.39-0.76 2.32-1.9 3.47-2.92 2.55-2.24 5.13-3.45 8.38-4.29 5.08-1.31 15.83-0.09 18.73-5.57 2.64-5.01-2.86-9.63-6.89-11.51z" fill="#E8CF1F" p-id="18316"></path><path d="M580.83 265.8c7.51-11.12 20.29-37.51 24.37-53.33 0.06-0.23 0.16-0.44 0.54-0.44 0.28 0 0.57 0.13 0.72 0.32 0.07 0.09 0.15 0.24 0.07 0.53-3.75 14.5-17.07 40.95-25.7 52.92z" fill="#182805" p-id="18317"></path><path d="M662.8 170.49c-3.99-0.82-8.35 0.15-12.21-0.69-1.9-0.42-3.29-1.55-4.83-2.32 1.65-6.86-21.44-6.9-21.41-6.31-0.07-1.34-1.28-2.37-2.63-2.01-1.67 0.45-4.56 1.66-6.22 1.19-1.58-0.45-3.78-2.52-5.28-3.26-3.08-1.51-6.42-2.44-9.8-2.96-9.38-1.44-18.73 0.47-27.89 2.39-0.37 0.08-0.66 0.23-0.89 0.43-1.1 0.43-1.85 1.61-0.95 2.82 3.74 5.04 8.44 9.22 11.38 14.84 3.21 6.15 5.85 12.65 8.71 18.97 3.72 8.19 6.4 22.51 17.78 21.37 10.74-1.07 21.95-5.96 31.48-10.81 11.19-5.69 21.31-13.15 30.27-21.93 0.88 0.07 1.77-0.36 2.04-1.47 1.55-6.44-3.97-9.1-9.55-10.25zM550.3 211.68c-4.92-12.61-9.9-27.28-9.99-41.02-0.09-13 5.31-24.84 9.48-36.88 0.94-2.7 3.53-7.3 2.21-10.32-1.35-3.1-7.11-3.81-9.85-4.36-10.64-2.14-21.87-0.89-32.02 2.84-17.34 6.37-37.34 20.7-45.06 38-4.2 9.41-7.03 21.34-6.85 31.69 0.11 6.37 1.12 15.49 8.75 16.11 14.84 1.21 30.01-3.39 44.95-2.91 13.17 0.42 27.59 4.11 36.98 13.79 1.87 1.93 4.64-0.85 2.78-2.78-0.59-0.61-0.94-3.03-1.38-4.16z" fill="#E8CF1F" p-id="18318"></path></svg>