<?xml version="1.0" standalone="no"?><!DOCTYPE svg PUBLIC "-//W3C//DTD SVG 1.1//EN" "http://www.w3.org/Graphics/SVG/1.1/DTD/svg11.dtd"><svg t="1597148152998" class="icon" viewBox="0 0 1024 1024" version="1.1" xmlns="http://www.w3.org/2000/svg" p-id="16107" xmlns:xlink="http://www.w3.org/1999/xlink" width="200" height="200"><defs><style type="text/css"></style></defs><path d="M725.06 514.88c-2.25 13.48-22.7 124.38-93.08 172.44 0 0-123.98 89.71-220.97-57.41-1.66-2.52-3.31-5.1-4.96-7.77-4.02-6.49-7.99-13.43-11.89-20.8 0 0-7.72-12.2-15.7-28.15-0.27-0.57-0.57-1.12-0.84-1.68-8.67-17.62-17.32-39.33-16.39-54.31 0 9.09 75.81 12.81 178.36 12.81 97-0.02 179.82-7.27 185.47-15.13z" fill="#D5D1C3" p-id="16108"></path><path d="M725.06 514.88c0.15-0.9 0.22-1.35 0.22-1.35 0.2 0.45 0.13 0.91-0.22 1.35z" fill="#524C47" p-id="16109"></path><path d="M713.31 194.02c-7.71 32.86-16.86 62.93-28.67 91.51-0.82 0.58-1.65 1.16-2.44 1.81l0.19 0.51c0.45-0.02 0.88-0.06 1.32-0.1-6.43 15.32-13.62 30.24-21.81 44.93-0.38-0.68-0.74-1.35-1.16-2.02-0.66-0.97-1.24-1.95-1.97-2.9l-0.53 0.15c-0.12 1.19-0.09 2.33-0.14 3.5 0 1.16 0.04 2.3 0.12 3.43s-0.31 2.4 0.39 3.35l0.09 0.12c-2.99 5.19-6.12 10.36-9.37 15.52-0.08-0.04-0.17-0.07-0.25-0.11-0.77-0.45-1.58-0.86-2.41-1.25-0.87-0.35-1.69-0.75-2.61-1.05l-0.39 0.39c0.3 0.92 0.7 1.73 1.05 2.61 0.38 0.84 0.8 1.64 1.25 2.41 0.24 0.41 0.38 0.91 0.59 1.35-12.98 20.07-28.04 39.97-45.69 60.22-14.81 16.98-27.07 46.39-19.59 68.7 3.6 10.73 10.87 10.54 20.96 8.41 12.79-2.7 24.71-8.87 34.98-16.85 22.51-17.49 36.1-42.97 46.23-69.09 12.26-31.6 22.98-64.69 29.27-98.03 7.3-38.69 4.03-77.72 5.96-116.79 0.17-3.08-4.67-3.74-5.37-0.73z" fill="#93A95F" p-id="16110"></path><path d="M540.46 482.69c-5.74-9.67-10.7-20.4-19.33-27.94-9.93-8.67-22.15-7.88-34.07-11.57-15.86-4.91-28.43-19.17-40.77-29.6-3.92-3.32-7.89-6.58-11.85-9.85 0.07-0.64 0.08-1.31 0.2-1.94 0.24-1.3 0.44-2.62 0.6-3.95 0.11-1.35 0.3-2.67 0.34-4.04l-0.51-0.19c-0.87 1.07-1.6 2.18-2.4 3.27a57.72 57.72 0 0 0-2.14 3.37c-0.03 0.05-0.07 0.1-0.1 0.14a1465.4 1465.4 0 0 0-19.45-15.7c0.3-0.38 0.6-0.76 0.92-1.09 0.93-0.95 1.84-1.93 2.72-2.96 0.85-1.06 1.75-2.06 2.56-3.18l-0.32-0.45c-1.32 0.41-2.56 0.93-3.84 1.39-1.25 0.5-2.48 1.04-3.68 1.62-0.91 0.43-1.98 0.64-2.8 1.18-4.86-3.83-9.74-7.64-14.66-11.4 0.43-0.73 0.37-1.72 0.58-2.56 0.25-1.02 0.46-2.05 0.64-3.11 0.13-1.08 0.32-2.12 0.39-3.23l-0.49-0.25c-0.85 0.72-1.57 1.5-2.35 2.25-0.74 0.77-1.45 1.56-2.11 2.38-0.33 0.4-0.76 0.75-1.13 1.12-4.42-3.36-8.86-6.71-13.32-10.03 0.25-1.28-0.39-2.56-0.61-3.84-0.23-1.37-0.5-2.74-0.82-4.12-0.37-1.37-0.66-2.74-1.1-4.12h-0.55c-0.44 1.37-0.73 2.74-1.1 4.12-0.32 1.37-0.59 2.74-0.82 4.12-0.01 0.03-0.01 0.07-0.02 0.1-8.78-6.49-17.6-12.96-26.16-19.72 0-0.02 0.01-0.03 0.02-0.05 0.41-1.07-0.32-2.13-0.55-3.2s-0.5-2.13-0.82-3.2c-0.37-1.07-0.66-2.13-1.1-3.2h-0.55c-0.44 1.07-0.73 2.13-1.1 3.2-0.26 0.87-0.47 1.75-0.67 2.62-12.75-10.37-24.79-21.52-35.1-34.55-1.97-2.49-5.83 0.7-4.31 3.33 7.33 12.67 22.87 35.07 38.81 57.22-0.34-0.05-0.67-0.12-1.01-0.17-1.68-0.23-3.35-0.96-5.03-0.55-0.84 0.16-1.68 0.41-2.52 0.81-0.84 0.38-1.68 0.87-2.52 1.66v0.55c0.84 0.79 1.68 1.27 2.52 1.66 0.84 0.4 1.68 0.65 2.52 0.81 1.68 0.41 3.35-0.32 5.03-0.55 1.21-0.16 2.42-0.38 3.63-0.59 7.89 10.92 15.76 21.62 22.69 30.93-2.07-0.25-4.13-0.92-6.2-0.52-1.07 0.16-2.13 0.41-3.2 0.81-1.07 0.38-2.13 0.87-3.2 1.66v0.55c1.07 0.79 2.13 1.27 3.2 1.66 1.07 0.4 2.13 0.65 3.2 0.81 2.13 0.41 4.27-0.32 6.4-0.55 0.94-0.1 1.88-0.24 2.82-0.36 8.61 11.52 15.39 20.37 18.25 23.88 1.86 2.28 4.1 6.03 6.81 10.75-0.61 0.25-1.17 0.56-1.57 1.09-0.44 0.52-0.83 1.1-1.13 1.81-0.31 0.69-0.56 1.47-0.64 2.49l0.32 0.45a7.1 7.1 0 0 0 2.56 0.2c0.77-0.06 1.44-0.23 2.07-0.48 0.45-0.15 0.81-0.43 1.14-0.74 14.21 24.81 39.88 68.02 88.72 82.57 27.48 8.18 53.53 14.5 79.14 0.69 3.14-1.68-15.19-23.82-21.08-33.72z" fill="#9BB663" p-id="16111"></path><path d="M556.17 477.45c-3.43-16.52-8.31-33.18-13.89-49.09-8.45-24.09-18.67-47.68-30.24-70.64 0.04-0.1 0.08-0.2 0.13-0.3 0.72-1.5 1.41-3.02 2.06-4.57 0.61-1.58 1.28-3.11 1.83-4.72l-0.46-0.3c-1.28 1.13-2.44 2.34-3.66 3.51-0.7 0.71-1.37 1.45-2.04 2.18-1.98-3.85-3.99-7.68-6.04-11.49 0.03-0.04 0.06-0.07 0.09-0.11 0.69-0.87 1.23-1.79 1.69-2.73 1-1.86 0.91-4.06 1.31-6.11 0.39-2.05 0.74-4.11 1.04-6.19 0.26-2.09 0.59-4.16 0.78-6.27l-0.52-0.16c-1.03 1.85-1.92 3.75-2.88 5.62-0.92 1.89-1.79 3.79-2.62 5.7-0.65 1.49-1.57 2.9-2.05 4.44a720.515 720.515 0 0 0-17.61-30.21l0.05 0.03c0.99-0.85 1.85-1.77 2.78-2.66 0.89-0.91 1.74-1.84 2.54-2.79 0.81-0.95 2.05-1.66 2.31-2.93 0.16-0.62 0.25-1.27 0.21-2-0.03-0.72-0.14-1.5-0.52-2.42l-0.48-0.27c-0.99 0.14-1.72 0.44-2.35 0.78-0.65 0.34-1.17 0.74-1.62 1.2-0.97 0.86-0.94 2.29-1.35 3.47s-0.78 2.38-1.11 3.61c-0.26 1.14-0.58 2.26-0.8 3.42a790.356 790.356 0 0 0-31.95-47.75c-2.04-2.82-6.44-0.4-4.74 2.77 11.96 22.38 15.82 47.73 20.37 72.65-1.67 0.2-3.34 0.42-5.01 0.69-1.98 0.37-3.96 0.66-5.95 1.1v0.55c1.98 0.44 3.96 0.73 5.95 1.1 1.93 0.31 3.86 0.58 5.79 0.8 1.18 6.29 2.43 12.54 3.9 18.69a520.32 520.32 0 0 0 6.85 25.57c-0.29-0.02-0.59-0.03-0.87-0.07-1.74-0.24-3.49-0.43-5.25-0.58-1.77-0.1-3.53-0.28-5.32-0.31l-0.14 0.53c1.56 0.88 3.16 1.62 4.74 2.43 1.59 0.77 3.2 1.49 4.81 2.17 1.27 0.53 2.47 1.35 3.79 1.71a549.21 549.21 0 0 0 14.77 41.84c-1.17 0.31-2.33 0.63-3.49 0.99-1.49 0.52-2.98 0.96-4.46 1.55l0.06 0.55c1.57 0.28 3.12 0.42 4.68 0.63 1.56 0.17 3.11 0.29 4.66 0.36 0.06 0 0.13 0.01 0.19 0.02 1.56 3.83 3.16 7.65 4.81 11.45 0.01 0.17 0.03 0.34 0.08 0.53 4.85 18.9 16.89 58.81 44.3 52.05 10.34-2.6 12.81-10.56 10.85-20.02z" fill="#93A95F" p-id="16112"></path><path d="M601.63 351.41c0.49-0.95 1.07-1.79 1.6-2.69 0.56-0.86 1.15-1.68 1.77-2.47s0.92-1.97 1.94-2.26c0.48-0.18 1.02-0.29 1.65-0.28 0.62-0.01 1.31 0.07 2.18 0.38l0.34 0.43c0.11 0.92 0.03 1.6-0.11 2.21-0.13 0.62-0.36 1.12-0.64 1.55-0.51 0.93-1.72 0.97-2.63 1.4s-1.84 0.83-2.8 1.19c-0.99 0.32-1.94 0.7-2.97 0.97l-0.33-0.43zM559.51 335.33c-1.1-0.63-2.08-1.36-3.13-2.04-1.01-0.71-1.98-1.45-2.92-2.22s-2.26-1.21-2.71-2.39c-0.25-0.56-0.44-1.18-0.52-1.89-0.09-0.7-0.09-1.47 0.13-2.43l0.42-0.35c0.99-0.05 1.74 0.1 2.42 0.31 0.69 0.2 1.26 0.5 1.77 0.85 1.08 0.65 1.28 2.03 1.87 3.1a45.44 45.44 0 0 1 1.65 3.27c0.48 1.15 1.02 2.25 1.44 3.45l-0.42 0.34z" fill="#9BB663" p-id="16113"></path><path d="M559.52 388.42c-0.32-25.08-2.07-50.1-6.35-74.83-3.23-17.65-6.14-34.93-7.11-52.89-0.89-16.4-1.74-32.72-5.89-48.69-0.78-3-4.9-2.33-5.39 0.73-1.42 8.9-2.6 19.42-3.56 30.8-0.65-0.08-1.3-0.14-1.98-0.16-0.77 0.03-1.51-0.02-2.32 0.07l-0.25 0.49c0.41 0.7 0.89 1.26 1.34 1.9 0.47 0.59 0.95 1.14 1.46 1.65 0.44 0.44 0.73 1.19 1.32 1.34-4.61 59.33-4.02 138.38-3.96 139.04 6.36 70.78 21.54 83.72 30.32 68.09 4.13-7.36 2.54-54.51 2.37-67.54z" fill="#93A95F" p-id="16114"></path><path d="M624.27 453.26a505.665 505.665 0 0 0-6.5-40.41c-5.93-29.24-14.34-57.9-23.59-86.24-8.44-25.85-15.33-54.67-29.43-78.14-1.82-3.04-6.39-0.35-4.74 2.77 14.06 26.47 2.01 55.47-8.19 80.94-10.08 25.19-17.95 51.17-21.69 78.1-3.46 24.91-3.43 50.32 1.52 75.04 1.92 9.59 10.69 39.18 44.67 39.04 30.1-0.12 44.97-20.82 48.27-30.73 4.21-12.63 1.22-27.51-0.32-40.37z" fill="#9BB663" p-id="16115"></path><path d="M634.16 579.95c-0.4-2.22-20.72 14.69-23.7 10.32-0.93-1.37-0.74-19.45-0.72-24.03 0.01-2.26-16.66 12.28-19.84 14.97 1.83-7.32 3.45-24.97 2.26-32.06-0.28-1.68-17.07 12.02-20.55 15.59-1.11-5.12-0.3-25.44-1.61-24.89-5.17 2.18-16.68 15.74-16.68 15.74s-21.61-19.01-21.38-15.74c0.34 4.92-0.05 18.13-0.57 23.06-3.89-3.63-21.05-19.68-21.41-17.4-1.49 9.34 0.95 24.53-0.54 33.87-5.04-5.58-26.03-25.83-26.66-23.66-2.81 9.65 10.99 41.65 6.54 43.79-6.71-4.63-27.14-21.83-27.43-19.41-0.63 5.14 2.29 35.15 4.01 34.62 6.78-2.1 17.13-8.36 23.42-11.54-0.38 17.01-2.32 37.34 1.95 53.83 0.5 1.93 14.85-22.51 20-28.22-0.33 11.2-0.31 34.7 0.04 45.9 0.07 2.35 15.87-20.85 20.08-25.78 0.27 8.81-0.98 30.96 0.6 39.68 0.37 2.02 23.18-25.05 23.18-25.05s27.18 23.34 27.24 21.23c0.31-10.16-4.78-27.64-3.46-37.7 4.39 3.5 23.92 18.56 23.77 15.95-0.61-10.47-3.74-29.25-3.65-39.73 1.74 1.48 12.81 13.34 12.81 10.83 0-9.17 0-18.33-0.01-27.5 6.62 4.1 24.42 8.91 24.5 7.24 0.59-11.44-0.17-22.65-2.19-33.91z m-80.85 79.95c-20.85-19.69-43.48-38.65-61.98-60.54 0.14-0.22 58.75-42.79 65.17-39.72 11.02 5.26 47.34 42.65 46.83 46.3-9.63 4.47-38.66 44.96-50.02 53.96zM469.26 551.11c-0.57 2.98-0.54 5.96-0.94 8.94-0.33 2.46-1.94 2.39-3.99 2.5-1.83 0.1-3.65 0.09-5.47 0.02-1.18-0.05-1.18 1.78 0 1.83 2.44 0.09 4.87 0.06 7.3-0.16 1.09-0.1 2.86-0.01 3.62-1 0.73-0.96 0.36-2.97 0.4-4.07 0.08-2.55 0.38-5.07 0.86-7.58 0.2-1.14-1.56-1.63-1.78-0.48z" fill="#524C47" p-id="16116"></path><path d="M473.74 562.42c-0.13 2.7-0.11 5.41 0.14 8.11 0.03 0.29 0.29 1.34 0.1 1.57-0.16 0.19-1.69-0.07-1.93-0.08-1.41-0.06-2.82-0.12-4.24-0.19-1.18-0.05-1.17 1.78 0 1.83 1.99 0.09 4.18 0.45 6.16 0.27 0.8-0.07 1.38-0.24 1.73-1.05 0.49-1.15-0.08-3.07-0.14-4.27-0.11-2.06-0.1-4.12 0.01-6.18 0.06-1.18-1.77-1.18-1.83-0.01zM464.95 627.05c2.02-0.05 4.02 0.04 6.03 0.38 0.64 0.11 1.67 0.16 2.24 0.49 1.19 0.7 1.35 1.94 1.56 3.32 0.54 3.58 0.38 7.4 0.25 11.01-0.04 1.18 1.79 1.18 1.83 0 0.11-2.86 0.11-5.71-0.06-8.57-0.1-1.72 0.19-4.57-0.76-6.11-1.71-2.76-8.33-2.41-11.07-2.34-1.19 0.02-1.2 1.85-0.02 1.82zM457.27 637.28c1.62-0.12 3.23-0.15 4.85 0.03 1.39 0.15 4.22 0.37 5.42 1.29 2.75 2.1 1.81 8.29 1.64 11.33-0.06 1.18 1.77 1.17 1.83 0 0.15-2.77 0.15-5.53-0.09-8.3-0.12-1.41-0.03-3.02-1.17-4.02-1.3-1.13-3.84-1.51-5.46-1.82-2.32-0.44-4.66-0.53-7.01-0.35-1.17 0.1-1.18 1.93-0.01 1.84zM631.56 622.04c-3.13-0.13-6.25-0.11-9.37 0.14-1.19 0.1-3.16-0.02-4.04 0.96-1.14 1.28-0.54 3.89-0.54 5.4 0.01 3.28-0.21 6.48-1.02 9.66-0.29 1.14 1.47 1.63 1.76 0.49 0.99-3.89 1.13-7.83 1.06-11.82-0.03-1.44 0.02-2.22 1.6-2.75 0.91-0.31 2.55-0.21 3.51-0.25 2.35-0.11 4.69-0.09 7.03 0.01 1.19 0.03 1.19-1.8 0.01-1.84z" fill="#524C47" p-id="16117"></path><path d="M632.28 630.43c-2.66-0.13-8.77-1.2-9.8 2.2-1.4 4.61-1.09 10.42-0.91 15.16 0.04 1.17 1.87 1.18 1.83 0-0.13-3.54-0.07-7.07 0.31-10.59 0.11-1.01 0-2.55 0.45-3.47 0.49-1.01 1.21-1.19 2.39-1.41 1.83-0.34 3.9-0.15 5.75-0.06 1.15 0.06 1.15-1.77-0.02-1.83zM611.92 549.5c-1.42 1.04-0.8 2.9-0.7 4.48 0.25 4.11 0.5 8.23 0.76 12.34 0.09 1.47-0.22 2.86 1.16 3.54 0.96 0.47 2.72 0.09 3.75 0.09h5.9c1.18 0 1.18-1.83 0-1.83h-5.9c-3 0-3.05-1.2-3.22-3.98l-0.36-5.81c-0.04-0.66-0.94-6.91-0.47-7.26 0.94-0.68 0.03-2.27-0.92-1.57zM618.62 548.27c-0.15 2.08-0.21 4.16-0.11 6.25 0.06 1.33-0.12 3.92 0.59 5.13 0.43 0.75 1.02 0.92 1.87 1.01 1.93 0.2 3.99-0.03 5.92-0.07 1.18-0.03 1.18-1.85 0-1.83-1.27 0.03-2.54 0.05-3.81 0.06-0.4 0-1.78 0.26-2.12 0.01-0.49-0.37-0.42-1.57-0.47-2.09-0.27-2.82-0.26-5.65-0.06-8.48 0.11-1.16-1.72-1.16-1.81 0.01zM711.55 547.07c-0.07-0.55-13.11 8.48-17.37 10.35-0.29-0.1-10.83-13.01-10.86-12.39-0.1 1.65-0.08 15.62-0.11 16.05-2.49-2.56-12.6-9.87-12.81-9.15-1.8 6.35 0.83 12.32 0.73 18.88-0.87-1.12-11.49-6.93-11.7-6.07-0.29 1.21 1.1 20.18 0.97 22.67-3.13-1.59-15.53-8.79-15.61-8.24-0.94 6.42 1.09 22.63 1.84 22.16 5.6-3.49 9.04-7.49 14.63-10.98 0.03 4.47-0.01 22.99 0 23.78 0.01 0.83 7.35-6.15 11.73-8.08-0.16 5.33-0.14 10.65 0.1 15.98 0.02 0.56 18.04-3.8 17.44-4.24-7.38-5.41-23.67-28.73-25.61-31.1-2.65-3.24 26.72-27.5 28.64-28.33 3.08-1.32 13.16 8.09 15.87 11.91 0.67 0.97 2.81-17.38 2.12-23.2zM438.34 602.45c0.09 0.8-11.23-4.74-13.08-6.6 0 3.66 2.47 18.31 1.83 20.12-0.99 2.8-10.46-4.01-12.81-1.83-0.66 0.62 4.85 16.26 5.03 18.59 0.02 0.37-4.23-1.17-8.31-2.82-1.66-2.52-3.31-5.1-4.96-7.77 5.14-8.25 15.71-22.54 18.22-26.89-4.76-2.49-39.44-26.47-41.89-25.17-1.45 0.75-2.73 1.92-3.92 3.11-0.27-0.57-0.57-1.12-0.84-1.68 4.06-3.88 14.1-13.23 15.33-12.73 1.59 0.64 0.44 11.45 1.21 15.13 3.02-1.92 13.52-6.29 14.63-5.49 1.5 1.06 0 11.42 0 14.63 2.54-1.85 11.91-6.33 14.63-7.32 0.31-0.11 2.41 13.41 1.83 16.46 3.24-2.84 13.94-9.48 13.81-8.76a61.927 61.927 0 0 0-0.71 19.02z" fill="#524C47" p-id="16118"></path><path d="M725.28 513.52c-0.05-0.11-0.11-0.2-0.16-0.31-0.11-0.52-0.26-0.77-0.43-0.85-12.12-23.9-64.97-7.98-165.89-7.98-25.63 0-104.95-3.35-126.23-1.83-63.81 4.56-71.35 0-71.35 14.63 0 0-1.35 1.73 0 9.15 3.66 20.12 18.29 58.54 34.76 84.15 16.46 25.61 67.69 91.47 71.35 98.79s5.49 20.12 5.49 23.78 3.66 12.81 10.98 12.81 16.46-1.83 14.63-21.95c0 0 1.83-1.83 3.66-1.83s71.35 21.95 104.27-7.32c0 0 5.49-3.66 9.15 1.83 0 0 7.32 10.98 9.15 20.12 0 0 16.46 5.49 16.46-5.49 0 0 1.83-18.29 1.83-23.78s1.83-21.95 14.63-32.93c12.81-10.98 42.08-65.86 47.56-80.49 5.49-14.63 20.12-73.17 20.12-78.66 0-0.59-0.02-1.05-0.06-1.45 0.06-0.25 0.08-0.39 0.08-0.39z m-93.3 173.79s-135.37 100.62-234.16-85.98c0 0-36.17-52.46-34.77-81.82 12.06 7.4 83.23 10.48 176.55 10.48 90.74 0 169.06-6.34 183.42-13.6-3.02 18.69-22.8 124.32-91.04 170.92z" fill="#3A3837" p-id="16119"></path></svg>