<?xml version="1.0" standalone="no"?><!DOCTYPE svg PUBLIC "-//W3C//DTD SVG 1.1//EN" "http://www.w3.org/Graphics/SVG/1.1/DTD/svg11.dtd"><svg t="1597148861327" class="icon" viewBox="0 0 1024 1024" version="1.1" xmlns="http://www.w3.org/2000/svg" p-id="21200" xmlns:xlink="http://www.w3.org/1999/xlink" width="200" height="200"><defs><style type="text/css"></style></defs><path d="M0 0m204.8 0l614.4 0q204.8 0 204.8 204.8l0 614.4q0 204.8-204.8 204.8l-614.4 0q-204.8 0-204.8-204.8l0-614.4q0-204.8 204.8-204.8Z" fill="#FF9FC6" p-id="21201"></path><path d="M819.2 0H534.272A756.48 756.48 0 0 0 0 483.584V819.2a204.8 204.8 0 0 0 204.8 204.8h614.4a204.8 204.8 0 0 0 204.8-204.8V204.8a204.8 204.8 0 0 0-204.8-204.8z" fill="#FF99BE" p-id="21202"></path><path d="M819.2 0h-3.84a755.2 755.2 0 0 0-539.392 1024H819.2a204.8 204.8 0 0 0 204.8-204.8V204.8a204.8 204.8 0 0 0-204.8-204.8z" fill="#FF8FB2" p-id="21203"></path><path d="M497.152 721.152A752.384 752.384 0 0 0 560.384 1024H819.2a204.8 204.8 0 0 0 204.8-204.8V204.8a204.8 204.8 0 0 0-89.088-168.96 755.2 755.2 0 0 0-437.76 685.312z" fill="#FF8AA9" p-id="21204"></path><path d="M793.6 281.6a177.664 177.664 0 0 0-250.112 0L512 313.088 480.768 281.6A176.64 176.64 0 0 0 230.4 531.2l62.464 62.464 187.392 187.136a44.288 44.288 0 0 0 62.464 0l187.392-187.136L793.6 531.2A176.64 176.64 0 0 0 793.6 281.6z" fill="#FFE6F5" p-id="21205"></path><path d="M543.232 281.6L512 313.088 480.768 281.6A176.64 176.64 0 0 0 230.4 531.2l62.464 62.464L366.592 665.6a470.016 470.016 0 0 0 284.672-209.92 483.84 483.84 0 0 0 72.448-217.6 177.408 177.408 0 0 0-180.48 43.52z" fill="#FFFFFF" p-id="21206"></path></svg>