<?xml version="1.0" standalone="no"?><!DOCTYPE svg PUBLIC "-//W3C//DTD SVG 1.1//EN" "http://www.w3.org/Graphics/SVG/1.1/DTD/svg11.dtd"><svg t="1595955224415" class="icon" viewBox="0 0 1293 1024" version="1.1" xmlns="http://www.w3.org/2000/svg" p-id="11671" xmlns:xlink="http://www.w3.org/1999/xlink" width="40.40625" height="32"><defs><style type="text/css"></style></defs><path d="M452.715789 995.597474H388.042105v-258.694737l-141.689263 201.189052L86.231579 736.902737v258.694737H0v-431.157895h86.231579l160.121263 229.914947 144.761263-229.914947H474.273684v431.157895h-21.557895z m431.157895 0h-323.368421v-431.157895h323.368421v86.231579H646.736842v86.231579h194.021053v86.231579H646.736842v86.231579h237.136842v86.231579z m409.6 0h-323.368421v-86.231579h237.136842v-86.231579H970.105263v-258.694737h323.368421v86.231579h-237.136842v86.231579H1293.473684v258.694737zM625.178947 312.912842c-109.568 0-154.246737 88.333474-154.246736 165.295158 12.934737 0.592842 68.823579 0 68.823578 0s137.916632-3.664842 172.085895 0h12.557474c-0.431158-1.024-1.509053-1.886316-4.20379-2.317474 36.378947 2.479158 41.121684-4.419368 54.810948 2.317474 0-76.961684-30.72-165.295158-149.827369-165.295158z m414.72 32.444632l-84.129684-8.245895c-4.096-8.245895-6.144-16.545684-10.24-24.791579l55.40379-66.021053c6.144-8.245895 6.144-18.539789 0-24.791579l-135.491369-136.138105c-8.245895-8.299789-18.485895-8.299789-24.683789-2.101895l-65.64379 53.679158a124.065684 124.065684 0 0 0-24.683789-10.347789L742.238316 42.037895c-1.994105-10.293895-10.24-16.491789-18.432-16.49179H532.911158c-10.24 0-18.485895 8.245895-18.485895 16.49179l-8.138105 84.614737c-8.245895 4.096-16.491789 6.197895-24.68379 10.293894L415.959579 81.219368c-8.192-6.197895-18.485895-6.197895-24.68379 0L255.838316 217.411368c-8.192 8.245895-8.192 18.539789-2.048 24.737685l53.355789 66.021052a128.646737 128.646737 0 0 0-10.24 24.791579l-84.183579 8.192a19.509895 19.509895 0 0 0-16.437894 18.593684l-0.700632 83.536843s-1.562947 30.827789 34.438737 34.869894H388.042105c6.144-2.048 23.767579-9.054316 23.767579-15.25221v-6.197895c0-117.598316 94.477474-212.506947 219.621053-210.458947 69.847579 0 127.299368 26.839579 162.223158 76.368842 33.360842 45.487158 49.044211 101.214316 47.696842 155.54021H1056.336842v-114.256842c0-10.293895-8.192-18.539789-16.437895-18.539789z" fill="#2BBD9E" p-id="11672"></path></svg>