<?xml version="1.0" standalone="no"?><!DOCTYPE svg PUBLIC "-//W3C//DTD SVG 1.1//EN" "http://www.w3.org/Graphics/SVG/1.1/DTD/svg11.dtd"><svg t="1595955206618" class="icon" viewBox="0 0 1059 1024" version="1.1" xmlns="http://www.w3.org/2000/svg" p-id="10866" xmlns:xlink="http://www.w3.org/1999/xlink" width="33.09375" height="32"><defs><style type="text/css"></style></defs><path d="M195.722498 890.91927c-6.379709-49.506542-12.249041-95.695635-18.756344-145.457366-28.07072 0-55.758657 0.127594-83.574189 0-54.227527-0.255188-91.229839-35.0884-91.357433-89.060738-0.637971-188.711793-0.510377-377.423585 0-566.135378 0.127594-55.24828 36.874718-90.209085 92.760969-90.209085 287.2145-0.127594 574.429 0 861.515906 0 52.823991 0 89.953897 34.578023 90.081491 87.274419 0.637971 190.370517 0.637971 380.741034 0 571.111551-0.127594 53.589556-35.981559 87.019231-90.209085 87.019231-170.465825 0.127594-341.059244 2.424289-511.397475-1.403536-50.144513-1.148348-85.743289 15.694084-121.214471 46.189094-40.192167 34.450429-83.319 65.711003-127.849369 100.671808zM132.30819 485.680153h55.503469V273.491031c3.445043 2.934666 5.996926 4.210608 6.634897 5.996927C216.775538 341.371135 239.359708 402.999124 260.667936 465.13749c5.741738 16.714838 13.652577 23.222141 31.770951 22.58417 17.863185-0.637971 32.791704-1.020753 36.236747-22.966952 1.020753-6.379709 3.827825-12.631824 5.996926-18.756345 20.542663-57.162193 41.085326-114.324386 61.62799-171.358984 1.403536 0.255188 2.934666 0.510377 4.338202 0.765565v209.764832h60.352047V196.551741c-81.022305-12.50423-85.488101-9.952346-111.006937 61.627989-2.169101 6.252115-3.95542 12.50423-6.252115 18.756344C328.675634 319.169748 313.364332 361.531016 297.670248 405.168225c-25.391242-71.707929-50.016919-141.119163-74.387407-209.637238H132.30819v290.149166z m554.651902-173.017708h-92.633375v-65.838597h101.437374V195.91377H530.146845v289.511195h170.721013v-49.12376h-106.413546v-69.92161h55.24828c45.933905 0 47.847818-2.551884 37.2575-53.71715z m237.45277-62.776337c0-7.783245 1.658724-21.818605-0.637971-35.0884-1.148348-6.762492-8.293622-16.204461-14.545737-17.863185-40.574949-11.100694-81.660275-12.759418-121.086877 4.083014-60.352047 25.774024-70.176799 97.099171-17.990779 137.03615 20.542663 15.694084 45.551122 25.518836 68.773263 37.640283 16.714838 8.676404 33.812458 19.52191 29.857038 40.192167-4.338202 22.201387-25.136054 28.581096-44.785557 25.774024-28.453502-4.083014-56.396628-12.249041-86.508854-19.011533 0 7.400462 1.658724 18.883939-0.382783 29.729444-3.827825 21.691011 7.655651 31.388168 25.901619 33.302081 29.346661 3.189855 59.331294 7.400462 88.550361 4.720985 46.827064-4.210608 77.322073-31.770951 83.829376-68.007698 7.145274-39.936978-10.590317-71.452741-54.610309-95.312853-18.756345-10.207534-39.299008-17.480403-56.524222-29.474256-9.186781-6.379709-19.394315-21.05304-18.118373-30.495009 1.275942-9.186781 16.332055-22.966952 25.774024-23.222141 29.857038-0.893159 59.969265 3.445043 92.505781 5.996927zM130.011495 599.74935h565.114625v-30.495009H130.011495v30.495009z" p-id="10867" fill="#1296db"></path></svg>