<?xml version="1.0" standalone="no"?><!DOCTYPE svg PUBLIC "-//W3C//DTD SVG 1.1//EN" "http://www.w3.org/Graphics/SVG/1.1/DTD/svg11.dtd"><svg t="1597219227943" class="icon" viewBox="0 0 1024 1024" version="1.1" xmlns="http://www.w3.org/2000/svg" p-id="11456" xmlns:xlink="http://www.w3.org/1999/xlink" width="200" height="200"><defs><style type="text/css"></style></defs><path d="M568 680v56h56V960h-224v-224h56v-56h-192C153.536 680 64 594.432 64 484.032V264A200 200 0 0 1 264 64h496A200 200 0 0 1 960 264v220.032c0 110.464-89.536 195.968-200 195.968h-192zM848 288c0-77.312-45.696-112-112-112h-448c-66.304 0-112 34.688-112 112v168c0 77.312 45.696 112 112 112h448c66.304 0 112-34.688 112-112V288zM960 848h-280v-56H960v56z m-896 0h280v-56H64v56z" p-id="11457" fill="#1296db"></path></svg>