<?xml version="1.0" standalone="no"?><!DOCTYPE svg PUBLIC "-//W3C//DTD SVG 1.1//EN" "http://www.w3.org/Graphics/SVG/1.1/DTD/svg11.dtd"><svg t="1623727096462" class="icon" viewBox="0 0 1024 1024" version="1.1" xmlns="http://www.w3.org/2000/svg" p-id="13084" xmlns:xlink="http://www.w3.org/1999/xlink" width="200" height="200"><defs><style type="text/css"></style></defs><path d="M330.496 316.688H736V720H330.496V316.688z m88 87.536H648V632.48H418.496V404.224z" fill="#95EAFF" p-id="13085"></path><path d="M392.192 448H304a16 16 0 0 0 0 32h88.192a16 16 0 0 0 0-32zM640 480h88.192a16 16 0 0 0 0-32H640a16 16 0 0 0 0 32zM392.192 544H304a16 16 0 0 0 0 32h88.192a16 16 0 0 0 0-32zM728.192 544H640a16 16 0 0 0 0 32h88.192a16 16 0 0 0 0-32z" fill="#0F13AE" p-id="13086"></path><path d="M336 112H176a16 16 0 0 0 0 32h144v96a16 16 0 0 0 32 0V128a16 16 0 0 0-16-16zM336 768a16 16 0 0 0-16 16v96h-144a16 16 0 0 0 0 32h160a16 16 0 0 0 16-16v-112a16 16 0 0 0-16-16zM688 256a16 16 0 0 0 16-16V144h144a16 16 0 0 0 0-32H688a16 16 0 0 0-16 16v112a16 16 0 0 0 16 16zM848 880h-144v-96a16 16 0 0 0-32 0v112a16 16 0 0 0 16 16h160a16 16 0 0 0 0-32zM630.592 379.888H528V304a16 16 0 0 0-32 0v75.888h-102.592a16 16 0 0 0-16 16v235.888a16 16 0 0 0 16 16H496V720a16 16 0 0 0 32 0v-72.224h102.592a16 16 0 0 0 16-16V395.888a16 16 0 0 0-16-16zM409.408 615.776V411.888h205.168v203.888H409.408zM189.232 623.44c0.928 0.176 1.792 0.56 2.768 0.56h88.192a16 16 0 0 0 0-32H192c-0.976 0-1.84 0.384-2.768 0.56A47.84 47.84 0 0 0 144 560a48 48 0 1 0 0 96 47.84 47.84 0 0 0 45.232-32.56zM144 464a47.84 47.84 0 0 0 45.232-32.56c0.928 0.176 1.792 0.56 2.768 0.56h88.192a16 16 0 0 0 0-32H192c-0.976 0-1.84 0.384-2.768 0.56A47.84 47.84 0 0 0 144 368a48 48 0 1 0 0 96zM864 560a47.84 47.84 0 0 0-45.056 32H736a16 16 0 0 0 0 32h82.944A47.84 47.84 0 0 0 864 656a48 48 0 1 0 0-96zM818.944 400H736a16 16 0 0 0 0 32h82.944A47.84 47.84 0 0 0 864 464a48 48 0 1 0 0-96 47.84 47.84 0 0 0-45.056 32z" fill="#49A3FE" p-id="13087"></path><path d="M729.408 281.6H294.592a16 16 0 0 0-16 16v432.464a16 16 0 0 0 16 16h434.832a16 16 0 0 0 16-16V297.6c-0.016-8.832-7.168-16-16.016-16z m-16 70.64c-0.416-0.032-0.784-0.24-1.216-0.24H688a16 16 0 0 0 0 32h24.192c0.432 0 0.8-0.208 1.216-0.24v256.496c-0.416-0.048-0.784-0.256-1.216-0.256H688a16 16 0 0 0 0 32h24.192c0.432 0 0.8-0.208 1.216-0.24v42.304H310.592V672h17.6a16 16 0 0 0 0-32h-17.6V384h17.6a16 16 0 0 0 0-32h-17.6v-38.4h402.832v38.64zM448 256a16 16 0 0 0 16-16V144a16 16 0 0 0-32 0v96a16 16 0 0 0 16 16zM448 778.064a16 16 0 0 0-16 16v96a16 16 0 0 0 32 0v-96a16 16 0 0 0-16-16zM576 256a16 16 0 0 0 16-16V144a16 16 0 0 0-32 0v96a16 16 0 0 0 16 16zM576 778.064a16 16 0 0 0-16 16v96a16 16 0 0 0 32 0v-96a16 16 0 0 0-16-16z" fill="#0F13AE" p-id="13088"></path><path d="M896 128m-16 0a16 16 0 1 0 32 0 16 16 0 1 0-32 0Z" fill="#0F13AE" p-id="13089"></path><path d="M128 128m-16 0a16 16 0 1 0 32 0 16 16 0 1 0-32 0Z" fill="#0F13AE" p-id="13090"></path><path d="M128 896m-16 0a16 16 0 1 0 32 0 16 16 0 1 0-32 0Z" fill="#0F13AE" p-id="13091"></path><path d="M896 896m-16 0a16 16 0 1 0 32 0 16 16 0 1 0-32 0Z" fill="#0F13AE" p-id="13092"></path><path d="M448 80m-16 0a16 16 0 1 0 32 0 16 16 0 1 0-32 0Z" fill="#0F13AE" p-id="13093"></path><path d="M448 954.064m-16 0a16 16 0 1 0 32 0 16 16 0 1 0-32 0Z" fill="#0F13AE" p-id="13094"></path><path d="M576 80m-16 0a16 16 0 1 0 32 0 16 16 0 1 0-32 0Z" fill="#0F13AE" p-id="13095"></path><path d="M576 954.064m-16 0a16 16 0 1 0 32 0 16 16 0 1 0-32 0Z" fill="#0F13AE" p-id="13096"></path></svg>