<?xml version="1.0" standalone="no"?><!DOCTYPE svg PUBLIC "-//W3C//DTD SVG 1.1//EN" "http://www.w3.org/Graphics/SVG/1.1/DTD/svg11.dtd"><svg t="1597219638766" class="icon" viewBox="0 0 1024 1024" version="1.1" xmlns="http://www.w3.org/2000/svg" p-id="26785" xmlns:xlink="http://www.w3.org/1999/xlink" width="200" height="200"><defs><style type="text/css"></style></defs><path d="M865.28 343.04c38.4 0 56.32 20.48 56.32 58.88v273.92c0 38.4-20.48 79.36-56.32 79.36h-33.28v135.68H819.2l-135.68-135.68h-227.84c-38.4 0-79.36-40.96-79.36-79.36v-12.8h215.04c74.24 0 125.44-71.68 125.44-145.92v-171.52h148.48zM591.36 184.32c38.4 0 56.32 20.48 56.32 58.88v273.92c0 38.4-20.48 79.36-56.32 79.36h-227.84l-135.68 135.68H194.56v-135.68h-12.8c-38.4 0-79.36-40.96-79.36-79.36V243.2C102.4 204.8 143.36 184.32 181.76 184.32h409.6z" p-id="26786" fill="#1296db"></path></svg>