<?xml version="1.0" standalone="no"?><!DOCTYPE svg PUBLIC "-//W3C//DTD SVG 1.1//EN" "http://www.w3.org/Graphics/SVG/1.1/DTD/svg11.dtd"><svg t="1624432320382" class="icon" viewBox="0 0 1529 1024" version="1.1" xmlns="http://www.w3.org/2000/svg" p-id="5904" xmlns:xlink="http://www.w3.org/1999/xlink" width="298.6328125" height="200"><defs><style type="text/css"></style></defs><path d="M1469.757843 0H56.113187c-29.753935 0-53.966063 24.212128-53.966064 53.966063v60.258071c0 29.753935 24.212128 53.966063 53.966064 53.966063h78.928392v756.287186c0 53.820863 42.047549 97.622914 93.73881 97.622915h1068.346552c51.691261 0 93.73881-43.789951 93.73881-97.622915V168.190197h78.892092c29.753935 0 53.966063-24.212128 53.966063-53.966063v-60.258071c0-29.753935-24.200028-53.966063-53.966063-53.966063zM1330.36568 924.477383c0 20.473224-14.907217 37.122844-33.238739 37.122844H228.780389c-18.331521 0-33.238739-16.64962-33.238739-37.122844V170.707H1330.36568v753.770383zM1463.223836 107.690126H62.647194v-47.190055H1463.223836v47.190055z" p-id="5905" fill="#515151"></path><path d="M604.73993 608.739613c12.717115 11.507113 32.355438 10.527012 43.862551-2.190102L871.533142 360.156922c11.507113-12.717115 10.527012-32.355438-2.190102-43.862551-12.717115-11.507113-32.355438-10.527012-43.862552 2.190102L602.549827 564.864962c-11.507113 12.717115-10.527012 32.355438 2.190103 43.874651zM862.337131 495.531881L639.41857 741.912369c-11.507113 12.717115-10.527012 32.355438 2.190103 43.862552 12.717115 11.507113 32.355438 10.527012 43.862551-2.190103l222.930661-246.380488c11.507113-12.717115 10.527012-32.355438-2.190102-43.862552-12.717115-11.507113-32.367538-10.527012-43.874652 2.190103z" p-id="5906" fill="#515151"></path></svg>