<?xml version="1.0" standalone="no"?><!DOCTYPE svg PUBLIC "-//W3C//DTD SVG 1.1//EN" "http://www.w3.org/Graphics/SVG/1.1/DTD/svg11.dtd"><svg t="1623815993750" class="icon" viewBox="0 0 1024 1024" version="1.1" xmlns="http://www.w3.org/2000/svg" p-id="5694" xmlns:xlink="http://www.w3.org/1999/xlink" width="200" height="200"><defs><style type="text/css"></style></defs><path d="M351.744 638.976L512 358.4 455.68 262.144a102.4 102.4 0 0 0-177.664 0l-217.6 376.832a102.4 102.4 0 0 0 89.088 153.6H440.32a102.4 102.4 0 0 1-88.576-153.6z" fill="#76FCB2" p-id="5695"></path><path d="M964.608 638.976l-217.6-376.832a102.4 102.4 0 0 0-177.664 0L512 358.4l219.648 380.928a102.4 102.4 0 0 0 88.576 51.2h55.296a102.4 102.4 0 0 0 89.088-151.552z" fill="#008477" p-id="5696"></path><path d="M732.672 741.376L512 358.4l-160.256 280.576a102.4 102.4 0 0 0 88.576 153.6H819.2a102.4 102.4 0 0 1-86.528-51.2z" fill="#50E296" p-id="5697"></path></svg>