<?xml version="1.0" standalone="no"?><!DOCTYPE svg PUBLIC "-//W3C//DTD SVG 1.1//EN" "http://www.w3.org/Graphics/SVG/1.1/DTD/svg11.dtd"><svg t="1597221113043" class="icon" viewBox="0 0 1024 1024" version="1.1" xmlns="http://www.w3.org/2000/svg" p-id="724" xmlns:xlink="http://www.w3.org/1999/xlink" width="200" height="200"><defs><style type="text/css"></style></defs><path d="M473.941333 1.024c-11.690667 0.170667-25.770667 0.512-31.445333 0.981333C287.018667 15.402667 147.968 107.434667 67.328 250.026667A534.613333 534.613333 0 0 0 0.853333 474.112c-1.706667 22.058667-0.853333 74.453333 1.493334 94.208 13.056 114.432 57.728 215.893333 130.986666 297.173333 83.712 92.714667 195.669333 147.925333 317.312 156.288 17.92 1.365333 44.501333 1.706667 43.52 0.512a102.570667 102.570667 0 0 0-14.421333-3.157333c-71.424-14.08-144.554667-48.213333-203.818667-95.232a526.72 526.72 0 0 1-104.533333-112.469333A528.554667 528.554667 0 0 1 80.341333 533.333333a529.664 529.664 0 0 1 23.893334-182.4c33.493333-107.605333 101.12-201.642667 190.933333-265.728A472.490667 472.490667 0 0 1 475.946667 5.205333l18.901333-4.181333z m62.933334 21.76C454.186667 27.733333 375.722667 55.424 311.466667 102.4 231.466667 160.853333 170.410667 240.810667 137.386667 330.496c-6.186667 16.938667-12.032 34.986667-12.032 37.504 0 0.512 163.328 1.024 439.893333 1.024 361.130667 0 440.149333-0.341333 440.149333-1.536 0-2.005333-6.528-22.4-12.074666-37.461333a605.013333 605.013333 0 0 0-34.986667-73.472c-17.066667-29.141333-38.826667-58.581333-62.890667-84.992-70.442667-77.653333-153.301333-125.184-248.32-142.250667-33.493333-6.016-76.8-8.533333-110.293333-6.528zM1016.746667 425.386667c-0.853333 0-204.458667 0-452.650667 0.170666l-451.157333 0.341334-0.469334 2.517333a619.52 619.52 0 0 0-5.717333 53.034667c0 1.194667 76.16 1.365333 458.538667 1.365333H1024v-3.2c0-4.352-2.986667-33.792-4.522667-45.013333-0.853333-6.826667-1.706667-9.216-2.688-9.216z m-451.114667 112.469333c-399.786667-0.170667-457.856 0-458.368 1.493333-0.853333 1.706667 1.024 23.765333 3.2 41.514667 0.853333 6.698667 1.493333 12.714667 1.493333 13.397333 0 1.152 91.178667 1.493333 453.333334 1.493334h453.290666l1.024-8.021334c1.834667-13.909333 4.352-41.386667 4.010667-45.525333l-0.341333-4.010667z m0.128 115.968c-379.008 0-440.405333 0.170667-440.405333 1.493333 0 0.853333 2.304 8.874667 5.162666 17.92A474.581333 474.581333 0 0 0 218.88 832.853333c12.032 14.592 40.32 44.202667 52.394667 54.912 66.901333 59.733333 138.538667 94.549333 221.013333 107.946667 25.813333 4.010667 37.845333 4.821333 74.666667 4.693333 38.826667 0 55.381333-1.365333 86.357333-7.552 90.026667-17.749333 166.997333-61.909333 235.946667-135.253333 54.058667-57.514667 89.856-117.76 112.128-188.202667l4.992-15.573333z" p-id="725"></path></svg>