<?xml version="1.0" standalone="no"?><!DOCTYPE svg PUBLIC "-//W3C//DTD SVG 1.1//EN" "http://www.w3.org/Graphics/SVG/1.1/DTD/svg11.dtd"><svg t="1597219127775" class="icon" viewBox="0 0 1024 1024" version="1.1" xmlns="http://www.w3.org/2000/svg" p-id="9538" xmlns:xlink="http://www.w3.org/1999/xlink" width="200" height="200"><defs><style type="text/css"></style></defs><path d="M512 388.7104c-168.5504 0-347.7504-46.4896-347.7504-132.7104S343.4496 123.2896 512 123.2896s347.7504 46.4896 347.7504 132.7104-179.2 132.7104-347.7504 132.7104z m0-225.28c-190.464 0-307.6096 53.8624-307.6096 92.5696S321.536 348.5696 512 348.5696s307.6096-53.8624 307.6096-92.5696S702.464 163.4304 512 163.4304zM433.3568 549.4784h-1.6384c-123.2896-10.4448-267.4688-50.5856-267.4688-129.4336 0-11.0592 9.0112-20.0704 20.0704-20.0704s20.0704 9.0112 20.0704 20.0704c0 33.5872 88.064 77.2096 230.4 89.2928 11.0592 1.024 19.2512 10.6496 18.432 21.7088-0.8192 10.4448-9.6256 18.432-19.8656 18.432zM433.3568 713.1136h-1.6384c-123.2896-10.4448-267.4688-50.5856-267.4688-129.4336 0-11.0592 9.0112-20.0704 20.0704-20.0704s20.0704 9.0112 20.0704 20.0704c0 33.5872 88.064 77.2096 230.4 89.2928 11.0592 1.024 19.2512 10.6496 18.432 21.7088-0.8192 10.6496-9.6256 18.432-19.8656 18.432zM433.3568 897.4336h-1.6384c-123.2896-10.4448-267.4688-50.5856-267.4688-129.4336 0-11.0592 9.0112-20.0704 20.0704-20.0704s20.0704 9.0112 20.0704 20.0704c0 33.5872 88.064 77.2096 230.4 89.2928 11.0592 1.024 19.2512 10.6496 18.432 21.7088-0.8192 10.6496-9.6256 18.432-19.8656 18.432z" p-id="9539" fill="#1296db"></path><path d="M839.68 439.9104c-11.0592 0-20.0704-9.0112-20.0704-20.0704V266.24c0-11.0592 9.0112-20.0704 20.0704-20.0704s20.0704 9.0112 20.0704 20.0704v153.6c0 11.0592-9.0112 20.0704-20.0704 20.0704zM184.32 798.3104c-11.0592 0-20.0704-9.0112-20.0704-20.0704V266.24c0-11.0592 9.0112-20.0704 20.0704-20.0704s20.0704 9.0112 20.0704 20.0704v512c0 11.0592-9.0112 20.0704-20.0704 20.0704z" p-id="9540" fill="#1296db"></path><path d="M677.0688 647.168c-88.064 0-183.0912-23.9616-183.0912-76.3904s94.8224-76.3904 183.0912-76.3904S860.16 518.3488 860.16 570.7776s-94.8224 76.3904-183.0912 76.3904z m0-111.8208c-88.8832 0-139.8784 24.7808-142.1312 35.4304 2.2528 10.4448 53.248 35.2256 142.1312 35.2256 88.4736 0 139.4688-24.7808 142.1312-35.4304-2.6624-10.4448-53.6576-35.2256-142.1312-35.2256zM819.2 570.7776z" p-id="9541" fill="#1296db"></path><path d="M677.0688 728.4736c-88.064 0-183.0912-23.9616-183.0912-76.3904 0-11.264 9.216-20.48 20.48-20.48s20.48 9.216 20.48 20.48c2.2528 10.4448 53.248 35.4304 142.1312 35.4304s139.8784-24.9856 142.1312-35.4304c0-11.264 9.216-20.48 20.48-20.48s20.48 9.216 20.48 20.48c0 52.4288-94.8224 76.3904-183.0912 76.3904z" p-id="9542" fill="#1296db"></path><path d="M677.0688 809.7792c-88.064 0-183.0912-23.9616-183.0912-76.3904 0-11.264 9.216-20.48 20.48-20.48s20.48 9.216 20.48 20.48c2.2528 10.4448 53.248 35.4304 142.1312 35.4304s139.8784-24.9856 142.1312-35.4304c0-11.264 9.216-20.48 20.48-20.48s20.48 9.216 20.48 20.48c0 52.4288-94.8224 76.3904-183.0912 76.3904z" p-id="9543" fill="#1296db"></path><path d="M677.0688 901.12c-88.064 0-183.0912-23.9616-183.0912-76.3904 0-11.264 9.216-20.48 20.48-20.48s20.48 9.216 20.48 20.48c2.2528 10.4448 53.248 35.4304 142.1312 35.4304s139.8784-24.9856 142.1312-35.4304c0-11.264 9.216-20.48 20.48-20.48s20.48 9.216 20.48 20.48c0 52.4288-94.8224 76.3904-183.0912 76.3904z" p-id="9544" fill="#1296db"></path><path d="M514.4576 850.3296c-11.264 0-20.48-9.216-20.48-20.48v-253.952c0-11.264 9.216-20.48 20.48-20.48s20.48 9.216 20.48 20.48v253.952c0.2048 11.264-9.0112 20.48-20.48 20.48zM839.68 850.3296c-11.264 0-20.48-9.216-20.48-20.48v-253.952c0-11.264 9.216-20.48 20.48-20.48s20.48 9.216 20.48 20.48v253.952c0 11.264-9.216 20.48-20.48 20.48z" p-id="9545" fill="#1296db"></path></svg>