<?xml version="1.0" standalone="no"?><!DOCTYPE svg PUBLIC "-//W3C//DTD SVG 1.1//EN" "http://www.w3.org/Graphics/SVG/1.1/DTD/svg11.dtd"><svg t="1597218747637" class="icon" viewBox="0 0 1024 1024" version="1.1" xmlns="http://www.w3.org/2000/svg" p-id="6558" xmlns:xlink="http://www.w3.org/1999/xlink" width="200" height="200"><defs><style type="text/css"></style></defs><path d="M718.93 1024a28.972 28.972 0 0 1-28.962-28.968v-162.33c0-15.996 12.972-28.968 28.968-28.968h162.33c11.718 0 22.278 7.06 26.764 17.882a28.974 28.974 0 0 1-6.28 31.568l-162.33 162.33A28.958 28.958 0 0 1 718.93 1024z m28.974-162.33v63.428l63.428-63.428h-63.428z" fill="#2D527C" p-id="6559"></path><path d="M590.804 1024H184.574c-39.046 0-70.808-31.762-70.808-70.806V120.524c0-39.046 31.762-70.808 70.808-70.808h654.856c39.046 0 70.806 31.766 70.806 70.808V832.7a28.98 28.98 0 0 1-8.484 20.482l-162.33 162.33c-11.314 11.308-29.652 11.308-40.968 0-11.312-11.312-11.312-29.654 0-40.968l153.846-153.846V120.524a12.888 12.888 0 0 0-12.87-12.874H184.574a12.89 12.89 0 0 0-12.874 12.874v832.666a12.886 12.886 0 0 0 12.874 12.87h406.232c15.996 0 28.968 12.972 28.968 28.968-0.002 15.998-12.974 28.972-28.97 28.972z" fill="#2D527C" p-id="6560"></path><path d="M881.27 276.162V120.524c0-23.108-18.734-41.838-41.84-41.838H184.574c-23.108 0-41.84 18.73-41.84 41.838v155.636h738.536z" fill="#CEE8FA" p-id="6561"></path><path d="M881.27 305.128H142.732c-15.998 0-28.968-12.972-28.968-28.968V120.524c0-39.046 31.762-70.806 70.808-70.806h654.856c39.046 0 70.806 31.762 70.806 70.806v155.636c0.004 15.998-12.968 28.968-28.964 28.968zM171.7 247.194h680.6V120.524a12.884 12.884 0 0 0-12.87-12.87H184.574a12.888 12.888 0 0 0-12.874 12.87v126.67z" fill="#2D527C" p-id="6562"></path><path d="M259.26 161.254c-15.998 0-28.968-12.972-28.968-28.968V28.968C230.292 12.972 243.262 0 259.26 0s28.968 12.972 28.968 28.968v103.318c0 15.996-12.968 28.968-28.968 28.968zM427.752 161.254c-15.998 0-28.968-12.972-28.968-28.968V28.968C398.786 12.972 411.754 0 427.752 0s28.968 12.972 28.968 28.968v103.318c0 15.996-12.968 28.968-28.968 28.968zM596.248 161.254c-15.996 0-28.968-12.972-28.968-28.968V28.968C567.28 12.972 580.252 0 596.248 0s28.968 12.972 28.968 28.968v103.318c0 15.996-12.972 28.968-28.968 28.968zM764.742 161.254c-15.996 0-28.968-12.972-28.968-28.968V28.968C735.776 12.972 748.746 0 764.742 0s28.968 12.972 28.968 28.968v103.318c0 15.996-12.972 28.968-28.968 28.968zM259.26 881.578c-15.998 0-28.968-12.972-28.968-28.968V388.166c0-15.996 12.968-28.968 28.968-28.968s28.968 12.972 28.968 28.968v464.444c0 15.996-12.968 28.968-28.968 28.968z" fill="#2D527C" p-id="6563"></path></svg>