<?xml version="1.0" standalone="no"?><!DOCTYPE svg PUBLIC "-//W3C//DTD SVG 1.1//EN" "http://www.w3.org/Graphics/SVG/1.1/DTD/svg11.dtd"><svg t="1597218742950" class="icon" viewBox="0 0 1024 1024" version="1.1" xmlns="http://www.w3.org/2000/svg" p-id="6396" xmlns:xlink="http://www.w3.org/1999/xlink" width="200" height="200"><defs><style type="text/css"></style></defs><path d="M511.998969 511.998969m-511.998969 0a511.998969 511.998969 0 1 0 1023.997938 0 511.998969 511.998969 0 1 0-1023.997938 0Z" fill="#F16051" p-id="6397"></path><path d="M92.800097 164.799887h633.599806v766.400016h-633.599806z" fill="#FDBF5E" p-id="6398"></path><path d="M724.799404 947.200773H92.800097c-9.600935 0-16.00087-6.399936-16.00087-16.00087V164.799887c0-9.600935 6.399936-16.00087 16.00087-16.00087h633.599806c9.600935 0 16.00087 6.399936 16.00087 16.00087v766.400016c-1.6005 9.598872-8.000435 16.00087-17.601369 16.00087zM108.800967 915.199033h601.600129V180.800757H108.800967v734.398276z" fill="#193651" p-id="6399"></path><path d="M146.255955 219.71187H671.054795v657.59905H146.255955z" fill="#FFFFFF" p-id="6400"></path><path d="M187.200693 92.800097c-17.599307 0-31.999678 14.400371-31.999678 31.999677v80.000226c0 17.599307 14.400371 33.600177 31.999678 33.600177s31.999678-14.400371 31.999678-33.600177V124.799774c1.6005-17.599307-12.799871-31.999678-31.999678-31.999677z" fill="#FFFFFF" p-id="6401"></path><path d="M187.200693 254.398985c-27.200242 0-48.000548-22.400806-48.000548-49.598985V124.799774c0-27.200242 22.400806-48.000548 48.000548-48.000547 27.200242 0 48.000548 22.400806 48.000548 48.000547v80.000226c1.598437 28.800741-20.800306 49.598985-48.000548 49.598985z m0-145.598018c-9.600935 0-16.00087 8.000435-16.00087 16.00087v80.000225c0 9.600935 8.000435 17.599307 16.00087 17.599308s16.00087-8.000435 16.00087-17.599308V124.799774c1.598437-9.598872-6.401998-15.998808-16.00087-15.998807z" fill="#193651" p-id="6402"></path><path d="M334.39921 92.800097c-17.599307 0-31.999678 14.400371-31.999677 31.999677v80.000226c0 17.599307 14.400371 33.600177 31.999677 33.600177 17.599307 0 31.999678-14.400371 31.999678-33.600177V124.799774c1.6005-17.599307-12.799871-31.999678-31.999678-31.999677z" fill="#FFFFFF" p-id="6403"></path><path d="M334.39921 254.398985c-27.200242 0-48.000548-22.400806-48.000547-49.598985V124.799774c0-27.200242 22.400806-48.000548 48.000547-48.000547 27.200242 0 48.000548 22.400806 48.000548 48.000547v80.000226c1.6005 28.800741-20.800306 49.598985-48.000548 49.598985z m0-145.598018c-9.600935 0-16.00087 8.000435-16.00087 16.00087v80.000225c0 9.600935 8.000435 17.599307 16.00087 17.599308 9.600935 0 16.00087-8.000435 16.000871-17.599308V124.799774c1.6005-9.598872-6.399936-15.998808-16.000871-15.998807z" fill="#193651" p-id="6404"></path><path d="M483.20029 92.800097c-17.599307 0-31.999678 14.400371-31.999678 31.999677v80.000226c0 17.599307 14.400371 31.999678 31.999678 31.999678s31.999678-14.400371 31.999678-31.999678V124.799774c0-17.599307-14.400371-31.999678-31.999678-31.999677z" fill="#FFFFFF" p-id="6405"></path><path d="M483.20029 76.799227c-27.200242 0-48.000548 22.400806-48.000548 48.000547v80.000226c0 27.200242 22.400806 49.598985 48.000548 49.598985 25.599742 0 48.000548-22.400806 48.000548-49.598985V124.799774c0-27.200242-22.400806-48.000548-48.000548-48.000547z m15.998808 129.601273c0 9.600935-8.000435 17.599307-16.00087 17.599307s-16.00087-8.000435-16.000871-17.599307V126.400274c0-9.600935 8.000435-16.00087 16.000871-16.00087s16.00087 8.000435 16.00087 16.00087v80.000226z" fill="#193651" p-id="6406"></path><path d="M630.398808 92.800097c-17.599307 0-31.999678 14.400371-31.999678 31.999677v80.000226c0 17.599307 14.400371 33.600177 31.999678 33.600177s31.999678-14.400371 31.999677-33.600177V124.799774c0.002062-17.599307-14.398308-31.999678-31.999677-31.999677z" fill="#FFFFFF" p-id="6407"></path><path d="M630.398808 254.398985c-27.200242 0-49.598985-22.400806-49.598985-49.598985V124.799774c0-27.200242 22.400806-48.000548 49.598985-48.000547 27.200242 0 48.000548 22.400806 48.000547 48.000547v80.000226c0 28.800741-20.800306 49.598985-48.000547 49.598985z m0-145.598018c-9.600935 0-17.599307 8.000435-17.599308 16.00087v80.000225c0 9.600935 8.000435 17.599307 17.599308 17.599308s16.00087-8.000435 16.00087-17.599308V124.799774c0-9.598872-6.399936-15.998808-16.00087-15.998807zM486.399227 353.599017H196.799565c-9.600935 0-16.00087-6.399936-16.00087-16.00087 0-9.600935 6.399936-16.00087 16.00087-16.00087H486.399227c9.600935 0 16.00087 6.399936 16.00087 16.00087 0 9.600935-6.399936 16.00087-16.00087 16.00087zM620.799936 353.599017h-67.200355c-9.600935 0-16.00087-6.399936-16.00087-16.00087 0-9.600935 6.399936-16.00087 16.00087-16.00087h67.200355c9.600935 0 16.00087 6.399936 16.00087 16.00087 0 9.600935-8.000435 16.00087-16.00087 16.00087zM620.799936 439.999178H331.200274c-9.600935 0-16.00087-6.399936-16.00087-16.00087 0-9.600935 6.399936-16.00087 16.00087-16.00087h289.599662c9.600935 0 16.00087 6.399936 16.00087 16.00087 0 8.002498-8.000435 16.00087-16.00087 16.00087zM263.999919 439.999178H196.799565c-9.600935 0-16.00087-6.399936-16.00087-16.00087 0-9.600935 6.399936-16.00087 16.00087-16.00087H263.999919c9.600935 0 16.00087 6.399936 16.000871 16.00087 0 8.002498-6.399936 16.00087-16.000871 16.00087zM486.399227 524.79884H196.799565c-9.600935 0-16.00087-6.399936-16.00087-16.00087 0-9.600935 6.399936-16.00087 16.00087-16.00087H486.399227c9.600935 0 16.00087 6.399936 16.00087 16.00087 0 8.002498-6.399936 16.00087-16.00087 16.00087zM620.799936 524.79884h-67.200355c-9.600935 0-16.00087-6.399936-16.00087-16.00087 0-9.600935 6.399936-16.00087 16.00087-16.00087h67.200355c9.600935 0 16.00087 6.399936 16.00087 16.00087 0 8.002498-8.000435 16.00087-16.00087 16.00087zM620.799936 609.600564H331.200274c-9.600935 0-16.00087-6.399936-16.00087-16.00087s6.399936-16.00087 16.00087-16.00087h289.599662c9.600935 0 16.00087 6.399936 16.00087 16.00087s-8.000435 16.00087-16.00087 16.00087zM263.999919 609.600564H196.799565c-9.600935 0-16.00087-6.399936-16.00087-16.00087s6.399936-16.00087 16.00087-16.00087H263.999919c9.600935 0 16.00087 6.399936 16.000871 16.00087s-6.399936 16.00087-16.000871 16.00087zM180.800757 688.00029h31.999678v27.200242H180.800757zM254.398985 688.00029h31.999678v27.200242h-31.999678zM327.999275 688.00029h31.999678v27.200242H327.999275z" fill="#193651" p-id="6408"></path><path d="M649.600677 576.000387c-17.599307 9.600935-23.999243 30.399178-14.400371 48.000548l168.000886 321.599339 62.400919-31.999678L697.599162 591.999194c-9.598872-17.599307-30.399178-23.999243-47.998485-15.998807z" fill="#E1E6E9" p-id="6409"></path><path d="M880.000419 905.600161l-169.599323-321.599339c-12.799871-25.599742-44.799549-35.200677-68.800854-22.400806-25.599742 12.799871-35.200677 43.199049-22.400806 68.800854l168.000886 321.599339c3.200999 4.799436 8.000435 8.000435 14.400371 8.000436 3.200999 0 4.799436 0 8.000435-1.6005l62.400918-31.999678c3.200999-1.6005 6.399936-4.799436 8.000435-9.600934 1.596375-3.198937 1.596375-8.000435-0.002062-11.199372z m-70.401354 17.599307l-160.000451-307.198968c-4.799436-9.600935-1.6005-20.800306 8.000435-25.599743s20.800306-1.6005 25.599743 8.000435L844.799742 905.600161l-35.200677 17.599307z" fill="#193651" p-id="6410"></path><path d="M865.600048 407.9995a57.358107 57.358107 0 0 0-57.59942 57.59942v12.799872h113.600403v-12.799872c1.598437-31.999678-24.001305-57.59942-56.000983-57.59942z" fill="#4FBF9F" p-id="6411"></path><path d="M808.000628 494.399662c-4.799436 0-8.000435-1.6005-11.199371-4.799436-3.200999-3.198937-4.799436-6.399936-4.799436-11.199372v-12.799871c0-40.000113 31.999678-73.60029 73.60029-73.60029 40.000113 0 73.60029 31.999678 73.60029 73.60029v12.799871c0 9.600935-6.399936 16.00087-16.00087 16.00087h-115.200903z m57.59942-70.399291c-22.400806 0-40.000113 17.599307-41.600612 38.399613h81.600725c0-20.800306-17.60137-38.399613-40.000113-38.399613z" fill="#193651" p-id="6412"></path><path d="M808.000628 478.400854h113.600403v124.799774h-113.600403z" fill="#4FBF9F" p-id="6413"></path><path d="M923.199468 619.199436h-113.600403c-9.600935 0-16.00087-6.399936-16.00087-16.00087v-124.799774c0-9.600935 6.399936-16.00087 16.00087-16.000871h113.600403c4.799436 0 8.000435 1.6005 11.199372 4.799436s4.799436 6.399936 4.799436 11.199372v124.799774c0.002062 9.602997-7.998373 16.002933-15.998808 16.002933z m-99.200032-31.999678h81.600725v-92.800096h-81.600725v92.800096z" fill="#193651" p-id="6414"></path></svg>