<?xml version="1.0" standalone="no"?><!DOCTYPE svg PUBLIC "-//W3C//DTD SVG 1.1//EN" "http://www.w3.org/Graphics/SVG/1.1/DTD/svg11.dtd"><svg t="1623815924562" class="icon" viewBox="0 0 1024 1024" version="1.1" xmlns="http://www.w3.org/2000/svg" p-id="1500" xmlns:xlink="http://www.w3.org/1999/xlink" width="200" height="200"><defs><style type="text/css"></style></defs><path d="M456.430933 457.437867c36.181333 8.874667 73.966933 8.874667 110.148267 0a231.936 231.936 0 0 1 169.847467-169.8304 231.543467 231.543467 0 1 0-449.8432 0 231.867733 231.867733 0 0 1 169.847466 169.8304z" fill="#7ABDF7" p-id="1501"></path><path d="M566.5792 567.534933c-36.181333-8.8576-73.966933-8.8576-110.148267 0a231.936 231.936 0 0 1-169.8304 169.847467 231.543467 231.543467 0 1 0 449.860267 0 231.867733 231.867733 0 0 1-169.8816-169.847467z" fill="#0D74F5" p-id="1502"></path><path d="M791.5008 280.9344c-18.551467 0-37.034667 2.218667-55.04 6.638933a231.799467 231.799467 0 0 1-169.813333 169.813334c-8.874667 36.181333-8.874667 73.966933 0 110.148266a231.850667 231.850667 0 0 1 169.813333 169.847467 231.543467 231.543467 0 1 0 55.04-456.4992v0.0512z" fill="#4494F7" p-id="1503"></path><path d="M456.430933 567.534933c8.874667-36.181333 8.874667-73.966933 0-110.148266a231.867733 231.867733 0 0 1-169.8304-169.813334 231.560533 231.560533 0 1 0 0 449.860267 231.8848 231.8848 0 0 1 169.8304-169.898667z" fill="#005CF4" p-id="1504"></path><path d="M566.5792 457.437867a231.936 231.936 0 0 0 169.847467-169.8304 231.936 231.936 0 0 0-169.847467 169.8304z" fill="#186EF9" p-id="1505"></path><path d="M566.5792 567.534933a231.867733 231.867733 0 0 0 169.847467 169.847467 231.936 231.936 0 0 0-169.847467-169.847467z" fill="#0246F2" p-id="1506"></path><path d="M456.430933 457.437867a231.936 231.936 0 0 0-169.8304-169.8304 231.936 231.936 0 0 0 169.8304 169.8304z" fill="#0046F8" p-id="1507"></path><path d="M456.430933 567.534933a231.936 231.936 0 0 0-169.8304 169.847467 231.936 231.936 0 0 0 169.8304-169.847467z" fill="#0729F1" p-id="1508"></path><path d="M456.430933 457.437867c36.181333 8.874667 73.966933 8.874667 110.148267 0a231.936 231.936 0 0 1 169.847467-169.8304 231.543467 231.543467 0 1 0-449.8432 0 231.867733 231.867733 0 0 1 169.847466 169.8304z" fill="#7ABDF7" p-id="1509"></path><path d="M566.5792 567.534933c-36.181333-8.8576-73.966933-8.8576-110.148267 0a231.936 231.936 0 0 1-169.8304 169.847467 231.543467 231.543467 0 1 0 449.860267 0 231.867733 231.867733 0 0 1-169.8816-169.847467z" fill="#0D74F5" p-id="1510"></path><path d="M791.5008 280.9344c-18.551467 0-37.034667 2.218667-55.04 6.638933a231.799467 231.799467 0 0 1-169.813333 169.813334c-8.874667 36.181333-8.874667 73.966933 0 110.148266a231.850667 231.850667 0 0 1 169.813333 169.847467 231.543467 231.543467 0 1 0 55.04-456.4992v0.0512z" fill="#4494F7" p-id="1511"></path><path d="M456.430933 567.534933c8.874667-36.181333 8.874667-73.966933 0-110.148266a231.867733 231.867733 0 0 1-169.8304-169.813334 231.560533 231.560533 0 1 0 0 449.860267 231.8848 231.8848 0 0 1 169.8304-169.898667z" fill="#005CF4" p-id="1512"></path><path d="M566.5792 457.437867a231.936 231.936 0 0 0 169.847467-169.8304 231.936 231.936 0 0 0-169.847467 169.8304z" fill="#186EF9" p-id="1513"></path><path d="M566.5792 567.534933a231.867733 231.867733 0 0 0 169.847467 169.847467 231.936 231.936 0 0 0-169.847467-169.847467z" fill="#0246F2" p-id="1514"></path><path d="M456.430933 457.437867a231.936 231.936 0 0 0-169.8304-169.8304 231.936 231.936 0 0 0 169.8304 169.8304z" fill="#0046F8" p-id="1515"></path><path d="M456.430933 567.534933a231.936 231.936 0 0 0-169.8304 169.847467 231.936 231.936 0 0 0 169.8304-169.847467z" fill="#0729F1" p-id="1516"></path></svg>