<?xml version="1.0" standalone="no"?><!DOCTYPE svg PUBLIC "-//W3C//DTD SVG 1.1//EN" "http://www.w3.org/Graphics/SVG/1.1/DTD/svg11.dtd"><svg t="1623813560060" class="icon" viewBox="0 0 1624 1024" version="1.1" xmlns="http://www.w3.org/2000/svg" p-id="34972" xmlns:xlink="http://www.w3.org/1999/xlink" width="317.1875" height="200"><defs><style type="text/css"></style></defs><path d="M636.052013 308.455642v-0.047701l320.456127 191.949308 190.947584-80.376387A308.960156 308.960156 0 0 1 1270.381511 394.651567c7.059766 0 14.024129 0.333908 20.940792 0.763218a477.011203 477.011203 0 0 0-860.575911-143.723476L435.611906 251.548206a379.700918 379.700918 0 0 1 200.440107 56.907436z" fill="#0364B8" p-id="34973"></path><path d="M636.099715 308.407941A379.700918 379.700918 0 0 0 435.611906 251.548206l-4.865514 0.143103a381.465859 381.465859 0 0 0-308.149238 599.603083L405.083189 732.375499l125.644751-52.852842 279.671668-117.726365 146.060831-61.439043z" fill="#0078D4" p-id="34974"></path><path d="M1291.322303 395.414785A313.730268 313.730268 0 0 0 1270.381511 394.651567a308.960156 308.960156 0 0 0-122.878086 25.376996l-190.995285 80.328686 55.381 33.152279 181.502763 108.710853 79.18386 47.414914 270.79926 162.183809a310.057282 310.057282 0 0 0-252.05272-456.404319z" fill="#1490DF" p-id="34975"></path><path d="M1272.575763 689.635295l-79.18386-47.414914-181.502763-108.758554-55.333299-33.104578-146.108532 61.439043-279.671668 117.726365L405.083189 732.375499l-282.581437 118.918893A381.08425 381.08425 0 0 0 435.611906 1014.766131h834.769605a309.96188 309.96188 0 0 0 272.993512-162.947027z" fill="#28A8EA" p-id="34976"></path></svg>