<?xml version="1.0" standalone="no"?><!DOCTYPE svg PUBLIC "-//W3C//DTD SVG 1.1//EN" "http://www.w3.org/Graphics/SVG/1.1/DTD/svg11.dtd"><svg t="1597219490412" class="icon" viewBox="0 0 1600 1024" version="1.1" xmlns="http://www.w3.org/2000/svg" p-id="21562" xmlns:xlink="http://www.w3.org/1999/xlink" width="312.5" height="200"><defs><style type="text/css"></style></defs><path d="M1179.936 414.912h-33.92v211.072h161.472l21.408-33.984h-148.96v-177.088z m-449.472 10.752l-125.792 200.32h41.984l38.336-60.832h81.152l21.376-34.016h-81.12l44.608-69.76 103.36 164.608h41.92l-127.456-201.216c-8-12.544-29.472-12.544-38.368 0.896z m226.528 24.064h144.512l21.376-33.92H956.16c-58.016 0-96.352 47.424-96.352 105.504 0 58.144 38.336 105.568 96.32 105.568h140.896l22.336-34.016h-162.336c-39.296 0-62.432-32.16-62.432-70.624 0-38.432 23.2-72.448 62.4-72.448v-0.064zM245.312 592H96.32c-39.296 0-61.568-32.256-61.568-70.72 0-38.432 23.296-70.592 61.568-70.592h148.928c39.296 0 62.432 32.16 62.432 70.624 0 38.432-23.2 70.688-62.4 70.688z m0-177.088H96.32C38.336 414.912 0 462.336 0 520.416c0 58.144 38.336 105.6 96.32 105.6h148.96c57.984 0 96.32-47.456 96.32-105.6 0-58.08-38.336-105.504-96.32-105.504z m1188.8 34.88h144.48L1600 415.808h-166.784c-57.984 0-96.32 47.424-96.32 105.504 0 58.144 38.336 105.568 96.32 105.568h140.96l22.272-34.016h-162.272c-33.024 0-54.432-23.264-60.704-54.56h181.92l22.336-33.92H1374.4c5.376-32.256 26.784-54.592 59.744-54.592zM525.28 540.16c34.88 0 62.496-27.744 62.496-62.592a62.336 62.336 0 0 0-18.176-44.384 61.984 61.984 0 0 0-44.256-18.24h-174.848v211.072h38.368v-176.192h136.48a28.8 28.8 0 0 1 28.544 28.608 28.8 28.8 0 0 1-28.544 28.608h-109.728l124 119.936h49.92l-88.256-85.056 24-1.76zM200.768 341.6c42.688-107.328 133.728-180.64 262.144-180.64h696.512c128.416 0 219.36 73.312 262.24 180.64h168.512C1536.704 143.936 1378.784 0 1159.488 0H462.912C244.416 0 85.632 143.008 32.192 341.6h168.576z m1221.76 329.056c-42.784 107.328-133.824 180.64-262.24 180.64H462.912c-128.416 0-219.456-73.312-262.24-180.64H32.16c53.472 197.728 211.296 341.6 430.752 341.6h696.512c218.496 0 377.28-143.04 430.752-341.6h-167.648z" p-id="21563" fill="#d81e06"></path></svg>