<?xml version="1.0" standalone="no"?><!DOCTYPE svg PUBLIC "-//W3C//DTD SVG 1.1//EN" "http://www.w3.org/Graphics/SVG/1.1/DTD/svg11.dtd"><svg t="1692770228120" class="icon" viewBox="0 0 1024 1024" version="1.1" xmlns="http://www.w3.org/2000/svg" p-id="12276" xmlns:xlink="http://www.w3.org/1999/xlink" width="200" height="200"><path d="M695.05 132.76h-474.3l-40.47 68.69H733.8l-38.75-68.69z m-334.08 221.1v48.13H223.45v-48.13h137.52z m397.44-83.58H154.49v223.74h603.92V270.28zM360.97 661.03v48.13H223.45v-48.13h137.52zM715.09 64c12.39 0 23.83 6.67 29.93 17.46l77.75 137.52a35.92 35.92 0 0 1 2.03 4.2c0.08 0.22 0.17 0.43 0.25 0.65 1.37 3.35 2.16 7.44 2.22 11.47l-0.05 0.6v351.56h-68.76l-0.06-45.3H154.49l0.04 278.27 331.96 0.02v68.76H120.22c-16.88 0-30.91-12.16-33.83-28.2l-0.55-6.18-0.04-619.98c0.16-5.5 1.68-11.1 4.79-16.39l-1.47 2.77c0.47-0.99 0.99-1.96 1.54-2.9l80.86-137.39A34.376 34.376 0 0 1 201.15 64h513.94z m19.56 620.96l-5.61 0.12c-54.08 2.29-96.75 43.95-96.76 93.69l0.31 18.18-16.83 4.87c-26.47 8.28-44.29 31.23-44.3 56.23l0.11 3.85c2.04 31.73 30.4 56.85 65.34 56.85h194.55c36.45 0 65.48-27.18 65.49-59.45l-0.11-3.96c-1.46-24.31-18.96-45.62-43.71-53.35l-17.51-5 0.44-16-0.4-10.88c-4.9-47.54-48.18-85.15-101.01-85.15z m-0.44-41.25c71.6 0 131.35 49.83 141.61 115.76l0.89 7.46 6.37 3.03c28.63 15.01 48.86 42.08 53.92 73.85l1.05 9.67 0.15 5.2c0 56.3-48.09 101.32-106.73 101.32H636.92c-56.2 0-103.05-41.48-106.55-96.15l-0.15-5.17c0-37.83 22-71.56 55.81-89.03l5.6-2.65 1.01-8.28c9.55-59.87 60.51-106.8 124.34-114.04l11.19-0.85 6.04-0.12z" p-id="12277" fill="#1296db"></path></svg>