<?xml version="1.0" standalone="no"?><!DOCTYPE svg PUBLIC "-//W3C//DTD SVG 1.1//EN" "http://www.w3.org/Graphics/SVG/1.1/DTD/svg11.dtd"><svg t="1692777304907" class="icon" viewBox="0 0 1024 1024" version="1.1" xmlns="http://www.w3.org/2000/svg" p-id="41783" xmlns:xlink="http://www.w3.org/1999/xlink" width="200" height="200"><path d="M924.461784 396.378224c10.898598 27.375388 34.321276 12.717418 52.044029 15.252309 15.137738 2.155373 30.819689 0.443964 47.475498 0.443964v49.72396c-26.623514 0-52.273172-0.644464-77.844062 0.465446-6.100924 0.272107-11.793687 6.731066-17.980539 14.922916-5.513746-2.570694-11.671955 2.291427-17.171379 0.945214-16.756058-1.539552-21.517929 5.55671-20.264805 21.052483 1.117071 13.3404 0.221982 26.831175 0.221982 42.398555 8.958046 0.436803 16.405183-0.264946 23.222178 7.855297 5.270281-5.026817 10.998848-0.30075 14.622166 2.334391 5.392013 2.814158 11.070455 6.888602 19.434163 7.053298 22.935749 0.759035 48.61405 0.336553 75.609921 0.336553v49.702477c-24.704444 0-48.893317-0.236303-73.07503 0.121732-9.351885 0.143214-21.331751-4.024318-23.494285 11.958384-0.264946 1.947713-7.57603 3.795175-11.765044 4.181853-7.232316 0.680267-14.579202 0.193339-24.489623 0.193339 0 18.861306-0.988178 35.660328 0.665946 52.201565 0.443964 4.34655 8.514082 9.974867 14.006346 11.335402 9.631153 2.391677 22.420178-3.401337 24.675801 13.576703 0.264946 1.976356 10.71242 3.601836 16.462469 3.694926 25.026676 0.393839 50.067674 0.171857 76.719831 0.171857v49.423209c-24.310605 0-48.492318-0.694589-72.580941 0.479768-6.287102 0.30791-12.051472 6.996012-18.481789 9.788688-6.723905 2.914408-13.941899 9.724242-20.966554 10.225492-12.072954 0.859285-17.636825 0.186178-16.534076 12.803347 5.986352 8.055797 2.334391 16.240487-0.028643 24.346408-2.004998 45.413213-32.54542 75.309171-73.755297 76.60526-10.490438 0.179018-16.655808 0.644464-22.685125 0-15.073291-1.589677-22.821178 2.699587-21.653982 19.878126 0.401 10.440313-6.394513 12.345061-9.487939 18.718092-2.685266 5.513746-6.652298 11.242312-6.824155 16.97804-0.751874 24.897783-0.329393 49.817049-0.329392 76.476366h-49.043693V948.59774c0-9.30176-0.014321-16.204683-11.048973-22.792535-7.139226-4.267782-6.759709-21.016679-10.268456-34.084972h-59.741791c0 7.697762 3.616158 14.364381-0.042964 21.016679-0.064446 3.365533 6.451798 8.850636-0.902249 9.752885-30.740921 17.013843-10.741063 45.663838-15.760719 68.420569-2.105248 9.538064-0.350875 19.91393-0.350875 31.378225h-49.473335c0-24.453819 0.064446-44.77591-0.042964-73.869869-0.035804-9.151385 3.594676-18.739574-6.859959-22.105107-7.948386-0.773357-9.838813-12.63865-9.80301-19.391198 0.078768-11.936901-3.967032-17.801521-12.395186-16.87779-10.869955 0.50125-17.744236 0.644464-24.46098-0.050125-18.947235-1.926231-32.552581 1.389177-28.077138 25.277301 0.479767 2.491927 0.243464 7.053298-1.102749 11.82949-27.160567 9.029653-11.987026 33.426187-9.946224 52.667011-6.931566 13.712757-3.866783 27.984049-3.866783 43.000054h-51.786244c0-24.546909 1.374856-48.592568-0.100249-72.623905-0.114571-9.380528 2.355873-18.202521-11.106259-24.654319-6.408834-3.064783-5.506585-21.317429-8.463958-35.27365-13.326078 0-32.674313-0.995338-49.301477 0.680267-4.389514 0.436803-10.297099 8.685939-11.349723 14.14956-1.954873 10.10376 7.798012 21.782875-13.354722 25.406194-2.506248 0.587178-3.866783 10.526241-3.967032 16.154558-0.429643 24.883462-0.193339 49.766924-0.193339 75.90351h-49.287157c0-24.346409 0.716071-48.456514-0.486928-72.46637-0.30075-6.108084-6.881441-11.800848-10.261295-17.851646-2.363034-4.239139-5.349049-8.628654-6.000674-13.24015-1.002499-7.124905 3.988515-14.507595 3.988515-23.272303-38.531772-3.100587-73.089351 3.415658-99.741508-23.65182-25.914604-26.337086-21.62534-59.419559-22.892785-93.361317-8.306422-0.486928-15.517255-0.551375-22.606357-1.467945-4.403836-0.558535-12.087276-1.847463-12.402347-3.773693-3.086265-18.703771-17.293111-13.591025-28.535423-13.791525-22.319928-0.40816-44.647017-0.121732-62.298164-0.121732v-48.878996c19.412681 0 44.382071 0.773357 69.22973-0.501249 6.831316-0.372357 13.096936-7.490101 20.100108-10.397349 6.867119-2.864283 14.292774-1.202999 21.539411-2.921569 10.991687-2.649462 16.226165-6.516245 15.681952-18.331414-0.701749-15.345398-0.171857-30.755243-0.171857-47.518461-8.900761-0.50125-15.495773-0.787678-22.076464-1.260285-4.017157 4.024318-5.914745 0.286428-11.564545-1.467945-10.583527-26.594871-33.275812-12.588525-50.54028-14.822667-15.295273-1.976356-31.048832-0.415321-48.248854-0.415321v-49.408888c25.177051 0 50.704977 0.042964 76.218581-0.028643 8.549886-0.028643 17.443486 1.947713 20.164555-11.156384 0.622982-3.021819 12.473954-5.513746 18.990199-5.198674 13.64831 0.687428 18.023503-4.726068 17.257308-17.758557-0.866446-11.077616-0.2005-29.451994-0.2005-46.845355-9.459296 0-16.67729 0.236303-23.873802-0.10025-3.94555-0.179018-11.034652-0.751874-11.31392-2.162534 1.682766-16.462469-22.012018-13.018168-34.249668-13.777203-19.992698-1.288928-35.889471-0.350875-60.808736-0.350875v-49.924459c23.329588 0 48.298979 0.773357 73.146637-0.515571 6.845637-0.350875 13.011007-7.905422 20.12159-10.30426 10.884277-3.651961 22.298446-5.721406 36.841845-9.287438 0-15.66763 0.823481-32.996545-0.644463-50.139281-0.322232-3.816658-8.313583-8.736064-13.526579-9.967706-9.652635-2.262784-22.119428 3.508747-21.059643-13.025329-4.833478-2.599337-16.204683-4.203336-22.584875-4.325068C52.487993 318.226252 25.420515 318.512681 0 318.512681v-49.237032c25.06964 0 49.344442 0.107411 73.619244-0.064446 9.80301-0.071607 18.854145 1.575356 24.289123-7.848137 2.184016-9.867456 18.617842-9.810171 30.82685-12.882114 1.181517-31.349582-3.444301-65.520482 23.501445-88.649571 26.265479-28.786048 59.627219-23.415517 93.082049-25.621015 0.565696-7.518744 1.016821-10.690938 1.453624-19.276627 0.30075-4.024318-0.823481-10.61217 1.124231-11.700598 28.592709-15.946898 14.435988-42.692144 15.488613-64.417733 6.645137-37.09247 2.685266-35.424025 49.688156-35.402543 0 23.544409-0.057286 47.690318 0.035803 71.836228 0.050125 12.108758-1.353374 17.930414 11.815169 27.504281 6.559209-0.250625 5.914745 19.835162 8.829154 30.583386h58.875345c4.425318-15.531577-4.375193-34.980061 16.963718-41.882984 2.448962-0.737553 1.396338-13.906096 1.467945-21.310269 0.186178-16.899272 0.981017-33.891633-0.200499-50.726458-1.088428-15.653309 5.270281-17.056808 20.049983-19.176378 8.628654 0.873606 17.400522 0.164696 29.738423 0.164697 0 26.866978-0.114571 52.223047 0.064446 81.653558 0.050125 4.317907-0.537053 10.834152 10.547724 16.620005 6.881441 3.601836 6.47328 21.016679 9.853134 34.185222h59.670184c0.472607-6.945887 0.887928-13.462132 1.353374-19.978377 0.236303-3.365533-0.751874-8.521243 1.023981-9.81017 30.612029-22.198196 12.502597-51.163262 14.443149-80.765631 6.587852-20.694447 9.359046-22.656482 25.907443-22.248321 15.417005 0.393839 28.60703 3.802336 25.900283 21.668304-1.926231 16.011344-0.887928 32.459491 4.905085 49.373084-4.611496 10.132402-10.383027 22.814017 7.561708 28.879138 4.912246 1.661284 3.924068 21.890286 5.864621 33.132598h62.176431c0-8.263458-0.322232-15.517255 0.143214-22.73525 0.243464-0.895089 1.21732-10.597849 2.957373-7.626154 20.386537-7.762208 13.204346-23.75207 13.655471-35.710453 0.816321-21.42484 0.221982-42.906965 0.221982-62.36261 2.93589-2.363034 3.422819-3.100587 4.002836-3.179355 45.219874 0.358035 45.219874 0.336553 45.219874 39.061665 0 12.853472-1.124231 25.857318 0.50841 38.51029 0.80916 6.380191 7.58319 11.765044 13.791525 18.216842 0.171857 10.626491 2.792676 21.768554 7.103423 36.569738 28.564066 2.22698 63.135967-3.888265 89.788123 22.162393 26.995871 26.365729 23.687624 60.028219 23.759231 94.521352 8.041476 0.515571 14.543399 0.887928 21.052483 1.339052 4.024318 0.272107 10.784027-0.637303 17.336075 1.202999 8.206172 29.101119 34.206704 12.423829 54.535955 15.839487 12.445311 3.250962 25.527926 0.386678 39.756254 0.386679v49.22271c-24.095784 0-47.754765-0.887928-70.518657 0.465446-9.487939 0.50125-17.722753 6.838477-26.501782 11.607508-6.881441-0.164696-14.278453 1.059785-21.439161 1.00966-10.332902-0.064446-14.75822 7.303923-14.407346 14.328578 0.522732 15.395523 0.136053 30.805368 0.136054 47.783407 8.6931 0.479767 15.25947 0.766196 21.818678 1.224481 6.738227 0.286428 15.187863-0.30791 11.62183 1.432142zM815.203695 245.12974c-0.021482-29.731262-7.597512-37.486309-37.063827-37.493469-177.743106-0.093089-353.724677-0.093089-533.200674-0.014322-30.791046 0.014321-38.288308 7.590351-38.30263 38.524612-0.064446 177.241856-0.064446 357.569977 0 531.711246 0.014321 32.34492 7.17503 39.656003 39.369575 39.670325 182.275834 0.085929 354.104194 0.085929 531.152711-0.014321 30.977225 0 38.023362-7.303923 38.059166-38.646344 0.085929-88.620928 0.035804-177.241856 0.021482-265.855623 0-89.294035 0.064446-178.580908-0.035803-267.882104z m-47.969586 500.490558c0.050125 15.545898-3.959872 21.346072-20.472466 21.295947a69655.92049 69655.92049 0 0 0-265.31857-0.343714c22.74241-17.257307 38.503129-32.602706 54.034706-44.826035 52.896153-41.603716 70.826567-73.48319 69.752461-86.386787-2.542052-30.540422-68.391927-40.801717-110.303553-66.830892-35.660328-26.029175-49.365924-47.174747 12.975204-102.68456 41.510627-32.982223 146.586863-127.45345 239.812126-207.438563 14.128078 0.622982 19.699109 5.298924 19.634663 22.319928 3.286765 155.931588 4.504086 309.929784-0.114571 464.894676zM316.488993 591.349995c9.767206 37.278648 65.448875 28.456655 110.310714 63.565609 44.854678 35.116114 30.597707 58.789417-16.226166 99.433597l-14.25697 12.388026c-39.269325 0.071607-78.53149 0.057286-117.800815 0.214821-17.400522 0.050125-21.661143-6.050799-21.510768-22.362892 0.171857-19.455645 0.272107-38.91129 0.336553-56.949115 0.186178-59.784755-0.021482-118.15169-0.021482-176.511463 0-66.322482 0.40816-130.897751-0.10025-198.960285-0.078768-9.473617-0.179018-18.940074-0.293589-28.413691-0.236303-18.918592 4.403836-25.685461 24.675801-25.585212 144.825329 0.751874 289.657818 0.644464 437.333109 0.171857l-335.937477 240.098555c-44.732946 40.486646-76.275867 55.638705-66.50866 92.910193z" fill="#191A1A" p-id="41784"></path></svg>