<?xml version="1.0" standalone="no"?><!DOCTYPE svg PUBLIC "-//W3C//DTD SVG 1.1//EN" "http://www.w3.org/Graphics/SVG/1.1/DTD/svg11.dtd"><svg t="1623822261617" class="icon" viewBox="0 0 1024 1024" version="1.1" xmlns="http://www.w3.org/2000/svg" p-id="16842" xmlns:xlink="http://www.w3.org/1999/xlink" width="200" height="200"><defs><style type="text/css"></style></defs><path d="M687.312 581.216h247.36v30.656h-247.36v-30.656z m0 73.6h247.36v30.656h-247.36v-30.656z m-26.576-130.832c4.096 2.048 8.192 4.096 12.272 4.096 22.448 0 47.024-24.528 73.6-71.552 32.704-14.304 67.456-24.528 102.224-32.704 18.384 14.288 40.864 24.512 63.36 24.512 14.304 0 42.928 0 42.928-28.64 0-10.208-6.128-30.64-44.928-30.64a222.624 222.624 0 0 0-53.2 6.128c-22.448-20.448-38.832-42.928-53.152-67.456 14.32-47.024 16.368-79.728 4.096-96.064-6.144-6.144-14.304-10.24-22.448-10.24-10.24-2.032-20.448 4.096-26.56 14.32-16.368 24.528 6.112 75.648 16.32 96.064a689.6 689.6 0 0 1-44.896 106.304c-81.776 34.752-83.84 55.2-83.84 63.36 0.112 9.6 5.664 18.336 14.32 22.464l-0.096 0.048z m251.456-108.32c18.4 0 22.464 6.128 22.464 8.16-6.144 2.064-12.272 2.064-18.4 2.064-10.224 0-18.4-4.096-28.608-8.192 8.192-2.048 16.368-4.112 24.544-2.048zM785.44 245.952h6.144c4.096 14.304 4.096 30.656-2.048 44.912-4.096-14.304-6.128-30.656-4.096-44.912z m2.048 124.688a299.68 299.68 0 0 0 32.72 38.848h-2.048c-18.4 4.096-34.752 10.224-53.152 16.352v-2.048h-2.048c8.192-16.352 16.352-34.736 24.528-53.152zM703.68 483.04c-8.176 10.24-18.4 18.4-30.672 22.464h-2.048a72.752 72.752 0 0 1 32.72-22.464z" fill="#F65552" p-id="16843"></path><path d="M987.84 141.696H613.68V0.704L0.48 139.648v742.048l613.216 141.056v-141.056H987.84c10.224 0 16.352-4.08 24.528-10.208 6.608-6.448 10.304-15.312 10.24-24.528V176.448a33.888 33.888 0 0 0-10.24-24.528 33.888 33.888 0 0 0-24.528-10.224zM180.352 511.728c-2.048 8.16-6.128 12.256-10.224 18.4-4.096 4.08-10.224 8.16-18.4 12.272a121.12 121.12 0 0 1-28.624 4.08H82.192v61.312h-36.8v-173.76h77.68a120.448 120.448 0 0 1 28.672 4.08c8.192 2.048 14.32 6.128 18.4 12.272 4.096 6.112 8.16 12.256 10.224 18.4 2.048 8.16 2.048 14.288 4.096 22.448 0.032 6.16-2.048 14.336-4.096 20.48z m173.808 42.912c-2.048 12.256-8.16 20.432-14.304 28.608a55.84 55.84 0 0 1-24.528 18.4c-10.224 4.096-20.448 6.144-34.752 6.144H204.96v-173.76h75.6a81.92 81.92 0 0 1 30.656 6.128c8.192 4.08 18.4 10.224 24.544 16.336 6.144 6.128 12.272 16.368 16.352 26.576 4.08 10.24 6.128 22.464 6.128 36.8-0.032 12.272-0.032 24.528-4.064 34.768z m155.36-87.904h-83.856v40.88h73.6v28.608h-73.6v71.568h-36.8v-173.76h120.592l0.064 32.704zM987.84 846.96H613.696V769.28h320.976v-30.672h-320.96V176.448h374.112v670.512z" fill="#F65552" p-id="16844"></path><path d="M309.152 481.04a31.744 31.744 0 0 0-16.352-12.256c-8.176-2.048-14.32-4.096-24.528-4.096h-26.576v110.384h34.736c6.144 0 10.224 0 16.368-2.048 6.128-2.048 10.208-4.08 14.304-8.16 4.56-4.64 8.048-10.24 10.224-16.368 2.048-6.128 2.048-14.32 2.048-24.528 0-10.224 0-18.4-2.048-24.528-2.048-8.176-4.08-14.32-8.176-18.4z m-173.76-12.256a15.568 15.568 0 0 0-10.224-4.096H82.192v51.152H125.12c4.096 0 6.144-2.048 10.224-4.096a16 16 0 0 0 8.176-8.16c2.048-4.096 2.048-8.192 2.048-12.272 0-6.144 0-10.24-2.048-14.304a15.904 15.904 0 0 0-8.128-8.224z" fill="#F65552" p-id="16845"></path></svg>