<?xml version="1.0" standalone="no"?><!DOCTYPE svg PUBLIC "-//W3C//DTD SVG 1.1//EN" "http://www.w3.org/Graphics/SVG/1.1/DTD/svg11.dtd"><svg t="1692842427040" class="icon" viewBox="0 0 1075 1024" version="1.1" xmlns="http://www.w3.org/2000/svg" p-id="31631" xmlns:xlink="http://www.w3.org/1999/xlink" width="209.9609375" height="200"><path d="M148.793609 768.006592c-37.528634 0-68.35024-23.372198-94.154376-71.319764C18.441765 630.20534 0.01024 558.629583 0.01024 483.956306a439.847874 439.847874 0 0 1 42.392508-188.667142c27.160901-57.700914 66.046299-109.385983 115.427428-153.852038a542.450032 542.450032 0 0 1 170.850001-103.498135 594.442293 594.442293 0 0 1 417.85804 0 542.450032 542.450032 0 0 1 170.850001 103.498135c49.509125 44.466055 88.240928 96.151124 115.427427 153.852038A440.308662 440.308662 0 0 1 1075.182554 483.930707a446.017315 446.017315 0 0 1-60.158451 222.611868l-0.255993 0.537586-0.409589 0.537586c-25.829735 36.197468-55.678566 53.681818-91.338449 53.681818-54.347401 0-112.457904-42.187714-174.075517-86.781766-68.862227-49.969913-140.18199-101.629383-212.551327-101.629383-84.631421 0-162.120625 59.390471-230.598862 111.894719C247.555866 729.402786 197.253161 768.006592 148.793609 768.006592z" fill="#F59191" p-id="31632"></path><path d="M0.266233 563.519057c-3.046322-18.764317 21.196254-29.746434 33.970326-15.282806C190.392538 723.668534 297.11619 435.215161 573.435474 435.215161c280.901567 0 334.532186 211.066565 475.328561 88.112931a16.178783 16.178783 0 0 1 22.322625 1.075173 14.950015 14.950015 0 0 1 4.019096 11.775696 427.329796 427.329796 0 0 1-58.212901 176.251462c-120.700892 164.603761-295.313996-140.079593-482.240382-140.079593-213.703297 0-373.494383 332.535437-485.312303 130.556638A427.380995 427.380995 0 0 1 0.266233 563.519057z" fill="#F17A7A" p-id="31633"></path><path d="M819.189146 499.213513a89.597693 89.597693 0 1 0 89.597693-89.597693 89.597693 89.597693 0 0 0-89.597693 89.597693z" fill="#FF3F51" p-id="31634"></path><path d="M780.790135 358.417139a89.597693 89.597693 0 1 1 89.597693-89.597693 89.674491 89.674491 0 0 1-89.597693 89.597693z" fill="#F1C869" p-id="31635"></path><path d="M132.128438 581.976182a89.597693 89.597693 0 1 0-48.485152-117.040186 89.597693 89.597693 0 0 0 48.485152 117.040186z" fill="#D455DF" p-id="31636"></path><path d="M280.067029 357.239569A89.597693 89.597693 0 1 0 205.956937 254.483815a89.597693 89.597693 0 0 0 74.058893 102.781353z" fill="#AAF1A5" p-id="31637"></path><path d="M461.438358 229.780451a89.597693 89.597693 0 1 0 0-126.716737 89.597693 89.597693 0 0 0 0 126.716737z" fill="#8AE2F5" p-id="31638"></path><path d="M481.482642 512.013184C455.9345 511.987584 435.199034 489.946552 435.199034 462.734453v-3.839902c0.025599-27.212099 20.735466-49.253132 46.283608-49.278731h112.22751c25.548142 0.025599 46.258009 22.066632 46.283608 49.278731v3.839902c-0.025599 27.212099-20.735466 49.253132-46.283608 49.278731h-112.22751z" fill="#FFFFFF" p-id="31639"></path><path d="M519.369666 665.609229a11.775697 11.775697 0 0 1-9.190163-4.454286c-31.794381-39.166991-48.843542-82.045887-49.381128-123.977607-0.38399-36.351064 11.442905-71.038171 33.535136-97.635886a11.622101 11.622101 0 0 1 9.062167-4.326289 12.03169 12.03169 0 0 1 11.314908 8.498981c8.242988 25.343347 23.167403 34.687107 40.318962 45.259635 27.288897 16.869966 58.033706 36.095071 59.364872 116.732994a12.671674 12.671674 0 0 1-6.24624 11.289309l-83.069861 47.230784a12.364482 12.364482 0 0 1-5.708653 1.382365z" fill="#F59191" p-id="31640"></path><path d="M499.760571 435.215161c-38.45021 109.411583 80.970715 200.058848 20.325877 230.394068-83.530649-90.49367-67.761455-179.758571-20.325877-230.394068z" fill="#F17A7A" p-id="31641"></path><path d="M755.34439 1024a38.373412 38.373412 0 0 1-32.946351-18.994711L513.712212 650.505617a12.390081 12.390081 0 0 1-1.305566-9.420557 11.26371 11.26371 0 0 1 5.785451-7.423809l78.257185-43.339684A11.903693 11.903693 0 0 1 602.106736 588.811206a10.444531 10.444531 0 0 1 3.583908 0.537586c3.046322 1.023974 5.555057 3.251116 6.96302 6.195041l177.070641 371.907223c8.959769 18.892314 1.843153 41.650128-16.204383 51.710669a36.095071 36.095071 0 0 1-18.175532 4.838275z" fill="#F1C869" p-id="31642"></path><path d="M537.596397 676.43775L623.661381 614.410547 639.99376 655.47189 557.410287 716.80791z" fill="#ECB055" p-id="31643"></path></svg>