<?xml version="1.0" standalone="no"?><!DOCTYPE svg PUBLIC "-//W3C//DTD SVG 1.1//EN" "http://www.w3.org/Graphics/SVG/1.1/DTD/svg11.dtd"><svg t="1598079399559" class="icon" viewBox="0 0 1024 1024" version="1.1" xmlns="http://www.w3.org/2000/svg" p-id="3500" xmlns:xlink="http://www.w3.org/1999/xlink" width="200" height="200"><defs><style type="text/css"></style></defs><path d="M113.777778 0h796.444444a56.888889 56.888889 0 0 1 56.888889 56.888889v910.222222a56.888889 56.888889 0 0 1-56.888889 56.888889H113.777778a56.888889 56.888889 0 0 1-56.888889-56.888889V56.888889a56.888889 56.888889 0 0 1 56.888889-56.888889z m0 56.888889v910.222222h796.444444V56.888889H113.777778z m171.434666 204.060444a28.444444 28.444444 0 1 1 0-56.888889H740.124444a28.444444 28.444444 0 0 1 0 56.888889H285.212444z m0 236.828445a28.444444 28.444444 0 0 1 0-56.888889h292.152889a28.444444 28.444444 0 0 1 0 56.888889h-292.124444z m0 227.555555a28.444444 28.444444 0 0 1 0-56.888889h146.090667a28.444444 28.444444 0 0 1 0 56.888889h-146.090667z" fill="#4D4A49" p-id="3501"></path><path d="M590.051556 663.153778a28.444444 28.444444 0 1 0-40.192 40.305778l78.563555 78.307555a28.444444 28.444444 0 0 0 44.828445-6.087111l115.2-202.979556a28.444444 28.444444 0 0 0-49.464889-28.103111l-96.796445 170.552889-52.138666-51.996444z" fill="#F27233" p-id="3502"></path></svg>