<?xml version="1.0" standalone="no"?><!DOCTYPE svg PUBLIC "-//W3C//DTD SVG 1.1//EN" "http://www.w3.org/Graphics/SVG/1.1/DTD/svg11.dtd"><svg t="1598079279386" class="icon" viewBox="0 0 1024 1024" version="1.1" xmlns="http://www.w3.org/2000/svg" p-id="2770" xmlns:xlink="http://www.w3.org/1999/xlink" width="200" height="200"><defs><style type="text/css"></style></defs><path d="M682.296876 904.789747c0-20.716489 13.498141-34.265823 34.572987-34.265823h221.721037c8.088646 0 17.013459-6.877055 17.013459-16.808684V85.635207c0-8.242227-7.559641-17.132912-17.013459-17.132912H324.621748c-9.590335 0-17.405946 8.36168-17.405946 17.132912v204.809966c0 20.64823-17.269429 34.248759-34.299953 34.248758-17.030524 0-34.009854-13.583464-34.009853-34.248758V85.635207c-0.017065-45.391977 39.555866-85.323265 85.715752-85.528041 30.784634-0.136517 235.423953-0.136517 613.969152 0C984.733722 0.329007 1023.880036 40.260295 1023.880036 85.635207v768.080033c-0.119453 45.306654-39.214573 84.726002-85.289136 84.947843H719.275979c-21.057782 0-36.979103-13.139783-36.979103-33.873336zM405.712979 479.282623c73.378008 70.033336 73.378008 183.257309 0 253.273581-72.661293 69.623784-190.970532 70.118659-264.263217 1.058008l-1.126267-1.058008c-73.53159-70.135724-73.309749-183.666861 0.51194-253.546615 35.119056-33.259009 82.592921-52.030127 132.182802-52.269032 49.862916-0.136517 97.695139 18.788183 132.694742 52.559131zM273.035302 512.046757c-56.654648 0.238905-102.422048 46.074563-102.387918 102.490306a103.667767 103.667767 0 0 0 29.863143 72.422388A103.309409 103.309409 0 0 0 273.035302 716.822594a101.688267 101.688267 0 0 0 72.132288-29.863143A102.302595 102.302595 0 0 0 375.42322 614.537063a100.783841 100.783841 0 0 0-30.25563-72.234676A100.374289 100.374289 0 0 0 273.035302 512.046757zM38.089159 1023.986348A37.934724 37.934724 0 0 1 0.000853 986.222271v-132.848324a37.013232 37.013232 0 0 1 12.917943-28.361453 335.42282 335.42282 0 0 1 120.083963-77.985465 549.311181 549.311181 0 0 1 132.507031-30.033789 38.020047 38.020047 0 0 1 41.484171 34.095177 37.866465 37.866465 0 0 1-32.866521 40.972232 506.291191 506.291191 0 0 0-114.503822 25.238622c-30.869957 11.774611-59.214346 29.248815-83.514412 51.518187v117.404813A37.832336 37.832336 0 0 1 38.089159 1023.986348z m471.018553 0a37.798206 37.798206 0 0 1-38.805021-38.531986v-117.012326a257.300839 257.300839 0 0 0-83.497347-51.330476 494.533645 494.533645 0 0 0-113.514072-25.136234A37.729948 37.729948 0 0 1 239.076642 750.9519a37.8494 37.8494 0 0 1 42.79815-33.805078c45.033619 4.470939 89.316394 14.52202 131.84151 29.914337a333.716355 333.716355 0 0 1 119.4867 77.729494c8.088646 7.218348 12.747296 17.474205 12.849684 28.259066v132.387578a37.678754 37.678754 0 0 1-36.944974 38.514922zM836.168852 281.673941c0 23.549221-17.525399 42.661633-39.146314 42.661633H482.828146C461.207231 324.335574 443.681832 305.223162 443.681832 281.673941s17.525399-42.661633 39.146314-42.661632h314.194392C818.643454 239.012309 836.168852 258.12472 836.168852 281.673941z m-17.064653 187.711184c0 23.549221-16.928136 42.661633-37.815271 42.661632h-129.145294C631.256499 512.046757 614.328363 492.934346 614.328363 469.385125s16.928136-42.661633 37.815271-42.661633h129.145294C802.176063 426.723492 819.104199 445.835903 819.104199 469.385125zM531.889024 1003.764734c-8.737102 17.644851-30.73344 25.170363-49.146201 16.808684a37.593431 37.593431 0 0 1-0.853233-0.392487c-18.66873-8.702973-26.433148-30.272694-17.337687-48.156451l0.238905-0.477811 129.469523-251.754826c9.317301-17.747239 31.757319-25.033846 50.426049-16.416196 18.44689 9.146654 26.006531 30.665182 17.098783 48.634261L531.906089 1003.764734z" fill="#121649" p-id="2771"></path></svg>