<?xml version="1.0" standalone="no"?><!DOCTYPE svg PUBLIC "-//W3C//DTD SVG 1.1//EN" "http://www.w3.org/Graphics/SVG/1.1/DTD/svg11.dtd"><svg t="1595955763187" class="icon" viewBox="0 0 1024 1024" version="1.1" xmlns="http://www.w3.org/2000/svg" p-id="18594" xmlns:xlink="http://www.w3.org/1999/xlink" width="32" height="32"><defs><style type="text/css"></style></defs><path d="M701.194 460.063c0 18.55 12.35 30.899 30.9 30.899s30.899-12.35 30.899-30.9c-0.292-102.302-83.16-185.164-185.462-185.456-18.55 0-30.9 12.35-30.9 30.904 0 18.55 12.401 30.9 30.9 30.9 68.219 0.189 123.474 55.439 123.663 123.653z m123.658 0c0 18.55 12.35 30.899 30.9 30.899s30.899-12.35 30.899-30.9c0-169.983-139.131-309.114-309.115-309.114-18.55 0-30.9 12.4-30.9 30.95 0 18.555 12.401 30.905 30.9 30.905 136.008 0 247.316 111.303 247.316 247.26z m-417.295-108.18c34.028-33.977 37.105-86.554 6.2-123.654l-95.83-120.53c-30.9-40.176-89.626-46.377-129.854-15.478-3.077 3.124-6.15 3.124-6.15 6.2l-83.48 83.477c-80.354 80.354 34.027 296.714 241.156 503.793C546.637 892.78 759.87 1004.083 840.223 926.8l83.481-83.48c37.1-37.1 37.1-95.827 0-129.808l-6.154-6.2-120.581-95.826c-37.048-30.9-89.574-27.827-123.607 6.2l-52.531 52.577c-55.65-34.027-105.099-71.127-148.398-114.375-43.254-43.305-80.308-92.76-114.33-148.409l49.454-55.598z m-43.254-83.477c9.278 12.4 9.278 30.95-3.123 40.222l-68.004 71.081a32.855 32.855 0 0 0-6.149 37.105A801.89 801.89 0 0 0 423.03 599.148 801.71 801.71 0 0 0 605.358 735.15a32.86 32.86 0 0 0 37.105-6.2l71.08-71.081c12.401-12.355 27.828-12.355 40.223-3.077l120.53 98.903s3.072 0 3.072 3.072a29.88 29.88 0 0 1 0 43.305l-83.476 83.481c-40.126 40.13-231.783-61.85-414.167-241.162C197.396 463.14 98.493 268.457 138.67 228.229l86.508-86.553c12.4-9.278 34.027-9.278 43.3 6.2l95.83 120.581v-0.051z" p-id="18595"></path></svg>