<?xml version="1.0" standalone="no"?><!DOCTYPE svg PUBLIC "-//W3C//DTD SVG 1.1//EN" "http://www.w3.org/Graphics/SVG/1.1/DTD/svg11.dtd"><svg t="1692842533352" class="icon" viewBox="0 0 1024 1024" version="1.1" xmlns="http://www.w3.org/2000/svg" p-id="34192" xmlns:xlink="http://www.w3.org/1999/xlink" width="200" height="200"><path d="M318.896827 855.006745H103.410442c-8.729453 0-17.139146-3.837122-22.734949-10.67999s-7.8661-15.572321-6.299275-24.301774L212.544592 68.428678C220.762428 27.339495 254.529103 0.031976 296.865351 0.031976h331.623283c133.276043 0 223.000749 85.184112 223.000749 212.000999 0 127.872096-88.157882 366.605046-300.318761 366.605046H406.15938l-58.420184 253.441919a29.577817 29.577817 0 0 1-28.874345 22.926805z m-179.993005-58.931801h156.554584l58.260305-253.441919a29.577817 29.577817 0 0 1 28.874344-22.926805h168.609543c168.449663 0 241.195104-203.591307 241.195104-307.481389 0-94.265301-62.800899-152.877342-163.877092-152.877342H296.897327c-8.217837 0-22.734949 2.622033-26.220335 20.464652z m282.316263 227.541344H205.7337a29.417937 29.417937 0 0 1-29.034225-34.630028l27.62728-157.417936a29.481889 29.481889 0 1 1 58.068449 10.168373l-21.519861 122.78791h156.554585l55.798151-255.904072a29.545841 29.545841 0 0 1 28.874344-23.278541h168.609543c168.449663 0 241.195104-203.591307 241.195104-307.481389 0-67.69323-28.522608-114.378216-84.48064-138.711966a29.417937 29.417937 0 0 1-15.220584-38.818886 29.481889 29.481889 0 0 1 38.818885-15.380465c77.318011 33.574819 119.974019 102.163377 119.97402 192.943293 0 127.872096-88.157882 366.605046-300.318761 366.605046h-144.819385l-55.798152 255.904072a29.545841 29.545841 0 0 1-28.874344 23.278541z m38.659006-610.61404h-58.068449a29.545841 29.545841 0 0 1-22.734949-10.67999 29.353985 29.353985 0 0 1-6.459155-24.141893l38.818885-215.486385a29.481889 29.481889 0 0 1 29.034225-24.301774H534.383213c35.49338 0 63.856108 11.383462 81.858606 32.711466 19.601299 23.278541 26.060455 56.309768 19.057706 98.486136-14.165376 100.21284-66.638021 143.412441-175.420434 143.41244z m-22.734949-59.123657h22.734949c87.806145 0 108.430677-31.496378 117.192106-93.401948 2.81389-17.331002 4.028978-39.522358-5.755684-51.257557-8.217837-9.784662-24.65351-11.703223-36.900324-11.703223h-69.260055l-27.979016 156.362728z" p-id="34193" fill="#1296db"></path></svg>