<?xml version="1.0" standalone="no"?><!DOCTYPE svg PUBLIC "-//W3C//DTD SVG 1.1//EN" "http://www.w3.org/Graphics/SVG/1.1/DTD/svg11.dtd"><svg t="1595954381229" class="icon" viewBox="0 0 1024 1024" version="1.1" xmlns="http://www.w3.org/2000/svg" p-id="4682" xmlns:xlink="http://www.w3.org/1999/xlink" width="200" height="200"><defs><style type="text/css"></style></defs><path d="M512 85.333333C276.352 85.333333 85.333333 276.352 85.333333 512c0 180.736 112.469333 335.104 271.146667 397.269333-3.712-33.749333-7.082667-85.504 1.493333-122.368 7.765333-33.28 50.048-212.053333 50.048-212.053333s-12.757333-25.6-12.757333-63.36c0-59.349333 34.389333-103.594667 77.226667-103.594667 36.352 0 53.930667 27.306667 53.930666 60.074667 0 36.608-23.296 91.306667-35.328 142.08-10.069333 42.453333 21.333333 77.056 63.189334 77.056 75.818667 0 134.101333-79.957333 134.101333-195.370667 0-102.144-73.386667-173.568-178.218667-173.568-121.344 0-192.64 91.050667-192.64 185.173334 0 36.650667 14.122667 75.946667 31.744 97.322666a12.8 12.8 0 0 1 2.986667 12.245334c-3.242667 13.482667-10.453333 42.453333-11.861333 48.426666-1.877333 7.765333-6.186667 9.429333-14.250667 5.674667-53.333333-24.789333-86.613333-102.698667-86.613333-165.290667 0-134.613333 97.749333-258.176 281.898666-258.176 148.010667 0 263.04 105.472 263.04 246.4 0 147.072-92.714667 265.386667-221.44 265.386667-43.178667 0-83.84-22.442667-97.749333-49.024 0 0-21.418667 81.493333-26.581333 101.461333-9.642667 37.034667-35.626667 83.541333-53.034667 111.872 39.936 12.330667 82.346667 18.986667 126.293333 18.986667C747.690667 938.666667 938.666667 747.605333 938.666667 512 938.666667 276.394667 747.648 85.333333 512 85.333333" fill="#d81e06" p-id="4683"></path></svg>