<?xml version="1.0" standalone="no"?><!DOCTYPE svg PUBLIC "-//W3C//DTD SVG 1.1//EN" "http://www.w3.org/Graphics/SVG/1.1/DTD/svg11.dtd"><svg t="1596208231746" class="icon" viewBox="0 0 1024 1024" version="1.1" xmlns="http://www.w3.org/2000/svg" p-id="6071" xmlns:xlink="http://www.w3.org/1999/xlink" width="32" height="32"><defs><style type="text/css"></style></defs><path d="M142.7 320C248.6 116 499.8 36.5 703.7 142.4A415.96 415.96 0 0 1 881.3 320h70.5C877.6 150.5 708.7 32 512 32S146.3 150.5 72.1 320h70.6zM840 768c-140.9 181.1-401.9 213.8-583 73a413.44 413.44 0 0 1-73-73h-77.6C247.3 992 543 1059.4 767 918.5c60.8-38.3 112.3-89.7 150.5-150.5H840zM71.7 715.8V393.7h104.4c39.5 0 65.3 1.6 77.3 4.8 18.5 4.8 33.9 15.3 46.4 31.5 12.4 16.2 18.7 37.1 18.7 62.7 0 19.8-3.6 36.4-10.8 49.9-7.2 13.5-16.3 24.1-27.4 31.7-11.1 7.7-22.3 12.8-33.7 15.3-15.5 3.1-38 4.6-67.4 4.6h-42.4v121.5h-65.1z m65.1-267.6v91.4h35.6c25.6 0 42.8-1.7 51.4-5.1 8.6-3.4 15.4-8.6 20.3-15.8 4.9-7.2 7.4-15.5 7.4-25 0-11.7-3.4-21.4-10.3-29-6.9-7.6-15.6-12.4-26.1-14.3-7.8-1.5-23.4-2.2-46.8-2.2h-31.5zM373.6 715.8V396.3h65v265.2h161.7v54.3H373.6zM645.8 715.8V393.7h97.3l58.4 219.7 57.8-219.7h97.5v322.1h-60.4V462.2l-63.9 253.5h-62.6l-63.7-253.5v253.5h-60.4z" p-id="6072" fill="#1296db"></path></svg>