<?xml version="1.0" standalone="no"?><!DOCTYPE svg PUBLIC "-//W3C//DTD SVG 1.1//EN" "http://www.w3.org/Graphics/SVG/1.1/DTD/svg11.dtd"><svg t="1596208219993" class="icon" viewBox="0 0 1024 1024" version="1.1" xmlns="http://www.w3.org/2000/svg" p-id="5874" xmlns:xlink="http://www.w3.org/1999/xlink" width="32" height="32"><defs><style type="text/css"></style></defs><path d="M832 704h96.256v256h-96.256v-256z m-128 160.256h96.256v96.256h-96.256v-96.256z m-128-32.256h96.256v128h-96.256v-128zM896 480.256c-35.328 0-64 28.672-64 64 0 12.8 3.072 25.6 9.728 35.328L716.8 755.2l-96.256-96.256-182.272 243.2C256 867.328 115.2 707.072 115.2 512c0-217.6 179.2-396.8 396.8-396.8 128 0 243.2 60.928 313.344 156.672L768 329.728l192 38.4-38.4-192-57.344 57.344c-82.944-102.4-207.872-169.472-352.256-169.472-246.272 0-448 201.728-448 448 0 224.256 166.4 409.6 380.928 441.344l179.2-236.544 96.256 96.256 150.528-211.456c6.656 3.072 15.872 3.072 22.528 3.072 35.328 0 64-28.672 64-64-0.512-35.328-26.112-60.416-61.44-60.416z m0 89.088c-12.8 0-25.6-12.8-25.6-25.6s12.8-25.6 25.6-25.6 25.6 12.8 25.6 25.6-12.8 25.6-25.6 25.6zM415.744 323.072v256H640v-38.4H454.656V323.072h-38.912z" fill="#1296db" p-id="5875"></path></svg>