<?xml version="1.0" standalone="no"?><!DOCTYPE svg PUBLIC "-//W3C//DTD SVG 1.1//EN" "http://www.w3.org/Graphics/SVG/1.1/DTD/svg11.dtd"><svg t="1624432440000" class="icon" viewBox="0 0 1024 1024" version="1.1" xmlns="http://www.w3.org/2000/svg" p-id="6870" xmlns:xlink="http://www.w3.org/1999/xlink" width="200" height="200"><defs><style type="text/css"></style></defs><path d="M554.666667 170.666667h426.666666v682.666666H554.666667z" fill="#FFFFFF" p-id="6871"></path><path d="M597.034667 42.666667v98.218666c114.005333 0.682667 228.096-1.194667 341.973333 0.554667 24.533333-2.389333 43.733333 17.152 41.258667 42.24 1.834667 203.904-0.426667 407.893333 1.066666 611.882667-1.066667 22.058667 2.133333 46.506667-10.24 66.048-15.573333 11.52-35.84 10.026667-54.058666 10.88-106.666667-0.512-213.248-0.298667-320-0.298667V981.333333h-66.346667c-162.474667-30.378667-325.333333-58.069333-487.936-87.296-0.128-254.677333-0.128-509.269333 0-763.818666C207.274667 101.077333 371.84 71.338667 536.576 42.666667h60.458667z m345.173333 156.458666h-351.872v102.229334c17.408-3.626667 34.858667-7.082667 52.352-10.368 1.493333 44.501333 0.853333 89.173333 0.981333 133.76 46.677333 0 93.482667-0.085333 140.330667 0.213333-3.584 44.288-24.874667 88.746667-65.706667 112-37.76 24.490667-85.845333 24.789333-128.085333 12.16l0.128 30.165333 0.128 30.165334h255.829333v41.045333h-255.957333v51.285333h255.957333v41.045334h-255.957333v82.048h351.872V199.125333zM288.682667 324.693333H194.688v313.301334h58.581333v-118.186667h38.101334c26.538667 0 46.805333-1.536 60.8-4.48 11.008-2.816 21.333333-7.850667 30.378666-14.848 10.538667-8.192 18.986667-18.773333 24.618667-30.890667 6.485333-13.141333 9.685333-29.312 9.685333-48.512 0-24.917333-5.546667-45.226667-16.810666-61.013333-11.178667-15.786667-25.130667-25.984-41.728-30.634667-10.794667-3.157333-34.005333-4.693333-69.632-4.693333z m-7.125334 52.906667c21.077333 0 35.114667 0.725333 42.154667 2.133333 9.216 1.706667 17.578667 6.613333 23.509333 13.866667 6.4 8.021333 9.685333 18.005333 9.301334 28.245333 0.213333 8.533333-2.133333 17.066667-6.613334 24.32a39.04 39.04 0 0 1-18.346666 15.402667c-6.784 2.858667-19.456 4.48-37.973334 4.864l-8.277333 0.042667h-32.042667V377.642667h28.288z m386.986667-100.309333c61.866667 2.858667 113.92 55.125333 117.248 117.034666-39.125333 0.426667-78.208 0.256-117.333333 0.256 0-39.125333-0.085333-78.250667 0.085333-117.290666z" fill="#E66B2E" p-id="6872"></path></svg>