<?xml version="1.0" standalone="no"?><!DOCTYPE svg PUBLIC "-//W3C//DTD SVG 1.1//EN" "http://www.w3.org/Graphics/SVG/1.1/DTD/svg11.dtd"><svg t="1624432448342" class="icon" viewBox="0 0 1024 1024" version="1.1" xmlns="http://www.w3.org/2000/svg" p-id="7020" xmlns:xlink="http://www.w3.org/1999/xlink" width="200" height="200"><defs><style type="text/css"></style></defs><path d="M194.048 80.896h431.104l244.224 244.224v574.976c0 10.752-4.096 21.504-12.8 30.208-7.68 8.704-19.456 12.8-30.208 12.8H194.048c-11.264 0-22.016-4.608-30.208-12.8-8.192-7.68-12.8-18.944-12.8-30.208V123.904c0-10.752 5.12-21.504 12.8-30.208 7.68-8.192 18.944-12.8 30.208-12.8z m202.752 317.44V680.96H450.56v-108.032h104.96c57.344 0 82.432-44.032 82.432-87.04 0-45.056-19.968-87.552-83.456-87.552H396.8zM450.56 529.408V443.904h91.136c20.992 0 43.008 8.704 43.008 43.008 0 33.28-16.384 42.496-47.616 42.496H450.56z" fill="#FF7166" p-id="7021"></path><path d="M869.888 325.12h-201.216c-10.752 0-22.528-4.096-30.208-12.8-8.192-7.68-12.8-18.944-12.8-30.208V80.896l244.224 244.224z" fill="#FFD0C8" p-id="7022"></path></svg>