<?xml version="1.0" standalone="no"?><!DOCTYPE svg PUBLIC "-//W3C//DTD SVG 1.1//EN" "http://www.w3.org/Graphics/SVG/1.1/DTD/svg11.dtd"><svg t="1624432281138" class="icon" viewBox="0 0 1024 1024" version="1.1" xmlns="http://www.w3.org/2000/svg" p-id="4988" xmlns:xlink="http://www.w3.org/1999/xlink" width="200" height="200"><defs><style type="text/css"></style></defs><path d="M848 64h-672C114.752 64 64 114.752 64 176v672C64 909.248 114.752 960 176 960h672c61.248 0 112-50.752 112-112v-672C960 114.752 909.248 64 848 64M461.248 687.008C429.76 720.256 384.256 736 323.008 736s-106.752-15.744-138.24-48.992C141.024 646.752 120 587.264 120 512c0-76.992 20.992-136.512 64.768-175.008C216.256 303.744 261.76 288 323.008 288s106.752 15.744 138.24 48.992c43.744 38.496 64.736 98.016 64.736 175.008 0 75.232-20.992 134.752-64.736 175.008m-138.24-323.776c-35.008 0-63.008 12.256-84 38.496s-31.488 63.008-31.488 110.24c0 47.232 10.496 84 31.488 110.24S288 660.704 323.008 660.704s63.008-12.256 84-38.496c19.264-26.24 29.76-63.008 29.76-110.24s-10.496-84-29.76-110.24c-20.992-26.24-48.992-38.496-84-38.496m547.744 360.512h-84v-190.752c0-15.744-1.76-28-7.008-36.736-8.768-15.744-22.752-24.512-45.504-24.512-28 0-47.264 12.256-57.76 35.008-5.248 12.256-7.008 28-7.008 47.232v169.76h-82.24v-311.488h78.752v45.504c10.496-15.744 20.992-28 29.76-35.008 17.504-12.256 38.496-19.264 64.736-19.264 31.488 0 57.76 8.768 78.752 26.24 20.992 15.744 31.488 43.744 31.488 84v210.016" fill="#1296db" p-id="4989"></path></svg>