<?xml version="1.0" standalone="no"?><!DOCTYPE svg PUBLIC "-//W3C//DTD SVG 1.1//EN" "http://www.w3.org/Graphics/SVG/1.1/DTD/svg11.dtd"><svg t="1595955572405" class="icon" viewBox="0 0 1024 1024" version="1.1" xmlns="http://www.w3.org/2000/svg" p-id="15677" xmlns:xlink="http://www.w3.org/1999/xlink" width="32" height="32"><defs><style type="text/css"></style></defs><path d="M680.471 164.833s44.081-40.475 46.705-43.096c2.621-2.624 59.977-52.93 133.555 6.554 17.7 15.403 90.787 86.361 55.552 151.09-9.174 13.603-17.695 20.648-59.484 62.109-8.359-8.359-176.328-176.657-176.328-176.657z m-71.775 70.466l176.163 176.656-398.048 400.669-35.726 31.791s-13.271 14.587-50.963 29.005c-37.691 14.587-92.59 35.07-157.32 49.49-18.515 2.621-51.618 8.522-47.521-33.759 3.933-42.277 31.134-115.04 46.213-161.905 19.172-44.245 33.755-57.52 60.796-85.868 27.201-28.35 406.406-406.079 406.406-406.079z m58.992 606.494h84.562v83.25h-84.562v-83.25z m-172.23 0h84.561v83.25h-84.561v-83.25z m344.461 0h84.557v83.25h-84.557v-83.25z m0 0" fill="#2c2c2c" p-id="15678"></path></svg>