<?xml version="1.0" standalone="no"?><!DOCTYPE svg PUBLIC "-//W3C//DTD SVG 1.1//EN" "http://www.w3.org/Graphics/SVG/1.1/DTD/svg11.dtd"><svg t="1595955585209" class="icon" viewBox="0 0 1024 1024" version="1.1" xmlns="http://www.w3.org/2000/svg" p-id="16010" xmlns:xlink="http://www.w3.org/1999/xlink" width="32" height="32"><defs><style type="text/css"></style></defs><path d="M741.595429 73.874286L458.093714 420.571429 432.274286 609.718857a56.832 56.832 0 0 0 55.149714 69.778286 56.393143 56.393143 0 0 0 28.379429-7.606857L712.411429 597.065143 804.571429 484.205714V950.857143a73.142857 73.142857 0 0 1-73.142858 73.142857H73.142857a73.142857 73.142857 0 0 1-73.142857-73.142857V146.285714a73.142857 73.142857 0 0 1 73.142857-73.142857h658.285714c3.437714 0 6.875429 0.219429 10.166858 0.731429z m249.197714-49.298286a73.435429 73.435429 0 0 1 9.142857 103.862857l-359.131429 423.350857-115.565714 39.862857a15.067429 15.067429 0 0 1-14.555428-2.706285 14.628571 14.628571 0 0 1-5.046858-13.750857l20.918858-118.198858L885.76 33.645714a74.825143 74.825143 0 0 1 105.033143-9.069714zM182.857143 731.428571a36.571429 36.571429 0 1 0 0 73.142858h438.857143a36.571429 36.571429 0 1 0 0-73.142858h-438.857143z m0-219.428571a36.571429 36.571429 0 0 0 0 73.142857h146.285714a36.571429 36.571429 0 0 0 0-73.142857h-146.285714z m0-219.428571a36.571429 36.571429 0 0 0 0 73.142857h73.142857a36.571429 36.571429 0 0 0 0-73.142857h-73.142857z" fill="#000000" fill-opacity=".85" p-id="16011"></path></svg>