<?xml version="1.0" standalone="no"?><!DOCTYPE svg PUBLIC "-//W3C//DTD SVG 1.1//EN" "http://www.w3.org/Graphics/SVG/1.1/DTD/svg11.dtd"><svg t="1595955592214" class="icon" viewBox="0 0 1024 1024" version="1.1" xmlns="http://www.w3.org/2000/svg" p-id="16151" xmlns:xlink="http://www.w3.org/1999/xlink" width="32" height="32"><defs><style type="text/css"></style></defs><path d="M878.2 889.4H169.3c-16.2 0-29.5 14.4-29.5 32s13.3 32 29.5 32h708.9c16.2 0 29.5-14.4 29.5-32 0.1-17.6-13.2-32-29.5-32zM798.3 489.9H656.7c6.4-16 15.4-30.4 27-43.1 40.7-47.3 62.3-106.4 60.7-166C742.7 157 643 52.1 521.4 46.9c-65.9-1.9-125.1 21.4-170.9 66.9s-71 106.6-71 171.8c0 58.5 20.5 114.7 57.4 157.7 12.3 14.9 22.1 30.7 29.1 46.6H225.6c-65 0-117.9 54.1-117.8 120.6v147.7c0 33.9 27.2 61.5 60.6 61.5h687.1c33.4 0 60.6-27.6 60.7-61.5V610.5c0-66.5-52.9-120.6-117.9-120.6z" p-id="16152" fill="#515151"></path></svg>