<?xml version="1.0" standalone="no"?><!DOCTYPE svg PUBLIC "-//W3C//DTD SVG 1.1//EN" "http://www.w3.org/Graphics/SVG/1.1/DTD/svg11.dtd"><svg t="1623821954945" class="icon" viewBox="0 0 1024 1024" version="1.1" xmlns="http://www.w3.org/2000/svg" p-id="9814" xmlns:xlink="http://www.w3.org/1999/xlink" width="200" height="200"><defs><style type="text/css"></style></defs><path d="M567.5 855.4c-10.6 0-20.5-5.3-26.5-14.1-4.9-7.2-6.5-16.2-4.4-24.6 0.4-1.5 0.9-2.9 1.5-4.3-4.8 1.9-9.9 2.7-15.1 2.4h-0.3c-15.9-1.4-28.1-14.4-28.1-30.1 0-1.1 0.1-2.4 0.2-3.9l52.8-552.2-256.5 110.5c-4 1.7-8.2 2.6-12.6 2.6-12.4 0-23.8-7.3-29.2-18.7-7.2-15.2 0-33.9 15.6-41l257.9-110.8c4-1.8 8.4-2.7 12.9-2.6 12.7 0 24.1 7.4 29 18.9l0.1 0.2c1.9 4.7 2.5 9.7 2 14.6 4.7-1.8 9.8-2.5 14.8-1.8 8.1 0.6 15.5 4.3 20.8 10.2 5.5 6.3 8.3 14.4 7.7 22.7l-52.8 553.2c-0.2 3.2-1 6.4-2.2 9.4l231.6-146c5.2-3.3 11.2-5.1 17.4-5.1 10.9 0 20.8 5.6 26 14.7 3.3 4.9 5.1 10.6 5.1 16.5 0.1 10.5-5.6 20.3-14.9 25.6L584.1 850.5c-4.9 3.2-10.7 4.9-16.6 4.9zM180.2 671.1c-1.4 0-2.8-0.1-4.1-0.3-8.2-1.2-15.6-5.3-20.8-11.6-5.4-6.6-7.8-14.7-6.6-22.7l38-272.5c2.1-15.2 15.5-26.6 31.1-26.6 17.3 0 31.4 13.8 31.4 30.8 0 1.4-0.1 2.8-0.2 3.8v0.4l-37.1 272.4c-2.3 14.8-16.2 26.3-31.7 26.3z" fill="#86BF48" p-id="9815"></path><path d="M466.4 774.6c-11.7 0-22.5-5.5-28.5-14.7l-0.2-0.4-244.8-402.4c-4.1-6.5-5.2-14.7-2.8-22.3 2.4-7.9 8.2-14.7 16.1-18.7 4.6-2.4 9.8-3.7 15.1-3.7 11.6 0 22.9 6 29.4 15.6l0.2 0.4L494.7 730c2.7 4.5 4 9.5 4 14.6 0 10.7-6.1 20.6-16.1 26.2l-0.3 0.1c-4.9 2.4-10.4 3.7-15.9 3.7z m376.4-194c-11.1 0-21.4-4.9-27.4-13.2L563 215.3c-10-13.7-5.9-32.9 8.9-41.9 5.2-3.2 11.4-4.9 17.7-4.8 11.2 0 22 5.3 28.2 13.7l252.4 352.2c3.6 4.8 5.5 10.5 5.5 16.5 0 9.8-5.3 19-14.3 24.5-5.6 3.3-12 5.1-18.6 5.1z" fill="#9AD05E" p-id="9816"></path><path d="M432.8 855.4c-4.7 0-9.3-0.9-13.6-2.8l-253-118.1c-10.9-4.8-17.9-15.1-17.9-26.5 0-4.6 1.1-9.1 3.4-13.3 4.9-10 16-16.5 28.3-16.5 4.7 0 9.3 0.9 13.6 2.8l253 118.1c7.8 3.4 13.7 9.7 16.4 17.4 2.7 7.4 2 15.5-1.9 22.4-5.1 10.2-15.9 16.5-28.3 16.5z m330.5-201.8c-5.3 0-10.5-1.3-15.1-3.6L224 386c-10.4-5.2-16.9-15.4-16.9-26.5 0-5.1 1.4-10.1 3.9-14.4l0.2-0.3c5.8-9.1 16.3-14.6 27.6-14.6 5.2 0 10.3 1.2 15.2 3.5L778.3 597c14.9 7.5 20.7 25.2 13.3 40.1l-0.1 0.2-0.1 0.2c-5.6 9.9-16.4 16-28.1 16.1z" fill="#9AD05E" p-id="9817"></path><path d="M179.9 653.4c-7.2 0-14.2-2.4-19.8-6.8-6.5-5.3-10.6-12.9-11.4-21.2-0.9-8.3 1.5-16.3 6.8-22.6l340.8-422.6c6-7.3 15-11.6 24.5-11.6 7.1 0 13.9 2.3 19.7 6.6l0.3 0.2c6.5 5.3 10.7 13 11.5 21.3 0.8 8.2-1.6 16.2-6.7 22.4L204.4 642c-6 7.2-15 11.4-24.5 11.4z" fill="#86BF48" p-id="9818"></path><path d="M180.3 693.8c-17.9 0-31.9-14.9-31.9-34 0-18.4 13.4-33.7 30.5-34.8h0.4l583.3-11.9c0.6 0 1.2-0.1 1.8-0.1 16.8 0 30.4 15.3 30.4 34.1 0 18.9-13.8 34.1-30.8 34.1l-583.6 12.6h-0.1z" fill="#9AD05E" p-id="9819"></path><path d="M511.7 936.2c-23.6 0-46.5-9.2-62.7-25.1-16.5-16.2-25.5-38-25.5-61.3 0-23.1 8.8-44 25.5-60.5 16.5-16.5 39.1-25.8 62.7-25.9h0.4c22.7 0.1 44.6 9.3 61.6 25.9 16.7 16.4 25.6 37.3 25.6 60.5 0 23.3-9.1 45.1-25.5 61.3-16.2 16.1-38.4 25.2-61.5 25.1h-0.6zM155.9 769.8c-23 0-45.9-9.4-62.7-25.8-16.5-15.8-25.7-37.1-25.7-60.1v-0.4c0-23.3 9.1-45.1 25.5-61.3 16.8-16.2 38.9-25 62.3-25h0.6c23.2-0.1 45.5 8.9 61.8 25 16.8 16.4 26.4 38.7 26.4 61.3 0 22.3-9.4 43.7-26.4 60.5-16.8 16.6-38.8 25.8-61.8 25.8z m712-56.2c-22.6 0-44.4-9.1-61.4-25.6-17.1-16-26.6-37.5-26.6-60.7 0-23.2 9.4-44.7 26.6-60.7 17-16.5 38.9-25.6 61.7-25.6 22.9 0 45.7 9.3 62.5 25.6 16.4 15.2 25.8 37.3 25.8 60.7 0 23.4-9.4 45.5-25.7 60.7-16.7 16.3-39.3 25.5-62.9 25.6zM191.8 403.9c-23 0-45.9-9.4-62.7-25.8-16.7-16.5-25.6-37.4-25.6-60.5 0-23.3 9.1-45.1 25.5-61.3 16.9-16.2 39-25.1 62.3-25.1h0.4c23.2-0.1 45.5 9 61.9 25.1 16.5 16.2 25.5 38 25.5 61.3 0 22.8-9.1 44.3-25.5 60.5-16.9 16.7-38.8 25.8-61.8 25.8z m382.3-143.3c-23.7-0.2-46.4-9.6-62.9-26.2-16.2-15.9-25.2-37.2-25.2-60.1 0-23.4 9.1-45.2 25.6-61.3 16.4-15.8 37.9-24.7 60.5-25.1 0.7-0.1 1.4-0.1 2.2-0.1 23.1 0 45.7 9.2 61.9 25.1 16.5 16.2 25.5 38 25.5 61.3 0 22.7-9.1 44.4-25.5 60.5-16.9 16.5-39.4 25.9-61.9 25.9h-0.2z" fill="#F5B34E" p-id="9820"></path></svg>