<?xml version="1.0" standalone="no"?><!DOCTYPE svg PUBLIC "-//W3C//DTD SVG 1.1//EN" "http://www.w3.org/Graphics/SVG/1.1/DTD/svg11.dtd"><svg t="1692844713871" class="icon" viewBox="0 0 1024 1024" version="1.1" xmlns="http://www.w3.org/2000/svg" p-id="55751" xmlns:xlink="http://www.w3.org/1999/xlink" width="200" height="200"><path d="M512.219065 1.772896C231.48004 1.772896 3.897313 229.865075 3.897313 511.225632c0 281.365652 227.582726 509.452736 508.321752 509.452736 280.73393 0 508.321751-228.087085 508.321751-509.452736 0-281.360557-227.587821-509.452736-508.321751-509.452736" fill="#ED1C24" p-id="55752"></path><path d="M513.35005 32.38591c264.03407 0 478.839721 214.810746 478.839721 478.834627 0 264.039164-214.805652 478.84991-478.839721 478.849911S34.510328 775.259701 34.510328 511.225632c0-264.028975 214.805652-478.839721 478.839722-478.839722" fill="#FFFFFF" p-id="55753"></path><path d="M515.347104 204.198846c1.711761 4.090905 2.893692 8.507861 5.216796 12.216676 112.716418 179.612657 225.529632 359.164179 338.327563 538.730985 2.603303 4.141851 5.089433 8.365214 5.924935 14.045612l-350.584995-362.144477-350.53405 361.981453-1.813652-1.13608c2.144796-3.591642 4.213174-7.234229 6.439483-10.78002 112.757174-179.58209 225.539821-359.15399 338.220577-538.787025 2.735761-4.355821 4.360915-9.404498 6.505712-14.127124h2.297631z" fill="#ED1C24" p-id="55754"></path><path d="M673.741055 658.513512h-319.17214c19.675065-20.357731 37.801393-39.350129 56.325095-57.950248 2.007244-2.012338 6.296836-2.445373 9.526766-2.450468 62.413055-0.137552 124.826109-0.147741 187.23407 0.030567 3.540697 0.010189 8.161433 0.804935 10.428497 3.077095 18.304637 18.335204 36.16605 37.108537 55.657712 57.293054M453.866348 551.946189l59.646727-53.176677 60.691104 53.925573a543.58607 543.58607 0 0 1-1.976677 2.771422H456.342289l-2.475941-3.520318" fill="#ED1C24" p-id="55755"></path></svg>