<?xml version="1.0" standalone="no"?><!DOCTYPE svg PUBLIC "-//W3C//DTD SVG 1.1//EN" "http://www.w3.org/Graphics/SVG/1.1/DTD/svg11.dtd"><svg t="1623821926013" class="icon" viewBox="0 0 1024 1024" version="1.1" xmlns="http://www.w3.org/2000/svg" p-id="9563" xmlns:xlink="http://www.w3.org/1999/xlink" width="200" height="200"><defs><style type="text/css"></style></defs><path d="M352.2 451v122l-27.3 19.1-97-56.5-115.5 66v136.7l115.5 66L352.2 736V634.1l19.9-20.4L492 695V532.4L352.2 451z m344.6 141.1l-25-19.1V451L532 532.4v162.7l119.9-81.4 40 20.4v101.7l104.3 68.3 115.5-66V601.5l-119.9-69.2-95 59.8zM851.6 329l-159.8-81.4v-81.4l219.8 122.1v233.2l-59.9-50.1-0.1-142.4zM372.2 796.8l-70.3 45L512 959.6l210.2-117.8-70.3-45L512 878.2l-139.8-81.4zM172.4 329l159.8-81.4v-81.4L112.4 288.3v233.2l59.9-50.1 0.1-142.4z m201.1 74.6L512 483.7l23.1-14.1 115.5-66-115.5-66v-16.5l92.4-54.2V132.8L512 64.4l-115.5 68.3v134.4l92.4 54.2v16.5l-115.4 65.8z m0 0" p-id="9564" fill="#1296db"></path></svg>