<?xml version="1.0" standalone="no"?><!DOCTYPE svg PUBLIC "-//W3C//DTD SVG 1.1//EN" "http://www.w3.org/Graphics/SVG/1.1/DTD/svg11.dtd"><svg t="1692844609756" class="icon" viewBox="0 0 1024 1024" version="1.1" xmlns="http://www.w3.org/2000/svg" p-id="47467" xmlns:xlink="http://www.w3.org/1999/xlink" width="200" height="200"><path d="M870 486.6c-38.4 0-71.2 24-84.1 57.9l-269.6-57.4 111.9-243.3c5 0.9 10.1 1.3 15.3 1.3 49.7 0 90-40.3 90-90s-40.3-90-90-90-90 40.3-90 90c0 33.1 17.9 62 44.5 77.7L487.6 473.1 239.8 268.8c9.4-14.2 14.9-31.2 14.9-49.5 0-49.7-40.3-90-90-90s-90 40.3-90 90 40.3 90 90 90c19.8 0 38.1-6.4 53-17.2L469 499.2 221.7 725.5c-15.7-13.2-35.9-21.2-58.1-21.2-49.7 0-90 40.3-90 90s40.3 90 90 90 90-40.3 90-90c0-16-4.2-31.1-11.5-44.1l246.8-225.7 143.2 272.4c-22.2 16.4-36.7 42.8-36.7 72.5 0 49.7 40.3 90 90 90s90-40.3 90-90-40.3-90-90-90c-8.5 0-16.8 1.2-24.6 3.4L523.5 521.4 780 575.9v0.6c0 49.7 40.3 90 90 90s90-40.3 90-90c0-49.6-40.3-89.9-90-89.9zM643.6 97.2c32 0 58 26 58 58s-26 58-58 58-58-26-58-58 26-58 58-58z m99.8 772.1c0 32-26 58-58 58s-58-26-58-58 26-58 58-58 58 26 58 58zM164.6 277.2c-32 0-58-26-58-58s26-58 58-58 58 26 58 58-26 58-58 58z m-1 575c-32 0-58-26-58-58s26-58 58-58 58 26 58 58-26 58-58 58zM870 634.6c-32 0-58-26-58-58s26-58 58-58 58 26 58 58-26 58-58 58z" fill="#4D4D4D" p-id="47468"></path><path d="M362.2 498.6c0 72.5 58.8 131.2 131.2 131.2S624.6 571 624.6 498.6s-58.8-131.2-131.2-131.2-131.2 58.7-131.2 131.2z" fill="#7E4AFF" p-id="47469"></path><path d="M493.4 630.3c-72.6 0-131.7-59.1-131.7-131.7s59.1-131.7 131.7-131.7S625.1 426 625.1 498.6c0.1 72.6-59 131.7-131.7 131.7z m0-262.4c-72.1 0-130.7 58.6-130.7 130.7s58.6 130.7 130.7 130.7 130.7-58.6 130.7-130.7-58.6-130.7-130.7-130.7z" fill="#F2F2F2" p-id="47470"></path></svg>