<?xml version="1.0" standalone="no"?><!DOCTYPE svg PUBLIC "-//W3C//DTD SVG 1.1//EN" "http://www.w3.org/Graphics/SVG/1.1/DTD/svg11.dtd"><svg t="1692842449899" class="icon" viewBox="0 0 1024 1024" version="1.1" xmlns="http://www.w3.org/2000/svg" p-id="33193" xmlns:xlink="http://www.w3.org/1999/xlink" width="200" height="200"><path d="M1012.29106 1024H7.451143v-17.031185l12.773389-21.288981h992.066528z" fill="#CDD6E0" p-id="33194"></path><path d="M424.715177 830.27027L201.180873 604.607069H84.091476L7.451143 1006.968815l400.232849-78.769231z" fill="#FFD15C" p-id="33195"></path><path d="M531.160083 302.303534l-197.987526 197.987526-131.991684 131.991684c-8.515593 48.964657 6.386694 100.058212 44.706861 136.249481 38.320166 38.320166 89.413721 53.222453 136.24948 44.70686l131.991684-131.991684 197.987526-197.987526-180.956341-180.956341z" fill="#84DBFF" p-id="33196"></path><path d="M458.777547 232.049896L305.496881 383.201663 84.091476 604.607069c34.06237 23.417879 76.640333 31.933472 114.960499 25.546777l131.991684-131.991684 197.987526-197.987526-70.253638-68.12474zM712.116424 483.259875L514.128898 681.247401l-131.991684 131.991684c-6.386694 40.449064 2.128898 80.898129 25.546778 114.960499l221.405405-221.405405 153.280665-153.280665-70.253638-70.253639z" fill="#54C0EB" p-id="33197"></path><path d="M978.22869 178.827443l-144.765073-144.765073c-48.964657-48.964657-129.862786-48.964657-180.95634 0l-83.027028 83.027027 323.592516 323.592516 83.027027-83.027027c53.222453-46.835759 53.222453-127.733888 2.128898-178.827443z" fill="#FF7058" p-id="33198"></path><path d="M782.370062 555.642412l125.60499-125.60499L584.382536 106.444906l-125.604989 125.60499" fill="#40596B" p-id="33199"></path><path d="M758.952183 576.931393c-87.284823-125.60499-195.858628-234.178794-321.463618-321.463618-10.644491-6.386694-12.773389-21.288981-6.386694-31.933471s21.288981-12.773389 31.933472-6.386695c129.862786 89.413721 242.694387 202.245322 332.108108 334.237006 8.515593 10.644491 4.257796 25.546778-6.386694 31.933472-8.515593 6.386694-23.417879 4.257796-29.804574-6.386694zM818.561331 515.193347c-87.284823-125.60499-195.858628-234.178794-321.463618-321.463617-10.644491-6.386694-12.773389-21.288981-6.386694-31.933472s21.288981-12.773389 31.933472-6.386695C654.636175 246.952183 767.467775 359.783784 856.881497 489.64657c8.515593 10.644491 4.257796 25.546778-6.386695 31.933472-10.644491 8.515593-23.417879 4.257796-31.933471-6.386695zM880.299376 455.5842c-87.284823-125.60499-195.858628-234.178794-321.463617-321.463618-10.644491-6.386694-12.773389-21.288981-6.386695-31.933472s21.288981-12.773389 31.933472-6.386694C714.245322 185.214137 827.076923 298.045738 916.490644 430.037422c8.515593 10.644491 4.257796 25.546778-6.386694 31.933472-8.515593 6.386694-23.417879 4.257796-29.804574-6.386694z" fill="#F2F2F2" p-id="33200"></path><path d="M30.869023 887.75052L7.451143 1006.968815l119.218296-23.417879z" fill="#40596B" p-id="33201"></path></svg>