<?xml version="1.0" standalone="no"?><!DOCTYPE svg PUBLIC "-//W3C//DTD SVG 1.1//EN" "http://www.w3.org/Graphics/SVG/1.1/DTD/svg11.dtd"><svg t="1692845505149" class="icon" viewBox="0 0 1024 1024" version="1.1" xmlns="http://www.w3.org/2000/svg" p-id="79394" xmlns:xlink="http://www.w3.org/1999/xlink" width="200" height="200"><path d="M836.786087 582.047536l-51.942029-6.826666a8.013913 8.013913 0 0 1-6.010435-4.377971l-22.260869-46.970435a8.236522 8.236522 0 0 0-3.635942-3.635942 7.42029 7.42029 0 0 0-10.314203 3.635942l-22.26087 46.970435a7.865507 7.865507 0 0 1-6.010435 4.377971l-51.942029 6.826666a7.42029 7.42029 0 0 0-4.600579 2.30029 7.42029 7.42029 0 0 0 0 10.982029l37.695072 35.84a7.42029 7.42029 0 0 1 2.30029 7.42029l-8.830145 50.754783a8.088116 8.088116 0 0 0 0.816232 5.12 7.791304 7.791304 0 0 0 10.536812 3.116521l45.708985-24.857971a7.42029 7.42029 0 0 1 7.42029 0l45.783188 24.783768a7.865507 7.865507 0 0 0 5.045797 0.816232 7.791304 7.791304 0 0 0 6.233044-9.052753L801.391304 638.144928a7.42029 7.42029 0 0 1 2.30029-7.42029l37.769276-35.84a8.013913 8.013913 0 0 0 2.300289-4.60058 7.42029 7.42029 0 0 0-6.975072-8.236522z" fill="#30B280" p-id="79395"></path><path d="M883.014493 7.42029H140.985507A133.565217 133.565217 0 0 0 7.42029 140.985507v742.028986a133.565217 133.565217 0 0 0 133.565217 133.565217h742.028986a133.565217 133.565217 0 0 0 133.565217-133.565217V140.985507a133.565217 133.565217 0 0 0-133.565217-133.565217z m8.310724 424.96V452.637681H608.463768v-20.034782a12.911304 12.911304 0 0 1 12.911304-12.837102h257.484058a12.837101 12.837101 0 0 1 12.466087 12.614493zM508.809275 140.985507a144.695652 144.695652 0 1 1-144.695652 144.695652A144.695652 144.695652 0 0 1 508.809275 140.985507zM246.502029 675.246377c1.706667-95.202319 66.782609-176.677101 160.129855-211.70087l102.177391 90.972754 48.899711-43.557102 0.964637 202.054493H246.502029z m654.692174 185.507246H121.395942a27.603478 27.603478 0 0 1-0.890435-6.455652c0-55.726377 174.970435-100.915942 390.826667-100.915942 28.790725 0 46.005797 0 73.089855 1.855072l153.822609 81.623189a25.6 25.6 0 0 0 23.002898 0l75.983768-37.991884c40.96 15.953623 64.853333 35.023768 64.853334 55.652174a27.603478 27.603478 0 0 1-0.890435 6.233043z m3.042319-142.172753a12.911304 12.911304 0 0 1-7.42029 11.501449l-135.865507 67.895652a25.6 25.6 0 0 1-23.002899 0L602.37913 730.156522a12.911304 12.911304 0 0 1-7.420289-11.50145V494.85913A12.837101 12.837101 0 0 1 608.463768 482.318841h283.232464a12.837101 12.837101 0 0 1 12.911304 12.837101z" fill="#30B280" p-id="79396"></path></svg>