<?xml version="1.0" standalone="no"?><!DOCTYPE svg PUBLIC "-//W3C//DTD SVG 1.1//EN" "http://www.w3.org/Graphics/SVG/1.1/DTD/svg11.dtd"><svg t="1692845300014" class="icon" viewBox="0 0 1024 1024" version="1.1" xmlns="http://www.w3.org/2000/svg" p-id="66915" xmlns:xlink="http://www.w3.org/1999/xlink" width="200" height="200"><path d="M512 694.442667a307.2 307.2 0 1 1 307.2-307.2 307.2 307.2 0 0 1-307.2 307.2z m0-528.042667a221.866667 221.866667 0 1 0 221.866667 221.866667 221.866667 221.866667 0 0 0-221.866667-221.866667z" fill="#FF8F43" p-id="66916"></path><path d="M321.024 916.48V606.208h85.333333V790.186667l62.976-25.429334v-107.349333h85.333334v165.034667L321.024 916.48z" fill="#FF8F43" p-id="66917"></path><path d="M708.266667 916.48l-233.642667-94.037333v-165.034667h85.333333v107.349333l62.976 25.429334V606.208h85.333334V916.48z" fill="#FF8F43" p-id="66918"></path><path d="M512 262.485333l36.352 73.557334 81.066667 11.776-58.709334 57.173333 13.824 80.896L512 447.658667l-72.533333 38.229333 13.824-80.896-58.709334-57.173333 81.066667-11.776L512 262.485333z" fill="#FF3333" p-id="66919"></path></svg>