<?xml version="1.0" standalone="no"?><!DOCTYPE svg PUBLIC "-//W3C//DTD SVG 1.1//EN" "http://www.w3.org/Graphics/SVG/1.1/DTD/svg11.dtd"><svg t="1692845452679" class="icon" viewBox="0 0 1024 1024" version="1.1" xmlns="http://www.w3.org/2000/svg" p-id="76850" xmlns:xlink="http://www.w3.org/1999/xlink" width="200" height="200"><path d="M723.7 743.7c-59.5 1.7-119-1-178-8.1-68.9-6.5-42-34.2-31.1-37.4 11-3.1 142.9-10.5 187.6-15.7 39.6-4.5 34-43.4-10.7-44.7-44.7-1.3-246-15-314.9-10.5-68.9 4.5-168.2 94.8-168.2 94.8l3.8 14.3L357.1 865l19.5-1.6c20.5-11.6 42.3-20.5 65.1-26.4 29.5-6.3 192.8 11.6 249.4 3.6 56.6-8.1 201.3-129.7 233.7-156.6 15.4-13 26.6-31.3 22.4-36.5-15.4-23.5-54.6-14.1-73.8-2.7M327 882.1c-1.5-3.7-4.1-6.8-7.4-9.1-11.9-12.1-127-115-140.4-125.9-10.2-10.2-26.4-11-37.6-2-9.2 7.2-47.2 36.7-57.9 44.7-16.8 11.6-1.8 30.9 7.6 39.8 9.4 8.9 111.8 104.2 127.5 119.2 10 12.7 28.4 14.9 41.1 4.9h0.3c11.4-9.6 38.8-32.4 55.8-44.7 10.4-4.4 15.4-16.5 11-26.9z" fill="#79D4FA" p-id="76851"></path><path d="M824 64H200c-22.1 0-40 17.9-40 40v552c20-15.9 49.5-37.5 80-53.3V144h544v376h80V104c0-22.1-17.9-40-40-40z" fill="#20B8F7" p-id="76852"></path><path d="M652 404h-25.8l-43.6-75.5c10.9-14.7 17.4-32.8 17.4-52.5 0-48.6-39.4-88-88-88s-88 39.4-88 88c0 22.3 8.3 42.7 22 58.2L405.8 404H372c-22.1 0-40 17.9-40 40v64c0 22.1 17.9 40 40 40h280c22.1 0 40-17.9 40-40v-64c0-22.1-17.9-40-40-40zM512 252c13.2 0 24 10.8 24 24s-10.8 24-24 24-24-10.8-24-24 10.8-24 24-24z m-9 111.5c3 0.3 5.9 0.5 9 0.5 5.6 0 11.1-0.5 16.4-1.5l24 41.5h-72.7l23.3-40.5zM628 484H396v-16h232v16z" fill="#20B8F7" p-id="76853"></path></svg>