<?xml version="1.0" standalone="no"?><!DOCTYPE svg PUBLIC "-//W3C//DTD SVG 1.1//EN" "http://www.w3.org/Graphics/SVG/1.1/DTD/svg11.dtd"><svg t="1692845533821" class="icon" viewBox="0 0 1024 1024" version="1.1" xmlns="http://www.w3.org/2000/svg" p-id="80708" xmlns:xlink="http://www.w3.org/1999/xlink" width="200" height="200"><path d="M1001.335 457.022L900.778 356.488V200.977a77.983 77.983 0 0 0-77.755-77.756H667.51L566.977 22.687a77.983 77.983 0 0 0-109.955 0L356.488 123.221H200.977a77.983 77.983 0 0 0-77.756 77.756v155.511L22.687 457.022a77.983 77.983 0 0 0 0 109.955l100.534 100.534v155.512a77.983 77.983 0 0 0 77.756 77.755h155.511l100.534 100.534a77.983 77.983 0 0 0 109.978 0l100.511-100.534h155.512a77.983 77.983 0 0 0 77.755-77.755V667.51l100.557-100.534a77.983 77.983 0 0 0 0-109.955zM512 784.156L278.755 356.488H395.4L512 589.756l116.645-233.268h116.622z" fill="#38C490" p-id="80709"></path></svg>