<?xml version="1.0" standalone="no"?><!DOCTYPE svg PUBLIC "-//W3C//DTD SVG 1.1//EN" "http://www.w3.org/Graphics/SVG/1.1/DTD/svg11.dtd"><svg t="1597211449470" class="icon" viewBox="0 0 1025 1024" version="1.1" xmlns="http://www.w3.org/2000/svg" p-id="21956" xmlns:xlink="http://www.w3.org/1999/xlink" width="200.1953125" height="200"><defs><style type="text/css"></style></defs><path d="M0 912l64 0 0-352 256 0-0.896 240.736c0 0 8.48 49.856-63.104 47.264l0 64 96 0c31.136 1.728 32-32 32-32l0-384-384 0L0 912zM32 240l0 192 320 0 0-192L32 240zM288 368l-192 0 0-64 192 0L288 368zM0 176l416 0 0-64-416 0L0 176zM489.504 476.768l22.496 19.232 0-192 64 0 0 173.408 51.968-54.784c0.16-0.192 0.288-0.384 0.448-0.576l3.072-3.136 8.512-8.96L640 304l64 0-2.272 126.432 47.872 47.872 18.432-21.152L768.032 421.76l-20.192-22.56c0 0-20.352-35.904 0-69.184 6.336-10.336 14.144-20.736 20.192-28.416L768.032 208l-128 0 0-96-64 0 0 96-128 0 0 282.304 9.344-11.072C465.536 469.504 479.936 468.384 489.504 476.768zM288 720l-64 0 64-128-64 0-32 96c-8.48-31.52-32-96-32-96l-64 0 64 128-64 0 0 64 64 0 0 128 64 0 0-64 0-64 64 0L288 720zM992 528c-4.032-36.16-15.648-32-32-32-9.76 0-21.664 16.96-27.04 24.384 0-0.032-0.032-0.064-0.032-0.096l-135.744 170.112-36.576 41.504c-3.488 2.496-8.704 6.08-16.48 0.096l-3.904-4.992c-1.376-1.216-2.4-2.72-3.328-4.288l-63.968-82.08-89.088 91.776-15.2 16.48c-0.032-0.032-0.064-0.096-0.096-0.128-3.104 5.408-8.704 9.216-15.36 9.216-5.824 0-10.752-2.944-14.048-7.264-0.128 0.256-0.32 0.48-0.448 0.736l-51.008-49.984c-5.312-6.464-17.856-12.64-25.056-17.856-13.28-9.632-14.592 4.352-14.592 4.352l0 192 512 0c0 0 32-1.984 32-32C992 787.584 992.384 545.536 992 528zM558.176 677.888l12.032-14.272 91.136-96.064 54.336 54.336c1.408 2.368 3.2 4.544 5.472 6.336l4.096 3.232 9.056 9.056c4.64 4.704 10.72 6.88 16.768 6.72 7.52 0.704 15.2-2.336 20.16-8.864l147.68-170.752 73.12-99.616-192 0-4 3.04c0 0 1.568 9.856 4.128 13.696-0.352 0.096-0.704 0.224-1.056 0.288l53.28 54.176-102.784 118.848-52.384-52.416c-1.12-1.952-2.4-3.84-4.128-5.472l-16.672-15.904c-9.216-8.768-23.648-8.288-32.256 1.088l-12.64 13.312-3.072 3.136c-0.16 0.16-0.288 0.384-0.448 0.576l-90.88 95.744-47.584-41.632c-9.568-8.384-23.968-7.264-32.192 2.496l-14.88 17.632c-8.224 9.76-7.104 24.448 2.432 32.8l81.12 70.944C535.552 688.768 549.984 687.648 558.176 677.888z" p-id="21957"></path></svg>