<?xml version="1.0" standalone="no"?><!DOCTYPE svg PUBLIC "-//W3C//DTD SVG 1.1//EN" "http://www.w3.org/Graphics/SVG/1.1/DTD/svg11.dtd"><svg t="1692842076914" class="icon" viewBox="0 0 1024 1024" version="1.1" xmlns="http://www.w3.org/2000/svg" p-id="16091" xmlns:xlink="http://www.w3.org/1999/xlink" width="200" height="200"><path d="M71.36 61.44v896h896v-896h-896z m275.2 727.04L176 697.28l169.28-91.2 15.04 28.16-116.8 63.04 118.08 63.04-15.04 28.16z m152.64 25.28l-30.4-9.6 79.36-253.12 30.4 9.6-79.36 253.12z m192.64-25.28l-15.04-28.16 118.08-63.04-116.8-63.04 15.04-28.16 169.28 91.2-170.56 91.2z m179.52-388.48h-704v-256h704v256z" fill="#1890FF" p-id="16092"></path><path d="M167.36 400h704v-256h-704v256z m260.16-189.12h55.04v55.04h-55.04V210.88z m-96 0h55.04v55.04h-55.04V210.88z m-96 0h55.04v55.04H235.52V210.88zM360.64 634.24l-15.04-28.16-169.6 91.2 170.56 91.2 15.36-28.48-118.08-63.04zM468.608 804.096l79.296-253.184 30.528 9.6-79.296 253.12zM678.08 634.24l116.8 62.72-118.08 63.04 15.04 28.48 170.88-91.2-169.6-91.2z" fill="#FFFFFF" p-id="16093"></path><path d="M235.52 210.88h55.04v55.04H235.52zM331.52 210.88h55.04v55.04h-55.04zM427.52 210.88h55.04v55.04h-55.04z" fill="#1890FF" p-id="16094"></path></svg>