<?xml version="1.0" standalone="no"?><!DOCTYPE svg PUBLIC "-//W3C//DTD SVG 1.1//EN" "http://www.w3.org/Graphics/SVG/1.1/DTD/svg11.dtd"><svg t="1597147011930" class="icon" viewBox="0 0 1024 1024" version="1.1" xmlns="http://www.w3.org/2000/svg" p-id="12887" xmlns:xlink="http://www.w3.org/1999/xlink" width="200" height="200"><defs><style type="text/css"></style></defs><path d="M899.8912 573.44H651.6736a81.92 81.92 0 0 0-81.92 81.92v245.76a81.92 81.92 0 0 0 81.92 81.92h248.2176a81.92 81.92 0 0 0 81.92-81.92V655.36a81.92 81.92 0 0 0-81.92-81.92z m40.96 327.68a40.96 40.96 0 0 1-40.96 40.96H651.8784a40.96 40.96 0 0 1-40.96-40.96V655.36a40.96 40.96 0 0 1 40.96-40.96h248.2176a40.96 40.96 0 0 1 40.96 40.96zM368.64 573.44H122.88a81.92 81.92 0 0 0-81.92 81.92v245.76a81.92 81.92 0 0 0 81.92 81.92h245.76a81.92 81.92 0 0 0 81.92-81.92V655.36a81.92 81.92 0 0 0-81.92-81.92z m40.96 327.68a40.96 40.96 0 0 1-40.96 40.96H122.88a40.96 40.96 0 0 1-40.96-40.96V655.36a40.96 40.96 0 0 1 40.96-40.96h245.76a40.96 40.96 0 0 1 40.96 40.96zM959.6928 209.1008l-144.7936-144.7936a81.92 81.92 0 0 0-115.9168 0l-144.7936 144.7936a81.92 81.92 0 0 0 0 115.9168l144.7936 144.7936a81.92 81.92 0 0 0 115.9168 0l144.7936-144.7936a81.92 81.92 0 0 0 0-115.9168z m-28.4672 86.2208l-144.7936 144.7936a40.96 40.96 0 0 1-57.9584 0l-144.7936-144.7936a40.96 40.96 0 0 1 0-57.9584l144.7936-144.7936a40.96 40.96 0 0 1 57.9584 0l144.7936 144.7936a40.96 40.96 0 0 1 0.2048 57.9584zM409.6 204.8v204.8a40.96 40.96 0 0 1-40.96 40.96H122.88a40.96 40.96 0 0 1-40.96-40.96V163.84a40.96 40.96 0 0 1 40.96-40.96h245.76a40.96 40.96 0 0 1 40.96 40.96h40.96a81.92 81.92 0 0 0-81.92-81.92H122.88a81.92 81.92 0 0 0-81.92 81.92v245.76a81.92 81.92 0 0 0 81.92 81.92h245.76a81.92 81.92 0 0 0 81.92-81.92V204.8z" p-id="12888" fill="#eb5c20"></path></svg>