<?xml version="1.0" standalone="no"?><!DOCTYPE svg PUBLIC "-//W3C//DTD SVG 1.1//EN" "http://www.w3.org/Graphics/SVG/1.1/DTD/svg11.dtd"><svg t="1692842342826" class="icon" viewBox="0 0 1024 1024" version="1.1" xmlns="http://www.w3.org/2000/svg" p-id="24759" xmlns:xlink="http://www.w3.org/1999/xlink" width="200" height="200"><path d="M232.44 773.87h332.73c7.88 0 14.27-6.39 14.27-14.27V356.16c0-7.88-6.39-14.27-14.27-14.27H232.44c-7.88 0-14.27 6.39-14.27 14.27V759.6c0.01 7.88 6.39 14.27 14.27 14.27z" fill="#FF0000" opacity=".4" p-id="24760"></path><path d="M571.19 959.84H231.71c-36.12 0-65.51-31.45-65.51-70.11V238.66c0-38.66 29.39-70.11 65.51-70.11h396.51c36.12 0 65.51 31.45 65.51 70.11V454.4h-44V238.66c0-14.4-9.65-26.11-21.51-26.11H231.71c-11.86 0-21.51 11.71-21.51 26.11v651.07c0 14.4 9.65 26.11 21.51 26.11h339.48v44z" p-id="24761"></path><path d="M129.84 826.97c-35.8 0-64.93-30.64-64.93-68.31V131.99c0-37.67 29.13-68.31 64.93-68.31h391.23c35.8 0 64.93 30.64 64.93 68.31v1.23h-44v-1.23c0-13.4-9.39-24.31-20.93-24.31H129.84c-11.54 0-20.93 10.91-20.93 24.31v626.67c0 13.4 9.39 24.31 20.93 24.31v44zM636.58 947.18c-19 0-36.38-11.38-43.88-29.04l-50.64-119.41c-6.35-14.98-4.36-32.3 5.19-45.21L665.43 593.6c14.18-19.18 41.49-24.2 62.17-11.44l151.81 93.68c20.69 12.78 28.44 39.44 17.66 60.7L807.13 913.9c-7.25 14.31-21.84 23.85-38.07 24.89l-129.43 8.29c-1.02 0.07-2.04 0.1-3.05 0.1z m65.98-328.15c-0.77 0-1.42 0.28-1.75 0.72L582.62 779.67c-0.34 0.46-0.36 1.16-0.06 1.88l50.64 119.4c0.58 1.36 2.13 2.32 3.61 2.22l129.43-8.29c0.76-0.05 1.39-0.39 1.64-0.88l89.94-177.37c0.45-0.89-0.06-2.45-1.53-3.36L704.5 619.6c-0.65-0.4-1.33-0.57-1.94-0.57zM908.51 677.94c-6.35 0-12.59-1.76-18.12-5.18L724.05 570.12c-16.22-10.03-21.28-31.38-11.29-47.61l17.76-28.78c10.03-16.22 31.38-21.28 47.6-11.29L944.5 585.11c16.22 10.03 21.28 31.38 11.29 47.61l-17.76 28.78c-4.86 7.87-12.48 13.37-21.48 15.5-2.67 0.63-5.36 0.94-8.04 0.94zM755.15 537.61l150.37 92.79 7.88-12.78-150.37-92.79-7.88 12.78z" p-id="24762"></path><path d="M612.82 913.033l70.557-114.349 24.739 15.265-70.558 114.349z" p-id="24763"></path><path d="M707.15 841.6c-29.6 0-53.68-24.08-53.68-53.68s24.08-53.68 53.68-53.68 53.68 24.08 53.68 53.68-24.08 53.68-53.68 53.68z m0-63.36c-5.34 0-9.68 4.34-9.68 9.68s4.34 9.68 9.68 9.68 9.68-4.34 9.68-9.68-4.34-9.68-9.68-9.68z" p-id="24764"></path><path d="M671.76 452.41m-22.03 0a22.03 22.03 0 1 0 44.06 0 22.03 22.03 0 1 0-44.06 0Z" p-id="24765"></path><path d="M129.16 804.97m-22.03 0a22.03 22.03 0 1 0 44.06 0 22.03 22.03 0 1 0-44.06 0Z" p-id="24766"></path><path d="M564 133.63m-22.03 0a22.03 22.03 0 1 0 44.06 0 22.03 22.03 0 1 0-44.06 0Z" p-id="24767"></path><path d="M569.3 937.85m-22.1 0a22.1 22.1 0 1 0 44.2 0 22.1 22.1 0 1 0-44.2 0Z" p-id="24768"></path><path d="M532.73 499.4H255.14c-13.79 0-24.96-11.18-24.96-24.96 0-13.79 11.18-24.96 24.96-24.96h277.59c13.79 0 24.96 11.18 24.96 24.96 0 13.78-11.18 24.96-24.96 24.96zM483.54 598.46h-228.4c-13.79 0-24.96-11.18-24.96-24.96 0-13.79 11.18-24.96 24.96-24.96h228.4c13.79 0 24.96 11.18 24.96 24.96 0 13.78-11.18 24.96-24.96 24.96zM404.52 697.51H255.14c-13.79 0-24.96-11.18-24.96-24.96 0-13.79 11.18-24.96 24.96-24.96h149.39c13.79 0 24.96 11.18 24.96 24.96-0.01 13.79-11.18 24.96-24.97 24.96z" fill="#020202" p-id="24769"></path></svg>