<?xml version="1.0" standalone="no"?><!DOCTYPE svg PUBLIC "-//W3C//DTD SVG 1.1//EN" "http://www.w3.org/Graphics/SVG/1.1/DTD/svg11.dtd"><svg t="1623728521927" class="icon" viewBox="0 0 1024 1024" version="1.1" xmlns="http://www.w3.org/2000/svg" p-id="21296" xmlns:xlink="http://www.w3.org/1999/xlink" width="200" height="200"><defs><style type="text/css"></style></defs><path d="M803.588775 509.081865L492.94007 817.07772l138.744042 140.070467 310.648705-307.995855z m-251.22487 302.424871l245.123316-243.001037 87.809326 86.217617-245.123316 243.001036zM479.675822 830.872539l-56.770985 185.699482 195.515026-45.629016z m8.489119 42.445596l86.217617 87.013471-121.500519 28.650777zM1000.164941 539.854922L914.477894 453.106736a37.670466 37.670466 0 0 0-53.056995 0l-43.506735 42.976166 138.744041 140.601036 43.506736-42.976166a37.670466 37.670466 0 0 0 0-53.85285z m-29.977202 38.201037l-22.549223 22.814507-94.706736-95.50259 22.549223-22.814508a26.528497 26.528497 0 0 1 36.078757 0l58.627979 59.158549a26.528497 26.528497 0 0 1 0.265285 36.344042z" p-id="21297"></path><path d="M327.667532 1024H101.644734A89.401036 89.401036 0 0 1 12.508982 934.864249V89.135751A89.401036 89.401036 0 0 1 101.644734 0h721.044559a89.401036 89.401036 0 0 1 89.135752 89.135751v293.405182a26.528497 26.528497 0 0 1-53.056995 0V89.135751A36.078756 36.078756 0 0 0 822.689293 53.056995H101.644734A36.078756 36.078756 0 0 0 65.565977 89.135751v845.728498a36.078756 36.078756 0 0 0 36.078757 36.078756h226.022798a26.528497 26.528497 0 0 1 0 53.056995z" p-id="21298"></path><path d="M742.307946 172.169948H182.026081a26.528497 26.528497 0 1 0 0 53.056995h560.281865a26.528497 26.528497 0 0 0 0-53.056995zM519.203283 437.454922H182.026081a26.528497 26.528497 0 1 0 0 53.056995H519.203283a26.528497 26.528497 0 0 0 0-53.056995zM341.99292 702.739896h-159.170984a26.528497 26.528497 0 1 0 0 53.056995h159.170984a26.528497 26.528497 0 0 0 0-53.056995z" p-id="21299"></path></svg>