<?xml version="1.0" standalone="no"?><!DOCTYPE svg PUBLIC "-//W3C//DTD SVG 1.1//EN" "http://www.w3.org/Graphics/SVG/1.1/DTD/svg11.dtd"><svg t="1692844210126" class="icon" viewBox="0 0 1024 1024" version="1.1" xmlns="http://www.w3.org/2000/svg" p-id="42922" xmlns:xlink="http://www.w3.org/1999/xlink" width="200" height="200"><path d="M1024 823.978667A200.590222 200.590222 0 0 1 823.978667 1024H200.021333A200.590222 200.590222 0 0 1 0 823.978667V200.021333A200.590222 200.590222 0 0 1 200.021333 0h623.957334A200.590222 200.590222 0 0 1 1024 200.021333v623.957334z" fill="#707070" p-id="42923" data-spm-anchor-id="a313x.search_index.0.i27.737c3a81N0i3K5" class="selected"></path><path d="M767.488 492.828444v285.184a26.453333 26.453333 0 0 1-26.453333 26.453334h-163.84l177.095111-129.991111a14.791111 14.791111 0 0 0-1.365334-24.632889l-75.150222-43.349334 89.713778-113.664z m-302.876444 79.815112H349.752889a21.219556 21.219556 0 0 0-16.440889 8.476444 32.426667 32.426667 0 0 0-6.826667 20.309333c0 15.928889 10.410667 28.785778 23.267556 28.785778h114.915555a21.219556 21.219556 0 0 0 16.384-8.419555 32.426667 32.426667 0 0 0 6.826667-20.366223c0-15.928889-10.410667-28.785778-23.267555-28.785777z m108.828444-119.751112H355.271111a28.785778 28.785778 0 0 0 0 57.571556h218.168889a28.785778 28.785778 0 1 0 0-57.571556z m93.752889-119.808H355.271111a28.672 28.672 0 0 0-26.567111 39.822223 28.785778 28.785778 0 0 0 26.567111 17.749333h311.921778a28.785778 28.785778 0 1 0 0-57.571556z m100.295111 113.322667l-228.124444 157.127111a14.677333 14.677333 0 0 0 1.024 24.917334l65.592888 37.888-85.674666 138.126222h-238.933334a26.453333 26.453333 0 0 1-26.453333-26.453334v-512.568888c0-14.620444 11.889778-26.453333 26.453333-26.453334h459.662223c14.620444 0 26.453333 11.832889 26.453333 26.453334v180.963555z" fill="#FFFFFF" p-id="42924"></path></svg>