<?xml version="1.0" standalone="no"?><!DOCTYPE svg PUBLIC "-//W3C//DTD SVG 1.1//EN" "http://www.w3.org/Graphics/SVG/1.1/DTD/svg11.dtd"><svg t="1693123435263" class="icon" viewBox="0 0 1024 1024" version="1.1" xmlns="http://www.w3.org/2000/svg" p-id="20528" xmlns:xlink="http://www.w3.org/1999/xlink" width="200" height="200"><path d="M983.719332 711.294087a510.218799 510.218799 0 0 1-109.706866 162.738674A510.218799 510.218799 0 0 1 511.979807 1023.979123a510.566749 510.566749 0 0 1-362.032658-149.946362A510.218799 510.218799 0 0 1 0.000787 512.000102c0-69.098952 13.529149-136.171601 40.239496-199.293984a510.218799 510.218799 0 0 1 109.706866-162.738674A510.218799 510.218799 0 0 1 511.979807 0.021082a510.218799 510.218799 0 0 1 362.032659 149.946362 510.218799 510.218799 0 0 1 109.706866 162.738674A508.663253 508.663253 0 0 1 1023.958828 512.000102c0 69.098952-13.529149 136.151133-40.239496 199.293985zM511.979807 55.693223C260.370384 55.693223 55.672928 260.39068 55.672928 512.000102c0 251.609423 204.697457 456.30688 456.306879 456.30688 251.609423 0 456.30688-204.697457 456.30688-456.30688C968.286687 260.39068 763.58923 55.693223 511.979807 55.693223z m265.752603 728.875226H246.493285a23.1285 23.1285 0 0 1-23.087565-23.087565V738.372852a23.1285 23.1285 0 0 1 23.087565-23.087564h23.108032v-46.195597h485.043529v46.195597h23.087564a23.1285 23.1285 0 0 1 23.108032 23.087564v23.108032a23.1285 23.1285 0 0 1-23.108032 23.087565z m-92.370725-138.58679v-184.782385a23.1285 23.1285 0 0 1-23.108032-23.087565v-23.108032h115.478757v23.108032a23.1285 23.1285 0 0 1-23.087564 23.087565v184.782385h-69.283161z m-138.58679 0v-184.782385a23.1285 23.1285 0 0 1-23.108032-23.087565v-23.108032h115.499225v23.108032a23.1285 23.1285 0 0 1-23.108032 23.087565v184.782385H546.774895z m-138.586789 0v-184.782385A23.1285 23.1285 0 0 1 385.080074 438.111709v-23.108032h115.499225v23.108032a23.1285 23.1285 0 0 1-23.108032 23.087565v184.782385h-69.283161z m-138.607257 0v-184.782385a23.1285 23.1285 0 0 1-23.087564-23.087565v-23.108032h115.499225v23.108032a23.1285 23.1285 0 0 1-23.108032 23.087565v184.782385h-69.303629z m509.072607-254.065546H245.592706c-10.008705 0-18.809815-6.999953-21.429681-17.070061a23.537854 23.537854 0 0 1 10.23385-25.993978l266.30523-161.694821a21.552487 21.552487 0 0 1 22.371195 0l263.91051 160.221147c8.125676 3.438573 13.856632 11.748459 13.856632 21.429681 0 12.771844-9.926834 23.108032-22.186986 23.108032z m-266.530375-130.481581a49.613702 49.613702 0 0 0-49.63417 49.63417 49.613702 49.613702 0 0 0 49.63417 49.654638 49.63417 49.63417 0 1 0 0-99.288808z" fill="#E65256" p-id="20529"></path></svg>