<?xml version="1.0" standalone="no"?><!DOCTYPE svg PUBLIC "-//W3C//DTD SVG 1.1//EN" "http://www.w3.org/Graphics/SVG/1.1/DTD/svg11.dtd"><svg t="1623727084991" class="icon" viewBox="0 0 1024 1024" version="1.1" xmlns="http://www.w3.org/2000/svg" p-id="12854" xmlns:xlink="http://www.w3.org/1999/xlink" width="200" height="200"><defs><style type="text/css"></style></defs><path d="M798.3104 1009.2544c-73.3184 0-132.7104-59.5968-132.7104-132.7104V118.784h-28.672c-23.1424 0-42.1888-18.8416-42.1888-42.1888s18.8416-42.1888 42.1888-42.1888h322.7648c23.1424 0 42.1888 18.8416 42.1888 42.1888S983.04 118.784 959.6928 118.784h-28.4672v757.76c-0.2048 73.1136-59.5968 132.7104-132.9152 132.7104zM636.928 63.8976c-6.9632 0-12.6976 5.7344-12.6976 12.6976s5.7344 12.6976 12.6976 12.6976h57.9584V876.544c0 56.9344 46.2848 103.424 103.424 103.424s103.424-46.2848 103.424-103.424V89.088h57.9584c6.9632 0 12.6976-5.7344 12.6976-12.6976s-5.7344-12.6976-12.6976-12.6976H636.928zM234.496 160.9728h214.4256v50.7904H234.496zM581.8368 1005.568H101.5808c-41.7792 0-75.776-33.9968-75.776-75.776 0-18.432 6.7584-36.0448 18.8416-49.9712l169.984-299.008V322.1504c-23.9616 0-43.4176-19.456-43.4176-43.4176s19.456-43.4176 43.4176-43.4176h254.1568c23.9616 0 43.4176 19.456 43.4176 43.4176s-19.456 43.4176-43.4176 43.4176v258.8672l169.984 299.008c12.0832 13.9264 18.8416 31.5392 18.8416 49.9712 0 41.5744-33.9968 75.5712-75.776 75.5712zM214.6304 264.8064c-7.7824 0-13.9264 6.3488-13.9264 13.9264s6.3488 13.9264 13.9264 13.9264h29.4912v296.1408L68.608 897.4336l-1.2288 1.2288c-7.7824 8.6016-12.288 19.6608-12.288 31.3344 0 25.6 20.6848 46.2848 46.2848 46.2848H581.632c25.6 0 46.2848-20.6848 46.2848-46.2848 0-11.6736-4.3008-22.7328-12.288-31.3344l-1.2288-1.2288-175.5136-308.6336V292.6592h29.4912c7.7824 0 13.9264-6.3488 13.9264-13.9264s-6.3488-13.9264-13.9264-13.9264H214.6304z" fill="#040000" p-id="12855"></path><path d="M482.0992 749.3632H200.4992L107.1104 944.128h473.088l-98.0992-194.7648z m-192.3072 105.472c-18.2272 0-32.768-14.7456-32.768-32.768 0-18.2272 14.7456-32.768 32.768-32.768s32.768 14.7456 32.768 32.768c0.2048 18.0224-14.5408 32.768-32.768 32.768z m115.3024 11.6736c-9.216 0-16.7936-7.5776-16.7936-16.7936 0-9.216 7.5776-16.7936 16.7936-16.7936 9.216 0 16.7936 7.5776 16.7936 16.7936 0 9.216-7.5776 16.7936-16.7936 16.7936z" fill="#040000" p-id="12856"></path><path d="M387.2768 666.8288m-30.9248 0a30.9248 30.9248 0 1 0 61.8496 0 30.9248 30.9248 0 1 0-61.8496 0Z" fill="#040000" p-id="12857"></path><path d="M301.056 509.5424m-19.2512 0a19.2512 19.2512 0 1 0 38.5024 0 19.2512 19.2512 0 1 0-38.5024 0Z" fill="#040000" p-id="12858"></path><path d="M363.52 371.0976m-7.168 0a7.168 7.168 0 1 0 14.336 0 7.168 7.168 0 1 0-14.336 0Z" fill="#040000" p-id="12859"></path><path d="M685.8752 224.8704h73.1136v29.4912h-73.1136zM685.8752 280.9856h36.6592v29.4912h-36.6592zM685.8752 337.1008h36.6592V366.592h-36.6592zM685.8752 393.0112h36.6592v29.4912h-36.6592zM685.8752 449.1264h36.6592v29.4912h-36.6592zM685.8752 505.0368h73.1136V534.528h-73.1136zM685.8752 561.152h36.6592v29.4912h-36.6592zM685.8752 617.2672h36.6592v29.4912h-36.6592zM685.8752 673.1776h36.6592v29.4912h-36.6592z" fill="#040000" p-id="12860"></path><path d="M685.8752 729.2928h36.6592v29.4912h-36.6592z" fill="#040000" p-id="12861"></path></svg>