<?xml version="1.0" standalone="no"?><!DOCTYPE svg PUBLIC "-//W3C//DTD SVG 1.1//EN" "http://www.w3.org/Graphics/SVG/1.1/DTD/svg11.dtd"><svg t="1692777190207" class="icon" viewBox="0 0 1024 1024" version="1.1" xmlns="http://www.w3.org/2000/svg" p-id="35888" xmlns:xlink="http://www.w3.org/1999/xlink" width="200" height="200"><path d="M400.1 553.4c-12 0-22.4-9-23.8-21.3-16.9-149.6-67.5-256.4-146.4-308.8-56.1-37.3-124.5-45.8-197.8-24.4-12.7 3.7-26-3.6-29.8-16.3s3.6-26 16.3-29.8c41.9-12.2 83.2-16.1 122.7-11.5 41.7 4.8 80.4 19 115.1 42.1 44 29.3 80.6 72.3 108.6 127.9 29.6 58.7 49.4 131.2 58.9 215.5 1.5 13.2-8 25.1-21.1 26.5-0.9 0-1.8 0.1-2.7 0.1z" fill="#5D4638" p-id="35889"></path><path d="M450.9 842L252.6 643.8c-123.1-123.1-109.2-286.2 0-395.4 109.2-109.2 276.8-118.6 395.4 0l198.3 198.3c120.3 120.3 116 279.4 0 395.4-116 115.9-262.2 133.1-395.4-0.1z" fill="#F8DBC8" p-id="35890"></path><path d="M648.1 936.6c-32.3 0-64.5-7.1-95.9-21.1-35.1-15.7-69.4-40.1-102-72.7L251.9 644.5c-59-59-89.2-129.4-87.4-203.6 1.7-70 32.8-138.6 87.4-193.2 54.1-54.1 123.3-84.5 194.8-85.7 36.1-0.6 71.4 6.2 105.2 20.1 35.3 14.6 67.8 36.6 96.8 65.6L847 445.9c58.7 58.7 89.4 127.9 88.9 200-0.3 34.9-8 69.5-22.8 102.7-15.1 33.7-37.3 65.4-66 94.1-59.2 59.2-125.6 91.6-191.9 93.7-2.5 0.1-4.8 0.2-7.1 0.2z m-197-772.7h-4.3c-71.1 1.2-139.8 31.4-193.5 85.1-116 116-116 278 0 394l198.3 198.3c64 64 132.5 95.4 203.4 93.1 65.8-2.1 131.7-34.3 190.6-93.1 117.8-117.8 117.8-276.1 0-394L647.3 249.1c-55-55-124.5-85.2-196.2-85.2z" fill="#5D4638" p-id="35891"></path><path d="M796.1 791.8c-116 116-262.2 133.2-395.4 0l50.2 50.2c133.2 133.2 279.4 116 395.4 0s120.3-275.1 0-395.4l-50.2-50.2c120.2 120.3 115.9 279.5 0 395.4z" fill="#EEB28A" p-id="35892"></path><path d="M302.9 298.6c-116 116-133.2 262.2 0 395.4l-50.2-50.2c-133.2-133.2-116-279.4 0-395.4s275.1-120.3 395.4 0l50.2 50.2c-120.3-120.3-279.5-115.9-395.4 0z" fill="#FFFFFF" p-id="35893"></path><path d="M431.4 427.2c-9.3 9.3-24.6 9.3-33.9 0l-51.4-51.4c-9.3-9.3-9.3-24.6 0-33.9 9.3-9.3 24.6-9.3 33.9 0l51.4 51.4c9.4 9.3 9.4 24.5 0 33.9zM680.7 281l32.5 32.5c0.4 0.4 0.4 1 0 1.4l-394 394c-0.4 0.4-1 0.4-1.4 0l-32.5-32.5c-0.4-0.4-0.4-1 0-1.4l394-394c0.3-0.4 1-0.4 1.4 0z" fill="#5E4739" p-id="35894"></path><path d="M648.1 959.6c-35.5 0-70.9-7.8-105.3-23.1-37.7-16.8-74.3-42.9-108.8-77.4L235.7 660.7c-32.1-32.1-56.5-67.8-72.5-106.1-15.3-36.8-22.6-75.3-21.7-114.4 1.9-75.9 35.3-150.1 94.1-208.9 58.3-58.3 133.2-91.2 210.7-92.5 39.2-0.7 77.7 6.7 114.3 21.8 38.1 15.7 73.2 39.5 104.3 70.6l198.3 198.3c31.6 31.6 55.9 66.5 72.1 103.6 15.9 36.5 23.8 74.4 23.5 112.9-0.3 38.1-8.7 75.8-24.9 111.9-16.3 36.3-40.1 70.2-70.8 100.9-63.4 63.4-135.1 98.1-207.4 100.4-2.5 0.3-5.1 0.4-7.6 0.4zM451.3 186.9h-4.1c-65.1 1.1-128.1 28.9-177.6 78.4-106.4 106.4-106.4 255 0 361.4L467.9 825c57.4 57.4 118 86.5 180.1 86.5 2.1 0 4.2 0 6.3-0.1 59.9-1.9 120.4-31.8 175-86.4 108.1-108.1 108.1-253.4 0-361.4L631.1 265.4c-51.4-51.4-113.5-78.5-179.8-78.5z" fill="#5D4638" p-id="35895"></path><path d="M370.8 533.7c-9.3 9.3-24.6 9.3-33.9 0L305.2 502c-9.3-9.3-9.3-24.6 0-33.9 9.3-9.3 24.6-9.3 33.9 0l31.6 31.6c9.4 9.4 9.4 24.6 0.1 34z" fill="#FFFFFF" p-id="35896"></path><path d="M268.2 455.1c-13.2 0-24-10.8-24-24s10.8-24 24-24 24 10.8 24 24-10.8 24-24 24z" fill="#FFFFFF" p-id="35897"></path></svg>