<?xml version="1.0" standalone="no"?><!DOCTYPE svg PUBLIC "-//W3C//DTD SVG 1.1//EN" "http://www.w3.org/Graphics/SVG/1.1/DTD/svg11.dtd"><svg t="1692846005168" class="icon" viewBox="0 0 1024 1024" version="1.1" xmlns="http://www.w3.org/2000/svg" p-id="119164" xmlns:xlink="http://www.w3.org/1999/xlink" width="200" height="200"><path d="M682.666667 0H341.333333C153.6 0 0 153.6 0 341.333333v341.333334c0 187.733333 153.6 341.333333 341.333333 341.333333h341.333334c187.733333 0 341.333333-153.6 341.333333-341.333333V341.333333c0-187.733333-153.6-341.333333-341.333333-341.333333z m-247.466667 230.4h55.466667V298.666667c0 4.266667-4.266667 12.8-4.266667 17.066666-4.266667 4.266667-4.266667 8.533333-8.533333 12.8-4.266667 4.266667-8.533333 4.266667-12.8 8.533334h-21.333334V230.4z m-162.133333 0h55.466666v38.4c0 17.066667 0 34.133333-4.266666 46.933333-4.266667 8.533333-8.533333 12.8-12.8 17.066667-4.266667 4.266667-8.533333 8.533333-17.066667 12.8h-21.333333V230.4zM221.866667 349.866667h128V200.533333h59.733333v149.333334h119.466667v25.6H409.6v68.266666c0 8.533333-4.266667 12.8-8.533333 21.333334-4.266667 4.266667-8.533333 12.8-12.8 17.066666-4.266667 4.266667-8.533333 8.533333-12.8 8.533334-4.266667 4.266667-12.8 4.266667-17.066667 4.266666h-8.533333V379.733333h-128v-29.866666z m268.8 38.4v34.133333c0 12.8 0 29.866667-4.266667 42.666667 0 4.266667-4.266667 8.533333-8.533333 12.8 0 4.266667-4.266667 4.266667-8.533334 8.533333-4.266667 0-8.533333 4.266667-8.533333 4.266667-4.266667 0-8.533333 4.266667-17.066667 4.266666h-8.533333v-51.2-55.466666H490.666667z m-166.4 0v34.133333c0 12.8 0 25.6-4.266667 42.666667 0 4.266667-4.266667 8.533333-8.533333 12.8l-12.8 12.8c-4.266667 4.266667-12.8 4.266667-17.066667 4.266666h-8.533333V388.266667h51.2z m162.133333 439.466666c-4.266667 0-12.8 0-17.066667-4.266666-8.533333 0-17.066667-4.266667-25.6-8.533334l-29.866666-12.8c-12.8-4.266667-21.333333-12.8-34.133334-17.066666l-12.8-8.533334-8.533333 8.533334-25.6 12.8c-8.533333 4.266667-17.066667 8.533333-29.866667 12.8-12.8 4.266667-25.6 8.533333-38.4 8.533333-12.8 4.266667-21.333333 4.266667-25.6 4.266667h-4.266666v-8.533334-4.266666c4.266667 0 8.533333 0 12.8-4.266667 8.533333-4.266667 21.333333-12.8 29.866666-17.066667 8.533333-4.266667 17.066667-12.8 29.866667-17.066666 8.533333-8.533333 17.066667-12.8 21.333333-17.066667l8.533334-8.533333s0-4.266667-8.533334-12.8c-4.266667-4.266667-8.533333-12.8-12.8-17.066667l-12.8-25.6c-4.266667-8.533333-8.533333-21.333333-12.8-29.866667-4.266667-8.533333-8.533333-21.333333-8.533333-29.866666 0-8.533333-4.266667-21.333333-4.266667-29.866667v-17.066667H221.866667V554.666667h55.466666v-21.333334-21.333333H341.333333v42.666667h59.733334v-42.666667h59.733333v42.666667h68.266667v25.6h-68.266667v21.333333c0 12.8 0 25.6-4.266667 38.4 0 8.533333-4.266667 17.066667-8.533333 29.866667l-12.8 25.6c-4.266667 8.533333-8.533333 17.066667-17.066667 25.6-4.266667 8.533333-8.533333 12.8-17.066666 21.333333l-8.533334 8.533333 8.533334 8.533334c8.533333 8.533333 17.066667 12.8 25.6 21.333333 8.533333 8.533333 21.333333 17.066667 34.133333 21.333333 12.8 8.533333 17.066667 12.8 17.066667 17.066667 8.533333 4.266667 8.533333 4.266667 8.533333 8.533333z m273.066667-4.266666l-8.533334-12.8-21.333333-21.333334c-8.533333-12.8-17.066667-21.333333-21.333333-34.133333-8.533333-17.066667-17.066667-34.133333-29.866667-55.466667l-17.066667-34.133333s-4.266667 4.266667-8.533333 12.8c-4.266667 8.533333-12.8 17.066667-21.333333 25.6-8.533333 8.533333-17.066667 21.333333-29.866667 34.133333-12.8 12.8-25.6 21.333333-34.133333 34.133334-8.533333 8.533333-17.066667 17.066667-29.866667 21.333333-8.533333 8.533333-17.066667 12.8-21.333333 12.8l-8.533334 4.266667-8.533333-4.266667-4.266667-4.266667 12.8-8.533333 17.066667-17.066667 8.533333-8.533333c4.266667-4.266667 12.8-12.8 21.333334-25.6 4.266667-8.533333 12.8-17.066667 21.333333-25.6 8.533333-8.533333 12.8-21.333333 21.333333-29.866667 8.533333-8.533333 12.8-21.333333 17.066667-34.133333 4.266667-12.8 12.8-25.6 17.066667-34.133333 4.266667-4.266667 4.266667-12.8 4.266666-17.066667 0 0-8.533333-17.066667-17.066666-46.933333l-25.6-76.8c-8.533333-21.333333-8.533333-34.133333-12.8-34.133334l-8.533334 8.533334c-4.266667 4.266667-8.533333 12.8-17.066666 25.6-4.266667 4.266667-8.533333 12.8-12.8 17.066666l-8.533334-8.533333-8.533333-8.533333 8.533333-21.333334c4.266667-12.8 8.533333-29.866667 17.066667-51.2 4.266667-17.066667 12.8-38.4 17.066667-55.466666l12.8-51.2c4.266667-12.8 4.266667-29.866667 8.533333-42.666667 0-12.8 4.266667-21.333333 4.266667-25.6V213.333333h59.733333v4.266667c0 4.266667-4.266667 12.8-4.266667 17.066667 0 8.533333-4.266667 21.333333-4.266666 34.133333-4.266667 12.8-4.266667 25.6-8.533334 42.666667v8.533333c0 4.266667 0 4.266667-4.266666 8.533333v4.266667l17.066666 4.266667H814.933333v25.6h-25.6c-17.066667 0-25.6 0-25.6 4.266666V384c0 8.533333-4.266667 25.6-4.266666 38.4-4.266667 12.8-4.266667 25.6-8.533334 42.666667-4.266667 12.8-8.533333 29.866667-12.8 42.666666-4.266667 12.8-8.533333 29.866667-17.066666 46.933334-4.266667 12.8-12.8 25.6-17.066667 38.4l-8.533333 17.066666 12.8 21.333334c8.533333 17.066667 21.333333 29.866667 29.866666 46.933333 8.533333 12.8 21.333333 29.866667 34.133334 46.933333 4.266667 8.533333 12.8 12.8 17.066666 21.333334 4.266667 8.533333 12.8 17.066667 17.066667 21.333333 12.8 12.8 21.333333 25.6 29.866667 34.133333l17.066666 17.066667h-93.866666zM661.333333 661.333333v4.266667z" fill="#1296db" p-id="119165"></path><path d="M401.066667 580.266667H341.333333v76.8c4.266667 8.533333 4.266667 12.8 8.533334 17.066666 4.266667 8.533333 8.533333 12.8 8.533333 21.333334 4.266667 8.533333 8.533333 12.8 8.533333 12.8s4.266667-4.266667 8.533334-12.8l12.8-25.6c4.266667-8.533333 4.266667-12.8 8.533333-21.333334 4.266667-12.8 4.266667-29.866667 4.266667-42.666666v-25.6zM699.733333 366.933333h-76.8l-4.266666 8.533334-12.8 25.6-8.533334 17.066666v8.533334c4.266667 8.533333 8.533333 21.333333 12.8 34.133333 8.533333 21.333333 17.066667 42.666667 25.6 59.733333l17.066667 29.866667c4.266667-4.266667 4.266667-12.8 8.533333-21.333333s4.266667-21.333333 12.8-42.666667c4.266667-12.8 8.533333-29.866667 12.8-46.933333 4.266667-17.066667 4.266667-29.866667 8.533334-46.933334 4.266667-17.066667 4.266667-25.6 4.266666-25.6z" fill="#1296db" p-id="119166"></path></svg>