<?xml version="1.0" standalone="no"?><!DOCTYPE svg PUBLIC "-//W3C//DTD SVG 1.1//EN" "http://www.w3.org/Graphics/SVG/1.1/DTD/svg11.dtd"><svg t="1693123143848" class="icon" viewBox="0 0 1024 1024" version="1.1" xmlns="http://www.w3.org/2000/svg" p-id="9886" xmlns:xlink="http://www.w3.org/1999/xlink" width="200" height="200"><path d="M629.5 907.5H271c-71.78 0-130.18-58.4-130.18-130.18V262.68C140.8 190.9 199.2 132.5 271 132.5h336.62c71.78 0 130.18 58.4 130.18 130.18v254.71a32.5 32.5 0 1 1-65 0V262.68a65.25 65.25 0 0 0-65.18-65.18H271a65.25 65.25 0 0 0-65.18 65.18v514.64A65.25 65.25 0 0 0 271 842.5h358.5a32.5 32.5 0 0 1 0 65z" p-id="9887" fill="#707070"></path><path d="M580.85 329H297.76a32.5 32.5 0 0 1 0-65h283.09a32.5 32.5 0 0 1 0 65zM580.85 446H297.76a32.5 32.5 0 0 1 0-65h283.09a32.5 32.5 0 0 1 0 65zM439 563H297.76a32.5 32.5 0 0 1 0-65H439a32.5 32.5 0 0 1 0 65z" p-id="9888" fill="#707070"></path><path d="M707.5 703.5m-66 0a66 66 0 1 0 132 0 66 66 0 1 0-132 0Z" p-id="9889" fill="#707070"></path><path d="M771.57 907.66H640.41A91.62 91.62 0 0 1 561.29 862l-65.58-113.61a91.63 91.63 0 0 1 0-91.35l65.58-113.59a91.63 91.63 0 0 1 79.12-45.67h131.16a91.61 91.61 0 0 1 79.11 45.67L916.26 657a91.58 91.58 0 0 1 0 91.35L850.68 862a91.61 91.61 0 0 1-79.11 45.66zM640.41 562.78A26.43 26.43 0 0 0 617.58 576L552 689.54a26.41 26.41 0 0 0 0 26.35l65.58 113.59a26.44 26.44 0 0 0 22.83 13.18h131.16a26.42 26.42 0 0 0 22.82-13.18L860 715.89a26.43 26.43 0 0 0 0-26.35L794.39 576a26.41 26.41 0 0 0-22.82-13.17z" p-id="9890" fill="#707070"></path></svg>