<?xml version="1.0" standalone="no"?><!DOCTYPE svg PUBLIC "-//W3C//DTD SVG 1.1//EN" "http://www.w3.org/Graphics/SVG/1.1/DTD/svg11.dtd"><svg t="1596208156230" class="icon" viewBox="0 0 1024 1024" version="1.1" xmlns="http://www.w3.org/2000/svg" p-id="4373" xmlns:xlink="http://www.w3.org/1999/xlink" width="32" height="32"><defs><style type="text/css"></style></defs><path d="M957.103787 0.085333c35.84 0 65.109333 30.208 65.109333 67.157334V955.733333c0 36.949333-29.269333 67.242667-65.109333 67.242667H65.370453a66.304 66.304 0 0 1-65.024-67.072V67.242667C0.346453 30.293333 29.615787 0 65.370453 0h891.733334zM771.162453 101.973333s-231.765333-12.032-469.333333 69.632S61.18912 404.48 61.18912 404.48 49.498453 643.413333 345.86112 598.186667c296.362667-45.397333 308.053333 3.072 308.053333 3.072s58.709333 48.384-93.952 111.872c-142.506667 59.392-356.181333 34.304-384 30.72l-3.072-0.426667 55.722667 139.178667c208.213333 18.176 457.557333-18.176 610.133333-124.074667 152.576-105.984 105.642667-223.914667 85.077334-272.213333-20.48-48.384-146.773333-99.84-275.797334-84.736-129.024 15.104-266.922667 0-266.922666 0s-105.557333-66.56 64.597333-127.146667c170.069333-60.586667 387.157333-30.293333 387.157333-30.293333z" fill="#F75314" p-id="4374"></path></svg>