<?xml version="1.0" standalone="no"?><!DOCTYPE svg PUBLIC "-//W3C//DTD SVG 1.1//EN" "http://www.w3.org/Graphics/SVG/1.1/DTD/svg11.dtd"><svg t="1596208142856" class="icon" viewBox="0 0 1024 1024" version="1.1" xmlns="http://www.w3.org/2000/svg" p-id="4220" xmlns:xlink="http://www.w3.org/1999/xlink" width="32" height="32"><defs><style type="text/css"></style></defs><path d="M244.5 601.9c46.6 20 88.9 40 132.5 56.5 48 18.1 156 21.3 159.1 20.9 33-3.8 53.1-17 55.5-38 3.2-28.9-18.4-40.4-39.5-48.5-56-21.6-113.5-39.5-169.1-62.2-32.3-13.2-62.9-31.2-92.6-49.7C225 440 222.4 331 304 289.5c59.8-30.4 123.5-38.7 188.7-36.4 83.9 3 165.5 19.3 244.5 48.6 16.8 6.3 23.7 14.3 21.7 32.2-2.5 21.6-3.2 43.4-5 68.8-12-3.8-164.8-56.5-236.7-58.8-76.9-3.6-87.8 23.6-92.3 35.3-6.6 16.9 7.4 29.6 22.2 36.4 26.9 12.4 54 24.8 82.1 34 67.6 22.2 135.1 44.1 193.8 86.2 72.4 52 66.9 151.7-11.3 195.6-60 33.7-126.1 40.7-192.8 38.6-87.1-2.8-171.7-19.3-252.4-54.3-20-8.7-30.5-17.7-27.3-40.7 3.2-23.8 3.6-47.9 5.3-73.1z m407 273.4s-117.3 46.9-219.4 20.2c-212.4-38.7-356-253.3-309.4-463.8 46.6-210.9 242.1-341.2 455.5-303.8 227.2 39.9 372.7 279.6 300 498.7C858 697 808.5 773 808.5 773s16.1 21.7 26.4 35.7c144.1-157.9 160-411.3 2.9-592.5C690.2 45.7 425.8 18.9 239 156.5 55.2 291.9 6.7 553.1 129.4 747.8 258.1 952 506.6 997.2 676.6 919.7c-12.3-24.6-25.1-44.4-25.1-44.4z m51.6 84.5s107.9-51.6 162-108.3c-6.9-9.8-30.7-41.8-31.2-41.8-41.7 51.6-154.3 109.7-154.3 109.7l23.5 40.4z" fill="#F13C05" p-id="4221"></path></svg>