<?xml version="1.0" standalone="no"?><!DOCTYPE svg PUBLIC "-//W3C//DTD SVG 1.1//EN" "http://www.w3.org/Graphics/SVG/1.1/DTD/svg11.dtd"><svg t="1596208468134" class="icon" viewBox="0 0 1024 1024" version="1.1" xmlns="http://www.w3.org/2000/svg" p-id="8028" xmlns:xlink="http://www.w3.org/1999/xlink" width="32" height="32"><defs><style type="text/css"></style></defs><path d="M885.9648 264.9728L643.2256 22.2208H106.9568v979.5456h779.008V264.9728z m-191.5392-119.1424l67.9296 67.9296h-67.9296v-67.9296z m140.3392 804.7488h-676.608V73.4208h463.8592l21.2096 21.2096V264.96h170.3296l21.2096 21.2096v664.4096z" fill="#1296db" p-id="8029"></path><path d="M368.0256 550.528v46.08c-14.3744-10.2912-27.3152-15.4368-38.8096-15.4368-12.4032 0-22.5408 4.3904-30.4 13.1584-7.872 8.32-11.8016 19.4432-11.8016 33.3568 0 12.2496 2.7904 22.7584 8.384 31.5392 2.88 4.6976 7.616 10.752 14.1824 18.1632a658.0992 658.0992 0 0 0 25.5232 26.7776c19.2128 19.5072 32.2944 36.3904 39.2576 50.5984 6.9632 13.7728 10.432 30.6432 10.432 50.6112 0 27.072-7.6416 49.3952-22.912 66.9312-15.2832 17.1008-34.88 25.6512-58.7776 25.6512-20.1216 0-37.2992-5.5296-51.52-16.5632v-46.7456c16.7936 12.2496 32.0768 18.3808 45.8496 18.3808 12.8512 0 22.912-4.2752 30.1696-12.8128 7.2576-8.5504 10.9056-20.16 10.9056-34.8416 0-12.7104-2.8032-24.1408-8.3968-34.2784a142.464 142.464 0 0 0-12.0192-16.6784 294.4 294.4 0 0 0-19.2896-20.992 569.664 569.664 0 0 1-29.7344-31.3088c-7.8592-9.088-13.6832-17.024-17.472-23.8336-7.2448-13.312-10.8928-30.1056-10.8928-50.3808 0-27.392 7.1168-49.088 21.3376-65.1392 14.3616-16.1792 33.6512-24.2688 57.8688-24.2688 16.8064 0 32.832 4.0192 48.1152 12.032zM401.1648 543.2576h46.5152l21.1072 129.344 3.6224 23.3728 7.488 50.8416 3.3024 23.6032c0.9728 7.1168 1.856 13.5424 2.5984 19.2896l2.2784 17.2544c0.448-3.4688 0.8192-6.592 1.1392-9.3184 0.2944-2.7136 0.6016-4.992 0.896-6.7968l6.1312-40.6272 7.936-53.3248c0.7552-4.8384 1.472-9.3056 2.1504-13.3888 0.6912-4.0832 1.3312-7.7184 1.9328-10.9056l22.6816-129.344h44.0192l-68.7616 350.3872h-37.44l-67.5968-350.3872zM684.8256 709.3888h85.7856v13.6064c0 68.224-5.9904 114.304-17.9328 138.2016-11.8016 24.512-33.8816 36.7616-66.2656 36.7616-33.4336 0-57.2672-13.6064-71.488-40.8448-14.0672-27.2384-21.0944-72.9984-21.0944-137.3056 0-73.5232 7.7184-122.4576 23.1552-146.8288 14.528-22.8352 36.8384-34.2656 66.9312-34.2656 23.0016 0 40.9216 5.5296 53.7856 16.5632 13.0176 11.2 23.1552 29.5936 30.4128 55.1552l-44.0192 18.3936a154.56 154.56 0 0 0-6.592-23.2576c-2.4064-6.272-5.0688-11.1616-7.936-14.6432-5.7472-7.1168-14.3744-10.6752-25.8688-10.6752-15.7312 0-26.4704 9.6896-32.2304 29.056-5.7472 20.2752-8.6272 56.6656-8.6272 109.1456 0 53.1072 2.944 89.0368 8.8448 107.8016s17.024 28.1344 33.3568 28.1344c14.976 0 25.4848-6.656 31.552-19.968 6.1952-14.2208 9.3056-37.0688 9.3056-68.5312v-16.5632h-41.0752v-39.936z" fill="#1296db" p-id="8030"></path></svg>