<?xml version="1.0" standalone="no"?><!DOCTYPE svg PUBLIC "-//W3C//DTD SVG 1.1//EN" "http://www.w3.org/Graphics/SVG/1.1/DTD/svg11.dtd"><svg t="1595953122778" class="icon" viewBox="0 0 1024 1024" version="1.1" xmlns="http://www.w3.org/2000/svg" p-id="3861" xmlns:xlink="http://www.w3.org/1999/xlink" width="200" height="200"><defs><style type="text/css"></style></defs><path d="M497.237333 7.424v93.994667H413.098667v24.746666h84.138666V220.16h29.696V126.165333h84.053334v-24.746666h-84.053334V7.424h-14.848z m257.28 96.512l-0.085333 69.248v69.248h-126.165333v39.552h126.165333v136.021333h44.501333l0.469334-67.498666 0.853333-67.242667 62.506667-0.853333 62.293333-0.426667v-39.552h-125.994667V103.936h-22.272z m-529.365333 2.56v136.106667H97.749333v39.466666h127.402667v136.106667h42.026667V282.026667h128.554666v-39.466667H267.178667V106.496H246.186667z m259.669333 224.853333v153.301334H343.893333v50.688h140.970667v153.429333h54.613333v-153.429333h141.184v-50.688h-141.226666V331.349333h-27.178667z m414.762667 66.133334v94.762666h-85.845333v34.602667h85.845333v96.469333h37.845333v-96.469333H1024v-34.602667h-86.570667v-94.72h-18.005333z m-815.402667 5.589333v92.757333H0v26.496h84.181333v93.610667h28.458667v-93.610667h85.333333v-26.453333H111.317333V403.029333h-13.568z m670.250667 192.682667v138.837333h-128.682667v39.552h128.682667v137.258667h45.738667v-137.216h127.402666v-39.594667h-127.402666v-138.837333h-22.741334z m-531.754667 0.341333v138.496H96.512v39.594667h126.165333v136.064H269.653333v-136.064h126.08v-39.594667H269.653333V596.053333h-23.466666z m269.482667 195.328l0.085333 47.061333v46.933334H408.149333v34.645333h84.096v96.512h39.594667l0.512-47.744 0.725333-48.768h84.010667v-34.645333h-85.333333v-93.994667h-19.84z" p-id="3862" fill="#1296db"></path></svg>