<?xml version="1.0" standalone="no"?><!DOCTYPE svg PUBLIC "-//W3C//DTD SVG 1.1//EN" "http://www.w3.org/Graphics/SVG/1.1/DTD/svg11.dtd"><svg t="1623813369330" class="icon" viewBox="0 0 1024 1024" version="1.1" xmlns="http://www.w3.org/2000/svg" p-id="29590" xmlns:xlink="http://www.w3.org/1999/xlink" width="200" height="200"><defs><style type="text/css"></style></defs><path d="M0 512c0 282.752 229.248 512 512 512s512-229.248 512-512S794.752 0 512 0 0 229.248 0 512z" fill="#0E9AEB" p-id="29591"></path><path d="M324.736 162.346667l159.658667-24.832v166.784h191.658666v134.570666h-191.658666v198.954667c0 34.133333 5.802667 61.44 17.408 81.92 11.605333 20.48 35.328 30.72 71.125333 30.72 18.090667 0.128 36.096-1.834667 53.76-5.845333a200.618667 200.618667 0 0 0 49.322667-13.141334l23.253333 125.781334c-10.624 3.84-21.077333 7.552-31.232 10.965333-10.154667 3.413333-21.546667 6.570667-34.133333 9.472-23.210667 5.845333-52.266667 8.789333-87.04 8.789333-44.586667 0-80.384-5.845333-107.434667-17.536-30.037333-13.653333-52.778667-30.293333-68.266667-49.749333a183.893333 183.893333 0 0 1-36.266666-77.525333c-6.826667-28.288-10.197333-61.952-10.154667-100.949334V162.346667z" fill="#FFFFFF" p-id="29592"></path></svg>