<?xml version="1.0" standalone="no"?><!DOCTYPE svg PUBLIC "-//W3C//DTD SVG 1.1//EN" "http://www.w3.org/Graphics/SVG/1.1/DTD/svg11.dtd"><svg t="1595955902259" class="icon" viewBox="0 0 1024 1024" version="1.1" xmlns="http://www.w3.org/2000/svg" p-id="21055" xmlns:xlink="http://www.w3.org/1999/xlink" width="32" height="32"><defs><style type="text/css"></style></defs><path d="M856.944306 499.529032c-2.687878-38.718238-10.047543-85.116127-29.950638-112.506881C846.192795 142.297286 679.800365-2.464128 511.872006 0.031759 343.943646 2.783633 177.615214 142.297286 196.81434 387.022151c-19.839097 27.390754-27.326757 73.596651-29.822643 112.506881-49.277758 75.516564-103.675283 190.711323-43.07004 301.874266 30.846597-13.439389 55.677467-42.622061 63.805097-78.716419 23.486931 57.597379 57.789371 112.186896 103.995268 154.232983-66.236986 12.927412-113.274846 44.157991-111.674919 78.204442 1.919913 41.98209 76.988497 72.764689 167.48038 68.476884 75.324573-3.647834 137.59374-30.078631 155.320933-63.229123 1.919913 0.255988 16.191263 0.255988 18.111176 0 17.663196 33.278486 79.99636 59.77328 155.320934 63.229123 90.491883 4.095814 165.560467-26.494795 167.48038-68.476884 1.53593-34.110448-45.437933-65.27703-111.610922-78.076448 46.269895-42.238078 80.636331-96.635603 103.995268-154.232983 8.12763 36.094358 32.894503 65.27703 63.7411 78.716419 60.349254-111.098945 6.015726-226.357701-43.134038-301.874265h-0.127994v-0.127995zM596.476156 160.792444c33.278486 1.023953 59.13331 41.598107 57.59738 90.619877-1.599927 49.02177-29.88664 87.868002-63.101129 86.716055-33.278486-1.151948-58.877321-41.470113-57.405388-90.619877 1.471933-48.957773 29.822643-87.676011 62.909137-86.716055z m-174.200074-5.503749c34.302439-1.279942 63.357117 38.846233 65.021042 89.467929 1.599927 50.5577-24.958864 92.475793-59.197307 93.435749-34.238442 1.279942-63.357117-38.782235-64.957044-89.403932-1.599927-50.5577 24.83087-92.53979 59.069312-93.435749zM316.16891 394.509811c4.479796-19.839097 122.682418-43.902003 195.703096-44.157991 73.148672-0.44798 191.2233 24.446888 195.83109 44.157991 2.943866 14.527339-61.821187 64.765053-102.65133 81.020313-39.358209 15.359301-48.189807 37.246305-93.115763 37.246306-44.797962 0-53.757554-21.75901-92.987769-37.246306-40.958136-16.25526-105.72319-66.556972-102.843321-81.020313z m195.703096 541.095381c-155.83291-0.44798-309.745907-123.51438-242.100985-366.319333 9.343575 5.119767 19.391118 9.727557 29.950637 14.399344-2.175901 30.462614-8.767601 129.274118-5.951729 144.953405 3.199854 18.879141 103.675283 33.022498 112.634875 26.366801 7.935639-5.759738 7.03968-102.715327 5.95173-137.337752 32.126538 6.079723 65.789007 9.407572 99.515472 9.407572 90.427886 0.127994 180.471789-24.766873 242.100985-57.597379 67.836914 242.676959-86.140081 366.703316-242.036988 366.191339z" fill="#12B7F5" p-id="21056"></path><path d="M442.563159 203.670493c-14.463342 0.511977-25.598835 18.879141-24.958864 41.150128 0.639971 22.398981 12.927412 39.99818 27.326757 39.678195 14.399345-0.639971 25.598835-18.943138 24.958864-41.214125-0.639971-22.20699-12.927412-39.934183-27.326757-39.550201z m7.48766 53.117584c-5.375755 0.255988-10.047543-6.847688-10.239535-15.999272-0.383983-9.151584 3.711831-16.511249 9.151584-16.639243 5.439753-0.255988 10.047543 7.03968 10.367528 15.999272s-3.839825 16.511249-9.279577 16.639243z m165.49647 11.711467h-0.319986c-3.647834-0.127994-6.527703-3.199854-6.399708-6.719694 0.383983-6.399709-0.767965-24.126902-8.831599-32.638515-3.007863-3.199854-6.655697-4.60779-11.391481-4.607791-21.887004 0-22.398981 32.126538-22.526975 33.470477 0 3.839825-2.751875 6.719694-6.655698 6.719695s-6.399709-3.199854-6.399708-6.783692c0-16.191263 7.551656-46.717874 35.710375-46.717874 8.319621 0 15.231307 3.007863 20.863051 8.767601 13.63138 14.271351 12.607426 41.278122 12.479432 42.238078 0 3.391846-2.879869 6.14372-6.527703 6.271715z m-103.675283 222.133893c8.447616 0.255988 12.799418-0.511977 19.071132-1.599927 15.999272-3.07186 32.254532-18.303167 47.613834-26.878777 33.086495-20.479068 39.166218-16.639243 91.515836-63.165126-35.326393 28.606698-68.476884 43.838005-102.843321 53.949545-9.407572 2.751875-31.806553 4.479796-55.293484 4.607791-23.486931 0.383983-45.885912-1.919913-55.229487-4.607791-34.430433-10.11154-67.580925-25.214853-102.779324-54.013542 52.285621 46.525883 58.493339 42.622061 91.515836 63.101129 15.359301 8.639607 31.614562 23.998908 47.613834 27.006771 6.079723 1.151948 10.55952 1.407936 18.815144 1.663924z" fill="#12B7F5" p-id="21057"></path></svg>