<?xml version="1.0" standalone="no"?><!DOCTYPE svg PUBLIC "-//W3C//DTD SVG 1.1//EN" "http://www.w3.org/Graphics/SVG/1.1/DTD/svg11.dtd"><svg t="1595955876409" class="icon" viewBox="0 0 1351 1024" version="1.1" xmlns="http://www.w3.org/2000/svg" p-id="20432" xmlns:xlink="http://www.w3.org/1999/xlink" width="42.21875" height="32"><defs><style type="text/css"></style></defs><path d="M1350.497847 671.71844c-11.294353-145.916006-118.470889-264.961997-258.619906-294.196318a327.887676 327.887676 0 0 0-67.095164-6.901217q-13.035632 0-25.815663 1.022402a326.050546 326.050546 0 0 0-228.251357 120.292044L675.74415 586.922933l-31.870203 31.950078L612.482995 650.184087 563.918877 698.748206 513.485679 749.229329l-68.692668 68.692668-116.66571 116.617785h-1.437753a237.229329 237.229329 0 0 1-12.684181-474.123183q6.294165-0.335476 12.684181-0.335476a236.095101 236.095101 0 0 1 145.74028 50.049797l41.439252 41.439252L580.532917 618.234009l31.950078-31.950078 15.495788-15.495787 15.815289-15.815289-63.037504-63.037504A326.066521 326.066521 0 0 0 326.689548 370.620905c-2.524056 0-5.048112 0-7.556194 0.09585C349.390078 210.566989 490.034321 89.460218 658.970359 89.460218c151.251669 0 279.834758 97.096287 326.801373 232.372918q6.565741-0.798752 13.211357-1.309953 12.780031-1.022402 25.815663-1.022403a327.168799 327.168799 0 0 1 56.455788 4.872387C1031.604119 137.608986 861.358128 0 658.970359 0 434.616911 0 249.75376 169.095788 224.896599 386.803619A326.817348 326.817348 0 0 0 0 697.310452c0 172.626271 133.902777 313.989392 303.525741 325.890796v0.798752h744.436818v-0.814727c169.622964-11.885429 303.525741-153.248549 303.525741-325.890796q0-12.891856-0.990453-25.576037zM1024.798752 934.539782H454.64961l196.173479-196.173479 24.921061-24.921061 63.261154-63.261155 98.613916-98.613915 41.439251-41.439252a235.999251 235.999251 0 0 1 124.828955-49.13922q10.351825-0.910577 20.911326-0.910577a237.229329 237.229329 0 0 1 0 474.458659z" p-id="20433"></path></svg>