<?xml version="1.0" standalone="no"?><!DOCTYPE svg PUBLIC "-//W3C//DTD SVG 1.1//EN" "http://www.w3.org/Graphics/SVG/1.1/DTD/svg11.dtd"><svg t="1692845678126" class="icon" viewBox="0 0 1024 1024" version="1.1" xmlns="http://www.w3.org/2000/svg" p-id="94040" xmlns:xlink="http://www.w3.org/1999/xlink" width="200" height="200"><path d="M784.376294 481.354657a21.132643 21.132643 0 0 1-5.689558-18.272813 75.198495 75.198495 0 0 0 0-13.275635 101.087488 101.087488 0 0 0-16.135466-53.644403 21.674506 21.674506 0 0 1-3.100659-12.342427v-4.274694a245.915334 245.915334 0 1 0-491.559736 0v4.75635a21.162747 21.162747 0 0 1-3.070555 12.342427 101.117592 101.117592 0 0 0-15.683914 53.162747 82.904986 82.904986 0 0 0 0 12.824083 21.19285 21.19285 0 0 1-5.689557 18.062088 234.144873 234.144873 0 0 0-57.437442 92.327375c-22.788335 72.880527-14.96143 140.28222 6.893697 147.62747a14.028222 14.028222 0 0 0 4.75635 0c11.529633-2.408278 21.674506-9.241769 28.237065-18.995296a21.253057 21.253057 0 0 1 16.376294-7.616181h2.378175a21.072437 21.072437 0 0 1 16.587018 11.168391c7.586077 14.208843 16.406397 27.695202 26.370649 40.338664a21.072437 21.072437 0 0 1-8.549389 32.51176c-30.374412 12.131703-47.473189 30.163688-47.473189 48.918156 0 35.37159 59.815616 64.09031 131.040452 64.09031a184.112888 184.112888 0 0 0 114.152399-32.511759 20.771402 20.771402 0 0 1 13.787394-5.238006h43.890875a21.373471 21.373471 0 0 1 13.998118 5.238006 183.87206 183.87206 0 0 0 113.700847 32.511759c72.158043 0 131.040452-28.718721 131.040451-64.09031 0-18.754468-17.791157-36.575729-47.473189-48.918156a21.072437 21.072437 0 0 1-8.519285-32.51176c9.934149-12.643462 18.784572-26.129821 26.340546-40.338664a21.132643 21.132643 0 0 1 16.617121-11.168391h2.378175c6.231421 0 12.131703 2.799624 16.135466 7.616181 6.713076 9.693321 16.918156 16.4365 28.477893 18.754468 1.475071 0.240828 3.010348 0.240828 4.485418 0v-0.481656c21.825024-7.375353 29.651929-74.777046 9.723425-146.935089a234.656632 234.656632 0 0 0-56.985889-91.634995z" fill="#4FB9EB" p-id="94041"></path><path d="M853.343368 0H170.656632A170.656632 170.656632 0 0 0 0 170.656632v682.656632a170.656632 170.656632 0 0 0 170.656632 170.656633h682.686736a170.656632 170.656632 0 0 0 170.656632-170.656633V170.656632A170.656632 170.656632 0 0 0 853.343368 0z m-6.773283 764.778928a61.110066 61.110066 0 0 1-19.446849 3.100658 64.511759 64.511759 0 0 1-15.202258-1.896519c17.219191 15.834431 27.15334 38.080903 27.514582 61.471307 0 63.608655-74.98777 111.081844-178.031985 111.081844a239.111947 239.111947 0 0 1-135.766698-37.027281h-27.273754a238.810913 238.810913 0 0 1-135.766698 37.027281c-103.014111 0-178.031985-47.473189-178.031985-111.081844 0.571966-23.17968 10.506115-45.064911 27.514582-60.778927a61.892756 61.892756 0 0 1-34.408279-1.625588c-60.507996-20.169332-63.367827-121.286924-36.75635-206.299153a276.590781 276.590781 0 0 1 59.815616-102.291628v-7.104421a146.001881 146.001881 0 0 1 18.483538-71.224836c0-161.715898 131.100659-292.786453 292.786453-292.786453 161.715898 0 292.816557 131.070555 292.816557 292.786453 12.28222 21.70461 18.844779 46.26905 18.965193 71.224836v7.826905a275.266228 275.266228 0 0 1 59.574788 101.569144c26.611477 84.470367 22.788335 185.618062-36.786453 206.028222z" fill="#4FB9EB" p-id="94042"></path></svg>