<?xml version="1.0" standalone="no"?><!DOCTYPE svg PUBLIC "-//W3C//DTD SVG 1.1//EN" "http://www.w3.org/Graphics/SVG/1.1/DTD/svg11.dtd"><svg t="1623728444287" class="icon" viewBox="0 0 1024 1024" version="1.1" xmlns="http://www.w3.org/2000/svg" p-id="18272" xmlns:xlink="http://www.w3.org/1999/xlink" width="200" height="200"><defs><style type="text/css"></style></defs><path d="M844.04673 0H123.49797c-20.694946 0-37.519585 16.888611-37.519586 37.743487V944.994565c0 20.790904 16.792653 37.711501 37.519586 37.711501h446.524645a279.141875 279.141875 0 0 1-9.020054-69.409633c0-2.07909 0.287874-4.126195 0.31986-6.173299H161.049541V75.582932h645.477603v559.851066a282.884238 282.884238 0 0 1 34.768789-2.366965c13.721997 0 27.092147 1.311426 40.270382 3.230587V37.743487c0-20.82289-16.792653-37.743487-37.519585-37.743487z m-128.743675 555.532954H253.297182c-20.726932 0-37.551571 16.888611-37.551571 37.775474a37.743487 37.743487 0 0 0 37.551571 37.839445h462.037859a37.743487 37.743487 0 0 0 37.551571-37.839445 37.711501 37.711501 0 0 0-37.583557-37.775474zM215.745611 785.224464c0 20.854876 16.792653 37.839445 37.551571 37.839446h322.83476a279.74961 279.74961 0 0 1 39.598676-75.646905H253.297182c-20.758918 0-37.551571 16.952583-37.551571 37.807459z" p-id="18273"></path><path d="M923.883801 750.039858c-1.311426-31.282314-20.694946-62.692572-60.133692-77.310177-2.047104-0.63972-4.158181-1.27944-6.205285-1.855189-3.902293-0.831636-7.900544-1.535328-11.834822-2.23902a91.224089 91.224089 0 0 0-35.024677 2.750797c-19.255576 5.501593-35.056663 17.496345-47.755107 38.063347-9.339914 15.129381-8.188418 30.418692-10.203536 43.500968a239.287312 239.287312 0 0 1-25.204973 72.768164l89.017055 55.943525 0.79965 0.31986c4.414069-7.516711 11.163116-13.977885 16.728682-19.70338 13.402137-13.721997 27.507965-26.740301 42.92522-36.304117l9.05204-4.542013c7.388767-4.542013 14.265759-10.395452 20.535016-17.688261 12.826388-14.905479 17.912163-36.879865 17.304429-53.704504z m-58.278503 66.818766c-6.749047-1.407384-9.723746-9.979634-5.085775-15.481227 2.910727-3.390517 5.981383-2.814769 10.427438-2.814768 12.122696 4.797901 6.557131 20.598988-5.341663 18.295995z m19.031673-17.592303c-5.405635-0.63972-8.828138-6.813019-5.693509-11.578934 2.686825-4.094209 6.557131-7.516711 9.499844-12.250641 6.972949-11.067158 7.644655-24.885113 6.045355-33.905166-0.63972-3.934279-2.015118-7.708627-3.166614-11.387018-1.023552-3.262573-3.966265-6.045355-3.902293-9.723746 0.15993-6.429187 5.789467-6.813019 9.819704-7.004935 6.077341 2.39895 7.676641 9.05204 9.084025 13.658024 3.262573 10.267508 5.181733 20.279128 3.582433 32.881614-0.79965 3.582433-1.663272 7.100893-2.494908 10.65134-2.334978 11.387018-15.321297 29.683014-22.774037 28.659462zM721.34841 835.922284c29.715 18.711814 59.461985 37.327669 89.176985 56.007497a0.447804 0.447804 0 0 0-0.063972 0.191916c-5.021803 6.589117-8.348348 15.449241-11.994752 24.693196l21.654526 13.658025c15.641157 10.523396 29.363154 16.824639 34.129069 32.145936 1.567314 4.765915 2.846755 10.01162 2.686824 15.545199-0.63972 27.795839-24.245393 41.933654-43.660898 42.029612l-10.107578-1.151496c-1.983132-0.63972-3.870307-1.27944-5.917411-1.791216-2.622853 4.158181-8.444306 5.213719-13.434123 4.222153-4.318111-0.831636-7.772599-4.222153-10.779284-6.1733l-21.430624-13.21022c-36.687949-23.22184-73.43987-46.379709-110.127819-69.537578-5.565565-3.422503-11.099144-7.004935-16.664709-10.459424-8.89211-5.949397-17.368401-9.755732-12.634473-21.494596-13.306179-9.755732-20.055226-37.967389-5.469607-56.647216 5.853439-7.516711 13.466109-13.018304 21.654526-15.417255 6.173299-1.823202 12.922346-2.494908 20.311114-1.599301 8.060474 1.055538 16.440807 5.853439 22.358218 9.819704l32.753671 20.407072 7.708627-8.092459 9.85169-13.146249z" p-id="18274"></path><path d="M557.516087 288.257887l19.255575 98.868745-90.200537-44.812394-88.025489 48.874617 14.745549-99.636409-73.727744-68.641969 99.316549-16.728682 42.509402-91.352033L527.993003 204.134691l99.988255 12.186668z" p-id="18275"></path></svg>