<?xml version="1.0" standalone="no"?><!DOCTYPE svg PUBLIC "-//W3C//DTD SVG 1.1//EN" "http://www.w3.org/Graphics/SVG/1.1/DTD/svg11.dtd"><svg t="1692845324552" class="icon" viewBox="0 0 1024 1024" version="1.1" xmlns="http://www.w3.org/2000/svg" p-id="69246" xmlns:xlink="http://www.w3.org/1999/xlink" width="200" height="200"><path d="M320 192h384a160 160 0 0 1 160 160v585.216a32 32 0 0 1-47.712 27.904l-288.576-162.656a32 32 0 0 0-31.424 0L207.712 965.12A32 32 0 0 1 160 937.216V352a160 160 0 0 1 160-160z" fill="#FFCB01" p-id="69247"></path><path d="M288 96a128 128 0 0 0-128 128v698.56l310.688-148.16a96 96 0 0 1 82.624 0L864 922.56V224a128 128 0 0 0-128-128H288z m0-64h448a192 192 0 0 1 192 192v698.56a64 64 0 0 1-91.52 57.792l-310.72-148.16a32 32 0 0 0-27.52 0l-310.72 148.16A64 64 0 0 1 96 922.56V224a192 192 0 0 1 192-192z m224 539.84l107.968 56.768-20.608-120.224 87.36-85.12-120.736-17.6L512 296.32l-53.984 109.376-120.704 17.536 87.36 85.12-20.64 120.256L512 571.84z m-78.176 113.408a64 64 0 0 1-92.864-67.456l14.912-87.04-63.264-61.696a64 64 0 0 1 35.488-109.152l87.424-12.704 39.104-79.232a64 64 0 0 1 114.752 0l39.104 79.232 87.424 12.704a64 64 0 0 1 35.488 109.152l-63.264 61.664 14.912 87.072a64 64 0 0 1-92.864 67.456L512 644.16l-78.176 41.088z" fill="#1C412F" p-id="69248"></path></svg>