<?xml version="1.0" standalone="no"?><!DOCTYPE svg PUBLIC "-//W3C//DTD SVG 1.1//EN" "http://www.w3.org/Graphics/SVG/1.1/DTD/svg11.dtd"><svg t="1623822226552" class="icon" viewBox="0 0 1024 1024" version="1.1" xmlns="http://www.w3.org/2000/svg" p-id="15691" xmlns:xlink="http://www.w3.org/1999/xlink" width="200" height="200"><defs><style type="text/css"></style></defs><path d="M205.8 269h657.3v-82.3c0-25.1-20.5-45.7-45.7-45.7H109.9c-25.1 0-45.6 20.5-45.6 45.7v525c0 25.1 20.5 45.7 45.6 45.7h50.3V314.7c0-25.1 20.5-45.7 45.6-45.7z" fill="#FFD3A8" p-id="15692"></path><path d="M913.4 269H205.8c-25.1 0-45.6 20.5-45.6 45.7v525c0 25.1 20.5 45.7 45.6 45.7h707.6c25.1 0 45.7-20.5 45.7-45.7v-525c0-25.1-20.5-45.7-45.7-45.7z m-446.6 91.5c32 0 57.1 25.1 57.1 57.1s-25.1 59.3-57.1 59.3-57.1-25.1-57.1-57.1c2.3-34.2 27.4-59.3 57.1-59.3z m-20.6 433.7c-18.3 0-34.2-16-34.2-34.2s16-34.2 34.2-34.2c18.3 0 34.2 16 34.2 34.2s-15.9 34.2-34.2 34.2z m114.2 0c-18.3 0-34.2-16-34.2-34.2s16-34.2 34.2-34.2c18.3 0 34.2 16 34.2 34.2s-16 34.2-34.2 34.2z m114.1 0c-18.3 0-34.2-16-34.2-34.2s16-34.2 34.2-34.2c18.3 0 34.2 16 34.2 34.2s-16 34.2-34.2 34.2z m168.9-159.8H297.9c-6.8 0-13.7-4.6-18.3-9.1-6.8-9.1-4.6-25.1 4.6-32l77.6-57.1c16-11.4 34.2-11.4 50.2-2.3l84.5 52.5 182.6-114.1c18.2-11.4 41.1-9.1 54.8 4.6l125.5 118.7c4.6 4.6 6.9 11.4 6.9 16-0.1 13.7-9.2 22.8-22.9 22.8z" fill="#FF7E00" p-id="15693"></path><path d="M446.2 725.7c-18.3 0-34.2 16-34.2 34.2s16 34.2 34.2 34.2c18.3 0 34.2-16 34.2-34.2s-15.9-34.2-34.2-34.2zM674.5 725.7c-18.3 0-34.2 16-34.2 34.2s16 34.2 34.2 34.2c18.3 0 34.2-16 34.2-34.2s-16-34.2-34.2-34.2zM560.4 725.7c-18.3 0-34.2 16-34.2 34.2s16 34.2 34.2 34.2c18.3 0 34.2-16 34.2-34.2s-16-34.2-34.2-34.2zM466.8 476.9c32 0 57.1-27.4 57.1-59.3 0-32-25.1-57.1-57.1-57.1-29.7 0-54.8 25.1-57.1 59.3 0 32 25.1 57.1 57.1 57.1zM733.8 476.9c-13.7-13.7-36.5-16-54.8-4.6L496.5 586.5 412 534c-16-9.1-34.2-9.1-50.2 2.3l-77.6 57.1c-9.1 6.8-11.4 22.8-4.6 32 4.6 4.6 11.4 9.1 18.3 9.1h545.5c13.7 0 22.8-9.1 22.8-22.8 0-4.6-2.3-11.4-6.9-16L733.8 476.9z" fill="#FFFFFF" p-id="15694"></path><path d="M686.1 592.8h3.5v3.5h-3.5zM686.1 599.8h3.5v3.5h-3.5z" fill="#C5DDFB" p-id="15695"></path><path d="M686.1 592.8h3.5v3.5h-3.5zM686.1 599.8h3.5v3.5h-3.5z" fill="#2589FF" p-id="15696"></path></svg>