<?xml version="1.0" standalone="no"?><!DOCTYPE svg PUBLIC "-//W3C//DTD SVG 1.1//EN" "http://www.w3.org/Graphics/SVG/1.1/DTD/svg11.dtd"><svg t="1623822188900" class="icon" viewBox="0 0 1024 1024" version="1.1" xmlns="http://www.w3.org/2000/svg" p-id="13208" xmlns:xlink="http://www.w3.org/1999/xlink" width="200" height="200"><defs><style type="text/css"></style></defs><path d="M352.12856889 323.06699378c-12.94457363-13.38512118-31.14537718-21.16570075-49.45662104-21.16570075-18.31367111 0-36.51447467 7.78057955-49.45783467 21.16570075-12.9554963 13.37541215-20.48606815 32.18060325-20.48606815 51.10230281 0 18.92291318 7.53057185 37.72689067 20.48606815 51.10230282 12.94457363 13.37541215 31.14537718 21.168128 49.45783467 21.168128 18.30274845 0 36.51204741-7.79150222 49.45783467-21.168128 12.94578725-13.37419852 20.48606815-32.17938963 20.48606815-51.10230282 0-18.92048592-7.54028089-37.72689067-20.48606815-51.10230281z m471.76575052 16.23108267c-138.63291259 0-170.0780563 103.78232415-190.88209541 172.47982933-15.7735443 52.10840178-25.00926578 75.31785482-47.36068267 79.03398874-45.60820148 7.51964918-80.02309689-3.145728-119.82286696-15.50533215-30.98760533-9.64956918-63.02378667-19.61832297-101.28710162-20.59529482-134.43739497-3.62025718-197.60924445 198.78525155-200.19427557 207.388672-5.73318637 19.038208 4.58023822 39.24635497 23.0152723 45.17129482a33.66123141 33.66123141 0 0 0 10.38866963 1.6626726c14.90337185 0 28.71933155-9.93962667 33.31898786-25.41583172 13.25526282-43.80474785 62.29075437-156.5861357 130.07196918-156.5861357 0.524288 0 1.04978963 0 1.572864 0.03883615 28.8892397 0.72575052 55.15461215 8.89347792 82.9273126 17.52602548 42.00250785 12.97976889 89.53188503 27.74842785 151.05441184 17.63403852 67.39649422-11.1289837 87.18957985-76.35186725 103.03836919-128.75154015 22.87449125-75.52053097 41.13112178-121.81200592 124.16037925-121.81200592 19.34282903 0 34.97680592-16.19346015 34.97680594-36.14067674 0-19.93629392-15.63519052-36.12854045-34.97680594-36.12854044z" p-id="13209" fill="#515151"></path><path d="M883.0854637 91.64724148H148.37593125c-72.31412148 0-131.13996325 60.77978548-131.13996325 135.49689363v575.0250003c0 74.71832178 58.82584178 135.49810725 131.13996325 135.49810726h734.7071052c72.30562608 0 131.14117689-60.77978548 131.14117688-135.49810726V227.14413511c0-74.71710815-58.82462815-135.49689363-131.13874963-135.49689363z m56.20318815 710.52189393c0 32.02768592-25.20708741 58.07217778-56.20318815 58.07217777H148.37593125c-30.99610075 0-56.20318815-26.04449185-56.20318814-58.07217777V227.14413511c0-32.0264723 25.20708741-58.06975052 56.20318814-58.06975052h734.7071052c30.99610075 0 56.20318815 26.04449185 56.20318814 58.06975052v575.0250003z" p-id="13210" fill="#515151"></path></svg>