<?xml version="1.0" standalone="no"?><!DOCTYPE svg PUBLIC "-//W3C//DTD SVG 1.1//EN" "http://www.w3.org/Graphics/SVG/1.1/DTD/svg11.dtd"><svg t="1595954071731" class="icon" viewBox="0 0 1024 1024" version="1.1" xmlns="http://www.w3.org/2000/svg" p-id="19383" xmlns:xlink="http://www.w3.org/1999/xlink" width="200" height="200"><defs><style type="text/css"></style></defs><path d="M509.544778 968.661609a22.36873 22.36873 0 0 1-11.18916-2.998695L123.672193 749.341276a22.381518 22.381518 0 0 1-11.189161-19.382823V297.311979a22.381518 22.381518 0 0 1 11.189161-19.382823l374.683425-216.321638a22.384715 22.384715 0 0 1 22.378321 0l374.683425 216.321638a22.381518 22.381518 0 0 1 11.189161 19.382823v432.649671a22.381518 22.381518 0 0 1-11.189161 19.382823l-374.683425 216.321638a22.365533 22.365533 0 0 1-11.189161 2.995498zM157.239674 717.042965l352.305104 203.399756 352.305105-203.399756V310.230664L509.544778 106.830908 157.239674 310.230664v406.812301z" fill="#009FE8" p-id="19384"></path><path d="M402.816172 736.886142c-99.800918 0-180.992663-81.191745-180.992664-180.992664v-221.283232a22.378321 22.378321 0 1 1 44.756642 0v221.283232c0 75.120827 61.115195 136.236021 136.236022 136.236022s136.236021-61.115195 136.236021-136.236022v-221.283232a22.378321 22.378321 0 1 1 44.756642 0v221.283232c0 99.800918-81.191745 180.992663-180.992663 180.992664zM701.358959 736.886142a22.378321 22.378321 0 0 1-22.378321-22.378321V334.610246a22.378321 22.378321 0 1 1 44.756642 0V714.507821a22.378321 22.378321 0 0 1-22.378321 22.378321z" fill="#009FE8" p-id="19385"></path><path d="M402.816172 658.159208c-63.551235 0-115.254747-51.703512-115.254747-115.254747v-206.292953a22.378321 22.378321 0 1 1 44.756642 0v206.292953c0 38.871144 31.626961 70.498105 70.498105 70.498105s70.498105-31.626961 70.498105-70.498105v-206.292953a22.378321 22.378321 0 1 1 44.756642 0v206.292953c0 63.551235-51.703512 115.254747-115.254747 115.254747zM771.690825 736.886142a22.378321 22.378321 0 0 1-22.378321-22.378321V334.610246a22.378321 22.378321 0 1 1 44.756642 0V714.507821a22.378321 22.378321 0 0 1-22.378321 22.378321z" fill="#009FE8" p-id="19386"></path></svg>