<?xml version="1.0" standalone="no"?><!DOCTYPE svg PUBLIC "-//W3C//DTD SVG 1.1//EN" "http://www.w3.org/Graphics/SVG/1.1/DTD/svg11.dtd"><svg t="1623816009129" class="icon" viewBox="0 0 1024 1024" version="1.1" xmlns="http://www.w3.org/2000/svg" p-id="6623" xmlns:xlink="http://www.w3.org/1999/xlink" width="200" height="200"><defs><style type="text/css"></style></defs><path d="M415.813571 232.895307c-11.090253-1.584322-11.61836-2.112429-6.337287-2.640536 10.034038-1.584322 33.270758 0.528107 49.642083 4.224858 38.023724 8.977824 72.350696 32.214544 108.790098 72.878803l9.505931 11.090253 13.730789-2.112429c58.619907-9.505931 118.824136-2.112429 168.994327 21.124291 13.730789 6.337287 35.383187 19.011862 38.023724 22.180505 1.056215 1.056215 2.640536 7.921609 3.696751 14.787004 3.696751 24.821042 2.112429 43.304796-5.80918 57.563692-4.224858 7.921609-4.224858 10.034038-1.584322 16.899433 2.112429 5.281073 8.449716 8.977824 14.258896 8.977824 12.674575 0 25.877256-20.068076 32.214544-48.057762l2.640536-11.090253 4.752965 5.281073c26.933471 30.102114 48.057762 71.822589 51.226406 101.396596l1.056214 7.921609-4.752965-6.865394c-7.921609-12.146467-15.315111-20.068076-25.349149-26.933471-17.955647-12.146467-36.967509-15.843218-87.1377-18.483755-45.417225-2.640536-71.294482-6.337287-96.643631-14.787003-43.304796-14.258896-65.485302-32.742651-116.711707-100.868489-22.708613-30.102114-36.967509-46.47344-51.226405-60.204229-31.158329-30.102114-62.316658-45.945333-102.980918-52.28262z" fill="#FF007A" p-id="6624"></path><path d="M809.253488 299.96493c1.056215-20.068076 3.696751-33.270758 9.505931-45.417225 2.112429-4.752965 4.224858-8.977824 4.752966-8.977824 0.528107 0-0.528107 3.696751-2.112429 7.921609-4.224858 11.61836-4.752965 27.989685-2.112429 46.47344 3.696751 23.764827 5.281073 26.933471 30.630221 52.810728 11.61836 12.146467 25.349149 27.461578 30.630222 33.798865l8.977824 11.61836-8.977824-8.449716c-11.090253-10.562145-36.439402-30.630222-42.248582-33.270759-3.696751-2.112429-4.224858-2.112429-6.865394 0.528108-2.112429 2.112429-2.640536 5.281073-2.640537 20.596183-0.528107 23.764827-3.696751 38.551831-11.61836 53.866942-4.224858 7.921609-4.752965 6.337287-1.056214-2.640536 2.640536-6.865395 3.168644-10.034038 3.168644-32.742651 0-45.945333-5.281073-57.035585-37.495617-75.51934-7.921609-4.752965-21.652398-11.61836-29.574007-15.315111-8.449716-3.696751-14.787004-6.865395-14.258896-6.865394 1.056215-1.056215 32.214544 7.921609 44.361011 13.202681 18.483755 7.393502 21.652398 7.921609 23.764827 7.393502 1.584322-1.584322 2.640536-5.80918 3.168643-19.011862zM437.465969 378.652914c-22.180505-30.630222-36.439402-78.159876-33.270758-113.543064l1.056214-11.090252 5.281073 1.056214c9.505931 1.584322 25.877256 7.921609 33.798866 12.674575 21.124291 12.674575 30.630222 30.102114 39.608045 73.406911 2.640536 12.674575 6.337287 27.461578 7.921609 32.214543 2.640536 7.921609 12.674575 26.405364 21.124291 38.023724 5.80918 8.449716 2.112429 12.674575-11.090253 11.61836-20.068076-2.112429-47.001547-20.596184-64.429087-44.361011zM782.320018 608.379577c-104.56524-42.248582-141.532749-78.687983-141.532749-140.476534 0-8.977824 0.528107-16.371325 0.528107-16.371326 0.528107 0 4.224858 3.168644 8.977824 6.865395 21.124291 16.899433 44.889118 24.292935 110.902527 33.798865 38.551831 5.80918 60.732336 10.034038 80.800412 16.899433 63.90098 21.124291 103.509025 64.429087 113.014956 123.048994 2.640536 16.899433 1.056215 49.113976-3.168643 66.013409-3.696751 13.202682-14.258896 37.495616-16.899433 38.023724-0.528107 0-1.584322-2.640536-1.584322-6.865395-1.056215-22.180505-12.146467-43.304796-30.630222-59.676121-22.180505-19.011862-50.698298-33.270758-120.408457-61.260444zM708.384999 625.807117c-1.056215-7.921609-3.696751-17.955647-5.281072-22.180505l-2.640537-7.921609 4.752966 5.80918c6.865395 7.921609 12.146467 17.42754 16.899433 30.630221 3.696751 10.034038 3.696751 13.202682 3.69675 29.574008 0 15.843218-0.528107 19.539969-3.69675 28.517792-5.281073 14.258896-11.61836 24.292935-22.180506 35.383187-19.011862 19.539969-43.832904 30.102114-79.216091 34.85508-6.337287 0.528107-24.292935 2.112429-40.136152 3.168644-39.608045 2.112429-66.013409 6.337287-89.778237 14.787004-3.168644 1.056215-6.337287 2.112429-6.865394 1.584321-1.056215-1.056215 15.315111-10.562145 28.517793-16.899432 18.483755-8.977824 37.495616-13.730789 79.21609-21.124291 20.596184-3.168644 41.720474-7.393502 47.001548-9.505931 52.28262-16.371325 78.159876-57.035585 69.710159-106.677669z" fill="#FF007A" p-id="6625"></path><path d="M756.442761 710.832388c-13.730789-30.102114-16.899433-58.619907-9.505931-85.553378 1.056215-2.640536 2.112429-5.281073 3.168644-5.281073 1.056215 0 4.224858 1.584322 7.393502 3.696751 6.337287 4.224858 19.539969 11.61836 53.338834 30.102114 42.776689 23.23672 67.069624 41.192367 83.969056 61.788551 14.787004 17.955647 23.764827 38.551831 27.989686 63.90098 2.640536 14.258896 1.056215 48.585869-2.640537 62.844766-11.61836 44.889118-38.023724 80.800413-76.575554 101.396596-5.80918 3.168644-10.562145 5.281073-11.090253 5.281072-0.528107 0 1.584322-5.281073 4.752966-11.61836 12.674575-26.933471 14.258896-52.810727 4.752965-81.856627-5.80918-17.955647-17.955647-39.608045-42.248582-76.047447-29.0459-42.248582-35.911294-53.338834-43.304796-68.653945zM363.002844 872.433213c39.079938-32.742651 87.1377-55.979371 131.49871-63.372873 19.011862-3.168644 50.698298-2.112429 68.125838 2.640537 27.989685 7.393502 53.338834 23.23672 66.541517 42.776689 12.674575 19.011862 18.483755 35.383187 24.292934 71.822589 2.112429 14.258896 4.752965 29.0459 5.281073 32.214543 4.224858 19.011862 12.674575 33.798865 23.23672 41.720475 16.371325 12.146467 44.889118 12.674575 72.878803 2.112429 4.752965-1.584322 8.977824-3.168644 8.977824-2.640537 1.056215 1.056215-13.202682 10.562145-22.708613 15.315111-13.202682 6.865395-23.764827 8.977824-38.023723 8.977824-25.349149 0-47.001547-13.202682-64.429087-39.608045-3.696751-5.281073-11.090253-20.596184-17.42754-34.85508-18.483755-42.776689-27.989685-55.451264-49.642084-69.71016-19.011862-12.146467-43.304796-14.787004-61.788551-5.80918-24.292935 11.61836-30.630222 42.776689-13.730789 61.788551 6.865395 7.921609 19.539969 14.258896 30.102115 15.843218 19.539969 2.640536 36.439402-12.674575 36.439401-32.214544 0-12.674575-4.752965-20.068076-17.42754-25.877256-16.899433-7.393502-35.383187 1.056215-34.855079 17.42754 0 6.865395 3.168644 11.090253 10.034038 14.258896 4.224858 2.112429 4.224858 2.112429 1.056214 1.584322-15.315111-3.168644-19.011862-22.180505-6.865394-34.326973 14.787004-14.787004 45.945333-8.449716 56.507478 12.146468 4.224858 8.449716 4.752965 25.349149 1.056214 35.911294-8.977824 23.23672-34.326973 35.383187-60.204229 28.517793-17.42754-4.752965-24.821042-9.505931-45.945332-31.158329-36.967509-38.023724-51.226405-45.417225-104.037133-53.338835l-10.034038-1.584322 11.090253-10.562145z" fill="#FF007A" p-id="6626"></path><path d="M85.218419 22.708613c123.048994 149.454358 312.639505 381.821558 322.145436 394.496132 7.921609 10.562145 4.752965 20.596184-8.449717 27.989685-7.393502 4.224858-22.708613 8.449716-30.102114 8.449716-8.449716 0-18.483755-4.224858-25.349149-11.090252-4.752965-4.752965-25.349149-34.85508-71.822589-107.205776C236.257098 279.896854 206.154984 233.951521 205.626877 233.423414c-2.112429-1.056215-2.112429-1.056215 62.316658 114.071171C308.607795 419.845281 321.810477 445.722537 321.810477 448.891181c0 6.865395-2.112429 10.562145-10.562146 20.068076-14.258896 15.843218-20.596184 33.798865-25.349149 71.294482-5.281073 41.720474-19.539969 71.294482-60.204229 121.464673-23.764827 29.574007-27.461578 34.85508-33.270758 47.001547-7.393502 14.787004-9.505931 23.23672-10.562146 42.248581-1.056215 20.068076 1.056215 32.742651 6.865395 51.754513 5.281073 16.899433 11.090253 27.989685 25.349149 49.642084 12.146467 19.011862 19.539969 33.270758 19.539969 38.551831 0 4.224858 1.056215 4.224858 20.068076 0 45.417225-10.562145 82.912842-28.517793 103.509026-50.698299 12.674575-13.730789 15.843218-21.124291 15.843218-40.136152 0-12.146467-0.528107-14.787004-3.696751-22.180506-5.281073-11.61836-15.315111-21.124291-36.967509-35.911294-28.517793-19.539969-40.66426-35.383187-43.832904-56.507478-2.640536-17.955647 0.528107-30.102114 16.371326-63.372873 16.371325-34.326973 20.596184-48.585869 23.23672-83.440949 1.584322-22.180505 4.224858-31.158329 10.562145-38.023723 6.865395-7.393502 12.674575-10.034038 29.0459-12.146468 26.933471-3.696751 44.361011-10.562145 58.0918-23.764827 12.146467-11.090253 17.42754-22.180505 17.955647-38.551831l0.528108-12.146467-6.865395-7.393502C412.644927 378.124807 68.847093 0 67.262772 0c-0.528107 0 7.921609 10.034038 17.955647 22.708613z m162.128932 750.96854c5.80918-10.034038 2.640536-22.708613-6.865394-29.0459-8.977824-5.80918-22.708613-3.168644-22.708613 4.752966 0 2.112429 1.056215 4.224858 4.224858 5.281072 4.752965 2.640536 5.281073 5.281073 1.584322 11.090253s-3.696751 11.090253 1.056215 14.787004c7.393502 5.80918 17.42754 2.640536 22.708612-6.865395zM461.230796 495.892728c-12.674575 3.696751-24.821042 17.42754-28.517792 31.158329-2.112429 8.449716-1.056215 23.764827 2.640536 28.517793 5.80918 7.393502 11.090253 9.505931 25.877256 9.505931 29.0459 0 53.866942-12.674575 56.507478-27.989686 2.640536-12.674575-8.449716-30.102114-23.764827-38.023723-7.921609-4.224858-24.292935-5.80918-32.742651-3.168644z m33.798866 26.405364c4.224858-6.337287 2.640536-13.202682-5.281073-17.955647-14.258896-8.977824-35.911294-1.584322-35.911295 12.146467 0 6.865395 11.090253 14.258896 21.652399 14.258896 6.865395 0 16.371325-4.224858 19.539969-8.449716z" fill="#FF007A" p-id="6627"></path></svg>