<?xml version="1.0" standalone="no"?><!DOCTYPE svg PUBLIC "-//W3C//DTD SVG 1.1//EN" "http://www.w3.org/Graphics/SVG/1.1/DTD/svg11.dtd"><svg t="1597146376632" class="icon" viewBox="0 0 1024 1024" version="1.1" xmlns="http://www.w3.org/2000/svg" p-id="553" xmlns:xlink="http://www.w3.org/1999/xlink" width="200" height="200"><defs><style type="text/css"></style></defs><path d="M211.051365 463.186345l-14.502266 119.347963-39.438142 0c-2.146892-14.580038-4.657057-33.796666-7.532542-57.650909-0.985442 10.495007-2.345413 21.078019-4.08196 31.750058l-3.989863 25.900851L101.977375 582.534309l-15.401751-119.347963 31.3172 0c0.240476 3.116984 2.887764 25.901875 7.94084 68.352624 0.399089-4.367462 3.120054-27.153376 8.161874-68.352624l30.084119 0 7.35244 68.352624c1.163497-19.958524 3.941768-42.743414 8.331742-68.352624L211.051365 463.186345zM303.57955 500.016085c5.515609 1.860367 9.623152 4.904697 12.321605 9.135036 2.698453 4.228293 4.047168 14.142063 4.047168 29.739265 0 11.577663-1.320062 20.562274-3.957117 26.951785-2.639101 6.387465-7.194852 11.248159-13.67032 14.575944-6.475469 3.329832-14.780605 4.994748-24.913363 4.994748-11.512172 0-20.551017-1.933022-27.116537-5.800088s-10.88284-8.603941-12.950937-14.210625-3.102658-15.335236-3.102658-29.185658l0-11.512172 36.335484 0 0 23.653676c0 6.295367 0.373506 10.298533 1.124611 12.007451 0.749059 1.708918 2.412951 2.562354 4.991678 2.562354 2.817156 0 4.6765-1.079586 5.575984-3.237734s1.348715-7.792461 1.348715-16.908055l0-10.073406c0-5.575984-0.629332-9.653851-1.889019-12.231555-1.258664-2.57668-3.118008-4.271272-5.575984-5.080705-2.459-0.809434-7.226574-1.27299-14.300676-1.394764l0-21.135324c8.63464 0 13.970148-0.328481 16.009593-0.989535 2.037399-0.660031 3.507887-2.098797 4.407371-4.31732 0.899484-2.2175 1.348715-5.695711 1.348715-10.432586l0-8.094336c0-5.095031-0.525978-8.454539-1.573842-10.073406-1.04991-1.618867-2.684127-2.428301-4.901627-2.428301-2.518352 0-4.242619 0.854459-5.171779 2.563377-0.930183 1.708918-1.39374 5.350857-1.39374 10.927865l0 11.961402-36.335484 0 0-12.411656c0-13.909773 3.177359-23.307799 9.533101-28.196123 6.354719-4.886277 16.458824-7.329928 30.309246-7.329928 17.327609 0 29.079234 3.386113 35.255898 10.156294 6.174617 6.77018 9.263972 16.178439 9.263972 28.220682 0 8.149594-1.110285 14.036663-3.327785 17.66223C313.0533 493.710485 309.156558 497.019851 303.57955 500.016085zM425.60857 501.319775l-32.198265 0 0-6.475469c0-5.516633-0.315178-9.008146-0.94451-10.477611-0.629332-1.469465-2.203174-2.203174-4.721525-2.203174-2.039445 0-3.568262 0.674357-4.586449 2.024096-1.020234 1.348715-1.528816 3.37281-1.528816 6.071264 0 3.657289 0.254803 6.340393 0.764408 8.04931 0.508582 1.708918 2.037399 3.583611 4.586449 5.62101 2.548027 2.038422 7.780181 5.007027 15.694416 8.903769 10.552312 5.158476 17.478035 10.015078 20.776144 14.569805 3.297086 4.556773 4.946652 11.184714 4.946652 19.87666 0 9.713203-1.258664 17.044154-3.777016 21.990806s-6.731295 8.754367-12.636783 11.422121c-5.906512 2.665707-13.026662 4.001119-21.360451 4.001119-9.234297 0-17.133181-1.438766-23.698701-4.31732s-11.078291-6.775297-13.536267-11.692273c-2.459-4.91493-3.687988-12.351281-3.687988-22.304961l0-5.756086 32.198265 0 0 7.555055c0 6.41714 0.405228 10.583012 1.214662 12.501707 0.809434 1.920742 2.412951 2.878555 4.811576 2.878555 2.577703 0 4.375649-0.643658 5.395883-1.933022 1.019211-1.289363 1.528816-4.003166 1.528816-8.140385 0-5.695711-0.661054-9.263972-1.97907-10.702738-1.380437-1.438766-8.424863-5.695711-21.135324-12.770836-10.673062-5.993492-17.178207-11.436447-19.516457-16.322725-2.33825-4.887301-3.507887-10.688412-3.507887-17.403334 0-9.533101 1.258664-16.563201 3.777016-21.090299 2.518352-4.527098 6.790646-8.018611 12.815861-10.477611 6.026238-2.457977 13.025639-3.687988 21.000248-3.687988 7.914234 0 14.644506 1.003861 20.190814 3.012607 5.545285 2.009769 9.803254 4.663197 12.770836 7.95926 2.967582 3.298109 4.766551 6.355742 5.395883 9.173922 0.629332 2.819203 0.94451 7.226574 0.94451 13.22109L425.6055 501.319775zM536.845825 508.245497l-34.266363 0 0-13.760371c0-4.79725-0.390902-8.04931-1.169637-9.758228-0.779758-1.708918-2.218523-2.563377-4.31732-2.563377-2.09982 0-3.507887 0.750082-4.227269 2.248199-0.719383 1.499141-1.079586 4.856602-1.079586 10.073406l0 56.301171c0 4.258992 0.539281 7.450678 1.618867 9.57915s2.666731 3.191686 4.766551 3.191686c2.457977 0 4.121869-1.109262 4.991678-3.327785 0.868785-2.216477 1.303689-6.416117 1.303689-12.591758L504.466435 533.427989 536.845825 533.427989c-0.060375 9.533101-0.405228 16.684974-1.03456 21.451525s-2.639101 9.653851-6.026238 14.659855c-3.38816 5.007027-7.810881 8.784043-13.266115 11.33207-5.456258 2.548027-12.201879 3.821018-20.23584 3.821018-10.253508 0-18.378543-1.75292-24.373058-5.260807-5.996562-3.507887-10.239181-8.42384-12.726834-14.749906-2.488676-6.326066-3.73199-15.303514-3.73199-26.937459l0-33.90616c0-10.131734 1.019211-17.77684 3.057633-22.934293 2.037399-5.15643 6.385418-9.758228 13.040988-13.805396s14.749906-6.071264 24.283008-6.071264c9.47375 0 17.568086 2.009769 24.283008 6.026238 6.714922 4.017492 11.182668 9.083871 13.401191 15.20016C535.73554 488.368837 536.845825 497.034177 536.845825 508.245497zM602.392549 436.924267l0 32.761082c3.116984-2.885718 6.489795-5.050006 10.118431-6.492865 3.627613-1.441836 7.510029-2.164288 11.647248-2.164288 6.354719 0 11.766974 1.618867 16.233697 4.856602 4.465699 3.237734 7.194852 6.970748 8.184387 11.196994s1.483791 11.948099 1.483791 23.15942l0 82.293097-36.335484 0 0-84.002015c0-6.955398-0.345877-11.422121-1.03456-13.401191-0.689707-1.97907-2.234896-2.967582-4.631475-2.967582-2.218523 0-3.718687 1.020234-4.497422 3.057633-0.779758 2.038422-1.169637 6.08559-1.169637 12.141504l0 85.171651-36.335484 0L566.056042 436.924267 602.392549 436.924267zM763.185354 505.097813l0 29.22966c0 10.734461-0.539281 18.60367-1.618867 23.609673s-3.38816 9.683527-6.925723 14.030523c-3.538586 4.346996-8.08001 7.555055-13.625295 9.623152-5.546309 2.068098-11.9174 3.101635-19.112252 3.101635-8.036008 0-14.839957-0.885158-20.415941-2.652404-5.575984-1.769293-9.908654-4.437047-12.995963-8.004285-3.089355-3.567238-5.292529-7.884559-6.610545-12.950937-1.319039-5.066379-1.97907-12.667482-1.97907-22.80024l0-30.578375c0-11.092617 1.199312-19.75591 3.597937-25.991925 2.397602-6.236016 6.714922-11.242019 12.950937-15.020058 6.236016-3.777016 14.210625-5.666035 23.923828-5.666035 8.153687 0 15.155135 1.214662 21.000248 3.642963s10.356861 5.591334 13.536267 9.488076c3.177359 3.898789 5.350857 7.914234 6.520494 12.051453S763.185354 496.643275 763.185354 505.097813zM726.84987 496.103993c0-6.116289-0.329504-9.968006-0.989535-11.557197-0.661054-1.588168-2.068098-2.383275-4.227269-2.383275s-3.597937 0.795107-4.31732 2.383275c-0.719383 1.589191-1.079586 5.440908-1.079586 11.557197l0 53.87287c0 5.636359 0.360203 9.310021 1.079586 11.018939s2.127449 2.562354 4.227269 2.562354c2.158148 0 3.582588-0.777711 4.272295-2.33825 0.688684-1.558492 1.03456-4.91493 1.03456-10.073406L726.84987 496.103993zM875.771324 505.097813l0 29.22966c0 10.734461-0.539281 18.60367-1.618867 23.609673s-3.38816 9.683527-6.925723 14.030523c-3.538586 4.346996-8.08001 7.555055-13.625295 9.623152-5.546309 2.068098-11.9174 3.101635-19.112252 3.101635-8.036008 0-14.839957-0.885158-20.415941-2.652404-5.575984-1.769293-9.908654-4.437047-12.995963-8.004285-3.089355-3.567238-5.292529-7.884559-6.610545-12.950937-1.319039-5.066379-1.97907-12.667482-1.97907-22.80024l0-30.578375c0-11.092617 1.199312-19.75591 3.597937-25.991925 2.397602-6.236016 6.714922-11.242019 12.950937-15.020058 6.236016-3.777016 14.210625-5.666035 23.923828-5.666035 8.153687 0 15.155135 1.214662 21.000248 3.642963s10.356861 5.591334 13.536267 9.488076c3.177359 3.898789 5.350857 7.914234 6.520494 12.051453S875.771324 496.643275 875.771324 505.097813zM839.43584 496.103993c0-6.116289-0.329504-9.968006-0.989535-11.557197-0.661054-1.588168-2.068098-2.383275-4.227269-2.383275s-3.597937 0.795107-4.31732 2.383275c-0.719383 1.589191-1.079586 5.440908-1.079586 11.557197l0 53.87287c0 5.636359 0.360203 9.310021 1.079586 11.018939s2.127449 2.562354 4.227269 2.562354c2.158148 0 3.582588-0.777711 4.272295-2.33825 0.688684-1.558492 1.03456-4.91493 1.03456-10.073406L839.43584 496.103993zM943.56727 436.924267l0 145.610041-37.41507 0L906.152201 436.924267 943.56727 436.924267z" p-id="554" fill="#d81e06"></path></svg>