<?xml version="1.0" standalone="no"?><!DOCTYPE svg PUBLIC "-//W3C//DTD SVG 1.1//EN" "http://www.w3.org/Graphics/SVG/1.1/DTD/svg11.dtd"><svg t="1623822414090" class="icon" viewBox="0 0 1437 1024" version="1.1" xmlns="http://www.w3.org/2000/svg" p-id="19328" xmlns:xlink="http://www.w3.org/1999/xlink" width="280.6640625" height="200"><defs><style type="text/css"></style></defs><path d="M1369.34902 0H68.266667C30.519216 0 0 30.519216 0 68.266667v887.466666c0 37.747451 30.519216 68.266667 68.266667 68.266667h1301.082353c37.747451 0 68.266667-30.519216 68.266666-68.266667V68.266667c0-37.747451-30.519216-68.266667-68.266666-68.266667z m12.850196 955.733333c0 7.228235-5.621961 12.850196-12.850196 12.850196H68.266667c-7.228235 0-12.850196-5.621961-12.850196-12.850196V272.263529h1326.782745V955.733333z m0-738.886274H55.416471V68.266667c0-7.228235 5.621961-12.850196 12.850196-12.850196h1301.082353c7.228235 0 12.850196 5.621961 12.850196 12.850196v148.580392z m-371.450981-122.076863c-22.889412 0-41.361569 18.472157-41.361568 41.361569 0 22.889412 18.472157 41.361569 41.361568 41.361568 22.889412 0 41.361569-18.472157 41.361569-41.361568 0-22.889412-18.472157-41.361569-41.361569-41.361569z m0 55.014902c-7.629804 0-13.653333-6.023529-13.653333-13.653333s6.023529-13.653333 13.653333-13.653334 13.653333 6.023529 13.653334 13.653334-6.023529 13.653333-13.653334 13.653333z m267.846275-55.014902c-22.889412 0-41.361569 18.472157-41.361569 41.361569 0 22.889412 18.472157 41.361569 41.361569 41.361568 22.889412 0 41.361569-18.472157 41.361568-41.361568 0-22.889412-18.472157-41.361569-41.361568-41.361569z m0 55.014902c-7.629804 0-13.653333-6.023529-13.653334-13.653333s6.023529-13.653333 13.653334-13.653334 13.653333 6.023529 13.653333 13.653334-6.023529 13.653333-13.653333 13.653333zM1144.470588 94.770196c-22.889412 0-41.361569 18.472157-41.361568 41.361569 0 22.889412 18.472157 41.361569 41.361568 41.361568 22.889412 0 41.361569-18.472157 41.361569-41.361568 0-22.889412-18.472157-41.361569-41.361569-41.361569z m0 55.014902c-7.629804 0-13.653333-6.023529-13.653333-13.653333s6.023529-13.653333 13.653333-13.653334 13.653333 6.023529 13.653334 13.653334c0.401569 7.629804-6.023529 13.653333-13.653334 13.653333zM178.698039 87.541961H137.336471c-15.259608 0-27.708235 12.448627-27.708236 27.708235V156.611765c0 15.259608 12.448627 27.708235 27.708236 27.708235h41.763137c15.259608 0 27.708235-12.448627 27.708235-27.708235V115.250196c-0.401569-15.259608-12.850196-27.708235-28.109804-27.708235z" fill="#1296db" p-id="19329"></path><path d="M754.94902 325.270588H168.658824c-13.251765 0-24.094118 10.842353-24.094118 24.094118v204.8c0 13.251765 10.842353 24.094118 24.094118 24.094118h586.290196c13.251765 0 24.094118-10.842353 24.094117-24.094118V349.364706c0-13.251765-10.842353-24.094118-24.094117-24.094118zM361.411765 634.478431H168.658824c-13.251765 0-24.094118 10.842353-24.094118 24.094118v232.909804c0 13.251765 10.842353 24.094118 24.094118 24.094118h192.752941c13.251765 0 24.094118-10.842353 24.094117-24.094118v-232.909804c0-13.251765-10.842353-24.094118-24.094117-24.094118zM754.94902 634.478431h-265.035295c-13.251765 0-24.094118 10.842353-24.094117 24.094118v232.909804c0 13.251765 10.842353 24.094118 24.094117 24.094118h265.035295c13.251765 0 24.094118-10.842353 24.094117-24.094118v-232.909804c0-13.251765-10.842353-24.094118-24.094117-24.094118zM1289.035294 799.121569H855.341176c-13.251765 0-24.094118 10.842353-24.094117 24.094117v68.266667c0 13.251765 10.842353 24.094118 24.094117 24.094118h433.694118c13.251765 0 24.094118-10.842353 24.094118-24.094118v-68.266667c0-13.251765-10.842353-24.094118-24.094118-24.094117zM1289.035294 325.270588H855.341176c-13.251765 0-24.094118 10.842353-24.094117 24.094118v365.427451c0 13.251765 10.842353 24.094118 24.094117 24.094118h433.694118c13.251765 0 24.094118-10.842353 24.094118-24.094118V349.364706c0-13.251765-10.842353-24.094118-24.094118-24.094118z" fill="#1296db" p-id="19330"></path></svg>