<?xml version="1.0" standalone="no"?><!DOCTYPE svg PUBLIC "-//W3C//DTD SVG 1.1//EN" "http://www.w3.org/Graphics/SVG/1.1/DTD/svg11.dtd"><svg t="1692770723083" class="icon" viewBox="0 0 1024 1024" version="1.1" xmlns="http://www.w3.org/2000/svg" p-id="24646" xmlns:xlink="http://www.w3.org/1999/xlink" width="200" height="200"><path d="M743.19 801.07a28.58 28.58 0 0 0-28.37-24.28H327.87a28.59 28.59 0 0 0-28.37 24.26l-9.21 58.67a28.75 28.75 0 0 0 28.39 33.14H724a30.53 30.53 0 0 0 4.46-0.35 28.77 28.77 0 0 0 23.91-32.83z m-415.31-9.92v14.36z m-9.21 73l9.21-58.63h386.93l9.19 58.62zM915.14 549.09L799.53 202.65h-36.3v0.06H563.14v-39.13a41.8 41.8 0 1 0-83.59 0v39.13H243.61L127.67 550.08A28.75 28.75 0 0 0 117 579.75l0.31 1.3-0.45 1.36 0.85 0.28L130.12 634A28.64 28.64 0 0 0 158 656h194.6a28.64 28.64 0 0 0 27.92-22l13.08-54.15a28.62 28.62 0 0 0-12.07-30.75l-90.64-317.66h188.66v469.88h-67.8c-19.8 0-36.12 9.85-40.91 25.57l-7.9 35.23-0.35 8h28.72l7.19-35.65c0.7-1.29 5.52-4.39 13.24-4.39h219.2a28.24 28.24 0 0 1 12.89 3.13l7.55 33.63v3.28h28.72v-4.88l-8.53-39.4c-4.51-14.64-20.83-24.49-40.63-24.49h-67.8V231.44H754.8l-93.15 318.3a28.76 28.76 0 0 0-11.07 30L663.69 634a28.65 28.65 0 0 0 27.92 22h194.56a28.65 28.65 0 0 0 27.92-22l13.1-54.24a28.68 28.68 0 0 0-12.06-30.65z m-652.6-312.34l87.76 307.54H159.89z m90.06 390.48H158l-10.85-44.91 3.15-9.32h208.19l3.9 13.67z m0 14.36v-14.36z m155.67-478a13.07 13.07 0 1 1 26.14 0v39.13h-26.14z m26.14 537.74h-26.14V231.44h26.14z m348.83-157H693.19L782 240.83z m2.93 82.94H691.62l-10.27-42.49 3.43-11.78h208.05l3.74 11.19-10.39 43s0 0.04-0.01 0.04z" fill="#B49F7A" p-id="24647"></path></svg>