<?xml version="1.0" standalone="no"?><!DOCTYPE svg PUBLIC "-//W3C//DTD SVG 1.1//EN" "http://www.w3.org/Graphics/SVG/1.1/DTD/svg11.dtd"><svg t="1623813444886" class="icon" viewBox="0 0 1024 1024" version="1.1" xmlns="http://www.w3.org/2000/svg" p-id="31796" xmlns:xlink="http://www.w3.org/1999/xlink" width="200" height="200"><defs><style type="text/css"></style></defs><path d="M491.98 213.82c62.24-10.66 128.24 1.22 182.26 34.1 85.04 51.88 140.6 148.62 142.98 248.18 0.48 2.4-1.08 7.12 2.74 7.28 29.26 5.52 57.06 19.52 78.1 40.68 28.02 26.78 44.48 65.18 44.92 103.92 0.52 31.56-8.84 63.48-27.52 89.02-23.04 32.96-59.98 55.82-99.78 61.64-46.1 7.24-95.44-8.14-128.42-41.34-40.7 28.26-88 47.24-137.24 53.38-50.64 6.48-103.02-0.56-149.98-20.62-7.62-3.18-15.4-6.24-22.12-11.14-33.22 22.36-74.46 30.7-114.02 27.08-37.66-3.14-74.94-15.84-105.04-38.98-26.54-21.4-48.76-48.56-62.3-80-32.48-73.22-12.2-164.36 44.24-220.2 38.7-39.36 94.12-62.14 149.46-59.9 7.1-43.88 28.12-85.38 58.98-117.36 37.76-39.74 88.66-66.76 142.74-75.74m-2.26 57.14c-46.28 10.54-88.34 38.14-116.38 76.44-20.16 28.62-31.18 63.56-31.08 98.56-0.42 35.8 11.62 71.66 33.78 99.78 27.1 33.36 69.3 52.88 111.96 54.9 27.08 1.1 54.82-5.8 77.2-21.36 25.12-17.62 42.54-48.12 39.54-79.34-3.6-29.16-22.66-57.34-51-67.24-16.6-6.08-36.54-4.74-50.66 6.48-8.8 5.82-13.42 15.86-21.76 22.16-11.74 8.1-29.78 5.2-37.9-6.68-7.12-8.96-7.22-22.6-0.7-31.92 17.72-26.58 47.14-45.66 79.22-48.62 31.26-3.62 62.9 7.4 87.42 26.58 27.24 22.16 45.84 54.86 50.32 89.74 4.24 30.46-3.4 61.96-19.28 88.1-17.76 30.58-47.28 53.18-80.04 65.78-39.76 15.48-84.58 15.52-125.26 3.5 4.52 30.52-2.1 62.5-18.26 88.76 71.56 33 158.84 25.42 225.18-16.38 70.56-41.8 116.74-120.8 119.4-202.66 2.6-52.96-12.46-106.62-42.36-150.4-23.6-34.82-55.5-64.86-94.12-82.28-41.88-19.36-90.26-24.4-135.22-13.9M182.14 504.16c-43 41-57.9 109.88-32.36 164.08 15.62 33.08 43.24 61.8 78.34 73.76 28.64 10.38 60.66 12.68 90.1 4.3 20.76-5.82 39.56-19.22 50.56-37.92 13.62-21.78 16.02-50.58 4.6-73.78-7.46-15.82-21.62-29.3-39.12-32.84-14.78-3.28-31.78-1.28-43.26 9.36-8.74 7.48-8.96 20.66-17.92 27.98-13.58 10.44-36.02 4.6-42.68-11.28-6.52-13.26 0.76-27.68 7.36-39.32 14.92-25.38 43.42-39.9 71.98-43.42-12.68-25.64-20.54-53.68-22.38-82.26-38.96-2.44-77.4 14.68-105.22 41.34m630.82 54.88c-6.5 38.42-20.64 75.58-41.14 108.72-11.66 19.52-26.34 36.92-41.52 53.74 27.74 24.52 69.98 30.4 103.22 14.04 23.48-11.1 42.06-32.34 49.44-57.28 7.76-24.62 4.68-52.5-8.52-74.68-13.04-22.52-35.84-39.54-61.48-44.54z" p-id="31797" fill="#1296db"></path></svg>