<?xml version="1.0" standalone="no"?><!DOCTYPE svg PUBLIC "-//W3C//DTD SVG 1.1//EN" "http://www.w3.org/Graphics/SVG/1.1/DTD/svg11.dtd"><svg t="1692842030633" class="icon" viewBox="0 0 1024 1024" version="1.1" xmlns="http://www.w3.org/2000/svg" p-id="13393" xmlns:xlink="http://www.w3.org/1999/xlink" width="200" height="200"><path d="M42.666667 85.333333m68.266666 0l631.466667 0q68.266667 0 68.266667 68.266667l0 759.466667q0 68.266667-68.266667 68.266666l-631.466667 0q-68.266667 0-68.266666-68.266666l0-759.466667q0-68.266667 68.266666-68.266667Z" fill="#535456" p-id="13394"></path><path d="M85.333333 128m34.133334 0l614.4 0q34.133333 0 34.133333 34.133333l0 699.733334q0 34.133333-34.133333 34.133333l-614.4 0q-34.133333 0-34.133334-34.133333l0-699.733334q0-34.133333 34.133334-34.133333Z" fill="#FFFFFF" p-id="13395"></path><path d="M298.922667 437.162667c3.413333-4.608 6.144-10.325333 8.192-17.152 2.048-6.826667 3.072-15.104 3.072-24.832 0-8.021333-0.896-15.786667-2.688-23.296a61.696 61.696 0 0 0-8.576-20.096 43.52 43.52 0 0 0-15.36-14.08 46.933333 46.933333 0 0 0-23.04-5.248 46.933333 46.933333 0 0 0-23.04 5.248 43.52 43.52 0 0 0-15.36 14.08 61.696 61.696 0 0 0-8.576 20.096 100.010667 100.010667 0 0 0 0 45.696c1.792 7.253333 4.650667 13.781333 8.576 19.584 3.925333 5.802667 9.045333 10.453333 15.36 13.952a46.933333 46.933333 0 0 0 23.04 5.248c4.266667 0 7.509333-0.170667 9.728-0.512a21.546667 21.546667 0 0 0 6.4-2.048l-13.952-12.714667a4.266667 4.266667 0 0 1-0.256-6.058667l12.842666-13.738666a4.266667 4.266667 0 0 1 5.973334-0.213334l17.664 16.085334z m5.888 42.24c-12.117333 6.997333-26.88 10.496-44.288 10.496-13.994667 0-26.581333-2.432-37.76-7.296a80.896 80.896 0 0 1-28.288-20.096c-7.68-8.533333-13.568-18.56-17.664-30.08A110.378667 110.378667 0 0 1 170.666667 395.178667c0-13.653333 2.048-26.325333 6.144-38.016a91.306667 91.306667 0 0 1 17.664-30.592c7.68-8.704 17.109333-15.530667 28.288-20.48 11.178667-4.949333 23.765333-7.424 37.76-7.424 14.165333 0 26.794667 2.474667 37.888 7.424 11.093333 4.949333 20.48 11.776 28.16 20.48 7.68 8.704 13.568 18.901333 17.664 30.592 4.096 11.690667 6.144 24.362667 6.144 38.016 0 13.312-2.048 25.685333-6.144 37.12a92.074667 92.074667 0 0 1-17.664 30.208l19.541333 17.792a4.266667 4.266667 0 0 1 0.213333 6.101333l-12.8 13.312a4.266667 4.266667 0 0 1-5.930666 0.213333l-22.784-20.522666z" fill="#FFC13C" p-id="13396"></path><path d="M238.378667 709.461333h42.538666a1.706667 1.706667 0 0 0 1.578667-2.261333l-21.930667-62.549333a0.853333 0.853333 0 0 0-1.621333 0l-22.186667 62.549333a1.706667 1.706667 0 0 0 1.621334 2.261333zM245.674667 597.333333h29.44a8.533333 8.533333 0 0 1 7.978666 5.546667l65.408 174.933333a1.706667 1.706667 0 0 1-1.621333 2.304h-36.181333a4.266667 4.266667 0 0 1-4.053334-2.901333l-12.842666-37.802667H225.450667l-13.312 37.845334a4.266667 4.266667 0 0 1-4.053334 2.858666h-34.986666a1.706667 1.706667 0 0 1-1.578667-2.304l66.176-174.933333a8.533333 8.533333 0 0 1 7.978667-5.546667z" fill="#EDEEF0" p-id="13397"></path><path d="M426.666667 341.333333m8.533333 0l196.266667 0q8.533333 0 8.533333 8.533334l0 25.6q0 8.533333-8.533333 8.533333l-196.266667 0q-8.533333 0-8.533333-8.533333l0-25.6q0-8.533333 8.533333-8.533334Z" fill="#EDEEF0" p-id="13398"></path><path d="M426.666667 640m8.533333 0l238.933333 0q8.533333 0 8.533334 8.533333l0 25.6q0 8.533333-8.533334 8.533334l-238.933333 0q-8.533333 0-8.533333-8.533334l0-25.6q0-8.533333 8.533333-8.533333Z" fill="#EDEEF0" p-id="13399"></path><path d="M426.666667 426.666667m8.533333 0l153.6 0q8.533333 0 8.533333 8.533333l0 25.6q0 8.533333-8.533333 8.533333l-153.6 0q-8.533333 0-8.533333-8.533333l0-25.6q0-8.533333 8.533333-8.533333Z" fill="#EDEEF0" p-id="13400"></path><path d="M426.666667 725.333333m8.533333 0l196.266667 0q8.533333 0 8.533333 8.533334l0 25.6q0 8.533333-8.533333 8.533333l-196.266667 0q-8.533333 0-8.533333-8.533333l0-25.6q0-8.533333 8.533333-8.533334Z" fill="#EDEEF0" p-id="13401"></path><path d="M213.333333 85.333333h426.666667v-17.066666A68.266667 68.266667 0 0 0 571.733333 0H281.6A68.266667 68.266667 0 0 0 213.333333 68.266667V85.333333zM256 128v17.066667a25.6 25.6 0 0 0 25.6 25.6h290.133333a25.6 25.6 0 0 0 25.6-25.6V128H256zM213.333333 85.333333h426.666667v59.733334A68.266667 68.266667 0 0 1 571.733333 213.333333H281.6A68.266667 68.266667 0 0 1 213.333333 145.066667V85.333333z" fill="#535456" p-id="13402"></path><path d="M853.319665 913.659444m30.16989-30.169889l0 0q30.169889-30.169889 60.339778 0l60.339779 60.339778q30.169889 30.169889 0 60.339779l0 0q-30.169889 30.169889-60.339779 0l-60.339778-60.339779q-30.169889-30.169889 0-60.339778Z" fill="#EDEEF0" p-id="13403"></path><path d="M810.666667 810.666667m-170.666667 0a170.666667 170.666667 0 1 0 341.333333 0 170.666667 170.666667 0 1 0-341.333333 0Z" fill="#EDEEF0" p-id="13404"></path><path d="M810.666667 810.666667m-85.333334 0a85.333333 85.333333 0 1 0 170.666667 0 85.333333 85.333333 0 1 0-170.666667 0Z" fill="#FFFFFF" p-id="13405"></path><path d="M950.826667 283.861333c26.496 7.637333 45.781333 20.992 57.728 40.106667 12.373333 18.901333 14.933333 40.832 7.808 65.706667-5.717333 19.968-15.701333 35.157333-29.952 45.568-4.778667 3.328-19.328 10.709333-43.605334 22.101333a65.706667 65.706667 0 0 0-23.338666 16.384 57.301333 57.301333 0 0 0-14.336 25.173333l-0.853334 2.901334a4.266667 4.266667 0 0 1-5.248 2.901333l-35.669333-10.24a4.266667 4.266667 0 0 1-2.944-5.248l0.853333-2.901333c4.522667-15.829333 11.008-28.032 19.370667-36.608 8.32-9.429333 28.586667-21.973333 60.928-37.546667l9.173333-5.802667c10.496-7.68 17.194667-16.512 20.053334-26.624 4.053333-13.952 3.285333-26.325333-2.218667-37.077333-5.845333-10.538667-16.298667-17.962667-31.317333-22.272-18.602667-5.333333-33.706667-3.328-45.226667 6.101333-10.24 7.722667-17.92 20.608-23.125333 38.656l-43.050667-12.373333c8.533333-29.781333 23.893333-50.816 46.08-63.146667 22.229333-12.544 48.512-14.464 78.890667-5.76z m-76.202667 237.824c9.045333 2.56 15.488 7.381333 19.413333 14.421334 4.266667 6.826667 5.12 14.634667 2.602667 23.381333a30.336 30.336 0 0 1-15.146667 18.773333 31.872 31.872 0 0 1-23.68 2.090667 30.122667 30.122667 0 0 1-18.858666-14.762667 29.610667 29.610667 0 0 1-2.602667-23.381333 27.904 27.904 0 0 1 14.592-18.432 29.994667 29.994667 0 0 1 23.68-2.090667z" fill="#5BADFF" p-id="13406"></path></svg>