<?xml version="1.0" standalone="no"?><!DOCTYPE svg PUBLIC "-//W3C//DTD SVG 1.1//EN" "http://www.w3.org/Graphics/SVG/1.1/DTD/svg11.dtd"><svg t="1692777565363" class="icon" viewBox="0 0 1024 1024" version="1.1" xmlns="http://www.w3.org/2000/svg" p-id="58112" xmlns:xlink="http://www.w3.org/1999/xlink" width="200" height="200"><path d="M860.761163 796.410753C926.279311 796.410753 975.137867 747.425739 975.137867 684.73061L975.137867 404.925894C975.137867 392.046095 969.617879 379.726764 960.422881 370.597343L645.152481 52.269778C644.403016 51.524745 641.008916 47.980376 640.01255 46.973897 630.422958 37.286967 622.698045 32.081698 610.901381 32.081698L165.692649 32.081698C99.861393 32.081698 46.921253 89.641221 46.921253 154.208962L46.921253 684.73061C46.921253 748.713914 100.717609 796.410753 165.692649 796.410753L307.040014 796.410753C318.350803 796.410753 327.520014 787.241546 327.520014 775.930753 327.520014 764.619964 318.350803 755.450753 307.040014 755.450753L165.692649 755.450753C122.314887 755.450753 87.881253 724.921262 87.881253 684.73061L87.881253 154.208962C87.881253 111.533131 123.283595 73.041698 165.692649 73.041698L610.901381 73.041698C607.862907 73.041698 608.822874 73.688551 610.903577 75.790372 611.528118 76.421254 615.090516 80.141373 616.172863 81.215816L931.442023 399.54215C933.274368 401.362446 934.177867 403.378846 934.177867 404.925894L934.177867 684.73061C934.177867 724.827824 903.633992 755.450753 860.761163 755.450753L714.501044 755.450753C703.190253 755.450753 694.021044 764.619964 694.021044 775.930753 694.021044 787.241546 703.190253 796.410753 714.501044 796.410753L860.761163 796.410753ZM553.757495 32.792471C553.757495 39.492335 552.558862 289.568912 552.558858 326.785341 552.558858 395.012162 607.313412 450.559971 675.148493 450.559971L962.559997 450.559971 962.559997 409.599971 675.148493 409.599971C630.069096 409.599971 593.518858 372.522599 593.518858 326.785341 593.518858 326.785341 594.717495 32.790614 594.717495 32.790614L553.757495 32.792471ZM167.529513 171.736852C158.48088 171.736852 151.145513 179.072218 151.145513 188.120852 151.145513 197.169485 158.48088 204.504852 167.529513 204.504852L496.022479 204.504852C505.071112 204.504852 512.406479 197.169486 512.406479 188.120852 512.406479 179.072219 505.071112 171.736852 496.022479 171.736852L167.529513 171.736852ZM167.529513 335.576852C158.48088 335.576852 151.145513 342.912218 151.145513 351.960852 151.145513 361.009485 158.48088 368.344852 167.529513 368.344852L496.022479 368.344852C505.071112 368.344852 512.406479 361.009486 512.406479 351.960852 512.406479 342.912219 505.071112 335.576852 496.022479 335.576852L167.529513 335.576852ZM645.417341 1009.171685 751.955069 902.263013C759.694973 894.151397 759.694973 881.619173 751.955069 873.519075 744.215165 865.396707 731.311229 865.396707 723.199613 873.519075L646.530941 950.559461 646.530941 509.210083C646.530941 499.624677 638.419325 491.519971 628.462973 491.519971 618.506621 491.519971 610.766717 499.625443 610.766717 509.210083L610.766717 950.559461 534.086525 873.519075C526.346621 865.396707 513.442685 865.396707 505.337213 873.519075 497.591165 881.619173 497.591165 894.151397 505.337213 902.263013L611.868795 1009.171685C614.822523 1012.119269 618.141053 1013.593059 621.825147 1014.335717 623.670653 1015.437795 626.249597 1015.809507 628.462973 1015.809507 630.674045 1015.809507 633.623933 1015.437795 635.466365 1014.335717 639.151229 1013.593059 642.470525 1012.119269 645.417341 1009.171685ZM399.657341 498.157797 506.195067 605.066469C513.934971 613.178085 513.934971 625.710309 506.195067 633.810403 498.455163 641.932771 485.551227 641.932771 477.439611 633.810403L400.770941 556.770021 400.770941 998.119395C400.770941 1007.704805 392.659325 1015.809507 382.702973 1015.809507 372.746621 1015.809507 365.006717 1007.704035 365.006717 998.119395L365.006717 556.770021 288.326525 633.810403C280.586621 641.932771 267.682685 641.932771 259.577213 633.810403 251.831165 625.710309 251.831165 613.178085 259.577213 605.066469L366.108795 498.157797C369.062523 495.210213 372.381053 493.736419 376.065147 492.993765 377.910653 491.891683 380.489597 491.519971 382.702973 491.519971 384.914043 491.519971 387.863933 491.891683 389.706363 492.993765 393.391227 493.736419 396.710523 495.210213 399.657341 498.157797Z" fill="#1A98FF" p-id="58113"></path></svg>