<?xml version="1.0" standalone="no"?><!DOCTYPE svg PUBLIC "-//W3C//DTD SVG 1.1//EN" "http://www.w3.org/Graphics/SVG/1.1/DTD/svg11.dtd"><svg t="1596208098768" class="icon" viewBox="0 0 1024 1024" version="1.1" xmlns="http://www.w3.org/2000/svg" p-id="3341" xmlns:xlink="http://www.w3.org/1999/xlink" width="32" height="32"><defs><style type="text/css"></style></defs><path d="M411.306667 589.696a554.154667 554.154667 0 0 1 81.493333 97.152c1.408 2.176 1.493333 4.992 0.341333 7.338667-29.226667 58.666667-38.144 97.450667-40.832 115.626666a14.08 14.08 0 0 1-13.909333 11.946667h-109.653333a14.208 14.208 0 0 1-14.08-14.848c0.853333-22.997333 3.84-45.952 9.941333-69.632-45.824 4.693333-142.677333 18.773333-142.677333 53.333333 0 45.226667 109.141333 75.392 109.141333 75.392s29.738667 5.034667 27.306667 20.096c-2.517333 15.104-22.357333 12.586667-22.357334 12.586667s-173.568-25.173333-173.568-113.152c0-77.525333 188.629333-117.973333 233.472-126.464 11.733333-21.674667 26.453333-44.373333 44.8-68.48a7.210667 7.210667 0 0 1 10.624-0.853333z m117.930666-228.266667c-16.64 0-61.866667-86.741333-74.666666-112a4.693333 4.693333 0 0 1 4.138666-6.826666h131.84a4.693333 4.693333 0 0 1 4.309334 6.528c-10.538667 24.874667-48.853333 112.256-65.621334 112.256z m156.586667 296.405334c27.392 4.864 240.085333 45.397333 240.085333 127.701333 0 88.021333-173.610667 113.152-173.610666 113.152s-19.84 2.517333-22.314667-12.586667c-2.474667-15.061333 27.306667-20.096 27.306667-20.096s109.098667-30.165333 109.098666-75.434666c0-35.84-104.32-49.621333-147.626666-53.76 8.064 24.96 13.226667 48.597333 14.933333 69.717333a14.122667 14.122667 0 0 1-14.08 15.274667h-110.72a13.994667 13.994667 0 0 1-13.653333-10.794667c-5.888-24.704-24.490667-88.832-70.869334-160.256a554.24 554.24 0 0 0-112.298666-125.994667C274.090667 411.136 227.498667 258.986667 218.453333 211.2a9.045333 9.045333 0 0 1 10.624-10.666667l122.88 24.96a21.76 21.76 0 0 1 15.573334 12.586667c13.653333 31.189333 60.672 127.445333 150.912 207.957333 3.328 2.986667 8.533333 2.986667 11.861333 0 90.24-80.512 137.216-176.768 150.912-207.957333a21.76 21.76 0 0 1 15.573333-12.586667l122.88-24.917333c6.272-1.28 11.776 4.266667 10.581334 10.666667-9.002667 47.701333-55.637333 199.936-193.578667 313.6a518.826667 518.826667 0 0 0-18.645333 16.128 6.101333 6.101333 0 0 0-0.682667 8.234666 704.384 704.384 0 0 1 68.437333 108.672z" p-id="3342" fill="#1296db"></path></svg>