<?xml version="1.0" standalone="no"?><!DOCTYPE svg PUBLIC "-//W3C//DTD SVG 1.1//EN" "http://www.w3.org/Graphics/SVG/1.1/DTD/svg11.dtd"><svg t="1624432506309" class="icon" viewBox="0 0 1024 1024" version="1.1" xmlns="http://www.w3.org/2000/svg" p-id="2893" xmlns:xlink="http://www.w3.org/1999/xlink" width="200" height="200"><defs><style type="text/css"></style></defs><path d="M128 0h768a128 128 0 0 1 128 128v768a128 128 0 0 1-128 128H128a128 128 0 0 1-128-128V128a128 128 0 0 1 128-128z m767.189333 249.258667c1.749333-20.309333-13.738667-36.181333-33.706666-34.048-93.184-1.493333-186.538667 0-279.893334-0.512l-0.085333-34.56A52.224 52.224 0 0 0 529.28 128c-128.725333 23.338667-257.621333 46.378667-386.56 69.376-4.864 0.853333-14.634667 12.416-14.634667 17.322667 0 199.509333-0.170667 398.592 0 598.101333 0 3.925333 10.154667 13.525333 15.274667 14.421333 127.914667 22.912 255.957333 44.842667 383.701333 68.778667 30.122667 0 54.528-24.405333 54.528-54.528v-28.672H853.333333a42.666667 42.666667 0 0 0 42.666667-42.581333c0.426667-236.586667 0.170667-410.24-0.853333-520.96zM419.157333 633.344c-14.506667 7.68-36.437333-0.341333-53.717333 0.853333-11.648-59.093333-25.088-117.845333-35.456-177.28-10.24 57.770667-23.509333 114.901333-35.2 172.16-16.768-0.810667-33.536-1.962667-50.346667-3.114666-14.506667-78.506667-31.488-156.586667-45.056-235.477334 14.848-0.64 29.866667-1.28 44.885334-1.792 8.96 56.96 19.2 113.578667 27.050666 170.538667 12.288-58.453333 24.917333-116.864 37.077334-175.274667 16.64-0.981333 33.066667-1.664 49.706666-2.645333 11.648 60.245333 23.466667 120.448 35.968 180.48 9.898667-61.994667 20.778667-123.690667 31.317334-185.685333 17.450667-0.682667 34.858667-1.664 52.266666-2.645334-19.626667 86.613333-36.906667 173.824-58.453333 259.882667zM853.333333 768h-271.786666v-42.666667H810.666667l-2.261334-42.666666H581.546667v-42.666667h226.816v-42.666667H581.546667v-42.666666h226.816v-42.666667H581.546667v-42.666667h226.816v-42.666666H581.546667v-34.944h226.816V298.666667H581.546667V256H853.333333v512z" fill="#298ad8" p-id="2894"></path></svg>