<?xml version="1.0" standalone="no"?><!DOCTYPE svg PUBLIC "-//W3C//DTD SVG 1.1//EN" "http://www.w3.org/Graphics/SVG/1.1/DTD/svg11.dtd"><svg t="1623735807826" class="icon" viewBox="0 0 1024 1024" version="1.1" xmlns="http://www.w3.org/2000/svg" p-id="26850" xmlns:xlink="http://www.w3.org/1999/xlink" width="200" height="200"><defs><style type="text/css"></style></defs><path d="M733.510488 358.453928l-12.509918 0c-1.443885-96.126314-74.687026-174.074617-168.462806-184.28619l0 12.297071 0 4.544503-40.844244 0 0-4.544503-0.106424 0 0-12.297071c-93.774757 10.211573-167.017898 88.159876-168.461783 184.28619l-12.510942 0 0 31.649837 402.896116 0L733.510488 358.453928z" p-id="26851"></path><path d="M547.833625 173.686784 547.833625 145.565307 516.290211 145.565307 516.290211 173.686784 516.290211 186.464809 547.833625 186.464809Z" p-id="26852"></path><path d="M878.50172 786.637987c-0.054235-1.443885-0.213871-2.940982-0.054235-4.437056-42.929742-98.105389-149.855006-172.258249-281.374412-190.969403l0-17.643845c59.396785-29.724998 101.151771-98.905614 101.151771-179.580005L365.900016 394.007679c0 80.674391 41.753963 149.855006 101.150748 179.580005l0 17.536398c-134.832871 19.35379-243.36268 97.195669-283.860023 199.096501 0.212848 1.175779 0.480954 2.351558 0.560772 3.527336 0.989537 1.818415 1.871627 3.63683 2.834558 5.454222 1.951445 1.870604 2.7793 4.490268 4.357238 6.682189 1.122567 0.694825 1.790786 1.765203 2.833535 2.619664 30.18037 65.439408 170.038698 114.944915 338.28661 114.944915 182.681646 0 331.842851-58.434877 343.390861-132.267443l2.298346 0C877.967554 789.68437 878.073978 788.135084 878.50172 786.637987z" p-id="26853"></path></svg>