<?xml version="1.0" standalone="no"?><!DOCTYPE svg PUBLIC "-//W3C//DTD SVG 1.1//EN" "http://www.w3.org/Graphics/SVG/1.1/DTD/svg11.dtd"><svg t="1597222193080" class="icon" viewBox="0 0 1024 1024" version="1.1" xmlns="http://www.w3.org/2000/svg" p-id="6575" xmlns:xlink="http://www.w3.org/1999/xlink" width="200" height="200"><defs><style type="text/css"></style></defs><path d="M744.727273 698.181818h-139.636364c-25.716364 0-46.545455 20.829091-46.545454 46.545455s20.829091 46.545455 46.545454 46.545454h139.636364c25.716364 0 46.545455-20.829091 46.545454-46.545454s-20.829091-46.545455-46.545454-46.545455z" p-id="6576" fill="#d4237a"></path><path d="M1024 357.655273c0-20.596364-3.234909-41.076364-9.588364-60.904728L976.733091 84.945455C972.8 62.72 953.483636 46.545455 930.909091 46.545455H93.090909c-22.574545 0-41.890909 16.174545-45.824 38.4L9.588364 296.750545C3.234909 316.602182 0 337.058909 0 357.655273c0 60.648727 27.136 115.106909 69.934545 151.970909-0.046545 0.791273-0.116364 1.582545-0.116363 2.373818v377.018182c0 48.756364 40.587636 88.436364 90.507636 88.436363h703.371637c49.92 0 90.507636-39.68 90.507636-88.436363V512c0-0.791273-0.069818-1.582545-0.116364-2.350545 42.775273-36.864 69.911273-91.345455 69.911273-151.994182zM861.090909 884.363636H162.909091V554.798545c12.567273 2.443636 25.530182 3.746909 38.795636 3.74691 62.324364 0 118.109091-28.299636 155.136-72.657455C393.867636 530.245818 449.675636 558.545455 512 558.545455s118.132364-28.299636 155.159273-72.657455c37.026909 44.357818 92.811636 72.657455 155.136 72.657455 13.265455 0 26.228364-1.303273 38.795636-3.74691V884.363636z m-38.795636-418.909091c-59.880727 0-108.590545-48.360727-108.590546-107.799272 0-25.693091-20.852364-46.545455-46.545454-46.545455s-46.545455 20.852364-46.545455 46.545455c0 59.438545-48.733091 107.799273-108.613818 107.799272s-108.613818-48.360727-108.613818-107.799272c0-25.693091-20.852364-46.545455-46.545455-46.545455s-46.545455 20.852364-46.545454 46.545455c0 59.438545-48.709818 107.799273-108.590546 107.799272S93.090909 417.093818 93.090909 357.655273c0-11.589818 1.954909-23.179636 5.794909-34.420364 0.768-2.257455 1.373091-4.561455 1.768727-6.912L132.096 139.636364h759.808l31.441455 176.709818c0.418909 2.350545 1.000727 4.654545 1.768727 6.912 3.84 11.240727 5.794909 22.807273 5.794909 34.420363 0 59.415273-48.733091 107.776-108.613818 107.776z" p-id="6577" fill="#d4237a"></path></svg>