<?xml version="1.0" standalone="no"?><!DOCTYPE svg PUBLIC "-//W3C//DTD SVG 1.1//EN" "http://www.w3.org/Graphics/SVG/1.1/DTD/svg11.dtd"><svg t="1597222198253" class="icon" viewBox="0 0 1024 1024" version="1.1" xmlns="http://www.w3.org/2000/svg" p-id="6765" xmlns:xlink="http://www.w3.org/1999/xlink" width="200" height="200"><defs><style type="text/css"></style></defs><path d="M512 64C264.6 64 64 264.6 64 512s200.6 448 448 448 448-200.6 448-448S759.4 64 512 64z m0 821.3c-206.2 0-373.3-167.1-373.3-373.3S305.8 138.7 512 138.7c206.2 0 373.3 167.1 373.3 373.3S718.2 885.3 512 885.3z" fill="#d81e06" p-id="6766"></path><path d="M627.6 299.6h-58.8v204.8h-73.9v219.9h155.5c44.2 1.2 65.7-20.2 64.5-64.5V504.3h-87.2V419h106.2v-39.8H627.6v-79.6zM658 544.1V656c1.2 22.7-8.2 33.5-28.4 32.2H550V544.1h108zM419.1 301.5h-56.9v56.8H294v39.9h191.5v-39.9h-66.4zM472.2 422.8H421c-3.8 89.8-10.8 162.4-20.9 218-2.5 1-4.2 1.7-5.1 2.1-6.9 1.1-12.2 1.7-15.7 1.7-12.6-67-19.6-140.9-20.9-221.8h-51.2c1.2 84.7 11.4 161.1 30.3 229.4-5.1 0-12.6 0.7-22.8 1.9-11.4 1.3-19.6 2.5-24.6 3.8v45.5c79.6-8.9 143.4-22.8 191.5-41.7v-39.8l-36 9.5c15.2-55.7 24-125.2 26.6-208.6z" fill="#d81e06" p-id="6767"></path></svg>