<?xml version="1.0" standalone="no"?><!DOCTYPE svg PUBLIC "-//W3C//DTD SVG 1.1//EN" "http://www.w3.org/Graphics/SVG/1.1/DTD/svg11.dtd"><svg t="1598079876573" class="icon" viewBox="0 0 1024 1024" version="1.1" xmlns="http://www.w3.org/2000/svg" p-id="13783" xmlns:xlink="http://www.w3.org/1999/xlink" width="200" height="200"><defs><style type="text/css"></style></defs><path d="M796.444444 474.074074v113.777778H227.555556V474.074074h568.888888m0-56.888889H227.555556c-31.288889 0-56.888889 25.6-56.888889 56.888889v113.777778c0 31.288889 25.6 56.888889 56.888889 56.888889h568.888888c31.288889 0 56.888889-25.6 56.888889-56.888889V474.074074c0-31.288889-25.6-56.888889-56.888889-56.888889z" fill="#0097FF" p-id="13784"></path><path d="M312.888889 938.666667V217.125926c0-18.962963 7.585185-36.02963 20.859259-49.303704C504.414815-1.896296 711.111111 117.57037 711.111111 284.444444v654.222223H312.888889z" fill="#FFFFFF" p-id="13785"></path><path d="M512 113.777778c93.866667 0 170.666667 76.8 170.666667 170.666666v625.777778H341.333333V284.444444c0-93.866667 76.8-170.666667 170.666667-170.666666m0-56.888889C385.896296 56.888889 284.444444 158.340741 284.444444 284.444444v682.666667h455.111112V284.444444C739.555556 158.340741 638.103704 56.888889 512 56.888889z" fill="#0097FF" p-id="13786"></path><path d="M881.777778 910.222222H142.222222c-15.17037 0-28.444444 13.274074-28.444444 28.444445s13.274074 28.444444 28.444444 28.444444h739.555556c15.17037 0 28.444444-13.274074 28.444444-28.444444s-13.274074-28.444444-28.444444-28.444445zM796.444444 248.414815H227.555556c-15.17037 0-28.444444 13.274074-28.444445 28.444444 0 16.118519 13.274074 28.444444 28.444445 28.444445h568.888888c15.17037 0 28.444444-12.325926 28.444445-28.444445s-13.274074-28.444444-28.444445-28.444444z" fill="#0097FF" p-id="13787"></path><path d="M512 474.074074c31.288889 0 56.888889 25.6 56.888889 56.888889s-25.6 56.888889-56.888889 56.888889-56.888889-25.6-56.888889-56.888889 25.6-56.888889 56.888889-56.888889m0-56.888889c-62.577778 0-113.777778 51.2-113.777778 113.777778s51.2 113.777778 113.777778 113.777778 113.777778-51.2 113.777778-113.777778-51.2-113.777778-113.777778-113.777778z" fill="#0097FF" p-id="13788"></path></svg>