<?xml version="1.0" standalone="no"?><!DOCTYPE svg PUBLIC "-//W3C//DTD SVG 1.1//EN" "http://www.w3.org/Graphics/SVG/1.1/DTD/svg11.dtd"><svg t="1596073458858" class="icon" viewBox="0 0 1024 1024" version="1.1" xmlns="http://www.w3.org/2000/svg" p-id="1416" xmlns:xlink="http://www.w3.org/1999/xlink" width="200" height="200"><defs><style type="text/css"></style></defs><path d="M913.3 420.4c-4.6 0-9.2-1.8-12.7-5.3-7-7-7-18.4 0-25.3l35.3-35.2-155.3-165-48 44.4c-7.3 6.7-18.6 6.2-25.3-1-6.7-7.3-6.2-18.6 1-25.3l61.2-56.4c7.2-6.7 18.5-6.3 25.2 0.9L974 342.7c6.6 7.1 6.5 18.1-0.4 25L926 415.1c-3.5 3.5-8.1 5.3-12.7 5.3z" fill="#1296db" p-id="1417"></path><path d="M760.6 717.6l-0.4-35.8h-0.1c5.7-0.1 22-2.7 28.6-12.7 5-7.6 0.8-24.4-3.2-33.7L517.1 362.5c-0.7-0.7-0.8-0.8-1.3-1.5-0.7-0.7-3-2.8-6.7-3.4-3.8 3.9-14 16.2-35.4 53.5-14.6 25.4-26.9 49.4-27 49.6-1.2 2.3-2.9 4.4-5 6-1.6 1.2-31.4 23.8-70.4 23.8-10.2 0-21-1.5-32.1-5.4-23.5-8.2-40.9-25.2-50.3-49.2-6.7-17.1-6.9-31.9-6.9-33.5 0-2.4 0.5-4.8 1.5-7.1l100.2-233.6c0.5-1.2 1.2-2.4 1.9-3.4 1-1.4 24.5-33.6 56.7-49.5 35.2-17.4 77.6-1.3 79.4-0.6 0.1 0 0.2 0.1 0.3 0.1L708.8 185c2.3 0.9 4.4 2.4 6.1 4.2l214.9 224.2c6.7 7 6.6 18.1-0.2 25L785.3 584.1l27.9 28.4c1.3 1.3 2.4 2.9 3.3 4.6 2.2 4.4 20.8 43.7 2.1 71.9-18.3 27.4-54 28.6-58 28.6zM543.2 337.9l216.9 220.6 131.8-132.9-200.1-208.7-183.1-75.2c-8.2-3.1-33.1-9.2-50.4-0.6-20.8 10.3-38 31.2-42.4 36.9l-97.7 227.7c0.9 9.5 5.9 36.4 32.8 45.7 29 10.1 57-5.2 65.9-11 4.6-8.8 16.1-30.5 29-52.7 9.8-16.8 18.3-30.3 25.5-40.2 12.8-17.8 21.3-24.7 31.3-25.7 22.8-2.1 36.7 11.7 40.5 16.1z" fill="#1296db" p-id="1418"></path><path d="M711.2 785.7c-2.6 0-4.2-0.1-4.5-0.2l3.3-35.7h-0.2c0.2 0 19.5 1.3 31.1-11.8 7.8-8.8 5.4-22.4 3.8-28.5l-91.4-87.8c-7.1-6.9-7.4-18.2-0.5-25.3s18.2-7.4 25.3-0.5l94.7 90.9c1.8 1.8 3.3 3.9 4.2 6.2 6 14.9 10.8 46.1-9.2 68.7-19.1 21.6-46 24-56.6 24z" fill="#1296db" p-id="1419"></path><path d="M644.7 854.3h-0.8l1.1-35.8h-0.2c0.2 0 19.2 0.1 31.2-13.5 8.1-9.2 9-25.6 8.4-35.4l-90-86.4c-7.1-6.9-7.4-18.2-0.5-25.3s18.2-7.4 25.3-0.5l94.7 90.9c2.8 2.7 4.6 6.2 5.3 9.9 0.8 4.5 6.7 44.5-16.3 70.6-21.7 24.3-52.6 25.5-58.2 25.5z" fill="#1296db" p-id="1420"></path><path d="M581.2 920.7c-2.5 0-5-0.1-7.6-0.3-16.8-1.5-29-7.5-30.4-8.2-1.7-0.9-3.3-2-4.7-3.4l-82.9-84.4c-6.9-7.1-6.8-18.4 0.2-25.3 7.1-6.9 18.4-6.8 25.3 0.2l80.5 82c7.3 2.9 29.9 9.6 47.2-8 8.6-8.8 10.1-26.3 10.1-36.3l-89.6-86c-7.1-6.9-7.4-18.2-0.5-25.3s18.2-7.4 25.3-0.5l94.7 90.9c3 2.9 4.9 6.8 5.4 10.9 0.5 4.7 4.4 46.6-19.8 71.4-14.3 14.6-32.6 22.3-53.2 22.3zM185.8 570.8c-4.9 0-9.7-2-13.3-5.9l-88.8-97.8c-6.2-6.8-6.2-17.2-0.1-24l251.4-280c3.3-3.7 7.9-5.8 12.8-5.9 4.9-0.1 9.7 1.8 13.2 5.2l26.8 26.8c7 7 7 18.3 0 25.3s-18.3 7-25.3 0l-13.4-13.4-227.9 254 77.9 85.8c6.7 7.3 6.1 18.7-1.2 25.3-3.5 3.1-7.8 4.6-12.1 4.6z" fill="#1296db" p-id="1421"></path><path d="M117.4 450.3c-4.8 0-9.7-2-13.2-5.8l-52.3-57.1c-6.3-6.8-6.3-17.3 0-24.2l192.4-211.1c3.2-3.5 7.8-5.7 12.6-5.8 4.8-0.2 9.5 1.6 13 4.9l50.2 47.2c7.2 6.8 7.5 18.1 0.8 25.3-6.8 7.2-18.1 7.5-25.3 0.8l-36.9-34.7L89.4 375.3l41.2 45c6.7 7.3 6.2 18.6-1.1 25.3-3.4 3.2-7.7 4.7-12.1 4.7zM192.6 679.4c-16.4 0-31.9-6.5-43.4-18.5-23.7-24.4-24-64.4-0.6-89.1l68.6-72.5c11.5-12.2 27-19 43.6-19.1 16.6-0.1 32.2 6.4 43.9 18.5 23.7 24.4 24 64.4 0.6 89.1l-68.6 72.5c-11.5 12.2-27 19-43.6 19.1h-0.5z m68.6-163.3h-0.2c-6.8 0-13.1 2.8-17.8 7.9l-68.6 72.5c-10.2 10.8-10.1 28.9 0.3 39.5 4.8 5 11.1 7.6 17.9 7.6 6.8 0 13.1-2.8 17.8-7.9l68.6-72.5c10.2-10.8 10.1-28.9-0.3-39.5-4.7-4.9-11-7.6-17.7-7.6z" fill="#1296db" p-id="1422"></path><path d="M259 748.7c-16.4 0-31.9-6.5-43.4-18.5-23.7-24.4-24-64.4-0.6-89.1l68.6-72.5c11.5-12.2 27-19 43.6-19.1 16.6-0.1 32.2 6.4 43.9 18.5 23.7 24.4 24 64.4 0.6 89.1L303 729.6c-11.5 12.2-27 19-43.6 19.1h-0.4z m68.6-163.4h-0.2c-6.8 0-13.1 2.8-17.8 7.9L241 665.8c-10.2 10.8-10.1 28.9 0.3 39.5 4.8 4.9 11.1 7.6 17.7 7.6h0.2c6.8 0 13.1-2.8 17.8-7.9l68.6-72.5c10.2-10.8 10.1-28.9-0.3-39.5-4.8-5-11-7.7-17.7-7.7z" fill="#1296db" p-id="1423"></path><path d="M324.1 816.7c-16.4 0-31.9-6.5-43.4-18.5-23.7-24.4-24-64.4-0.6-89.1l68.6-72.5c11.5-12.2 27-19 43.6-19.1 16.6-0.1 32.2 6.4 43.9 18.5 23.7 24.4 24 64.4 0.6 89.1l-68.6 72.5c-11.5 12.2-27 19-43.6 19.1h-0.5z m68.7-163.4h-0.2c-6.8 0-13.1 2.8-17.8 7.9l-68.6 72.5c-10.2 10.8-10.1 28.9 0.3 39.5 4.8 4.9 11.1 7.6 17.7 7.6h0.2c6.8 0 13.1-2.8 17.8-7.9l68.6-72.5c10.2-10.8 10.1-28.9-0.3-39.5-4.8-4.9-11.1-7.6-17.7-7.6z" fill="#1296db" p-id="1424"></path><path d="M388.3 883.6c-16.4 0-31.9-6.5-43.4-18.5-23.7-24.4-24-64.4-0.6-89.1l68.6-72.5c11.5-12.2 27-19 43.6-19.1h0.4c16.4 0 31.8 6.5 43.4 18.5 23.7 24.4 24 64.4 0.6 89.1l-68.6 72.5c-11.5 12.2-27 19-43.6 19.1h-0.4z m68.6-163.3h-0.2c-6.8 0-13.1 2.8-17.8 7.9l-68.6 72.5c-10.2 10.8-10.1 28.9 0.3 39.5 4.8 5 11.2 7.7 17.9 7.6 6.8 0 13.1-2.8 17.8-7.9l68.6-72.5c10.2-10.8 10.1-28.9-0.3-39.5-4.7-4.9-11-7.6-17.7-7.6z m31.1 59.4z" fill="#1296db" p-id="1425"></path></svg>