<?xml version="1.0" standalone="no"?><!DOCTYPE svg PUBLIC "-//W3C//DTD SVG 1.1//EN" "http://www.w3.org/Graphics/SVG/1.1/DTD/svg11.dtd"><svg t="1597220806511" class="icon" viewBox="0 0 1072 1024" version="1.1" xmlns="http://www.w3.org/2000/svg" p-id="6754" xmlns:xlink="http://www.w3.org/1999/xlink" width="209.375" height="200"><defs><style type="text/css"></style></defs><path d="M715.574909 371.489127c-9.539631-6.916232-26.35323-10.294852-40.026702-15.621146-41.338401-16.257121-61.053638-18.960016-90.030266-57.396779 0 0-14.826176-16.773851 18.642028-57.794264s36.44934-106.327136 27.823924-156.648689S576.455291 0 526.809462 0 429.902712 33.627199 421.436289 83.948752s-4.531325 114.634565 27.823924 156.648689c27.823923 35.773616 5.843024 68.287858-9.221644 79.775164-16.614857 12.799005-23.411844 14.309446-55.29011 28.141911-13.673471 5.962269-34.819653 13.991459-46.426204 22.895114a50.122811 50.122811 0 0 0-20.231967 35.058143 19.317753 19.317753 0 0 0 19.278004 21.305176h377.61039a19.436998 19.436998 0 0 0 19.238255-21.821906 48.214885 48.214885 0 0 0-18.642028-34.461916zM397.587212 967.716058c-9.539631-6.916232-26.35323-10.294852-40.026701-15.621145-41.338401-16.257121-61.053638-18.960016-90.030267-57.396779 0 0-14.826176-16.773851 18.642029-57.794264s36.44934-106.327136 27.823923-156.64869S258.467594 596.226932 208.821765 596.226932 111.915015 629.854131 103.448592 680.175684s-4.531325 114.634565 27.823924 156.648689c27.823923 35.773616 5.843024 68.287858-9.221643 79.775163-16.614857 12.799005-23.411844 14.309446-55.290111 28.141911-13.673471 5.962269-34.819653 13.991459-46.426204 22.895114A50.122811 50.122811 0 0 0 0.102591 1002.694705a19.317753 19.317753 0 0 0 19.278004 21.305176h377.61039a19.436998 19.436998 0 0 0 19.238256-21.821906 48.214885 48.214885 0 0 0-18.522784-34.461917zM1053.436837 967.716058c-9.539631-6.916232-26.35323-10.294852-40.026702-15.621145-41.338401-16.257121-61.053638-18.960016-90.030266-57.396779 0 0-14.826176-16.773851 18.642028-57.794264s36.44934-106.327136 27.823924-156.64869S914.317219 596.226932 864.67139 596.226932s-96.906751 33.627199-105.333425 83.948752-4.531325 114.634565 27.823924 156.648689c27.625181 35.773616 5.843024 68.287858-9.221643 79.775163-16.614857 12.799005-23.411844 14.309446-55.290111 28.141911-13.673471 5.962269-34.819653 13.991459-46.426204 22.895114a50.122811 50.122811 0 0 0-20.311464 35.058144 19.317753 19.317753 0 0 0 19.278004 21.305176h377.411648a19.436998 19.436998 0 0 0 19.238256-21.821906 48.214885 48.214885 0 0 0-18.522784-34.461917z" p-id="6755" fill="#1296db"></path><path d="M484.517098 511.24472m39.748463 0l0 0q39.748462 0 39.748462 39.748462l0 135.144771q0 39.748462-39.748462 39.748462l0 0q-39.748462 0-39.748463-39.748462l0-135.144771q0-39.748462 39.748463-39.748462Z" p-id="6756" fill="#1296db"></path><path d="M691.356306 747.899156m-21.898135 33.172457l0 0q-21.898135 33.172457-55.070592 11.274323l-112.786355-74.453659q-33.172457-21.898135-11.274323-55.070592l0 0q21.898135-33.172457 55.070592-11.274323l112.786355 74.453659q33.172457 21.898135 11.274323 55.070592Z" p-id="6757" fill="#1296db"></path><path d="M540.23913 629.581496m21.898135 33.172457l0 0q21.898135 33.172457-11.274323 55.070592l-112.786355 74.453659q-33.172457 21.898135-55.070592-11.274323l0 0q-21.898135-33.172457 11.274322-55.070592l112.786355-74.453658q33.172457-21.898135 55.070593 11.274322Z" p-id="6758" fill="#1296db"></path></svg>