<?xml version="1.0" standalone="no"?><!DOCTYPE svg PUBLIC "-//W3C//DTD SVG 1.1//EN" "http://www.w3.org/Graphics/SVG/1.1/DTD/svg11.dtd"><svg t="1597219450648" class="icon" viewBox="0 0 1024 1024" version="1.1" xmlns="http://www.w3.org/2000/svg" p-id="19330" xmlns:xlink="http://www.w3.org/1999/xlink" width="200" height="200"><defs><style type="text/css"></style></defs><path d="M133.529661 0.00041A49.70492 49.70492 0 0 0 97.40297 15.360397 54.149077 54.149077 0 0 0 81.920102 51.200369v921.599262a48.926681 48.926681 0 0 0 15.482868 35.839972A51.199959 51.199959 0 0 0 133.529661 1023.99959h756.940195a49.70492 49.70492 0 0 0 36.126691-15.359987A50.3398 50.3398 0 0 0 942.079414 972.799631V290.140337L649.625248 0.00041z" fill="#FF1B4D" p-id="19331"></path><path d="M942.079414 293.785775H700.128888a53.247957 53.247957 0 0 1-51.834839-51.855319V0.00041z" fill="#FFBBC0" p-id="19332"></path><path d="M258.129881 389.120098h181.616495s9.687032 121.466783 95.743924 140.656528a89.784248 89.784248 0 0 0 63.897548-5.222396 87.40857 87.40857 0 0 0 20.295664-74.50618c0-2.785278 6.696955-1.679359 6.696955-1.679359h138.035089s15.093748 83.824573-43.007965 100.22904a274.77994 274.77994 0 0 1-67.256266 11.182071 18.636785 18.636785 0 0 0-18.636785 8.949753s-4.853756 8.007674 13.967348 16.957426c22.917102 10.813431 128.921497 67.256266 142.888846 165.887867 0 4.648956 2.047998 20.684783 2.047998 20.684784h-183.316333s9.318393-47.697882-40.611807-106.741675a162.26291 162.26291 0 0 0-113.45911-51.199959c-16.015347 0-81.407935 16.015347-82.145214 82.902974v11.550711H225.894387s-13.598709-80.486336 87.36761-109.547433c52.346838-14.725108 104.447916-18.636785 105.246636-29.429736 1.495039-25.14942-86.99897-41.349087-127.795098-96.501683a161.791871 161.791871 0 0 1-32.604134-83.967933z" fill="#FFFFFF" p-id="19333"></path></svg>