<?xml version="1.0" standalone="no"?><!DOCTYPE svg PUBLIC "-//W3C//DTD SVG 1.1//EN" "http://www.w3.org/Graphics/SVG/1.1/DTD/svg11.dtd"><svg t="1623826927689" class="icon" viewBox="0 0 1024 1024" version="1.1" xmlns="http://www.w3.org/2000/svg" p-id="32334" xmlns:xlink="http://www.w3.org/1999/xlink" width="200" height="200"><defs><style type="text/css"></style></defs><path d="M595 59.5H176c-8.8 0-16 7.2-16 16v868c0 8.8 7.2 16 16 16h643c8.8 0 16-7.2 16-16v-644H595v-240z" fill="#F25C5C" p-id="32335"></path><path d="M615.6 59.5h-0.6v220h220v-0.6z" fill="#F25C5C" p-id="32336"></path><path d="M239.7 604L200 557.7h32l24.5 31 25-31h32L273.4 604l43 49.1h-33.1l-26.8-33.8-27.5 33.8h-32l42.7-49.1zM399.2 596.2c0-9.9-1.3-22-23.4-22-8.6 0-25.9 4.9-25.9 25.7V653h-24.8v-95.4h24.8V572h0.4c8.1-10.3 20.7-16.9 37.6-16.9 11.2 0 27 2 33.7 17.6 6.1-8.8 18.7-17.6 38.7-17.6 15.3 0 38 5.4 38 34.6v63.4h-24.8v-56.9c0-9.9-1.3-22-23.4-22-8.6 0-25.9 4.9-25.9 25.7V653h-24.8v-56.8zM519.1 522.5h24.8v20.2h-24.8v-20.2z m0 35.2h24.8v95.4h-24.8v-95.4zM564.8 557.7h24.8v14.4h0.4c8.1-10.3 20.7-16.9 37.6-16.9 20.5 0 40.5 7.4 40.5 33.1v64.8h-24.8v-56.9c0-10.3-3.4-22-23.9-22-13 0-29.7 7.2-29.7 27.5V653h-24.8v-95.3zM798.1 653.1h-24.8V640h-0.4c-1.8 5.8-16.7 16.7-36.5 16.7-36.4 0-52.2-26.5-52.2-50.9 0-24.1 15.8-50.6 52.2-50.6 14.9 0 29.2 4.7 36.5 16.2h0.4v-49h24.8v130.7z m-55.8-15.5c23.2 0 32-15.7 32-31.9 0-15.8-8.8-31.5-32-31.5-23.4 0-32.2 15.7-32.2 31.5 0 16.3 8.8 31.9 32.2 31.9z" fill="#FFFFFF" p-id="32337"></path></svg>