<?xml version="1.0" standalone="no"?><!DOCTYPE svg PUBLIC "-//W3C//DTD SVG 1.1//EN" "http://www.w3.org/Graphics/SVG/1.1/DTD/svg11.dtd"><svg t="1692845461883" class="icon" viewBox="0 0 1024 1024" version="1.1" xmlns="http://www.w3.org/2000/svg" p-id="77950" xmlns:xlink="http://www.w3.org/1999/xlink" width="200" height="200"><path d="M139.13 247.47m42.62 0l682.35 0q42.62 0 42.62 42.62l0-0.01q0 42.62-42.62 42.62l-682.35 0q-42.62 0-42.62-42.62l0 0.01q0-42.62 42.62-42.62Z" p-id="77951" fill="#1296db"></path><path d="M139.13 418.14m42.62 0l682.35 0q42.62 0 42.62 42.62l0-0.01q0 42.62-42.62 42.62l-682.35 0q-42.62 0-42.62-42.62l0 0.01q0-42.62 42.62-42.62Z" p-id="77952" fill="#1296db"></path><path d="M141.18 588.8m42.62 0l276.31 0q42.62 0 42.62 42.62l0-0.01q0 42.62-42.62 42.62l-276.31 0q-42.62 0-42.62-42.62l0 0.01q0-42.62 42.62-42.62Z" p-id="77953" fill="#1296db"></path><path d="M945.23 0H669.54A196.77 196.77 0 0 0 512 78.88 196.79 196.79 0 0 0 354.46 0H78.77A78.86 78.86 0 0 0 0 78.77v728.61a78.85 78.85 0 0 0 78.77 78.77h289.54C407 923.92 458.38 945.23 512 945.23c10.54 0 20.88-1.47 31.16-3.08V862a122.75 122.75 0 0 1-31.16 4.46c-36.29 0-71.08-16.08-95.68-44.1-7.83-8.91-18.38-15-30.25-15H78.77V78.77h275.69a118.37 118.37 0 0 1 113.93 86.77c4.95 18 19.81 31.38 38.45 31.38h10.32c18.64 0 33.5-13.4 38.45-31.38a118.37 118.37 0 0 1 113.93-86.77h275.69v402.15H1024V78.77A78.84 78.84 0 0 0 945.23 0z" p-id="77954" fill="#1296db"></path><path d="M756.87 869a21.07 21.07 0 0 1-7-1.21L504 781.22a21.5 21.5 0 0 1 0-40.52l245.78-86.61a21.21 21.21 0 0 1 14.11 0l245.81 86.61a21.5 21.5 0 0 1 0 40.52l-245.77 86.61a21.13 21.13 0 0 1-7.06 1.17zM575.65 761l181.22 63.87L938.1 761l-181.23-63.91z" p-id="77955" fill="#1296db"></path><path d="M756.87 1024C679 1024 588 1007.19 588 959.86V811.59a20.35 20.35 0 1 1 40.69 0v146.2c7.43 8.11 51.23 25.32 128.15 25.32S877.59 965.9 885 957.79v-146.2a20.34 20.34 0 1 1 40.68 0v148.27c0.03 47.33-90.92 64.14-168.81 64.14zM996 939.84a21.4 21.4 0 0 1-21.35-21.47v-93.89a21.35 21.35 0 1 1 42.7 0v93.89A21.41 21.41 0 0 1 996 939.84z" p-id="77956" fill="#1296db"></path></svg>