<?xml version="1.0" standalone="no"?><!DOCTYPE svg PUBLIC "-//W3C//DTD SVG 1.1//EN" "http://www.w3.org/Graphics/SVG/1.1/DTD/svg11.dtd"><svg t="1692845893857" class="icon" viewBox="0 0 1024 1024" version="1.1" xmlns="http://www.w3.org/2000/svg" p-id="108570" xmlns:xlink="http://www.w3.org/1999/xlink" width="200" height="200"><path d="M931.84 212.48H542.08a27.52 27.52 0 0 1-19.84-7.68L448 135.04a27.52 27.52 0 0 0-18.56-7.04H92.16A28.16 28.16 0 0 0 64 154.88v714.24a27.52 27.52 0 0 0 28.16 27.52h839.68A28.16 28.16 0 0 0 960 868.48V240.64a28.16 28.16 0 0 0-28.16-28.16zM311.68 715.52H149.12v-36.48L256 549.12h-95.36V515.2h147.2v31.36L197.76 681.6h113.92z m64 0H336V515.2h40.96zM561.92 608a64 64 0 0 1-16.64 19.84 60.16 60.16 0 0 1-21.12 8.96 225.92 225.92 0 0 1-42.24 3.2h-26.24v75.52h-40.32V515.2h64a242.56 242.56 0 0 1 48.64 0 53.76 53.76 0 0 1 28.8 19.2 64 64 0 0 1 12.16 41.6 64 64 0 0 1-7.04 32zM832 443.52h-83.84v83.84H832v222.08H664.32V611.2h83.84v-83.84h-83.84v-83.84h83.84v-83.84h-83.84V275.2h83.84v84.48H832z" fill="#1296db" p-id="108571"></path><path d="M504.32 550.4h-48.64v56.96h22.4a112 112 0 0 0 33.92-4.48 24.32 24.32 0 0 0 12.16-10.24 24.32 24.32 0 0 0 3.2-16.64 27.52 27.52 0 0 0-6.4-17.92 32.64 32.64 0 0 0-16.64-7.68z" fill="#1296db" p-id="108572"></path></svg>