<?xml version="1.0" standalone="no"?><!DOCTYPE svg PUBLIC "-//W3C//DTD SVG 1.1//EN" "http://www.w3.org/Graphics/SVG/1.1/DTD/svg11.dtd"><svg t="1692771459774" class="icon" viewBox="0 0 1024 1024" version="1.1" xmlns="http://www.w3.org/2000/svg" p-id="33057" xmlns:xlink="http://www.w3.org/1999/xlink" width="200" height="200"><path d="M454.851048 519.704381L304.420571 381.854476A42.910476 42.910476 0 1 1 362.300952 318.659048l142.482286 130.633142 142.531048-130.633142a42.910476 42.910476 0 1 1 57.929143 63.146666l-164.717715 151.064381v210.358857a42.910476 42.910476 0 0 1-85.723428 0v-223.524571z" fill="#646A73" p-id="33058"></path><path d="M512 922.331429l336.457143-194.218667a42.910476 42.910476 0 1 1 42.861714 74.264381l-357.912381 206.60419a42.910476 42.910476 0 0 1-42.861714 0l-395.946667-228.693333a42.910476 42.910476 0 0 1-21.455238-37.059048V285.93981a42.910476 42.910476 0 0 1 21.455238-37.10781L490.544762 20.187429a42.910476 42.910476 0 0 1 42.910476 0l395.946667 228.644571a42.910476 42.910476 0 0 1 21.455238 37.10781v284.233142a42.910476 42.910476 0 0 1-85.723429 0V310.710857L512 106.788571 158.866286 310.613333v407.79581L512 922.331429z" fill="#646A73" p-id="33059"></path></svg>