<?xml version="1.0" standalone="no"?><!DOCTYPE svg PUBLIC "-//W3C//DTD SVG 1.1//EN" "http://www.w3.org/Graphics/SVG/1.1/DTD/svg11.dtd"><svg t="1597211050708" class="icon" viewBox="0 0 1024 1024" version="1.1" xmlns="http://www.w3.org/2000/svg" p-id="17270" xmlns:xlink="http://www.w3.org/1999/xlink" width="200" height="200"><defs><style type="text/css"></style></defs><path d="M224.6 849.7c-2-9.9 5.9-47.1 20.1-55.7 28.2-17.1 82.7-2.2 142.3-2.2 53.4 0 110.9-0.4 140.5 13.8 10.8 5.2 22 38.1 22 44.1 0 32-72.7 57.9-162.5 57.9s-155.4-23.7-162.4-57.9z" fill="#D4D4E0" p-id="17271"></path><path d="M896.1 127c-20.4-22.2-77.5-12.5-103.1 13.1-57.6 14.8-112.1 61.1-149.5 102.8-8.4 9.4-3.6 29.8 11.6 28 3.6-0.4 5.9 2.5 9.5 2.1 1.7 0.6 4.9-2.4 7.1-2.3 25.8 0.4 44.5-7.5 69.2-12.4 17-3.4 31.5 5.3 45.4-6 1.3-1 3.7-4.6 4.5-5.7 2.5-0.7 4.8-2 6.9-4.2 3.3-4.3 7.9-6.5 11.9-9.8 0.2-0.1 0.4-0.3 0.6-0.4 5.7-2.6 10.6-5.8 16.2-8.8 28.5-0.6 50.5-12.5 64.4-38.2 8.1-15 19.4-42.9 5.3-58.2z" fill="#A4A5C0" p-id="17272"></path><path d="M243.4 924.1l-58.3-91c-0.1-0.1 0-0.3 0.1-0.3l18.4-7.6C384.9 749.8 550.3 640.9 691.1 504c0.1-0.1 0.2-0.1 0.3 0 2.4 2.5 36.4 38.4 29.4 45.8-7.3 7.6-203.5 216.2-477.1 374.5-0.1 0-0.3-0.1-0.3-0.2z" fill="#DAD8E5" p-id="17273"></path><path d="M856.3 98.3c-12.6-1.1-31.6 5.2-42.3 10-0.9-1.3-6.2 1.8-7.9 2.6-12.9 5.4-28.4 10.6-39.7 18.4-34.6 17.8-62.7 42.2-91.7 68.2-33.3 29.9-63.9 57.7-97.1 87.6-7.6 4.2-17.5 11.4-22.8 18.4-13.4 10.6-22.9 20.4-37.7 29.2-1.8-0.4-5 4.7-7.7 6.1-1.7 0.9-1.9-0.7-1.5 1l-3.3 1.8c0.4 1.9 1.5-1.8 3.3-1.8-0.8 0.8-3.3 2.2-4.4 3.1-1-0.5-3 2.3-4.4 3.1-21.6 12.3-32.6 27.1-52.3 42.3 0 0-2.9 1.1-2.9 1.2l-1.7 0.8c-0.3 0.2-8.4-0.2-2.4 1.8 2.2 0.7-2.2 0.5-1.2 1.9-31.8 23.5-57.3 41.3-88.5 65.6-1.2 0.9-8.9 8-8.6 9.2-21.6 15.8-38.3 28.8-60 44.6-4.1 2.7-6.9 3.5-10.8 6.7-0.6 0.5-5.7 4.8-5.9 5.3-32 21.3-60.7 41.5-92.7 62.8-31.3 20.9-77.2 38.9-85 80.4-1 5.2 4.5 8.8 7.1 4.1 20.1-36.6 65.9-57.9 99.6-80.3 37.4-24.9 74.8-49.8 112.1-74.7 1.7-1.1 2.2-2.7 1.9-4.2 18.3-13.4 36.6-26.7 54.9-40.1 7.8-3.3 14.1-7.9 20.3-14.9 1-1.2 1.2-2.7 0.8-4 29-22 58.3-43.7 87.6-65.3 9.5-5.4 18.8-11.4 27.6-18.1 9-6.9 11.4-10 26.6-24.6 14.4-8.6 26.3-20 39.4-30.3 0.5-0.2 1-0.4 1.4-0.8 0.8-0.7 1.5-1.4 2.3-2 6.6-5.3 13.2-10.8 19.5-16.6 0.7-0.6 1-1.3 1.2-2 30.4-27.3 60.7-54.6 91.1-81.9 25.6-23 49.8-41.7 79-59.4 0.9 0.5 3.6-3.2 4.7-3.5 11.3-3.3 20.7-1.6 28.9-9.9 1.2 2.2 3.2-3.1 5.5-5.3 14.2-13.6 75.5-16.7 94.4-21.4 5.1-1.3-31.5-14.7-36.7-15.1z" fill="#CACEEA" p-id="17274"></path><path d="M649.5 275.2l-88.1 71.6c-2.2 1.9-3.3 4.9-2.5 7.7 2.2 7.7 14.7 20.4 62.7 28.1l4.6 4s-73.8 0.2-95.6-32.6c-2.2-3.4-1.4-8 1.8-10.5l98.8-81.2c4.2-3.3 8.9 2.8 10.8 7.8 1.3 3 10 2.9 7.5 5.1z" fill="#D1D3DF" p-id="17275"></path><path d="M867.7 117.9c9.3 0 45.5 2.9 29.1 49.6-3.2 9-6.7 16.7-10.5 23.1-8.7 14.5-23.5 24.5-40.1 27.5-24.1 4.4-54.5 17.9-81.3 56.5-33.8 48.7-98.9 54.2-119.4 74.3-5.2 5.2-14.2 16.7-18.5 29-6.1 17.5-20.2 33.4 87.9 163.1 2.2 2.7 2.1 6.6-0.4 9l-54.7 53.8C559.1 710.3 278.9 899.5 245.5 921.9c-0.4 0.3-0.9 0.4-1.4 0.4-1.1 0-2.2-0.8-2.6-2-9.8-31.6-139.4-200-141.1-202.2-20.5-26.9 5.1-54.9 13-61.8 8.2-7.2 99.4-70.7 143.5-98.4 44.1-27.7 225.8-171.6 244.2-185.8 25.4-19.6 42.2-31.7 55.3-42.8 22-18.5 29.5-20 124-108.4 83.9-78.5 162.4-98.8 179-102.4 2-0.4 4-0.7 6.1-0.7 0.1 0.1 0.9 0.1 2.2 0.1m0-6.8c-1.1 0-2 0-2.4 0.1-2.4 0.1-4.9 0.4-7.2 0.9-8.9 1.9-33.1 8.1-65.7 23.6-41.2 19.6-80.4 46.7-116.5 80.4-72.6 67.8-93.9 84.5-109.4 96.7-4.7 3.7-9.2 7.2-14.3 11.5-8.4 7.1-18.5 14.7-31.2 24.4-7 5.3-14.9 11.3-23.9 18.2-3 2.3-10.1 7.9-20.1 15.7-51.1 40.1-186.8 146.6-223.6 169.7-42 26.3-135.2 91-144.4 99-2.1 1.8-12.8 11.7-18.9 25.8-6.9 16.1-5.2 31.7 5 45.2l0.5 0.6c60.1 78.4 132.7 177.7 139.5 199.5 1.3 4 4.9 6.7 9 6.7 1.8 0 3.6-0.5 5.2-1.6 31.8-21.4 313.9-211.8 415.3-319l54.6-53.7c4.9-4.8 5.3-12.8 0.8-18.1-100.2-120.2-92.9-139.6-87.7-153.8 0.3-0.9 0.7-1.8 1-2.8 4.1-11.8 12.8-22.4 16.8-26.4 6.6-6.5 19.7-11.7 34.8-17.8 28-11.2 62.9-25.1 85.4-57.5 20.9-30.1 46.8-48.2 77-53.7 18.7-3.4 35-14.6 44.7-30.7 4.1-6.8 7.8-15 11.1-24.3 6.5-18.6 6.1-33.3-1.3-43.7-9.4-13.4-27-14.9-34.1-14.9z" fill="#26273A" p-id="17276"></path><path d="M161.5 673s16.7 28.9-19.2 36l28.3 1 7.7-19.3-16.8-17.7z" fill="#D1D3DF" p-id="17277"></path><path d="M154.5 674.5c9.8 0 17.8 8 17.8 17.8s-8 17.8-17.8 17.8-17.8-8-17.8-17.8 8-17.8 17.8-17.8m0-6.8c-13.5 0-24.5 11-24.5 24.5s11 24.5 24.5 24.5 24.5-11 24.5-24.5-11-24.5-24.5-24.5z" fill="#26273A" p-id="17278"></path></svg>