<?xml version="1.0" standalone="no"?><!DOCTYPE svg PUBLIC "-//W3C//DTD SVG 1.1//EN" "http://www.w3.org/Graphics/SVG/1.1/DTD/svg11.dtd"><svg t="1692845270295" class="icon" viewBox="0 0 1024 1024" version="1.1" xmlns="http://www.w3.org/2000/svg" p-id="64361" xmlns:xlink="http://www.w3.org/1999/xlink" width="200" height="200"><path d="M967.68 327.36h-8.64v-7.68h-7.04V253.76c0-12.16-9.92-22.4-22.4-22.4H94.08c-12.16 0-22.4 9.92-22.4 22.4v51.52h-15.68V253.76c0-20.8 16.96-37.76 37.76-37.76h835.84c20.8 0 37.76 16.96 37.76 37.76v73.6z" p-id="64362"></path><path d="M966.4 806.72H57.6v-515.2h908.8v515.2z m-896-12.8h883.2v-489.6H70.4v489.6z" p-id="64363"></path><path d="M325.44 572.8l-6.72-6.72c18.88-18.88 29.76-47.68 29.76-79.04 0-54.4-32.96-98.88-73.92-98.88s-73.92 44.16-73.92 98.88c0 31.36 10.88 60.16 29.76 79.04l-6.72 6.72c-20.8-20.8-32.64-51.84-32.64-85.76 0-59.84 37.44-108.48 83.52-108.48s83.52 48.64 83.52 108.48c-0.32 33.6-12.16 64.96-32.64 85.76z" p-id="64364"></path><path d="M428.48 720H120.32l-0.32-5.76v-2.88c0-66.56 42.24-125.44 105.28-146.56l2.88-0.96 2.24 2.24c12.8 12.8 28.16 19.52 44.16 19.52s31.36-6.72 44.16-19.52l2.24-2.24 2.88 0.96c63.04 21.12 105.28 80 105.28 146.56v2.88l-0.64 5.76z m-298.88-9.6H419.2c-0.32-61.12-38.72-114.88-96-135.36-14.08 13.44-31.04 20.48-48.64 20.48s-34.56-7.04-48.64-20.48c-57.6 20.16-96 74.24-96.32 135.36zM248.96 465.28c-3.2 0-6.4-0.32-9.92-0.64-21.12-1.92-39.04-9.6-40-9.92-2.56-0.96-3.52-3.84-2.56-6.4s3.84-3.52 6.4-2.56c0.64 0.32 67.84 28.16 86.08-11.84 0.64-1.6 1.92-2.56 3.52-2.88 1.6-0.32 3.2 0.32 4.16 1.6 0.32 0.32 24.64 27.52 52.48 21.44 2.56-0.64 5.12 0.96 5.76 3.52 0.64 2.56-0.96 5.12-3.52 5.76-25.6 5.76-47.68-10.88-56.96-19.52-8.96 14.08-24.32 21.44-45.44 21.44z" p-id="64365"></path><path d="M473.6 390.72h425.6v64H473.6z" fill="#FFF16C" p-id="64366"></path><path d="M904 459.52h-435.2v-73.6h435.2v73.6z m-425.6-9.6h416v-54.4h-416v54.4zM896 523.52H473.6c-2.56 0-4.8-2.24-4.8-4.8s2.24-4.8 4.8-4.8h422.4c2.56 0 4.8 2.24 4.8 4.8s-2.24 4.8-4.8 4.8zM560 584.32h-80c-2.56 0-4.8-2.24-4.8-4.8s2.24-4.8 4.8-4.8h80c2.56 0 4.8 2.24 4.8 4.8s-2.24 4.8-4.8 4.8zM556.8 702.72h-73.6c-2.56 0-4.8-2.24-4.8-4.8s2.24-4.8 4.8-4.8h73.6c2.56 0 4.8 2.24 4.8 4.8s-2.24 4.8-4.8 4.8z" p-id="64367"></path><path d="M617.6 576.32h268.8v131.2h-268.8z" fill="#73FF9E" p-id="64368"></path><path d="M891.2 712.32h-278.4v-140.8h278.4v140.8z m-268.8-9.6h259.2v-121.6h-259.2v121.6z" p-id="64369"></path></svg>