<?xml version="1.0" standalone="no"?><!DOCTYPE svg PUBLIC "-//W3C//DTD SVG 1.1//EN" "http://www.w3.org/Graphics/SVG/1.1/DTD/svg11.dtd"><svg t="1596078983057" class="icon" viewBox="0 0 1024 1024" version="1.1" xmlns="http://www.w3.org/2000/svg" p-id="17781" xmlns:xlink="http://www.w3.org/1999/xlink" width="200" height="200"><defs><style type="text/css"></style></defs><path d="M928 940.72H96a90.1 90.1 0 0 1-90-90V173.28a90.1 90.1 0 0 1 90-90h832a90.1 90.1 0 0 1 90 90v677.44a90.1 90.1 0 0 1-90 90zM96 143.28a30 30 0 0 0-30 30v677.44a30 30 0 0 0 30 30h832a30 30 0 0 0 30-30V173.28a30 30 0 0 0-30-30z" p-id="17782"></path><path d="M389.51 243a30.08 30.08 0 0 0-42.42 0L226.57 363.5l-35.66-35.66a30.09 30.09 0 0 0-42.42 0 30.09 30.09 0 0 0 0 42.43l56.57 56.57a30.85 30.85 0 0 0 43 0l141.45-141.42a30.09 30.09 0 0 0 0-42.42zM269 796a120 120 0 1 1 120-120 120.13 120.13 0 0 1-120 120z m0-180a60 60 0 1 0 60 60 60.07 60.07 0 0 0-60-60z" p-id="17783"></path><path d="M465 274.91m60 0l319 0q60 0 60 60l0 0q0 60-60 60l-319 0q-60 0-60-60l0 0q0-60 60-60Z" p-id="17784"></path><path d="M465 615.5m60 0l319 0q60 0 60 60l0 0q0 60-60 60l-319 0q-60 0-60-60l0 0q0-60 60-60Z" p-id="17785"></path></svg>