<?xml version="1.0" standalone="no"?><!DOCTYPE svg PUBLIC "-//W3C//DTD SVG 1.1//EN" "http://www.w3.org/Graphics/SVG/1.1/DTD/svg11.dtd"><svg t="1692842116044" class="icon" viewBox="0 0 1057 1024" version="1.1" xmlns="http://www.w3.org/2000/svg" p-id="18127" xmlns:xlink="http://www.w3.org/1999/xlink" width="206.4453125" height="200"><path d="M132.129032 0h652.71742a132.129032 132.129032 0 0 1 87.997935 33.560774l140.056774 124.994065A132.129032 132.129032 0 0 1 1057.032258 257.123097v622.030451a132.129032 132.129032 0 0 1-132.129032 132.129033H132.129032a132.129032 132.129032 0 0 1-132.129032-132.129033V132.129032a132.129032 132.129032 0 0 1 132.129032-132.129032z" fill="#2D6AEA" p-id="18128"></path><path d="M66.064516 580.079484h924.903226a66.064516 66.064516 0 0 1 66.064516 66.064516v240.078452a132.129032 132.129032 0 0 1-132.129032 132.129032H132.129032a132.129032 132.129032 0 0 1-132.129032-132.129032v-240.078452a66.064516 66.064516 0 0 1 66.064516-66.064516z" fill="#CEDBF8" p-id="18129"></path><path d="M238.492903 708.971355c17.771355 0 32.206452 14.435097 32.206452 32.239484v116.00929a32.239484 32.239484 0 1 1-64.445936 0V741.243871c0-17.804387 14.435097-32.239484 32.239484-32.239484z m554.281291 0a32.239484 32.239484 0 0 0-32.239484 32.239484v116.00929a32.239484 32.239484 0 0 0 64.478967 0V741.243871a32.239484 32.239484 0 0 0-32.239483-32.239484z m-415.710968-38.647742c17.771355 0 32.206452 14.402065 32.206451 32.206452v193.370838a32.239484 32.239484 0 1 1-64.445935 0v-193.370838c0-17.804387 14.435097-32.206452 32.239484-32.206452z m277.140645 0a32.239484 32.239484 0 0 0-32.239484 32.206452v193.370838a32.239484 32.239484 0 1 0 64.445936 0v-193.370838a32.239484 32.239484 0 0 0-32.206452-32.206452z m-138.570323-38.680774c17.804387 0 32.206452 14.435097 32.206452 32.239484v270.699354a32.239484 32.239484 0 1 1-64.412903 0v-270.699354c0-17.837419 14.402065-32.239484 32.206451-32.239484z" fill="#FFFFFF" p-id="18130"></path><path d="M393.975742 407.717161a108.775226 74.157419 0 1 0 217.550452 0 108.775226 74.157419 0 1 0-217.550452 0Z" fill="#FFFFFF" p-id="18131"></path><path d="M453.202581 113.069419a49.548387 49.548387 0 0 1 74.851096-42.611613l242.357678 144.152775a49.548387 49.548387 0 1 1-50.638452 85.157161L552.299355 200.175484v170.314322a49.548387 49.548387 0 0 1-44.75871 49.317162l-4.756645 0.231226a49.548387 49.548387 0 0 1-49.548387-49.548388V113.069419z" fill="#FFFFFF" p-id="18132"></path></svg>