<?xml version="1.0" standalone="no"?><!DOCTYPE svg PUBLIC "-//W3C//DTD SVG 1.1//EN" "http://www.w3.org/Graphics/SVG/1.1/DTD/svg11.dtd"><svg t="1692771054877" class="icon" viewBox="0 0 1024 1024" version="1.1" xmlns="http://www.w3.org/2000/svg" p-id="29862" xmlns:xlink="http://www.w3.org/1999/xlink" width="200" height="200"><path d="M357.995487 460.315874m-46.752814 0a45.688 45.688 0 1 0 93.505627 0 45.688 45.688 0 1 0-93.505627 0Z" fill="#1296db" p-id="29863"></path><path d="M598.259596 488.968447c0-16.473183 13.402241-29.875424 29.875424-29.875424 16.473183 0 29.874401 13.402241 29.874401 29.875424 0 9.321296 7.556093 16.877389 16.877389 16.877389s16.877389-7.556093 16.877389-16.877389c0-35.0861-28.544103-63.630203-63.630203-63.630203s-63.631226 28.544103-63.631226 63.630203c0 9.321296 7.556093 16.877389 16.877389 16.877389S598.259596 498.289744 598.259596 488.968447z" fill="#1296db" p-id="29864"></path><path d="M509.003759 745.17362c-244.690932 0-315.800479 116.883057-318.707692 121.858372 0 0-8.105608 18.006096 9.766434 30.583552 18.419512 12.96222 34.410718-4.770653 34.410718-4.770653l-0.145309 0.243547c0.147356-0.23843 15.196097-24.217564 55.81726-47.944965 69.057819-40.337707 157.13276-48.804543 218.85859-48.804543 111.830995 0 180.741457 26.54047 218.859613 48.804543 40.62014 23.727401 55.66888 47.705512 55.81726 47.944965l-0.145309-0.243547c0 0 13.960966 16.448624 33.240055 6.476505 19.783579-10.233062 10.936073-32.289404 10.936073-32.289404C824.804239 862.056678 753.693668 745.17362 509.003759 745.17362z" fill="#1296db" p-id="29865"></path><path d="M891.12676 270.258237l-84.581374 0c-16.2061-29.653367-36.534078-56.793494-60.718897-80.978313-32.674167-32.673144-70.728878-58.328453-113.107057-76.253708-43.889603-18.563798-90.496084-27.976168-138.525983-27.976168s-94.636381 9.41237-138.525983 27.976168c-42.379203 17.925255-80.433914 43.580564-113.107057 76.253708-32.674167 32.674167-58.329477 70.728878-76.254731 113.107057-18.563798 43.889603-27.976168 90.496084-27.976168 138.525983 0 118.399597 58.646702 228.706889 156.87898 295.072389 4.389984 2.965541 9.370415 4.386914 14.297634 4.386914 8.212032 0 16.278755-3.946892 21.222347-11.264555 7.909134-11.706623 4.830005-27.609825-6.877641-35.519981-84.130096-56.836473-134.356011-151.294798-134.356011-252.674767 0-41.748846 8.360412-82.207303 24.251334-119.489418l560.89357 0c15.890922 37.282115 24.251334 77.740572 24.251334 119.489418 0 100.736309-49.731658 194.857966-133.029806 251.774257-11.665691 7.970532-14.660908 23.890107-6.690376 35.554774 7.971555 11.666714 23.89113 14.660908 35.554774 6.690376 97.263208-66.456574 155.330718-176.370917 155.330718-294.019407 0-41.148166-6.930853-81.244372-20.582781-119.489418l61.653175 0c14.129812 0 25.582655-11.453866 25.582655-25.582655S905.256572 270.258237 891.12676 270.258237zM241.683435 270.258237c10.79588-15.903202 23.164582-30.90794 37.055964-44.799322 57.549717-57.549717 134.066415-89.243557 215.45405-89.243557s157.90331 31.69384 215.453027 89.243557c13.891382 13.891382 26.260084 28.89612 37.055964 44.799322L241.683435 270.258237z" fill="#1296db" p-id="29866"></path></svg>