<?xml version="1.0" standalone="no"?><!DOCTYPE svg PUBLIC "-//W3C//DTD SVG 1.1//EN" "http://www.w3.org/Graphics/SVG/1.1/DTD/svg11.dtd"><svg t="1597146950587" class="icon" viewBox="0 0 1092 1024" version="1.1" xmlns="http://www.w3.org/2000/svg" p-id="10195" xmlns:xlink="http://www.w3.org/1999/xlink" width="213.28125" height="200"><defs><style type="text/css"></style></defs><path d="M870.4 600.405333a187.733333 187.733333 0 0 0-137.079467 261.7344C679.253333 900.437333 614.4 921.6 546.133333 921.6a322.833067 322.833067 0 0 1-187.1872-59.392A187.733333 187.733333 0 0 0 221.866667 600.4736V597.333333c0-97.006933 43.008-186.026667 113.2544-246.306133a238.933333 238.933333 0 0 0 422.024533 0 323.925333 323.925333 0 0 1 113.2544 249.378133z m102.1952 9.6256l0.2048-12.6976a426.3936 426.3936 0 0 0-187.733333-353.621333V238.933333a238.933333 238.933333 0 1 0-477.866667 4.778667 426.666667 426.666667 0 0 0-187.528533 366.318933 187.8016 187.8016 0 1 0 173.124266 330.683734A425.1648 425.1648 0 0 0 546.133333 1024c92.7744 0 180.906667-29.764267 253.3376-83.285333a187.733333 187.733333 0 0 0 173.124267-330.615467z m-549.888-312.661333l1.160533-0.477867-10.376533-25.463466a136.533333 136.533333 0 1 1 9.216 25.941333zM187.733333 699.733333a85.333333 85.333333 0 1 1 0 170.666667 85.333333 85.333333 0 0 1 0-170.666667z m716.8 0a85.333333 85.333333 0 1 1 0 170.666667 85.333333 85.333333 0 0 1 0-170.666667z" p-id="10196"></path></svg>