<?xml version="1.0" standalone="no"?><!DOCTYPE svg PUBLIC "-//W3C//DTD SVG 1.1//EN" "http://www.w3.org/Graphics/SVG/1.1/DTD/svg11.dtd"><svg t="1595954497564" class="icon" viewBox="0 0 1024 1024" version="1.1" xmlns="http://www.w3.org/2000/svg" p-id="5127" xmlns:xlink="http://www.w3.org/1999/xlink" width="200" height="200"><defs><style type="text/css"></style></defs><path d="M512 1024C229.2224 1024 0 794.7776 0 512 0 229.2224 229.2224 0 512 0c282.7776 0 512 229.2224 512 512 0 282.7776-229.2224 512-512 512z m228.352-541.354667c50.005333-73.642667 75.0592-148.189867 68.881067-234.257066-33.5872 24.6784-61.474133 49.8176-93.508267 67.413333-32.426667 17.834667-68.9664 28.194133-110.08 44.3392 20.360533-53.4016 24.405333-97.2288 1.621333-142.2848-3.925333 3.2768-6.621867 4.4544-7.543466 6.4512-25.6 55.210667-72.311467 81.271467-128.853334 94.429867-31.880533 7.424-64.546133 13.312-95.010133 24.7808-111.428267 41.898667-170.837333 137.2672-155.921067 246.237866 15.325867 112.042667 106.615467 200.4992 213.76 207.086934 119.3472 7.3728 219.460267-62.293333 252.1088-174.370134 2.440533-8.362667 10.717867-15.991467 18.0224-21.76 25.582933-20.241067 54.852267-36.727467 77.038934-60.040533 18.346667-19.285333 28.654933-46.199467 42.530133-69.7344l-6.9632-5.137067c-23.978667 5.290667-47.957333 10.615467-76.100267 16.861867z m-418.389333 125.610667c-14.062933 4.693333-24.4224 11.758933-33.757867 10.581333-26.4192-3.310933-32.512-26.368-41.6768-49.237333l75.434667 38.656z m74.3424-0.597333l154.538666-53.009067c-13.090133 33.621333-32.904533 60.962133-68.608 73.659733-32.768 11.639467-60.5184 1.553067-85.930666-20.650666z" fill="#000000" p-id="5128"></path></svg>