<?xml version="1.0" standalone="no"?><!DOCTYPE svg PUBLIC "-//W3C//DTD SVG 1.1//EN" "http://www.w3.org/Graphics/SVG/1.1/DTD/svg11.dtd"><svg t="1623726828899" class="icon" viewBox="0 0 1024 1024" version="1.1" xmlns="http://www.w3.org/2000/svg" p-id="4861" xmlns:xlink="http://www.w3.org/1999/xlink" width="200" height="200"><defs><style type="text/css"></style></defs><path d="M1005 737.4H70.7c-30.2 0-54.6-24.5-54.6-54.6V457.9c0-57.3 46.4-103.7 103.7-103.7h725.4c88.3 0 159.8 71.6 159.8 159.8v223.4z" fill="#83C6EF" p-id="4862"></path><path d="M847.4 354.2H515.9v383.2H1005V511.8c0-87-70.6-157.6-157.6-157.6z" fill="#429BCF" p-id="4863"></path><path d="M1005 515.1H16v-63.5c0-53.8 43.6-97.5 97.5-97.5h730.8c88.7 0 160.6 71.9 160.6 160.6v0.4z" fill="#1A7FC0" p-id="4864"></path><path d="M1005 530.5h-96.3s-89.3-176.3-37.6-176.3h-10.5c79.8 0 144.4 56.6 144.4 126.5v49.8z" fill="#2D416C" p-id="4865"></path><path d="M154.7 736.5m-67 0a67 67 0 1 0 134 0 67 67 0 1 0-134 0Z" fill="#1A7FC0" p-id="4866"></path><path d="M154.7 736.5m-52.3 0a52.3 52.3 0 1 0 104.6 0 52.3 52.3 0 1 0-104.6 0Z" fill="#D2EDF7" p-id="4867"></path><path d="M154.7 788.8c28.9 0 52.2-23.4 52.2-52.2h-52.2v52.2zM154.7 684.3c-28.9 0-52.2 23.4-52.2 52.2h52.2v-52.2z" fill="#83C6EF" p-id="4868"></path><path d="M288.6 736.5m-67 0a67 67 0 1 0 134 0 67 67 0 1 0-134 0Z" fill="#1A7FC0" p-id="4869"></path><path d="M288.6 736.5m-52.3 0a52.3 52.3 0 1 0 104.6 0 52.3 52.3 0 1 0-104.6 0Z" fill="#D2EDF7" p-id="4870"></path><path d="M288.6 788.8c28.9 0 52.2-23.4 52.2-52.2h-52.2v52.2zM288.6 684.3c-28.9 0-52.2 23.4-52.2 52.2h52.2v-52.2z" fill="#83C6EF" p-id="4871"></path><path d="M858.2 736.5m-67 0a67 67 0 1 0 134 0 67 67 0 1 0-134 0Z" fill="#1A7FC0" p-id="4872"></path><path d="M858.2 736.5m-52.3 0a52.3 52.3 0 1 0 104.6 0 52.3 52.3 0 1 0-104.6 0Z" fill="#D2EDF7" p-id="4873"></path><path d="M858.2 788.8c28.9 0 52.2-23.4 52.2-52.2h-52.2v52.2zM858.2 684.3c-28.9 0-52.2 23.4-52.2 52.2h52.2v-52.2z" fill="#83C6EF" p-id="4874"></path><path d="M92.9 393.5h133.9v92.3H92.9zM287.1 393.5H421v92.3H287.1zM481.2 393.5h133.9v92.3H481.2zM675.4 393.5h133.9v92.3H675.4z" fill="#F9C85D" p-id="4875"></path><path d="M159.9 393.5h67v92.3h-67zM354 393.5h67v92.3h-67zM548.2 393.5h67v92.3h-67zM742.4 393.5h67v92.3h-67z" fill="#FFB103" p-id="4876"></path></svg>