<?xml version="1.0" standalone="no"?><!DOCTYPE svg PUBLIC "-//W3C//DTD SVG 1.1//EN" "http://www.w3.org/Graphics/SVG/1.1/DTD/svg11.dtd"><svg t="1692846065490" class="icon" viewBox="0 0 1257 1024" version="1.1" xmlns="http://www.w3.org/2000/svg" p-id="124178" xmlns:xlink="http://www.w3.org/1999/xlink" width="245.5078125" height="200"><path d="M671.944348 838.566957h-91.536696a90.935652 90.935652 0 0 0-90.902261 88.153043l-0.033391 3.261217a90.935652 90.935652 0 0 0 90.935652 90.935653h91.536696a90.935652 90.935652 0 0 0 90.902261-88.153044l0.044521-3.261217a90.935652 90.935652 0 0 0-90.935652-90.935652z m-91.536696 60.627478h91.536696a30.319304 30.319304 0 0 1 30.263652 28.460522l0.055652 2.337391a30.308174 30.308174 0 0 1-30.319304 30.308174h-91.536696a30.319304 30.319304 0 0 1-30.263652-28.471652l-0.055652-2.326261a30.308174 30.308174 0 0 1 30.319304-30.308174zM612.318609 262.511304a106.295652 106.295652 0 0 1 119.129043 62.19687 106.418087 106.418087 0 0 1-34.148174 127.332174l-12.098782 8.592695-1.502609 1.135305-0.934957 0.812522-2.304 2.637913c-10.462609 11.76487-16.996174 32.24487-16.372869 68.385391a30.308174 30.308174 0 0 1-60.616348 1.03513c-0.868174-50.487652 10.384696-85.74887 31.677217-109.701565 3.795478-4.262957 7.735652-7.980522 11.942957-11.408696l3.884522-3.005217 7.078956-5.008696 1.847652-1.246608a45.81287 45.81287 0 0 0 15.838609-55.641044 45.668174 45.668174 0 0 0-87.596522 15.794087l-0.055652 2.315131a30.308174 30.308174 0 0 1-60.627478 0.01113 106.373565 106.373565 0 0 1 84.858435-104.236522z" fill="#1296db" p-id="124179"></path><path d="M594.330645 662.912a45.645913 45.601391 60 1 0 78.983927-45.601391 45.645913 45.601391 60 1 0-78.983927 45.601391Z" fill="#1296db" p-id="124180"></path><path d="M1158.166261 305.997913c49.39687 0 89.6 39.323826 91.069217 88.386783l0.044522 2.782608v152.164174c0 50.031304-31.977739 89.666783-80.695652 91.136l-2.816 0.044522h-83.600696a30.308174 30.308174 0 0 1-1.847652-60.571826l1.847652-0.055652h83.589565c13.434435 0 22.171826-9.917217 22.850783-28.215652l0.044522-2.337392v-152.153043a30.530783 30.530783 0 0 0-28.627479-30.497392l-1.858782-0.055652a30.308174 30.308174 0 0 1 0-60.627478z" fill="#1296db" p-id="124181"></path><path d="M515.506087 16.328348c259.862261-65.190957 523.442087 92.271304 589.501217 352.166956 66.05913 259.862261-90.267826 524.27687-349.640347 591.36a30.308174 30.308174 0 0 1-15.181914-58.701913c227.038609-58.713043 363.898435-290.203826 306.064696-517.732174C988.42713 155.91513 757.704348 18.075826 530.265043 75.130435 305.074087 131.617391 167.045565 358.088348 218.646261 583.123478l1.625043 6.811826 3.339131 12.332522a30.319304 30.319304 0 0 1-27.336348 38.177391l-1.914435 0.066783H101.787826c-49.886609 0-96.968348-39.41287-98.660174-88.442435l-0.044522-2.738087v-152.153043c0-50.354087 40.781913-91.180522 91.102609-91.180522a30.308174 30.308174 0 0 1 1.847652 60.571826l-1.847652 0.055652a30.519652 30.519652 0 0 0-30.430609 28.683131l-0.055652 1.869913v152.153043c0 13.990957 17.541565 29.45113 36.096 30.497392l2.003479 0.055652h54.260869l-1.113043-5.999305C110.692174 326.64487 262.811826 84.012522 507.737043 18.342957l7.757914-2.014609z" fill="#1296db" p-id="124182"></path></svg>