<?xml version="1.0" standalone="no"?><!DOCTYPE svg PUBLIC "-//W3C//DTD SVG 1.1//EN" "http://www.w3.org/Graphics/SVG/1.1/DTD/svg11.dtd"><svg t="1692770632122" class="icon" viewBox="0 0 1024 1024" version="1.1" xmlns="http://www.w3.org/2000/svg" p-id="19714" xmlns:xlink="http://www.w3.org/1999/xlink" width="200" height="200"><path d="M220.177 664.281c15.285 5.748 26.16 20.498 26.16 37.789 0 22.288-18.071 40.357-40.363 40.357-13.914 0-26.188-7.045-33.446-17.764a40.136 40.136 0 0 1-17.575 4.018c-4.44 0-8.716-0.718-12.713-2.044-7.36 7.82-17.806 12.702-29.392 12.702-22.288 0-40.36-18.066-40.36-40.358a40.139 40.139 0 0 1 7.567-23.52 40.717 40.717 0 0 1-0.784-7.963 40.19 40.19 0 0 1 10.064-26.66c-17.136-4.667-29.742-20.334-29.742-38.947 0-21.888 17.42-39.702 39.154-40.342a40.214 40.214 0 0 1-4.215-17.964c0-22.289 18.07-40.359 40.36-40.359 22.182 0 40.183 17.895 40.356 40.036a40.29 40.29 0 0 1 13.096-2.175c22.286 0 40.356 18.07 40.356 40.359 0 11.51-4.817 21.9-12.553 29.254 7.61 7.343 12.342 17.638 12.342 29.048a40.176 40.176 0 0 1-8.312 24.533z m631.207 62.357c-7.364 7.824-17.806 12.702-29.393 12.702-22.292 0-40.358-18.066-40.358-40.358 0-7.62 2.114-14.75 5.788-20.832a40.175 40.175 0 0 1-7.918-24.012c0-12.882 6.037-24.352 15.432-31.74-11.074-7.195-18.404-19.678-18.404-33.868 0-22.288 18.074-40.363 40.362-40.363 2.073 0 4.108 0.16 6.099 0.461 4.87-16.817 20.382-29.111 38.767-29.111 20.876 0 38.053 15.86 40.142 36.185 17.459 4.442 30.377 20.269 30.377 39.11a40.204 40.204 0 0 1-4.491 18.52 40.207 40.207 0 0 1 9.847 26.42c0 11.955-5.198 22.699-13.457 30.087 12.67 6.807 21.28 20.182 21.28 35.573 0 22.288-18.07 40.359-40.357 40.359-13.93 0-26.215-7.053-33.469-17.793a40.27 40.27 0 0 1-7.538 0.705 40.321 40.321 0 0 1-12.71-2.045z m46.733 43.858l2.28-9.887a55.193 55.193 0 0 1-21.272-6.265 55.438 55.438 0 0 1-14.04-10.638c-0.35 0.007-0.681 0.016-0.996 0.016-2.72 0-5.584-0.244-8.554-0.71a56.058 56.058 0 0 1-11.617 6.783 56.3 56.3 0 0 1-12.792 3.81l3.895 16.891h63.096z m-709.138 0l3.394-14.717a55.525 55.525 0 0 1-12.35-4.765 54.935 54.935 0 0 1-12.208-8.847l-0.486 0.114 0.004 0.013c-4.08 0.934-8.227 1.427-12.38 1.427-2.725 0-5.59-0.244-8.561-0.71a55.854 55.854 0 0 1-11.615 6.78 55.841 55.841 0 0 1-12.79 3.809l3.893 16.895h63.099z m-110.86 15.035h867.765v45.609H78.119v-45.61zM3.474 846.179h1017.052v60.647H3.474v-60.647z" p-id="19715" fill="#707070"></path><path d="M750.771 68.738c66.069 14.905 115.8 74.246 115.8 144.647v291.301a57.148 57.148 0 0 0-4.813-0.207c-12.397 0-23.895 4.136-33.191 11.119a55.627 55.627 0 0 0-15.324 17.654c-12.934 0.84-24.662 6.127-33.665 14.337h-28.807v-19.852h52.542v-89.005h-52.542v-32.139h52.542v-89.005h-52.542V68.738z m0 567.856h16.565a54.98 54.98 0 0 0-2.867 17.544c0 6.037 0.979 11.871 2.786 17.348a54.138 54.138 0 0 0 3.112 7.485 56.857 56.857 0 0 0-1.717 5.197c-1.338 4.821-2.056 9.794-2.056 14.815 0 15.296 6.205 29.149 16.227 39.172 9.819 9.817 23.3 15.966 38.221 16.218l3.716 16.124h-73.986V636.593zM591.595 65.128h126.72c11.14 0 22.003 1.252 32.456 3.61v248.85h-52.547v89.005h52.547v32.139h-52.547v89.005h52.547v19.852h-52.547v89.005h52.547v133.903H591.595v-22.283h60.37V547.59h-60.37v-19.852h52.542v-89.005h-52.542v-32.139h52.542v-89.005h-52.542V65.129z m-79.595 0h79.595v252.46h-52.547v89.005h52.547v32.139h-52.547v89.005h52.547v19.852H512V65.128z m79.595 705.369H512v-22.283h79.595v22.283zM432.414 65.128H512v482.461h-79.586v-19.852h52.544v-89.005h-52.544v-32.139h52.544v-89.005h-52.544V65.128zM512 770.497h-79.586v-22.283H512v22.283zM305.686 65.128h126.728v252.46H379.87v89.005h52.544v32.139H379.87v89.005h52.544v19.852h-60.379v200.624h60.379v22.283H273.238V636.593h52.544v-89.005h-52.544v-19.852h52.544v-89.005h-52.544v-32.139h52.544v-89.005h-52.544V68.737a147.311 147.311 0 0 1 32.449-3.61z m-32.449 705.369h-73.994l3.033-13.151c1.224 0.077 2.455 0.123 3.697 0.123 15.296 0 29.147-6.205 39.172-16.231 10.026-10.022 16.228-23.874 16.228-39.167 0-11.641-3.638-22.484-9.853-31.462a55.815 55.815 0 0 0-11.309-12.037c0.127-0.347 0.248-0.702 0.369-1.056a55.307 55.307 0 0 0 2.947-17.764c0-1.057-0.031-2.108-0.09-3.157h29.8v133.901z m0-222.908h-41.05a55.633 55.633 0 0 0-4.672-5.307c-10.026-10.026-23.874-16.227-39.169-16.227l-0.95 0.009a55.16 55.16 0 0 0-13.505-21.757A55.723 55.723 0 0 0 157.432 493V213.385c0-70.401 49.738-129.746 115.806-144.647v248.85h-52.544v89.005h52.544v32.139h-52.544v89.005h52.544v19.852z m170.683-265.37V267.33h0.102c6.932 0 12.643-2.496 17.106-7.518 4.439-5.005 6.671-12.502 6.671-22.512 0-9.888-2.17-17.263-6.49-22.15-4.343-4.862-10.112-7.293-17.287-7.293h-0.102V192.96c12.687 0.017 22.831 3.957 30.45 11.837 7.64 7.88 11.457 18.854 11.457 32.902 0 13.95-3.797 24.845-11.374 32.723-7.58 7.86-17.709 11.796-30.372 11.796h-0.161v0.001z m74.929-1.465V209.04h-25.603v-14.611h68.596v14.611h-25.544v71.714h-17.449z m54.25 0v-86.325h63.996v14.611H590.52v19.134h43.336v14.533H590.52v23.495h48.222v14.55l-65.644 0.001z m80.9 0v-85.623h17.425v71.073h43.336v14.55h-60.761z m-335.417 0v-86.325h17.447v33.966h34.147v-33.966h17.428v86.325h-17.428v-37.743h-34.147v37.743h-17.447zM443.92 192.96v14.897c-7.148 0.024-12.901 2.492-17.283 7.391-4.383 4.927-6.594 12.343-6.594 22.292 0 9.77 2.272 17.186 6.771 22.231 4.503 5.017 10.195 7.534 17.105 7.558v14.889c-12.767-0.032-22.926-3.948-30.471-11.735-7.577-7.836-11.355-18.628-11.355-32.359 0-8.802 1.306-16.177 3.939-22.149a41.087 41.087 0 0 1 8.039-11.837c3.396-3.479 7.114-6.069 11.156-7.759 5.384-2.293 11.575-3.418 18.609-3.418h0.083z m60.042-60.936l-24.827-0.049 20.116 14.558-7.718 23.597 20.057-14.632 20.058 14.632-7.718-23.597 20.113-14.558-24.829 0.049-7.626-23.63-7.627 23.63z m68.689 5.324l-21.358-0.041 17.303 12.523-6.636 20.302 17.255-12.587 17.254 12.587-6.636-20.302 17.303-12.523-21.361 0.041-6.559-20.326-6.564 20.326z m60.493 4.343l-18.531-0.037 15.011 10.867-5.755 17.609 14.97-10.919 14.966 10.919-5.755-17.609 15.007-10.867-18.527 0.037-5.69-17.634-5.694 17.634z m-189.176-24.669l-6.563 20.326-21.358-0.041 17.303 12.523-6.639 20.302 17.256-12.587 17.256 12.587-6.64-20.302 17.305-12.523-21.36 0.041-6.561-20.326z m-59.624 7.036l-5.691 17.634-18.53-0.037 15.013 10.867-5.762 17.609 14.97-10.919 14.972 10.919-5.759-17.609 15.011-10.867-18.531 0.037-5.693-17.634z" p-id="19716" fill="#707070"></path></svg>