<?xml version="1.0" standalone="no"?><!DOCTYPE svg PUBLIC "-//W3C//DTD SVG 1.1//EN" "http://www.w3.org/Graphics/SVG/1.1/DTD/svg11.dtd"><svg t="1692847091279" class="icon" viewBox="0 0 1024 1024" version="1.1" xmlns="http://www.w3.org/2000/svg" p-id="133948" xmlns:xlink="http://www.w3.org/1999/xlink" width="200" height="200"><path d="M988.968421 614.4v-2.694737s0-2.694737-2.694737-2.694737c0 0 0-2.694737-2.694737-2.694737L900.042105 512l83.536842-88.926316s0-2.694737 2.694737-2.694737l2.694737-2.694736v-2.694737-2.694737-2.694737-2.694737s0-2.694737-2.694737-2.694737c0 0 0-2.694737-2.694737-2.694737l-53.894736-59.28421s-2.694737 0-2.694737-2.694737l-2.694737-2.694737H916.210526 908.126316s-2.694737 0-2.694737 2.694737c0 0-2.694737 0-2.694737 2.694737l-115.873684 113.178947-161.684211 2.694737 86.231579-142.821052 148.210527-40.421053s2.694737 0 2.694736-2.694737c0 0 2.694737 0 2.694737-2.694737l2.694737-2.694737 2.694737-2.694736v-2.694737-2.694737-5.389474-2.694737l-21.557895-78.147368s0-2.694737-2.694737-2.694737c0 0 0-2.694737-2.694736-2.694737l-2.694737-2.694737-2.694737-2.694736c-2.694737 0-2.694737 0-5.389474-2.694737h-2.694737-5.389473-2.694737l-121.263158 26.947368-37.726316-123.957895s0-2.694737-2.694737-2.694736c0 0 0-2.694737-2.694737-2.694737l-2.694736-2.694737-2.694737-2.694737h-2.694737c-2.694737 0-2.694737 0-5.389474-2.694737h-2.694737-2.694736l-80.842106 21.557895s-2.694737 0-2.694737 2.694737c0 0-2.694737 0-2.694736 2.694737l-2.694737 2.694736-2.694737 2.694737c0 2.694737-2.694737 2.694737-2.694737 5.389474v8.08421l43.11579 161.684211-75.452632 140.126316-83.536842-142.821053 43.115789-161.68421v-2.694737-5.389474V80.842105c0-2.694737 0-2.694737-2.694736-5.389473l-2.694737-2.694737s0-2.694737-2.694737-2.694737c0 0-2.694737 0-2.694737-2.694737 0 0-2.694737 0-2.694737-2.694737l-80.842105-21.557895H369.178947h-2.694736c-2.694737 0-2.694737 0-5.389474 2.694737 0 0-2.694737 0-2.694737 2.694737l-2.694737 2.694737s0 2.694737-2.694737 2.694737c0 0 0 2.694737-2.694737 2.694737l-37.726315 123.957894-121.263158-26.947368H183.242105c-2.694737 0-2.694737 0-5.389473 2.694737h-2.694737c-2.694737 0-2.694737 2.694737-2.694737 2.694737s0 2.694737-2.694737 2.694737c0 0 0 2.694737-2.694737 2.694736l-16.168421 80.842106v10.778947l2.694737 2.694737 2.694737 2.694737s2.694737 0 2.694737 2.694737c2.694737 2.694737 2.694737 5.389474 5.389473 5.389473l148.210527 40.421053 86.231579 142.821052-161.684211-2.694736-115.873684-113.178948-2.694737-2.694737-2.694737-2.694736h-5.389473H102.4h-2.694737l-2.694737 2.694736s-2.694737 0-2.694737 2.694737l-53.894736 59.284211s0 2.694737-2.694737 2.694737l-2.694737 2.694736v10.778948s0 2.694737 2.694737 2.694737c0 0 0 2.694737 2.694737 2.694737L123.957895 512l-83.536842 91.621053s0 2.694737-2.694737 2.694736l-2.694737 2.694737v10.778948s0 2.694737 2.694737 2.694737c0 0 0 2.694737 2.694737 2.694736l56.589473 61.978948s2.694737 2.694737 5.389474 2.694737h2.694737c2.694737 0 5.389474 2.694737 8.08421 2.694736 2.694737 0 5.389474 0 8.084211-2.694736 0 0 2.694737 0 2.694737-2.694737 0 0 2.694737 0 2.694737-2.694737l113.178947-113.178947 161.68421-2.694737-75.452631 134.736842-164.378947 53.894737h-2.694737c-2.694737 0-2.694737 0-5.389474 2.694736l-2.694737 2.694737-2.694737 2.694737c0 2.694737 0 2.694737-2.694737 5.389474v10.778947l24.252632 78.147369s0 2.694737 2.694737 2.694736v2.694737l2.694737 2.694737 2.694737 2.694737s2.694737 0 2.694736 2.694737h13.473685l123.957894-32.336842 37.726316 126.652631s0 2.694737 2.694737 2.694737v2.694737l2.694737 2.694737 2.694737 2.694737s2.694737 0 2.694737 2.694737h13.473684l75.452631-24.252632s2.694737 0 2.694737-2.694737c0 0 2.694737 0 2.694737-2.694737l2.694737-2.694737 2.694737-2.694736V943.157895v-2.694737-2.694737-2.694737L425.768421 781.473684l86.231579-150.905263 86.231579 150.905263-40.421053 153.6v10.778948l2.694737 2.694736 2.694737 2.694737s2.694737 0 2.694737 2.694737c0 0 2.694737 0 2.694737 2.694737l75.452631 24.252632h13.473684s2.694737 0 2.694737-2.694737l2.694737-2.694737 2.694737-2.694737V970.105263s0-2.694737 2.694737-2.694737l37.726316-126.652631 123.957894 32.336842h13.473685s2.694737 0 2.694736-2.694737l2.694737-2.694737 2.694737-2.694737V862.315789s0-2.694737 2.694737-2.694736l24.252632-78.147369v-8.08421c0-2.694737 0-2.694737-2.694737-5.389474v-2.694737c0-2.694737-2.694737-2.694737-2.694737-2.694737v-2.694737c-2.694737-2.694737-2.694737-2.694737-5.389474-2.694736L700.631579 711.410526l-75.452632-134.736842 161.684211 2.694737 113.178947 113.178947 2.694737 2.694737s2.694737 0 2.694737 2.694737c2.694737 0 5.389474 2.694737 8.08421 2.694737 2.694737 0 5.389474 0 8.084211-2.694737h2.694737c2.694737 0 2.694737-2.694737 5.389474-2.694737l56.589473-61.978947s0-2.694737 2.694737-2.694737l2.694737-2.694737v-2.694737-2.694736c-2.694737-5.389474-2.694737-8.084211-2.694737-8.084211z m-474.273684-40.421053c-8.084211-2.694737-16.168421 2.694737-18.863158 8.084211l-102.4 183.242105v2.694737c0 2.694737 0 2.694737-2.694737 5.389474V781.473684l37.726316 142.821053-40.421053 13.473684-37.726316-126.652632s0-2.694737-2.694736-2.694736c0 0 0-2.694737-2.694737-2.694737l-2.694737-2.694737-2.694737-2.694737h-2.694737H328.757895h-2.694737l-123.957895 32.336842-13.473684-43.115789 153.6-43.11579s2.694737 0 2.694737-2.694737h2.694737c2.694737-2.694737 5.389474-2.694737 5.389473-5.389473l94.31579-169.768421V565.894737v-2.694737-2.694737-2.694737s0-2.694737-2.694737-2.694737c0 0 0-2.694737-2.694737-2.694736l-2.694737-2.694737-2.694737-2.694737h-2.694736-2.694737L229.052632 538.947368H220.968421c-2.694737 0-2.694737 2.694737-5.389474 2.694737h-2.694736L107.789474 646.736842l-26.947369-29.642105 83.536842-91.621053s0-2.694737 2.694737-2.694737l2.694737-2.694736v-2.694737-2.694737-2.694737-2.694737s0-2.694737-2.694737-2.694737c0 0 0-2.694737-2.694737-2.694737L80.842105 409.6 110.484211 377.263158l107.789473 105.094737s2.694737 0 2.694737 2.694737l2.694737 2.694736H231.747368l202.105264 2.694737c2.694737 0 5.389474 0 8.08421-2.694737l2.694737-2.694736 2.694737-2.694737 2.694737-2.694737s0-2.694737 2.694736-2.694737v-2.694737-2.694737-2.694736-2.694737-2.694737-2.694737l-107.789473-177.852632s0-2.694737-2.694737-2.694736l-2.694737-2.694737c-2.694737 0-2.694737-2.694737-5.389474-2.694737h-2.694736L191.326316 237.136842l10.778947-43.115789 121.263158 26.947368h13.473684s2.694737 0 2.694737-2.694737l2.694737-2.694737 2.694737-2.694736v-2.694737-2.694737l37.726316-123.957895 45.810526 10.778947-40.421053 153.6v8.084211c0 2.694737 0 5.389474 2.694737 8.084211l105.094737 177.852631c2.694737 2.694737 2.694737 5.389474 5.389474 5.389474 2.694737 2.694737 5.389474 2.694737 10.778947 2.694737s8.084211-2.694737 10.778947-5.389474c2.694737 0 2.694737-2.694737 2.694737-2.694737l105.094737-177.852631c0-2.694737 2.694737-5.389474 2.694737-8.084211v-8.084211L592.842105 94.315789l45.810527-10.778947 37.726315 123.957895v5.389474l2.694737 2.694736 2.694737 2.694737s2.694737 0 2.694737 2.694737h13.473684l121.263158-26.947368 10.778947 43.115789-137.431579 37.726316h-2.694736c-2.694737 0-2.694737 0-5.389474 2.694737l-2.694737 2.694737-2.694737 2.694736-105.094737 177.852632v13.473684s0 2.694737 2.694737 2.694737c0 0 0 2.694737 2.694737 2.694737l2.694737 2.694737 2.694737 2.694737c2.694737 2.694737 5.389474 2.694737 8.08421 2.694736l202.105263-2.694736H803.031579l2.694737-2.694737s2.694737 0 2.694737-2.694737l107.789473-105.094737 29.642106 32.336842-83.536843 88.926316s0 2.694737-2.694736 2.694737l-2.694737 2.694737v10.778947s0 2.694737 2.694737 2.694737c0 0 0 2.694737 2.694736 2.694737l83.536843 91.621052-32.336843 35.031579-105.094736-97.010526s-2.694737 0-2.694737-2.694737l-2.694737-2.694737h-5.389474-2.694737L592.842105 538.947368h-2.694737-2.694736l-2.694737 2.694737-2.694737 2.694737-2.694737 2.694737s0 2.694737-2.694737 2.694737v10.778947l94.31579 169.768421c2.694737 2.694737 2.694737 5.389474 5.389473 5.389474h2.694737s2.694737 0 2.694737 2.694737L835.368421 781.473684l-13.473684 43.11579-123.957895-32.336842h-2.694737-2.694737-2.694736c-2.694737 0-2.694737 0-5.389474 2.694736-2.694737 0-2.694737 2.694737-5.389474 2.694737v2.694737l-2.694737 2.694737-37.726315 126.652632-40.421053-13.473685 37.726316-142.821052v-2.694737-5.389474c0-2.694737 0-2.694737-2.694737-5.389474v-2.694736l-102.4-183.242106c-5.389474 2.694737-10.778947 0-16.168421 0z" fill="#1296db" p-id="133949"></path></svg>