<?xml version="1.0" standalone="no"?><!DOCTYPE svg PUBLIC "-//W3C//DTD SVG 1.1//EN" "http://www.w3.org/Graphics/SVG/1.1/DTD/svg11.dtd"><svg t="1692770682579" class="icon" viewBox="0 0 1365 1024" version="1.1" xmlns="http://www.w3.org/2000/svg" p-id="21307" xmlns:xlink="http://www.w3.org/1999/xlink" width="266.6015625" height="200"><path d="M237.112889 520.533333c0 235.235556 204.231111 425.870222 456.078222 425.870223 251.904 0 456.078222-190.634667 456.078222-425.813334s-204.231111-425.813333-456.078222-425.813333-456.078222 190.577778-456.078222 425.813333z" fill="#E8E8E9" p-id="21308"></path><path d="M682.666667 470.072889c-79.872 0-234.666667 43.576889-234.666667 128v234.268444h469.333333v-234.040889c0-84.650667-154.737778-128.227556-234.666666-128.227555z" fill="#A3D4FF" p-id="21309"></path><path d="M683.975111 427.349333a213.674667 213.674667 0 1 1 214.698667-213.674666 214.300444 214.300444 0 0 1-214.698667 213.674666z m0-384a170.666667 170.666667 0 1 0 172.088889 170.723556 171.576889 171.576889 0 0 0-172.088889-170.666667V43.406222z m254.691556 789.048889h-42.723556v-234.097778c0-65.137778-140.117333-106.609778-213.674667-106.609777-73.557333 0-213.674667 41.528889-213.674666 106.609777v234.040889H426.666667v-234.040889c0-99.384889 164.124444-149.390222 256-149.390222 91.875556 0 256 49.664 256 149.390222v234.040889z" fill="#2A5082" p-id="21310"></path><path d="M554.666667 619.349333h256v384h-256z" fill="#A3D4FF" p-id="21311"></path><path d="M789.276444 619.349333h42.666667v384h-42.666667v-384z m-256 0h42.666667v384h-42.666667v-384z m426.894223-278.471111a171.463111 171.463111 0 0 1-50.915556-7.509333l12.515556-40.732445a126.805333 126.805333 0 1 0-36.522667-223.857777l-24.689778-34.816a169.813333 169.813333 0 1 1 98.986667 307.427555l0.568889-0.568889z" fill="#2A5082" p-id="21312"></path><path d="M1207.523556 278.072889c-24.120889 0-47.786667-6.485333-68.608-18.773333l21.788444-36.750223c14.222222 8.419556 30.378667 12.856889 46.933333 12.8a96.028444 96.028444 0 0 0 0-192c-23.153778 0-45.511111 8.704-62.520889 24.462223l-28.785777-31.459556a134.940444 134.940444 0 0 1 91.591111-35.669333 138.695111 138.695111 0 0 1 0 277.333333l-0.398222 0.056889zM1365.333333 555.349333h-42.723555V406.072889c0-35.612444-78.961778-64.398222-130.446222-64.398222-25.486222 1.194667-50.232889 8.533333-72.248889 21.390222l-21.162667-37.034667a199.452444 199.452444 0 0 1 93.411556-26.965333c58.481778 0 172.942222 32.369778 172.942222 107.121778L1365.333333 555.349333z m-234.666666 149.390223h-42.609778V470.072889c0-36.522667-77.653333-64-128-64-34.816 0-88.177778 14.222222-113.777778 37.376l-28.558222-31.630222c39.253333-35.555556 106.609778-48.469333 142.449778-48.469334 57.685333 0 170.666667 32.256 170.666666 106.666667l-0.170666 234.723556zM405.105778 340.878222A169.415111 169.415111 0 1 1 504.035556 33.450667l-24.746667 34.816a126.805333 126.805333 0 1 0-36.408889 223.857777l12.515556 40.732445a171.463111 171.463111 0 0 1-50.346667 7.964444z" fill="#2A5082" p-id="21313"></path><path d="M157.525333 278.072889a138.695111 138.695111 0 0 1 0-277.276445 134.940444 134.940444 0 0 1 91.591111 35.612445l-28.842666 31.459555c-17.066667-15.758222-39.480889-24.462222-62.748445-24.462222a96.028444 96.028444 0 0 0 0 192.056889c16.497778 0 32.654222-4.437333 46.819556-12.8l21.731555 36.693333c-20.764444 12.288-44.430222 18.773333-68.551111 18.773334zM42.609778 555.349333H0V406.072889c0-74.752 114.688-107.121778 172.942222-107.121778 32.938667 1.137778 65.024 10.410667 93.468445 26.965333l-21.162667 37.034667a158.435556 158.435556 0 0 0-72.248889-21.390222c-51.484444 0-130.446222 28.899556-130.446222 64.455111l0.056889 149.333333z m234.780444 149.390223h-42.723555V470.072889c0-74.467556 112.924444-106.609778 170.666666-106.609778 35.669333 0 102.968889 12.913778 142.392889 48.412445l-28.558222 31.687111c-25.6-23.096889-78.961778-37.376-113.777778-37.376-50.346667 0-128 27.477333-128 64v234.552889z" fill="#2A5082" p-id="21314"></path></svg>