<?xml version="1.0" standalone="no"?><!DOCTYPE svg PUBLIC "-//W3C//DTD SVG 1.1//EN" "http://www.w3.org/Graphics/SVG/1.1/DTD/svg11.dtd"><svg t="1597211266283" class="icon" viewBox="0 0 1024 1024" version="1.1" xmlns="http://www.w3.org/2000/svg" p-id="18235" xmlns:xlink="http://www.w3.org/1999/xlink" width="200" height="200"><defs><style type="text/css"></style></defs><path d="M514.117016 174.843896c146.446335 0 265.6041 119.157765 265.6041 265.6041v283.052034c0 146.446335-119.157765 265.6041-265.6041 265.6041h-3.885073c-146.446335 0-265.6041-119.157765-265.6041-265.6041V440.424732c0-146.446335 119.134501-265.6041 265.6041-265.6041h3.885073m0-34.872606h-3.885073c-165.964758 0-300.49997 134.535211-300.49997 300.49997v283.052034c0 165.964758 134.535211 300.49997 300.49997 300.49997h3.885073c165.964758 0 300.49997-134.535211 300.49997-300.49997V440.424732c0-165.941494-134.535211-300.476706-300.49997-300.476706z" fill="#666666" p-id="18236"></path><path d="M233.01915 405.528862h558.333922v34.89587h-558.333922zM813.174623 208.646362c-7.6073 0-15.447239-1.093404-23.519816-3.536114-38.408721-11.631957-51.203873-47.574703-63.557012-82.354254-15.679878-44.061852-29.219475-82.121614-87.891065-87.239675-34.128161-2.907989-60.532703 4.28056-78.329596 21.51912-30.847949 29.894129-28.35871 81.377169-28.335447 81.888975a17.447935 17.447935 0 0 1-34.826078 2.093752c-0.162847-2.745142-3.62917-67.604932 38.664624-108.805323C560.784426 7.460039 596.424742-3.171569 641.254303 0.783296c80.981683 7.07223 101.360871 64.301457 117.738666 110.294213 11.934388 33.546563 20.286133 54.414293 40.828168 60.649023 50.017414 15.237863 96.24281-62.114649 96.708088-62.928886a17.424671 17.424671 0 0 1 30.103504 17.65731c-2.210072 3.74549-49.017066 82.168142-113.458106 82.191406z" fill="#666666" p-id="18237"></path><path d="M512.186111 366.771182a23.263913 23.263913 0 0 1-23.263913-23.263914v-93.055653a23.263913 23.263913 0 0 1 46.527827 0v93.055653a23.263913 23.263913 0 0 1-23.263914 23.263914z" fill="#EFB041" p-id="18238"></path></svg>