<?xml version="1.0" standalone="no"?><!DOCTYPE svg PUBLIC "-//W3C//DTD SVG 1.1//EN" "http://www.w3.org/Graphics/SVG/1.1/DTD/svg11.dtd"><svg t="1623727034987" class="icon" viewBox="0 0 1024 1024" version="1.1" xmlns="http://www.w3.org/2000/svg" p-id="11603" xmlns:xlink="http://www.w3.org/1999/xlink" width="200" height="200"><defs><style type="text/css"></style></defs><path d="M891.648 483.994l-87.654-112.026C784.896 347.546 773.069 332.8 742.4 332.8H588.8v-25.6c0-65.229-30.822-102.4-94.822-102.4H204.8c-64 0-102.4 37.171-102.4 102.4v358.4c0 64 40.038 100.506 102.4 102.4h3.635c11.418 44.083 51.098 76.8 98.765 76.8s87.347-32.717 98.765-76.8h237.67c11.418 44.083 51.098 76.8 98.765 76.8s87.347-32.717 98.765-76.8H921.6V571.136c0-31.54-10.65-62.464-29.952-87.142zM307.2 793.6a51.2 51.2 0 1 1 0-102.4 51.2 51.2 0 0 1 0 102.4z m230.4-76.8H405.965C394.547 672.717 354.867 640 307.2 640s-87.347 32.717-98.765 76.8H204.8c-36.813 0-51.2-13.67-51.2-51.2V307.2c0-37.53 28.006-52.224 64.87-52.224H494.03c36.813 0 43.571 14.694 43.571 52.224v409.6z m204.8 76.8a51.2 51.2 0 1 1 0-102.4 51.2 51.2 0 0 1 0 102.4z m128-76.8h-29.235C829.747 672.717 790.067 640 742.4 640s-87.347 32.717-98.765 76.8H588.8V384h128c15.616 0 39.014 6.86 48.742 19.251l87.655 111.975c12.339 15.872 17.203 27.75 17.203 47.974v153.6zM768 486.4h-76.8v-51.2c0-13.875-11.98-25.6-25.6-25.6S640 421.325 640 435.2v102.4h128a26.112 26.112 0 0 0 25.6-25.6 26.112 26.112 0 0 0-25.6-25.6z" p-id="11604"></path></svg>