<?xml version="1.0" standalone="no"?><!DOCTYPE svg PUBLIC "-//W3C//DTD SVG 1.1//EN" "http://www.w3.org/Graphics/SVG/1.1/DTD/svg11.dtd"><svg t="1692770423062" class="icon" viewBox="0 0 1024 1024" version="1.1" xmlns="http://www.w3.org/2000/svg" p-id="13628" xmlns:xlink="http://www.w3.org/1999/xlink" width="200" height="200"><path d="M968.8064 367.9232l-7.168-7.168A176.9472 176.9472 0 0 0 1013.76 234.8032a179.3024 179.3024 0 0 0-26.8288-96.1536A77.7216 77.7216 0 0 1 951.6032 153.6a49.664 49.664 0 0 1-20.48-3.8912l-9.1136-4.8128c-23.4496-12.3904-47.8208-25.1904-75.8784-25.1904a134.2464 134.2464 0 0 0-52.5312 10.24l-3.8912-9.3184a144.384 144.384 0 0 1 56.5248-11.3664c30.72 0 56.0128 13.4144 80.5888 26.4192l9.1136 4.8128a40.2432 40.2432 0 0 0 15.36 2.7648 80.384 80.384 0 0 0 33.792-15.5648l4.3008-3.1744 2.9696 4.4032A188.5184 188.5184 0 0 1 1024 234.8032a186.9824 186.9824 0 0 1-55.1936 133.12z" fill="#2c2c2c" p-id="13629"></path><path d="M498.4832 998.6048c-5.9392 0-11.6736 0-17.3056-0.512a546.304 546.304 0 0 1-101.376-17.3056l2.6624-10.24a535.04 535.04 0 0 0 99.4304 16.9984c51.2 3.4816 124.6208-11.4688 125.3376-11.5712a475.8528 475.8528 0 0 0-101.376-940.4416 473.2928 473.2928 0 0 0-267.4688 81.92l-5.7344-8.3968a485.9904 485.9904 0 0 1 759.0912 402.3296 488.448 488.448 0 0 1-382.3616 474.8288 651.3664 651.3664 0 0 1-110.8992 12.3904zM346.0096 970.4448A486.6048 486.6048 0 0 1 30.72 407.552l10.24 2.048a476.5696 476.5696 0 0 0 308.3264 551.2192z" fill="#2c2c2c" p-id="13630"></path><path d="M735.3344 789.4016A188.2112 188.2112 0 1 1 923.648 601.1904a188.5184 188.5184 0 0 1-188.3136 188.2112z m0-366.3872a178.0736 178.0736 0 1 0 178.176 178.176 178.2784 178.2784 0 0 0-178.176-178.176z" fill="#2c2c2c" p-id="13631"></path><path d="M698.368 647.8848A54.3744 54.3744 0 1 1 752.64 593.92a54.3744 54.3744 0 0 1-54.272 53.9648z m0-98.5088A44.2368 44.2368 0 1 0 742.5024 593.92a44.2368 44.2368 0 0 0-44.1344-44.544zM835.6864 647.8848A54.3744 54.3744 0 1 1 890.0608 593.92a54.3744 54.3744 0 0 1-54.3744 53.9648z m0-98.5088A44.2368 44.2368 0 1 0 879.9232 593.92a44.2368 44.2368 0 0 0-44.2368-44.544zM395.5712 381.44a54.3744 54.3744 0 1 1 54.3744-54.3744 54.3744 54.3744 0 0 1-54.3744 54.3744z m0-98.5088a44.2368 44.2368 0 1 0 44.2368 44.2368 44.2368 44.2368 0 0 0-44.2368-44.2368zM786.432 356.352a54.3744 54.3744 0 1 1 54.3744-54.3744 54.3744 54.3744 0 0 1-54.3744 54.3744z m0-98.5088a44.2368 44.2368 0 1 0 44.2368 44.2368 44.2368 44.2368 0 0 0-44.2368-44.2368zM148.48 472.4736c-22.9376 0-48.7424-12.4928-66.56-21.9136l-7.2704-3.4816C29.184 426.3936 0 376.6272 0 320.9216c0-42.7008 20.48-82.8416 62.1568-119.0912a58.6752 58.6752 0 0 0 20.48-38.4 43.9296 43.9296 0 0 0-16.7936-34.7136l-5.7344-4.5056 6.2464-3.7888a187.904 187.904 0 0 1 96.6656-26.7264c71.68 0 151.9616 33.6896 165.0688 98.0992 7.5776 36.9664-7.3728 85.1968-45.6704 147.3536-43.8272 71.68-73.6256 115.712-117.8624 130.7648a50.4832 50.4832 0 0 1-16.0768 2.56zM77.6192 125.6448A53.9648 53.9648 0 0 1 92.8768 163.84a67.4816 67.4816 0 0 1-24.064 45.9776C29.9008 243.712 10.24 281.1904 10.24 320.9216c0 51.8144 26.8288 97.9968 68.4032 117.5552l7.3728 3.584c20.48 9.728 53.3504 26.0096 75.5712 18.432 37.7856-12.9024 64.1024-47.8208 112.64-126.464 36.864-59.904 51.2-105.6768 44.3392-139.9808-12.0832-59.0848-87.1424-90.0096-155.136-90.0096a177.9712 177.9712 0 0 0-85.8112 21.6064zM510.5664 965.632h-62.976a15.2576 15.2576 0 0 1-15.2576-15.2576v-76.8a15.2576 15.2576 0 0 1 15.2576-15.2576h62.976a15.2576 15.2576 0 0 1 15.2576 15.2576v76.9024a15.2576 15.2576 0 0 1-15.2576 15.1552z m-62.976-97.1776a5.12 5.12 0 0 0-5.12 5.12v76.9024a5.12 5.12 0 0 0 5.12 5.12h62.976a5.12 5.12 0 0 0 5.12-5.12v-76.9024a5.12 5.12 0 0 0-5.12-5.12zM613.9904 995.7376l-88.1664-33.8944 3.6864-9.4208 74.1376 28.5696-1.8432-150.3232-70.144 41.3696-5.2224-8.8064 85.2992-50.176 2.2528 182.6816zM343.4496 995.7376l2.3552-182.6816 85.1968 50.176-5.12 8.8064-70.2464-41.3696-1.8432 150.3232 74.24-28.5696 3.584 9.4208-88.1664 33.8944z" fill="#2c2c2c" p-id="13632"></path></svg>