<?xml version="1.0" standalone="no"?><!DOCTYPE svg PUBLIC "-//W3C//DTD SVG 1.1//EN" "http://www.w3.org/Graphics/SVG/1.1/DTD/svg11.dtd"><svg t="1692845440177" class="icon" viewBox="0 0 1024 1024" version="1.1" xmlns="http://www.w3.org/2000/svg" p-id="75735" xmlns:xlink="http://www.w3.org/1999/xlink" width="200" height="200"><path d="M729.4 396.5c-9.5 0-17.3-7.7-17.3-17.3V265.5c0.2-9.4 7.9-16.8 17.3-16.8s17 7.5 17.3 16.8v113.8c-0.1 9.5-7.8 17.2-17.3 17.2zM740.5 262L444.7 374.7c-5.6 2.1-11.7 2.1-17.3 0L131.6 262c-9.4-3.6-15.7-12.6-15.7-22.7s6.2-19.1 15.7-22.7L427.4 104c5.6-2.1 11.7-2.1 17.3 0l295.8 112.7c9.4 3.6 15.7 12.6 15.7 22.7 0 10-6.3 19-15.7 22.6zM751 434.2c0 12.7-10.3 23-23.1 23-12.7 0-23.1-10.3-23-23.1 0-12.7 10.3-23.1 23.1-23 6.1 0 12 2.4 16.3 6.8 4.3 4.3 6.8 10.1 6.7 16.3zM499.3 819.5c-25.3-59.8-25.3-127.3 0-187.1 12.3-28.7 29.8-54.8 51.8-77 17.5-17.4 37.6-32.1 59.5-43.4 0.3-3.8 0.4-7.6 0.4-11.4v-79.9c0-26.7-6.4-53-18.5-76.7L446 399.8c-6.4 2.5-13.5 2.5-19.9 0l-154.4-58.7c-13.1 24.5-20 51.9-20 79.7v79.9c0.4 64.2 36.1 122.9 93 152.7l-184.5 86.1c-29.5 5.5-51 31.2-51.3 61.2v1.1c0.3 23.6 10.1 46.1 27 62.6s39.7 25.5 63.4 25.1H545c-19.1-20.6-34.6-44.3-45.7-70zM786 824" p-id="75736"></path><path d="M901.5 651.1c-9.9-23.3-24.2-44.4-41.9-62.4-17.8-17.8-38.8-32-61.9-41.8-48.7-20.5-103.7-20.5-152.4 0-23.2 9.8-44.2 24-61.9 41.8-17.8 18-32.1 39.1-42 62.4a195.03 195.03 0 0 0 0 151.8c10 23.2 24.2 44.3 42 62.3 17.8 17.8 38.8 32 61.9 41.9 73.3 31.2 158.2 14.6 214.4-41.9 17.9-17.9 32.1-39 42-62.3a195.47 195.47 0 0 0-0.2-151.8z m-63.7 150c-0.2 4.9-1.9 9-5.2 12.3-3.3 3.3-7.4 5-12.3 5.2H756L724.6 850c-0.8 0.7-1.9 1-3.2 1s-2.4-0.3-3.2-1l-31.4-31.4h-64.3c-4.9-0.2-9-1.9-12.3-5.2-3.3-3.3-5-7.4-5.2-12.3V634.6c0.2-4.9 1.9-9 5.2-12.3 3.3-3.3 7.4-5 12.3-5.2h64.3l31.4 31.4c0.8 0.8 1.9 1.2 3.2 1.2s2.4-0.4 3.2-1.2l31.4-31.4h64.3c4.9 0.2 9 1.9 12.3 5.2 3.3 3.3 5 7.4 5.2 12.3v166.5z" p-id="75737"></path><path d="M791.8 696.1l-62.9 70.7c-1.5 3.1-4.6 4.7-9.3 4.7-1.6 0-3.2-0.3-4.5-1-1.4-0.6-2.5-1.4-3.3-2.2L670.9 729c-3.1-2.5-4.7-5.3-4.9-8.6-0.2-3.3 0.9-6.1 3.2-8.6 2.5-3.1 5.4-4.8 8.8-4.9 3.5-0.2 6.8 1 10.1 3.4l31.4 28.2 53.5-61.4c2.5-2.4 5.3-3.9 8.6-4.3 3.3-0.4 6.1 0.5 8.6 2.8 2.4 3.1 3.9 6.5 4.3 10.1 0.5 3.6-0.4 7.1-2.7 10.4z" p-id="75738"></path></svg>