<?xml version="1.0" standalone="no"?><!DOCTYPE svg PUBLIC "-//W3C//DTD SVG 1.1//EN" "http://www.w3.org/Graphics/SVG/1.1/DTD/svg11.dtd"><svg t="1692842306505" class="icon" viewBox="0 0 1024 1024" version="1.1" xmlns="http://www.w3.org/2000/svg" p-id="22936" xmlns:xlink="http://www.w3.org/1999/xlink" width="200" height="200"><path d="M767.872 951.04H275.328C163.584 951.04 72.96 860.416 72.96 748.672V256.128C72.96 144.384 163.584 53.76 275.328 53.76h492.544C879.616 53.76 970.24 144.384 970.24 256.128v492.544c0 111.744-90.624 202.368-202.368 202.368z" fill="#0079F5" p-id="22937"></path><path d="M647.68 312.192h-44.416L462.208 642.56h49.152l38.912-93.696h150.4l38.912 93.696h49.152L647.68 312.192z m36.864 197.504h-118.144L625.664 368.64l58.88 141.056zM374.272 386.048H343.04l-88.576 207.488h36.864l23.68-57.088h87.296l23.68 57.088h36.864l-88.576-207.488z m-46.848 120.32l31.232-74.496 31.104 74.496h-62.336z" fill="#FFFFFF" p-id="22938"></path></svg>